<svg xmlns="http://www.w3.org/2000/svg" xmlns:xlink="http://www.w3.org/1999/xlink" version="1.1" baseProfile="full" viewBox="0 0 200 200" width="200" height="200">
<g fill="black">
<path d="M 15.0 176.0 L 42.0 176.0 L 42.0 107.0 L 54.0 109.0 L 57.0 111.0 L 54.0 112.8 L 54.0 176.0 L 94.0 176.0 L 94.0 90.0 L 17.0 90.0 L 17.0 86.0 L 94.0 86.0 L 94.0 46.0 L 54.438461494445804 46.0 L 51.3 51.1 L 47.0 57.3 L 42.3 63.5 L 37.2 69.4 L 31.6 75.1 L 25.6 80.6 L 24.3 79.3 L 28.7 72.7 L 32.9 66.2 L 36.9 59.7 L 40.6 53.3 L 44.0 46.8 L 47.0 40.4 L 49.7 33.9 L 52.1 27.4 L 54.2 20.8 L 55.66135177612305 15.212478351593017 L 55.6 15.2 L 56.4 12.6 L 67.4 17.6 L 69.8 20.3 L 66.06568298339843 21.282715034484863 L 64.9 24.5 L 62.1 31.3 L 58.9 38.0 L 56.71818180084229 42.0 L 144.0 42.0 L 154.0 32.0 L 166.0 42.0 L 166.0 46.0 L 106.0 46.0 L 106.0 86.0 L 161.0 86.0 L 171.0 76.0 L 183.0 86.0 L 183.0 90.0 L 106.0 90.0 L 106.0 126.0 L 148.0 126.0 L 158.0 116.0 L 170.0 126.0 L 170.0 130.0 L 106.0 130.0 L 106.0 176.0 L 163.0 176.0 L 173.0 166.0 L 185.0 176.0 L 185.0 180.0 L 15.0 180.0 Z " />
</g>
</svg>
