<svg xmlns="http://www.w3.org/2000/svg" xmlns:xlink="http://www.w3.org/1999/xlink" version="1.1" baseProfile="full" viewBox="0 0 200 200" width="200" height="200">
<g fill="black">
<path d="M 106.0 99.8 L 109.0 101.8 L 106.0 103.6 L 106.0 183.0 L 94.0 189.0 L 94.0 97.8 Z M 158.1 118.7 L 149.4 112.8 L 141.1 106.3 L 133.1 99.3 L 125.4 91.7 L 118.1 83.5 L 111.1 74.8 L 104.7 65.4 L 102.34680118560792 61.371642684936525 L 99.5 65.8 L 91.8 76.3 L 83.6 86.1 L 74.9 95.3 L 65.7 103.9 L 56.0 111.7 L 45.9 118.9 L 35.2 125.3 L 24.0 130.8 L 12.3 135.6 L 11.6 133.9 L 22.2 127.5 L 32.4 120.7 L 42.0 113.5 L 51.2 105.8 L 59.9 97.7 L 68.2 89.0 L 75.9 79.7 L 83.2 69.9 L 89.9 59.6 L 96.2 48.6 L 96.23705883026123 48.621176433563235 L 96.8 47.7 L 106.7 54.6 L 108.3 57.8 L 104.60257034301758 57.86266832351684 L 104.15626697540283 58.55691804885864 L 108.0 62.8 L 115.6 70.9 L 123.3 78.6 L 131.2 85.7 L 139.1 92.2 L 147.3 98.2 L 155.6 103.6 L 164.0 108.5 L 172.7 112.9 L 181.6 116.7 L 187.7 119.4 L 176.3 128.8 L 167.0 124.0 Z M 73.6 47.4 L 75.2 50.7 L 71.29622640609742 50.7 L 69.9 52.7 L 65.9 57.9 L 61.5 62.9 L 56.8 67.7 L 51.8 72.4 L 46.5 76.9 L 40.8 81.3 L 34.7 85.4 L 28.3 89.2 L 21.5 92.8 L 20.4 91.3 L 26.1 86.2 L 31.4 81.2 L 36.5 76.2 L 41.3 71.3 L 45.8 66.4 L 50.0 61.5 L 53.8 56.5 L 57.3 51.5 L 60.4 46.4 L 63.3 41.3 L 63.8 40.4 Z M 154.8 77.9 L 151.6 73.5 L 148.1 69.1 L 144.4 64.7 L 140.3 60.5 L 136.0 56.3 L 131.4 52.2 L 126.5 48.1 L 121.4 43.8 L 122.3 42.3 L 128.5 44.8 L 134.4 47.8 L 140.0 51.1 L 145.2 54.7 L 150.2 58.6 L 154.9 62.6 L 159.2 66.9 L 163.3 71.5 L 167.1 76.2 L 170.6 81.1 L 171.2 85.7 L 168.5 89.3 L 163.9 89.9 L 160.3 87.2 L 157.7 82.5 Z M 185.0 29.0 L 185.0 33.0 L 15.0 33.0 L 15.0 29.0 L 163.0 29.0 L 173.0 19.0 Z " />
</g>
</svg>
