<svg xmlns="http://www.w3.org/2000/svg" xmlns:xlink="http://www.w3.org/1999/xlink" version="1.1" baseProfile="full" viewBox="0 0 200 200" width="200" height="200">
<g fill="black">
<path d="M 134.2 181.5 L 116.5 179.9 L 100.9 177.2 L 87.6 173.4 L 76.4 168.4 L 67.6 162.3 L 61.3 155.1 L 58.079061126708986 147.46177349090576 L 56.1 151.2 L 51.9 157.6 L 47.3 163.6 L 42.1 169.4 L 36.5 174.8 L 30.4 179.7 L 23.7 184.3 L 16.5 188.3 L 15.4 186.8 L 21.3 181.3 L 26.8 175.7 L 31.8 170.1 L 36.4 164.4 L 40.5 158.6 L 44.1 152.6 L 47.2 146.4 L 49.9 140.1 L 52.1 133.6 L 53.6298602104187 127.90552034378052 L 53.6 127.9 L 53.847058868408205 127.0970588684082 L 53.9 126.9 L 53.907090473175046 126.90195598602295 L 54.4 125.3 L 65.5 130.1 L 67.8 132.8 L 64.1688452720642 133.83747272491456 L 62.9 137.4 L 60.60346088409424 142.42367944717407 L 61.7 145.4 L 66.0 151.5 L 72.1 156.6 L 80.1 161.0 L 90.4 164.5 L 94.0 165.24879999160765 L 94.0 121.0 L 43.0 121.0 L 43.0 117.0 L 94.0 117.0 L 94.0 96.8 L 14.0 96.8 L 14.0 92.8 L 94.0 92.8 L 94.0 73.4 L 43.0 73.4 L 43.0 69.4 L 94.0 69.4 L 94.0 54.8 L 106.0 56.8 L 109.0 58.8 L 106.0 60.6 L 106.0 69.4 L 141.0 69.4 L 147.0 64.4 L 158.0 73.4 L 153.0 77.4 L 153.0 92.8 L 167.8181818008423 92.8 L 176.0 83.8 L 186.0 92.8 L 186.0 96.8 L 153.0 96.8 L 153.0 123.0 L 141.0 129.0 L 141.0 121.0 L 106.0 121.0 L 106.0 140.4 L 147.0 140.4 L 157.0 130.4 L 169.0 140.4 L 169.0 144.4 L 106.0 144.4 L 106.0 167.47959184646606 L 117.6 168.9 L 134.7 169.7 L 154.0 169.6 L 175.6 168.5 L 186.8 167.9 L 176.3 181.7 L 154.1 182.1 Z M 106.0 96.8 L 106.0 117.0 L 141.0 117.0 L 141.0 96.8 Z M 106.0 73.4 L 106.0 92.8 L 141.0 92.8 L 141.0 73.4 Z M 45.0 52.4 L 33.0 58.4 L 33.0 21.4 L 45.0 23.4 L 48.0 25.4 L 45.0 27.2 L 45.0 45.4 L 95.0 45.4 L 95.0 12.4 L 107.0 14.4 L 110.0 16.4 L 107.0 18.2 L 107.0 45.4 L 156.0 45.4 L 156.0 21.4 L 168.0 23.4 L 171.0 25.4 L 168.0 27.2 L 168.0 53.4 L 156.0 59.4 L 156.0 49.4 L 45.0 49.4 Z " />
</g>
</svg>
