<svg xmlns="http://www.w3.org/2000/svg" xmlns:xlink="http://www.w3.org/1999/xlink" version="1.1" baseProfile="full" viewBox="0 0 200 200" width="200" height="200">
<g fill="black">
<path d="M 14.3 149.2 L 18.3 147.9 L 22.4 146.4 L 26.6 144.7 L 31.0 143.0 L 35.4 141.1 L 40.0 139.1 L 44.8 137.0 L 49.7 134.9 L 54.5 132.9235294342041 L 54.5 76.4 L 15.7 76.4 L 15.7 72.4 L 54.5 72.4 L 54.5 21.2 L 66.5 23.2 L 69.5 25.2 L 66.5 27.0 L 66.5 178.8 L 54.5 184.8 L 54.5 137.7906976699829 L 52.4 139.5 L 48.0 142.7 L 43.7 145.7 L 39.4 148.6 L 35.2 151.2 L 31.0 153.7 L 26.9 156.1 L 22.9 158.3 L 22.665625 158.4171875 L 21.9 162.3 L 18.9 160.3 L 12.5 150.0 Z M 181.1 149.1 L 183.1 149.1 L 181.1 170.1 L 184.4 172.3 L 186.6 175.6 L 184.4 178.9 L 181.1 181.1 L 104.1 181.1 L 101.6 181.0 L 99.2 180.6 L 96.8 179.9 L 94.6 178.7 L 92.6 177.1 L 90.9 175.2 L 89.6 173.0 L 88.8 170.6 L 88.3 168.1 L 88.1 165.6 L 88.1 12.1 L 100.1 14.1 L 103.1 16.1 L 100.1 17.9 L 100.1 166.8 L 100.2 167.7 L 100.4 168.4 L 100.5 168.8 L 101.2 169.5 L 101.9 169.7 L 102.8 170.0 L 104.1 170.1 L 175.6 170.1 Z M 177.1 119.7 L 179.1 119.7 L 177.1 140.7 L 180.4 142.8 L 182.6 146.2 L 180.4 149.5 L 177.1 151.7 L 139.1 151.7 L 136.6 151.6 L 134.1 151.2 L 131.7 150.4 L 129.5 149.3 L 127.5 147.7 L 125.8 145.8 L 124.6 143.6 L 123.8 141.2 L 123.3 138.7 L 123.1 136.2 L 123.1 20.6 L 135.1 22.6 L 138.1 24.6 L 135.1 26.4 L 135.1 80.0666666984558 L 137.3 78.6 L 141.6 75.7 L 145.8 72.6 L 150.0 69.4 L 154.2 66.0 L 158.3 62.3 L 162.4 58.5 L 166.4 54.5 L 169.81791591644287 50.9153564453125 L 169.8 50.9 L 170.7 49.9 L 178.9 58.7 L 179.6 62.3 L 175.8918146133423 61.32416172027588 L 174.2 62.8 L 169.4 66.7 L 164.5 70.2 L 159.7 73.5 L 154.7 76.4 L 149.8 79.1 L 144.8 81.4 L 139.7 83.4 L 135.1 84.7529411315918 L 135.1 137.4 L 135.2 138.3 L 135.4 138.9 L 135.5 139.3 L 135.6 139.6 L 135.8 139.8 L 136.2 140.1 L 136.8 140.3 L 137.8 140.5 L 139.1 140.7 L 171.6 140.7 Z " />
</g>
</svg>
