<svg xmlns="http://www.w3.org/2000/svg" xmlns:xlink="http://www.w3.org/1999/xlink" version="1.1" baseProfile="full" viewBox="0 0 200 200" width="200" height="200">
<g fill="black">
<path d="M 123.0 28.0 L 162.0 28.0 L 168.0 23.0 L 179.0 32.0 L 174.0 36.0 L 174.0 178.0 L 162.0 184.0 L 162.0 172.0 L 38.0 172.0 L 38.0 184.0 L 26.0 190.0 L 26.0 22.0 L 38.0 28.0 L 77.0 28.0 L 83.0 23.0 L 94.0 32.0 L 89.0 36.0 L 89.0 101.0 L 77.0 107.0 L 77.0 95.0 L 38.0 95.0 L 38.0 168.0 L 162.0 168.0 L 162.0 95.0 L 123.0 95.0 L 123.0 107.0 L 111.0 113.0 L 111.0 22.0 Z M 123.0 32.0 L 123.0 91.0 L 162.0 91.0 L 162.0 32.0 Z M 38.0 32.0 L 38.0 91.0 L 77.0 91.0 L 77.0 32.0 Z " />
</g>
</svg>
