<svg xmlns="http://www.w3.org/2000/svg" xmlns:xlink="http://www.w3.org/1999/xlink" version="1.1" baseProfile="full" viewBox="0 0 200 200" width="200" height="200">
<g fill="black">
<path d="M 37.0 43.0 L 101.0 43.0 L 101.0 28.0 L 36.0 28.0 L 36.0 24.0 L 152.0 24.0 L 162.0 14.0 L 174.0 24.0 L 174.0 28.0 L 113.0 28.0 L 113.0 43.0 L 168.0 43.0 L 174.0 38.0 L 185.0 47.0 L 180.0 50.0 L 176.90769233703614 51.2884614944458 L 175.5 53.4 L 174.0 55.4 L 172.4 57.4 L 170.8 59.3 L 169.1 61.2 L 167.3 62.9 L 165.3 64.6 L 163.7 66.5 L 162.2 65.4 L 163.3 63.3 L 164.0 60.9 L 164.7 58.6 L 165.3 56.3 L 166.0 54.0 L 166.5 51.8 L 167.0 49.5 L 167.5 47.3 L 167.55454549789428 47.0 L 113.0 47.0 L 113.0 62.0 L 140.8181818008423 62.0 L 149.0 53.0 L 159.0 62.0 L 159.0 66.0 L 113.0 66.0 L 113.0 81.0 L 148.0 81.0 L 158.0 71.0 L 170.0 81.0 L 170.0 85.0 L 44.0 85.0 L 44.0 81.0 L 101.0 81.0 L 101.0 66.0 L 52.0 66.0 L 52.0 62.0 L 101.0 62.0 L 101.0 47.0 L 37.0 47.0 L 37.0 104.0 L 36.5 114.7 L 35.6 124.9 L 34.3 134.7 L 32.7 143.9 L 30.6 152.6 L 28.1 160.8 L 25.2 168.4 L 21.9 175.4 L 18.1 181.8 L 13.7 187.4 L 12.2 186.5 L 14.7 180.0 L 17.0 173.3 L 19.0 166.2 L 20.8 158.7 L 22.3 150.8 L 23.5 142.4 L 24.3 133.5 L 24.9 124.2 L 25.1 114.3 L 25.0 104.0 L 25.0 37.0 Z " />
</g>
</svg>
