<svg xmlns="http://www.w3.org/2000/svg" xmlns:xlink="http://www.w3.org/1999/xlink" version="1.1" baseProfile="full" viewBox="0 0 200 200" width="200" height="200">
<g fill="black">
<path d="M 14.0 177.0 L 43.0 177.0 L 43.0 107.0 L 55.0 109.0 L 58.0 111.0 L 55.0 112.8 L 55.0 177.0 L 94.0 177.0 L 94.0 74.0 L 19.0 74.0 L 19.0 70.0 L 94.0 70.0 L 94.0 38.23873243331909 L 84.9 39.2 L 70.4 40.5 L 55.4 41.6 L 39.9 42.4 L 24.0 42.8 L 23.9 41.1 L 39.5 38.6 L 54.8 36.3 L 69.6 34.0 L 83.9 31.7 L 97.9 29.3 L 111.3 26.9 L 124.3 24.4 L 136.9 21.8 L 149.0 19.1 L 159.71144990921022 16.536576080322266 L 159.7 16.5 L 159.73704357147216 16.530451107025147 L 160.7 16.3 L 160.97788019180297 17.550460815429688 L 171.5 26.2 L 171.8 29.2 L 167.4137188911438 27.096988487243653 L 163.3 28.0 L 151.3 30.2 L 138.9 32.3 L 126.0 34.3 L 112.8 36.1 L 106.0 36.89416055679321 L 106.0 70.0 L 159.0 70.0 L 169.0 60.0 L 181.0 70.0 L 181.0 74.0 L 106.0 74.0 L 106.0 121.0 L 141.0 121.0 L 151.0 111.0 L 163.0 121.0 L 163.0 125.0 L 106.0 125.0 L 106.0 177.0 L 164.0 177.0 L 174.0 167.0 L 186.0 177.0 L 186.0 181.0 L 14.0 181.0 Z " />
</g>
</svg>
