<svg xmlns="http://www.w3.org/2000/svg" xmlns:xlink="http://www.w3.org/1999/xlink" version="1.1" baseProfile="full" viewBox="0 0 200 200" width="200" height="200">
<g fill="black">
<path d="M 22.8 70.3 L 24.7 70.5 L 25.82763319015503 70.59021062850952 L 26.7 68.9 L 32.9 57.1 L 35.8 51.4 L 38.6 45.7 L 41.1 40.1 L 43.5 34.5 L 45.7 28.9 L 47.7 23.4 L 49.1915789604187 18.925263118743896 L 49.1 18.9 L 50.0 16.6 L 60.7 22.1 L 62.8 25.0 L 59.08532743453979 25.71686668395996 L 58.2 27.7 L 55.5 33.3 L 52.5 38.8 L 49.4 44.3 L 46.0 49.8 L 42.3 55.3 L 38.5 60.6 L 34.3 65.9 L 29.99933557510376 70.8696566581726 L 30.5 70.9 L 44.4 70.9 L 50.3 70.8 L 64.2 70.8 L 65.33687648773193 70.81439085006714 L 71.5 59.5 L 77.5 46.3 L 83.0 32.1 L 87.8 17.0 L 87.81817893981933 17.00569076538086 L 88.3 15.5 L 99.3 20.6 L 101.5 23.4 L 97.94333925247193 24.289165210723876 L 93.6 36.1 L 87.3 50.7 L 80.3 64.2 L 72.7 76.7 L 64.4 88.2 L 55.5 98.7 L 45.9 108.0 L 35.6 116.3 L 24.7 123.3 L 13.1 129.1 L 12.3 127.5 L 22.6 120.2 L 32.2 112.1 L 41.3 103.3 L 49.7 93.7 L 57.6 83.2 L 62.844943809509275 74.89550561904908 L 57.5 76.1 L 51.0 77.3 L 45.1 78.4 L 39.9 79.4 L 35.2 80.2 L 31.3 80.9 L 27.9 81.4 L 27.33243246078491 81.50135135650635 L 24.8 85.3 L 22.8 82.3 L 20.8 70.3 Z M 169.1 96.7 L 167.5 98.6 L 165.7 100.3 L 163.7 101.7 L 161.6 102.9 L 159.3 103.8 L 156.9 104.5 L 154.5 104.8 L 152.0 105.0 L 152.0 99.0 L 132.0 96.0 L 132.0 93.0 L 152.0 93.0 L 153.3 92.9 L 154.5 92.7 L 155.5 92.4 L 156.4 92.1 L 157.3 91.6 L 158.0 91.1 L 158.7 90.4 L 159.4 89.6 L 160.0 88.6 L 160.7 87.4 L 161.7 84.7 L 162.7 81.3 L 163.6 77.2 L 164.4 72.4 L 165.0 67.1 L 165.5 61.1 L 165.8 54.5 L 166.0 47.3 L 166.0812029838562 40.966165447235106 L 166.0 41.0 L 166.0 33.0 L 140.67886180877684 33.0 L 139.3 43.6 L 136.8 55.0 L 133.2 65.5 L 128.7 75.1 L 123.2 83.8 L 116.8 91.5 L 109.5 98.2 L 101.3 103.9 L 92.2 108.4 L 82.3 111.8 L 81.6 110.1 L 90.4 105.0 L 98.2 99.5 L 105.1 93.3 L 111.1 86.5 L 116.2 79.1 L 120.4 71.0 L 123.8 62.1 L 126.3 52.4 L 128.1 41.9 L 128.75321102142334 33.0 L 103.0 33.0 L 103.0 29.0 L 166.0 29.0 L 172.0 24.0 L 183.0 33.0 L 178.0206421852112 35.98761463165283 L 178.1 39.4 L 178.0 47.5 L 177.8 55.0 L 177.5 61.9 L 177.0 68.3 L 176.3 74.1 L 175.4 79.4 L 174.4 84.2 L 173.1 88.5 L 171.6 92.4 L 170.4 94.6 Z " />
</g>
</svg>
