<svg xmlns="http://www.w3.org/2000/svg" xmlns:xlink="http://www.w3.org/1999/xlink" version="1.1" baseProfile="full" viewBox="0 0 200 200" width="200" height="200">
<g fill="black">
<path d="M 74.0 176.6 L 95.2 176.6 L 96.1 176.4 L 96.7 176.2 L 97.0 176.0 L 97.2 175.9 L 97.4 175.7 L 97.7 174.8 L 97.9 173.9 L 98.0 172.6 L 98.0 129.8 L 24.8 129.8 L 24.8 125.8 L 98.0 125.8 L 98.0 106.3 L 108.93994169235229 108.12332363128662 L 110.8 106.5 L 116.0 102.0 L 120.9 97.8 L 125.5 93.9 L 129.7 90.2 L 133.5 86.7 L 136.9 83.5 L 139.12580642700195 81.2 L 48.8 81.2 L 48.8 77.2 L 142.8384614944458 77.2 L 144.7 75.0 L 145.13276233673096 75.42269811630248 L 149.0 72.2 L 160.0 81.2 L 155.0 84.2 L 149.77746477127076 86.37605638504029 L 147.0 88.5 L 143.3 91.2 L 139.3 94.0 L 134.8 96.9 L 130.0 100.0 L 124.7 103.2 L 119.1 106.4 L 112.9 109.6 L 112.35 109.86666669845582 L 113.0 110.3 L 110.0 112.1 L 110.0 125.8 L 161.1 125.8 L 171.1 115.8 L 183.1 125.8 L 183.1 129.8 L 110.0 129.8 L 110.0 172.6 L 109.8 175.2 L 109.4 177.7 L 108.6 180.1 L 107.3 182.3 L 105.7 184.4 L 103.7 186.0 L 101.4 187.2 L 99.0 188.0 L 96.5 188.5 L 94.0 188.6 L 94.0 182.6 L 74.0 179.6 Z M 78.0 21.4 L 79.9 24.5 L 76.05691061019897 24.89756097793579 L 74.0 28.6 L 69.6 35.6 L 64.6 42.3 L 59.46307687759399 48.6 L 159.0 48.6 L 169.0 38.6 L 181.0 48.6 L 181.0 52.6 L 55.68688526153564 52.6 L 53.5 54.9 L 47.2 60.7 L 40.5 66.2 L 33.3 71.4 L 25.6 76.2 L 17.4 80.5 L 16.5 79.0 L 23.4 73.1 L 30.0 67.2 L 36.2 61.3 L 41.9 55.3 L 47.2 49.2 L 52.1 42.9 L 56.5 36.5 L 60.5 29.9 L 64.0 23.2 L 67.1 16.3 L 67.12379913330078 16.311135387420656 L 67.6 15.2 Z " />
</g>
</svg>
