<svg xmlns="http://www.w3.org/2000/svg" xmlns:xlink="http://www.w3.org/1999/xlink" version="1.1" baseProfile="full" viewBox="0 0 200 200" width="200" height="200">
<g fill="black">
<path d="M 44.0 183.0 L 32.0 189.0 L 32.0 133.0 L 44.0 135.0 L 47.0 137.0 L 44.0 138.8 L 44.0 172.0 L 94.0 172.0 L 94.0 68.0 L 18.0 68.0 L 18.0 64.0 L 94.0 64.0 L 94.0 35.688095283508304 L 85.5 36.7 L 72.5 37.9 L 59.3 38.9 L 45.8 39.6 L 32.0 39.8 L 31.9 38.1 L 45.4 35.8 L 58.7 33.6 L 71.7 31.4 L 84.4 29.2 L 96.8 26.8 L 108.9 24.4 L 120.8 21.8 L 132.3 19.1 L 143.6 16.3 L 153.612078666687 13.636236000061036 L 153.6 13.6 L 153.63588314056398 13.629902648925782 L 154.5 13.4 L 154.8 14.6 L 165.0 23.1 L 165.3 26.1 L 160.99802951812745 24.100492572784425 L 157.4 25.0 L 146.1 27.4 L 134.5 29.6 L 122.7 31.7 L 110.5 33.5 L 99.8008849143982 34.96681413650513 L 106.0 36.0 L 109.0 38.0 L 106.0 39.8 L 106.0 64.0 L 160.0 64.0 L 170.0 54.0 L 182.0 64.0 L 182.0 68.0 L 106.0 68.0 L 106.0 172.0 L 156.0 172.0 L 156.0 133.0 L 168.0 135.0 L 171.0 137.0 L 168.0 138.8 L 168.0 180.0 L 156.0 186.0 L 156.0 176.0 L 44.0 176.0 Z M 55.540785503387454 81.07552871704101 L 55.2 84.1 L 53.7 91.1 L 51.5 97.9 L 49.76479873657227 101.53832530975342 L 53.9 102.5 L 57.9 103.8 L 61.8 105.4 L 65.5 107.2 L 69.0 109.1 L 72.3 111.3 L 75.4 113.6 L 78.3 116.2 L 81.0 118.9 L 82.0 123.4 L 79.8 127.4 L 75.3 128.4 L 71.4 126.2 L 69.7 123.6 L 67.9 121.1 L 65.9 118.6 L 63.6 116.1 L 61.0 113.7 L 58.2 111.3 L 55.2 109.0 L 51.9 106.7 L 48.43593902587891 104.32464389801025 L 48.4 104.4 L 44.6 110.6 L 40.0 116.6 L 34.8 122.4 L 28.8 127.8 L 22.0 132.9 L 14.5 137.7 L 13.4 136.2 L 19.6 130.0 L 25.0 124.0 L 29.8 118.0 L 33.9 112.1 L 37.3 106.3 L 40.0 100.4 L 42.0 94.6 L 43.3 88.7 L 43.9 82.9 L 44.0 77.0 L 44.0 74.6 L 56.0 77.0 L 59.0 79.0 Z M 155.70179643630982 82.43892211914063 L 155.4 85.5 L 153.9 92.2 L 151.5 98.6 L 150.166645526886 101.13767471313477 L 150.7 101.3 L 155.1 102.7 L 159.3 104.3 L 163.2 106.1 L 166.9 108.1 L 170.4 110.1 L 173.6 112.4 L 176.7 114.7 L 179.5 117.2 L 182.0 119.9 L 183.0 124.3 L 180.7 128.3 L 176.3 129.3 L 172.3 127.0 L 170.9 124.5 L 169.1 122.1 L 167.1 119.6 L 164.8 117.0 L 162.2 114.5 L 159.4 112.0 L 156.3 109.4 L 152.9 106.8 L 149.3 104.1 L 148.7839726448059 103.7692132949829 L 148.4 104.5 L 144.5 109.9 L 139.9 114.8 L 134.6 119.3 L 128.6 123.2 L 121.9 126.5 L 114.5 129.3 L 113.7 127.7 L 120.0 123.2 L 125.5 118.8 L 130.3 114.3 L 134.3 109.7 L 137.6 104.9 L 140.2 100.0 L 142.1 95.0 L 143.4 89.7 L 144.1 84.2 L 144.1 76.0 L 156.1 78.4 L 159.1 80.4 Z " />
</g>
</svg>
