<svg xmlns="http://www.w3.org/2000/svg" xmlns:xlink="http://www.w3.org/1999/xlink" version="1.1" baseProfile="full" viewBox="0 0 200 200" width="200" height="200">
<g fill="black">
<path d="M 44.0 43.0 L 156.0 43.0 L 162.0 38.0 L 173.0 47.0 L 168.0 51.0 L 168.0 72.0 L 156.0 78.0 L 156.0 72.0 L 44.0 72.0 L 44.0 87.0 L 43.4 101.3 L 42.2 114.8 L 40.5 127.4 L 38.2 139.0 L 35.3 149.8 L 31.8 159.6 L 27.7 168.5 L 23.0 176.3 L 17.6 183.0 L 11.6 188.6 L 10.3 187.3 L 14.6 180.8 L 18.4 173.6 L 21.7 165.7 L 24.7 157.1 L 27.1 147.6 L 29.1 137.3 L 30.5 126.0 L 31.5 113.9 L 32.0 100.9 L 32.0 37.0 Z M 145.7 179.1 L 136.3 174.3 L 127.6 168.7 L 120.3993779182434 162.93950233459472 L 112.2 168.5 L 102.8 173.5 L 92.7 177.9 L 82.1 181.4 L 70.9 184.1 L 59.1 185.8 L 58.8 184.1 L 69.9 180.4 L 80.4 176.3 L 90.1 171.8 L 99.1 166.9 L 107.5 161.4 L 113.70358047485351 156.4854751586914 L 112.4 155.2 L 105.9 147.3 L 100.2 138.7 L 95.4 129.3 L 93.93284616470336 125.40045967102051 L 92.0 130.3 L 86.6 140.5 L 80.2 150.1 L 72.8 159.0 L 64.4 167.1 L 55.1 174.5 L 44.7 181.0 L 33.4 186.7 L 32.5 185.2 L 42.6 177.9 L 51.7 170.3 L 59.9 162.4 L 67.0 154.0 L 73.2 145.3 L 78.4 136.1 L 82.7 126.4 L 85.16666669845581 119.0 L 47.0 119.0 L 47.0 115.0 L 86.36915884017944 115.0 L 88.5 105.5 L 89.37496356964111 98.96693897247314 L 88.0 99.1 L 78.5 99.7 L 68.8 100.1 L 59.0 100.2 L 49.0 99.8 L 48.9 98.1 L 58.7 96.4 L 68.3 94.8 L 77.8 93.2 L 87.0 91.5 L 96.1 89.8 L 104.9 88.0 L 113.6 86.0 L 122.1 83.9 L 130.4 81.7 L 138.5 79.4 L 138.87295875549316 80.84210729598999 L 148.8 89.1 L 149.1 92.1 L 144.85473651885985 90.12684936523438 L 141.5 91.0 L 133.0 92.8 L 124.3 94.4 L 115.5 95.9 L 106.5 97.1 L 101.504612159729 97.69727458953858 L 99.6 107.8 L 97.55172414779663 115.0 L 147.0 115.0 L 157.0 105.0 L 169.0 115.0 L 169.0 119.0 L 96.41379308700562 119.0 L 96.3 119.4 L 95.36136951446534 121.77931919097901 L 99.0 127.3 L 105.0 135.3 L 111.4 142.7 L 118.2 149.2 L 120.1234525680542 150.72822256088256 L 122.2 148.8 L 128.5 141.6 L 134.2 134.0 L 139.3 125.7 L 139.8 124.8 L 149.6 131.9 L 151.1 135.2 L 147.275 135.2 L 143.4 140.7 L 136.6 148.7 L 129.1 156.0 L 128.15643348693848 156.75945596694947 L 133.2 160.1 L 141.5 164.5 L 150.2 168.2 L 159.5 171.2 L 169.4 173.5 L 178.3 175.5 L 166.5 186.4 L 155.8 183.2 Z M 167.8 101.8 L 166.8 100.1 L 164.4 96.9 L 162.9 95.3 L 161.4 93.6 L 159.6 92.0 L 157.8 90.3 L 155.6 89.1 L 156.2 87.5 L 158.7 88.2 L 161.3 88.6 L 163.8 89.2 L 166.3 90.0 L 168.6 91.0 L 170.9 92.1 L 173.1 93.3 L 175.2 94.7 L 177.2 96.3 L 179.0 98.0 L 180.1 102.5 L 177.7 106.4 L 173.3 107.4 L 169.3 105.1 L 168.6 103.4 Z M 44.0 47.0 L 44.0 68.0 L 156.0 68.0 L 156.0 47.0 Z M 182.0 22.0 L 182.0 26.0 L 21.0 26.0 L 21.0 22.0 L 160.0 22.0 L 170.0 12.0 Z " />
</g>
</svg>
