<svg xmlns="http://www.w3.org/2000/svg" xmlns:xlink="http://www.w3.org/1999/xlink" version="1.1" baseProfile="full" viewBox="0 0 200 200" width="200" height="200">
<g fill="black">
<path d="M 158.3 168.8 L 150.7 164.9 L 143.2 160.6 L 135.9 155.9 L 128.9 150.7 L 122.0 145.1 L 115.3 139.0 L 114.96294708251953 138.6522470474243 L 117.6 145.4 L 118.7 153.6 L 118.2 161.1 L 116.6 167.4 L 114.6 172.5 L 112.6 176.2 L 111.1 178.5 L 109.4 180.3 L 107.6 181.9 L 105.7 183.3 L 103.7 184.5 L 101.6 185.6 L 99.4 186.4 L 97.1 187.1 L 94.8 187.6 L 92.4 187.9 L 90.0 188.0 L 90.0 182.0 L 70.0 179.0 L 70.0 176.0 L 90.0 176.0 L 91.5 175.9 L 92.9 175.7 L 94.2 175.5 L 95.5 175.1 L 96.7 174.6 L 97.8 174.0 L 99.0 173.3 L 100.1 172.5 L 101.1 171.6 L 102.2 170.5 L 103.1 169.7 L 104.8 167.3 L 106.7 163.7 L 108.4 159.0 L 109.3 153.5 L 109.1163215637207 149.64275274276733 L 107.7 150.5 L 99.5 154.8 L 91.0 158.8 L 81.9 162.5 L 72.5 165.9 L 62.5 169.0 L 52.1 171.8 L 41.3 174.3 L 29.9 176.3 L 18.1 177.8 L 17.8 176.1 L 29.1 172.6 L 39.9 169.1 L 50.2 165.5 L 60.1 161.8 L 69.4 158.0 L 78.3 154.0 L 86.6 149.8 L 94.4 145.4 L 101.7 140.8 L 105.90423259735107 137.8753164291382 L 102.8 132.1 L 100.52217864990234 129.31599607467652 L 94.7 132.5 L 87.9 135.7 L 80.6 138.8 L 73.0 141.7 L 64.9 144.4 L 56.5 147.0 L 47.5 149.3 L 38.2 151.5 L 28.4 153.3 L 18.2 154.8 L 17.7 153.1 L 27.5 149.7 L 36.7 146.3 L 45.6 143.1 L 54.0 139.8 L 62.0 136.5 L 69.5 133.1 L 76.5 129.6 L 83.1 126.1 L 89.2 122.5 L 92.55470561981201 120.34340353012085 L 88.60894079208374 116.5125638961792 L 83.0 118.1 L 71.7 121.0 L 59.8 123.8 L 47.3 126.4 L 34.0 128.8 L 20.1 130.8 L 19.8 129.1 L 33.2 125.1 L 46.0 121.2 L 58.1 117.5 L 69.6 113.7 L 80.5 110.0 L 90.6 106.3 L 100.1 102.5 L 108.9 98.7 L 117.0 94.9 L 124.4 91.0 L 125.65864944458008 93.56479511260986 L 132.7 100.3 L 132.9 103.5 L 129.23853368759154 101.9993989944458 L 121.6 105.3 L 112.9 108.6 L 103.6 111.9 L 93.6 115.1 L 92.56719770431519 115.39230251312256 L 99.2 119.3 L 104.21136360168457 124.08863639831543 L 104.3 124.0 L 111.8 129.3 L 119.1 134.5 L 121.71073169708252 136.24048776626586 L 123.9 134.3 L 128.0 130.6 L 132.0 127.2 L 135.8 123.9 L 139.3 120.8 L 142.6 117.8 L 145.6 114.9 L 148.4 112.2 L 150.9 109.7 L 152.44664335250854 107.94245071411133 L 152.4 107.9 L 152.80384616851808 107.5365385055542 L 153.1 107.2 L 153.13547592163087 107.23807172775268 L 153.4 107.0 L 161.3 116.0 L 161.9 119.6 L 158.0017777442932 118.48622226715088 L 155.2 120.5 L 151.8 122.7 L 148.1 125.1 L 144.2 127.5 L 140.0 129.9 L 135.6 132.4 L 130.9 134.9 L 125.8 137.3 L 124.3 137.9666666984558 L 126.3 139.3 L 133.6 143.8 L 140.8 147.9 L 148.1 151.6 L 155.5 155.0 L 162.9 157.9 L 170.4 160.5 L 177.9 162.6 L 185.6 165.0 L 174.0 175.3 L 166.1 172.2 Z M 154.9 90.9 L 145.7 85.9 L 137.40633583068848 80.50412216186524 L 129.7 84.5 L 121.0 88.0 L 111.9 90.6 L 102.2 92.5 L 101.7 90.8 L 110.6 87.0 L 118.9 83.0 L 126.6 78.7 L 131.2255506515503 75.59427309036255 L 130.1 74.7 L 123.8 68.6 L 118.5 62.0 L 114.2 55.1 L 111.2 47.9 L 109.5920000076294 41.2 L 91.0 41.2 L 91.0 95.0 L 79.0 101.0 L 79.0 80.41666669845581 L 77.8 80.7 L 70.6 82.2 L 63.5 83.5 L 56.5 84.7 L 49.6 85.9 L 42.8 87.0 L 36.1 88.1 L 29.5 89.1 L 23.0 90.2 L 20.615719604492188 90.5725438117981 L 18.9 93.9 L 16.6 91.2 L 13.3 79.4 L 15.3 79.2 L 21.8 78.8 L 28.4 78.5 L 32.0 78.28507461547852 L 32.0 25.8 L 14.0 25.8 L 14.0 21.8 L 99.81818180084228 21.8 L 108.0 12.8 L 118.0 21.8 L 118.0 25.8 L 91.0 25.8 L 91.0 37.2 L 163.0 37.2 L 163.3536121368408 36.90532321929932 L 163.5 36.6 L 163.64089307785034 36.665922451019284 L 169.0 32.2 L 180.0 41.2 L 175.0 44.2 L 172.32054796218873 45.316438388824466 L 169.8 49.7 L 164.5 57.1 L 158.7 63.9 L 152.3 70.0 L 147.08636980056764 74.09642372131347 L 151.0 76.2 L 159.8 80.2 L 169.4 83.8 L 180.0 87.2 L 187.5 89.6 L 175.9 99.7 L 164.9 95.5 Z M 44.0 62.9 L 44.0 77.60869569778443 L 48.8 77.4 L 55.8 77.2 L 62.9 77.0 L 70.1 76.8 L 77.4 76.9 L 79.0 76.96400003433227 L 79.0 62.9 Z M 111.9444444656372 41.2 L 114.9 46.1 L 119.2 51.9 L 124.0 57.4 L 129.6 62.6 L 135.9 67.4 L 139.21984281539918 69.5041256904602 L 140.1 68.8 L 145.9 63.3 L 151.2 57.3 L 155.8 50.9 L 160.0 43.9 L 161.29452056884764 41.2 Z M 44.0 43.9 L 44.0 58.9 L 79.0 58.9 L 79.0 43.9 Z M 44.0 25.8 L 44.0 39.9 L 79.0 39.9 L 79.0 25.8 Z " />
</g>
</svg>
