<svg xmlns="http://www.w3.org/2000/svg" xmlns:xlink="http://www.w3.org/1999/xlink" version="1.1" baseProfile="full" viewBox="0 0 200 200" width="200" height="200">
<g fill="black">
<path d="M 83.9 105.2 L 86.8 107.3 L 83.42441987991333 109.15325965881348 L 82.3 118.5 L 79.5 130.7 L 75.4 142.0 L 69.9 152.1 L 63.2 161.1 L 55.3 168.9 L 46.2 175.6 L 36.0 180.9 L 24.6 185.0 L 12.2 187.8 L 11.7 186.1 L 23.3 181.5 L 33.5 176.2 L 42.5 170.1 L 50.2 163.4 L 56.6 155.8 L 61.9 147.4 L 66.1 138.1 L 69.1 128.0 L 71.1 116.8 L 71.9 104.7 L 71.93026485443116 104.70126104354858 L 72.0 102.4 Z M 180.0 144.0 L 182.0 144.0 L 180.0 169.0 L 183.6 171.4 L 186.0 175.0 L 183.6 178.6 L 180.0 181.0 L 118.0 181.0 L 115.4 180.8 L 112.9 180.4 L 110.5 179.6 L 108.2 178.3 L 106.2 176.7 L 104.6 174.7 L 103.3 172.4 L 102.5 170.0 L 102.1 167.5 L 102.0 165.0 L 102.0 103.0 L 114.0 105.0 L 117.0 107.0 L 114.0 108.8 L 114.0 166.2 L 114.2 167.1 L 114.5 168.0 L 114.9 168.4 L 115.8 168.7 L 116.7 168.9 L 118.0 169.0 L 174.0 169.0 Z M 161.9 145.9 L 161.52776336669922 144.7005708694458 L 160.3 145.2 L 154.8 147.4 L 149.5 149.3 L 144.5 151.0 L 139.8 152.5 L 135.4 153.8 L 131.3 155.0 L 127.5 156.1 L 124.93856506347656 156.74035873413087 L 123.0 160.5 L 120.7 157.8 L 117.2 146.1 L 119.2 145.9 L 122.3 145.8 L 125.7 145.6 L 127.13267078399659 145.4868944168091 L 128.6 137.6 L 129.5 133.5 L 130.3 129.4 L 131.9 121.6 L 133.3 114.0 L 133.72970027923583 111.42179832458496 L 133.6 111.4 L 134.3 108.7 L 145.5 113.4 L 147.9 116.1 L 144.1412265777588 117.24105625152588 L 142.7 120.7 L 141.2 124.4 L 139.7 128.2 L 138.0 131.9 L 136.2 135.8 L 134.3 139.6 L 132.3 143.5 L 131.34684686660768 145.07477474212646 L 133.6 144.8 L 138.1 144.3 L 142.9 143.7 L 148.1 143.1 L 153.6 142.4 L 159.5 141.7 L 160.47124462127687 141.6060086250305 L 159.9 140.1 L 158.7 137.3 L 157.3 134.5 L 155.8 131.6 L 154.1 128.8 L 152.3 125.9 L 150.1 123.3 L 151.3 121.9 L 154.2 123.9 L 157.2 125.9 L 160.1 128.0 L 162.7 130.4 L 165.1 133.0 L 167.4 135.7 L 169.5 138.7 L 171.4 141.7 L 173.2 144.9 L 174.8 148.3 L 174.3 152.8 L 170.9 155.8 L 166.3 155.4 L 163.3 151.9 L 162.7 148.9 Z M 51.7 112.6 L 39.7 118.6 L 39.7 18.5 L 51.7 24.5 L 148.2 24.5 L 154.2 19.5 L 165.2 28.5 L 160.2 32.5 L 160.2 102.6 L 148.2 108.6 L 148.2 100.6 L 51.7 100.6 Z M 51.7 64.0 L 51.7 96.6 L 94.0 96.6 L 94.0 64.0 Z M 106.0 64.0 L 106.0 96.6 L 148.2 96.6 L 148.2 64.0 Z M 51.7 28.5 L 51.7 60.0 L 94.0 60.0 L 94.0 28.5 Z M 106.0 28.5 L 106.0 60.0 L 148.2 60.0 L 148.2 28.5 Z " />
</g>
</svg>
