<svg xmlns="http://www.w3.org/2000/svg" xmlns:xlink="http://www.w3.org/1999/xlink" version="1.1" baseProfile="full" viewBox="0 0 200 200" width="200" height="200">
<g fill="black">
<path d="M 171.0 23.1 L 171.0 27.1 L 34.0 27.1 L 34.0 167.8 L 158.0 167.8 L 168.0 157.8 L 180.0 167.8 L 180.0 171.8 L 34.0 171.8 L 34.0 183.8 L 22.0 189.8 L 22.0 17.1 L 34.0 23.1 L 149.0 23.1 L 159.0 13.1 Z M 128.4 130.5 L 138.4 130.5 L 139.6 130.4 L 140.5 130.3 L 141.1 130.1 L 141.4 129.9 L 141.6 129.7 L 141.8 129.6 L 141.9 129.2 L 142.1 128.6 L 142.3 127.7 L 142.4 126.5 L 142.4 77.0 L 111.0 77.0 L 111.0 154.2 L 99.0 160.2 L 99.0 77.0 L 67.6 77.0 L 67.6 136.4 L 55.6 142.4 L 55.6 67.0 L 67.6 73.0 L 99.0 73.0 L 99.0 48.4 L 45.5 48.4 L 45.5 44.4 L 142.5 44.4 L 152.5 34.4 L 164.5 44.4 L 164.5 48.4 L 111.0 48.4 L 111.0 73.0 L 142.4 73.0 L 148.4 68.0 L 159.4 77.0 L 154.4 81.0 L 154.4 126.5 L 154.2 129.1 L 153.8 131.5 L 153.0 134.0 L 151.7 136.2 L 150.1 138.2 L 148.1 139.9 L 145.8 141.1 L 143.4 141.9 L 140.9 142.4 L 138.4 142.5 L 138.4 136.5 L 128.4 133.5 Z " />
</g>
</svg>
