<svg xmlns="http://www.w3.org/2000/svg" xmlns:xlink="http://www.w3.org/1999/xlink" version="1.1" baseProfile="full" viewBox="0 0 200 200" width="200" height="200">
<g fill="black">
<path d="M 83.9 125.4 L 86.8 127.5 L 83.28580646514892 129.39225807189942 L 82.3 135.8 L 79.4 145.5 L 75.1 154.3 L 69.6 162.2 L 62.9 169.1 L 54.9 175.1 L 45.9 180.0 L 35.7 184.0 L 24.5 186.9 L 12.1 188.8 L 11.8 187.1 L 23.4 183.3 L 33.8 179.0 L 42.8 174.2 L 50.5 168.9 L 57.0 163.0 L 62.2 156.6 L 66.3 149.6 L 69.2 142.0 L 71.1 133.7 L 71.81113567352295 125.6997239112854 L 71.8 125.7 L 72.0 122.4 Z M 180.0 147.7 L 182.0 147.7 L 180.0 172.7 L 183.6 175.1 L 186.0 178.7 L 183.6 182.3 L 180.0 184.7 L 118.0 184.7 L 115.4 184.6 L 112.9 184.1 L 110.5 183.3 L 108.2 182.1 L 106.2 180.4 L 104.6 178.4 L 103.3 176.2 L 102.5 173.8 L 102.1 171.3 L 102.0 168.7 L 102.0 123.0 L 114.0 125.0 L 117.0 127.0 L 114.0 128.8 L 114.0 169.9 L 114.2 170.8 L 114.4 171.4 L 114.5 171.8 L 114.7 172.0 L 114.9 172.1 L 115.2 172.3 L 115.8 172.5 L 116.7 172.6 L 118.0 172.7 L 174.0 172.7 Z M 162.1 157.0 L 161.58119077682494 155.73179969787597 L 160.2 156.2 L 154.7 158.1 L 149.4 159.7 L 144.3 161.1 L 139.6 162.4 L 135.2 163.5 L 131.1 164.5 L 127.3 165.4 L 124.77815036773681 165.97642278671265 L 122.8 169.7 L 120.5 166.9 L 117.4 155.1 L 119.4 154.9 L 122.5 154.9 L 125.9 154.8 L 127.6763994216919 154.75325260162353 L 128.1 152.9 L 128.9 149.6 L 129.8 146.3 L 131.4 140.1 L 132.8 134.1 L 133.4 131.2 L 133.71628179550171 129.42882194519044 L 133.6 129.4 L 133.84094486236572 128.730708694458 L 133.9 128.4 L 133.95342082977294 128.41827554702758 L 134.5 126.9 L 145.3 132.3 L 147.5 135.2 L 143.36470584869386 136.07058820724487 L 142.5 137.8 L 141.0 140.5 L 139.4 143.3 L 137.7 146.2 L 135.9 149.0 L 134.0 151.9 L 132.15143604278563 154.58041772842407 L 133.8 154.5 L 138.3 154.2 L 143.1 153.8 L 148.2 153.4 L 153.7 153.0 L 159.6 152.7 L 160.23156385421754 152.66944046020507 L 160.2 152.6 L 159.1 150.4 L 157.7 148.2 L 156.2 145.9 L 154.5 143.6 L 152.6 141.2 L 150.3 139.2 L 151.3 137.7 L 154.1 139.2 L 157.0 140.5 L 159.7 142.0 L 162.3 143.6 L 164.7 145.5 L 166.9 147.4 L 169.0 149.5 L 171.0 151.8 L 172.8 154.2 L 174.4 156.7 L 174.3 161.3 L 171.1 164.5 L 166.5 164.5 L 163.3 161.3 L 162.7 159.1 Z M 51.7 133.9 L 39.7 139.9 L 39.7 62.19367084503174 L 32.5 68.3 L 23.9 75.0 L 14.5 81.6 L 13.3 80.3 L 21.4 72.1 L 28.8 64.3 L 35.8 56.9 L 42.1 49.8 L 47.8 43.0 L 52.9 36.4 L 57.4 30.1 L 61.2 24.0 L 64.4 18.3 L 66.70769233703614 13.315384578704833 L 67.4 11.7 L 77.7 18.1 L 79.6 21.2 L 75.72084875106812 21.534409618377687 L 74.3 24.0 L 70.2 30.0 L 66.34754095077514 35.0 L 123.8 35.0 L 124.4 34.5 L 125.2 33.2 L 125.58622951507569 33.51147537231445 L 129.8 30.0 L 140.8 39.0 L 135.8 42.0 L 129.89320392608641 44.461165046691896 L 128.0 45.9 L 124.9 48.0 L 121.5 50.5 L 117.5 53.2 L 113.1 56.2 L 108.1 59.4 L 103.2470588684082 62.4 L 148.2 62.4 L 154.2 57.4 L 165.2 66.4 L 160.2 70.4 L 160.2 121.9 L 148.2 127.9 L 148.2 121.9 L 51.7 121.9 Z M 51.7 93.7 L 51.7 117.9 L 94.0 117.9 L 94.0 93.7 Z M 106.0 93.7 L 106.0 117.9 L 148.2 117.9 L 148.2 93.7 Z M 51.7 66.4 L 51.7 89.7 L 94.0 89.7 L 94.0 66.4 Z M 106.0 66.4 L 106.0 89.7 L 148.2 89.7 L 148.2 66.4 Z M 62.97419357299805 39.0 L 60.1 42.3 L 54.2 48.6 L 47.6 55.0 L 43.823529434204104 58.46176471710205 L 51.7 62.4 L 98.15306119918823 62.4 L 100.5 60.1 L 105.0 55.5 L 112.9 47.6 L 116.1 44.2 L 118.9 41.2 L 120.9307692527771 39.0 Z " />
</g>
</svg>
