<svg xmlns="http://www.w3.org/2000/svg" xmlns:xlink="http://www.w3.org/1999/xlink" version="1.1" baseProfile="full" viewBox="0 0 200 200" width="200" height="200">
<g fill="black">
<path d="M 141.2 177.0 L 159.2 177.0 L 160.5 176.9 L 161.4 176.8 L 162.0 176.6 L 162.3 176.4 L 162.5 176.3 L 162.8 175.7 L 163.0 175.1 L 163.2 174.2 L 163.2 99.6 L 127.0 99.6 L 127.0 179.6 L 115.0 185.6 L 115.0 99.6 L 78.7 99.6 L 78.7 182.2 L 66.7 188.2 L 66.7 89.6 L 78.7 95.6 L 115.0 95.6 L 115.0 75.7 L 61.4 75.7 L 61.4 71.7 L 158.6 71.7 L 168.6 61.7 L 180.6 71.7 L 180.6 75.7 L 127.0 75.7 L 127.0 95.6 L 163.2 95.6 L 169.2 90.6 L 180.2 99.6 L 175.2 103.6 L 175.2 173.0 L 175.1 175.6 L 174.7 178.1 L 173.9 180.5 L 172.6 182.7 L 171.0 184.7 L 169.0 186.4 L 166.7 187.6 L 164.3 188.4 L 161.8 188.9 L 159.2 189.0 L 159.2 183.0 L 141.2 180.0 Z M 17.7 173.6 L 19.4 172.6 L 21.8 170.5 L 24.7 167.5 L 28.0 163.6 L 31.7 159.0 L 35.9 153.5 L 40.5 147.2 L 45.5 140.2 L 51.0 132.4 L 57.0 123.9 L 58.6 124.8 L 54.3 134.3 L 50.1 142.9 L 46.0 150.7 L 42.3 157.6 L 38.8 163.7 L 35.5 169.1 L 32.6 173.7 L 29.9 177.5 L 27.944799995422365 179.90640001296998 L 28.2 184.5 L 24.8 183.3 L 16.0 174.8 Z M 145.1 141.0 L 144.3 137.7 L 143.3 134.5 L 142.2 131.3 L 140.9 128.1 L 139.4 125.0 L 137.7 122.0 L 135.9 118.8 L 133.6 115.9 L 134.8 114.6 L 138.0 116.8 L 141.1 119.0 L 144.0 121.6 L 146.6 124.4 L 149.0 127.4 L 151.2 130.7 L 153.2 134.1 L 155.0 137.8 L 156.5 141.6 L 157.9 145.6 L 156.9 150.1 L 153.2 152.7 L 148.7 151.7 L 146.1 148.0 L 145.7 144.5 Z M 96.1 141.0 L 95.3 137.7 L 94.4 134.5 L 93.2 131.3 L 91.9 128.1 L 90.4 125.0 L 88.7 122.0 L 86.9 118.8 L 84.7 115.9 L 85.9 114.6 L 92.1 119.0 L 95.0 121.6 L 97.6 124.4 L 100.1 127.4 L 102.3 130.7 L 104.3 134.1 L 106.0 137.8 L 107.6 141.6 L 108.9 145.6 L 107.9 150.1 L 104.2 152.7 L 99.7 151.7 L 97.1 148.0 L 96.7 144.5 Z M 39.7 89.7 L 38.8 87.8 L 37.6 85.7 L 36.1 83.4 L 34.2 81.1 L 32.0 78.7 L 29.4 76.1 L 26.6 73.4 L 23.3 71.0 L 24.2 69.4 L 28.0 71.1 L 31.8 72.6 L 35.2 74.3 L 38.4 76.0 L 41.3 77.8 L 43.9 79.8 L 46.3 81.9 L 48.4 84.1 L 50.3 86.5 L 51.8 89.0 L 51.6 93.6 L 48.3 96.7 L 43.7 96.5 L 40.6 93.2 L 40.3 91.5 Z M 77.0 14.4 L 80.3 16.0 L 77.37518424987793 17.4014741897583 L 82.5 58.4 L 71.4 65.8 L 68.24393062591552 40.6 L 13.0 40.6 L 13.0 36.6 L 67.74296722412109 36.6 L 64.9 13.9 Z M 134.8 15.9 L 137.5 18.3 L 134.37218046188354 19.32255640029907 L 132.2125 36.6 L 165.0 36.6 L 175.0 26.6 L 187.0 36.6 L 187.0 40.6 L 131.7125 40.6 L 129.3 59.9 L 116.6 64.3 L 123.1 12.4 Z " />
</g>
</svg>
