<svg xmlns="http://www.w3.org/2000/svg" xmlns:xlink="http://www.w3.org/1999/xlink" version="1.1" baseProfile="full" viewBox="0 0 200 200" width="200" height="200">
<g fill="black">
<path d="M 108.0 117.0 L 145.0 117.0 L 155.0 107.0 L 167.0 117.0 L 167.0 121.0 L 108.0 121.0 L 108.0 175.0 L 158.0 175.0 L 168.0 165.0 L 180.0 175.0 L 180.0 179.0 L 20.0 179.0 L 20.0 175.0 L 96.0 175.0 L 96.0 121.0 L 38.0 121.0 L 38.0 145.94255323410033 L 41.3 145.1 L 46.7 143.8 L 52.7 142.2 L 59.3 140.6 L 66.6 138.8 L 74.7 137.1 L 75.2 138.8 L 67.9 142.4 L 61.1 145.6 L 54.8 148.4 L 49.1 150.9 L 44.1 153.1 L 39.6 155.1 L 35.7 156.8 L 32.4 158.2 L 31.670949745178223 158.52402238845826 L 30.4 162.7 L 27.6 160.4 L 22.3 149.5 L 24.2 148.9 L 26.0 148.64285717010497 L 26.0 69.0 L 38.0 75.0 L 144.0 75.0 L 144.0 36.0 L 23.0 36.0 L 23.0 32.0 L 144.0 32.0 L 150.0 27.0 L 161.0 36.0 L 156.0 40.0 L 156.0 71.0 L 162.0 75.0 L 162.0 79.0 L 108.0 79.0 Z M 38.0 79.0 L 38.0 117.0 L 96.0 117.0 L 96.0 79.0 Z " />
</g>
</svg>
