<svg xmlns="http://www.w3.org/2000/svg" xmlns:xlink="http://www.w3.org/1999/xlink" version="1.1" baseProfile="full" viewBox="0 0 200 200" width="200" height="200">
<g fill="black">
<path d="M 153.9 176.0 L 165.9 176.0 L 167.1 175.9 L 168.0 175.7 L 168.9 175.4 L 169.3 175.0 L 169.6 174.1 L 169.8 173.2 L 169.9 172.0 L 169.9 85.0 L 130.5 85.0 L 130.5 180.0 L 118.5 186.0 L 118.5 85.0 L 79.0 85.0 L 79.0 183.0 L 67.0 189.0 L 67.0 75.0 L 79.0 81.0 L 169.9 81.0 L 175.9 76.0 L 186.9 85.0 L 181.9 89.0 L 181.9 172.0 L 181.7 174.5 L 181.3 177.0 L 180.5 179.4 L 179.2 181.7 L 177.6 183.7 L 175.6 185.3 L 173.3 186.6 L 170.9 187.4 L 168.4 187.8 L 165.9 188.0 L 165.9 182.0 L 153.9 179.0 Z M 14.5 176.5 L 18.7 171.4 L 23.0 166.0 L 27.3 160.2 L 31.7 154.2 L 36.2 147.8 L 40.7 141.1 L 45.3 134.1 L 49.9 126.8 L 54.8 119.3 L 59.9 111.5 L 61.5 112.4 L 58.2 121.1 L 54.7 129.4 L 51.0 137.3 L 47.2 144.9 L 43.4 152.2 L 39.6 159.2 L 35.7 165.8 L 31.8 172.1 L 27.9 178.1 L 26.30640640258789 180.41071071624756 L 27.5 184.1 L 23.9 183.9 L 13.2 178.0 Z M 165.4 145.0 L 165.4 149.0 L 133.5 149.0 L 133.5 145.0 L 151.1777777671814 145.0 L 157.4 138.0 Z M 114.5 145.0 L 114.5 149.0 L 82.6 149.0 L 82.6 145.0 L 100.27777776718139 145.0 L 106.5 138.0 Z M 165.4 113.5 L 165.4 117.5 L 133.5 117.5 L 133.5 113.5 L 151.1777777671814 113.5 L 157.4 106.5 Z M 114.5 113.5 L 114.5 117.5 L 82.6 117.5 L 82.6 113.5 L 100.27777776718139 113.5 L 106.5 106.5 Z M 37.8 89.2 L 36.0 86.7 L 33.8 84.2 L 31.2 81.7 L 28.1 79.2 L 24.7 76.7 L 20.9 74.1 L 16.6 71.5 L 12.0 69.1 L 12.5 67.4 L 17.8 68.6 L 22.8 69.8 L 27.4 71.3 L 31.7 73.1 L 35.7 75.1 L 39.4 77.3 L 42.8 79.7 L 45.8 82.4 L 48.5 85.3 L 50.9 88.5 L 51.2 93.1 L 48.3 96.6 L 43.8 97.0 L 40.2 94.1 L 39.2 91.7 Z M 114.8 14.0 L 117.8 16.0 L 114.8 17.8 L 114.8 74.0 L 102.8 80.0 L 102.8 12.0 Z M 146.1 14.0 L 149.1 16.0 L 146.1 17.8 L 146.1 74.0 L 134.1 80.0 L 134.1 12.0 Z M 181.1 30.0 L 183.2 32.9 L 179.46173915863037 33.62141876220703 L 179.2 34.2 L 177.1 38.5 L 174.8 42.8 L 172.4 47.2 L 169.9 51.5 L 167.2 55.9 L 164.3 60.4 L 161.3 64.8 L 157.9 69.1 L 154.3 73.4 L 152.7 72.5 L 154.6 67.2 L 156.6 62.2 L 158.5 57.3 L 160.4 52.5 L 162.3 47.8 L 164.0 43.2 L 165.6 38.8 L 167.2 34.3 L 168.6 30.0 L 169.6116015434265 26.73174877166748 L 169.5 26.7 L 170.4 24.4 Z M 82.3 56.5 L 81.5 52.6 L 80.4 48.8 L 79.1 45.1 L 77.5 41.4 L 75.5 37.9 L 73.3 34.3 L 70.9 30.7 L 68.0 27.3 L 69.2 25.9 L 73.2 28.3 L 76.9 31.0 L 80.4 34.1 L 83.5 37.5 L 86.2 41.2 L 88.7 45.1 L 90.8 49.3 L 92.5 53.7 L 94.0 58.4 L 95.1 63.3 L 93.7 67.7 L 89.8 69.9 L 85.4 68.6 L 83.1 64.7 L 82.9 60.5 Z M 50.0 40.1 L 47.9 37.6 L 45.5 35.2 L 42.8 32.8 L 39.7 30.4 L 36.3 28.1 L 32.6 25.7 L 28.5 23.3 L 24.1 21.1 L 24.7 19.4 L 29.6 20.4 L 34.4 21.4 L 38.9 22.7 L 43.1 24.3 L 47.0 26.0 L 50.8 28.0 L 54.2 30.2 L 57.4 32.6 L 60.4 35.2 L 63.1 38.0 L 64.0 42.5 L 61.6 46.4 L 57.2 47.4 L 53.3 45.0 L 51.8 42.5 Z " />
</g>
</svg>
