<svg xmlns="http://www.w3.org/2000/svg" xmlns:xlink="http://www.w3.org/1999/xlink" version="1.1" baseProfile="full" viewBox="0 0 200 200" width="200" height="200">
<g fill="black">
<path d="M 52.6 133.0 L 147.3 133.0 L 153.3 128.0 L 164.3 137.0 L 159.3 141.0 L 159.3 180.0 L 147.3 186.0 L 147.3 176.0 L 52.6 176.0 L 52.6 183.0 L 40.6 189.0 L 40.6 127.0 Z M 52.6 137.0 L 52.6 172.0 L 147.3 172.0 L 147.3 137.0 Z M 16.5 114.6 L 94.0 114.6 L 94.0 91.0 L 44.7 91.0 L 44.7 87.0 L 94.0 87.0 L 94.0 63.4 L 38.8 63.4 L 38.8 59.4 L 139.1 59.4 L 149.1 49.4 L 157.92377624511718 56.75314683914185 L 159.7 54.0 L 161.7 51.1 L 163.5 48.3 L 165.1 45.7 L 166.6 43.2 L 168.0 40.9 L 168.2285714149475 40.5 L 33.047727298736575 40.5 L 33.1 42.8 L 32.7 46.9 L 32.0 50.8 L 30.8 54.4 L 29.2 57.8 L 27.1 61.0 L 24.5 63.7 L 21.4 66.1 L 16.8 66.5 L 13.3 63.6 L 12.9 59.0 L 15.8 55.5 L 17.8 54.7 L 19.7 53.6 L 21.5 52.2 L 23.2 50.3 L 24.8 47.9 L 26.2 45.1 L 27.5 41.8 L 28.6 38.0 L 29.6 33.8 L 30.1 29.0 L 31.9 29.0 L 32.5 33.8 L 32.79347829818725 36.5 L 103.31034479141235 36.5 L 101.2 34.8 L 100.4 32.5 L 99.4 30.2 L 98.1 28.0 L 96.6 25.8 L 94.9 23.7 L 93.0 21.5 L 90.8 19.4 L 88.3 17.3 L 85.6 15.2 L 82.6 13.4 L 83.2 11.7 L 86.7 12.7 L 90.3 13.6 L 93.6 14.8 L 96.8 16.2 L 99.8 17.8 L 102.6 19.6 L 105.2 21.7 L 107.7 24.0 L 109.9 26.5 L 111.9 29.2 L 112.2 33.8 L 109.9628571510315 36.5 L 170.0 36.5 L 170.6 36.0 L 171.1 35.0 L 171.47513809204102 35.2707181930542 L 176.0 31.5 L 187.0 40.5 L 182.0 43.5 L 176.93461542129518 45.610576915740964 L 175.3 47.0 L 173.1 48.9 L 170.8 50.8 L 168.3 52.7 L 165.6 54.8 L 162.7 56.9 L 160.16263341903687 58.61886119842529 L 161.1 59.4 L 161.1 63.4 L 106.0 63.4 L 106.0 87.0 L 133.2 87.0 L 143.2 77.0 L 155.2 87.0 L 155.2 91.0 L 106.0 91.0 L 106.0 114.6 L 165.21818180084227 114.6 L 173.4 105.6 L 183.4 114.6 L 183.4 118.6 L 16.5 118.6 Z " />
</g>
</svg>
