<svg xmlns="http://www.w3.org/2000/svg" xmlns:xlink="http://www.w3.org/1999/xlink" version="1.1" baseProfile="full" viewBox="0 0 200 200" width="200" height="200">
<g fill="black">
<path d="M 78.2 142.5 L 149.7 142.5 L 155.7 137.5 L 166.7 146.5 L 161.7 150.5 L 161.7 180.9 L 149.7 186.9 L 149.7 176.9 L 78.2 176.9 L 78.2 183.9 L 66.2 189.9 L 66.2 136.5 Z M 156.9 88.3 L 153.7 85.1 L 150.2 82.1 L 146.4 79.1 L 142.4 76.1 L 138.0 73.2 L 133.5 70.2 L 128.6 67.2 L 125.05161294937133 65.0 L 102.65238094329834 65.0 L 102.6 65.1 L 100.1 69.8 L 97.1 74.1 L 93.4 78.3 L 89.3 82.1 L 84.6 85.7 L 79.4 89.1 L 73.7 92.2 L 67.5 95.1 L 60.7 97.6 L 53.3 99.8 L 52.6 98.1 L 59.1 94.2 L 65.0 90.3 L 70.3 86.6 L 75.1 82.9 L 79.3 79.2 L 82.8 75.5 L 85.8 71.7 L 88.2 68.1 L 89.70810813903809 65.0 L 51.0 65.0 L 51.0 109.0 L 50.86757497787475 109.19863758087158 L 50.9 109.2 L 49.9 119.6 L 48.3 129.6 L 46.1 139.0 L 43.3 147.9 L 39.9 156.3 L 35.9 164.1 L 31.2 171.2 L 26.0 177.8 L 20.1 183.6 L 13.6 188.6 L 12.3 187.3 L 17.3 181.0 L 21.7 174.5 L 25.6 167.8 L 29.1 160.6 L 32.0 153.1 L 34.4 145.2 L 36.3 136.8 L 37.7 127.9 L 38.6 118.6 L 39.0 108.7 L 39.0 63.008823490142824 L 37.6 64.1 L 30.3 69.1 L 22.6 73.6 L 14.4 77.7 L 13.5 76.2 L 20.5 70.5 L 27.1 64.8 L 33.4 59.0 L 39.3 53.2 L 44.8 47.2 L 49.9 41.1 L 54.6 34.8 L 58.8 28.4 L 62.7 21.8 L 65.73018598556519 15.91278142929077 L 65.7 15.9 L 66.7 14.0 L 76.8 20.6 L 78.5 23.8 L 74.69493227005005 23.99681386947632 L 72.4 27.7 L 68.73676471710205 33.0 L 123.0 33.0 L 123.3915789604187 32.673684215545656 L 124.0 31.6 L 124.37525081634521 31.853957653045654 L 129.0 28.0 L 140.0 37.0 L 135.0 40.0 L 131.10704221725464 41.622065734863284 L 126.1 47.0 L 123.2 49.7 L 120.1 52.4 L 116.9 55.1 L 113.6 57.6 L 110.1 60.0 L 108.44782609939575 61.0 L 156.0 61.0 L 166.0 51.0 L 178.0 61.0 L 178.0 65.0 L 134.38235292434692 65.0 L 135.7 65.4 L 141.1 67.3 L 146.1 69.5 L 151.0 71.9 L 155.5 74.5 L 159.9 77.3 L 164.0 80.2 L 167.8 83.4 L 171.4 86.7 L 172.9 91.0 L 171.0 95.2 L 166.6 96.6 L 162.5 94.7 L 159.8 91.5 Z M 78.2 146.5 L 78.2 172.9 L 149.7 172.9 L 149.7 146.5 Z M 54.0 124.0 L 133.0 124.0 L 133.0 97.0 L 77.0 97.0 L 77.0 93.0 L 133.0 93.0 L 139.0 88.0 L 150.0 97.0 L 145.0 101.0 L 145.0 124.0 L 155.8181818008423 124.0 L 164.0 115.0 L 174.0 124.0 L 174.0 128.0 L 54.0 128.0 Z M 65.7 37.0 L 62.5 41.0 L 56.9 47.2 L 50.9 53.1 L 45.1988826751709 58.099441337585446 L 51.0 61.0 L 103.42121210098267 61.0 L 104.3 60.0 L 106.9 56.6 L 109.5 53.3 L 111.9 50.1 L 114.3 47.0 L 116.5 43.9 L 118.6 40.8 L 120.5 37.7 L 120.9064516067505 37.0 Z " />
</g>
</svg>
