<svg xmlns="http://www.w3.org/2000/svg" xmlns:xlink="http://www.w3.org/1999/xlink" version="1.1" baseProfile="full" viewBox="0 0 200 200" width="200" height="200">
<g fill="black">
<path d="M 150.9 180.8 L 143.0 176.9 L 135.6 172.3 L 128.9 167.0 L 122.9 160.9 L 117.6 154.3 L 113.0 147.0 L 109.2 139.0 L 107.08516483306884 132.4289050102234 L 104.5 141.2 L 100.0 149.9 L 94.0 157.8 L 86.4 164.8 L 77.4 170.9 L 67.0 176.2 L 55.2 180.6 L 42.0 184.2 L 27.4 186.9 L 27.0 185.2 L 41.0 180.6 L 53.3 175.6 L 64.1 170.3 L 73.3 164.5 L 80.9 158.3 L 86.9 151.8 L 91.3 144.9 L 94.4 137.6 L 95.77307691574097 131.3 L 55.1 131.3 L 55.1 143.3 L 43.1 149.3 L 43.1 70.7 L 55.1 76.7 L 96.5 76.7 L 96.5 52.8 L 108.5 54.8 L 111.5 56.8 L 108.5 58.6 L 108.5 76.7 L 149.8 76.7 L 155.8 71.7 L 166.8 80.7 L 161.8 84.7 L 161.8 137.3 L 149.8 143.3 L 149.8 131.3 L 109.12567567825317 131.3 L 112.9 137.0 L 117.9 143.7 L 123.2 149.7 L 128.8 155.0 L 134.8 159.7 L 141.1 163.7 L 147.9 167.0 L 155.1 169.8 L 162.8 172.0 L 171.0 173.5 L 180.4 175.3 L 168.6 186.5 L 159.5 184.0 Z M 149.8 127.3 L 149.8 105.2 L 108.5 105.2 L 108.5 121.5 L 107.81764707565307 127.3 Z M 55.1 80.7 L 55.1 101.2 L 96.5 101.2 L 96.5 80.7 Z M 108.5 80.7 L 108.5 101.2 L 149.8 101.2 L 149.8 80.7 Z M 13.4 70.8 L 12.8 66.3 L 15.5 62.6 L 17.5 61.6 L 19.4 60.3 L 21.2 58.5 L 23.0 56.2 L 24.6 53.4 L 26.1 50.0 L 27.4 46.2 L 28.5 41.8 L 29.5 36.9 L 30.1 31.5 L 31.9 31.4 L 32.6 36.9 L 32.920754718780515 40.3 L 103.94193544387818 40.3 L 101.2 37.8 L 100.3 35.1 L 99.2 32.5 L 98.0 30.0 L 96.5 27.5 L 94.7 25.1 L 92.8 22.7 L 90.6 20.4 L 88.2 18.1 L 85.5 15.7 L 82.5 13.7 L 83.2 12.1 L 86.8 13.3 L 90.4 14.4 L 93.8 15.8 L 97.0 17.5 L 100.0 19.5 L 102.8 21.7 L 105.5 24.1 L 107.9 26.8 L 110.2 29.7 L 112.2 32.8 L 112.3 37.4 L 109.65588235855103 40.3 L 170.0 40.3 L 170.6 39.8 L 170.9 39.1 L 171.2067491531372 39.29437570571899 L 176.0 35.3 L 187.0 44.3 L 182.0 47.3 L 177.8239999771118 49.03999996185303 L 177.5 49.4 L 173.3 53.6 L 171.0 55.8 L 168.5 58.1 L 165.8 60.5 L 162.9 63.0 L 159.7 65.5 L 156.6 68.3 L 155.3 67.1 L 157.6 63.7 L 159.6 60.2 L 161.5 57.0 L 163.3 53.9 L 164.9 51.0 L 166.4 48.3 L 167.8 45.8 L 168.55 44.3 L 33.14285717010498 44.3 L 33.2 47.1 L 32.8 51.7 L 32.1 56.0 L 31.0 60.0 L 29.4 63.8 L 27.3 67.2 L 24.7 70.3 L 21.6 72.9 L 17.1 73.5 Z M 55.1 105.2 L 55.1 127.3 L 96.22048196792602 127.3 L 96.5 121.5 L 96.5 105.2 Z " />
</g>
</svg>
