<svg xmlns="http://www.w3.org/2000/svg" xmlns:xlink="http://www.w3.org/1999/xlink" version="1.1" baseProfile="full" viewBox="0 0 200 200" width="200" height="200">
<g fill="black">
<path d="M 153.9 176.0 L 165.9 176.0 L 167.2 175.9 L 168.1 175.7 L 169.0 175.4 L 169.2 175.2 L 169.3 175.0 L 169.5 174.7 L 169.7 174.1 L 169.9 173.2 L 169.9 115.43999996185303 L 167.3 117.0 L 165.9231924057007 117.57366981506348 L 165.2 120.2 L 163.1 126.8 L 160.9 133.0 L 158.6 138.9 L 156.1 144.4 L 153.5 149.4 L 150.7 154.1 L 147.8 158.4 L 144.6 162.1 L 141.2 165.3 L 139.8 164.3 L 141.4 160.1 L 143.1 155.7 L 144.9 151.2 L 146.6 146.4 L 148.2 141.2 L 149.8 135.8 L 151.3 130.0 L 152.8 123.9 L 154.1 117.5 L 154.769117641449 114.0 L 148.47761554718016 114.0 L 148.3 115.0 L 135.4 118.8 L 140.15836734771727 92.0 L 133.0 92.0 L 133.0 180.0 L 121.0 186.0 L 121.0 92.0 L 108.8 92.0 L 108.8 161.0 L 96.8 167.0 L 96.8 92.0 L 84.0 92.0 L 84.0 183.0 L 72.0 189.0 L 72.0 82.0 L 84.0 88.0 L 121.0 88.0 L 121.0 66.0 L 67.3 66.0 L 67.3 62.0 L 106.8 62.0 L 106.8 12.0 L 118.8 14.0 L 121.8 16.0 L 118.8 17.8 L 118.8 62.0 L 135.2 62.0 L 135.2 12.0 L 147.2 14.0 L 150.2 16.0 L 147.2 17.8 L 147.2 62.0 L 164.6 62.0 L 174.6 52.0 L 186.6 62.0 L 186.6 66.0 L 133.0 66.0 L 133.0 88.0 L 140.86857147216796 88.0 L 144.1 69.8 L 155.6 73.9 L 158.2 76.4 L 154.98349256515502 77.37102108001709 L 153.09562044143678 88.0 L 169.9 88.0 L 175.9 83.0 L 186.9 92.0 L 181.9 96.0 L 181.9 172.0 L 181.8 174.5 L 181.4 177.0 L 180.6 179.4 L 179.3 181.7 L 177.7 183.7 L 175.7 185.3 L 173.4 186.6 L 171.0 187.4 L 168.5 187.8 L 165.9 188.0 L 165.9 182.0 L 153.9 179.0 Z M 15.7 176.4 L 20.2 171.3 L 24.8 165.9 L 29.4 160.1 L 34.0 154.1 L 38.7 147.7 L 43.4 141.0 L 48.3 134.1 L 53.2 126.8 L 58.3 119.3 L 63.7 111.5 L 65.2 112.4 L 61.6 121.1 L 57.9 129.5 L 53.9 137.4 L 49.9 145.0 L 45.8 152.3 L 41.7 159.3 L 37.6 165.9 L 33.4 172.3 L 29.2 178.3 L 27.4615385055542 180.65934066772462 L 28.6 184.4 L 25.0 184.0 L 14.5 177.9 Z M 152.38515815734863 92.0 L 149.18807783126832 110.0 L 155.3 110.0 L 161.3 105.0 L 169.9 112.03636360168457 L 169.9 92.0 Z M 40.5 89.3 L 38.5 86.8 L 36.1 84.3 L 33.3 81.8 L 30.0 79.3 L 26.3 76.7 L 22.2 74.2 L 17.7 71.6 L 12.7 69.1 L 13.2 67.4 L 18.8 68.5 L 24.1 69.7 L 29.0 71.2 L 33.5 73.0 L 37.7 75.0 L 41.6 77.2 L 45.1 79.6 L 48.3 82.3 L 51.2 85.2 L 53.6 88.4 L 54.1 93.0 L 51.3 96.6 L 46.7 97.0 L 43.1 94.2 L 42.0 91.8 Z M 179.7 23.2 L 181.7 26.1 L 177.7970266342163 26.70563383102417 L 175.9 30.3 L 171.7 37.3 L 169.5 40.7 L 167.2 44.2 L 164.8 47.6 L 162.3 50.9 L 159.5 54.1 L 156.8 57.4 L 155.3 56.5 L 156.8 52.6 L 158.1 48.6 L 159.5 44.7 L 162.3 37.1 L 163.7 33.4 L 165.0 29.7 L 166.2 25.9 L 167.4 22.3 L 168.2978931427002 19.531496047973633 L 168.2 19.5 L 169.1 17.3 Z M 83.9 44.3 L 83.4 41.1 L 82.7 38.0 L 81.8 34.8 L 80.7 31.7 L 79.5 28.6 L 78.0 25.5 L 76.5 22.3 L 74.5 19.3 L 75.8 18.0 L 78.6 20.4 L 81.6 22.8 L 84.2 25.5 L 86.6 28.4 L 88.8 31.4 L 90.8 34.7 L 92.5 38.1 L 94.0 41.6 L 95.3 45.3 L 96.3 49.2 L 95.1 53.6 L 91.1 55.9 L 86.7 54.7 L 84.4 50.8 L 84.2 47.5 Z M 53.5 40.2 L 51.2 37.8 L 48.6 35.3 L 45.6 32.9 L 42.3 30.5 L 38.6 28.2 L 34.6 25.8 L 30.3 23.4 L 25.6 21.1 L 26.1 19.4 L 31.4 20.3 L 36.4 21.3 L 41.1 22.6 L 45.6 24.2 L 49.8 25.9 L 53.7 27.9 L 57.3 30.1 L 60.7 32.5 L 63.8 35.1 L 66.6 37.9 L 67.7 42.4 L 65.4 46.3 L 61.0 47.4 L 57.0 45.2 L 55.4 42.7 Z " />
</g>
</svg>
