<svg xmlns="http://www.w3.org/2000/svg" xmlns:xlink="http://www.w3.org/1999/xlink" version="1.1" baseProfile="full" viewBox="0 0 200 200" width="200" height="200">
<g fill="black">
<path d="M 153.5 176.9 L 165.5 176.9 L 166.8 176.8 L 167.7 176.6 L 168.6 176.3 L 168.8 176.1 L 168.9 175.9 L 169.1 175.6 L 169.3 175.0 L 169.5 174.1 L 169.5 98.8 L 132.0 98.8 L 132.0 179.9 L 120.0 185.9 L 120.0 98.8 L 82.4 98.8 L 82.4 182.1 L 70.4 188.1 L 70.4 88.8 L 82.4 94.8 L 169.5 94.8 L 175.5 89.8 L 186.5 98.8 L 181.5 102.8 L 181.5 172.9 L 181.4 175.4 L 180.9 177.9 L 180.1 180.3 L 178.9 182.6 L 177.3 184.6 L 175.2 186.2 L 173.0 187.5 L 170.6 188.3 L 168.1 188.7 L 165.5 188.9 L 165.5 182.9 L 153.5 179.9 Z M 15.7 176.4 L 20.2 171.3 L 24.8 165.9 L 29.4 160.1 L 34.0 154.1 L 38.7 147.7 L 43.4 141.0 L 48.3 134.1 L 53.2 126.8 L 58.3 119.3 L 63.7 111.5 L 65.2 112.4 L 61.6 121.1 L 57.9 129.5 L 53.9 137.4 L 49.9 145.0 L 45.8 152.3 L 41.7 159.3 L 37.6 165.9 L 33.4 172.3 L 29.2 178.3 L 27.4615385055542 180.65934066772462 L 28.6 184.4 L 25.0 184.0 L 14.5 177.9 Z M 116.1 112.4 L 118.6 115.1 L 114.90579528808594 116.22145500183106 L 114.1 118.8 L 111.9 125.1 L 109.5 131.2 L 106.9 137.1 L 104.1 143.0 L 101.1 148.6 L 97.9 154.1 L 94.4 159.4 L 90.6 164.4 L 86.5 169.2 L 85.0 168.2 L 87.4 162.5 L 92.0 151.1 L 94.2 145.4 L 96.3 139.6 L 98.2 133.8 L 100.0 127.8 L 101.7 121.8 L 103.2 115.7 L 104.5 109.5 L 104.52105264663696 109.50526313781738 L 104.9 107.8 Z M 152.1 149.5 L 150.6 144.1 L 149.0 138.9 L 147.3 133.8 L 145.4 128.9 L 143.5 124.1 L 141.4 119.4 L 139.4 114.7 L 137.3 110.1 L 138.8 109.1 L 142.5 112.6 L 146.0 116.6 L 149.2 120.9 L 152.2 125.5 L 155.0 130.3 L 157.6 135.4 L 160.0 140.7 L 162.3 146.2 L 164.4 152.0 L 166.3 158.0 L 165.6 162.5 L 162.0 165.2 L 157.5 164.5 L 154.7 160.9 L 153.4 155.1 Z M 40.5 89.3 L 38.5 86.8 L 36.1 84.3 L 33.3 81.8 L 30.0 79.3 L 26.3 76.7 L 22.2 74.2 L 17.7 71.6 L 12.7 69.1 L 13.2 67.4 L 18.8 68.5 L 24.1 69.7 L 29.0 71.2 L 33.5 73.0 L 37.7 75.0 L 41.6 77.2 L 45.1 79.6 L 48.3 82.3 L 51.2 85.2 L 53.6 88.4 L 54.1 93.0 L 51.3 96.6 L 46.7 97.0 L 43.1 94.2 L 42.0 91.8 Z M 64.6 74.0 L 99.5 74.0 L 99.5 46.0 L 69.0 46.0 L 69.0 42.0 L 99.5 42.0 L 99.5 14.0 L 111.5 16.0 L 114.5 18.0 L 111.5 19.8 L 111.5 42.0 L 140.4 42.0 L 140.4 14.0 L 152.4 16.0 L 155.4 18.0 L 152.4 19.8 L 152.4 42.0 L 160.9 42.0 L 170.9 32.0 L 182.9 42.0 L 182.9 46.0 L 152.4 46.0 L 152.4 74.0 L 165.3 74.0 L 175.3 64.0 L 187.3 74.0 L 187.3 78.0 L 64.6 78.0 Z M 111.5 46.0 L 111.5 74.0 L 140.4 74.0 L 140.4 46.0 Z M 53.5 40.2 L 51.2 37.8 L 48.6 35.3 L 45.6 32.9 L 42.3 30.5 L 38.6 28.2 L 34.6 25.8 L 30.3 23.4 L 25.6 21.1 L 26.1 19.4 L 31.4 20.3 L 36.4 21.3 L 41.1 22.6 L 45.6 24.2 L 49.8 25.9 L 53.7 27.9 L 57.3 30.1 L 60.7 32.5 L 63.8 35.1 L 66.6 37.9 L 67.7 42.4 L 65.4 46.3 L 61.0 47.4 L 57.0 45.2 L 55.4 42.7 Z " />
</g>
</svg>
