<svg xmlns="http://www.w3.org/2000/svg" xmlns:xlink="http://www.w3.org/1999/xlink" version="1.1" baseProfile="full" viewBox="0 0 200 200" width="200" height="200">
<g fill="black">
<path d="M 150.2 176.0 L 162.2 176.0 L 163.5 175.9 L 164.4 175.8 L 165.0 175.6 L 165.3 175.4 L 165.5 175.3 L 165.8 174.7 L 166.0 174.2 L 166.2 173.2 L 166.2 93.5 L 128.5 93.5 L 128.5 181.7 L 120.5 185.7 L 120.5 93.5 L 81.9 93.5 L 81.9 181.5 L 69.9 187.5 L 69.9 83.5 L 81.9 89.5 L 120.5 89.5 L 120.5 68.6 L 61.2 68.6 L 61.2 64.6 L 120.5 64.6 L 120.5 41.6 L 128.5 43.6 L 130.5 45.6 L 128.5 47.1 L 128.5 64.6 L 169.51818180084229 64.6 L 177.7 55.6 L 187.7 64.6 L 187.7 68.6 L 128.5 68.6 L 128.5 89.5 L 166.2 89.5 L 172.2 84.5 L 183.2 93.5 L 178.2 97.5 L 178.2 172.0 L 178.1 174.6 L 177.6 177.1 L 176.8 179.5 L 175.6 181.7 L 174.0 183.8 L 172.0 185.4 L 169.7 186.6 L 167.3 187.4 L 164.8 187.9 L 162.2 188.0 L 162.2 182.0 L 150.2 179.0 Z M 13.7 176.5 L 17.8 171.5 L 21.9 166.0 L 26.1 160.3 L 30.4 154.2 L 34.7 147.9 L 39.0 141.2 L 43.4 134.2 L 48.0 126.9 L 52.7 119.3 L 57.6 111.6 L 59.3 112.3 L 56.1 121.0 L 52.7 129.4 L 49.2 137.3 L 45.6 144.9 L 42.0 152.1 L 38.3 159.1 L 34.6 165.7 L 30.8 172.0 L 27.1 178.0 L 25.593762588500976 180.29899396896363 L 26.9 184.0 L 23.3 183.8 L 12.5 178.1 Z M 163.2 147.8 L 163.2 151.8 L 133.3 151.8 L 133.3 147.8 L 148.9777777671814 147.8 L 155.2 140.8 Z M 115.4 147.8 L 115.4 151.8 L 85.6 151.8 L 85.6 147.8 L 101.1777777671814 147.8 L 107.4 140.8 Z M 163.2 117.7 L 163.2 121.7 L 133.3 121.7 L 133.3 117.7 L 148.9777777671814 117.7 L 155.2 110.7 Z M 115.4 117.7 L 115.4 121.7 L 85.6 121.7 L 85.6 117.7 L 101.1777777671814 117.7 L 107.4 110.7 Z M 36.2 89.1 L 34.5 86.6 L 32.4 84.1 L 29.9 81.6 L 27.0 79.1 L 23.7 76.6 L 20.1 74.1 L 16.0 71.5 L 11.5 69.1 L 12.1 67.4 L 17.2 68.6 L 22.0 69.8 L 26.5 71.4 L 30.7 73.1 L 34.6 75.1 L 38.1 77.3 L 41.4 79.8 L 44.3 82.4 L 46.9 85.4 L 49.2 88.6 L 49.5 93.1 L 46.5 96.6 L 42.0 96.9 L 38.5 94.0 L 37.5 91.5 Z M 147.1 14.7 L 149.6 16.7 L 147.1 18.36666669845581 L 147.1 33.1 L 170.21818180084227 33.1 L 178.4 24.1 L 188.4 33.1 L 188.4 37.1 L 147.1 37.1 L 147.1 53.3 L 137.1 58.3 L 137.1 12.7 Z M 111.8 14.7 L 114.3 16.7 L 111.8 18.36666669845581 L 111.8 53.3 L 101.8 58.3 L 101.8 37.1 L 60.5 37.1 L 60.5 33.1 L 101.8 33.1 L 101.8 12.7 Z M 48.0 40.0 L 46.0 37.5 L 43.7 35.1 L 41.1 32.7 L 38.1 30.4 L 34.9 28.0 L 31.3 25.7 L 27.5 23.3 L 23.2 21.1 L 23.8 19.4 L 28.6 20.4 L 33.2 21.4 L 37.5 22.8 L 41.6 24.3 L 45.4 26.1 L 49.0 28.0 L 52.4 30.2 L 55.5 32.6 L 58.3 35.2 L 60.9 38.1 L 61.8 42.6 L 59.4 46.4 L 54.9 47.3 L 51.0 44.9 L 49.6 42.4 Z " />
</g>
</svg>
