<svg xmlns="http://www.w3.org/2000/svg" xmlns:xlink="http://www.w3.org/1999/xlink" version="1.1" baseProfile="full" viewBox="0 0 200 200" width="200" height="200">
<g fill="black">
<path d="M 153.9 176.0 L 165.9 176.0 L 167.2 175.9 L 168.1 175.7 L 169.0 175.4 L 169.2 175.2 L 169.3 175.0 L 169.5 174.7 L 169.7 174.1 L 169.9 173.2 L 169.9 91.0 L 132.5 91.0 L 132.5 180.2 L 121.5 185.7 L 121.5 91.0 L 84.0 91.0 L 84.0 183.0 L 72.0 189.0 L 72.0 81.0 L 84.0 87.0 L 121.5 87.0 L 121.5 65.0 L 67.3 65.0 L 67.3 61.0 L 106.8 61.0 L 106.8 12.0 L 118.8 14.0 L 121.8 16.0 L 118.8 17.8 L 118.8 61.0 L 135.2 61.0 L 135.2 12.0 L 147.2 14.0 L 150.2 16.0 L 147.2 17.8 L 147.2 61.0 L 164.6 61.0 L 174.6 51.0 L 186.6 61.0 L 186.6 65.0 L 132.5 65.0 L 132.5 87.0 L 169.9 87.0 L 175.9 82.0 L 186.9 91.0 L 181.9 95.0 L 181.9 172.0 L 181.8 174.5 L 181.4 177.0 L 180.6 179.4 L 179.3 181.7 L 177.7 183.7 L 175.7 185.3 L 173.4 186.6 L 171.0 187.4 L 168.5 187.8 L 165.9 188.0 L 165.9 182.0 L 153.9 179.0 Z M 15.7 176.4 L 20.2 171.3 L 24.8 165.9 L 29.4 160.1 L 34.0 154.1 L 38.7 147.7 L 43.4 141.0 L 48.3 134.1 L 53.2 126.8 L 58.3 119.3 L 63.7 111.5 L 65.2 112.4 L 61.6 121.1 L 57.9 129.5 L 53.9 137.4 L 49.9 145.0 L 45.8 152.3 L 41.7 159.3 L 37.6 165.9 L 33.4 172.3 L 29.2 178.3 L 27.4615385055542 180.65934066772462 L 28.6 184.4 L 25.0 184.0 L 14.5 177.9 Z M 111.7 113.0 L 111.0 120.6 L 109.9 127.9 L 108.4 134.9 L 106.5 141.5 L 104.2 147.7 L 101.4 153.6 L 98.3 159.2 L 94.7 164.3 L 90.7 168.9 L 86.2 172.9 L 84.9 171.8 L 87.9 166.8 L 90.5 161.6 L 93.0 156.4 L 95.0 150.9 L 96.8 145.2 L 98.3 139.2 L 99.4 133.0 L 100.2 126.5 L 100.6 119.8 L 100.7 112.7 L 100.7 96.5 L 111.7 98.5 L 114.5 100.5 L 111.7 102.25 L 111.7 112.9 L 111.63452377319337 112.99821424484253 Z M 157.7 98.5 L 160.7 100.5 L 157.7 102.3 L 157.7 166.5 L 145.7 172.5 L 145.7 96.5 Z M 40.5 89.3 L 38.5 86.8 L 36.1 84.3 L 33.3 81.8 L 30.0 79.3 L 26.3 76.7 L 22.2 74.2 L 17.7 71.6 L 12.7 69.1 L 13.2 67.4 L 18.8 68.5 L 24.1 69.7 L 29.0 71.2 L 33.5 73.0 L 37.7 75.0 L 41.6 77.2 L 45.1 79.6 L 48.3 82.3 L 51.2 85.2 L 53.6 88.4 L 54.1 93.0 L 51.3 96.6 L 46.7 97.0 L 43.1 94.2 L 42.0 91.8 Z M 179.6 23.3 L 181.6 26.3 L 177.69956331253053 26.770742321014403 L 173.8 33.4 L 171.7 36.8 L 169.5 40.2 L 167.2 43.7 L 164.8 47.1 L 162.3 50.5 L 159.5 53.9 L 156.8 57.4 L 155.3 56.5 L 156.8 52.4 L 158.1 48.3 L 159.5 44.3 L 160.9 40.4 L 162.3 36.6 L 163.7 32.9 L 165.0 29.2 L 166.2 25.6 L 167.5 22.0 L 168.3057704925537 19.436184692382813 L 168.2 19.4 L 168.57962961196898 18.564814853668214 L 168.6 18.5 L 168.60758619308473 18.50331029891968 L 169.2 17.2 Z M 83.9 43.7 L 83.4 40.7 L 82.7 37.7 L 81.8 34.6 L 80.8 31.6 L 79.5 28.5 L 78.1 25.5 L 76.5 22.3 L 74.5 19.3 L 75.8 18.0 L 78.6 20.4 L 81.5 22.8 L 84.2 25.4 L 86.6 28.2 L 88.8 31.1 L 90.7 34.3 L 92.5 37.5 L 94.0 40.9 L 95.2 44.5 L 96.3 48.1 L 95.1 52.5 L 91.2 54.9 L 86.8 53.7 L 84.4 49.8 L 84.2 46.8 Z M 53.5 40.2 L 51.2 37.8 L 48.6 35.3 L 45.6 32.9 L 42.3 30.5 L 38.6 28.2 L 34.6 25.8 L 30.3 23.4 L 25.6 21.1 L 26.1 19.4 L 31.4 20.3 L 36.4 21.3 L 41.1 22.6 L 45.6 24.2 L 49.8 25.9 L 53.7 27.9 L 57.3 30.1 L 60.7 32.5 L 63.8 35.1 L 66.6 37.9 L 67.7 42.4 L 65.4 46.3 L 61.0 47.4 L 57.0 45.2 L 55.4 42.7 Z " />
</g>
</svg>
