<svg xmlns="http://www.w3.org/2000/svg" xmlns:xlink="http://www.w3.org/1999/xlink" version="1.1" baseProfile="full" viewBox="0 0 200 200" width="200" height="200">
<g fill="black">
<path d="M 106.61163520812988 117.03301887512207 L 105.7 126.5 L 102.65177049636841 138.39792795181273 L 104.5 142.2 L 108.6 148.4 L 113.5 153.9 L 119.3 158.6 L 119.46756963729858 158.70349884033203 L 121.8 156.0 L 126.2 151.1 L 130.5 146.6 L 134.7 142.3 L 138.7 138.1 L 142.5 134.1 L 146.2 130.4 L 149.7 126.7 L 153.0 123.2 L 155.42287073135375 120.62081499099732 L 155.4 120.6 L 155.67450981140138 120.35294113159179 L 156.1 119.9 L 156.13547592163087 119.93807172775269 L 156.4 119.7 L 164.3 128.7 L 164.9 132.3 L 161.21842575073242 131.18237924575806 L 160.7 131.6 L 156.9 134.6 L 152.9 137.8 L 148.7 141.1 L 144.3 144.5 L 139.7 148.0 L 134.8 151.5 L 129.7 155.2 L 124.3 158.8 L 121.9996768951416 160.26744747161865 L 126.1 162.8 L 134.1 166.3 L 143.1 169.3 L 153.4 171.6 L 164.8 173.3 L 177.5 174.3 L 188.3 175.1 L 176.4 187.5 L 163.1 185.7 L 150.9 183.1 L 139.8 179.8 L 130.0 175.7 L 121.4 170.8 L 114.0 165.1 L 108.1 158.7 L 103.5 151.5 L 100.6 143.7 L 100.51359796524048 143.14835634231568 L 97.6 149.5 L 90.7 158.9 L 82.2 166.9 L 72.0 173.5 L 60.3 178.9 L 47.1 183.1 L 32.3 186.1 L 16.1 188.1 L 15.8 186.3 L 31.5 182.4 L 45.5 178.0 L 57.7 172.9 L 68.1 167.0 L 76.7 160.4 L 83.6 153.0 L 88.8 144.7 L 92.4 135.3 L 94.4 124.8 L 95.0 113.0 L 95.0 110.6 L 107.0 113.0 L 110.0 115.0 Z M 53.7 147.6 L 52.5 144.4 L 51.0 141.2 L 49.3 138.0 L 47.2 134.7 L 44.9 131.5 L 42.3 128.3 L 39.5 125.0 L 36.3 121.8 L 37.3 120.3 L 41.4 122.5 L 45.4 124.7 L 49.1 127.3 L 52.5 130.1 L 55.6 133.1 L 58.5 136.2 L 61.0 139.6 L 63.3 143.2 L 65.2 147.0 L 66.9 150.9 L 66.3 155.4 L 62.8 158.3 L 58.2 157.7 L 55.4 154.2 L 54.7 150.9 Z M 38.1 113.7 L 38.1 69.63000001907349 L 32.5 73.9 L 24.1 79.7 L 15.2 85.1 L 14.1 83.7 L 21.8 76.7 L 29.1 69.8 L 36.1 62.9 L 38.1 60.80909090042114 L 38.1 59.9 L 38.68823528289795 60.194117641448976 L 42.7 56.0 L 48.9 49.0 L 54.8 41.9 L 60.3 34.7 L 65.3 27.5 L 70.0 20.1 L 74.3 12.6 L 74.8 11.7 L 84.6 18.7 L 86.2 22.0 L 82.38552627563476 22.0 L 79.5 26.3 L 74.0 33.7 L 70.84794521331787 37.6 L 122.8 37.6 L 122.86792449951172 37.543396186828616 L 122.9 37.5 L 124.4 35.5 L 124.83171520233154 35.90690402984619 L 128.8 32.6 L 139.8 41.6 L 134.8 44.6 L 129.08672561645508 46.98053092956543 L 128.7 47.3 L 126.1 49.3 L 123.2 51.6 L 120.0 54.0 L 116.6 56.6 L 112.9 59.4 L 108.9 62.3 L 104.5 65.3 L 103.66363639831543 65.9 L 146.7 65.9 L 152.7 60.9 L 163.7 69.9 L 158.7 73.9 L 158.7 107.7 L 146.7 113.7 L 146.7 107.7 L 50.1 107.7 Z M 50.1 69.9 L 50.1 103.7 L 74.0 103.7 L 74.0 69.9 Z M 86.0 69.9 L 86.0 103.7 L 110.8 103.7 L 110.8 69.9 Z M 122.8 69.9 L 122.8 103.7 L 146.7 103.7 L 146.7 69.9 Z M 67.56000003814697 41.6 L 61.8 48.0 L 55.1 54.8 L 48.0 61.4 L 45.45073890686035 63.57536945343018 L 50.1 65.9 L 99.78837213516235 65.9 L 102.3 62.9 L 105.6 58.8 L 108.8 55.0 L 111.7 51.5 L 114.5 48.2 L 116.9 45.2 L 119.2 42.4 L 119.81538457870484 41.6 Z " />
</g>
</svg>
