<svg xmlns="http://www.w3.org/2000/svg" xmlns:xlink="http://www.w3.org/1999/xlink" version="1.1" baseProfile="full" viewBox="0 0 200 200" width="200" height="200">
<g fill="black">
<path d="M 98.7 184.1 L 96.2 183.6 L 93.8 182.8 L 91.5 181.6 L 89.5 179.9 L 87.8 177.9 L 86.6 175.7 L 85.8 173.3 L 85.4 170.8 L 85.2 168.2 L 85.2 12.4 L 97.2 14.4 L 100.2 16.4 L 97.2 18.2 L 97.2 168.2 L 97.3 169.4 L 97.4 170.3 L 97.6 170.9 L 97.8 171.3 L 98.1 171.6 L 98.5 171.8 L 99.1 172.0 L 100.0 172.1 L 101.2 172.2 L 176.4 172.2 L 182.4 147.2 L 184.4 147.2 L 182.4 172.2 L 186.0 174.6 L 188.4 178.2 L 186.0 181.8 L 182.4 184.2 L 101.2 184.2 Z M 13.1 138.1 L 18.0 136.8 L 23.3 135.3 L 28.9 133.7 L 34.8 131.9 L 38.2 130.84098358154296 L 38.2 69.6 L 13.9 69.6 L 13.9 65.6 L 38.2 65.6 L 38.2 20.8 L 50.2 22.8 L 53.2 24.8 L 50.2 26.6 L 50.2 65.6 L 54.2 65.6 L 64.2 55.6 L 76.2 65.6 L 76.2 69.6 L 50.2 69.6 L 50.2 126.9529411315918 L 54.2 125.6 L 61.4 123.3 L 68.8 121.0 L 76.7 118.6 L 77.4 120.3 L 70.3 124.5 L 63.4 128.3 L 56.7 131.7 L 50.3 134.9 L 44.0 137.9 L 38.1 140.6 L 32.3 143.1 L 26.9 145.5 L 21.6 147.6 L 20.60563144683838 147.98557147979736 L 19.5 151.8 L 16.7 149.5 L 11.2 138.7 Z M 188.0 135.7 L 185.6 139.3 L 182.0 141.7 L 135.5 141.7 L 132.9 141.5 L 130.4 141.1 L 128.0 140.3 L 125.7 139.1 L 123.7 137.4 L 122.1 135.4 L 120.8 133.1 L 120.0 130.7 L 119.6 128.2 L 119.5 125.7 L 119.5 26.0 L 131.5 28.0 L 134.5 30.0 L 131.5 31.8 L 131.5 66.7 L 156.0 66.7 L 166.0 56.7 L 178.0 66.7 L 178.0 70.7 L 131.5 70.7 L 131.5 126.9 L 131.7 127.8 L 132.0 128.7 L 132.4 129.1 L 132.7 129.3 L 133.3 129.4 L 134.2 129.6 L 135.5 129.7 L 182.0 129.7 L 185.6 132.1 Z " />
</g>
</svg>
