<svg xmlns="http://www.w3.org/2000/svg" xmlns:xlink="http://www.w3.org/1999/xlink" version="1.1" baseProfile="full" viewBox="0 0 200 200" width="200" height="200">
<g fill="black">
<path d="M 105.7 123.1 L 108.3 125.5 L 104.60504102706909 127.00535364151001 L 102.7 133.8 L 99.50500001907349 140.9 L 165.0 140.9 L 175.0 130.9 L 187.0 140.9 L 187.0 144.9 L 97.46263732910157 144.9 L 92.1 152.9 L 84.6 161.2 L 75.7 168.4 L 65.5 174.5 L 54.0 179.5 L 41.2 183.2 L 27.2 185.7 L 12.0 186.7 L 11.9 184.9 L 26.5 181.9 L 39.8 178.1 L 51.5 173.4 L 61.8 167.9 L 70.6 161.6 L 78.0 154.6 L 84.0 147.0 L 85.19259262084961 144.9 L 13.0 144.9 L 13.0 140.9 L 87.46419754028321 140.9 L 88.6 138.9 L 91.9 130.2 L 93.76666669845581 121.61333332061767 L 94.2 119.1 Z M 160.7 179.0 L 156.0 175.9 L 150.4 172.7 L 144.1 169.6 L 136.9 166.5 L 129.0 163.3 L 120.3 160.1 L 110.9 156.8 L 100.7 153.4 L 101.1 151.6 L 111.8 153.1 L 121.8 155.0 L 131.0 157.0 L 139.4 159.3 L 147.2 161.7 L 154.3 164.3 L 160.7 167.0 L 166.4 169.9 L 171.5 172.9 L 175.9 176.3 L 177.7 180.5 L 176.1 184.7 L 171.9 186.6 L 167.6 185.0 L 164.6 182.0 Z M 50.1 124.7 L 38.1 130.7 L 38.1 72.67468357086182 L 32.6 77.2 L 24.1 83.4 L 15.2 89.1 L 14.1 87.7 L 21.7 80.4 L 29.0 73.2 L 36.0 66.0 L 38.1 63.677272701263426 L 38.1 63.1 L 38.45943393707275 63.27971696853638 L 42.6 58.7 L 48.9 51.4 L 54.7 44.0 L 60.2 36.4 L 65.3 28.8 L 70.0 21.0 L 73.80306987762451 14.101408195495605 L 73.8 14.1 L 74.8 12.2 L 84.7 19.1 L 86.4 22.3 L 82.6191475868225 22.364082241058348 L 79.6 27.1 L 74.1 34.9 L 70.68421049118042 39.3 L 122.8 39.3 L 122.97647056579589 39.152941131591795 L 124.3 37.3 L 124.73297300338746 37.68918914794922 L 128.8 34.3 L 139.8 43.3 L 134.8 46.3 L 129.4623999595642 48.523999977111814 L 128.8 49.1 L 126.2 51.3 L 123.3 53.7 L 120.1 56.2 L 116.7 59.0 L 113.0 61.9 L 109.0 65.0 L 104.6 68.2 L 103.391428565979 69.1 L 146.7 69.1 L 152.7 64.1 L 163.7 73.1 L 158.7 77.1 L 158.7 118.7 L 146.7 124.7 L 146.7 112.7 L 50.1 112.7 Z M 50.1 73.1 L 50.1 108.7 L 74.0 108.7 L 74.0 73.1 Z M 86.0 73.1 L 86.0 108.7 L 110.8 108.7 L 110.8 73.1 Z M 122.8 73.1 L 122.8 108.7 L 146.7 108.7 L 146.7 73.1 Z M 67.51891889572144 43.3 L 61.9 49.9 L 55.2 57.1 L 48.1 64.0 L 45.132380962371826 66.6161904335022 L 50.1 69.1 L 99.73999996185303 69.1 L 102.3 65.9 L 105.6 61.6 L 108.7 57.6 L 111.7 53.9 L 114.4 50.5 L 116.8 47.4 L 119.1 44.5 L 119.98888893127442 43.3 Z " />
</g>
</svg>
