<svg xmlns="http://www.w3.org/2000/svg" xmlns:xlink="http://www.w3.org/1999/xlink" version="1.1" baseProfile="full" viewBox="0 0 200 200" width="200" height="200">
<g fill="black">
<path d="M 144.4 176.0 L 164.4 176.0 L 165.7 175.9 L 166.6 175.7 L 167.5 175.4 L 167.7 175.2 L 167.8 175.0 L 168.0 174.7 L 168.2 174.1 L 168.4 173.2 L 168.4 84.0 L 79.7 84.0 L 79.7 182.0 L 67.7 188.0 L 67.7 74.0 L 79.7 80.0 L 168.4 80.0 L 174.4 75.0 L 185.4 84.0 L 180.4 88.0 L 180.4 172.0 L 180.3 174.5 L 179.9 177.0 L 179.0 179.4 L 177.8 181.7 L 176.2 183.7 L 174.2 185.3 L 171.9 186.6 L 169.5 187.4 L 167.0 187.8 L 164.4 188.0 L 164.4 182.0 L 144.4 179.0 Z M 13.7 176.5 L 17.8 171.5 L 21.9 166.0 L 26.1 160.3 L 30.4 154.2 L 34.7 147.9 L 39.0 141.2 L 43.4 134.2 L 48.0 126.9 L 52.7 119.3 L 57.6 111.6 L 59.3 112.3 L 56.1 121.0 L 52.7 129.4 L 49.2 137.3 L 45.6 144.9 L 42.0 152.1 L 38.3 159.1 L 34.6 165.7 L 30.8 172.0 L 27.1 178.0 L 25.593762588500976 180.29899396896363 L 26.9 184.0 L 23.3 183.8 L 12.5 178.1 Z M 160.5 105.0 L 160.5 109.0 L 130.5 109.0 L 130.5 135.0 L 140.7 135.0 L 150.7 125.0 L 162.7 135.0 L 162.7 139.0 L 130.5 139.0 L 130.5 173.0 L 118.5 179.0 L 118.5 139.0 L 84.8 139.0 L 84.8 135.0 L 118.5 135.0 L 118.5 109.0 L 87.7 109.0 L 87.7 105.0 L 138.5 105.0 L 148.5 95.0 Z M 36.2 89.1 L 34.5 86.6 L 32.4 84.1 L 29.9 81.6 L 27.0 79.1 L 23.7 76.6 L 20.1 74.1 L 16.0 71.5 L 11.5 69.1 L 12.1 67.4 L 17.2 68.6 L 22.0 69.8 L 26.5 71.4 L 30.7 73.1 L 34.6 75.1 L 38.1 77.3 L 41.4 79.8 L 44.3 82.4 L 46.9 85.4 L 49.2 88.6 L 49.5 93.1 L 46.5 96.6 L 42.0 96.9 L 38.5 94.0 L 37.5 91.5 Z M 103.3 13.5 L 106.5 15.3 L 103.5332052230835 16.571483516693114 L 105.38796300888062 41.0 L 110.3 41.0 L 114.8 35.0 L 120.8 41.0 L 120.8 45.0 L 105.6916666984558 45.0 L 107.4 67.5 L 95.9 74.4 L 93.67129030227662 45.0 L 62.7 45.0 L 62.7 41.0 L 93.36806449890136 41.0 L 91.2 12.4 Z M 157.6 14.4 L 160.4 16.6 L 157.34022884368898 17.73991470336914 L 155.53111114501954 41.0 L 164.2 41.0 L 174.2 31.0 L 186.2 41.0 L 186.2 45.0 L 155.2199999809265 45.0 L 153.4 68.4 L 141.0 73.5 L 143.16048383712769 45.0 L 128.1 45.0 L 128.1 41.0 L 143.46370964050294 41.0 L 145.7 11.5 Z M 48.0 40.0 L 46.0 37.5 L 43.7 35.1 L 41.1 32.7 L 38.1 30.4 L 34.9 28.0 L 31.3 25.7 L 27.5 23.3 L 23.2 21.1 L 23.8 19.4 L 28.6 20.4 L 33.2 21.4 L 37.5 22.8 L 41.6 24.3 L 45.4 26.1 L 49.0 28.0 L 52.4 30.2 L 55.5 32.6 L 58.3 35.2 L 60.9 38.1 L 61.8 42.6 L 59.4 46.4 L 54.9 47.3 L 51.0 44.9 L 49.6 42.4 Z " />
</g>
</svg>
