<svg xmlns="http://www.w3.org/2000/svg" xmlns:xlink="http://www.w3.org/1999/xlink" version="1.1" baseProfile="full" viewBox="0 0 200 200" width="200" height="200">
<g fill="black">
<path d="M 181.0 147.0 L 183.0 147.0 L 181.0 172.0 L 184.6 174.4 L 187.0 178.0 L 184.6 181.6 L 181.0 184.0 L 123.0 184.0 L 120.4 183.8 L 117.9 183.4 L 115.5 182.6 L 113.2 181.3 L 111.2 179.7 L 109.6 177.7 L 108.3 175.4 L 107.5 173.0 L 107.1 170.5 L 107.0 168.0 L 107.0 109.5 L 85.7404580116272 109.5 L 84.0 121.5 L 80.8 133.5 L 76.3 144.4 L 70.6 154.3 L 63.7 163.0 L 55.6 170.5 L 46.3 176.7 L 36.0 181.7 L 24.6 185.4 L 12.1 187.8 L 11.8 186.1 L 23.4 181.8 L 33.7 176.9 L 42.8 171.2 L 50.6 164.7 L 57.2 157.4 L 62.7 149.3 L 67.2 140.3 L 70.5 130.4 L 72.8 119.4 L 73.7983193397522 109.5 L 51.7 109.5 L 51.7 121.5 L 39.7 127.5 L 39.7 34.5 L 51.7 40.5 L 80.65161294937134 40.5 L 81.6 38.4 L 82.6 35.3 L 83.7 32.2 L 86.7 23.2 L 88.5 17.4 L 89.3 14.5 L 89.76262626647949 12.649494934082032 L 89.6 12.6 L 90.5 10.3 L 101.1 16.1 L 103.2 19.1 L 99.0706298828125 19.740764331817626 L 97.9 21.6 L 96.2 24.4 L 94.4 27.0 L 92.5 29.7 L 90.5 32.3 L 88.4 34.9 L 86.2 37.4 L 83.9 39.9 L 83.37200002670288 40.5 L 148.2 40.5 L 154.2 35.5 L 165.2 44.5 L 160.2 48.5 L 160.2 111.5 L 148.2 117.5 L 148.2 109.5 L 119.0 109.5 L 119.0 169.2 L 119.2 170.1 L 119.5 171.0 L 119.9 171.4 L 120.8 171.7 L 121.7 171.9 L 123.0 172.0 L 175.0 172.0 Z M 154.4 148.1 L 152.9 145.4 L 151.1 142.7 L 148.9 139.9 L 146.4 137.1 L 143.4 134.4 L 140.1 131.5 L 136.5 128.7 L 132.4 125.9 L 133.2 124.3 L 137.9 125.9 L 142.5 127.5 L 146.7 129.4 L 150.6 131.6 L 154.3 134.0 L 157.6 136.6 L 160.6 139.4 L 163.2 142.4 L 165.6 145.7 L 167.5 149.2 L 167.4 153.7 L 164.1 156.9 L 159.6 156.8 L 156.4 153.5 L 155.5 150.9 Z M 51.7 76.5 L 51.7 105.5 L 94.0 105.5 L 94.0 76.5 Z M 106.0 76.5 L 106.0 105.5 L 148.2 105.5 L 148.2 76.5 Z M 51.7 44.5 L 51.7 72.5 L 94.0 72.5 L 94.0 44.5 Z M 106.0 44.5 L 106.0 72.5 L 148.2 72.5 L 148.2 44.5 Z " />
</g>
</svg>
