<svg xmlns="http://www.w3.org/2000/svg" xmlns:xlink="http://www.w3.org/1999/xlink" version="1.1" baseProfile="full" viewBox="0 0 200 200" width="200" height="200">
<g fill="black">
<path d="M 150.4 174.3 L 162.4 174.3 L 163.6 174.2 L 164.5 174.0 L 165.4 173.7 L 165.8 173.3 L 166.1 172.4 L 166.3 171.5 L 166.4 170.3 L 166.4 148.8 L 163.0 151.9 L 158.4 151.5 L 155.4 148.1 L 154.8 145.3 L 154.1 142.5 L 153.3 139.7 L 152.4 137.0 L 150.2 131.6 L 148.9 128.9 L 147.3581280708313 125.92638988494873 L 146.3 129.0 L 143.7 134.8 L 140.6 140.1 L 137.1 144.9 L 133.2 149.1 L 128.8 152.6 L 127.5 151.4 L 130.2 146.7 L 132.6 142.0 L 134.8 137.0 L 136.6 131.9 L 138.2 126.4 L 139.4 120.7 L 140.3 114.6 L 140.8 108.2 L 141.0 101.4 L 140.91387281417846 95.19884395599365 L 140.9 95.2 L 140.9 91.8 L 152.9 94.2 L 155.9 96.2 L 152.64666662216186 98.15200004577636 L 152.4 102.0 L 151.5 109.3 L 150.2 116.3 L 148.61538457870483 122.11025638580323 L 150.7 123.5 L 153.2 125.6 L 155.6 127.9 L 157.8 130.3 L 159.9 132.8 L 161.8 135.5 L 163.6 138.3 L 165.2 141.2 L 166.4 143.525 L 166.4 83.7 L 127.2 83.7 L 127.2 180.6 L 115.2 186.6 L 115.2 148.8 L 111.8 151.9 L 107.2 151.5 L 104.2 148.1 L 103.6 145.3 L 102.9 142.5 L 102.1 139.7 L 101.2 137.0 L 99.0 131.6 L 97.7 128.9 L 96.1581280708313 125.92638988494873 L 95.1 129.0 L 92.5 134.8 L 89.4 140.1 L 85.9 144.9 L 82.0 149.1 L 77.6 152.6 L 76.8 151.8615385055542 L 76.8 182.3 L 64.8 188.3 L 64.8 73.7 L 76.8 79.7 L 115.2 79.7 L 115.2 58.7 L 56.4 58.7 L 56.4 54.7 L 166.4 54.7 L 176.4 44.7 L 188.4 54.7 L 188.4 58.7 L 127.2 58.7 L 127.2 79.7 L 166.4 79.7 L 172.4 74.7 L 183.4 83.7 L 178.4 87.7 L 178.4 170.3 L 178.2 172.8 L 177.8 175.3 L 177.0 177.7 L 175.7 180.0 L 174.1 182.0 L 172.1 183.6 L 169.8 184.9 L 167.4 185.7 L 164.9 186.1 L 162.4 186.3 L 162.4 180.3 L 150.4 177.3 Z M 13.7 176.5 L 17.8 171.5 L 21.9 166.0 L 26.1 160.3 L 30.4 154.2 L 34.7 147.9 L 39.0 141.2 L 43.4 134.2 L 48.0 126.9 L 52.7 119.3 L 57.6 111.6 L 59.3 112.3 L 56.1 121.0 L 52.7 129.4 L 49.2 137.3 L 45.6 144.9 L 42.0 152.1 L 38.3 159.1 L 34.6 165.7 L 30.8 172.0 L 27.1 178.0 L 25.593762588500976 180.29899396896363 L 26.9 184.0 L 23.3 183.8 L 12.5 178.1 Z M 101.44666662216187 98.15200004577636 L 101.2 102.0 L 100.3 109.3 L 99.0 116.3 L 97.41538457870483 122.11025638580323 L 99.5 123.5 L 102.0 125.6 L 104.4 127.9 L 106.6 130.3 L 108.7 132.8 L 110.6 135.5 L 112.4 138.3 L 114.0 141.2 L 115.2 143.525 L 115.2 83.7 L 76.8 83.7 L 76.8 150.529629611969 L 79.0 146.7 L 81.4 142.0 L 83.6 137.0 L 85.4 131.9 L 87.0 126.4 L 88.2 120.7 L 89.1 114.6 L 89.6 108.2 L 89.8 101.4 L 89.71387281417847 95.19884395599365 L 89.7 95.2 L 89.7 91.8 L 101.7 94.2 L 104.7 96.2 Z M 36.2 89.1 L 34.5 86.6 L 32.4 84.1 L 29.9 81.6 L 27.0 79.1 L 23.7 76.6 L 20.1 74.1 L 16.0 71.5 L 11.5 69.1 L 12.1 67.4 L 17.2 68.6 L 22.0 69.8 L 26.5 71.4 L 30.7 73.1 L 34.6 75.1 L 38.1 77.3 L 41.4 79.8 L 44.3 82.4 L 46.9 85.4 L 49.2 88.6 L 49.5 93.1 L 46.5 96.6 L 42.0 96.9 L 38.5 94.0 L 37.5 91.5 Z M 165.8 20.0 L 167.3 23.3 L 163.442857170105 23.3 L 163.3 23.5 L 160.7 27.0 L 158.0 30.4 L 152.4 37.2 L 149.4 40.5 L 146.3 43.8 L 143.1 47.0 L 136.3 53.2 L 134.8 52.1 L 137.1 48.0 L 139.2 44.0 L 141.4 40.1 L 143.5 36.2 L 145.7 32.4 L 147.8 28.7 L 149.8 24.9 L 153.6 17.5 L 155.06177730560302 14.730316638946533 L 155.0 14.7 L 156.0 13.0 Z M 96.6 40.9 L 95.2 38.0 L 93.7 35.1 L 91.8 32.2 L 89.7 29.4 L 87.3 26.6 L 84.6 23.8 L 81.7 20.9 L 78.4 18.2 L 79.3 16.6 L 83.3 18.3 L 87.3 20.1 L 91.0 22.1 L 94.4 24.3 L 97.6 26.9 L 100.6 29.6 L 103.3 32.5 L 105.7 35.7 L 107.9 39.1 L 109.7 42.7 L 109.5 47.2 L 106.2 50.4 L 101.6 50.1 L 98.5 46.8 L 97.6 43.8 Z M 48.0 40.0 L 46.0 37.5 L 43.7 35.1 L 41.1 32.7 L 38.1 30.4 L 34.9 28.0 L 31.3 25.7 L 27.5 23.3 L 23.2 21.1 L 23.8 19.4 L 28.6 20.4 L 33.2 21.4 L 37.5 22.8 L 41.6 24.3 L 45.4 26.1 L 49.0 28.0 L 52.4 30.2 L 55.5 32.6 L 58.3 35.2 L 60.9 38.1 L 61.8 42.6 L 59.4 46.4 L 54.9 47.3 L 51.0 44.9 L 49.6 42.4 Z " />
</g>
</svg>
