<svg xmlns="http://www.w3.org/2000/svg" xmlns:xlink="http://www.w3.org/1999/xlink" version="1.1" baseProfile="full" viewBox="0 0 200 200" width="200" height="200">
<g fill="black">
<path d="M 153.2 175.6 L 166.5 175.6 L 167.4 175.4 L 168.0 175.2 L 168.3 175.0 L 168.5 174.9 L 168.6 174.7 L 168.8 174.4 L 169.0 173.8 L 169.2 172.9 L 169.2 101.0 L 133.0 101.0 L 133.0 178.6 L 121.0 184.6 L 121.0 101.0 L 84.7 101.0 L 84.7 180.8 L 72.7 186.8 L 72.7 91.0 L 84.7 97.0 L 121.0 97.0 L 121.0 73.4 L 67.3 73.4 L 67.3 69.4 L 164.6 69.4 L 174.6 59.4 L 186.6 69.4 L 186.6 73.4 L 133.0 73.4 L 133.0 97.0 L 169.2 97.0 L 175.2 92.0 L 186.2 101.0 L 181.2 105.0 L 181.2 171.6 L 181.1 174.2 L 180.7 176.7 L 179.8 179.1 L 178.6 181.4 L 177.0 183.4 L 175.0 185.0 L 172.7 186.2 L 170.3 187.0 L 167.8 187.5 L 165.2 187.6 L 165.2 181.6 L 153.2 178.6 Z M 15.7 176.4 L 20.2 171.3 L 24.8 165.9 L 29.4 160.1 L 34.0 154.1 L 38.7 147.7 L 43.4 141.0 L 48.3 134.1 L 53.2 126.8 L 58.3 119.3 L 63.7 111.5 L 65.2 112.4 L 61.6 121.1 L 57.9 129.5 L 53.9 137.4 L 49.9 145.0 L 45.8 152.3 L 41.7 159.3 L 37.6 165.9 L 33.4 172.3 L 29.2 178.3 L 27.4615385055542 180.65934066772462 L 28.6 184.4 L 25.0 184.0 L 14.5 177.9 Z M 118.2 117.0 L 120.4 119.8 L 116.73132667541503 120.63671493530273 L 116.1 122.2 L 113.8 127.3 L 111.4 132.3 L 108.8 137.2 L 106.0 141.9 L 103.0 146.6 L 99.8 151.1 L 96.4 155.4 L 92.6 159.5 L 88.6 163.3 L 87.2 162.2 L 89.5 157.3 L 91.9 152.4 L 94.2 147.7 L 96.4 142.9 L 98.4 138.1 L 100.4 133.2 L 102.2 128.3 L 103.8 123.4 L 105.4 118.4 L 106.44261264801025 114.30975036621093 L 106.4 114.3 L 106.62168674468994 113.6072289466858 L 106.7 113.3 L 106.71813306808471 113.30583410263061 L 107.2 111.8 Z M 153.3 147.2 L 151.8 142.7 L 150.3 138.4 L 148.6 134.1 L 145.0 125.9 L 143.0 122.0 L 141.0 118.0 L 139.0 114.1 L 140.4 112.9 L 143.9 115.8 L 147.2 119.0 L 150.3 122.5 L 153.2 126.2 L 156.0 130.2 L 158.5 134.4 L 161.0 138.8 L 163.2 143.4 L 165.3 148.1 L 167.3 153.1 L 166.8 157.6 L 163.3 160.6 L 158.8 160.1 L 155.8 156.6 L 154.6 151.8 Z M 40.5 89.3 L 38.5 86.8 L 36.1 84.3 L 33.3 81.8 L 30.0 79.3 L 26.3 76.7 L 22.2 74.2 L 17.7 71.6 L 12.7 69.1 L 13.2 67.4 L 18.8 68.5 L 24.1 69.7 L 29.0 71.2 L 33.5 73.0 L 37.7 75.0 L 41.6 77.2 L 45.1 79.6 L 48.3 82.3 L 51.2 85.2 L 53.6 88.4 L 54.1 93.0 L 51.3 96.6 L 46.7 97.0 L 43.1 94.2 L 42.0 91.8 Z M 149.0 14.0 L 152.0 16.0 L 149.0 17.8 L 149.0 37.0 L 166.8181818008423 37.0 L 175.0 28.0 L 185.0 37.0 L 185.0 41.0 L 149.0 41.0 L 149.0 61.0 L 137.0 67.0 L 137.0 12.0 Z M 116.9 14.0 L 119.9 16.0 L 116.9 17.8 L 116.9 61.0 L 104.9 67.0 L 104.9 41.0 L 68.9 41.0 L 68.9 37.0 L 104.9 37.0 L 104.9 12.0 Z M 53.5 40.2 L 51.2 37.8 L 48.6 35.3 L 45.6 32.9 L 42.3 30.5 L 38.6 28.2 L 34.6 25.8 L 30.3 23.4 L 25.6 21.1 L 26.1 19.4 L 31.4 20.3 L 36.4 21.3 L 41.1 22.6 L 45.6 24.2 L 49.8 25.9 L 53.7 27.9 L 57.3 30.1 L 60.7 32.5 L 63.8 35.1 L 66.6 37.9 L 67.7 42.4 L 65.4 46.3 L 61.0 47.4 L 57.0 45.2 L 55.4 42.7 Z " />
</g>
</svg>
