<svg xmlns="http://www.w3.org/2000/svg" xmlns:xlink="http://www.w3.org/1999/xlink" version="1.1" baseProfile="full" viewBox="0 0 200 200" width="200" height="200">
<g fill="black">
<path d="M 151.0 176.0 L 163.0 176.0 L 164.2 175.9 L 165.1 175.7 L 166.0 175.4 L 166.4 175.0 L 166.7 174.1 L 166.9 173.2 L 167.0 172.0 L 167.0 82.0 L 130.5 82.0 L 130.5 179.0 L 118.5 185.0 L 118.5 82.0 L 81.2 82.0 L 81.2 182.0 L 69.2 188.0 L 69.2 72.0 L 81.2 78.0 L 167.0 78.0 L 173.0 73.0 L 184.0 82.0 L 179.0 86.0 L 179.0 172.0 L 178.8 174.5 L 178.4 177.0 L 177.6 179.4 L 176.4 181.7 L 174.7 183.7 L 172.7 185.3 L 170.4 186.6 L 168.0 187.4 L 165.5 187.8 L 163.0 188.0 L 163.0 182.0 L 151.0 179.0 Z M 13.7 176.5 L 17.8 171.5 L 21.9 166.0 L 26.1 160.3 L 30.4 154.2 L 34.7 147.9 L 39.0 141.2 L 43.4 134.2 L 48.0 126.9 L 52.7 119.3 L 57.6 111.6 L 59.3 112.3 L 56.1 121.0 L 52.7 129.4 L 49.2 137.3 L 45.6 144.9 L 42.0 152.1 L 38.3 159.1 L 34.6 165.7 L 30.8 172.0 L 27.1 178.0 L 25.593762588500976 180.29899396896363 L 26.9 184.0 L 23.3 183.8 L 12.5 178.1 Z M 106.2 101.0 L 109.2 103.0 L 106.2 104.8 L 106.2 159.0 L 94.2 165.0 L 94.2 99.0 Z M 150.3 156.6 L 149.3 154.2 L 148.0 151.8 L 146.4 149.3 L 144.6 146.7 L 142.5 144.1 L 140.1 141.5 L 137.5 138.7 L 134.4 136.2 L 135.3 134.7 L 139.0 136.4 L 142.6 138.0 L 146.0 139.9 L 149.1 141.8 L 152.0 144.0 L 154.7 146.3 L 157.1 148.7 L 159.3 151.3 L 161.2 154.1 L 162.9 157.1 L 162.6 161.6 L 159.3 164.8 L 154.7 164.5 L 151.6 161.2 L 151.1 158.9 Z M 163.1 103.6 L 164.8 106.8 L 160.57669906616212 107.01844663619995 L 158.9 109.0 L 156.5 111.5 L 153.9 113.9 L 151.2 116.1 L 148.2 118.3 L 145.1 120.3 L 141.7 122.2 L 138.1 123.9 L 134.5 125.7 L 133.5 124.2 L 136.5 121.6 L 139.0 118.7 L 141.4 116.0 L 143.6 113.3 L 145.6 110.7 L 147.4 108.1 L 149.0 105.5 L 150.4 103.0 L 151.5 100.5 L 152.1197226524353 98.95069341659546 L 152.0 98.9 L 153.0 97.0 Z M 36.2 89.1 L 34.5 86.6 L 32.4 84.1 L 29.9 81.6 L 27.0 79.1 L 23.7 76.6 L 20.1 74.1 L 16.0 71.5 L 11.5 69.1 L 12.1 67.4 L 17.2 68.6 L 22.0 69.8 L 26.5 71.4 L 30.7 73.1 L 34.6 75.1 L 38.1 77.3 L 41.4 79.8 L 44.3 82.4 L 46.9 85.4 L 49.2 88.6 L 49.5 93.1 L 46.5 96.6 L 42.0 96.9 L 38.5 94.0 L 37.5 91.5 Z M 148.1 14.0 L 151.1 16.0 L 148.1 17.8 L 148.1 39.0 L 170.21818180084227 39.0 L 178.4 30.0 L 188.4 39.0 L 188.4 43.0 L 148.1 43.0 L 148.1 65.0 L 136.1 71.0 L 136.1 12.0 Z M 48.0 40.0 L 46.0 37.5 L 43.7 35.1 L 41.1 32.7 L 38.1 30.4 L 34.9 28.0 L 31.3 25.7 L 27.5 23.3 L 23.2 21.1 L 23.8 19.4 L 28.6 20.4 L 33.2 21.4 L 37.5 22.8 L 41.6 24.3 L 45.4 26.1 L 49.0 28.0 L 52.4 30.2 L 55.5 32.6 L 58.3 35.2 L 60.9 38.1 L 61.08000001907349 39.0 L 100.8 39.0 L 100.8 12.0 L 112.8 14.0 L 115.8 16.0 L 112.8 17.8 L 112.8 65.0 L 100.8 71.0 L 100.8 43.0 L 61.54736843109131 43.0 L 59.4 46.4 L 54.9 47.3 L 51.0 44.9 L 49.6 42.4 Z " />
</g>
</svg>
