<svg xmlns="http://www.w3.org/2000/svg" xmlns:xlink="http://www.w3.org/1999/xlink" version="1.1" baseProfile="full" viewBox="0 0 200 200" width="200" height="200">
<g fill="black">
<path d="M 148.4 176.1 L 160.4 176.1 L 161.6 176.0 L 162.5 175.8 L 163.4 175.5 L 163.8 175.1 L 164.1 174.2 L 164.3 173.3 L 164.4 172.1 L 164.4 91.6 L 127.2 91.6 L 127.2 179.1 L 115.2 185.1 L 115.2 91.6 L 78.1 91.6 L 78.1 181.9 L 66.1 187.9 L 66.1 81.6 L 78.1 87.6 L 115.2 87.6 L 115.2 60.7 L 125.82900285720825 62.47150049209595 L 128.56820812225342 40.6 L 105.0 40.6 L 105.0 36.6 L 129.06917152404785 36.6 L 132.1 12.4 L 143.8 15.9 L 146.5 18.3 L 143.37218046188354 19.32255640029907 L 141.2125 36.6 L 165.0 36.6 L 175.0 26.6 L 187.0 36.6 L 187.0 40.6 L 140.7125 40.6 L 138.3 59.9 L 128.23212432861328 63.388082885742186 L 130.2 64.7 L 127.2 66.5 L 127.2 87.6 L 164.4 87.6 L 170.4 82.6 L 181.4 91.6 L 176.4 95.6 L 176.4 172.1 L 176.2 174.6 L 175.8 177.1 L 175.0 179.5 L 173.8 181.8 L 172.1 183.8 L 170.1 185.5 L 167.8 186.7 L 165.4 187.5 L 162.9 187.9 L 160.4 188.1 L 160.4 182.1 L 148.4 179.1 Z M 20.6 175.8 L 21.3 175.5 L 23.0 173.8 L 25.4 171.0 L 28.3 167.1 L 31.7 162.3 L 35.5 156.4 L 39.8 149.7 L 44.6 142.0 L 50.0 133.4 L 56.0 124.0 L 57.6 124.8 L 53.4 135.2 L 49.3 144.5 L 45.6 152.8 L 42.1 160.1 L 39.0 166.5 L 36.2 172.0 L 33.8 176.5 L 31.7 180.2 L 30.7832989692688 181.59917526245118 L 31.0 186.8 L 27.6 185.5 L 18.9 177.0 Z M 111.8 149.0 L 111.8 153.0 L 80.5 153.0 L 80.5 149.0 L 97.5777777671814 149.0 L 103.8 142.0 Z M 161.8 149.0 L 161.8 153.0 L 130.5 153.0 L 130.5 149.0 L 147.5777777671814 149.0 L 153.8 142.0 Z M 111.8 118.8 L 111.8 122.8 L 80.5 122.8 L 80.5 118.8 L 97.5777777671814 118.8 L 103.8 111.8 Z M 161.8 118.8 L 161.8 122.8 L 130.5 122.8 L 130.5 118.8 L 147.5777777671814 118.8 L 153.8 111.8 Z M 32.2 112.0 L 31.2 110.6 L 29.8 109.1 L 28.1 107.5 L 26.1 105.9 L 23.8 104.3 L 21.1 102.6 L 18.2 100.9 L 14.9 99.6 L 15.4 97.9 L 19.0 98.5 L 22.4 98.9 L 25.7 99.4 L 28.8 100.1 L 31.6 100.9 L 34.3 101.9 L 36.8 103.1 L 39.1 104.4 L 41.3 105.9 L 43.2 107.7 L 44.2 112.2 L 41.7 116.1 L 37.2 117.0 L 33.4 114.5 L 33.0 113.3 Z M 44.6 79.0 L 43.5 77.5 L 42.1 75.9 L 40.4 74.4 L 38.5 72.8 L 36.3 71.1 L 33.9 69.5 L 31.2 67.8 L 28.2 66.5 L 28.7 64.8 L 32.0 65.5 L 35.3 65.8 L 38.4 66.4 L 41.3 67.1 L 44.0 67.9 L 46.7 68.9 L 49.1 70.0 L 51.4 71.3 L 53.6 72.8 L 55.5 74.4 L 56.7 78.9 L 54.4 82.9 L 50.0 84.0 L 46.0 81.7 L 45.4 80.4 Z M 68.0 14.4 L 71.3 16.0 L 68.37518424987793 17.4014741897583 L 70.775 36.6 L 73.0 36.6 L 83.0 26.6 L 95.0 36.6 L 95.0 40.6 L 71.275 40.6 L 73.5 58.4 L 62.4 65.8 L 59.243930625915525 40.6 L 13.0 40.6 L 13.0 36.6 L 58.742967224121095 36.6 L 55.9 13.9 Z " />
</g>
</svg>
