<svg xmlns="http://www.w3.org/2000/svg" xmlns:xlink="http://www.w3.org/1999/xlink" version="1.1" baseProfile="full" viewBox="0 0 200 200" width="200" height="200">
<g fill="black">
<path d="M 151.0 176.0 L 163.0 176.0 L 164.2 175.9 L 165.1 175.7 L 166.0 175.4 L 166.4 175.0 L 166.7 174.1 L 166.9 173.2 L 167.0 172.0 L 167.0 159.70540542602538 L 164.1 161.9 L 159.6 161.1 L 156.9 157.5 L 156.2 153.5 L 155.5 149.7 L 154.6 146.0 L 153.7 142.6 L 152.7 139.4 L 151.7 136.3 L 150.5 133.4 L 149.4 130.5 L 149.12614002227784 129.9312138557434 L 146.9 136.9 L 144.2 143.7 L 141.3 149.9 L 138.0 155.7 L 134.4 160.9 L 130.5 165.27560977935792 L 130.5 179.0 L 118.5 185.0 L 118.5 82.0 L 81.2 82.0 L 81.2 166.9782608985901 L 83.3 161.5 L 85.4 155.3 L 87.4 148.9 L 89.3 142.3 L 90.9 135.3 L 92.4 128.0 L 93.7 120.3 L 94.8 112.4 L 95.7 104.0 L 96.23021516799926 96.40024967193604 L 96.2 96.4 L 96.5 93.2 L 108.3 96.5 L 111.1 98.8 L 107.73876266479492 100.38548927307129 L 107.0 105.5 L 105.4 114.1 L 103.6 122.3 L 102.33694419860839 127.05149555206299 L 103.7 128.1 L 106.2 130.4 L 108.4 132.9 L 110.5 135.7 L 112.3 138.6 L 114.0 141.7 L 115.6 144.9 L 116.9 148.3 L 118.0 151.9 L 117.0 156.4 L 113.2 158.9 L 108.8 157.9 L 106.2 154.1 L 106.0 150.9 L 105.6 147.9 L 105.1 144.9 L 104.4 142.0 L 103.6 139.1 L 102.7 136.3 L 101.6 133.5 L 100.93384618759156 131.945641040802 L 99.1 137.6 L 96.5 144.7 L 93.5 151.3 L 90.3 157.5 L 86.6 163.2 L 82.6 168.4 L 81.2 167.6125 L 81.2 182.0 L 69.2 188.0 L 69.2 72.0 L 81.2 78.0 L 167.0 78.0 L 173.0 73.0 L 184.0 82.0 L 179.0 86.0 L 179.0 172.0 L 178.8 174.5 L 178.4 177.0 L 177.6 179.4 L 176.4 181.7 L 174.7 183.7 L 172.7 185.3 L 170.4 186.6 L 168.0 187.4 L 165.5 187.8 L 163.0 188.0 L 163.0 182.0 L 151.0 179.0 Z M 13.7 176.5 L 17.8 171.5 L 21.9 166.0 L 26.1 160.3 L 30.4 154.2 L 34.7 147.9 L 39.0 141.2 L 43.4 134.2 L 48.0 126.9 L 52.7 119.3 L 57.6 111.6 L 59.3 112.3 L 56.1 121.0 L 52.7 129.4 L 49.2 137.3 L 45.6 144.9 L 42.0 152.1 L 38.3 159.1 L 34.6 165.7 L 30.8 172.0 L 27.1 178.0 L 25.593762588500976 180.29899396896363 L 26.9 184.0 L 23.3 183.8 L 12.5 178.1 Z M 130.5 82.0 L 130.5 160.40869569778442 L 131.1 159.0 L 133.2 153.3 L 135.2 147.4 L 137.1 141.1 L 138.7 134.5 L 140.2 127.5 L 141.5 120.1 L 142.6 112.2 L 143.5 104.0 L 144.03021516799927 96.40024967193604 L 144.0 96.4 L 144.3 93.2 L 156.1 96.5 L 158.8 98.8 L 155.49505777359008 100.38891458511353 L 154.7 105.5 L 153.2 114.0 L 151.3 122.1 L 150.25867767333983 125.86859502792359 L 150.3 125.9 L 152.9 127.9 L 155.3 130.3 L 157.6 132.9 L 159.7 135.9 L 161.7 139.2 L 163.6 142.7 L 165.4 146.4 L 167.0 150.4 L 167.0 82.0 Z M 36.2 89.1 L 34.5 86.6 L 32.4 84.1 L 29.9 81.6 L 27.0 79.1 L 23.7 76.6 L 20.1 74.1 L 16.0 71.5 L 11.5 69.1 L 12.1 67.4 L 17.2 68.6 L 22.0 69.8 L 26.5 71.4 L 30.7 73.1 L 34.6 75.1 L 38.1 77.3 L 41.4 79.8 L 44.3 82.4 L 46.9 85.4 L 49.2 88.6 L 49.5 93.1 L 46.5 96.6 L 42.0 96.9 L 38.5 94.0 L 37.5 91.5 Z M 48.0 40.0 L 46.0 37.5 L 43.7 35.1 L 41.1 32.7 L 38.1 30.4 L 34.9 28.0 L 31.3 25.7 L 27.5 23.3 L 23.2 21.1 L 23.8 19.4 L 28.6 20.4 L 33.2 21.4 L 37.5 22.8 L 41.6 24.3 L 45.4 26.1 L 49.0 28.0 L 52.4 30.2 L 55.5 32.6 L 58.3 35.2 L 60.9 38.1 L 61.08000001907349 39.0 L 92.61898307800293 39.0 L 90.5 12.4 L 102.6 13.5 L 105.7 15.2 L 102.84197463989258 16.50992832183838 L 104.65 39.0 L 106.5777777671814 39.0 L 112.8 32.0 L 120.8 39.0 L 120.8 43.0 L 104.97156858444214 43.0 L 106.7 64.5 L 95.2 71.4 L 92.93762712478637 43.0 L 61.54736843109131 43.0 L 59.4 46.4 L 54.9 47.3 L 51.0 44.9 L 49.6 42.4 Z M 158.3 14.4 L 161.1 16.7 L 158.0279320716858 17.784259223937987 L 156.32235298156738 39.0 L 166.4 39.0 L 176.4 29.0 L 188.4 39.0 L 188.4 43.0 L 156.00078430175782 43.0 L 154.2 65.4 L 141.7 70.5 L 143.9372880935669 43.0 L 128.1 43.0 L 128.1 39.0 L 144.2627119064331 39.0 L 146.5 11.5 Z " />
</g>
</svg>
