<svg xmlns="http://www.w3.org/2000/svg" xmlns:xlink="http://www.w3.org/1999/xlink" version="1.1" baseProfile="full" viewBox="0 0 200 200" width="200" height="200">
<g fill="black">
<path d="M 138.4 134.7 L 137.4 133.4 L 136.1 132.1 L 134.6 130.7 L 132.7 129.2 L 130.6 127.7 L 128.2 126.1 L 125.7 124.5 L 122.7 123.3 L 123.2 121.6 L 126.4 122.3 L 129.5 122.5 L 132.5 123.0 L 135.2 123.5 L 137.8 124.1 L 140.3 124.8 L 142.6 125.7 L 144.7 126.6 L 146.7 127.8 L 148.6 129.1 L 149.9 133.5 L 147.9 137.6 L 145.8692307472229 138.2 L 165.0 138.2 L 175.0 128.2 L 187.0 138.2 L 187.0 142.2 L 97.3875 142.2 L 92.2 150.5 L 84.7 159.1 L 75.8 166.7 L 65.6 173.2 L 54.1 178.4 L 41.3 182.4 L 27.2 185.0 L 12.0 186.2 L 11.9 184.4 L 26.5 181.3 L 39.7 177.3 L 51.4 172.4 L 61.7 166.6 L 70.5 160.0 L 77.9 152.7 L 83.9 144.8 L 85.32093019485474 142.2 L 13.0 142.2 L 13.0 138.2 L 87.5069766998291 138.2 L 88.6 136.2 L 91.9 127.0 L 93.71418914794921 118.2011824607849 L 93.7 118.2 L 94.2 115.3 L 105.7 119.2 L 108.4 121.6 L 104.65600004196168 123.09759998321533 L 102.7 130.4 L 99.35714282989503 138.2 L 142.06499996185303 138.2 L 139.4 136.9 L 139.1 135.9 Z M 160.6 177.8 L 155.9 174.6 L 150.4 171.3 L 144.0 168.0 L 136.9 164.8 L 129.0 161.5 L 120.3 158.1 L 110.9 154.7 L 100.7 151.1 L 101.1 149.4 L 111.8 151.0 L 121.8 153.0 L 131.0 155.2 L 139.5 157.6 L 147.3 160.2 L 154.4 162.9 L 160.8 165.8 L 166.5 168.9 L 171.6 172.1 L 176.0 175.6 L 177.8 179.9 L 176.1 184.1 L 171.8 185.8 L 167.6 184.2 L 164.5 181.0 Z M 50.1 119.7 L 38.1 125.7 L 38.1 72.67468357086182 L 32.6 77.2 L 24.1 83.4 L 15.2 89.1 L 14.1 87.7 L 21.7 80.4 L 29.0 73.2 L 36.0 66.0 L 38.1 63.677272701263426 L 38.1 63.1 L 38.45943393707275 63.27971696853638 L 42.6 58.7 L 48.9 51.4 L 54.7 44.0 L 60.2 36.4 L 65.3 28.8 L 70.0 21.0 L 73.80306987762451 14.101408195495605 L 73.8 14.1 L 74.8 12.2 L 84.7 19.1 L 86.4 22.3 L 82.6191475868225 22.364082241058348 L 79.6 27.1 L 74.1 34.9 L 70.68421049118042 39.3 L 122.8 39.3 L 122.97647056579589 39.152941131591795 L 124.3 37.3 L 124.73297300338746 37.68918914794922 L 128.8 34.3 L 139.8 43.3 L 134.8 46.3 L 129.4623999595642 48.523999977111814 L 128.8 49.1 L 126.2 51.3 L 123.3 53.7 L 120.1 56.2 L 116.7 59.0 L 113.0 61.9 L 109.0 65.0 L 104.6 68.2 L 103.391428565979 69.1 L 146.7 69.1 L 152.7 64.1 L 163.7 73.1 L 158.7 77.1 L 158.7 114.7 L 146.7 120.7 L 146.7 112.7 L 50.1 112.7 Z M 50.1 73.1 L 50.1 108.7 L 74.0 108.7 L 74.0 73.1 Z M 86.0 73.1 L 86.0 108.7 L 110.8 108.7 L 110.8 73.1 Z M 122.8 73.1 L 122.8 108.7 L 146.7 108.7 L 146.7 73.1 Z M 67.51891889572144 43.3 L 61.9 49.9 L 55.2 57.1 L 48.1 64.0 L 45.132380962371826 66.6161904335022 L 50.1 69.1 L 99.73999996185303 69.1 L 102.3 65.9 L 105.6 61.6 L 108.7 57.6 L 111.7 53.9 L 114.4 50.5 L 116.8 47.4 L 119.1 44.5 L 119.98888893127442 43.3 Z " />
</g>
</svg>
