<svg xmlns="http://www.w3.org/2000/svg" xmlns:xlink="http://www.w3.org/1999/xlink" version="1.1" baseProfile="full" viewBox="0 0 200 200" width="200" height="200">
<g fill="black">
<path d="M 151.0 176.0 L 163.0 176.0 L 164.2 175.9 L 165.1 175.7 L 166.0 175.4 L 166.4 175.0 L 166.7 174.1 L 166.9 173.2 L 167.0 172.0 L 167.0 82.0 L 130.5 82.0 L 130.5 179.0 L 118.5 185.0 L 118.5 82.0 L 81.2 82.0 L 81.2 182.0 L 69.2 188.0 L 69.2 72.0 L 81.2 78.0 L 167.0 78.0 L 173.0 73.0 L 184.0 82.0 L 179.0 86.0 L 179.0 172.0 L 178.8 174.5 L 178.4 177.0 L 177.6 179.4 L 176.4 181.7 L 174.7 183.7 L 172.7 185.3 L 170.4 186.6 L 168.0 187.4 L 165.5 187.8 L 163.0 188.0 L 163.0 182.0 L 151.0 179.0 Z M 13.7 176.5 L 17.8 171.5 L 21.9 166.0 L 26.1 160.3 L 30.4 154.2 L 34.7 147.9 L 39.0 141.2 L 43.4 134.2 L 48.0 126.9 L 52.7 119.3 L 57.6 111.6 L 59.3 112.3 L 56.1 121.0 L 52.7 129.4 L 49.2 137.3 L 45.6 144.9 L 42.0 152.1 L 38.3 159.1 L 34.6 165.7 L 30.8 172.0 L 27.1 178.0 L 25.593762588500976 180.29899396896363 L 26.9 184.0 L 23.3 183.8 L 12.5 178.1 Z M 83.3 151.6 L 96.1 143.6 L 99.4 141.7 L 102.7 139.7 L 109.5 135.9 L 113.1 134.1 L 116.5 132.2 L 117.7 133.7 L 115.0 136.5 L 112.4 139.5 L 109.7 142.4 L 107.0 145.2 L 98.9 153.3 L 96.1 155.9 L 93.81528444290161 158.10009641647338 L 94.1 162.2 L 90.7 161.1 L 81.8 152.8 Z M 153.4 155.3 L 152.1 153.4 L 150.4 151.3 L 148.3 149.0 L 145.7 146.6 L 142.7 144.0 L 139.4 141.2 L 135.7 138.1 L 131.5 135.2 L 132.4 133.6 L 137.1 135.6 L 141.7 137.4 L 145.8 139.2 L 149.5 141.0 L 152.9 142.8 L 156.0 144.6 L 158.7 146.4 L 161.1 148.3 L 163.3 150.3 L 165.1 152.5 L 165.5 157.0 L 162.6 160.6 L 158.1 161.0 L 154.5 158.1 L 154.2 156.9 Z M 104.2 116.6 L 103.5 114.9 L 102.4 113.0 L 100.9 110.9 L 99.1 108.7 L 96.9 106.2 L 91.5 100.8 L 88.1 98.2 L 89.0 96.7 L 92.9 98.6 L 96.7 100.2 L 100.1 101.9 L 103.2 103.6 L 106.0 105.3 L 108.5 107.1 L 110.8 108.9 L 112.8 110.8 L 114.5 112.9 L 116.0 115.2 L 115.6 119.8 L 112.2 122.8 L 107.6 122.4 L 104.6 119.0 L 104.6 118.0 Z M 162.7 103.2 L 163.1 106.8 L 158.88255319595336 105.26638298034668 L 156.7 106.5 L 154.2 108.0 L 151.3 109.7 L 148.1 111.5 L 144.6 113.5 L 140.8 115.7 L 136.7 118.0 L 132.4 120.7 L 131.2 119.2 L 134.9 115.7 L 138.1 112.2 L 141.1 109.1 L 143.9 106.2 L 146.5 103.5 L 148.7 101.2 L 150.8 99.0 L 152.5 97.1 L 154.0 95.4 L 154.5312252998352 94.73596839904785 L 154.4 94.6 L 155.3 93.8 Z M 36.2 89.1 L 34.5 86.6 L 32.4 84.1 L 29.9 81.6 L 27.0 79.1 L 23.7 76.6 L 20.1 74.1 L 16.0 71.5 L 11.5 69.1 L 12.1 67.4 L 17.2 68.6 L 22.0 69.8 L 26.5 71.4 L 30.7 73.1 L 34.6 75.1 L 38.1 77.3 L 41.4 79.8 L 44.3 82.4 L 46.9 85.4 L 49.2 88.6 L 49.5 93.1 L 46.5 96.6 L 42.0 96.9 L 38.5 94.0 L 37.5 91.5 Z M 48.0 40.0 L 46.0 37.5 L 43.7 35.1 L 41.1 32.7 L 38.1 30.4 L 34.9 28.0 L 31.3 25.7 L 27.5 23.3 L 23.2 21.1 L 23.8 19.4 L 28.6 20.4 L 33.2 21.4 L 37.5 22.8 L 41.6 24.3 L 45.4 26.1 L 49.0 28.0 L 52.4 30.2 L 55.5 32.6 L 58.3 35.2 L 60.9 38.1 L 61.08000001907349 39.0 L 97.9 39.0 L 97.9 12.0 L 109.9 14.0 L 112.9 16.0 L 109.9 17.8 L 109.9 39.0 L 139.0 39.0 L 139.0 12.0 L 151.0 14.0 L 154.0 16.0 L 151.0 17.8 L 151.0 39.0 L 166.4 39.0 L 176.4 29.0 L 188.4 39.0 L 188.4 43.0 L 151.0 43.0 L 151.0 65.0 L 139.0 71.0 L 139.0 43.0 L 109.9 43.0 L 109.9 65.0 L 97.9 71.0 L 97.9 43.0 L 61.54736843109131 43.0 L 59.4 46.4 L 54.9 47.3 L 51.0 44.9 L 49.6 42.4 Z " />
</g>
</svg>
