<svg xmlns="http://www.w3.org/2000/svg" xmlns:xlink="http://www.w3.org/1999/xlink" version="1.1" baseProfile="full" viewBox="0 0 200 200" width="200" height="200">
<g fill="black">
<path d="M 149.2 175.6 L 161.2 175.6 L 162.4 175.5 L 163.3 175.3 L 163.9 175.1 L 164.3 175.0 L 164.5 174.8 L 164.6 174.6 L 164.8 174.3 L 165.0 173.7 L 165.1 172.8 L 165.2 171.6 L 165.2 74.2 L 128.2 74.2 L 128.2 178.8 L 117.2 184.3 L 117.2 74.2 L 80.1 74.2 L 80.1 181.4 L 68.1 187.4 L 68.1 64.2 L 80.1 70.2 L 165.2 70.2 L 171.2 65.2 L 182.2 74.2 L 177.2 78.2 L 177.2 171.6 L 177.1 174.1 L 176.6 176.6 L 175.8 179.0 L 174.6 181.3 L 172.9 183.3 L 170.9 185.0 L 168.7 186.2 L 166.3 187.0 L 163.8 187.4 L 161.2 187.6 L 161.2 181.6 L 149.2 178.6 Z M 21.8 175.7 L 22.6 175.3 L 24.6 173.6 L 27.2 170.8 L 30.3 166.9 L 34.0 162.1 L 38.2 156.3 L 42.9 149.5 L 48.2 141.9 L 54.1 133.3 L 60.6 123.9 L 62.2 124.8 L 57.4 135.2 L 52.8 144.6 L 48.6 152.9 L 44.7 160.3 L 41.1 166.7 L 38.0 172.2 L 35.3 176.7 L 32.9 180.4 L 31.671171188354492 182.07567567825316 L 31.6 187.2 L 28.3 185.8 L 20.1 176.8 Z M 148.5 153.9 L 147.4 151.3 L 146.1 148.7 L 144.5 146.0 L 142.6 143.3 L 140.5 140.5 L 138.2 137.7 L 135.7 134.8 L 132.7 132.1 L 133.7 130.6 L 137.3 132.5 L 141.0 134.3 L 144.3 136.3 L 147.4 138.5 L 150.3 140.9 L 153.0 143.4 L 155.4 146.0 L 157.6 148.8 L 159.5 151.7 L 161.2 154.8 L 161.0 159.4 L 157.7 162.5 L 153.1 162.3 L 150.0 158.9 L 149.3 156.4 Z M 104.6 94.4 L 107.3 96.4 L 104.6 98.12340421676636 L 104.6 156.9 L 93.6 162.4 L 93.6 92.4 Z M 161.5 97.7 L 163.3 100.9 L 159.08074655532837 101.11453828811645 L 157.3 103.3 L 154.8 106.0 L 152.2 108.5 L 149.5 110.9 L 146.5 113.2 L 143.4 115.3 L 140.0 117.3 L 136.4 119.0 L 132.9 120.9 L 131.9 119.4 L 134.7 116.7 L 137.3 113.8 L 139.6 111.0 L 141.8 108.3 L 143.8 105.5 L 145.6 102.8 L 147.2 100.2 L 148.6 97.5 L 149.8 94.8 L 150.44644355773926 93.11924686431885 L 150.4 93.1 L 150.63333330154418 92.63333330154418 L 150.8 92.2 L 150.83977699279785 92.22044610977173 L 151.4 91.1 Z M 34.8 112.2 L 33.5 110.8 L 31.9 109.2 L 29.9 107.6 L 27.6 106.0 L 24.9 104.4 L 21.9 102.7 L 18.6 100.9 L 14.9 99.6 L 15.3 97.8 L 19.3 98.5 L 23.1 98.8 L 26.7 99.3 L 30.1 100.0 L 33.2 100.8 L 36.1 101.8 L 38.8 102.9 L 41.3 104.2 L 43.6 105.8 L 45.7 107.6 L 46.9 112.0 L 44.6 116.0 L 40.2 117.1 L 36.2 114.9 L 35.7 113.6 Z M 48.5 79.2 L 47.1 77.7 L 45.5 76.1 L 43.6 74.5 L 41.3 72.9 L 38.8 71.2 L 36.1 69.6 L 33.0 67.8 L 29.6 66.5 L 30.0 64.7 L 33.7 65.4 L 37.3 65.7 L 40.7 66.3 L 43.9 67.0 L 46.9 67.8 L 49.8 68.8 L 52.4 69.9 L 54.9 71.2 L 57.2 72.6 L 59.4 74.3 L 60.7 78.7 L 58.7 82.8 L 54.3 84.1 L 50.2 82.1 L 49.5 80.7 Z M 68.0 14.4 L 71.3 16.0 L 68.37518424987793 17.4014741897583 L 70.775 36.6 L 73.0 36.6 L 83.0 26.6 L 95.0 36.6 L 95.0 40.6 L 71.275 40.6 L 73.5 58.4 L 62.4 65.8 L 59.243930625915525 40.6 L 13.0 40.6 L 13.0 36.6 L 58.742967224121095 36.6 L 55.9 13.9 Z M 143.8 15.9 L 146.5 18.3 L 143.37218046188354 19.32255640029907 L 141.2125 36.6 L 165.0 36.6 L 175.0 26.6 L 187.0 36.6 L 187.0 40.6 L 140.7125 40.6 L 138.3 59.9 L 125.6 64.3 L 128.56820812225342 40.6 L 105.0 40.6 L 105.0 36.6 L 129.06917152404785 36.6 L 132.1 12.4 Z " />
</g>
</svg>
