<svg xmlns="http://www.w3.org/2000/svg" xmlns:xlink="http://www.w3.org/1999/xlink" version="1.1" baseProfile="full" viewBox="0 0 200 200" width="200" height="200">
<g fill="black">
<path d="M 92.8 109.6 L 95.6 111.9 L 92.09611587524414 113.4866644859314 L 90.5 122.3 L 87.0 133.9 L 82.3 144.6 L 76.4 154.2 L 69.4 162.8 L 61.2 170.2 L 52.0 176.4 L 41.7 181.4 L 30.4 185.3 L 18.2 187.8 L 17.7 186.1 L 29.2 181.7 L 39.4 176.6 L 48.4 170.9 L 56.3 164.4 L 63.0 157.1 L 68.6 149.1 L 71.07876472473144 144.30412912368774 L 48.0 148.7916666984558 L 48.0 150.0 L 36.0 156.0 L 36.0 117.0 L 48.0 119.0 L 51.0 121.0 L 48.0 122.8 L 48.0 144.7555555343628 L 73.33777780532837 139.82876539230347 L 76.8 130.5 L 79.3 119.9 L 80.88918914794922 108.37837839126587 L 81.1 106.2 Z M 180.0 147.0 L 182.0 147.0 L 180.0 172.0 L 183.6 174.4 L 186.0 178.0 L 183.6 181.6 L 180.0 184.0 L 121.0 184.0 L 118.4 183.8 L 115.9 183.4 L 113.5 182.6 L 111.2 181.3 L 109.2 179.7 L 107.6 177.7 L 106.3 175.4 L 105.5 173.0 L 105.1 170.5 L 105.0 168.0 L 105.0 106.0 L 117.0 108.0 L 120.0 110.0 L 117.0 111.8 L 117.0 121.0 L 152.0 121.0 L 158.0 116.0 L 169.0 125.0 L 164.0 129.0 L 164.0 154.0 L 152.0 160.0 L 152.0 150.0 L 117.0 150.0 L 117.0 169.2 L 117.2 170.1 L 117.5 171.0 L 117.9 171.4 L 118.8 171.7 L 119.7 171.9 L 121.0 172.0 L 174.0 172.0 Z M 117.0 125.0 L 117.0 146.0 L 152.0 146.0 L 152.0 125.0 Z M 39.0 109.0 L 39.0 20.0 L 51.0 26.0 L 148.0 26.0 L 154.0 21.0 L 165.0 30.0 L 160.0 34.0 L 160.0 105.0 L 148.0 111.0 L 148.0 103.0 L 51.0 103.0 Z M 51.0 66.0 L 51.0 99.0 L 94.0 99.0 L 94.0 66.0 Z M 106.0 66.0 L 106.0 99.0 L 148.0 99.0 L 148.0 66.0 Z M 51.0 30.0 L 51.0 62.0 L 94.0 62.0 L 94.0 30.0 Z M 106.0 30.0 L 106.0 62.0 L 148.0 62.0 L 148.0 30.0 Z " />
</g>
</svg>
