<svg xmlns="http://www.w3.org/2000/svg" xmlns:xlink="http://www.w3.org/1999/xlink" version="1.1" baseProfile="full" viewBox="0 0 200 200" width="200" height="200">
<g fill="black">
<path d="M 145.0 177.0 L 163.0 177.0 L 164.3 176.9 L 165.2 176.7 L 166.1 176.4 L 166.3 176.2 L 166.4 176.0 L 166.6 175.7 L 166.8 175.1 L 167.0 174.2 L 167.0 106.0 L 131.5 106.0 L 131.5 179.0 L 119.5 185.0 L 119.5 106.0 L 82.4 106.0 L 82.4 182.0 L 70.4 188.0 L 70.4 96.0 L 82.4 102.0 L 119.5 102.0 L 119.5 79.0 L 105.0 79.0 L 105.0 86.0 L 93.0 92.0 L 93.0 50.0 L 64.3 50.0 L 64.3 46.0 L 93.0 46.0 L 93.0 12.0 L 105.0 14.0 L 108.0 16.0 L 105.0 17.8 L 105.0 46.0 L 144.4 46.0 L 144.4 12.0 L 156.4 14.0 L 159.4 16.0 L 156.4 17.8 L 156.4 46.0 L 165.4 46.0 L 175.4 36.0 L 187.4 46.0 L 187.4 50.0 L 156.4 50.0 L 156.4 83.0 L 144.4 89.0 L 144.4 79.0 L 131.5 79.0 L 131.5 102.0 L 167.0 102.0 L 173.0 97.0 L 184.0 106.0 L 179.0 110.0 L 179.0 173.0 L 178.9 175.5 L 178.4 178.0 L 177.6 180.4 L 176.4 182.7 L 174.8 184.7 L 172.7 186.3 L 170.5 187.6 L 168.1 188.4 L 165.6 188.8 L 163.0 189.0 L 163.0 183.0 L 145.0 180.0 Z M 13.7 176.5 L 17.8 171.5 L 21.9 166.0 L 26.1 160.3 L 30.4 154.2 L 34.7 147.9 L 39.0 141.2 L 43.4 134.2 L 48.0 126.9 L 52.7 119.3 L 57.6 111.6 L 59.3 112.3 L 56.1 121.0 L 52.7 129.4 L 49.2 137.3 L 45.6 144.9 L 42.0 152.1 L 38.3 159.1 L 34.6 165.7 L 30.8 172.0 L 27.1 178.0 L 25.593762588500976 180.29899396896363 L 26.9 184.0 L 23.3 183.8 L 12.5 178.1 Z M 163.9 121.0 L 166.0 123.9 L 161.88204078674318 124.69469385147094 L 161.5 125.4 L 160.0 128.4 L 158.2 131.8 L 156.2 135.7 L 154.0 140.1 L 151.5 145.0 L 148.7 150.3 L 145.6 156.1 L 142.1 162.3 L 140.5 161.6 L 142.3 154.7 L 144.0 148.4 L 145.6 142.6 L 147.1 137.4 L 148.5 132.7 L 149.7 128.5 L 150.7 124.8 L 151.6 121.6 L 152.2 118.9 L 152.48023252487184 117.72302322387695 L 152.4 117.7 L 152.6716980934143 116.91886796951295 L 152.7 116.8 L 152.7115385055542 116.80432691574097 L 153.2 115.4 Z M 98.0 148.1 L 97.2 143.8 L 96.3 139.7 L 95.2 135.7 L 94.1 131.8 L 93.0 128.0 L 91.7 124.4 L 90.5 120.8 L 89.1 117.3 L 90.5 116.2 L 93.3 119.0 L 96.0 122.0 L 98.4 125.3 L 100.7 128.9 L 102.8 132.7 L 104.8 136.7 L 106.6 140.9 L 108.2 145.4 L 109.8 150.0 L 111.1 154.9 L 110.2 159.3 L 106.4 161.9 L 101.9 160.9 L 99.4 157.2 L 98.7 152.5 Z M 36.2 89.1 L 34.5 86.6 L 32.4 84.1 L 29.9 81.6 L 27.0 79.1 L 23.7 76.6 L 20.1 74.1 L 16.0 71.5 L 11.5 69.1 L 12.1 67.4 L 17.2 68.6 L 22.0 69.8 L 26.5 71.4 L 30.7 73.1 L 34.6 75.1 L 38.1 77.3 L 41.4 79.8 L 44.3 82.4 L 46.9 85.4 L 49.2 88.6 L 49.5 93.1 L 46.5 96.6 L 42.0 96.9 L 38.5 94.0 L 37.5 91.5 Z M 105.0 50.0 L 105.0 75.0 L 144.4 75.0 L 144.4 50.0 Z M 48.0 40.0 L 46.0 37.5 L 43.7 35.1 L 41.1 32.7 L 38.1 30.4 L 34.9 28.0 L 31.3 25.7 L 27.5 23.3 L 23.2 21.1 L 23.8 19.4 L 28.6 20.4 L 33.2 21.4 L 37.5 22.8 L 41.6 24.3 L 45.4 26.1 L 49.0 28.0 L 52.4 30.2 L 55.5 32.6 L 58.3 35.2 L 60.9 38.1 L 61.8 42.6 L 59.4 46.4 L 54.9 47.3 L 51.0 44.9 L 49.6 42.4 Z " />
</g>
</svg>
