<svg xmlns="http://www.w3.org/2000/svg" xmlns:xlink="http://www.w3.org/1999/xlink" version="1.1" baseProfile="full" viewBox="0 0 200 200" width="200" height="200">
<g fill="black">
<path d="M 45.0 23.0 L 161.0 23.0 L 167.0 18.0 L 178.0 27.0 L 173.0 31.0 L 173.0 58.0 L 179.0 62.0 L 179.0 66.0 L 45.0 66.0 L 45.0 87.0 L 44.4 99.7 L 43.3 111.8 L 41.7 123.3 L 39.5 134.2 L 36.8 144.5 L 33.6 154.1 L 29.7 163.1 L 25.4 171.4 L 20.3 178.8 L 14.7 185.5 L 13.2 184.4 L 17.1 176.9 L 20.6 169.0 L 23.7 160.6 L 26.3 151.8 L 28.6 142.4 L 30.4 132.5 L 31.7 122.0 L 32.6 110.9 L 33.0 99.2 L 33.0 17.0 Z M 38.5 173.5 L 103.5 173.5 L 103.5 119.4 L 49.2 119.4 L 49.2 115.4 L 103.5 115.4 L 103.5 74.2 L 115.5 76.2 L 118.5 78.2 L 115.5 80.0 L 115.5 115.4 L 147.7 115.4 L 157.7 105.4 L 169.7 115.4 L 169.7 119.4 L 115.5 119.4 L 115.5 173.5 L 158.4 173.5 L 168.4 163.5 L 180.4 173.5 L 180.4 177.5 L 38.5 177.5 Z M 45.0 27.0 L 45.0 62.0 L 161.0 62.0 L 161.0 27.0 Z " />
</g>
</svg>
