<svg xmlns="http://www.w3.org/2000/svg" xmlns:xlink="http://www.w3.org/1999/xlink" version="1.1" baseProfile="full" viewBox="0 0 200 200" width="200" height="200">
<g fill="black">
<path d="M 146.8 186.5 L 133.4 182.7 L 121.2 178.3 L 110.3 173.1 L 106.81954183578492 170.99722318649293 L 100.0 174.6 L 88.1 179.5 L 74.7 183.6 L 59.9 186.9 L 43.7 189.4 L 26.1 191.1 L 25.8 189.3 L 43.1 185.7 L 58.7 181.7 L 72.8 177.3 L 85.3 172.4 L 96.2 167.1 L 98.54497346878051 165.61232862472534 L 92.4 160.8 L 85.5 153.6 L 80.2 145.7 L 79.4876145362854 144.01797885894774 L 76.4 148.5 L 69.0 156.8 L 60.3 164.3 L 50.4 171.1 L 39.3 177.3 L 26.9 182.6 L 13.3 187.2 L 12.6 185.5 L 25.3 179.2 L 36.7 172.6 L 46.7 165.7 L 55.5 158.5 L 62.8 150.9 L 68.9 143.0 L 73.7 134.7 L 75.33255815505981 130.8 L 18.0 130.8 L 18.0 126.8 L 77.0069766998291 126.8 L 77.3 126.1 L 79.7 117.1 L 80.87575759887696 107.7919192314148 L 81.1 105.4 L 92.8 108.7 L 95.6 111.0 L 92.06625385284424 112.6989164352417 L 90.8 119.6 L 88.4233009338379 126.8 L 160.0 126.8 L 170.0 116.8 L 182.0 126.8 L 182.0 130.8 L 86.95 130.8 L 82.6 139.5 L 81.6627589225769 140.86051120758057 L 83.6 143.3 L 89.8 149.5 L 96.9 155.2 L 105.1 160.2 L 106.11639633178712 160.69715032577514 L 113.1 155.0 L 119.2 148.3 L 123.8 141.3 L 126.6096586227417 134.8026644706726 L 126.6 134.8 L 127.5 132.5 L 138.2 138.0 L 140.4 140.9 L 136.32252864837648 141.67331352233887 L 133.6 147.0 L 127.4 155.2 L 119.7 162.5 L 115.81304349899293 165.27639751434327 L 124.8 168.7 L 136.4 172.1 L 149.3 174.9 L 163.3 177.2 L 178.7 178.8 L 189.1 179.9 L 177.2 192.0 L 161.4 189.5 Z M 140.1 121.0 L 138.9 119.8 L 137.2 118.5 L 135.0 117.1 L 132.5 115.6 L 129.6 114.1 L 126.3 112.6 L 122.6 110.9 L 118.5 109.7 L 118.8 107.9 L 123.2 108.4 L 127.3 108.6 L 131.0 109.0 L 134.5 109.5 L 137.7 110.0 L 140.6 110.7 L 143.3 111.4 L 145.7 112.4 L 148.0 113.5 L 150.1 115.0 L 151.5 119.3 L 149.6 123.4 L 145.2 124.8 L 141.1 122.9 L 140.9 122.1 Z M 50.1 108.2 L 38.1 114.2 L 38.1 66.41000003814698 L 32.4 70.4 L 24.0 75.6 L 15.2 80.5 L 14.2 79.0 L 21.8 72.5 L 29.2 66.1 L 36.2 59.8 L 38.1 57.95757579803467 L 38.1 56.7 L 38.955670070648196 57.12783508300781 L 42.8 53.4 L 49.1 47.0 L 54.9 40.5 L 60.4 33.9 L 65.5 27.2 L 70.1 20.5 L 74.4 13.6 L 74.42133502960205 13.613730430603027 L 74.9 12.8 L 84.5 20.1 L 85.9 23.5 L 82.11787605285645 23.3695818901062 L 79.4 27.1 L 73.9 33.9 L 71.39696969985962 36.7 L 122.8 36.7 L 122.95 36.575 L 123.1 36.4 L 124.6 34.4 L 125.02792692184448 34.84339418411255 L 128.8 31.7 L 139.8 40.7 L 134.8 43.7 L 128.1020408630371 46.490816307067874 L 125.9 48.1 L 123.0 50.1 L 119.9 52.3 L 116.5 54.6 L 112.8 57.1 L 108.8 59.7 L 104.4 62.4 L 103.93448276519776 62.7 L 146.7 62.7 L 152.7 57.7 L 163.7 66.7 L 158.7 70.7 L 158.7 101.2 L 146.7 107.2 L 146.7 101.2 L 50.1 101.2 Z M 50.1 66.7 L 50.1 97.2 L 74.0 97.2 L 74.0 66.7 Z M 86.0 66.7 L 86.0 97.2 L 110.8 97.2 L 110.8 66.7 Z M 122.8 66.7 L 122.8 97.2 L 146.7 97.2 L 146.7 66.7 Z M 67.803125 40.7 L 61.7 46.9 L 55.0 53.1 L 47.9 59.1 L 45.9158730506897 60.607936477661134 L 50.1 62.7 L 99.90249996185302 62.7 L 102.4 60.0 L 105.7 56.1 L 108.9 52.6 L 111.9 49.3 L 114.6 46.3 L 117.1 43.4 L 119.4 40.9 L 119.5583333015442 40.7 Z " />
</g>
</svg>
