<svg xmlns="http://www.w3.org/2000/svg" xmlns:xlink="http://www.w3.org/1999/xlink" version="1.1" baseProfile="full" viewBox="0 0 200 200" width="200" height="200">
<g fill="black">
<path d="M 111.4 183.8 L 108.9 183.4 L 106.5 182.6 L 104.2 181.3 L 102.2 179.7 L 100.6 177.7 L 99.3 175.4 L 98.5 173.0 L 98.1 170.5 L 98.0 168.0 L 98.0 104.39558820724487 L 96.7 108.2 L 88.4 126.3 L 78.6 142.7 L 67.3 157.1 L 54.4 169.7 L 40.1 180.2 L 24.3 188.7 L 23.5 187.2 L 37.9 177.1 L 50.8 165.7 L 62.2 152.9 L 72.2 138.5 L 80.8 122.6 L 88.0 105.0 L 90.609974193573 96.31508579254151 L 85.1 98.7 L 78.6 101.3 L 72.4 103.6 L 66.5 105.6 L 60.9 107.5 L 55.6 109.2 L 50.6 110.8 L 45.9 112.2 L 41.552786350250244 113.48440399169922 L 40.0 117.2 L 37.5 114.6 L 33.2 103.3 L 35.2 102.9 L 39.2 102.4 L 40.524295043945315 102.18931674957275 L 42.2 94.9 L 44.3 86.4 L 46.3 78.0 L 48.2 69.6 L 49.9 61.4 L 51.5 53.2 L 52.9 45.1 L 54.2 37.0 L 55.3 29.0 L 56.1 21.1 L 56.13271026611328 21.10467290878296 L 56.4 19.1 L 68.0 22.8 L 70.7 25.2 L 67.29371690750122 26.61392879486084 L 66.5 30.9 L 64.7 39.0 L 62.8 47.2 L 60.6 55.3 L 58.1 63.5 L 55.5 71.7 L 52.6 79.9 L 49.4 88.1 L 45.8 96.2 L 43.11467638015747 101.77721061706544 L 43.6 101.7 L 48.3 101.0 L 53.4 100.2 L 58.8 99.3 L 64.6 98.3 L 70.7 97.2 L 77.2 96.1 L 84.1 95.1 L 91.27458696365356 94.10352954864501 L 93.8 85.7 L 98.2 64.7 L 101.1 42.1 L 102.6 17.7 L 102.63026485443115 17.701261043548584 L 102.7 15.4 L 114.6 18.2 L 117.5 20.3 L 114.26002464294433 22.078810024261475 L 112.4 43.3 L 108.7 66.7 L 103.5 88.3 L 101.03755941390992 95.50625991821289 L 110.0 97.0 L 113.0 99.0 L 110.0 100.8 L 110.0 169.2 L 110.2 170.1 L 110.5 171.0 L 110.9 171.4 L 111.8 171.7 L 112.7 171.9 L 114.0 172.0 L 168.0 172.0 L 174.0 147.0 L 176.0 147.0 L 174.0 172.0 L 177.6 174.4 L 180.0 178.0 L 177.6 181.6 L 174.0 184.0 L 114.0 184.0 Z " />
</g>
</svg>
