<svg xmlns="http://www.w3.org/2000/svg" xmlns:xlink="http://www.w3.org/1999/xlink" version="1.1" baseProfile="full" viewBox="0 0 200 200" width="200" height="200">
<g fill="black">
<path d="M 36.0 26.0 L 164.0 26.0 L 170.0 21.0 L 181.0 30.0 L 176.0 34.0 L 176.0 178.0 L 164.0 184.0 L 164.0 174.0 L 36.0 174.0 L 36.0 181.0 L 24.0 187.0 L 24.0 20.0 Z M 36.0 30.0 L 36.0 170.0 L 164.0 170.0 L 164.0 30.0 Z M 131.5 154.1 L 127.5 150.1 L 123.2 146.1 L 118.5 142.2 L 113.6 138.4 L 108.2 134.6 L 102.6 130.9 L 96.7 127.1 L 96.0328007698059 126.68031015396119 L 95.0 128.0 L 88.8 134.8 L 81.9 141.4 L 74.2 148.0 L 65.8 154.4 L 56.5 160.7 L 46.5 166.7 L 45.4 165.2 L 54.2 157.6 L 62.4 150.3 L 69.8 143.1 L 76.5 136.1 L 82.5 129.1 L 87.7 122.3 L 92.1 115.5 L 95.8 108.9 L 98.7 102.4 L 100.67030038833619 96.91742486953736 L 100.6 96.9 L 101.5 94.5 L 112.3 99.8 L 114.5 102.7 L 110.67585382461547 103.50508337020874 L 109.1 107.1 L 105.1 114.1 L 100.4 121.1 L 98.4114200592041 123.64096326828003 L 105.1 126.1 L 111.5 128.9 L 117.6 132.0 L 123.4 135.2 L 128.8 138.7 L 134.0 142.5 L 138.9 146.4 L 143.4 150.5 L 147.6 154.8 L 148.9 159.2 L 146.9 163.3 L 142.5 164.6 L 138.4 162.5 L 135.1 158.3 Z M 131.4 92.2 L 127.4 87.9 L 123.1 83.7 L 118.5 79.6 L 113.5 75.6 L 108.2 71.7 L 102.6 67.9 L 96.7 64.1 L 96.61252202987671 64.04497356414795 L 94.9 66.1 L 88.7 72.6 L 81.8 78.9 L 74.1 85.2 L 65.7 91.2 L 56.5 97.1 L 46.4 102.7 L 45.5 101.2 L 54.3 94.0 L 62.4 87.0 L 69.9 80.2 L 76.6 73.4 L 82.5 66.8 L 87.7 60.2 L 92.1 53.8 L 95.8 47.4 L 98.8 41.1 L 100.67371473312377 35.81953125 L 100.6 35.8 L 101.5 33.4 L 112.3 38.9 L 114.4 41.8 L 110.64282569885253 42.52506875991821 L 109.1 45.9 L 105.1 52.8 L 100.4 59.5 L 99.19739780426025 60.943122673034665 L 105.1 63.2 L 111.6 66.1 L 117.7 69.3 L 123.5 72.8 L 129.0 76.5 L 134.2 80.5 L 139.1 84.7 L 143.6 89.2 L 147.9 93.9 L 149.0 98.3 L 146.8 102.3 L 142.4 103.5 L 138.4 101.2 L 135.0 96.7 Z " />
</g>
</svg>
