<svg xmlns="http://www.w3.org/2000/svg" xmlns:xlink="http://www.w3.org/1999/xlink" version="1.1" baseProfile="full" viewBox="0 0 200 200" width="200" height="200">
<g fill="black">
<path d="M 168.0 94.0 L 171.0 96.0 L 168.0 97.8 L 168.0 179.0 L 156.0 185.0 L 156.0 175.0 L 43.0 175.0 L 43.0 182.0 L 31.0 188.0 L 31.0 92.0 L 43.0 94.0 L 46.0 96.0 L 43.0 97.8 L 43.0 171.0 L 156.0 171.0 L 156.0 92.0 Z M 59.0 151.0 L 93.0 151.0 L 93.0 114.0 L 49.0 114.0 L 49.0 110.0 L 93.0 110.0 L 93.0 90.0 L 105.0 92.0 L 108.0 94.0 L 105.0 95.8 L 105.0 110.0 L 130.0 110.0 L 140.0 100.0 L 152.0 110.0 L 152.0 114.0 L 105.0 114.0 L 105.0 151.0 L 121.0 151.0 L 131.0 141.0 L 143.0 151.0 L 143.0 155.0 L 59.0 155.0 Z M 48.4 77.4 L 46.8 74.2 L 45.0 71.1 L 43.1 68.0 L 41.0 65.0 L 38.8 62.0 L 36.4 59.1 L 34.0 56.1 L 31.2 53.3 L 31.857370471954347 52.40358562469483 L 31.6 52.6 L 30.3 51.3 L 33.1 47.5 L 35.7 43.6 L 38.2 40.0 L 40.7 36.5 L 43.0 33.0 L 45.2 29.7 L 47.2 26.5 L 49.1 23.4 L 50.8 20.4 L 51.92183904647827 18.36666669845581 L 51.8 18.3 L 52.9 16.7 L 62.4 24.1 L 63.8 27.4 L 59.69282293319702 27.258373165130614 L 57.6 29.7 L 54.9 32.5 L 52.1 35.4 L 49.1 38.3 L 46.0 41.1 L 42.7 44.0 L 39.2 46.9 L 35.4 49.7 L 32.50588903427124 51.90866365432739 L 35.9 53.7 L 39.4 55.6 L 42.8 57.8 L 46.0 60.2 L 49.1 62.8 L 52.0 65.6 L 54.7 68.6 L 57.3 71.8 L 59.7 75.1 L 62.0 78.6 L 62.2 83.1 L 59.3 86.6 L 54.7 86.9 L 51.2 84.0 L 49.9 80.6 Z M 100.4 77.4 L 98.7 74.2 L 96.9 71.1 L 94.9 68.1 L 92.7 65.1 L 90.3 62.1 L 87.8 59.1 L 85.2 56.1 L 82.3 53.3 L 82.92258062362671 52.36612901687622 L 82.6 52.6 L 81.3 51.3 L 84.3 47.4 L 87.1 43.6 L 89.8 39.9 L 92.4 36.4 L 94.8 33.0 L 97.0 29.7 L 99.1 26.5 L 101.1 23.4 L 102.8 20.4 L 103.92183904647827 18.36666669845581 L 103.8 18.3 L 104.9 16.7 L 114.4 24.1 L 115.8 27.4 L 111.69110851287842 27.25831413269043 L 109.5 29.8 L 106.8 32.6 L 103.9 35.5 L 100.8 38.3 L 97.6 41.2 L 94.2 44.1 L 90.5 47.0 L 86.6 49.7 L 83.54143896102906 51.917456817626956 L 87.0 53.6 L 90.8 55.5 L 94.3 57.7 L 97.6 60.1 L 100.8 62.8 L 103.8 65.6 L 106.6 68.6 L 109.2 71.7 L 111.7 75.1 L 114.0 78.6 L 114.2 83.1 L 111.3 86.6 L 106.7 86.9 L 103.2 84.0 L 101.9 80.6 Z M 152.4 77.4 L 150.7 74.2 L 148.9 71.1 L 146.9 68.1 L 144.7 65.1 L 142.3 62.1 L 139.8 59.1 L 137.2 56.1 L 134.3 53.3 L 134.92258062362671 52.36612901687622 L 134.6 52.6 L 133.3 51.3 L 136.3 47.4 L 139.1 43.6 L 141.8 39.9 L 144.4 36.4 L 146.8 33.0 L 149.0 29.7 L 151.1 26.5 L 153.1 23.4 L 154.8 20.4 L 155.92183904647828 18.36666669845581 L 155.8 18.3 L 156.9 16.7 L 166.4 24.1 L 167.8 27.4 L 163.69110851287843 27.25831413269043 L 161.5 29.8 L 158.8 32.6 L 155.9 35.5 L 152.8 38.3 L 149.6 41.2 L 146.2 44.1 L 142.5 47.0 L 138.6 49.7 L 135.54143896102906 51.917456817626956 L 139.0 53.6 L 142.8 55.5 L 146.3 57.7 L 149.6 60.1 L 152.8 62.8 L 155.8 65.6 L 158.6 68.6 L 161.2 71.7 L 163.7 75.1 L 166.0 78.6 L 166.2 83.1 L 163.3 86.6 L 158.7 86.9 L 155.2 84.0 L 153.9 80.6 Z " />
</g>
</svg>
