<svg xmlns="http://www.w3.org/2000/svg" xmlns:xlink="http://www.w3.org/1999/xlink" version="1.1" baseProfile="full" viewBox="0 0 200 200" width="200" height="200">
<g fill="black">
<path d="M 70.0 176.2 L 90.0 176.2 L 91.2 176.1 L 92.1 176.0 L 92.7 175.8 L 93.0 175.6 L 93.4 175.2 L 93.7 174.3 L 93.9 173.4 L 94.0 172.2 L 94.0 136.7 L 14.6 136.7 L 14.6 132.7 L 37.7 132.7 L 37.7 85.3 L 49.7 91.3 L 81.72173910140991 91.3 L 83.2 87.9 L 84.9 83.5 L 86.6 79.5 L 88.1 75.7 L 89.6 72.2 L 90.9 69.0 L 92.0 66.1 L 92.8884614944458 64.0 L 44.0 64.0 L 44.0 60.0 L 134.0 60.0 L 144.0 50.0 L 153.44451828002929 57.870431900024414 L 155.5 55.1 L 157.4 51.8 L 159.2 48.8 L 160.9 46.0 L 162.4 43.3 L 163.8 40.8 L 165.1 38.4 L 165.5 37.6 L 34.74666662216187 37.6 L 34.8 40.0 L 34.5 44.2 L 33.8 48.2 L 32.8 51.9 L 31.3 55.4 L 29.3 58.6 L 26.8 61.5 L 23.9 64.0 L 19.3 64.5 L 15.7 61.7 L 15.2 57.2 L 17.9 53.5 L 19.8 52.7 L 21.5 51.6 L 23.3 50.1 L 24.9 48.1 L 26.5 45.6 L 27.9 42.6 L 29.2 39.1 L 30.3 35.1 L 31.2 30.7 L 31.7 25.7 L 33.5 25.7 L 34.1 30.7 L 34.4625 33.6 L 93.5 33.6 L 93.5 12.1 L 105.5 14.1 L 108.5 16.1 L 105.5 17.9 L 105.5 33.6 L 167.0 33.6 L 167.6972972869873 33.018918895721434 L 168.0 32.3 L 168.3125 32.50625 L 173.0 28.6 L 184.0 37.6 L 179.0 40.6 L 174.5310344696045 42.46206893920898 L 172.6 44.2 L 170.5 46.1 L 168.3 48.1 L 165.9 50.2 L 163.3 52.4 L 160.5 54.6 L 157.5 56.8 L 154.88235292434692 59.06862745285034 L 156.0 60.0 L 156.0 64.0 L 105.91379308700562 64.0 L 105.2 64.9 L 103.8 66.6 L 102.2 68.7 L 100.4 70.9 L 98.5 73.4 L 96.3 76.2 L 94.0 79.2 L 91.5 82.4 L 88.8 85.8 L 85.7 89.4 L 84.275 91.3 L 150.2 91.3 L 156.2 86.3 L 167.2 95.3 L 162.2 99.3 L 162.2 132.7 L 167.11818180084228 132.7 L 175.3 123.7 L 185.3 132.7 L 185.3 136.7 L 106.0 136.7 L 106.0 172.2 L 105.8 174.7 L 105.4 177.2 L 104.6 179.6 L 103.3 181.9 L 101.7 183.9 L 99.7 185.6 L 97.4 186.8 L 95.0 187.6 L 92.5 188.0 L 90.0 188.2 L 90.0 182.2 L 70.0 179.2 Z M 49.7 95.3 L 49.7 132.7 L 75.5 132.7 L 75.5 95.3 Z M 87.5 95.3 L 87.5 132.7 L 112.4 132.7 L 112.4 95.3 Z M 124.4 95.3 L 124.4 132.7 L 150.2 132.7 L 150.2 95.3 Z " />
</g>
</svg>
