<svg xmlns="http://www.w3.org/2000/svg" xmlns:xlink="http://www.w3.org/1999/xlink" version="1.1" baseProfile="full" viewBox="0 0 200 200" width="200" height="200">
<g fill="black">
<path d="M 110.6 135.2 L 114.8 143.4 L 120.1 150.6 L 126.4 156.7 L 133.8 161.9 L 142.4 166.2 L 152.2 169.6 L 163.3 172.2 L 175.7 173.9 L 186.0 175.1 L 174.2 187.0 L 160.7 184.5 L 148.5 180.9 L 137.7 176.2 L 128.1 170.4 L 120.1 163.5 L 113.5 155.7 L 108.4 146.8 L 105.02505607604981 137.17148351669312 L 103.7 141.5 L 98.8 150.5 L 92.2 158.4 L 84.1 165.4 L 74.3 171.4 L 63.1 176.5 L 50.3 180.6 L 36.0 183.8 L 20.1 186.1 L 19.8 184.3 L 35.1 180.1 L 48.6 175.5 L 60.5 170.4 L 70.5 164.8 L 78.8 158.7 L 85.4 152.1 L 90.3 145.1 L 93.7 137.7 L 95.5 129.7 L 96.0 121.1 L 96.0 69.0 L 45.0 69.0 L 45.0 65.0 L 136.8181818008423 65.0 L 145.0 56.0 L 155.0 65.0 L 155.0 69.0 L 97.2 69.0 L 108.0 70.8 L 111.0 72.8 L 108.0 74.6 L 108.0 121.1 L 107.39158897399902 126.06088981628417 Z M 78.52671012878417 75.33485345840454 L 86.7 82.6 L 86.8 85.8 L 82.94284477233887 84.17276268005371 L 82.4 84.4 L 78.9 85.5 L 75.2 86.4 L 71.3 87.3 L 67.1 88.1 L 62.7 88.9 L 58.1 89.5 L 53.2 90.1 L 48.1 90.5 L 43.0 90.68888893127442 L 43.0 110.3 L 64.81818180084228 110.3 L 73.0 101.3 L 83.0 110.3 L 83.0 114.3 L 43.0 114.3 L 43.0 139.3 L 65.81818180084228 139.3 L 74.0 130.3 L 84.0 139.3 L 84.0 143.3 L 43.0 143.3 L 43.0 155.3 L 31.0 161.3 L 31.0 82.0 L 41.917241382598874 87.45862064361572 L 42.1 87.4 L 47.1 85.6 L 51.9 84.0 L 56.4 82.4 L 60.7 80.9 L 64.7 79.4 L 68.4 77.9 L 71.8 76.4 L 74.9 74.9 L 76.83382349014282 73.86402311325074 L 76.8 73.8 L 76.85766019821168 73.85125350952148 L 77.7 73.4 Z M 173.0 88.6 L 168.0 92.6 L 168.0 149.3 L 156.0 155.3 L 156.0 143.3 L 119.0 143.3 L 119.0 139.3 L 156.0 139.3 L 156.0 114.3 L 119.0 114.3 L 119.0 110.3 L 156.0 110.3 L 156.0 88.6 L 119.0 88.6 L 119.0 84.6 L 156.0 84.6 L 162.0 79.6 Z M 38.3 42.2 L 38.1 46.4 L 37.4 50.5 L 36.4 54.2 L 34.9 57.7 L 33.0 60.9 L 30.6 63.8 L 27.7 66.3 L 23.1 66.9 L 19.5 64.1 L 18.9 59.6 L 21.6 55.9 L 23.4 55.1 L 25.2 54.0 L 26.9 52.4 L 28.5 50.4 L 30.1 47.9 L 31.5 44.9 L 32.7 41.3 L 33.8 37.3 L 34.8 32.8 L 35.3 27.9 L 37.1 27.8 L 37.7 32.9 L 38.00208330154419 35.8 L 96.0 35.8 L 96.0 14.2 L 108.0 16.2 L 111.0 18.2 L 108.0 20.0 L 108.0 35.8 L 168.3 35.8 L 169.06216220855714 35.16486482620239 L 169.3 34.6 L 169.54994373321534 34.758380222320554 L 174.3 30.8 L 185.3 39.8 L 180.3 42.8 L 176.0129771232605 44.58625955581665 L 176.0 44.6 L 174.1 46.4 L 172.0 48.4 L 169.8 50.4 L 167.4 52.5 L 164.8 54.7 L 162.1 56.9 L 159.1 59.2 L 156.2 61.8 L 154.9 60.6 L 157.1 57.4 L 158.9 54.2 L 160.7 51.2 L 162.3 48.3 L 163.9 45.6 L 165.2 43.1 L 166.5 40.7 L 166.95 39.8 L 38.24666662216187 39.8 Z " />
</g>
</svg>
