<svg xmlns="http://www.w3.org/2000/svg" xmlns:xlink="http://www.w3.org/1999/xlink" version="1.1" baseProfile="full" viewBox="0 0 200 200" width="200" height="200">
<g fill="black">
<path d="M 126.6 182.7 L 105.3 179.8 L 87.0 175.1 L 71.3 168.5 L 58.2 159.9 L 52.183978176116945 154.04955673217773 L 49.1 158.7 L 41.8 167.2 L 33.6 174.8 L 24.4 181.3 L 14.4 186.7 L 13.5 185.2 L 22.2 178.2 L 29.9 170.8 L 36.8 162.9 L 42.8 154.3 L 46.39457015991211 148.00950222015382 L 38.6 136.9 L 31.7 122.5 L 26.4 106.2 L 28.1 105.6 L 35.5 120.8 L 43.6 133.7 L 49.79930419921875 141.05741596221924 L 52.3 135.3 L 55.7 124.7 L 58.3 113.5 L 60.1 101.4 L 60.83125 91.0 L 38.565180110931394 91.0 L 37.5 93.3 L 24.1 93.6 L 51.353691291809085 36.0 L 15.0 36.0 L 15.0 32.0 L 53.0 32.0 L 59.0 27.0 L 70.0 36.0 L 65.0 39.0 L 62.08501596450806 40.214576721191406 L 40.41766719818115 87.0 L 61.0 87.0 L 67.0 82.0 L 78.0 91.0 L 73.0 94.0 L 72.3134020805359 94.2860824584961 L 71.3 102.9 L 68.8 115.7 L 65.3 127.7 L 60.8 138.9 L 56.30017404556274 147.48300132751464 L 63.2 153.2 L 75.4 160.1 L 90.0 165.4 L 107.2 169.0 L 127.5 171.0 L 151.2 171.4 L 178.6 170.4 L 189.8 169.8 L 179.3 183.5 L 151.2 184.0 Z M 104.7 154.5 L 124.7 154.5 L 126.0 154.4 L 126.9 154.2 L 127.5 154.1 L 127.8 153.9 L 128.0 153.7 L 128.1 153.5 L 128.3 153.2 L 128.5 152.6 L 128.7 151.7 L 128.7 109.2 L 78.6 109.2 L 78.6 105.2 L 128.7 105.2 L 128.7 73.0 L 85.7 73.0 L 85.7 69.0 L 128.7 69.0 L 128.7 39.96829271316528 L 122.9 41.1 L 114.5 42.4 L 105.9 43.4 L 97.0 44.1 L 87.8 44.4 L 87.5 42.6 L 96.4 40.3 L 105.0 38.1 L 113.2 35.9 L 121.2 33.7 L 128.9 31.3 L 136.3 28.9 L 143.4 26.3 L 150.3 23.6 L 156.8 20.8 L 162.11535129547119 18.22805585861206 L 162.1 18.2 L 162.12550802230834 18.223141288757326 L 163.0 17.8 L 163.90940551757814 19.84152250289917 L 171.8 27.0 L 172.0 30.2 L 168.2060941696167 28.65872573852539 L 167.9 28.8 L 161.0 31.3 L 153.9 33.7 L 146.6 35.8 L 140.7 37.332467555999756 L 140.7 69.0 L 159.2 69.0 L 169.2 59.0 L 181.2 69.0 L 181.2 73.0 L 140.7 73.0 L 140.7 105.2 L 166.3 105.2 L 176.3 95.2 L 188.3 105.2 L 188.3 109.2 L 140.7 109.2 L 140.7 150.5 L 140.6 153.0 L 140.2 155.5 L 139.4 157.9 L 138.1 160.2 L 136.5 162.2 L 134.5 163.9 L 132.2 165.1 L 129.8 165.9 L 127.3 166.3 L 124.7 166.5 L 124.7 160.5 L 104.7 157.5 Z " />
</g>
</svg>
