<svg xmlns="http://www.w3.org/2000/svg" xmlns:xlink="http://www.w3.org/1999/xlink" version="1.1" baseProfile="full" viewBox="0 0 200 200" width="200" height="200">
<g fill="black">
<path d="M 78.9 131.0 L 77.759375 138.3 L 124.0 138.3 L 124.0 104.6 L 136.0 106.6 L 139.0 108.6 L 136.0 110.4 L 136.0 138.3 L 163.0 138.3 L 173.0 128.3 L 185.0 138.3 L 185.0 142.3 L 136.0 142.3 L 136.0 183.6 L 124.0 189.6 L 124.0 142.3 L 76.975 142.3 L 75.2 149.4 L 72.2 157.4 L 68.4 164.8 L 63.9 171.3 L 58.7 176.9 L 52.7 181.7 L 46.2 185.5 L 39.0 188.3 L 31.2 190.1 L 30.7 188.4 L 37.4 184.9 L 43.4 180.9 L 48.6 176.6 L 53.2 171.7 L 57.0 166.3 L 60.2 160.4 L 62.8 153.8 L 64.8 146.6 L 65.56202535629272 142.3 L 16.0 142.3 L 16.0 138.3 L 66.23678159713745 138.3 L 67.0 130.0 L 67.0 104.6 L 79.0 106.6 L 82.0 108.6 L 79.0 110.4 L 79.0 130.5 L 78.67904510498047 130.9814323425293 Z M 21.9 95.9 L 27.8 95.1 L 34.3 94.3 L 41.3 93.3 L 48.9 92.2 L 54.0 91.45365858078003 L 54.0 67.0 L 29.0 67.0 L 29.0 63.0 L 54.0 63.0 L 54.0 40.0 L 24.0 40.0 L 24.0 36.0 L 54.0 36.0 L 54.0 14.0 L 66.0 16.0 L 69.0 18.0 L 66.0 19.8 L 66.0 36.0 L 83.0 36.0 L 93.0 26.0 L 105.0 36.0 L 105.0 40.0 L 66.0 40.0 L 66.0 63.0 L 75.0 63.0 L 85.0 53.0 L 97.0 63.0 L 97.0 67.0 L 66.0 67.0 L 66.0 89.68494625091553 L 75.2 88.3 L 85.1 86.8 L 95.6 85.4 L 106.8 84.1 L 107.1 85.8 L 96.4 89.1 L 86.2 92.1 L 76.5 94.7 L 67.4 97.1 L 58.8 99.3 L 50.7 101.3 L 43.2 103.2 L 36.2 104.8 L 29.8 106.3 L 28.023239421844483 106.72887325286865 L 26.4 110.3 L 24.0 107.7 L 19.9 96.2 Z M 164.2 97.2 L 162.6 99.0 L 160.7 100.6 L 158.7 101.9 L 156.5 103.0 L 154.3 103.9 L 151.9 104.5 L 149.5 104.8 L 147.0 105.0 L 147.0 99.0 L 127.0 96.0 L 127.0 93.0 L 147.0 93.0 L 148.3 92.9 L 149.6 92.7 L 150.7 92.4 L 151.7 92.1 L 152.6 91.6 L 153.4 91.0 L 154.2 90.3 L 155.0 89.5 L 155.7 88.5 L 156.5 87.3 L 157.6 85.0 L 158.6 82.1 L 159.6 78.7 L 160.5 74.7 L 161.2 70.2 L 161.8 65.1 L 162.3 59.6 L 162.7 53.5 L 162.9 47.0 L 162.97142858505248 42.0 L 135.13394498825073 42.0 L 132.8 52.6 L 129.8 62.8 L 126.1 72.0 L 121.7 80.4 L 116.7 87.8 L 110.9 94.2 L 104.5 99.6 L 97.4 103.7 L 96.5 102.2 L 102.0 96.7 L 106.9 90.7 L 111.2 84.1 L 115.0 76.9 L 118.3 68.9 L 120.9 60.1 L 123.0 50.5 L 124.30769233703613 42.0 L 106.0 42.0 L 106.0 38.0 L 124.76725664138795 38.0 L 125.5 28.8 L 125.9 16.8 L 125.92939014434815 16.80073471069336 L 126.0 14.4 L 137.9 17.1 L 140.9 19.2 L 137.58627767562865 21.084273433685304 L 136.9 29.8 L 135.7285714149475 38.0 L 163.0 38.0 L 169.0 33.0 L 180.0 42.0 L 175.0 45.0 L 174.9301513671875 45.02910356521606 L 174.9 47.2 L 174.7 54.1 L 174.3 60.4 L 173.8 66.4 L 173.1 71.9 L 172.2 76.9 L 171.2 81.5 L 170.0 85.8 L 168.6 89.6 L 167.0 93.0 L 165.7 95.2 Z " />
</g>
</svg>
