<svg xmlns="http://www.w3.org/2000/svg" xmlns:xlink="http://www.w3.org/1999/xlink" version="1.1" baseProfile="full" viewBox="0 0 200 200" width="200" height="200">
<g fill="black">
<path d="M 78.9 131.0 L 77.759375 138.3 L 124.0 138.3 L 124.0 104.6 L 136.0 106.6 L 139.0 108.6 L 136.0 110.4 L 136.0 138.3 L 163.0 138.3 L 173.0 128.3 L 185.0 138.3 L 185.0 142.3 L 136.0 142.3 L 136.0 183.6 L 124.0 189.6 L 124.0 142.3 L 76.975 142.3 L 75.2 149.4 L 72.2 157.4 L 68.4 164.8 L 63.9 171.3 L 58.7 176.9 L 52.7 181.7 L 46.2 185.5 L 39.0 188.3 L 31.2 190.1 L 30.7 188.4 L 37.4 184.9 L 43.4 180.9 L 48.6 176.6 L 53.2 171.7 L 57.0 166.3 L 60.2 160.4 L 62.8 153.8 L 64.8 146.6 L 65.56202535629272 142.3 L 16.0 142.3 L 16.0 138.3 L 66.23678159713745 138.3 L 67.0 130.0 L 67.0 104.6 L 79.0 106.6 L 82.0 108.6 L 79.0 110.4 L 79.0 130.5 L 78.67904510498047 130.9814323425293 Z M 16.9 88.9 L 23.5 88.0 L 30.5 87.0 L 38.0 85.8 L 45.9 84.4 L 53.0 83.11686744689942 L 53.0 60.9 L 25.0 60.9 L 25.0 56.9 L 53.0 56.9 L 53.0 36.2 L 19.0 36.2 L 19.0 32.2 L 53.0 32.2 L 53.0 12.3 L 65.0 14.3 L 68.0 16.3 L 65.0 18.1 L 65.0 32.2 L 81.0 32.2 L 91.0 22.2 L 103.0 32.2 L 103.0 36.2 L 65.0 36.2 L 65.0 56.9 L 75.0 56.9 L 85.0 46.9 L 97.0 56.9 L 97.0 60.9 L 65.0 60.9 L 65.0 80.93043479919433 L 72.2 79.6 L 81.9 77.8 L 92.1 75.9 L 102.7 74.1 L 103.2 75.9 L 93.0 79.6 L 83.3 83.0 L 73.8 86.0 L 65.0 88.63999996185302 L 65.0 103.4 L 53.0 109.4 L 53.0 92.08674697875976 L 47.9 93.5 L 40.1 95.6 L 32.6 97.5 L 25.6 99.2 L 22.994470024108885 99.79216585159301 L 21.4 103.3 L 19.0 100.7 L 14.9 89.2 Z M 167.7 91.0 L 166.3 93.1 L 164.7 94.9 L 162.7 96.5 L 160.6 97.8 L 158.4 98.8 L 156.0 99.5 L 153.5 99.9 L 151.0 100.0 L 151.0 94.0 L 131.0 91.0 L 131.0 88.0 L 151.0 88.0 L 152.3 87.9 L 153.4 87.8 L 154.3 87.5 L 155.1 87.2 L 155.8 86.8 L 156.4 86.3 L 156.9 85.6 L 157.5 84.8 L 158.0 83.8 L 158.5 82.6 L 159.7 78.7 L 160.8 74.5 L 161.8 69.8 L 162.7 64.8 L 163.6 59.5 L 164.3 53.8 L 164.9 47.7 L 165.3 41.3 L 165.7 34.5 L 165.9083333015442 29.5 L 139.7235294342041 29.5 L 138.9 37.9 L 137.1 47.5 L 134.6 56.6 L 131.4 65.0 L 127.5 72.9 L 122.9 80.1 L 117.5 86.6 L 111.5 92.3 L 104.8 97.3 L 97.4 101.4 L 96.5 99.9 L 102.4 94.3 L 107.7 88.5 L 112.4 82.4 L 116.5 75.9 L 119.9 69.0 L 122.7 61.7 L 124.9 53.9 L 126.6 45.5 L 127.6 36.7 L 127.83478260040283 29.5 L 107.0 29.5 L 107.0 25.5 L 166.0 25.5 L 172.0 20.5 L 183.0 29.5 L 178.0 32.5 L 177.76581983566285 32.59757509231567 L 177.7 35.0 L 177.3 42.0 L 176.8 48.7 L 176.2 55.1 L 175.4 61.1 L 174.6 66.8 L 173.6 72.2 L 172.5 77.3 L 171.2 82.0 L 169.8 86.5 L 168.9 88.8 Z " />
</g>
</svg>
