<svg xmlns="http://www.w3.org/2000/svg" xmlns:xlink="http://www.w3.org/1999/xlink" version="1.1" baseProfile="full" viewBox="0 0 200 200" width="200" height="200">
<g fill="black">
<path d="M 78.9 131.5 L 77.86276597976685 138.0 L 124.0 138.0 L 124.0 105.0 L 136.0 107.0 L 139.0 109.0 L 136.0 110.8 L 136.0 138.0 L 163.0 138.0 L 173.0 128.0 L 185.0 138.0 L 185.0 142.0 L 136.0 142.0 L 136.0 184.0 L 124.0 190.0 L 124.0 142.0 L 77.125 142.0 L 75.2 149.7 L 72.2 157.7 L 68.4 165.0 L 63.9 171.4 L 58.6 177.0 L 52.7 181.7 L 46.1 185.4 L 38.9 188.1 L 31.2 189.8 L 30.7 188.1 L 37.5 184.6 L 43.4 180.8 L 48.7 176.5 L 53.2 171.8 L 57.0 166.5 L 60.2 160.6 L 62.8 154.1 L 64.8 146.9 L 65.66835441589356 142.0 L 16.0 142.0 L 16.0 138.0 L 66.2930233001709 138.0 L 67.0 130.4 L 67.0 105.0 L 79.0 107.0 L 82.0 109.0 L 79.0 110.8 L 79.0 131.0 L 78.6802110671997 131.47968339920044 Z M 69.0 17.0 L 72.0 19.0 L 69.0 20.8 L 69.0 33.0 L 84.0 33.0 L 94.0 23.0 L 106.0 33.0 L 106.0 37.0 L 69.0 37.0 L 69.0 55.0 L 83.81818180084228 55.0 L 92.0 46.0 L 102.0 55.0 L 102.0 59.0 L 69.0 59.0 L 69.0 77.0 L 84.0 77.0 L 94.0 67.0 L 106.0 77.0 L 106.0 81.0 L 69.0 81.0 L 69.0 101.0 L 57.0 107.0 L 57.0 81.0 L 21.0 81.0 L 21.0 77.0 L 57.0 77.0 L 57.0 59.0 L 28.0 59.0 L 28.0 55.0 L 57.0 55.0 L 57.0 37.0 L 23.0 37.0 L 23.0 33.0 L 57.0 33.0 L 57.0 15.0 Z M 171.1 88.7 L 169.5 90.6 L 167.7 92.3 L 165.7 93.7 L 163.6 94.9 L 161.3 95.8 L 158.9 96.5 L 156.5 96.8 L 154.0 97.0 L 154.0 91.0 L 134.0 88.0 L 134.0 85.0 L 154.0 85.0 L 155.3 84.9 L 156.5 84.7 L 158.5 84.1 L 159.3 83.6 L 160.0 83.1 L 160.7 82.4 L 161.4 81.6 L 162.1 80.6 L 162.7 79.4 L 162.7 79.2 L 163.1 77.6 L 163.5 75.1 L 164.0 71.7 L 164.5 67.4 L 165.1 62.4 L 165.8 56.6 L 166.5 50.0 L 167.2 42.6 L 167.74634141921996 37.0 L 143.7880000114441 37.0 L 142.6 42.5 L 139.4 53.6 L 135.6 63.5 L 131.0 72.1 L 125.4 79.8 L 118.8 86.6 L 111.0 92.5 L 101.9 97.9 L 91.4 102.7 L 90.5 101.2 L 99.9 94.6 L 107.8 88.3 L 114.2 81.9 L 119.4 75.2 L 123.6 68.0 L 127.0 59.9 L 129.8 50.8 L 132.1 40.2 L 132.62892560958863 37.0 L 111.0 37.0 L 111.0 33.0 L 133.29008264541625 33.0 L 134.1 28.1 L 135.77090120315552 15.104101753234863 L 135.7 15.1 L 136.1 12.1 L 147.8 15.8 L 150.5 18.1 L 147.14336671829224 19.52967710494995 L 145.3 30.0 L 144.65200004577636 33.0 L 168.0 33.0 L 174.0 28.0 L 185.0 37.0 L 180.0 40.0 L 179.43813562393188 40.23411016464233 L 179.1 43.7 L 178.4 51.2 L 177.7 57.9 L 177.1 63.8 L 176.5 68.9 L 175.9 73.3 L 175.4 76.9 L 174.8 79.9 L 174.3 82.2 L 173.6 84.4 L 172.4 86.6 Z " />
</g>
</svg>
