<svg xmlns="http://www.w3.org/2000/svg" xmlns:xlink="http://www.w3.org/1999/xlink" version="1.1" baseProfile="full" viewBox="0 0 200 200" width="200" height="200">
<g fill="black">
<path d="M 154.0 183.1 L 145.0 180.6 L 136.7 177.8 L 129.1 174.7 L 122.2 171.3 L 116.0 167.6 L 110.6 163.6 L 106.1 159.3 L 103.025 155.2 L 99.60746269226074 155.2 L 97.9 157.8 L 92.1 163.6 L 84.9 168.7 L 76.4 173.2 L 66.6 176.9 L 55.5 180.1 L 43.1 182.7 L 29.3 184.7 L 14.1 185.9 L 13.9 184.1 L 28.7 180.9 L 41.9 177.5 L 53.7 173.8 L 63.9 169.8 L 72.6 165.6 L 79.8 161.0 L 85.3 156.2 L 86.13673467636109 155.2 L 12.0 155.2 L 12.0 151.2 L 89.45200004577637 151.2 L 92.0 146.3 L 93.4 141.2 L 93.40661573410034 141.20135707855223 L 93.8 139.3 L 105.1 143.6 L 107.6 146.2 L 103.61544666290283 147.57648200988768 L 102.3 151.1 L 102.23432836532592 151.2 L 164.9 151.2 L 174.9 141.2 L 186.9 151.2 L 186.9 155.2 L 107.2481481552124 155.2 L 108.7 156.0 L 113.9 158.7 L 119.5 161.3 L 125.7 163.7 L 132.4 166.0 L 139.8 168.0 L 147.8 169.9 L 156.5 171.6 L 165.8 173.1 L 175.8 174.4 L 185.7 175.8 L 173.9 187.4 L 163.6 185.4 Z M 159.4 137.1 L 157.5 138.5 L 155.4 139.8 L 153.3 140.9 L 151.1 141.7 L 148.9 142.4 L 146.5 142.9 L 144.1 143.2 L 141.7 143.3 L 141.7 137.3 L 123.7 134.3 L 123.7 131.3 L 141.7 131.3 L 143.2 131.2 L 146.0 130.8 L 147.2 130.4 L 148.4 129.9 L 149.6 129.3 L 150.7 128.6 L 151.7 127.8 L 152.8 126.9 L 153.7473684310913 125.85789470672607 L 153.9 125.4 L 154.3 124.3 L 154.6 122.6 L 155.0 120.4 L 155.2 117.8 L 155.5 114.8 L 155.6 111.3 L 155.7 107.4 L 155.75238094329833 105.2 L 133.31428575515747 105.2 L 132.8 108.8 L 131.2 114.0 L 128.7 118.8 L 125.4 123.0 L 121.4 126.7 L 116.7 129.9 L 111.4 132.6 L 105.5 134.7 L 98.9 136.3 L 91.6 137.4 L 91.2 135.6 L 97.7 132.8 L 103.4 129.8 L 108.3 126.8 L 112.4 123.7 L 115.7 120.5 L 118.2 117.3 L 119.9 113.9 L 121.1 110.5 L 121.6 107.0 L 121.6 105.2 L 105.5 105.2 L 105.5 101.2 L 155.8 101.2 L 161.8 96.2 L 172.8 105.2 L 167.8 108.2 L 167.68418893814086 108.24825458526611 L 167.6 111.7 L 167.4 115.5 L 167.2 118.9 L 166.9 122.0 L 166.4 124.7 L 165.9 127.2 L 165.2 129.5 L 164.3 131.6 L 162.8 133.7 L 161.2 135.5 Z M 76.8 122.7 L 73.0 118.7 L 70.9 116.7 L 68.7 114.7 L 66.4 112.7 L 64.0 110.7 L 61.5 108.5 L 60.2 107.63333330154418 L 60.2 136.5 L 48.2 142.5 L 48.2 112.0 L 45.5 115.0 L 41.6 118.7 L 37.5 122.2 L 33.0 125.4 L 28.3 128.4 L 23.3 131.0 L 18.0 133.2 L 12.4 135.0 L 11.6 133.4 L 16.2 129.9 L 20.5 126.4 L 24.5 123.0 L 28.3 119.5 L 31.8 116.0 L 35.0 112.3 L 37.9 108.5 L 40.5 104.6 L 42.41999998092651 101.4 L 13.0 101.4 L 13.0 97.4 L 48.2 97.4 L 48.2 65.9 L 60.2 67.9 L 63.2 69.9 L 60.2 71.7 L 60.2 97.4 L 71.4 97.4 L 81.4 87.4 L 93.4 97.4 L 93.4 101.4 L 60.2 101.4 L 60.2 105.340625 L 62.7 106.2 L 66.0 107.0 L 69.1 108.0 L 72.2 109.2 L 75.1 110.4 L 77.9 111.7 L 80.7 113.2 L 83.3 114.7 L 85.9 116.3 L 88.3 118.0 L 90.1 122.2 L 88.6 126.4 L 84.4 128.3 L 80.1 126.7 L 78.5 124.7 Z M 125.7 80.7 L 127.7 83.7 L 123.57735195159913 84.26864109039306 L 121.3 87.4 L 118.7 90.5 L 115.7 93.4 L 112.4 96.1 L 108.9 98.6 L 105.1 101.0 L 101.0 103.2 L 96.5 105.1 L 91.8 107.0 L 91.0 105.4 L 94.9 102.4 L 98.3 99.3 L 101.5 96.2 L 104.3 93.3 L 106.9 90.3 L 109.1 87.4 L 110.9 84.5 L 112.5 81.7 L 113.7 78.8 L 114.27120742797851 77.02291021347045 L 114.2 77.0 L 114.46829271316528 76.40975608825684 L 114.6 76.0 L 114.64574174880981 76.0193681716919 L 115.2 74.8 Z M 169.4 100.2 L 165.6 97.4 L 162.2 94.3 L 159.1 91.2 L 156.5 87.8 L 154.4 84.3 L 152.8 80.8 L 152.77619047164916 80.7119047164917 L 152.0 81.1 L 152.0 77.83999996185302 L 151.8 77.1 L 151.3297297477722 74.2 L 121.6 74.2 L 121.6 70.2 L 147.08000001907348 70.2 L 152.0 66.1 L 163.0 75.1 L 158.0 78.1 L 157.474285697937 78.36285715103149 L 159.6 80.4 L 162.2 82.6 L 165.1 84.7 L 168.1 86.6 L 171.5 88.4 L 175.2 90.2 L 179.1 91.8 L 183.4 93.3 L 189.7 96.0 L 178.3 105.5 L 173.7 102.9 Z M 88.8 77.8 L 90.2 81.2 L 85.87496089935303 80.97629108428956 L 84.9 82.0 L 82.8 84.0 L 80.7 85.9 L 78.5 87.7 L 76.3 89.4 L 74.0 91.0 L 71.6 92.6 L 69.1 93.9 L 66.9 95.5 L 65.7 94.2 L 67.4 92.1 L 68.8 89.7 L 70.2 87.4 L 71.5 85.1 L 72.9 82.8 L 74.2 80.5 L 76.6 75.9 L 77.7 73.5 L 78.39285945892334 72.05129384994507 L 78.3 72.0 L 79.3 70.4 Z M 31.2 89.4 L 30.7 87.9 L 30.1 86.3 L 29.2 84.5 L 28.1 82.7 L 26.8 80.8 L 25.3 78.8 L 23.6 76.7 L 21.4 75.0 L 22.4 73.5 L 24.9 74.8 L 27.5 75.8 L 30.0 77.0 L 32.3 78.2 L 34.4 79.5 L 36.4 80.9 L 38.2 82.4 L 39.9 84.0 L 41.4 85.8 L 42.7 87.7 L 42.5 92.2 L 39.2 95.4 L 34.6 95.2 L 31.5 91.9 L 31.4 90.7 Z M 151.7 73.2235294342041 L 152.0 73.11764707565308 L 152.0 73.1 L 151.7 73.0 Z M 76.8 19.8 L 78.6 22.9 L 74.9120192527771 23.5146635055542 L 73.8013201713562 25.7 L 136.0 25.7 L 142.0 20.7 L 153.0 29.7 L 148.0 32.7 L 145.54612998962403 33.722445774078366 L 136.99841270446777 58.2 L 170.7777777671814 58.2 L 177.0 51.2 L 185.0 58.2 L 185.0 62.2 L 18.0 62.2 L 18.0 58.2 L 124.3384614944458 58.2 L 128.25230770111085 47.6 L 62.67062702178955 47.6 L 61.4 50.1 L 48.0 50.0 L 67.1 12.6 Z M 71.76831684112548 29.7 L 64.70363035202027 43.6 L 129.72923078536988 43.6 L 134.8615385055542 29.7 Z " />
</g>
</svg>
