<svg xmlns="http://www.w3.org/2000/svg" xmlns:xlink="http://www.w3.org/1999/xlink" version="1.1" baseProfile="full" viewBox="0 0 200 200" width="200" height="200">
<g fill="black">
<path d="M 154.0 181.6 L 145.1 178.7 L 136.8 175.6 L 129.3 172.1 L 122.4 168.3 L 116.3 164.2 L 110.9 159.8 L 106.4 155.0 L 103.36226415634155 150.4 L 100.07600002288818 150.4 L 98.7 152.8 L 92.9 159.4 L 85.7 165.3 L 77.3 170.4 L 67.5 174.8 L 56.4 178.5 L 44.0 181.6 L 30.2 183.9 L 15.1 185.5 L 14.8 183.7 L 29.5 180.2 L 42.6 176.4 L 54.3 172.3 L 64.4 167.9 L 73.0 163.0 L 80.1 157.9 L 85.6 152.5 L 87.1375 150.4 L 13.0 150.4 L 13.0 146.4 L 89.92881355285644 146.4 L 92.4 141.0 L 93.80769233703613 135.2753846168518 L 94.2 133.0 L 105.7 137.1 L 108.3 139.6 L 104.41120910644531 141.01410579681396 L 103.0 145.3 L 102.36933336257934 146.4 L 165.0 146.4 L 175.0 136.4 L 187.0 146.4 L 187.0 150.4 L 107.03823528289794 150.4 L 109.2 151.9 L 114.4 155.1 L 120.1 158.1 L 126.2 160.9 L 133.0 163.6 L 140.3 166.0 L 148.3 168.2 L 156.9 170.1 L 166.1 171.9 L 176.0 173.4 L 185.7 175.0 L 173.9 186.4 L 163.6 184.1 Z M 172.5 108.2 L 171.5 106.4 L 170.85584411621093 105.43376626968384 L 165.3 106.4 L 156.6 107.7 L 149.1 108.70609760284424 L 149.1 131.5 L 137.1 137.5 L 137.1 110.1625 L 133.6 110.6 L 127.0 111.3 L 122.34345989227295 111.7506329536438 L 129.8 117.7 L 131.1 121.1 L 126.59595279693603 120.78937606811523 L 125.7 121.6 L 123.5 123.4 L 121.1 125.1 L 118.6 126.7 L 115.9 128.3 L 113.1 129.7 L 110.1 131.1 L 106.9 132.3 L 103.8 133.7 L 102.9 132.2 L 105.6 130.1 L 107.8 127.7 L 109.9 125.4 L 111.9 123.2 L 113.6 121.1 L 115.2 118.9 L 116.7 116.9 L 117.9 114.8 L 119.0 112.8 L 119.35287132263184 112.0550495147705 L 115.2 112.5 L 110.1 113.0 L 109.61774196624756 113.04193544387817 L 107.5 116.3 L 105.5 113.4 L 103.3 101.4 L 105.3 101.4 L 109.8 101.6 L 114.8 101.7 L 120.4 101.9 L 126.5 102.0 L 130.89417514801025 102.06558465957642 L 131.2 101.8 L 134.9 98.5 L 136.53834953308106 97.08919906616211 L 132.4 98.5 L 128.3 96.6 L 127.5 95.2 L 126.6 93.8 L 125.6 92.3 L 124.3 90.8 L 122.9 89.3 L 121.3 87.8 L 119.6 86.2 L 117.7 84.7 L 115.7 83.0 L 113.3 81.8 L 113.9 80.1 L 116.5 80.9 L 119.2 81.2 L 121.8 81.7 L 124.3 82.3 L 126.40722894668579 83.00240964889527 L 127.8 81.2 L 129.6 79.1 L 132.8 75.1 L 135.8 71.3 L 137.1 69.4 L 138.95161294937134 66.6225806236267 L 138.8 66.5 L 139.8 65.5 L 148.2 74.1 L 149.0 77.6 L 144.62533082962037 76.602268409729 L 144.2 76.9 L 139.8 79.5 L 135.2 82.1 L 132.7 83.2 L 130.1 84.4 L 131.2 84.9 L 133.3 86.0 L 135.3 87.2 L 137.2 88.5 L 138.7 92.8 L 136.90086669921874 96.77703142166138 L 138.5 95.4 L 142.1 92.4 L 145.5 89.4 L 148.8 86.4 L 152.0 83.5 L 155.1 80.6 L 158.1 77.7 L 160.25058822631837 75.54941177368164 L 160.2 75.5 L 161.1 74.7 L 168.8 83.9 L 169.3 87.5 L 165.54532804489136 86.2931411743164 L 165.4 86.4 L 161.8 88.9 L 158.1 91.4 L 154.3 93.8 L 150.3 96.1 L 146.2 98.4 L 142.0 100.6 L 138.84324321746826 102.17837839126587 L 140.4 102.2 L 148.1 102.3 L 156.3 102.4 L 165.1 102.6 L 168.94827585220338 102.76551723480225 L 168.9 102.7 L 167.4 100.9 L 165.8 99.0 L 164.0 97.0 L 162.0 95.0 L 159.7 93.4 L 160.5 91.8 L 163.2 92.9 L 166.0 93.7 L 168.7 94.7 L 171.2 95.8 L 176.0 98.4 L 178.2 99.9 L 182.2 103.1 L 184.1 104.9 L 184.9 109.4 L 182.5 113.3 L 178.0 114.2 L 174.2 111.7 L 173.4 110.0 Z M 83.5 120.2 L 81.4 118.3 L 79.1 116.4 L 76.4 114.4 L 73.6 112.4 L 70.4 110.4 L 67.0 108.2 L 64.8 106.8555555343628 L 64.8 131.4 L 52.8 137.4 L 52.8 107.10666666030883 L 52.0 108.2 L 48.7 112.1 L 45.0 115.8 L 40.9 119.2 L 36.6 122.4 L 31.8 125.4 L 26.7 128.1 L 21.3 130.5 L 15.4 132.5 L 14.6 130.8 L 19.4 127.2 L 23.9 123.6 L 28.0 120.1 L 31.8 116.6 L 35.2 113.0 L 38.2 109.4 L 40.9 105.8 L 43.2 102.1 L 44.76756753921509 99.2 L 16.5 99.2 L 16.5 95.2 L 52.8 95.2 L 52.8 67.0 L 64.8 69.0 L 67.8 71.0 L 64.8 72.8 L 64.8 95.2 L 78.6 95.2 L 88.6 85.2 L 100.6 95.2 L 100.6 99.2 L 64.8 99.2 L 64.8 103.35714282989503 L 68.7 104.1 L 72.7 105.1 L 76.5 106.3 L 80.1 107.5 L 83.4 108.8 L 86.6 110.2 L 89.5 111.7 L 92.2 113.2 L 94.8 114.9 L 96.7 119.1 L 95.2 123.4 L 91.0 125.3 L 86.7 123.8 L 85.2 122.0 Z M 170.1 128.1 L 169.1 126.4 L 167.9 124.6 L 166.5 122.8 L 165.0 121.0 L 163.3 119.1 L 161.5 117.2 L 159.6 115.2 L 157.3 113.6 L 158.1 112.0 L 160.8 113.2 L 163.5 113.9 L 166.2 114.9 L 168.7 115.9 L 171.1 117.1 L 173.4 118.3 L 175.6 119.7 L 177.6 121.1 L 179.6 122.7 L 181.4 124.3 L 182.4 128.8 L 180.1 132.7 L 175.7 133.7 L 171.7 131.4 L 171.0 129.8 Z M 33.9 86.8 L 33.3 85.1 L 32.5 83.3 L 31.5 81.5 L 30.4 79.7 L 29.1 77.8 L 27.7 75.9 L 26.1 73.9 L 24.1 72.4 L 25.0 70.8 L 27.4 72.0 L 29.9 72.9 L 32.3 73.9 L 34.6 75.1 L 36.8 76.4 L 38.8 77.9 L 40.7 79.5 L 42.5 81.3 L 44.2 83.2 L 45.7 85.3 L 45.8 89.9 L 42.7 93.2 L 38.2 93.3 L 34.8 90.3 L 34.4 88.6 Z M 90.9 75.1 L 92.4 78.4 L 87.8676646232605 78.3218563079834 L 87.7 78.5 L 86.0 80.2 L 84.1 81.9 L 82.3 83.6 L 80.3 85.2 L 78.2 86.9 L 76.1 88.5 L 73.8 90.0 L 71.7 91.9 L 70.4 90.7 L 72.0 88.5 L 73.1 86.0 L 74.3 83.6 L 75.4 81.3 L 77.4 76.9 L 78.3 74.8 L 79.2 72.8 L 80.0 70.8 L 80.35722799301148 69.77934865951538 L 80.2 69.7 L 80.65679016113282 68.92345676422119 L 80.7 68.8 L 80.72157363891601 68.81332483291627 L 81.2 68.0 Z M 174.0 23.3 L 169.0 27.3 L 169.0 62.6 L 157.0 68.6 L 157.0 62.6 L 30.0 62.6 L 30.0 58.6 L 157.0 58.6 L 157.0 41.8 L 37.0 41.8 L 37.0 37.8 L 157.0 37.8 L 157.0 23.3 L 32.0 23.3 L 32.0 19.3 L 157.0 19.3 L 163.0 14.3 Z " />
</g>
</svg>
