<svg xmlns="http://www.w3.org/2000/svg" xmlns:xlink="http://www.w3.org/1999/xlink" version="1.1" baseProfile="full" viewBox="0 0 200 200" width="200" height="200">
<g fill="black">
<path d="M 185.0 173.0 L 185.0 177.0 L 15.0 177.0 L 15.0 173.0 L 163.0 173.0 L 173.0 163.0 Z M 56.1 35.4 L 59.1 37.4 L 56.1 39.2 L 56.1 161.3 L 44.1 167.3 L 44.1 33.4 Z M 130.2 155.3 L 150.2 155.3 L 151.4 155.2 L 152.9 154.9 L 153.3 154.7 L 153.5 154.5 L 153.6 154.3 L 153.8 154.0 L 154.0 153.4 L 154.1 152.5 L 154.2 151.3 L 154.2 105.5 L 102.11063833236695 105.5 L 101.5 113.7 L 99.9 122.6 L 97.6 130.8 L 94.4 138.3 L 90.3 145.1 L 85.5 151.1 L 79.9 156.3 L 73.5 160.7 L 66.5 164.1 L 58.7 166.7 L 58.0 165.0 L 64.7 160.8 L 70.4 156.3 L 75.4 151.5 L 79.6 146.3 L 83.1 140.6 L 85.9 134.5 L 88.0 127.8 L 89.4 120.6 L 90.1 112.7 L 90.18571424484253 105.5 L 72.0 105.5 L 72.0 101.5 L 90.2 101.5 L 90.2 52.2 L 102.2 58.2 L 112.03125 58.2 L 113.1 56.4 L 114.6 53.1 L 116.0 50.0 L 117.4 47.1 L 118.6 44.3 L 119.7 41.6 L 120.7 39.1 L 121.6 36.8 L 122.3 34.6 L 122.61629390716553 33.545686912536624 L 122.5 33.5 L 122.88999996185302 32.63333330154419 L 122.9 32.6 L 122.90409555435181 32.60200986862183 L 123.4 31.5 L 133.7 37.9 L 135.5 41.0 L 131.0159999847412 41.380000019073485 L 130.6 41.9 L 128.8 44.0 L 127.0 46.2 L 125.0 48.4 L 122.8 50.7 L 120.5 53.1 L 117.9 55.5 L 115.2 58.0 L 115.0074073791504 58.2 L 154.2 58.2 L 160.2 53.2 L 171.2 62.2 L 166.2 66.2 L 166.2 101.5 L 169.0777777671814 101.5 L 175.3 94.5 L 183.3 101.5 L 183.3 105.5 L 166.2 105.5 L 166.2 151.3 L 166.1 153.8 L 165.6 156.3 L 164.8 158.7 L 163.6 161.0 L 162.0 163.0 L 159.9 164.7 L 157.7 165.9 L 155.3 166.7 L 152.8 167.1 L 150.2 167.3 L 150.2 161.3 L 130.2 158.3 Z M 129.9 132.3 L 129.2 130.5 L 128.2 128.5 L 126.8 126.3 L 125.2 124.0 L 123.2 121.6 L 120.9 119.1 L 118.5 116.4 L 115.4 113.9 L 116.4 112.4 L 119.9 114.3 L 123.4 115.8 L 126.6 117.5 L 129.5 119.2 L 132.1 121.0 L 134.6 122.8 L 136.7 124.8 L 138.7 126.8 L 140.4 129.0 L 141.8 131.4 L 141.5 136.0 L 138.1 139.0 L 133.5 138.7 L 130.5 135.3 L 130.3 133.9 Z M 102.2 62.2 L 102.2 101.5 L 154.2 101.5 L 154.2 62.2 Z M 17.3 100.3 L 15.7 96.0 L 17.5 91.8 L 18.9 90.8 L 20.4 89.5 L 21.9 87.9 L 23.4 85.8 L 24.9 83.4 L 26.4 80.7 L 27.9 77.6 L 29.4 74.2 L 30.9 70.5 L 32.1 66.4 L 33.9 66.6 L 33.6 71.0 L 33.5 75.1 L 33.2 79.0 L 32.8 82.7 L 32.1 86.2 L 31.3 89.4 L 30.2 92.5 L 29.0 95.3 L 27.5 98.0 L 25.8 100.4 L 21.6 102.0 Z M 129.9 89.0 L 129.2 87.1 L 128.2 85.1 L 126.8 83.0 L 125.2 80.7 L 123.2 78.3 L 120.9 75.8 L 118.5 73.1 L 115.4 70.6 L 116.4 69.1 L 119.9 71.0 L 123.4 72.5 L 126.6 74.1 L 129.5 75.9 L 132.1 77.7 L 134.6 79.5 L 136.7 81.5 L 138.7 83.5 L 140.4 85.7 L 141.8 88.1 L 141.5 92.6 L 138.1 95.7 L 133.5 95.4 L 130.5 92.0 L 130.3 90.6 Z M 74.0 83.3 L 73.2 81.3 L 72.3 79.2 L 71.0 76.9 L 69.6 74.6 L 67.9 72.2 L 66.0 69.7 L 64.0 67.0 L 61.4 64.5 L 62.5 63.1 L 65.6 65.0 L 68.7 66.6 L 71.5 68.3 L 74.2 70.1 L 76.7 72.0 L 78.9 73.9 L 81.0 75.9 L 82.9 78.0 L 84.6 80.2 L 86.1 82.6 L 85.9 87.1 L 82.7 90.3 L 78.1 90.2 L 74.9 87.0 L 74.6 85.2 Z M 175.0 23.0 L 175.0 27.0 L 25.0 27.0 L 25.0 23.0 L 153.0 23.0 L 163.0 13.0 Z " />
</g>
</svg>
