<svg xmlns="http://www.w3.org/2000/svg" xmlns:xlink="http://www.w3.org/1999/xlink" version="1.1" baseProfile="full" viewBox="0 0 200 200" width="200" height="200">
<g fill="black">
<path d="M 159.6 174.1 L 150.8 167.2 L 142.8 159.3 L 141.69466743469238 157.96438989639282 L 132.2 166.5 L 121.5 174.1 L 109.9 180.4 L 97.5 185.3 L 84.4 188.8 L 83.9 187.1 L 96.1 181.8 L 107.4 175.7 L 117.8 168.7 L 127.3 160.8 L 135.9 151.8 L 136.23629341125488 151.36885452270508 L 135.6 150.6 L 129.3 141.0 L 123.9 130.6 L 119.4 119.3 L 115.9 107.1 L 113.66615381240845 95.0 L 104.4 95.0 L 104.4 91.0 L 133.2 91.0 L 133.2 14.0 L 145.2 16.0 L 148.2 18.0 L 145.2 19.8 L 145.2 50.0 L 167.4 50.0 L 177.4 40.0 L 189.4 50.0 L 189.4 54.0 L 145.2 54.0 L 145.2 91.0 L 166.4 91.0 L 172.4 86.0 L 183.4 95.0 L 178.4 98.0 L 176.75573120117187 98.68511199951172 L 172.8 109.6 L 166.5 123.4 L 159.2 136.0 L 151.1 147.4 L 148.36672420501708 150.49771251678467 L 150.0 152.2 L 157.7 158.6 L 166.0 164.2 L 175.0 168.9 L 184.5 172.8 L 191.3 175.4 L 179.8 185.1 L 169.3 180.1 Z M 13.3 171.9 L 22.3 171.2 L 49.6 169.1 L 53.0 168.87582416534423 L 53.0 143.0 L 18.0 143.0 L 18.0 139.0 L 53.0 139.0 L 53.0 117.56056337356567 L 47.8 118.0 L 40.5 118.5 L 32.9 118.8 L 25.1 118.8 L 24.8 117.1 L 32.4 115.1 L 39.7 113.2 L 46.8 111.5 L 53.6 109.9 L 60.2 108.3 L 66.6 106.8 L 72.7 105.2 L 78.5 103.6 L 84.2 102.0 L 88.62171430587769 100.66514282226562 L 88.6 100.6 L 88.66315793991089 100.65263156890869 L 89.5 100.4 L 89.8 101.6 L 100.0 110.1 L 100.3 113.1 L 95.99802951812744 111.10049257278442 L 92.4 112.0 L 86.7 113.1 L 80.8 114.1 L 74.7 115.0 L 68.3 115.9 L 65.0 116.3 L 65.0 139.0 L 83.0 139.0 L 93.0 129.0 L 105.0 139.0 L 105.0 143.0 L 65.0 143.0 L 65.0 168.0206521987915 L 67.9 167.8 L 77.0 167.2 L 86.3 166.6 L 95.5 166.3 L 104.8 166.1 L 105.1 167.8 L 96.0 170.0 L 86.9 172.0 L 77.8 173.7 L 68.8 175.3 L 59.7 176.9 L 50.7 178.4 L 41.6 179.8 L 32.6 181.2 L 18.645019721984863 183.2157194137573 L 16.9 186.6 L 14.6 183.8 L 11.3 172.1 Z M 119.9 105.8 L 124.9 117.0 L 130.3 127.2 L 136.3 136.5 L 142.12257919311523 143.8223343849182 L 143.7 141.8 L 150.6 130.8 L 156.8 118.7 L 162.1 105.5 L 165.47762241363526 95.0 L 115.70495872497558 95.0 Z M 97.0 87.0 L 97.0 91.0 L 25.0 91.0 L 25.0 87.0 L 75.0 87.0 L 85.0 77.0 Z M 23.0 74.0 L 23.0 27.0 L 35.0 29.0 L 38.0 31.0 L 35.0 32.8 L 35.0 64.0 L 56.0 64.0 L 56.0 13.0 L 68.0 15.0 L 71.0 17.0 L 68.0 18.8 L 68.0 64.0 L 89.0 64.0 L 89.0 27.0 L 101.0 29.0 L 104.0 31.0 L 101.0 32.8 L 101.0 70.0 L 89.0 76.0 L 89.0 68.0 L 35.0 68.0 Z " />
</g>
</svg>
