<svg xmlns="http://www.w3.org/2000/svg" xmlns:xlink="http://www.w3.org/1999/xlink" version="1.1" baseProfile="full" viewBox="0 0 200 200" width="200" height="200">
<g fill="black">
<path d="M 157.2 169.3 L 148.8 160.6 L 141.3 150.9 L 139.94915075302123 148.66265592575073 L 134.0 156.8 L 124.1 167.3 L 113.1 176.1 L 100.9 183.3 L 87.8 188.8 L 87.1 187.1 L 99.0 180.0 L 109.8 171.9 L 119.4 162.6 L 128.0 152.2 L 135.25320634841918 140.8849980354309 L 134.9 140.3 L 129.4 128.8 L 125.0 116.4 L 121.6 103.2 L 119.2 89.1 L 118.58539686203002 80.71904764175414 L 114.9 86.6 L 109.8 93.8 L 104.3 100.5 L 102.9 99.4 L 106.6 91.8 L 110.2 84.0 L 113.7 76.1 L 117.0 68.0 L 120.0 59.6 L 122.8 51.0 L 125.4 42.1 L 127.7 32.9 L 129.7 23.5 L 131.33229064941406 14.703767204284668 L 131.3 14.7 L 131.9 11.9 L 143.3 16.1 L 145.8 18.7 L 142.35223884582518 19.89104480743408 L 140.8 26.1 L 138.0 35.7 L 135.0 45.1 L 131.6 54.1 L 128.66551723480225 61.0 L 164.9 61.0 L 174.9 51.0 L 186.9 61.0 L 186.9 65.0 L 168.87894735336303 65.0 L 166.1 82.6 L 162.0 100.3 L 156.7 116.6 L 150.3 131.5 L 145.75284910202026 139.51734504699706 L 149.6 144.8 L 156.9 153.1 L 164.9 160.4 L 173.7 166.7 L 183.2 172.1 L 188.2 174.8 L 177.0 183.8 L 166.6 177.0 Z M 15.1 163.9 L 23.3 163.0 L 31.8 162.0 L 40.7 161.0 L 49.9 159.9 L 56.0 159.1375 L 56.0 138.0 L 20.0 138.0 L 20.0 134.0 L 56.0 134.0 L 56.0 113.0 L 16.0 113.0 L 16.0 109.0 L 88.81818180084228 109.0 L 97.0 100.0 L 107.0 109.0 L 107.0 113.0 L 68.0 113.0 L 68.0 134.0 L 83.0 134.0 L 93.0 124.0 L 105.0 134.0 L 105.0 138.0 L 68.0 138.0 L 68.0 157.66969699859618 L 69.4 157.5 L 79.7 156.3 L 90.4 155.1 L 101.4 154.0 L 112.8 153.1 L 113.1 154.8 L 102.0 157.8 L 91.3 160.4 L 80.8 162.8 L 70.7 165.0 L 60.9 167.1 L 51.4 169.0 L 42.3 170.9 L 33.4 172.6 L 25.0 174.2 L 20.840164470672608 174.96094551086426 L 19.2 178.4 L 16.8 175.7 L 13.1 164.2 Z M 126.8397590637207 65.0 L 123.9 71.1 L 120.67415971755982 77.10156335830689 L 123.3 88.3 L 127.3 101.7 L 131.8 114.0 L 137.0 125.3 L 140.2176552772522 130.91726264953613 L 141.9 127.5 L 147.3 113.3 L 151.6 97.7 L 154.9 80.7 L 156.7627119064331 65.0 Z M 104.0 87.0 L 104.0 91.0 L 18.0 91.0 L 18.0 87.0 L 85.81818180084228 87.0 L 94.0 78.0 Z M 27.0 75.7 L 17.0 65.7 L 23.0 59.7 L 23.0 27.3 L 35.0 29.3 L 38.0 31.3 L 35.0 33.1 L 35.0 63.7 L 56.0 63.7 L 56.0 13.3 L 68.0 15.3 L 71.0 17.3 L 68.0 19.1 L 68.0 63.7 L 89.0 63.7 L 89.0 27.3 L 101.0 29.3 L 104.0 31.3 L 101.0 33.1 L 101.0 69.7 L 89.0 75.7 L 89.0 67.7 L 35.0 67.7 Z " />
</g>
</svg>
