<svg xmlns="http://www.w3.org/2000/svg" xmlns:xlink="http://www.w3.org/1999/xlink" version="1.1" baseProfile="full" viewBox="0 0 200 200" width="200" height="200">
<g fill="black">
<path d="M 160.7 172.6 L 153.4 165.7 L 146.6 158.1 L 140.5 149.7 L 139.90518131256104 148.7227979660034 L 134.0 156.8 L 124.1 167.3 L 113.1 176.1 L 100.9 183.3 L 87.8 188.8 L 87.1 187.1 L 99.0 180.0 L 109.8 171.9 L 119.4 162.6 L 128.0 152.2 L 135.19223909378053 140.98010702133178 L 134.9 140.5 L 130.0 130.6 L 125.6 119.9 L 122.0 108.4 L 119.2 96.2 L 120.9 95.6 L 125.9 107.0 L 131.0 117.5 L 136.4 127.3 L 139.5565055847168 132.26022300720214 L 141.9 127.5 L 147.3 113.3 L 151.6 97.7 L 154.9 80.7 L 156.7627119064331 65.0 L 126.8397590637207 65.0 L 123.9 71.1 L 119.6 79.1 L 114.9 86.6 L 109.8 93.8 L 104.3 100.5 L 102.9 99.4 L 106.6 91.8 L 110.2 84.0 L 113.7 76.1 L 117.0 68.0 L 120.0 59.6 L 122.8 51.0 L 125.4 42.1 L 127.7 32.9 L 129.7 23.5 L 131.33229064941406 14.703767204284668 L 131.3 14.7 L 131.9 11.9 L 143.3 16.1 L 145.8 18.7 L 142.35223884582518 19.89104480743408 L 140.8 26.1 L 138.0 35.7 L 135.0 45.1 L 131.6 54.1 L 128.66551723480225 61.0 L 164.9 61.0 L 174.9 51.0 L 186.9 61.0 L 186.9 65.0 L 168.87894735336303 65.0 L 166.1 82.6 L 162.0 100.3 L 156.7 116.6 L 150.3 131.5 L 145.2231614112854 140.4512680053711 L 148.0 144.2 L 154.3 151.4 L 161.0 157.7 L 168.0 163.3 L 175.4 168.1 L 183.1 172.1 L 188.4 174.8 L 177.1 183.8 L 168.6 178.6 Z M 13.2 171.9 L 22.3 171.2 L 31.3 170.4 L 49.5 169.0 L 52.9 168.74130430221558 L 52.9 143.4 L 18.3 143.4 L 18.3 139.4 L 52.9 139.4 L 52.9 117.875 L 47.8 118.3 L 40.4 118.8 L 32.7 119.0 L 24.8 119.0 L 24.6 117.2 L 32.2 115.3 L 39.6 113.5 L 46.8 111.8 L 53.7 110.2 L 60.3 108.6 L 66.7 106.9 L 72.8 105.3 L 78.7 103.6 L 84.3 102.0 L 88.63924617767334 100.60816631317138 L 88.6 100.5 L 88.70409526824952 100.58736562728882 L 89.6 100.3 L 89.96207103729247 101.64316673278809 L 99.8 109.9 L 100.1 112.9 L 95.84986114501953 110.95707941055298 L 92.7 111.8 L 87.0 113.0 L 81.1 114.1 L 74.9 115.1 L 68.5 116.1 L 64.9 116.53636360168457 L 64.9 139.4 L 83.0 139.4 L 93.0 129.4 L 105.0 139.4 L 105.0 143.4 L 64.9 143.4 L 64.9 167.82307691574096 L 67.8 167.6 L 77.0 166.9 L 86.2 166.3 L 95.5 165.9 L 104.8 165.7 L 105.1 167.5 L 96.0 169.7 L 86.9 171.7 L 77.9 173.4 L 68.8 175.1 L 59.7 176.7 L 50.7 178.2 L 41.6 179.7 L 23.6 182.5 L 18.645019721984863 183.2157194137573 L 16.9 186.6 L 14.6 183.8 L 11.3 172.1 Z M 104.0 87.0 L 104.0 91.0 L 18.0 91.0 L 18.0 87.0 L 82.0 87.0 L 92.0 77.0 Z M 23.0 73.7 L 23.0 27.3 L 35.0 29.3 L 38.0 31.3 L 35.0 33.1 L 35.0 63.7 L 56.0 63.7 L 56.0 13.3 L 68.0 15.3 L 71.0 17.3 L 68.0 19.1 L 68.0 63.7 L 89.0 63.7 L 89.0 27.3 L 101.0 29.3 L 104.0 31.3 L 101.0 33.1 L 101.0 69.7 L 89.0 75.7 L 89.0 67.7 L 35.0 67.7 Z " />
</g>
</svg>
