<svg xmlns="http://www.w3.org/2000/svg" xmlns:xlink="http://www.w3.org/1999/xlink" version="1.1" baseProfile="full" viewBox="0 0 200 200" width="200" height="200">
<g fill="black">
<path d="M 158.5 174.1 L 149.4 167.2 L 141.2 159.4 L 139.89518756866454 157.8659637451172 L 130.0 166.5 L 119.0 174.2 L 107.1 180.5 L 94.3 185.3 L 80.8 188.8 L 80.3 187.1 L 92.9 181.8 L 104.6 175.7 L 115.3 168.7 L 125.1 160.7 L 134.1 151.8 L 134.4080780029297 151.4149024963379 L 133.8 150.7 L 127.3 141.0 L 121.7 130.6 L 117.0 119.3 L 113.4 107.1 L 110.98000001907349 95.0 L 101.4 95.0 L 101.4 91.0 L 131.3 91.0 L 131.3 14.0 L 143.3 16.0 L 146.3 18.0 L 143.3 19.8 L 143.3 50.0 L 167.1 50.0 L 177.1 40.0 L 189.1 50.0 L 189.1 54.0 L 143.3 54.0 L 143.3 91.0 L 165.6 91.0 L 171.6 86.0 L 182.6 95.0 L 177.6 98.0 L 175.7857894897461 98.75592107772827 L 171.7 109.7 L 165.2 123.5 L 157.8 136.1 L 149.5 147.5 L 146.72989826202394 150.508390045166 L 148.3 152.1 L 156.3 158.6 L 164.8 164.2 L 174.0 168.9 L 183.9 172.8 L 190.8 175.4 L 179.3 185.1 L 168.5 180.1 Z M 20.1 170.9 L 26.8 170.1 L 33.7 169.3 L 41.0 168.2 L 48.6 167.1 L 56.0 165.8822784423828 L 56.0 140.0 L 15.0 140.0 L 15.0 136.0 L 56.0 136.0 L 56.0 113.30588235855103 L 48.4 114.2 L 39.3 115.2 L 29.6 116.1 L 19.1 116.8 L 18.8 115.1 L 28.9 112.3 L 38.4 109.9 L 47.3 107.7 L 55.6 105.7 L 63.2 103.8 L 70.2 102.1 L 76.5 100.5 L 82.2 99.0 L 87.3 97.6 L 90.72061700820923 96.56585998535157 L 90.7 96.5 L 90.76332101821899 96.55294942855835 L 91.6 96.3 L 91.87239112854004 97.48036155700683 L 102.3 106.2 L 102.7 109.2 L 98.31361207962036 107.09693727493286 L 94.3 108.0 L 89.6 108.7 L 84.4 109.5 L 78.5 110.3 L 71.9 111.2 L 68.0 111.74166669845582 L 68.0 136.0 L 88.0 136.0 L 98.0 126.0 L 110.0 136.0 L 110.0 140.0 L 68.0 140.0 L 68.0 163.77882356643676 L 73.2 162.8 L 82.0 161.2 L 91.2 159.6 L 100.7 158.1 L 101.2 159.8 L 92.2 163.3 L 83.4 166.4 L 74.8 169.2 L 66.5 171.7 L 58.4 174.1 L 50.5 176.2 L 43.0 178.1 L 35.7 179.8 L 28.6 181.4 L 25.85765495300293 181.92427186965944 L 24.2 185.4 L 21.8 182.7 L 18.1 171.2 Z M 117.3 105.8 L 122.5 117.0 L 128.1 127.2 L 134.2 136.4 L 140.38273811340332 143.94657735824586 L 142.1 141.8 L 149.3 130.8 L 155.6 118.7 L 161.1 105.5 L 164.5510489463806 95.0 L 113.10495872497559 95.0 Z M 35.0 71.0 L 23.0 77.0 L 23.0 28.0 L 35.0 30.0 L 38.0 32.0 L 35.0 33.8 L 35.0 64.0 L 55.0 64.0 L 55.0 14.0 L 67.0 16.0 L 70.0 18.0 L 67.0 19.8 L 67.0 64.0 L 86.0 64.0 L 86.0 28.0 L 98.0 30.0 L 101.0 32.0 L 98.0 33.8 L 98.0 70.0 L 86.75 75.625 L 98.0 85.0 L 98.0 89.0 L 24.0 89.0 L 24.0 85.0 L 76.0 85.0 L 86.0 75.0 L 86.0 68.0 L 35.0 68.0 Z " />
</g>
</svg>
