<svg xmlns="http://www.w3.org/2000/svg" xmlns:xlink="http://www.w3.org/1999/xlink" version="1.1" baseProfile="full" viewBox="0 0 200 200" width="200" height="200">
<g fill="black">
<path d="M 159.0 174.1 L 150.0 167.2 L 141.8 159.4 L 140.55875663757325 157.90370664596557 L 130.9 166.5 L 120.0 174.1 L 108.2 180.4 L 95.6 185.3 L 82.2 188.8 L 81.7 187.1 L 94.2 181.8 L 105.7 175.7 L 116.3 168.7 L 126.0 160.7 L 134.8 151.8 L 135.13923664093016 151.37058658599852 L 134.5 150.6 L 128.1 141.0 L 122.6 130.6 L 118.0 119.3 L 114.4 107.1 L 112.07307691574097 95.0 L 102.6 95.0 L 102.6 91.0 L 132.1 91.0 L 132.1 14.0 L 144.1 16.0 L 147.1 18.0 L 144.1 19.8 L 144.1 50.0 L 167.2 50.0 L 177.2 40.0 L 189.2 50.0 L 189.2 54.0 L 144.1 54.0 L 144.1 91.0 L 165.9 91.0 L 171.9 86.0 L 182.9 95.0 L 177.9 98.0 L 176.11770496368408 98.74262294769287 L 172.1 109.7 L 165.7 123.4 L 158.4 136.0 L 150.1 147.4 L 147.36028451919555 150.43751068115233 L 149.0 152.1 L 156.9 158.6 L 165.3 164.2 L 174.4 168.9 L 184.1 172.8 L 191.0 175.4 L 179.5 185.1 L 168.8 180.1 Z M 15.2 173.2 L 23.0 172.3 L 31.0 171.3 L 39.1 170.3 L 47.3 169.2 L 47.4 169.18674697875977 L 47.4 137.0 L 17.9 137.0 L 17.9 133.0 L 47.4 133.0 L 47.4 102.7 L 15.1 102.7 L 15.1 98.7 L 76.6 98.7 L 86.6 88.7 L 98.6 98.7 L 98.6 102.7 L 59.4 102.7 L 59.4 133.0 L 73.8 133.0 L 83.8 123.0 L 95.8 133.0 L 95.8 137.0 L 59.4 137.0 L 59.4 167.56352939605713 L 64.1 166.9 L 72.8 165.8 L 81.6 164.6 L 90.6 163.5 L 99.8 162.5 L 100.1 164.3 L 91.4 167.2 L 82.7 169.8 L 74.1 172.2 L 65.6 174.4 L 57.2 176.5 L 48.9 178.4 L 40.8 180.2 L 32.7 181.9 L 24.8 183.5 L 21.060065174102782 184.21921825408936 L 19.4 187.7 L 17.0 185.0 L 13.3 173.5 Z M 118.3 105.8 L 123.4 117.0 L 129.0 127.2 L 135.1 136.4 L 141.06147270202638 143.87408514022826 L 142.7 141.8 L 149.8 130.8 L 156.1 118.7 L 161.5 105.5 L 164.9510489463806 95.0 L 114.10495872497559 95.0 Z M 21.8 83.4 L 11.8 73.4 L 17.8 67.4 L 17.8 28.3 L 29.8 30.3 L 32.8 32.3 L 29.8 34.1 L 29.8 71.4 L 48.7 71.4 L 48.7 12.3 L 60.7 14.3 L 63.7 16.3 L 60.7 18.1 L 60.7 71.4 L 79.0 71.4 L 79.0 28.3 L 91.0 30.3 L 94.0 32.3 L 91.0 34.1 L 91.0 79.4 L 79.0 85.4 L 79.0 75.4 L 29.8 75.4 Z " />
</g>
</svg>
