<svg xmlns="http://www.w3.org/2000/svg" xmlns:xlink="http://www.w3.org/1999/xlink" version="1.1" baseProfile="full" viewBox="0 0 200 200" width="200" height="200">
<g fill="black">
<path d="M 159.9 169.8 L 151.6 164.9 L 143.7 159.7 L 136.2 154.2 L 129.0 148.3 L 122.3 142.1 L 115.9 135.5 L 110.1 128.5 L 106.0 122.5865385055542 L 106.0 182.2 L 94.0 188.2 L 94.0 129.4262294769287 L 92.8 131.0 L 86.1 138.5 L 78.8 145.5 L 71.0 152.1 L 62.7 158.1 L 53.9 163.7 L 44.5 168.8 L 34.7 173.3 L 24.2 177.3 L 13.3 180.6 L 12.6 178.9 L 22.7 173.8 L 32.3 168.5 L 41.3 163.1 L 49.8 157.3 L 57.7 151.3 L 65.0 145.0 L 71.8 138.3 L 78.1 131.3 L 83.8 124.0 L 85.29767446517944 121.7 L 18.0 121.7 L 18.0 117.7 L 94.0 117.7 L 94.0 92.3 L 106.0 94.3 L 109.0 96.3 L 106.0 98.1 L 106.0 117.7 L 160.0 117.7 L 170.0 107.7 L 182.0 117.7 L 182.0 121.7 L 108.4473684310913 121.7 L 113.1 125.6 L 120.0 131.2 L 127.0 136.6 L 134.1 141.7 L 141.5 146.5 L 149.2 151.1 L 157.1 155.3 L 165.3 159.3 L 173.7 163.0 L 182.4 166.4 L 188.9 169.0 L 177.5 178.6 L 168.5 174.4 Z M 154.4 85.4 L 151.2 80.2 L 147.8 75.1 L 146.31409578323365 73.1723403930664 L 142.9 74.0 L 129.9 76.9 L 117.0 79.5 L 104.2 82.0 L 91.6 84.4 L 79.1 86.6 L 66.8 88.8 L 54.6 90.9 L 42.6 92.9 L 34.74736919403076 94.15378141403198 L 33.1 97.5 L 30.7 94.8 L 27.2 83.1 L 29.1 82.9 L 41.1 81.6 L 53.1 80.2 L 55.225698947906494 79.95805053710937 L 56.5 76.8 L 58.9 71.2 L 61.3 65.8 L 63.8 60.4 L 66.2 55.2 L 68.6 49.9 L 70.9 44.7 L 73.2 39.6 L 75.4 34.4 L 75.5666666984558 34.0 L 24.0 34.0 L 24.0 30.0 L 154.0 30.0 L 164.0 20.0 L 176.0 30.0 L 176.0 34.0 L 88.68000001907349 34.0 L 85.6 39.5 L 82.8 44.4 L 79.8 49.4 L 76.8 54.3 L 73.7 59.2 L 70.4 64.2 L 67.0 69.1 L 63.5 74.0 L 59.7 78.7 L 58.994388008117674 79.5290940284729 L 65.4 78.8 L 77.8 77.4 L 90.3 76.0 L 103.1 74.5 L 116.0 73.0 L 129.0 71.6 L 142.3 70.2 L 143.9165555000305 70.0682806968689 L 140.3 65.5 L 136.3 60.9 L 132.1 56.3 L 127.7 51.8 L 123.2 47.3 L 124.3 45.8 L 130.1 48.8 L 135.6 52.2 L 140.8 56.1 L 145.7 60.2 L 150.5 64.6 L 154.8802631378174 69.1749415397644 L 155.8 69.1 L 156.04554796218872 70.49143838882446 L 159.3 74.2 L 163.3 79.4 L 167.2 84.8 L 170.8 90.4 L 171.2 95.0 L 168.4 98.6 L 163.8 99.0 L 160.2 96.2 L 157.4 90.7 Z " />
</g>
</svg>
