<svg xmlns="http://www.w3.org/2000/svg" xmlns:xlink="http://www.w3.org/1999/xlink" version="1.1" baseProfile="full" viewBox="0 0 200 200" width="200" height="200">
<g fill="black">
<path d="M 58.0 145.0 L 58.0 124.0 L 36.0 124.0 L 36.0 140.0 L 35.615384578704834 145.0 Z M 180.0 150.0 L 182.0 150.0 L 180.0 175.0 L 183.6 177.4 L 186.0 181.0 L 183.6 184.6 L 180.0 187.0 L 173.0 187.0 L 170.4 186.8 L 167.9 186.4 L 165.5 185.6 L 163.2 184.3 L 161.2 182.7 L 159.6 180.7 L 158.3 178.4 L 157.5 176.0 L 157.1 173.5 L 157.0 171.0 L 157.0 124.0 L 149.7087378501892 124.0 L 149.4 129.3 L 148.3 138.9 L 146.7 147.8 L 146.14148063659667 149.9542890548706 L 148.0 152.2 L 150.3 155.3 L 152.4 158.5 L 154.3 161.9 L 154.3 166.4 L 151.1 169.7 L 146.5 169.7 L 143.3 166.5 L 142.3 163.4 L 142.13928575515746 162.99821424484253 L 142.0 163.4 L 138.7 170.0 L 135.0 175.9 L 130.7 180.8 L 125.8 184.8 L 120.4 187.7 L 119.5 186.2 L 123.2 182.0 L 126.5 177.4 L 129.4 172.4 L 131.9 166.8 L 133.9 160.5 L 135.6 153.6 L 136.12372884750366 150.28305082321168 L 135.0 148.3 L 133.0 145.3 L 130.9 142.3 L 128.7 139.2 L 126.2 136.3 L 127.3 134.9 L 130.7 137.0 L 134.0 139.1 L 137.2 141.4 L 137.29060773849488 141.475506401062 L 137.7 137.7 L 138.0 128.7 L 138.0 124.0 L 125.0 124.0 L 125.0 120.0 L 138.0 120.0 L 138.0 93.0 L 150.0 95.0 L 153.0 97.0 L 150.0 98.8 L 150.0 119.0 L 149.94174757003785 120.0 L 157.0 120.0 L 163.0 115.0 L 174.0 124.0 L 169.0 128.0 L 169.0 172.2 L 169.2 173.1 L 169.5 174.0 L 169.9 174.4 L 170.8 174.7 L 171.7 174.9 L 173.0 175.0 L 174.0 175.0 Z M 36.0 101.0 L 36.0 120.0 L 58.0 120.0 L 58.0 101.0 Z M 56.0 65.0 L 151.0 65.0 L 157.0 60.0 L 168.0 69.0 L 163.0 73.0 L 163.0 85.0 L 151.0 91.0 L 151.0 85.0 L 56.0 85.0 L 44.0 91.0 L 44.0 59.0 Z M 56.0 69.0 L 56.0 81.0 L 151.0 81.0 L 151.0 69.0 Z M 185.0 30.0 L 185.0 34.0 L 55.0 34.0 L 55.0 48.0 L 149.8181818008423 48.0 L 158.0 39.0 L 168.0 48.0 L 168.0 52.0 L 55.0 52.0 L 47.0 60.0 L 37.0 50.0 L 43.0 44.0 L 43.0 34.0 L 20.0 34.0 L 20.0 30.0 L 163.0 30.0 L 173.0 20.0 Z M 96.4 24.2 L 95.6 23.0 L 94.6 21.6 L 93.5 20.2 L 92.2 18.8 L 90.8 17.4 L 89.3 15.8 L 87.6 14.2 L 85.5 13.2 L 86.2 11.5 L 88.5 12.3 L 90.9 12.6 L 95.3 13.6 L 97.4 14.2 L 99.4 14.9 L 101.3 15.7 L 103.1 16.6 L 104.8 17.6 L 106.5 18.7 L 107.9 23.1 L 105.9 27.2 L 101.6 28.6 L 97.5 26.6 L 97.0 25.5 Z M 69.4 178.0 L 68.6 180.4 L 67.3 182.7 L 65.7 184.7 L 63.7 186.3 L 61.4 187.6 L 59.0 188.4 L 56.5 188.8 L 54.0 189.0 L 54.0 183.0 L 38.0 180.0 L 38.0 177.0 L 54.0 177.0 L 55.2 176.9 L 56.1 176.7 L 57.0 176.4 L 57.4 176.0 L 57.7 175.1 L 57.9 174.2 L 58.0 173.0 L 58.0 149.0 L 35.14285717010498 149.0 L 34.6 152.8 L 33.4 158.7 L 31.7 164.3 L 29.7 169.6 L 27.3 174.5 L 24.5 179.0 L 21.3 183.1 L 17.6 186.6 L 13.6 189.6 L 12.3 188.3 L 14.7 184.2 L 16.9 180.0 L 18.7 175.8 L 20.4 171.4 L 21.7 166.8 L 22.7 162.0 L 23.5 156.9 L 23.9 151.5 L 24.1 145.9 L 24.0 140.0 L 24.0 91.0 L 36.0 97.0 L 58.0 97.0 L 64.0 92.0 L 75.0 101.0 L 70.0 105.0 L 70.0 173.0 L 69.8 175.5 Z " />
</g>
</svg>
