<svg xmlns="http://www.w3.org/2000/svg" xmlns:xlink="http://www.w3.org/1999/xlink" version="1.1" baseProfile="full" viewBox="0 0 200 200" width="200" height="200">
<g fill="black">
<path d="M 58.0 145.0 L 58.0 124.0 L 36.0 124.0 L 36.0 140.0 L 35.615384578704834 145.0 Z M 180.0 150.0 L 182.0 150.0 L 180.0 175.0 L 183.6 177.4 L 186.0 181.0 L 183.6 184.6 L 180.0 187.0 L 173.0 187.0 L 170.4 186.8 L 167.9 186.4 L 165.5 185.6 L 163.2 184.3 L 161.2 182.7 L 159.6 180.7 L 158.3 178.4 L 157.5 176.0 L 157.1 173.5 L 157.0 171.0 L 157.0 124.0 L 149.7087378501892 124.0 L 149.4 129.3 L 148.3 138.9 L 146.7 147.8 L 146.14148063659667 149.9542890548706 L 148.0 152.2 L 150.3 155.3 L 152.4 158.5 L 154.3 161.9 L 154.3 166.4 L 151.1 169.7 L 146.5 169.7 L 143.3 166.5 L 142.3 163.4 L 142.13928575515746 162.99821424484253 L 142.0 163.4 L 138.7 170.0 L 135.0 175.9 L 130.7 180.8 L 125.8 184.8 L 120.4 187.7 L 119.5 186.2 L 123.2 182.0 L 126.5 177.4 L 129.4 172.4 L 131.9 166.8 L 133.9 160.5 L 135.6 153.6 L 136.12372884750366 150.28305082321168 L 135.0 148.3 L 133.0 145.3 L 130.9 142.3 L 128.7 139.2 L 126.2 136.3 L 127.3 134.9 L 130.7 137.0 L 134.0 139.1 L 137.2 141.4 L 137.29060773849488 141.475506401062 L 137.7 137.7 L 138.0 128.7 L 138.0 124.0 L 125.0 124.0 L 125.0 120.0 L 138.0 120.0 L 138.0 93.0 L 150.0 95.0 L 153.0 97.0 L 150.0 98.8 L 150.0 119.0 L 149.94174757003785 120.0 L 157.0 120.0 L 163.0 115.0 L 174.0 124.0 L 169.0 128.0 L 169.0 172.2 L 169.2 173.1 L 169.5 174.0 L 169.9 174.4 L 170.8 174.7 L 171.7 174.9 L 173.0 175.0 L 174.0 175.0 Z M 36.0 101.0 L 36.0 120.0 L 58.0 120.0 L 58.0 101.0 Z M 56.0 65.0 L 151.0 65.0 L 157.0 60.0 L 168.0 69.0 L 163.0 73.0 L 163.0 85.0 L 151.0 91.0 L 151.0 85.0 L 56.0 85.0 L 44.0 91.0 L 44.0 59.0 Z M 56.0 69.0 L 56.0 81.0 L 151.0 81.0 L 151.0 69.0 Z M 87.0 32.4 L 84.3 34.4 L 81.4 36.3 L 78.5 38.3 L 75.5 40.3 L 72.4 42.2 L 69.3 44.2 L 66.0 46.1 L 64.68175983428955 46.83666362762451 L 65.8 46.8 L 78.1 46.4 L 90.6 46.0 L 103.3 45.5 L 116.2 45.0 L 129.2 44.6 L 140.7792119026184 44.25175304412842 L 137.3 42.3 L 133.0 39.9 L 128.5 37.5 L 123.7 35.1 L 124.2 33.4 L 129.6 34.2 L 134.8 35.1 L 139.7 36.4 L 144.5 37.9 L 149.0 39.6 L 153.3 41.4 L 157.5 43.4 L 161.4 45.6 L 165.1 48.0 L 168.7 50.5 L 170.6 54.6 L 169.2 58.9 L 165.1 60.9 L 160.7 59.5 L 158.1 56.9 L 155.3 54.3 L 152.2 51.8 L 148.8 49.4 L 145.91999998092652 47.480000019073486 L 142.8 48.0 L 129.7 49.9 L 116.7 51.6 L 103.9 53.0 L 91.3 54.4 L 78.7 55.7 L 66.4 56.9 L 54.2 58.0 L 42.1 59.0 L 34.31643714904785 59.58867282867432 L 32.4 62.8 L 30.2 59.9 L 27.7 48.0 L 29.6 47.9 L 41.5 47.6 L 53.6 47.2 L 57.48368949890137 47.0726658821106 L 59.8 44.4 L 65.0 38.8 L 67.5 36.2 L 69.9 33.5 L 72.3 31.0 L 73.14615383148194 30.0 L 15.0 30.0 L 15.0 26.0 L 94.0 26.0 L 94.0 12.0 L 106.0 14.0 L 109.0 16.0 L 106.0 17.8 L 106.0 26.0 L 162.0 26.0 L 172.0 16.0 L 184.0 26.0 L 184.0 30.0 L 90.21818180084229 30.0 Z M 69.4 178.0 L 68.6 180.4 L 67.3 182.7 L 65.7 184.7 L 63.7 186.3 L 61.4 187.6 L 59.0 188.4 L 56.5 188.8 L 54.0 189.0 L 54.0 183.0 L 38.0 180.0 L 38.0 177.0 L 54.0 177.0 L 55.2 176.9 L 56.1 176.7 L 57.0 176.4 L 57.4 176.0 L 57.7 175.1 L 57.9 174.2 L 58.0 173.0 L 58.0 149.0 L 35.14285717010498 149.0 L 34.6 152.8 L 33.4 158.7 L 31.7 164.3 L 29.7 169.6 L 27.3 174.5 L 24.5 179.0 L 21.3 183.1 L 17.6 186.6 L 13.6 189.6 L 12.3 188.3 L 14.7 184.2 L 16.9 180.0 L 18.7 175.8 L 20.4 171.4 L 21.7 166.8 L 22.7 162.0 L 23.5 156.9 L 23.9 151.5 L 24.1 145.9 L 24.0 140.0 L 24.0 91.0 L 36.0 97.0 L 58.0 97.0 L 64.0 92.0 L 75.0 101.0 L 70.0 105.0 L 70.0 173.0 L 69.8 175.5 Z " />
</g>
</svg>
