<svg xmlns="http://www.w3.org/2000/svg" xmlns:xlink="http://www.w3.org/1999/xlink" version="1.1" baseProfile="full" viewBox="0 0 200 200" width="200" height="200">
<g fill="black">
<path d="M 149.7 185.6 L 141.2 182.5 L 133.5 178.7 L 126.4 174.3 L 120.0 169.3 L 114.4 163.7 L 109.6 157.4 L 105.7 150.7 L 102.8 143.3 L 103.2 143.1 L 98.5673267364502 143.1 L 93.3 152.6 L 86.4 161.6 L 78.3 169.4 L 69.1 176.0 L 58.7 181.3 L 47.2 185.4 L 34.6 188.1 L 20.9 189.6 L 20.7 187.8 L 33.7 184.4 L 45.4 180.3 L 55.8 175.4 L 64.9 169.6 L 72.7 163.1 L 79.3 155.7 L 84.7 147.4 L 86.70978260040283 143.1 L 20.8 143.1 L 20.8 139.1 L 88.5793478012085 139.1 L 89.0 138.2 L 92.3 128.1 L 94.2293137550354 117.90219850540161 L 94.2 117.9 L 94.7 115.0 L 106.2 118.8 L 108.9 121.3 L 105.23379726409912 122.79363813400269 L 103.2 131.2 L 100.19380531311035 139.1 L 157.2 139.1 L 167.2 129.1 L 179.2 139.1 L 179.2 143.1 L 104.88813562393189 143.1 L 109.2 148.4 L 114.2 153.7 L 119.5 158.5 L 125.2 162.7 L 131.3 166.4 L 137.9 169.5 L 145.1 172.1 L 152.9 174.3 L 161.2 175.9 L 170.1 177.0 L 180.3 178.3 L 168.4 190.1 L 158.7 188.2 Z M 127.3 87.5 L 124.0 85.5 L 120.3 83.5 L 116.4 81.5 L 112.1 79.5 L 107.7 77.5 L 102.9 75.5 L 99.06512880325317 73.7782211303711 L 95.0 76.2 L 89.6 78.9 L 83.7 81.5 L 77.1 84.0 L 69.8 86.5 L 61.9 88.7 L 53.2 90.8 L 52.7 89.1 L 60.5 85.2 L 67.8 81.5 L 74.4 78.0 L 80.3 74.7 L 85.5 71.5 L 90.0 68.3 L 93.7 65.3 L 96.7 62.5 L 98.9 59.8 L 99.85767831802369 58.3315598487854 L 99.8 58.3 L 100.69375 57.0 L 48.0 57.0 L 48.0 118.0 L 36.0 124.0 L 36.0 54.63768119812012 L 29.5 58.5 L 22.2 62.3 L 14.4 65.7 L 13.5 64.2 L 20.2 59.1 L 26.5 54.0 L 32.5 49.1 L 38.2 44.1 L 43.5 39.0 L 48.4 33.8 L 53.0 28.6 L 57.1 23.3 L 61.0 18.0 L 63.878800296783446 13.343117141723633 L 63.8 13.3 L 64.9 11.7 L 74.4 19.1 L 75.8 22.4 L 71.9675464630127 22.267846393585206 L 70.1 24.7 L 65.57090911865234 30.0 L 122.0 30.0 L 122.1875 29.84375 L 122.8 29.1 L 123.7 27.7 L 124.18181819915772 28.181818199157714 L 128.0 25.0 L 139.0 34.0 L 134.0 37.0 L 124.76610174179078 40.847457599639895 L 122.8 42.0 L 119.6 43.9 L 116.0 45.9 L 111.9 48.1 L 107.5 50.5 L 102.6 52.9 L 102.41785717010498 53.0 L 152.0 53.0 L 158.0 48.0 L 169.0 57.0 L 164.0 61.0 L 164.0 118.0 L 152.0 124.0 L 152.0 57.0 L 101.28513517379761 57.0 L 110.4 64.1 L 111.8 67.4 L 107.53373861312866 67.25288753509521 L 107.4 67.4 L 103.86542053222657 70.44366559982299 L 104.3 70.5 L 109.6 71.5 L 114.5 72.5 L 119.3 73.7 L 123.8 75.0 L 128.0 76.4 L 132.1 77.9 L 135.9 79.6 L 139.5 81.3 L 142.2 85.0 L 141.5 89.5 L 137.8 92.2 L 133.3 91.5 L 130.4 89.5 Z M 127.3 116.5 L 124.0 114.5 L 120.3 112.5 L 116.4 110.5 L 112.1 108.5 L 107.7 106.5 L 102.9 104.5 L 98.0 102.3 L 97.76166162490844 102.20106706619262 L 95.1 103.9 L 89.7 106.8 L 83.8 109.6 L 77.1 112.4 L 69.9 115.0 L 61.9 117.5 L 53.3 119.8 L 52.6 118.1 L 60.5 114.0 L 67.7 110.1 L 74.3 106.5 L 80.2 102.9 L 85.4 99.5 L 89.9 96.2 L 93.6 93.0 L 96.6 90.0 L 98.8 87.2 L 100.3 84.6 L 100.35857257843017 84.63675146102905 L 100.9 83.8 L 110.5 91.0 L 112.0 94.3 L 107.73446598052979 94.22645635604859 L 107.5 94.5 L 104.0 97.8 L 102.0856707572937 99.21295728683472 L 104.3 99.5 L 109.6 100.5 L 114.5 101.5 L 119.3 102.7 L 123.8 104.0 L 128.0 105.4 L 132.1 106.9 L 135.9 108.6 L 139.5 110.3 L 142.2 114.0 L 141.5 118.5 L 137.8 121.2 L 133.3 120.5 L 130.4 118.5 Z M 61.673076915740964 34.0 L 60.3 35.4 L 54.9 40.5 L 49.1 45.3 L 43.0 50.0 L 42.57142858505249 50.28571424484253 L 48.0 53.0 L 97.82105264663696 53.0 L 100.9 50.4 L 104.9 46.7 L 108.5 43.3 L 111.9 40.3 L 114.8 37.5 L 117.4 35.0 L 118.35652170181274 34.0 Z " />
</g>
</svg>
