<svg xmlns="http://www.w3.org/2000/svg" xmlns:xlink="http://www.w3.org/1999/xlink" version="1.1" baseProfile="full" viewBox="0 0 200 200" width="200" height="200">
<g fill="black">
<path d="M 147.3 178.3 L 135.7 171.2 L 125.7 163.4 L 117.3 154.9 L 110.5 145.6 L 105.4 135.7 L 102.1 125.3 L 101.56803522109985 121.39892473220826 L 100.7 124.9 L 95.9 136.2 L 89.3 146.6 L 81.0 156.1 L 71.1 164.7 L 59.6 172.4 L 46.4 179.1 L 31.6 185.0 L 15.2 189.8 L 14.7 188.1 L 30.2 181.4 L 44.0 174.4 L 56.0 166.8 L 66.3 158.8 L 74.9 150.3 L 81.7 141.3 L 86.9 131.8 L 90.5 121.8 L 92.5 111.2 L 92.82142858505249 104.0 L 21.0 104.0 L 21.0 100.0 L 155.0 100.0 L 165.0 90.0 L 177.0 100.0 L 177.0 104.0 L 104.59375 104.0 L 104.04208736419677 109.4317551612854 L 104.8 113.7 L 107.8 123.6 L 112.0 132.6 L 117.4 140.9 L 123.23781299591064 147.52199678421022 L 126.0 145.0 L 130.2 140.9 L 134.2 137.2 L 138.0 133.7 L 141.4 130.4 L 144.6 127.3 L 147.4 124.3 L 149.9 121.6 L 152.0 119.0 L 153.24145078659058 117.43185167312622 L 153.2 117.4 L 153.7161290168762 116.83225803375244 L 153.9 116.6 L 153.91484813690187 116.61366701126099 L 154.2 116.3 L 162.7 124.7 L 163.6 128.2 L 159.57288131713867 127.43623609542847 L 157.2 129.4 L 154.0 131.8 L 150.5 134.3 L 146.6 136.9 L 142.5 139.6 L 138.0 142.3 L 133.2 145.1 L 128.0 147.9 L 125.10885906219482 149.37185354232787 L 132.2 155.5 L 141.7 161.9 L 152.6 167.8 L 165.0 173.0 L 179.0 177.7 L 186.6 180.1 L 174.9 190.2 L 160.4 184.6 Z M 58.2 141.3 L 56.5 139.1 L 54.3 136.7 L 51.7 134.2 L 48.7 131.6 L 45.3 128.9 L 41.4 126.1 L 37.2 123.1 L 32.5 120.2 L 33.2 118.5 L 38.6 120.3 L 43.6 121.9 L 48.2 123.7 L 52.5 125.6 L 56.4 127.6 L 59.9 129.7 L 63.1 131.9 L 66.0 134.2 L 68.5 136.7 L 70.7 139.4 L 71.2 143.9 L 68.4 147.6 L 63.9 148.1 L 60.3 145.3 L 59.4 143.4 Z M 105.0 76.0 L 108.0 78.0 L 105.0 79.8 L 105.0 100.0 L 93.0 100.0 L 93.0 74.0 Z M 86.0 44.5 L 87.0 48.0 L 83.31690139770508 47.41845808029175 L 80.3 50.7 L 74.3 56.5 L 67.9 61.9 L 61.3 67.1 L 54.3 71.8 L 46.9 76.3 L 39.3 80.3 L 31.3 84.0 L 23.0 87.1 L 14.3 89.8 L 13.6 88.1 L 21.4 83.7 L 28.9 79.2 L 36.0 74.6 L 42.8 69.9 L 49.3 64.9 L 55.5 59.8 L 61.3 54.4 L 66.7 48.8 L 71.9 43.0 L 76.04592056274414 37.73122596740723 L 76.0 37.7 L 77.1 36.4 Z M 147.3 66.4 L 143.5 62.9 L 139.6 59.5 L 135.6 56.1 L 131.5 52.7 L 127.2 49.3 L 122.8 45.8 L 118.4 42.2 L 119.3 40.6 L 124.7 42.5 L 130.0 44.7 L 135.0 47.2 L 139.9 49.8 L 144.6 52.6 L 149.2 55.6 L 153.6 58.6 L 157.9 61.8 L 162.1 65.1 L 166.1 68.6 L 167.8 72.8 L 166.1 77.1 L 161.8 78.8 L 157.6 77.1 L 154.3 73.4 Z M 13.5 59.6 L 12.6 55.2 L 15.0 51.3 L 17.1 50.1 L 19.1 48.4 L 21.0 46.3 L 22.8 43.6 L 24.4 40.3 L 25.9 36.5 L 27.2 32.2 L 28.4 27.3 L 29.4 21.9 L 30.1 16.0 L 31.9 15.9 L 32.7 22.0 L 33.05087718963623 26.0 L 170.0 26.0 L 170.5310344696045 25.55747127532959 L 170.8 24.9 L 171.10397272109986 25.080022716522215 L 176.0 21.0 L 187.0 30.0 L 182.0 33.0 L 177.9555555343628 34.68518514633179 L 177.6 35.1 L 175.6 37.4 L 173.5 39.8 L 171.2 42.4 L 168.7 45.1 L 166.0 48.0 L 163.0 51.0 L 159.8 54.1 L 156.7 57.5 L 155.2 56.4 L 157.5 52.4 L 159.4 48.4 L 161.3 44.7 L 163.1 41.2 L 164.7 38.0 L 166.2 34.9 L 167.6 32.1 L 168.5692307472229 30.0 L 33.24339618682861 30.0 L 33.3 33.0 L 32.9 38.0 L 32.2 42.7 L 31.1 47.1 L 29.5 51.2 L 27.4 54.9 L 24.9 58.3 L 21.8 61.2 L 17.3 62.1 Z " />
</g>
</svg>
