<svg xmlns="http://www.w3.org/2000/svg" xmlns:xlink="http://www.w3.org/1999/xlink" version="1.1" baseProfile="full" viewBox="0 0 200 200" width="200" height="200">
<g fill="black">
<path d="M 48.0 187.0 L 38.0 177.0 L 44.0 171.0 L 44.0 104.0 L 56.0 106.0 L 59.0 108.0 L 56.0 109.8 L 56.0 175.0 L 97.0 175.0 L 97.0 88.0 L 20.0 88.0 L 20.0 84.0 L 97.0 84.0 L 97.0 45.0 L 57.693548393249515 45.0 L 54.8 49.6 L 50.4 55.7 L 45.7 61.7 L 40.5 67.5 L 34.8 73.2 L 28.6 78.6 L 27.3 77.3 L 31.9 70.7 L 36.3 64.2 L 40.4 57.8 L 44.1 51.5 L 47.5 45.3 L 50.5 39.1 L 53.2 32.8 L 55.4 26.7 L 57.3 20.5 L 58.64002590179443 15.30739974975586 L 58.6 15.3 L 58.86000003814697 14.455000019073486 L 58.9 14.3 L 58.907090473175046 14.30195598602295 L 59.4 12.7 L 70.5 17.5 L 72.8 20.2 L 69.13768119812012 21.24637680053711 L 68.1 24.1 L 65.4 30.6 L 62.3 37.1 L 60.07142858505249 41.0 L 147.0 41.0 L 157.0 31.0 L 169.0 41.0 L 169.0 45.0 L 109.0 45.0 L 109.0 84.0 L 162.0 84.0 L 172.0 74.0 L 184.0 84.0 L 184.0 88.0 L 109.0 88.0 L 109.0 123.0 L 151.0 123.0 L 161.0 113.0 L 173.0 123.0 L 173.0 127.0 L 109.0 127.0 L 109.0 175.0 L 162.0 175.0 L 172.0 165.0 L 184.0 175.0 L 184.0 179.0 L 56.0 179.0 Z " />
</g>
</svg>
