<svg xmlns="http://www.w3.org/2000/svg" xmlns:xlink="http://www.w3.org/1999/xlink" version="1.1" baseProfile="full" viewBox="0 0 200 200" width="200" height="200">
<g fill="black">
<path d="M 163.3 104.3 L 163.3 108.3 L 122.5 108.3 L 122.5 129.5 L 160.9181818008423 129.5 L 169.1 120.5 L 179.1 129.5 L 179.1 133.5 L 122.5 133.5 L 122.5 150.0 L 146.7 150.0 L 152.7 145.0 L 163.7 154.0 L 158.7 158.0 L 158.7 180.7 L 146.7 186.7 L 146.7 178.7 L 86.2 178.7 L 86.2 181.7 L 74.2 187.7 L 74.2 144.0 L 86.2 150.0 L 110.5 150.0 L 110.5 133.5 L 55.3 133.5 L 55.3 129.5 L 110.5 129.5 L 110.5 108.3 L 71.2 108.3 L 71.2 104.3 L 141.3 104.3 L 151.3 94.3 Z M 86.2 154.0 L 86.2 174.7 L 146.7 174.7 L 146.7 154.0 Z M 173.0 64.5 L 175.0 64.5 L 173.0 77.5 L 175.7 79.3 L 177.5 82.0 L 175.7 84.7 L 173.0 86.5 L 134.5 86.5 L 132.2 86.2 L 129.9 85.6 L 127.7 84.6 L 125.7 83.2 L 124.1 81.3 L 122.7 79.2 L 121.8 76.9 L 121.2 74.5 L 121.0 72.0 L 121.0 63.0 L 101.55 63.0 L 99.3 67.5 L 96.4 71.7 L 92.9 75.6 L 88.9 79.2 L 84.3 82.6 L 79.2 85.6 L 73.5 88.4 L 67.3 90.9 L 60.6 93.0 L 53.3 94.8 L 52.6 93.1 L 59.1 89.5 L 65.0 86.0 L 70.3 82.6 L 75.0 79.2 L 79.1 75.8 L 82.6 72.4 L 85.4 69.0 L 87.6 65.6 L 88.86060609817505 63.0 L 52.0 63.0 L 52.0 105.0 L 51.86757497787475 105.19863758087158 L 51.9 105.2 L 50.9 116.0 L 49.3 126.4 L 47.1 136.2 L 44.3 145.5 L 40.9 154.2 L 36.9 162.4 L 32.3 170.0 L 27.0 176.9 L 21.1 183.1 L 14.6 188.6 L 13.3 187.3 L 18.2 180.7 L 22.6 173.8 L 26.6 166.6 L 30.1 159.1 L 33.0 151.2 L 35.4 142.8 L 37.3 134.0 L 38.7 124.7 L 39.6 115.0 L 40.0 104.7 L 40.0 60.63478260040283 L 38.5 61.7 L 31.2 66.2 L 23.5 70.2 L 15.4 73.7 L 14.5 72.2 L 21.6 67.0 L 28.2 61.8 L 34.5 56.5 L 40.4 51.0 L 45.9 45.4 L 50.9 39.5 L 55.6 33.5 L 59.9 27.2 L 63.7 20.7 L 66.7244439125061 14.910350131988526 L 66.7 14.9 L 67.7 13.0 L 77.8 19.6 L 79.5 22.8 L 75.69493227005005 22.99681386947632 L 73.4 26.7 L 69.60298509597779 32.0 L 123.0 32.0 L 123.3915789604187 31.673684215545656 L 124.0 30.6 L 124.37525081634521 30.853957653045654 L 129.0 27.0 L 140.0 36.0 L 135.0 39.0 L 130.97064218521118 40.678899097442624 L 128.8 43.1 L 126.0 45.9 L 123.1 48.6 L 120.1 51.2 L 116.9 53.7 L 113.5 56.2 L 110.0 58.4 L 108.94285717010499 59.0 L 159.8181818008423 59.0 L 168.0 50.0 L 178.0 59.0 L 178.0 63.0 L 133.0 63.0 L 133.0 72.0 L 132.9 73.2 L 132.9 74.2 L 133.0 74.9 L 133.0 75.4 L 133.2 75.7 L 133.4 76.1 L 133.8 76.5 L 134.5 76.9 L 135.6 77.2 L 137.0 77.5 L 168.5 77.5 Z M 66.4875 36.0 L 63.4 39.8 L 57.8 45.8 L 51.8 51.5 L 46.22823534011841 56.11411762237549 L 52.0 59.0 L 103.45806455612183 59.0 L 104.3 58.1 L 107.0 54.9 L 112.0 48.7 L 114.3 45.7 L 116.5 42.7 L 118.6 39.6 L 120.5 36.6 L 120.86000003814698 36.0 Z " />
</g>
</svg>
