<svg xmlns="http://www.w3.org/2000/svg" xmlns:xlink="http://www.w3.org/1999/xlink" version="1.1" baseProfile="full" viewBox="0 0 200 200" width="200" height="200">
<g fill="black">
<path d="M 138.0 176.5 L 158.0 176.5 L 159.2 176.4 L 160.1 176.3 L 160.7 176.1 L 161.0 175.9 L 161.2 175.8 L 161.4 175.6 L 161.5 175.2 L 161.7 174.6 L 161.9 173.7 L 162.0 172.5 L 162.0 95.6 L 106.0 95.6 L 106.0 179.1 L 94.0 185.1 L 94.0 95.6 L 38.0 95.6 L 38.0 181.8 L 26.0 187.8 L 26.0 85.6 L 38.0 91.6 L 94.0 91.6 L 94.0 70.6 L 16.0 70.6 L 16.0 66.6 L 69.0 66.6 L 69.0 39.0 L 26.0 39.0 L 26.0 35.0 L 69.0 35.0 L 69.0 12.0 L 81.0 14.0 L 84.0 16.0 L 81.0 17.8 L 81.0 66.6 L 116.0 66.6 L 116.0 12.0 L 128.0 14.0 L 131.0 16.0 L 128.0 17.8 L 128.0 35.0 L 152.0 35.0 L 162.0 25.0 L 174.0 35.0 L 174.0 39.0 L 128.0 39.0 L 128.0 66.6 L 165.8181818008423 66.6 L 174.0 57.6 L 184.0 66.6 L 184.0 70.6 L 106.0 70.6 L 106.0 91.6 L 162.0 91.6 L 168.0 86.6 L 179.0 95.6 L 174.0 99.6 L 174.0 172.5 L 173.8 175.1 L 173.4 177.6 L 172.6 180.0 L 171.3 182.2 L 169.7 184.2 L 167.7 185.9 L 165.4 187.1 L 163.0 187.9 L 160.5 188.4 L 158.0 188.5 L 158.0 182.5 L 138.0 179.5 Z M 155.5 151.1 L 155.5 155.1 L 112.9 155.1 L 112.9 151.1 L 137.3181818008423 151.1 L 145.5 142.1 Z M 87.5 151.1 L 87.5 155.1 L 44.9 155.1 L 44.9 151.1 L 69.31818180084228 151.1 L 77.5 142.1 Z M 87.5 120.0 L 87.5 124.0 L 44.9 124.0 L 44.9 120.0 L 69.31818180084228 120.0 L 77.5 111.0 Z M 155.5 120.0 L 155.5 124.0 L 112.9 124.0 L 112.9 120.0 L 137.3181818008423 120.0 L 145.5 111.0 Z " />
</g>
</svg>
