<svg xmlns="http://www.w3.org/2000/svg" xmlns:xlink="http://www.w3.org/1999/xlink" version="1.1" baseProfile="full" viewBox="0 0 200 200" width="200" height="200">
<g fill="black">
<path d="M 145.0 176.0 L 159.0 176.0 L 160.2 175.9 L 161.1 175.7 L 162.0 175.4 L 162.4 175.0 L 162.7 174.1 L 162.9 173.2 L 163.0 172.0 L 163.0 94.0 L 106.0 94.0 L 106.0 180.0 L 94.0 186.0 L 94.0 94.0 L 37.0 94.0 L 37.0 183.0 L 25.0 189.0 L 25.0 84.0 L 37.0 90.0 L 94.0 90.0 L 94.0 70.0 L 24.0 70.0 L 24.0 66.0 L 157.8181818008423 66.0 L 166.0 57.0 L 176.0 66.0 L 176.0 70.0 L 106.0 70.0 L 106.0 90.0 L 163.0 90.0 L 169.0 85.0 L 180.0 94.0 L 175.0 98.0 L 175.0 172.0 L 174.8 174.5 L 174.4 177.0 L 173.6 179.4 L 172.3 181.7 L 170.7 183.7 L 168.7 185.3 L 166.4 186.6 L 164.0 187.4 L 161.5 187.8 L 159.0 188.0 L 159.0 182.0 L 145.0 179.0 Z M 44.8 155.2 L 49.0 153.4 L 57.6 150.0 L 62.0 148.2 L 66.4 146.6 L 70.8 144.9 L 75.4 143.3 L 79.9 141.7 L 84.6 140.3 L 89.4 139.0 L 90.2 140.6 L 86.2 143.6 L 82.2 146.4 L 78.2 149.0 L 74.1 151.6 L 70.1 154.1 L 66.0 156.5 L 58.0 161.3 L 54.1 163.6 L 53.797683238983154 163.77383213043214 L 53.3 167.7 L 50.1 165.9 L 43.0 156.1 Z M 142.4 160.8 L 140.3 159.0 L 137.6 157.0 L 134.3 154.8 L 130.5 152.5 L 126.1 150.0 L 121.2 147.3 L 115.7 144.4 L 109.8 141.4 L 110.4 139.7 L 116.9 141.3 L 123.0 142.7 L 128.5 144.3 L 133.4 145.9 L 137.9 147.4 L 141.9 149.0 L 145.4 150.5 L 148.5 152.1 L 151.2 153.7 L 153.6 155.5 L 155.0 159.8 L 153.0 164.0 L 148.7 165.4 L 144.6 163.5 L 143.8 162.3 Z M 74.1 126.3 L 72.8 124.8 L 70.9 123.0 L 68.5 121.0 L 65.6 118.9 L 62.2 116.6 L 58.3 114.2 L 54.0 111.5 L 49.1 108.9 L 49.8 107.2 L 55.1 108.8 L 60.1 110.1 L 64.6 111.5 L 68.7 112.9 L 72.4 114.2 L 75.6 115.6 L 78.5 117.0 L 81.0 118.5 L 83.2 120.2 L 85.1 122.2 L 85.6 126.8 L 82.9 130.4 L 78.3 130.9 L 74.7 128.1 L 74.7 127.5 Z M 147.0956521987915 106.89565219879151 L 153.2 113.0 L 153.3 116.4 L 149.48790321350097 114.8225806236267 L 149.0 115.0 L 146.4 116.0 L 143.3 117.1 L 139.9 118.4 L 136.0 119.9 L 131.8 121.5 L 127.0 123.2 L 121.9 125.0 L 116.2 126.9 L 110.2 129.0 L 109.4 127.3 L 114.8 123.9 L 119.7 120.6 L 124.3 117.7 L 128.6 115.0 L 132.4 112.6 L 135.8 110.4 L 138.8 108.4 L 141.4 106.6 L 143.6 105.0 L 144.48421049118042 104.3238389968872 L 144.4 104.2 L 144.50666666030884 104.30666666030884 L 145.3 103.7 Z M 134.7 21.8 L 136.3 25.0 L 132.18419246673585 25.069759464263917 L 128.8 29.3 L 124.6 34.3 L 122.3 36.7 L 120.0 39.2 L 117.6 41.6 L 115.0 43.9 L 114.9115385055542 44.0 L 162.0 44.0 L 172.0 34.0 L 184.0 44.0 L 184.0 48.0 L 16.0 48.0 L 16.0 44.0 L 111.94666662216187 44.0 L 112.8 42.4 L 114.1 39.2 L 115.4 36.1 L 116.8 33.1 L 118.1 30.1 L 120.7 24.3 L 121.9 21.4 L 123.1 18.6 L 123.82386703491211 16.757429313659667 L 123.7 16.7 L 124.11000003814698 16.029090881347656 L 124.2 15.8 L 124.23705883026123 15.821176433563233 L 124.8 14.9 Z M 71.5 34.7 L 70.9 32.7 L 70.2 30.7 L 69.3 28.7 L 68.3 26.7 L 67.1 24.8 L 65.8 22.8 L 64.3 20.8 L 62.4 19.2 L 63.3 17.7 L 65.6 18.8 L 68.2 19.8 L 70.6 21.0 L 72.9 22.4 L 75.0 24.0 L 77.1 25.9 L 78.9 27.9 L 80.7 30.2 L 82.3 32.6 L 83.7 35.2 L 83.3 39.8 L 79.9 42.8 L 75.3 42.4 L 72.3 39.0 L 72.0 36.8 Z " />
</g>
</svg>
