<svg xmlns="http://www.w3.org/2000/svg" xmlns:xlink="http://www.w3.org/1999/xlink" version="1.1" baseProfile="full" viewBox="0 0 200 200" width="200" height="200">
<g fill="black">
<path d="M 145.0 176.0 L 159.0 176.0 L 160.2 175.9 L 161.1 175.7 L 162.0 175.4 L 162.4 175.0 L 162.7 174.1 L 162.9 173.2 L 163.0 172.0 L 163.0 94.0 L 106.0 94.0 L 106.0 180.0 L 94.0 186.0 L 94.0 94.0 L 37.0 94.0 L 37.0 183.0 L 25.0 189.0 L 25.0 84.0 L 37.0 90.0 L 94.0 90.0 L 94.0 70.0 L 16.0 70.0 L 16.0 66.0 L 64.0 66.0 L 64.0 37.0 L 26.0 37.0 L 26.0 33.0 L 64.0 33.0 L 64.0 12.0 L 76.0 14.0 L 79.0 16.0 L 76.0 17.8 L 76.0 33.0 L 124.0 33.0 L 124.0 12.0 L 136.0 14.0 L 139.0 16.0 L 136.0 17.8 L 136.0 33.0 L 152.0 33.0 L 162.0 23.0 L 174.0 33.0 L 174.0 37.0 L 136.0 37.0 L 136.0 66.0 L 162.0 66.0 L 172.0 56.0 L 184.0 66.0 L 184.0 70.0 L 106.0 70.0 L 106.0 90.0 L 163.0 90.0 L 169.0 85.0 L 180.0 94.0 L 175.0 98.0 L 175.0 172.0 L 174.8 174.5 L 174.4 177.0 L 173.6 179.4 L 172.3 181.7 L 170.7 183.7 L 168.7 185.3 L 166.4 186.6 L 164.0 187.4 L 161.5 187.8 L 159.0 188.0 L 159.0 182.0 L 145.0 179.0 Z M 157.0 150.0 L 113.0 150.0 L 113.0 146.0 L 157.0 146.0 Z M 88.0 150.0 L 44.0 150.0 L 44.0 146.0 L 88.0 146.0 Z M 88.0 120.0 L 44.0 120.0 L 44.0 116.0 L 88.0 116.0 Z M 157.0 120.0 L 113.0 120.0 L 113.0 116.0 L 157.0 116.0 Z M 76.0 37.0 L 76.0 66.0 L 124.0 66.0 L 124.0 37.0 Z " />
</g>
</svg>
