<svg xmlns="http://www.w3.org/2000/svg" xmlns:xlink="http://www.w3.org/1999/xlink" version="1.1" baseProfile="full" viewBox="0 0 200 200" width="200" height="200">
<g fill="black">
<path d="M 68.0 134.0 L 135.0 134.0 L 141.0 129.0 L 152.0 138.0 L 147.0 142.0 L 147.0 184.0 L 135.0 190.0 L 135.0 184.0 L 68.0 184.0 L 56.0 190.0 L 56.0 128.0 Z M 68.0 168.0 L 68.0 180.0 L 135.0 180.0 L 135.0 168.0 Z M 68.0 153.0 L 68.0 164.0 L 135.0 164.0 L 135.0 153.0 Z M 68.0 138.0 L 68.0 149.0 L 135.0 149.0 L 135.0 138.0 Z M 73.9 116.6 L 72.84706344604493 114.96209869384765 L 71.5 116.0 L 65.0 120.4 L 58.2 124.4 L 51.0 128.1 L 43.5 131.5 L 35.6 134.4 L 27.3 136.8 L 26.6 135.1 L 34.0 130.9 L 41.0 126.7 L 47.7 122.4 L 54.1 118.0 L 60.1 113.4 L 65.7 108.7 L 66.7627784729004 107.71743116378784 L 64.0 105.3 L 60.3 102.5 L 56.2 99.7 L 51.7 96.9 L 46.6 94.1 L 47.2 92.4 L 52.9 93.7 L 58.3 95.2 L 63.3 97.0 L 67.9 99.2 L 72.2 101.6 L 72.7430235862732 101.9858325958252 L 75.9 98.7 L 80.4 93.5 L 84.6 88.0 L 84.64592084884643 88.03663902282715 L 85.1 87.5 L 94.0 95.5 L 95.1 98.9 L 91.33700256347656 98.37186002731323 L 88.9 101.0 L 83.5 106.3 L 80.8022304534912 108.58624534606933 L 82.6 110.5 L 85.2 114.1 L 87.4 117.9 L 87.3 122.5 L 84.1 125.7 L 79.5 125.6 L 76.3 122.4 L 75.3 119.5 Z M 147.5 129.0 L 141.6 125.5 L 135.8 121.8 L 130.1 117.8 L 125.7005316734314 114.44040603637696 L 123.7 115.7 L 118.0 119.3 L 112.0 123.0 L 105.5 126.7 L 104.4 125.2 L 109.7 120.0 L 114.8 115.0 L 119.7 110.5 L 120.30793933868408 109.94380016326905 L 119.2 109.0 L 113.9 104.2 L 108.8 99.0 L 104.1 93.3 L 105.3 91.9 L 111.5 95.8 L 117.5 99.5 L 123.4 103.2 L 126.02388820648193 104.75654382705689 L 128.9 102.2 L 133.2 98.5 L 137.1 95.0 L 140.9 91.7 L 144.3 88.6 L 146.7506646156311 86.45566844940186 L 146.7 86.4 L 147.18000001907347 86.08000001907348 L 147.2714285850525 86.0 L 96.0 86.0 L 93.4 85.8 L 90.9 85.4 L 88.5 84.6 L 86.2 83.3 L 84.2 81.7 L 82.6 79.7 L 81.3 77.4 L 80.5 75.0 L 80.1 72.5 L 80.0 70.0 L 80.0 67.49666662216187 L 49.1 69.9 L 48.8 66.0 L 80.0 63.57333335876465 L 80.0 47.0 L 92.0 49.0 L 95.0 51.0 L 92.0 52.8 L 92.0 62.63999996185303 L 116.79723072052002 60.71132650375366 L 126.1 49.9 L 138.8 59.0 L 139.1 62.9 L 92.0 66.56333332061767 L 92.0 71.2 L 92.2 72.1 L 92.5 73.0 L 92.9 73.4 L 93.8 73.7 L 94.7 73.9 L 96.0 74.0 L 152.0 74.0 L 155.6 76.4 L 158.0 80.0 L 155.6 83.6 L 152.0 86.0 L 147.75157890319824 86.0 L 154.8 95.3 L 155.0 98.9 L 151.4631579399109 97.52456140518188 L 151.2 97.7 L 147.4 100.2 L 143.2 102.9 L 138.8 105.9 L 134.1 109.0 L 133.81257829666137 109.18969831466674 L 135.1 109.9 L 141.0 113.0 L 146.8 115.8 L 152.7 118.4 L 158.5 120.7 L 164.4 122.8 L 171.0 125.5 L 159.5 135.1 L 153.4 132.1 Z M 38.3 46.0 L 37.9 51.0 L 37.2 55.7 L 36.1 60.1 L 34.5 64.2 L 32.4 67.9 L 29.9 71.3 L 26.8 74.2 L 22.3 75.1 L 18.5 72.6 L 17.6 68.2 L 20.0 64.3 L 22.1 63.1 L 24.1 61.4 L 26.0 59.3 L 27.8 56.6 L 29.4 53.3 L 30.9 49.5 L 32.2 45.2 L 33.4 40.3 L 34.4 34.9 L 35.1 29.0 L 36.9 28.9 L 37.7 35.0 L 38.2 40.7 L 38.205660343170166 41.0 L 89.0 41.0 L 89.0 12.0 L 101.0 14.0 L 104.0 16.0 L 101.0 17.8 L 101.0 26.0 L 143.0 26.0 L 153.0 16.0 L 165.0 26.0 L 165.0 30.0 L 101.0 30.0 L 101.0 41.0 L 171.525 41.0 L 171.9 40.1 L 172.0 39.85555553436279 L 172.0 39.0 L 172.5310344696045 38.55747127532959 L 172.8 37.9 L 173.10397272109986 38.080022716522215 L 178.0 34.0 L 189.0 43.0 L 184.0 46.0 L 180.1111110687256 47.620370388031006 L 179.7 48.1 L 177.7 50.3 L 175.6 52.6 L 173.4 55.1 L 171.0 57.7 L 168.4 60.5 L 165.6 63.3 L 162.6 66.2 L 159.7 69.5 L 158.2 68.4 L 160.3 64.6 L 162.1 60.8 L 163.8 57.3 L 165.5 53.9 L 167.0 50.8 L 168.4 47.8 L 169.7 45.0 L 38.28113203048706 45.0 Z " />
</g>
</svg>
