<svg xmlns="http://www.w3.org/2000/svg" xmlns:xlink="http://www.w3.org/1999/xlink" version="1.1" baseProfile="full" viewBox="0 0 200 200" width="200" height="200">
<g fill="black">
<path d="M 153.4 132.5 L 145.6 129.2 L 138.1 125.6 L 130.9 121.7 L 123.9 117.5 L 117.2 113.0 L 110.9 108.1 L 104.9 102.8 L 103.97993726730347 101.82975206375122 L 100.6 104.8 L 93.6 110.2 L 86.1 115.2 L 78.3 119.9 L 70.1 124.1 L 61.5 128.0 L 58.39130430221557 129.1956521987915 L 68.0 134.0 L 135.0 134.0 L 141.0 129.0 L 152.0 138.0 L 147.0 142.0 L 147.0 184.0 L 135.0 190.0 L 135.0 184.0 L 68.0 184.0 L 56.0 190.0 L 56.0 130.11538457870483 L 52.4 131.5 L 43.0 134.6 L 33.1 137.2 L 22.9 139.2 L 22.4 137.5 L 32.0 133.6 L 41.1 129.6 L 49.9 125.5 L 58.2 121.2 L 63.91999998092651 117.9 L 62.0 117.9 L 58.7 114.7 L 58.7 114.0 L 58.2 112.8 L 57.3 111.3 L 55.8 109.5 L 53.9 107.6 L 51.5 105.6 L 48.6 103.4 L 45.3 101.1 L 41.7 98.6 L 37.5 96.3 L 38.1 94.7 L 42.8 96.1 L 47.1 97.3 L 51.1 98.5 L 54.7 99.8 L 58.0 101.2 L 60.9 102.6 L 63.6 104.1 L 65.9 105.8 L 67.9 107.7 L 69.7 110.0 L 69.7 114.33199996948242 L 73.5 111.9 L 80.4 107.0 L 86.9 101.7 L 93.0 96.2 L 99.0 90.2 L 107.2 99.0 L 107.26514654159546 99.32573289871216 L 107.4 99.4 L 114.2 103.2 L 121.0 106.8 L 128.0 110.2 L 134.54437866210938 113.19171600341797 L 136.0 112.1 L 139.8 108.9 L 143.3 105.9 L 146.5 103.2 L 149.3 100.8 L 151.8 98.6 L 153.9 96.6 L 155.6 94.9 L 156.9 93.5 L 157.10187797546388 93.19718313217163 L 156.9 93.0 L 157.8 92.2 L 165.5 101.4 L 166.0 105.0 L 161.47938928604125 103.54694652557373 L 159.4 104.5 L 156.7 105.9 L 153.6 107.3 L 150.2 109.0 L 146.4 110.7 L 142.1 112.6 L 137.7486041069031 114.49191122055053 L 142.3 116.3 L 149.7 119.0 L 157.3 121.4 L 165.0 123.6 L 172.9 125.5 L 181.3 127.7 L 169.6 138.2 L 161.3 135.5 Z M 68.0 168.0 L 68.0 180.0 L 135.0 180.0 L 135.0 168.0 Z M 68.0 153.0 L 68.0 164.0 L 135.0 164.0 L 135.0 153.0 Z M 68.0 138.0 L 68.0 149.0 L 135.0 149.0 L 135.0 138.0 Z M 158.0 80.0 L 155.6 83.6 L 152.0 86.0 L 96.0 86.0 L 93.4 85.8 L 90.9 85.4 L 88.5 84.6 L 86.2 83.3 L 84.2 81.7 L 82.6 79.7 L 81.3 77.4 L 80.5 75.0 L 80.1 72.5 L 80.0 70.0 L 80.0 67.49666662216187 L 49.1 69.9 L 48.8 66.0 L 80.0 63.57333335876465 L 80.0 47.0 L 92.0 49.0 L 95.0 51.0 L 92.0 52.8 L 92.0 62.63999996185303 L 116.79723072052002 60.71132650375366 L 126.1 49.9 L 138.8 59.0 L 139.1 62.9 L 92.0 66.56333332061767 L 92.0 71.2 L 92.2 72.1 L 92.5 73.0 L 92.9 73.4 L 93.8 73.7 L 94.7 73.9 L 96.0 74.0 L 152.0 74.0 L 155.6 76.4 Z M 38.3 46.0 L 37.9 51.0 L 37.2 55.7 L 36.1 60.1 L 34.5 64.2 L 32.4 67.9 L 29.9 71.3 L 26.8 74.2 L 22.3 75.1 L 18.5 72.6 L 17.6 68.2 L 20.0 64.3 L 22.1 63.1 L 24.1 61.4 L 26.0 59.3 L 27.8 56.6 L 29.4 53.3 L 30.9 49.5 L 32.2 45.2 L 33.4 40.3 L 34.4 34.9 L 35.1 29.0 L 36.9 28.9 L 37.7 35.0 L 38.2 40.7 L 38.205660343170166 41.0 L 89.0 41.0 L 89.0 12.0 L 101.0 14.0 L 104.0 16.0 L 101.0 17.8 L 101.0 26.0 L 143.0 26.0 L 153.0 16.0 L 165.0 26.0 L 165.0 30.0 L 101.0 30.0 L 101.0 41.0 L 171.525 41.0 L 171.9 40.1 L 172.0 39.85555553436279 L 172.0 39.0 L 172.5310344696045 38.55747127532959 L 172.8 37.9 L 173.10397272109986 38.080022716522215 L 178.0 34.0 L 189.0 43.0 L 184.0 46.0 L 180.1111110687256 47.620370388031006 L 179.7 48.1 L 177.7 50.3 L 175.6 52.6 L 173.4 55.1 L 171.0 57.7 L 168.4 60.5 L 165.6 63.3 L 162.6 66.2 L 159.7 69.5 L 158.2 68.4 L 160.3 64.6 L 162.1 60.8 L 163.8 57.3 L 165.5 53.9 L 167.0 50.8 L 168.4 47.8 L 169.7 45.0 L 38.28113203048706 45.0 Z " />
</g>
</svg>
