<svg xmlns="http://www.w3.org/2000/svg" xmlns:xlink="http://www.w3.org/1999/xlink" version="1.1" baseProfile="full" viewBox="0 0 200 200" width="200" height="200">
<g fill="black">
<path d="M 87.9 111.6 L 86.84706344604493 109.96209869384765 L 85.5 111.0 L 79.0 115.4 L 72.2 119.4 L 65.0 123.1 L 63.53146848678589 123.76573429107665 L 74.0 129.0 L 151.0 129.0 L 157.0 124.0 L 168.0 133.0 L 163.0 137.0 L 163.0 183.0 L 151.0 189.0 L 151.0 181.0 L 74.0 181.0 L 74.0 184.0 L 62.0 190.0 L 62.0 124.46000003814697 L 57.5 126.5 L 49.6 129.4 L 41.3 131.8 L 40.6 130.1 L 48.0 125.9 L 55.0 121.7 L 61.7 117.4 L 68.1 113.0 L 74.1 108.4 L 79.7 103.7 L 80.7627784729004 102.71743116378784 L 78.0 100.3 L 74.3 97.5 L 70.2 94.7 L 65.7 91.9 L 60.6 89.1 L 61.2 87.4 L 66.9 88.7 L 72.3 90.2 L 77.3 92.0 L 81.9 94.2 L 86.2 96.6 L 86.7430235862732 96.9858325958252 L 89.9 93.7 L 94.4 88.5 L 98.6 83.0 L 98.64592084884643 83.03663902282715 L 99.1 82.5 L 108.0 90.5 L 109.1 93.9 L 105.33700256347656 93.37186002731323 L 102.9 96.0 L 97.5 101.3 L 94.8022304534912 103.58624534606933 L 96.6 105.5 L 99.2 109.1 L 101.4 112.9 L 101.3 117.5 L 98.1 120.7 L 93.5 120.6 L 90.3 117.4 L 89.3 114.5 Z M 74.0 164.0 L 74.0 177.0 L 151.0 177.0 L 151.0 164.0 Z M 74.0 148.0 L 74.0 160.0 L 151.0 160.0 L 151.0 148.0 Z M 74.0 133.0 L 74.0 144.0 L 151.0 144.0 L 151.0 133.0 Z M 161.5 124.0 L 155.6 120.5 L 149.8 116.8 L 144.1 112.8 L 139.70053167343139 109.44040603637696 L 137.7 110.7 L 132.0 114.3 L 126.0 118.0 L 119.5 121.7 L 118.4 120.2 L 123.7 115.0 L 128.8 110.0 L 133.7 105.5 L 134.3079393386841 104.94380016326905 L 133.2 104.0 L 127.9 99.2 L 122.8 94.0 L 118.1 88.3 L 119.3 86.9 L 125.5 90.8 L 131.5 94.5 L 137.4 98.2 L 140.02388820648193 99.75654382705689 L 142.9 97.2 L 147.2 93.5 L 151.1 90.0 L 154.9 86.7 L 158.3 83.6 L 160.7506646156311 81.45566844940186 L 160.7 81.4 L 161.18000001907347 81.08000001907348 L 161.5 80.8 L 161.5338747024536 80.84408349990845 L 161.6 80.8 L 168.8 90.3 L 169.0 93.9 L 165.4631579399109 92.52456140518188 L 165.2 92.7 L 161.4 95.2 L 157.2 97.9 L 152.8 100.9 L 148.1 104.0 L 147.81257829666137 104.18969831466674 L 149.1 104.9 L 155.0 108.0 L 160.8 110.8 L 166.7 113.4 L 172.5 115.7 L 178.4 117.8 L 185.0 120.5 L 173.5 130.1 L 167.4 127.1 Z M 166.98304347991944 53.57065219879151 L 166.5 53.9 L 164.2 55.4 L 161.8 56.8 L 159.6 58.6 L 158.3 57.3 L 160.1 55.1 L 161.4 52.7 L 162.8 50.3 L 164.2 48.1 L 165.5 45.9 L 166.8 43.8 L 167.8800000190735 42.0 L 96.0 42.0 L 99.0 44.0 L 96.0 45.8 L 96.0 55.68148145675659 L 130.83086919784546 53.42392511367798 L 140.2 42.8 L 152.8 52.0 L 153.1 55.9 L 96.0 59.6009259223938 L 96.0 63.2 L 96.2 64.1 L 96.5 65.0 L 96.9 65.4 L 97.8 65.7 L 98.7 65.9 L 100.0 66.0 L 164.0 66.0 Z M 39.4 120.8 L 37.9 131.6 L 35.8 141.7 L 33.3 151.0 L 30.3 159.6 L 26.7 167.4 L 22.6 174.4 L 17.9 180.5 L 12.6 185.5 L 11.3 184.4 L 14.8 178.3 L 17.9 171.8 L 20.7 164.8 L 23.1 157.2 L 25.1 148.9 L 26.7 139.9 L 27.9 130.2 L 28.7 119.9 L 29.0 108.8 L 29.0 32.0 L 41.0 38.0 L 90.0 38.0 L 90.0 12.0 L 102.0 14.0 L 105.0 16.0 L 102.0 17.8 L 102.0 23.0 L 143.0 23.0 L 153.0 13.0 L 165.0 23.0 L 165.0 27.0 L 102.0 27.0 L 102.0 38.0 L 170.0 38.0 L 170.61875 37.484375 L 171.4 36.0 L 171.88977394104003 36.42518835067749 L 176.0 33.0 L 187.0 42.0 L 182.0 45.0 L 175.34246578216553 47.77397260665894 L 174.9 48.1 L 172.9 49.5 L 171.21914892196656 50.760638332366945 L 170.0 66.0 L 173.6 68.4 L 176.0 72.0 L 173.6 75.6 L 170.0 78.0 L 100.0 78.0 L 97.4 77.8 L 94.9 77.4 L 92.5 76.6 L 90.2 75.3 L 88.2 73.7 L 86.6 71.7 L 85.3 69.4 L 84.5 67.0 L 84.1 64.5 L 84.0 62.0 L 84.0 60.3787036895752 L 45.1 62.9 L 44.8 59.0 L 84.0 56.45925922393799 L 84.0 42.0 L 41.0 42.0 L 41.0 97.0 L 40.4 109.2 Z " />
</g>
</svg>
