<svg xmlns="http://www.w3.org/2000/svg" xmlns:xlink="http://www.w3.org/1999/xlink" version="1.1" baseProfile="full" viewBox="0 0 200 200" width="200" height="200">
<g fill="black">
<path d="M 158.4 139.5 L 158.38141021728515 139.49487180709838 L 154.0 143.0 L 154.0 181.0 L 142.0 187.0 L 142.0 179.0 L 61.0 179.0 L 61.0 182.0 L 49.0 188.0 L 49.0 136.85566034317017 L 41.5 138.2 L 30.1 139.7 L 18.1 140.8 L 17.8 139.1 L 29.4 136.0 L 40.3 133.0 L 49.0 130.355882358551 L 49.0 129.0 L 50.681528663635255 129.84076433181764 L 60.0 126.8 L 68.6 123.6 L 76.6 120.2 L 83.7 116.8 L 90.1 113.2 L 95.7 109.6 L 99.7176326751709 106.41937417984009 L 99.7 106.4 L 99.96666669845581 106.22222223281861 L 100.5 105.8 L 100.53387470245362 105.84408349990845 L 100.6 105.8 L 104.86894865036011 111.43264055252075 L 109.5 113.3 L 115.8 115.8 L 122.4 118.2 L 129.4 120.5 L 136.7 122.7 L 144.3 124.6 L 152.4 126.4 L 160.8 127.9 L 169.7 129.3 L 178.9 130.4 L 188.9 131.9 L 177.0 143.5 L 167.5 141.6 Z M 61.0 166.0 L 61.0 175.0 L 142.0 175.0 L 142.0 166.0 Z M 61.0 153.0 L 61.0 162.0 L 142.0 162.0 L 142.0 153.0 Z M 61.0 139.0 L 61.0 149.0 L 142.0 149.0 L 142.0 139.0 Z M 108.1 118.9 L 104.36656713485718 117.47450742721557 L 101.8 119.1 L 95.2 122.7 L 87.9 125.9 L 80.0 128.9 L 71.4 131.6 L 62.1 134.1 L 60.086111068725586 134.5430555343628 L 61.0 135.0 L 142.0 135.0 L 142.37447547912598 134.68793706893922 L 141.5 134.4 L 133.7 131.5 L 126.3 128.3 L 119.5 124.8 L 113.1 121.1 L 107.9682243347168 117.31869163513184 Z M 74.98206300735474 99.64676218032837 L 80.8 105.6 L 81.0 109.0 L 77.28159513473511 107.46134967803955 L 75.3 108.4 L 71.2 110.1 L 66.8 111.7 L 62.0 113.3 L 57.0 114.8 L 51.5 116.3 L 45.7 117.6 L 39.6 118.9 L 33.1 120.0 L 26.2 120.8 L 25.7 119.1 L 32.1 116.3 L 38.1 113.8 L 43.7 111.4 L 49.1 109.1 L 54.0 106.8 L 58.6 104.7 L 62.8 102.5 L 66.6 100.4 L 70.0 98.3 L 72.2159722328186 96.82268514633179 L 72.2 96.8 L 72.2197247505188 96.820183467865 L 73.0 96.3 Z M 157.8 116.0 L 154.5 114.2 L 150.9 112.4 L 147.0 110.6 L 142.8 108.7 L 138.2 106.9 L 133.4 105.0 L 128.2 103.0 L 122.8 101.0 L 123.1 99.3 L 129.0 99.6 L 134.6 100.1 L 139.8 100.8 L 144.9 101.7 L 149.6 102.7 L 154.1 103.8 L 158.3 105.0 L 162.2 106.3 L 165.9 107.7 L 169.4 109.3 L 172.1 112.9 L 171.5 117.5 L 167.9 120.2 L 163.3 119.6 L 160.7 117.8 Z M 168.1 90.2 L 168.1 94.2 L 34.8 94.2 L 34.8 90.2 L 146.1 90.2 L 156.1 80.2 Z M 171.64715185165406 53.199683570861815 L 169.5 54.6 L 167.1 56.0 L 164.6 57.5 L 161.9 58.9 L 159.6 60.6 L 158.3 59.3 L 160.3 57.1 L 161.9 54.6 L 163.5 52.2 L 165.1 49.9 L 166.6 47.8 L 168.2 45.6 L 169.31999998092653 44.0 L 140.60645160675048 44.0 L 152.8 53.0 L 153.1 56.9 L 92.0 60.684955787658694 L 92.0 64.0 L 91.9 65.2 L 92.0 66.1 L 92.1 66.8 L 92.3 67.6 L 92.5 67.9 L 92.9 68.2 L 93.6 68.5 L 94.6 68.8 L 96.0 69.0 L 167.0 69.0 Z M 31.2 44.2 L 31.5 47.2 L 31.4 50.3 L 30.6 53.3 L 29.3 56.3 L 27.4 59.1 L 25.0 61.8 L 20.6 63.0 L 16.6 60.8 L 15.4 56.4 L 17.6 52.4 L 19.5 51.3 L 21.1 50.2 L 22.4 49.0 L 23.4 47.7 L 24.3 46.2 L 24.9 44.4 L 25.2 42.3 L 25.2 39.9 L 24.9 37.1 L 23.7 34.3 L 25.2 33.3 L 27.0 36.1 L 28.9 38.7 L 29.5259259223938 40.0 L 86.0 40.0 L 86.0 13.0 L 98.0 15.0 L 101.0 17.0 L 98.0 18.8 L 98.0 26.0 L 153.0 26.0 L 163.0 16.0 L 175.0 26.0 L 175.0 30.0 L 98.0 30.0 L 98.0 40.0 L 172.0 40.0 L 172.2880000114441 39.76000003814697 L 172.4 39.6 L 173.7 37.7 L 174.1818181991577 38.18181819915772 L 178.0 35.0 L 189.0 44.0 L 184.0 47.0 L 176.13333330154418 50.2777777671814 L 174.0 51.7 L 173.52857141494752 52.0 L 174.0 52.0 L 172.0 69.0 L 175.0 71.0 L 177.0 74.0 L 175.0 77.0 L 172.0 79.0 L 96.0 79.0 L 93.5 78.9 L 91.1 78.6 L 88.8 77.9 L 86.6 76.8 L 84.6 75.3 L 82.9 73.5 L 81.6 71.3 L 80.7 69.0 L 80.2 66.5 L 80.0 64.0 L 80.0 61.42831859588623 L 40.1 63.9 L 39.8 60.0 L 80.0 57.509734535217284 L 80.0 44.0 L 92.0 46.0 L 95.0 48.0 L 92.0 49.8 L 92.0 56.766371726989746 L 130.79635877609252 54.36305742263794 L 139.93543310165404 44.0 L 31.12857141494751 44.0 Z " />
</g>
</svg>
