<svg xmlns="http://www.w3.org/2000/svg" xmlns:xlink="http://www.w3.org/1999/xlink" version="1.1" baseProfile="full" viewBox="0 0 200 200" width="200" height="200">
<g fill="black">
<path d="M 81.0 164.0 L 81.0 175.0 L 148.0 175.0 L 148.0 164.0 Z M 81.0 150.0 L 81.0 160.0 L 148.0 160.0 L 148.0 150.0 Z M 81.0 136.0 L 81.0 146.0 L 148.0 146.0 L 148.0 136.0 Z M 164.38443937301636 136.4924485206604 L 160.0 140.0 L 160.0 181.0 L 148.0 187.0 L 148.0 179.0 L 81.0 179.0 L 81.0 182.0 L 69.0 188.0 L 69.0 133.14111108779906 L 62.9 134.7 L 53.3 136.5 L 43.1 137.8 L 42.8 136.1 L 52.4 132.8 L 61.4 129.5 L 69.0 126.51428575515747 L 69.0 126.0 L 69.57600002288818 126.2880000114441 L 69.8 126.2 L 77.6 122.8 L 84.8 119.3 L 91.3 115.6 L 97.1 111.8 L 102.4 107.8 L 107.0 103.7 L 110.2285590171814 100.22309026718139 L 110.2 100.2 L 111.2 99.2 L 117.26582050323486 105.41024475097656 L 121.6 107.7 L 127.0 110.5 L 132.6 113.2 L 138.4 115.7 L 144.5 118.1 L 151.0 120.3 L 157.8 122.4 L 165.0 124.3 L 172.5 126.0 L 180.4 127.5 L 189.3 129.5 L 177.5 140.4 L 169.4 138.1 Z M 114.4 112.3 L 108.7 116.5 L 102.5 120.3 L 95.7 123.8 L 88.3 127.0 L 80.4 129.9 L 78.13333330154418 130.5666666984558 L 81.0 132.0 L 148.0 132.0 L 149.45076332092285 130.79103050231933 L 147.3 129.9 L 140.7 126.6 L 134.6 123.1 L 128.9 119.4 L 123.7 115.4 L 119.13527603149414 111.0337423324585 L 116.50348072052002 110.47968015670776 Z M 172.0 55.5 L 174.0 55.5 L 172.0 68.5 L 174.7 70.3 L 176.5 73.0 L 174.7 75.7 L 172.0 77.5 L 167.8 77.5 L 178.0 86.0 L 178.0 90.0 L 89.825 90.0 L 96.8 99.3 L 97.0 103.0 L 93.18871126174926 101.44725275039673 L 93.1 101.5 L 89.3 103.5 L 85.3 105.5 L 81.0 107.2 L 76.5 108.9 L 71.7 110.5 L 66.7 111.8 L 61.5 113.1 L 56.0 114.0 L 50.2 114.8 L 49.7 113.1 L 54.9 110.6 L 59.8 108.2 L 64.5 105.8 L 68.9 103.6 L 73.0 101.3 L 76.9 99.0 L 80.5 96.7 L 83.8 94.4 L 86.8 92.1 L 88.88073396682739 90.39082565307618 L 88.8 90.3 L 89.2 90.0 L 52.0 90.0 L 52.0 86.0 L 156.0 86.0 L 164.5 77.5 L 99.5 77.5 L 97.2 77.2 L 94.9 76.6 L 92.7 75.6 L 90.7 74.2 L 89.1 72.3 L 87.7 70.2 L 86.8 67.9 L 86.2 65.5 L 86.0 63.0 L 86.0 61.3787036895752 L 47.1 63.9 L 46.8 60.0 L 86.0 57.45925922393799 L 86.0 43.0 L 42.0 43.0 L 42.0 98.0 L 41.4 110.4 L 40.4 122.1 L 39.0 133.1 L 37.0 143.4 L 34.6 153.0 L 31.6 161.7 L 28.2 169.7 L 24.3 176.9 L 19.7 183.2 L 14.6 188.5 L 13.3 187.4 L 16.5 181.2 L 19.5 174.5 L 22.1 167.3 L 24.4 159.4 L 26.3 150.9 L 27.9 141.8 L 29.0 131.9 L 29.7 121.3 L 30.0 110.0 L 30.0 33.0 L 42.0 39.0 L 92.0 39.0 L 92.0 12.0 L 104.0 14.0 L 107.0 16.0 L 104.0 17.8 L 104.0 23.0 L 145.0 23.0 L 155.0 13.0 L 167.0 23.0 L 167.0 27.0 L 104.0 27.0 L 104.0 39.0 L 172.0 39.0 L 172.537931060791 38.551724147796634 L 173.4 37.0 L 173.88977394104003 37.42518835067749 L 178.0 34.0 L 189.0 43.0 L 184.0 46.0 L 177.4 48.75 L 176.8 49.2 L 174.7 50.6 L 172.6 52.1 L 170.3 53.5 L 168.0 55.0 L 165.5 56.5 L 162.9 57.9 L 160.6 59.6 L 159.3 58.3 L 161.3 56.1 L 162.8 53.6 L 164.4 51.3 L 165.9 49.0 L 167.3 46.8 L 168.7 44.7 L 169.80500001907347 43.0 L 98.0 43.0 L 101.0 45.0 L 98.0 46.8 L 98.0 56.68148145675659 L 132.83086919784546 54.42392511367798 L 142.2 43.8 L 154.8 53.0 L 155.1 56.9 L 98.0 60.6009259223938 L 98.0 63.0 L 97.9 64.2 L 97.9 65.2 L 98.0 65.9 L 98.0 66.4 L 98.2 66.7 L 98.4 67.1 L 98.8 67.5 L 99.5 67.9 L 100.6 68.2 L 102.0 68.5 L 167.5 68.5 Z M 160.5 109.6 L 157.8 107.8 L 154.8 105.9 L 151.5 104.1 L 148.1 102.1 L 140.3 98.2 L 136.2 96.1 L 131.7 94.1 L 132.2 92.4 L 137.1 93.1 L 141.8 93.7 L 146.3 94.6 L 150.5 95.6 L 154.6 96.7 L 158.4 97.8 L 162.1 99.1 L 165.5 100.4 L 168.7 101.8 L 171.8 103.3 L 174.3 107.1 L 173.4 111.6 L 169.6 114.1 L 165.1 113.3 L 162.9 111.5 Z " />
</g>
</svg>
