<svg xmlns="http://www.w3.org/2000/svg" xmlns:xlink="http://www.w3.org/1999/xlink" version="1.1" baseProfile="full" viewBox="0 0 200 200" width="200" height="200">
<g fill="black">
<path d="M 157.93500003814697 124.76499996185302 L 168.0 133.0 L 163.0 137.0 L 163.0 183.0 L 151.0 189.0 L 151.0 181.0 L 74.0 181.0 L 74.0 184.0 L 62.0 190.0 L 62.0 126.9858823776245 L 54.4 129.4 L 45.4 131.6 L 44.8 129.9 L 53.0 125.9 L 60.7 121.8 L 68.2 117.6 L 75.2 113.1 L 80.84451169967652 109.16594638824463 L 78.3 109.0 L 75.2 105.6 L 75.2 104.8 L 74.9 103.5 L 74.2 101.9 L 73.0 100.2 L 71.5 98.2 L 67.2 93.9 L 64.5 91.6 L 61.5 89.1 L 57.9 86.8 L 58.7 85.2 L 62.6 86.8 L 66.5 88.0 L 70.0 89.4 L 73.2 90.8 L 76.1 92.3 L 78.7 93.9 L 81.1 95.5 L 83.2 97.3 L 85.0 99.3 L 86.5 101.6 L 86.27709922790527 105.0178116798401 L 88.1 103.6 L 94.0 98.4 L 99.5 93.0 L 104.7 87.3 L 108.83153209686279 82.22165842056275 L 108.8 82.2 L 109.9 80.9 L 118.7 89.0 L 119.32289152145385 90.98192768096924 L 124.3 94.3 L 130.3 98.1 L 136.3 101.7 L 141.3725341796875 104.4441577911377 L 142.4 103.5 L 145.6 100.2 L 148.5 97.2 L 151.1 94.4 L 153.5 91.9 L 155.5 89.7 L 157.2 87.7 L 158.6 85.9 L 159.6 84.4 L 159.72169809341432 84.17688674926758 L 159.5 84.0 L 160.5 82.9 L 168.9 91.5 L 169.7 95.1 L 164.94702196121216 94.01598749160766 L 163.4 94.9 L 161.0 96.3 L 158.3 97.9 L 155.2 99.7 L 151.9 101.6 L 148.1 103.6 L 144.0 105.7 L 143.91063833236694 105.75531911849976 L 148.6 108.1 L 155.0 110.9 L 161.5 113.4 L 168.1 115.7 L 174.9 117.7 L 182.5 120.1 L 170.9 130.3 L 163.8 127.4 Z M 74.0 164.0 L 74.0 177.0 L 151.0 177.0 L 151.0 164.0 Z M 74.0 148.0 L 74.0 160.0 L 151.0 160.0 L 151.0 148.0 Z M 74.0 133.0 L 74.0 144.0 L 151.0 144.0 L 151.0 133.0 Z M 113.0 95.1 L 106.9 100.8 L 100.5 106.1 L 93.7 111.0 L 86.5 115.6 L 79.0 119.7 L 71.2 123.4 L 66.52080535888672 125.26040267944336 L 74.0 129.0 L 151.0 129.0 L 156.73840446472167 124.21799631118775 L 150.2 120.9 L 143.8 117.1 L 137.6 113.0 L 131.6 108.6 L 125.9 103.9 L 120.5 98.9 L 115.5 93.4 L 115.0903733253479 92.86293382644654 Z M 166.98304347991944 53.57065219879151 L 166.5 53.9 L 164.2 55.4 L 161.8 56.8 L 159.6 58.6 L 158.3 57.3 L 160.1 55.1 L 161.4 52.7 L 162.8 50.3 L 164.2 48.1 L 165.5 45.9 L 166.8 43.8 L 167.8800000190735 42.0 L 96.0 42.0 L 99.0 44.0 L 96.0 45.8 L 96.0 55.68148145675659 L 130.83086919784546 53.42392511367798 L 140.2 42.8 L 152.8 52.0 L 153.1 55.9 L 96.0 59.6009259223938 L 96.0 63.2 L 96.2 64.1 L 96.5 65.0 L 96.9 65.4 L 97.8 65.7 L 98.7 65.9 L 100.0 66.0 L 164.0 66.0 Z M 39.4 120.8 L 37.9 131.6 L 35.8 141.7 L 33.3 151.0 L 30.3 159.6 L 26.7 167.4 L 22.6 174.4 L 17.9 180.5 L 12.6 185.5 L 11.3 184.4 L 14.8 178.3 L 17.9 171.8 L 20.7 164.8 L 23.1 157.2 L 25.1 148.9 L 26.7 139.9 L 27.9 130.2 L 28.7 119.9 L 29.0 108.8 L 29.0 32.0 L 41.0 38.0 L 90.0 38.0 L 90.0 12.0 L 102.0 14.0 L 105.0 16.0 L 102.0 17.8 L 102.0 23.0 L 143.0 23.0 L 153.0 13.0 L 165.0 23.0 L 165.0 27.0 L 102.0 27.0 L 102.0 38.0 L 170.0 38.0 L 170.61875 37.484375 L 171.4 36.0 L 171.88977394104003 36.42518835067749 L 176.0 33.0 L 187.0 42.0 L 182.0 45.0 L 175.34246578216553 47.77397260665894 L 174.9 48.1 L 172.9 49.5 L 171.21914892196656 50.760638332366945 L 170.0 66.0 L 173.6 68.4 L 176.0 72.0 L 173.6 75.6 L 170.0 78.0 L 100.0 78.0 L 97.4 77.8 L 94.9 77.4 L 92.5 76.6 L 90.2 75.3 L 88.2 73.7 L 86.6 71.7 L 85.3 69.4 L 84.5 67.0 L 84.1 64.5 L 84.0 62.0 L 84.0 60.3787036895752 L 45.1 62.9 L 44.8 59.0 L 84.0 56.45925922393799 L 84.0 42.0 L 41.0 42.0 L 41.0 97.0 L 40.4 109.2 Z " />
</g>
</svg>
