<svg xmlns="http://www.w3.org/2000/svg" xmlns:xlink="http://www.w3.org/1999/xlink" version="1.1" baseProfile="full" viewBox="0 0 200 200" width="200" height="200">
<g fill="black">
<path d="M 164.7 175.7 L 162.0 171.0 L 158.8 166.5 L 156.73312101364135 163.901637840271 L 147.5 166.1 L 134.6 168.8 L 121.4 171.1 L 107.9 173.3 L 94.1 175.3 L 80.1 177.1 L 65.8 178.8 L 51.2 180.3 L 36.4 181.7 L 25.37175807952881 182.57641658782958 L 23.5 185.8 L 21.3 182.9 L 18.6 171.0 L 20.6 170.9 L 35.6 170.3 L 50.4 169.6 L 65.0 168.8 L 79.2 167.8 L 93.3 166.8 L 94.0 166.74890508651734 L 94.0 131.8 L 51.0 131.8 L 51.0 143.8 L 39.0 149.8 L 39.0 87.9 L 51.0 93.9 L 94.0 93.9 L 94.0 69.8 L 106.0 71.8 L 109.0 73.8 L 106.0 75.6 L 106.0 93.9 L 149.0 93.9 L 155.0 88.9 L 166.0 97.9 L 161.0 101.9 L 161.0 131.8 L 149.0 137.8 L 149.0 131.8 L 106.0 131.8 L 106.0 165.87299270629882 L 107.0 165.8 L 120.6 164.6 L 133.9 163.5 L 146.9 162.4 L 154.9579044342041 161.71289186477662 L 151.5 157.8 L 147.2 153.6 L 142.6 149.5 L 137.7 145.5 L 132.4 141.4 L 133.3 139.8 L 139.6 142.2 L 145.7 145.1 L 151.3 148.4 L 156.5 152.1 L 161.4 156.1 L 165.9 160.4 L 170.1 165.0 L 173.8 170.0 L 177.2 175.2 L 180.2 180.7 L 180.3 185.2 L 177.2 188.6 L 172.6 188.6 L 169.2 185.5 L 167.2 180.5 Z M 51.0 97.9 L 51.0 127.8 L 94.0 127.8 L 94.0 97.9 Z M 106.0 97.9 L 106.0 127.8 L 149.0 127.8 L 149.0 97.9 Z M 44.0 78.0 L 32.0 84.0 L 32.0 27.0 L 44.0 29.0 L 47.0 31.0 L 44.0 32.8 L 44.0 62.0 L 94.0 62.0 L 94.0 14.0 L 106.0 16.0 L 109.0 18.0 L 106.0 19.8 L 106.0 62.0 L 155.0 62.0 L 155.0 27.0 L 167.0 29.0 L 170.0 31.0 L 167.0 32.8 L 167.0 72.0 L 155.0 78.0 L 155.0 66.0 L 44.0 66.0 Z " />
</g>
</svg>
