<svg xmlns="http://www.w3.org/2000/svg" xmlns:xlink="http://www.w3.org/1999/xlink" version="1.1" baseProfile="full" viewBox="0 0 200 200" width="200" height="200">
<g fill="black">
<path d="M 162.7 183.8 L 158.3 181.8 L 153.4 179.9 L 147.8 178.0 L 141.6 176.1 L 134.8 174.2 L 127.4 172.2 L 119.4 170.2 L 110.8 168.0 L 111.1 166.2 L 119.9 166.4 L 128.2 166.9 L 136.0 167.7 L 143.2 168.6 L 149.8 169.7 L 155.9 171.0 L 161.5 172.3 L 166.6 173.8 L 171.2 175.4 L 175.4 177.3 L 178.1 180.9 L 177.5 185.5 L 173.9 188.2 L 169.3 187.6 L 166.3 185.7 Z M 79.55169486999512 164.22711868286132 L 87.0 171.2 L 87.2 174.4 L 83.407985496521 172.87096185684203 L 79.0 174.5 L 73.9 176.2 L 68.3 177.9 L 62.2 179.5 L 55.7 181.1 L 48.6 182.7 L 41.0 184.2 L 32.9 185.6 L 24.3 186.8 L 15.1 187.8 L 14.8 186.1 L 23.5 183.1 L 31.7 180.4 L 39.4 177.8 L 46.6 175.4 L 53.3 173.0 L 59.4 170.7 L 65.0 168.4 L 70.1 166.2 L 74.5 164.1 L 77.63210334777833 162.4556457519531 L 77.6 162.4 L 77.64961776733398 162.44645071029663 L 78.5 162.0 Z M 66.0 106.0 L 133.0 106.0 L 139.0 101.0 L 150.0 110.0 L 145.0 114.0 L 145.0 160.0 L 133.0 166.0 L 133.0 160.0 L 66.0 160.0 L 54.0 166.0 L 54.0 100.0 Z M 66.0 144.0 L 66.0 156.0 L 133.0 156.0 L 133.0 144.0 Z M 66.0 127.0 L 66.0 140.0 L 133.0 140.0 L 133.0 127.0 Z M 66.0 110.0 L 66.0 123.0 L 133.0 123.0 L 133.0 110.0 Z M 105.0 42.4 L 106.8 45.5 L 102.68303985595703 45.93336420059204 L 101.0 48.5 L 100.5185185432434 49.0 L 163.8181818008423 49.0 L 172.0 40.0 L 182.0 49.0 L 182.0 53.0 L 118.75217390060425 53.0 L 119.0 53.1 L 124.9 55.3 L 130.9 57.5 L 137.1 59.4 L 143.6 61.1 L 150.4 62.7 L 157.4 63.9 L 164.8 65.0 L 172.5 65.8 L 180.6 66.4 L 191.2 67.4 L 179.3 79.5 L 170.9 78.2 L 162.8 76.6 L 160.27791566848754 75.97766752243042 L 159.0 77.0 L 159.0 96.0 L 147.0 102.0 L 147.0 94.0 L 51.0 94.0 L 51.0 97.0 L 39.0 103.0 L 39.0 75.20076923370361 L 28.3 76.6 L 14.1 77.8 L 13.8 76.1 L 27.6 72.9 L 39.0 69.91428575515747 L 39.0 63.0 L 47.66666669845581 67.33333330154419 L 51.4 66.2 L 61.4 62.6 L 70.2 58.8 L 77.6 54.7 L 80.0285714149475 53.0 L 18.0 53.0 L 18.0 49.0 L 85.23636360168457 49.0 L 88.4 46.1 L 91.8 41.7 L 93.73409090042114 38.0 L 38.0 38.0 L 26.0 44.0 L 26.0 16.0 L 38.0 18.0 L 41.0 20.0 L 38.0 21.8 L 38.0 34.0 L 95.0 34.0 L 95.0 12.0 L 107.0 14.0 L 110.0 16.0 L 107.0 17.8 L 107.0 34.0 L 164.0 34.0 L 164.0 16.0 L 176.0 18.0 L 179.0 20.0 L 176.0 21.8 L 176.0 38.0 L 164.0 44.0 L 164.0 38.0 L 97.61935482025146 38.0 Z M 51.13043479919433 73.0 L 51.0 73.02521009445191 L 51.0 90.0 L 75.0 90.0 L 75.0 73.0 Z M 87.0 73.0 L 87.0 90.0 L 112.0 90.0 L 112.0 73.0 Z M 124.0 73.0 L 124.0 90.0 L 147.0 90.0 L 147.0 73.0 Z M 96.66666669845581 53.0 L 95.8 53.9 L 89.5 58.7 L 82.0 62.9 L 73.5 66.6 L 66.3 69.0 L 138.342857170105 69.0 L 134.1 67.2 L 127.9 64.1 L 122.2 60.6 L 116.9 56.7 L 113.03181819915771 53.0 Z " />
</g>
</svg>
