<svg xmlns="http://www.w3.org/2000/svg" xmlns:xlink="http://www.w3.org/1999/xlink" version="1.1" baseProfile="full" viewBox="0 0 200 200" width="200" height="200">
<g fill="black">
<path d="M 162.6 183.3 L 158.3 181.2 L 153.3 179.2 L 147.7 177.2 L 141.5 175.2 L 134.7 173.2 L 127.3 171.3 L 119.4 169.2 L 110.8 167.0 L 111.1 165.2 L 119.9 165.4 L 128.3 166.0 L 136.0 166.8 L 143.2 167.8 L 149.9 169.0 L 156.0 170.3 L 161.7 171.8 L 166.8 173.4 L 171.4 175.3 L 175.6 177.3 L 178.2 181.0 L 177.5 185.6 L 173.7 188.1 L 169.2 187.4 L 166.2 185.4 Z M 79.55169486999512 163.22711868286132 L 87.0 170.2 L 87.2 173.4 L 83.407985496521 171.87096185684203 L 79.0 173.5 L 73.9 175.3 L 68.4 177.0 L 62.3 178.7 L 55.7 180.4 L 48.7 182.0 L 41.1 183.6 L 33.0 185.2 L 24.4 186.6 L 15.2 187.8 L 14.7 186.1 L 23.4 182.9 L 31.6 180.0 L 39.3 177.3 L 46.5 174.7 L 53.2 172.3 L 59.4 169.9 L 65.0 167.5 L 70.0 165.3 L 74.5 163.1 L 77.63210334777833 161.4556457519531 L 77.6 161.4 L 77.64961776733398 161.44645071029663 L 78.5 161.0 Z M 56.0 141.0 L 56.0 154.0 L 144.0 154.0 L 144.0 141.0 Z M 56.0 125.0 L 56.0 137.0 L 144.0 137.0 L 144.0 125.0 Z M 56.0 108.0 L 56.0 121.0 L 144.0 121.0 L 144.0 108.0 Z M 159.5 104.4 L 155.53666667938234 103.53000001907348 L 161.0 108.0 L 156.0 112.0 L 156.0 158.0 L 144.0 164.0 L 144.0 158.0 L 56.0 158.0 L 56.0 161.0 L 44.0 167.0 L 44.0 102.87872343063354 L 35.8 104.1 L 26.1 105.1 L 16.1 105.8 L 15.8 104.1 L 25.5 101.4 L 34.8 98.8 L 43.8 96.3 L 52.5 93.7 L 60.8 91.1 L 68.8 88.4 L 76.5 85.6 L 83.9 82.6 L 90.9 79.6 L 97.5 76.5 L 100.0010760307312 82.06361799240112 L 100.2 81.5 L 107.7 83.0 L 115.1 84.6 L 122.6 86.3 L 130.1 87.8 L 137.8 89.3 L 145.5 90.6 L 153.4 91.7 L 161.4 92.8 L 169.5 93.7 L 177.7 94.4 L 188.0 95.6 L 176.2 107.5 L 167.7 106.1 Z M 102.4 87.4 L 95.1 90.2 L 87.6 92.7 L 79.7 95.1 L 71.5 97.3 L 63.1 99.3 L 54.3 101.1 L 51.26666669845581 101.63333330154418 L 56.0 104.0 L 144.0 104.0 L 146.98951454162597 101.5087378501892 L 143.4 100.6 L 135.6 98.3 L 128.0 95.9 L 120.5 93.2 L 113.3 90.2 L 106.3 86.9 L 100.81307830810547 83.86990890502929 Z M 106.0 14.0 L 109.0 16.0 L 106.0 17.8 L 106.0 26.0 L 161.0 26.0 L 171.0 16.0 L 183.0 26.0 L 183.0 30.0 L 106.0 30.0 L 106.0 40.0 L 150.0 40.0 L 156.0 35.0 L 167.0 44.0 L 162.0 48.0 L 162.0 67.0 L 150.0 73.0 L 150.0 44.0 L 106.0 44.0 L 106.0 71.0 L 94.0 77.0 L 94.0 44.0 L 50.0 44.0 L 50.0 71.0 L 38.0 77.0 L 38.0 34.0 L 50.0 40.0 L 94.0 40.0 L 94.0 30.0 L 17.0 30.0 L 17.0 26.0 L 94.0 26.0 L 94.0 12.0 Z " />
</g>
</svg>
