<svg xmlns="http://www.w3.org/2000/svg" xmlns:xlink="http://www.w3.org/1999/xlink" version="1.1" baseProfile="full" viewBox="0 0 200 200" width="200" height="200">
<g fill="black">
<path d="M 108.2 182.0 L 86.2 178.0 L 70.8 172.9 L 60.7 167.4 L 54.4 162.8 L 51.1 160.3 L 48.6 159.7 L 43.0 162.1 L 36.031067943573 166.98543691635132 L 35.8 167.2 L 33.0 170.0 L 30.2 172.9 L 27.4 175.9 L 24.7 179.0 L 24.6636474609375 179.04443082809448 L 25.6 182.9 L 22.0 182.3 L 11.9 175.6 L 13.3 174.1 L 16.7 171.1 L 20.2 168.2 L 23.8 165.5 L 27.3 163.1 L 31.0 160.8 L 34.6 158.8 L 38.3 157.0 L 42.0 155.4 L 44.0 154.76842107772828 L 44.0 91.0 L 14.0 91.0 L 14.0 87.0 L 44.0 87.0 L 50.0 82.0 L 61.0 91.0 L 56.0 95.0 L 56.0 154.5586206436157 L 59.0 155.8 L 65.4 159.3 L 74.7 163.4 L 88.7 167.3 L 109.4 170.2 L 138.5 171.2 L 177.5 169.4 L 188.4 168.6 L 178.4 182.5 L 138.4 183.7 Z M 104.8 80.4 L 104.4 78.5 L 103.9 76.7 L 103.3 74.7 L 102.6 72.7 L 101.7 70.6 L 100.8 68.3 L 99.2 66.4 L 100.5 65.1 L 102.4 66.8 L 104.6 68.2 L 106.6 69.7 L 110.2 72.9 L 111.7 74.7 L 113.2 76.6 L 114.5 78.5 L 115.7 80.6 L 116.7 82.7 L 115.9 87.2 L 112.9444444656372 89.3 L 129.18571424484253 89.3 L 129.7 88.1 L 131.3 82.3 L 133.1 76.9 L 133.9 74.2 L 134.8 71.6 L 136.88784809112548 65.07547464370728 L 136.7 65.0 L 137.7 63.1 L 147.9 69.5 L 149.7 72.7 L 145.4128249168396 72.9956672668457 L 144.8 73.8 L 139.7 80.4 L 137.9 82.7 L 136.0 84.9 L 134.0 87.1 L 131.9 89.3 L 140.9 89.3 L 150.9 79.3 L 162.9 89.3 L 162.9 93.3 L 128.5 93.3 L 128.5 113.8 L 143.3181818008423 113.8 L 151.5 104.8 L 161.5 113.8 L 161.5 117.8 L 128.5 117.8 L 128.5 138.3 L 155.3 138.3 L 165.3 128.3 L 177.3 138.3 L 177.3 142.3 L 128.5 142.3 L 128.5 163.6 L 116.5 169.6 L 116.5 142.3 L 68.3 142.3 L 68.3 138.3 L 116.5 138.3 L 116.5 117.8 L 81.4 117.8 L 81.4 113.8 L 116.5 113.8 L 116.5 93.3 L 80.0 93.3 L 80.0 89.3 L 109.16666669845581 89.3 L 107.7 89.0 L 105.0 85.3 L 105.0 82.1 Z M 163.5 81.7 L 158.4 77.4 L 153.6 72.9 L 149.0 68.2 L 144.6 63.2 L 140.5 58.0 L 136.7 52.5 L 133.2 46.8 L 130.58524589538575 41.3 L 117.4375 41.3 L 116.0 43.8 L 110.6 51.5 L 104.4 58.8 L 97.6 65.8 L 90.0 72.4 L 81.7 78.7 L 72.6 84.4 L 62.8 89.7 L 61.8 88.2 L 70.5 81.3 L 78.4 74.4 L 85.6 67.5 L 92.1 60.5 L 97.9 53.4 L 103.0 46.1 L 105.78918914794922 41.3 L 65.1 41.3 L 65.1 37.3 L 107.97200002670289 37.3 L 110.9 31.2 L 113.8 23.4 L 115.83281154632569 16.50611743927002 L 115.8 16.5 L 116.5 13.9 L 127.6 18.7 L 130.0 21.5 L 126.24379396438599 22.506126594543456 L 124.5 27.4 L 120.6 35.8 L 119.7375 37.3 L 157.1 37.3 L 167.1 27.3 L 179.1 37.3 L 179.1 41.3 L 133.57391300201417 41.3 L 136.6 44.2 L 141.2 48.8 L 150.6 57.4 L 155.3 61.4 L 160.2 65.2 L 165.3 68.8 L 170.4 72.1 L 175.7 75.3 L 181.1 78.3 L 185.5 80.9 L 174.4 89.7 L 168.8 85.8 Z M 46.0 50.2 L 44.0 47.2 L 41.8 44.2 L 39.3 41.2 L 36.6 38.2 L 33.7 35.2 L 30.5 32.2 L 27.1 29.2 L 23.4 26.2 L 24.3 24.6 L 28.8 26.4 L 33.1 28.2 L 37.2 30.3 L 41.1 32.7 L 44.8 35.2 L 48.2 37.9 L 51.4 40.7 L 54.4 43.8 L 57.1 47.0 L 59.6 50.3 L 60.2 54.9 L 57.5 58.5 L 52.9 59.1 L 49.3 56.4 L 47.7 53.3 Z " />
</g>
</svg>
