<svg xmlns="http://www.w3.org/2000/svg" xmlns:xlink="http://www.w3.org/1999/xlink" version="1.1" baseProfile="full" viewBox="0 0 200 200" width="200" height="200">
<g fill="black">
<path d="M 108.0 177.0 L 128.0 177.0 L 129.2 176.9 L 130.1 176.7 L 131.0 176.4 L 131.4 176.0 L 131.7 175.1 L 131.9 174.2 L 132.0 173.0 L 132.0 142.53939390182495 L 130.3 144.6 L 127.0 148.5 L 123.6 152.1 L 120.2 155.6 L 116.7 158.9 L 109.7 165.1 L 106.1 168.0 L 102.6 170.8 L 102.41118879318238 170.94160842895508 L 102.3 175.0 L 99.0 173.5 L 90.9 164.4 L 92.6 163.3 L 96.3 161.3 L 100.1 159.2 L 103.9 157.0 L 107.7 154.7 L 111.6 152.3 L 115.6 149.8 L 119.6 147.2 L 123.7 144.6 L 128.0 141.9 L 132.0 139.48139533996581 L 132.0 97.0 L 104.0 97.0 L 104.0 93.0 L 132.0 93.0 L 132.0 67.0 L 93.0 67.0 L 93.0 63.0 L 132.0 63.0 L 132.0 39.0 L 104.0 39.0 L 104.0 35.0 L 132.0 35.0 L 132.0 12.0 L 144.0 14.0 L 147.0 16.0 L 144.0 17.8 L 144.0 35.0 L 159.0 35.0 L 165.0 30.0 L 176.0 39.0 L 171.0 43.0 L 171.0 63.0 L 173.5 63.0 L 178.0 57.0 L 184.0 63.0 L 184.0 67.0 L 171.0 67.0 L 171.0 99.0 L 159.0 105.0 L 159.0 97.0 L 144.0 97.0 L 144.0 113.33636360168457 L 148.0 121.7 L 152.4 130.2 L 156.8 138.0 L 157.15506324768066 138.56021099090577 L 157.6 137.7 L 160.8 132.1 L 162.3 129.3 L 163.8 126.6 L 165.2 123.8 L 166.7 121.0 L 168.0 118.3 L 168.91888885498048 116.46222219467163 L 168.8 116.4 L 169.35 115.6 L 169.4 115.5 L 169.41299867630005 115.50836553573609 L 169.9 114.8 L 179.5 122.0 L 180.9 125.3 L 176.75883150100708 125.22860050201416 L 175.2 127.0 L 173.0 129.4 L 170.7 131.7 L 168.3 134.0 L 165.9 136.2 L 163.4 138.4 L 160.9 140.5 L 159.14101305007935 141.69359827041626 L 161.3 145.1 L 165.9 151.4 L 170.5 157.1 L 175.2 162.0 L 180.0 166.1 L 184.8 169.6 L 188.0 171.9 L 177.1 180.3 L 171.7 175.5 L 166.6 170.0 L 161.9 163.9 L 157.4 157.2 L 153.3 149.8 L 149.4 141.8 L 145.8 133.2 L 144.0 127.96875 L 144.0 173.0 L 143.8 175.5 L 143.4 178.0 L 142.6 180.4 L 141.3 182.7 L 139.7 184.7 L 137.7 186.3 L 135.4 187.6 L 133.0 188.4 L 130.5 188.8 L 128.0 189.0 L 128.0 183.0 L 108.0 180.0 Z M 75.1 169.8 L 73.5 167.3 L 71.5 164.6 L 69.1 162.0 L 66.3 159.3 L 63.2 156.6 L 59.7 153.8 L 55.8 150.9 L 54.81777153015137 150.283251953125 L 51.4 157.9 L 47.0 165.0 L 41.7 171.4 L 35.6 177.0 L 28.6 181.8 L 20.8 185.7 L 12.3 188.8 L 11.6 187.1 L 19.0 182.4 L 25.5 177.4 L 31.2 172.1 L 35.9 166.5 L 39.9 160.4 L 43.0 153.9 L 45.4 147.0 L 47.0 139.5 L 47.39375 136.0 L 13.0 136.0 L 13.0 132.0 L 47.84375 132.0 L 47.9 131.5 L 48.0 123.0 L 48.0 106.0 L 23.0 106.0 L 23.0 102.0 L 65.0 102.0 L 75.0 92.0 L 87.0 102.0 L 87.0 106.0 L 60.0 106.0 L 60.0 123.0 L 59.25 132.0 L 69.0 132.0 L 79.0 122.0 L 91.0 132.0 L 91.0 136.0 L 58.564835166931154 136.0 L 57.5 141.7 L 55.670537281036374 147.61057195663452 L 57.2 148.1 L 61.9 149.7 L 66.3 151.5 L 70.4 153.5 L 74.1 155.8 L 77.6 158.1 L 80.7 160.7 L 83.5 163.5 L 86.0 166.5 L 88.1 169.7 L 88.3 174.2 L 85.2 177.7 L 80.7 177.8 L 77.2 174.8 L 76.3 172.3 Z M 111.4 126.4 L 110.8 123.7 L 110.1 121.1 L 109.3 118.4 L 107.5 113.2 L 106.5 110.5 L 105.4 107.8 L 103.9 105.3 L 105.3 104.1 L 107.4 106.2 L 109.8 108.2 L 112.0 110.3 L 114.0 112.5 L 116.0 114.9 L 117.8 117.4 L 119.5 120.0 L 121.1 122.7 L 122.5 125.5 L 123.9 128.4 L 123.3 132.9 L 119.8 135.8 L 115.3 135.3 L 112.3 131.8 L 111.9 129.1 Z M 144.0 67.0 L 144.0 93.0 L 159.0 93.0 L 159.0 67.0 Z M 12.0 77.0 L 46.0 77.0 L 46.0 13.0 L 58.0 15.0 L 61.0 17.0 L 58.0 18.8 L 58.0 42.0 L 71.81818180084228 42.0 L 80.0 33.0 L 90.0 42.0 L 90.0 46.0 L 58.0 46.0 L 58.0 77.0 L 77.81818180084228 77.0 L 86.0 68.0 L 96.0 77.0 L 96.0 81.0 L 12.0 81.0 Z M 144.0 39.0 L 144.0 63.0 L 159.0 63.0 L 159.0 39.0 Z " />
</g>
</svg>
