<svg xmlns="http://www.w3.org/2000/svg" xmlns:xlink="http://www.w3.org/1999/xlink" version="1.1" baseProfile="full" viewBox="0 0 200 200" width="200" height="200">
<g fill="black">
<path d="M 172.0 30.0 L 175.0 32.0 L 172.0 33.8 L 172.0 114.0 L 160.0 120.0 L 160.0 110.0 L 122.0 110.0 L 122.0 133.0 L 160.0 133.0 L 166.0 128.0 L 177.0 137.0 L 172.0 141.0 L 172.0 181.0 L 160.0 187.0 L 160.0 137.0 L 122.0 137.0 L 122.0 144.0 L 110.0 150.0 L 110.0 100.0 L 122.0 106.0 L 160.0 106.0 L 160.0 28.0 Z M 40.0 30.0 L 43.0 32.0 L 40.0 33.8 L 40.0 104.0 L 76.0 104.0 L 82.0 99.0 L 93.0 108.0 L 88.0 112.0 L 88.0 141.0 L 76.0 147.0 L 76.0 137.0 L 40.0 137.0 L 40.0 179.0 L 28.0 185.0 L 28.0 127.0 L 40.0 133.0 L 76.0 133.0 L 76.0 108.0 L 40.0 108.0 L 40.0 115.0 L 28.0 121.0 L 28.0 28.0 Z M 68.0 18.0 L 132.0 18.0 L 138.0 13.0 L 149.0 22.0 L 144.0 26.0 L 144.0 88.0 L 132.0 94.0 L 132.0 84.0 L 68.0 84.0 L 68.0 87.0 L 56.0 93.0 L 56.0 12.0 Z M 68.0 53.0 L 68.0 80.0 L 132.0 80.0 L 132.0 53.0 Z M 68.0 22.0 L 68.0 49.0 L 132.0 49.0 L 132.0 22.0 Z " />
</g>
</svg>
