<svg xmlns="http://www.w3.org/2000/svg" xmlns:xlink="http://www.w3.org/1999/xlink" version="1.1" baseProfile="full" viewBox="0 0 200 200" width="200" height="200">
<g fill="black">
<path d="M 161.0 83.0 L 156.0 87.0 L 156.0 101.0 L 163.8181818008423 101.0 L 172.0 92.0 L 182.0 101.0 L 182.0 105.0 L 156.0 105.0 L 156.0 127.0 L 144.0 133.0 L 144.0 125.0 L 84.2689655303955 125.0 L 79.8 133.1 L 73.6937063217163 141.84685316085816 L 77.6 143.8 L 150.3 143.8 L 156.3 138.8 L 167.3 147.8 L 162.3 151.8 L 162.3 181.8 L 150.3 187.8 L 150.3 179.8 L 77.6 179.8 L 77.6 182.8 L 65.6 188.8 L 65.6 151.448837184906 L 63.8 153.5 L 54.3 162.3 L 43.7 170.1 L 32.0 177.0 L 19.3 182.8 L 18.6 181.1 L 30.0 173.7 L 40.5 165.8 L 49.9 157.4 L 58.2 148.4 L 65.5 138.7 L 65.6 138.53650789260865 L 65.6 137.8 L 65.94498138427734 137.97249069213868 L 71.8 128.4 L 73.4381817817688 125.0 L 41.0 125.0 L 41.0 121.0 L 75.36545457839966 121.0 L 77.1 117.4 L 81.4 105.6 L 81.55967741012573 105.0 L 22.0 105.0 L 22.0 101.0 L 82.62419357299805 101.0 L 84.7 93.2 L 86.45573768615722 83.0 L 51.0 83.0 L 51.0 79.0 L 144.0 79.0 L 150.0 74.0 Z M 77.6 147.8 L 77.6 175.8 L 150.3 175.8 L 150.3 147.8 Z M 92.83560609817505 105.0 L 91.5 109.1 L 86.41370964050293 121.0 L 144.0 121.0 L 144.0 105.0 Z M 98.65642852783203 83.0 L 95.8 95.9 L 94.13863639831543 101.0 L 144.0 101.0 L 144.0 83.0 Z M 160.7 73.7 L 152.6 68.8 L 144.6 63.4 L 136.9 57.5 L 129.3 51.1 L 122.0 44.2 L 115.0 36.8 L 108.2 28.7 L 105.05130195617676 24.401777267456055 L 101.8 28.4 L 94.0 37.1 L 85.6 45.5 L 76.7 53.6 L 70.26842107772828 58.8 L 113.0 58.8 L 123.0 48.8 L 135.0 58.8 L 135.0 62.8 L 70.0 62.8 L 70.0 59.01702127456665 L 67.3 61.2 L 57.3 68.5 L 46.9 75.4 L 36.0 81.9 L 24.4 87.9 L 12.4 93.4 L 11.5 91.8 L 22.6 84.6 L 33.1 77.4 L 43.2 70.0 L 52.8 62.5 L 61.8 54.7 L 70.4 46.7 L 78.4 38.5 L 86.0 30.0 L 93.0 21.2 L 98.91092672348023 13.10657720565796 L 98.9 13.1 L 100.0 11.6 L 109.2 19.3 L 110.5 22.7 L 107.33060111999512 22.42677593231201 L 111.3 25.9 L 119.1 32.5 L 126.8 38.8 L 134.6 44.6 L 142.4 50.0 L 150.2 54.8 L 158.1 59.2 L 166.1 63.2 L 174.2 66.6 L 182.3 69.6 L 189.1 72.2 L 177.6 81.9 L 169.1 78.0 Z " />
</g>
</svg>
