<svg xmlns="http://www.w3.org/2000/svg" xmlns:xlink="http://www.w3.org/1999/xlink" version="1.1" baseProfile="full" viewBox="0 0 200 200" width="200" height="200">
<g fill="black">
<path d="M 161.0 83.0 L 156.0 87.0 L 156.0 101.0 L 163.8181818008423 101.0 L 172.0 92.0 L 182.0 101.0 L 182.0 105.0 L 156.0 105.0 L 156.0 127.0 L 144.0 133.0 L 144.0 125.0 L 84.2689655303955 125.0 L 79.8 133.1 L 73.6937063217163 141.84685316085816 L 78.0 144.0 L 150.0 144.0 L 156.0 139.0 L 167.0 148.0 L 162.0 152.0 L 162.0 182.0 L 150.0 188.0 L 150.0 180.0 L 78.0 180.0 L 78.0 183.0 L 66.0 189.0 L 66.0 150.9930233001709 L 63.8 153.5 L 54.3 162.3 L 43.7 170.1 L 32.0 177.0 L 19.3 182.8 L 18.6 181.1 L 30.0 173.7 L 40.5 165.8 L 49.9 157.4 L 58.2 148.4 L 65.5 138.7 L 71.8 128.4 L 73.4381817817688 125.0 L 41.0 125.0 L 41.0 121.0 L 75.36545457839966 121.0 L 77.1 117.4 L 81.4 105.6 L 81.55967741012573 105.0 L 22.0 105.0 L 22.0 101.0 L 82.62419357299805 101.0 L 84.7 93.2 L 86.45573768615722 83.0 L 51.0 83.0 L 51.0 79.0 L 144.0 79.0 L 150.0 74.0 Z M 78.0 148.0 L 78.0 176.0 L 150.0 176.0 L 150.0 148.0 Z M 92.83560609817505 105.0 L 91.5 109.1 L 86.41370964050293 121.0 L 144.0 121.0 L 144.0 105.0 Z M 98.65642852783203 83.0 L 95.8 95.9 L 94.13863639831543 101.0 L 144.0 101.0 L 144.0 83.0 Z M 160.7 73.8 L 152.6 68.9 L 144.6 63.6 L 136.9 57.7 L 129.3 51.3 L 122.0 44.4 L 115.0 37.0 L 108.2 28.9 L 105.0014820098877 24.533769035339354 L 101.9 28.4 L 94.0 37.2 L 85.6 45.6 L 76.7 53.7 L 67.3 61.4 L 57.4 68.7 L 46.9 75.7 L 36.0 82.2 L 24.4 88.2 L 12.4 93.7 L 11.5 92.2 L 22.5 85.0 L 33.1 77.7 L 43.2 70.3 L 52.8 62.7 L 61.8 54.9 L 70.4 46.9 L 78.4 38.6 L 86.0 30.1 L 93.0 21.3 L 99.5 12.2 L 99.53904294967651 12.228577804565429 L 100.0 11.6 L 109.2 19.3 L 110.5 22.7 L 107.07704916000367 22.404918003082276 L 111.3 26.1 L 119.1 32.7 L 126.8 39.0 L 134.6 44.8 L 142.4 50.1 L 150.2 55.0 L 158.1 59.4 L 166.1 63.3 L 174.2 66.8 L 182.3 69.8 L 189.1 72.4 L 177.6 82.1 L 169.1 78.2 Z M 106.2 64.3 L 105.2 62.0 L 104.1 59.8 L 102.7 57.6 L 101.2 55.5 L 99.5 53.3 L 97.7 51.1 L 95.4 49.2 L 96.3 47.7 L 99.0 49.0 L 102.0 50.1 L 104.7 51.5 L 107.3 53.1 L 109.7 54.9 L 112.0 56.9 L 114.1 59.2 L 116.1 61.6 L 117.9 64.2 L 119.5 67.0 L 119.3 71.6 L 116.0 74.8 L 111.4 74.5 L 108.3 71.2 L 107.1 66.6 Z " />
</g>
</svg>
