<svg xmlns="http://www.w3.org/2000/svg" xmlns:xlink="http://www.w3.org/1999/xlink" version="1.1" baseProfile="full" viewBox="0 0 200 200" width="200" height="200">
<g fill="black">
<path d="M 121.2 176.9 L 114.2 172.5 L 106.6 168.3 L 98.6 164.5 L 90.0 160.9 L 81.0 157.6 L 71.4 154.6 L 61.4 151.7 L 50.8 149.0 L 51.1 147.2 L 62.1 148.0 L 72.6 149.3 L 82.7 151.3 L 92.4 153.7 L 101.7 156.6 L 110.5 159.9 L 118.9 163.6 L 126.8 167.8 L 134.4 172.4 L 141.4 177.4 L 143.5 181.5 L 142.3 185.9 L 138.2 188.0 L 133.8 186.7 L 127.8 181.6 Z M 113.2 143.2 L 109.6 140.5 L 105.8 137.9 L 101.7 135.4 L 97.5 132.9 L 93.1 130.5 L 88.5 128.1 L 78.7 123.1 L 79.2 121.4 L 84.8 122.0 L 90.3 123.1 L 95.5 124.4 L 100.6 126.0 L 105.5 127.7 L 110.2 129.7 L 114.7 131.9 L 119.1 134.2 L 123.3 136.7 L 127.4 139.4 L 129.5 143.4 L 128.3 147.8 L 124.3 150.0 L 119.9 148.8 L 116.6 145.9 Z M 158.8 135.2 L 150.2 131.2 L 142.2 126.9 L 134.5 122.2 L 127.3 117.1 L 120.6 111.8 L 114.4 106.0 L 108.9 99.9 L 104.51969699859619 94.0 L 102.30526313781738 94.0 L 100.6 95.8 L 93.8 102.9 L 86.6 109.5 L 78.9 115.7 L 70.8 121.3 L 62.2 126.6 L 53.1 131.3 L 43.6 135.5 L 33.6 139.2 L 23.1 142.3 L 12.2 144.8 L 11.7 143.1 L 21.9 138.8 L 31.6 134.3 L 40.8 129.6 L 49.5 124.6 L 57.7 119.3 L 65.4 113.8 L 72.6 107.8 L 79.4 101.6 L 85.6 95.0 L 86.4 94.0 L 50.0 94.0 L 50.0 106.0 L 38.0 112.0 L 38.0 61.12702703475952 L 36.5 62.1 L 28.7 66.3 L 20.7 69.8 L 12.3 72.8 L 11.6 71.1 L 18.9 66.5 L 26.0 61.6 L 32.8 56.6 L 38.0 52.36000003814697 L 38.0 50.0 L 39.76321840286255 50.88160915374756 L 45.5 45.7 L 51.5 39.7 L 57.1 33.5 L 62.5 26.8 L 67.6 19.8 L 71.85440034866333 13.329766178131104 L 71.8 13.3 L 72.9 11.7 L 82.4 19.1 L 83.8 22.4 L 79.99180107116699 22.268682765960694 L 76.7 26.6 L 75.53661975860595 28.0 L 127.0 28.0 L 127.375 27.6875 L 128.0 26.5 L 128.4356435775757 26.803630352020264 L 133.0 23.0 L 144.0 32.0 L 139.0 35.0 L 134.2692307472229 36.971153831481935 L 133.3 37.9 L 130.5 40.2 L 127.3 42.6 L 123.8 45.1 L 120.0 47.6 L 115.7 50.3 L 111.1 53.0 L 105.9 55.8 L 105.52758617401123 56.0 L 150.0 56.0 L 156.0 51.0 L 167.0 60.0 L 162.0 64.0 L 162.0 100.0 L 150.0 106.0 L 150.0 94.0 L 107.83333330154419 94.0 L 111.7 96.9 L 118.2 101.5 L 125.0 106.0 L 131.9 110.2 L 139.2 114.1 L 146.8 117.8 L 154.8 121.1 L 163.1 124.3 L 171.8 127.1 L 180.8 129.6 L 188.7 132.0 L 177.1 142.3 L 167.7 138.9 Z M 50.0 60.0 L 50.0 90.0 L 94.0 90.0 L 94.0 60.0 Z M 106.0 60.0 L 106.0 90.0 L 150.0 90.0 L 150.0 60.0 Z M 72.21267604827881 32.0 L 70.8 33.7 L 64.5 40.3 L 57.9 46.4 L 51.1 52.1 L 47.459090900421145 54.729545497894286 L 50.0 56.0 L 100.74634141921997 56.0 L 104.0 53.1 L 108.1 49.1 L 112.0 45.4 L 118.6 38.8 L 121.3 35.9 L 123.6 33.1 L 124.47083330154419 32.0 Z " />
</g>
</svg>
