<svg xmlns="http://www.w3.org/2000/svg" xmlns:xlink="http://www.w3.org/1999/xlink" version="1.1" baseProfile="full" viewBox="0 0 200 200" width="200" height="200">
<g fill="black">
<path d="M 106.0 179.2 L 103.4 176.7 L 100.7 174.2 L 97.7 171.9 L 94.6 169.8 L 91.2 167.7 L 87.6 165.7 L 83.8 163.7 L 79.7 162.0 L 80.1 160.3 L 84.7 160.7 L 89.1 161.2 L 93.4 162.2 L 97.6 163.4 L 101.7 164.9 L 105.5 166.7 L 109.3 168.8 L 112.8 171.2 L 116.2 173.8 L 119.5 176.7 L 120.9 181.1 L 118.9 185.2 L 114.6 186.6 L 110.5 184.7 L 108.3 181.9 Z M 108.8 151.5 L 106.8 149.0 L 102.8 144.2 L 100.6 141.9 L 98.5 139.7 L 96.2 137.4 L 93.9 135.2 L 91.4 133.2 L 92.3 131.6 L 95.3 132.8 L 98.5 133.8 L 101.6 135.1 L 104.6 136.6 L 107.6 138.3 L 110.5 140.1 L 113.3 142.0 L 116.1 144.1 L 118.9 146.4 L 121.5 148.8 L 122.9 153.1 L 120.9 157.2 L 116.6 158.6 L 112.5 156.6 L 110.6 154.0 Z M 153.0 144.1 L 146.4 141.4 L 140.4 138.4 L 134.9 134.9 L 130.1 131.1 L 125.8 126.9 L 122.2 122.4 L 119.5 117.5 L 117.8557692527771 113.0 L 94.76086959838867 113.0 L 92.1 118.1 L 85.8 126.2 L 78.1 133.0 L 69.0 138.6 L 58.7 143.0 L 47.0 146.2 L 34.2 148.1 L 20.0 148.8 L 19.9 147.1 L 33.5 144.4 L 45.7 141.0 L 56.2 136.9 L 65.3 132.0 L 72.8 126.4 L 78.8 120.0 L 83.5 113.0 L 18.0 113.0 L 18.0 109.0 L 85.22151899337769 109.0 L 86.9 105.1 L 89.0 96.3 L 89.9 86.6 L 89.93119316101074 86.6018196105957 L 90.0 84.4 L 101.9 87.3 L 104.8 89.4 L 101.30059261322022 91.2842963218689 L 100.2 98.6 L 96.9 108.9 L 96.84782609939575 109.0 L 162.0 109.0 L 172.0 99.0 L 184.0 109.0 L 184.0 113.0 L 120.8 113.0 L 122.9 115.1 L 126.7 118.5 L 130.7 121.6 L 135.0 124.4 L 139.7 126.9 L 144.9 129.2 L 150.4 131.2 L 156.5 132.9 L 163.1 134.3 L 170.1 135.5 L 179.6 137.2 L 167.8 148.4 L 160.1 146.5 Z M 56.0 55.0 L 56.0 90.92666664123536 L 60.2 88.5 L 64.2 85.8 L 67.7 82.9 L 70.8 79.6 L 73.4 76.1 L 75.6 72.1 L 77.5 67.8 L 79.0 63.0 L 80.2 57.8 L 80.55 55.0 Z M 135.86904764175415 55.0 L 116.0 55.0 L 116.0 72.2 L 116.1 73.1 L 116.2 73.7 L 116.4 74.1 L 116.5 74.4 L 116.7 74.6 L 117.1 74.9 L 117.7 75.1 L 118.7 75.3 L 120.0 75.5 L 130.5 75.5 Z M 65.01363639831543 31.0 L 64.6 31.7 L 60.2 38.0 L 55.5 44.0 L 51.27108430862427 48.63554220199585 L 56.0 51.0 L 95.22857141494751 51.0 L 96.3 49.5 L 97.9 46.5 L 99.5 43.6 L 101.0 40.8 L 102.4 38.2 L 103.7 35.6 L 104.9 33.1 L 105.775 31.0 Z M 141.5 81.0 L 139.3 84.3 L 136.0 86.5 L 120.0 86.5 L 117.4 86.4 L 115.0 86.0 L 112.6 85.2 L 110.4 84.1 L 108.4 82.5 L 106.7 80.6 L 105.5 78.4 L 104.6 76.0 L 104.1 73.5 L 104.0 71.0 L 104.0 55.0 L 92.62923078536987 55.0 L 91.3 60.4 L 89.2 66.5 L 86.6 72.0 L 83.6 77.0 L 80.0 81.3 L 76.0 85.1 L 71.6 88.1 L 66.8 90.5 L 61.6 92.1 L 56.2 92.8 L 56.0 92.11999998092651 L 56.0 101.0 L 44.0 107.0 L 44.0 55.76666669845581 L 38.8 60.1 L 32.5 64.8 L 25.7 69.0 L 18.4 72.7 L 17.5 71.2 L 23.4 65.9 L 29.1 60.6 L 34.4 55.2 L 39.3 49.8 L 43.9 44.2 L 48.1 38.4 L 51.9 32.4 L 55.3 26.3 L 58.4 20.0 L 60.635330295562746 14.411674308776856 L 60.6 14.4 L 60.93333330154419 13.66666669845581 L 61.0 13.5 L 61.00762367248535 13.503227996826173 L 61.6 12.2 L 72.1 18.2 L 74.0 21.3 L 70.24180927276612 21.76153221130371 L 68.5 25.1 L 67.37727270126342 27.0 L 107.0 27.0 L 107.53478260040283 26.554347801208497 L 107.7 26.1 L 107.93010377883911 26.2249135017395 L 113.0 22.0 L 124.0 31.0 L 119.0 34.0 L 115.20689659118652 35.58045978546143 L 114.7 36.2 L 110.7 40.6 L 108.5 42.7 L 106.2 44.9 L 103.7 47.1 L 101.1 49.2 L 98.58000001907348 51.0 L 145.0 51.0 L 151.0 46.0 L 162.0 55.0 L 157.0 59.0 L 157.0 101.0 L 145.0 107.0 L 145.0 55.0 L 137.95238094329835 55.0 L 136.0 75.5 L 139.3 77.7 Z " />
</g>
</svg>
