<svg xmlns="http://www.w3.org/2000/svg" xmlns:xlink="http://www.w3.org/1999/xlink" version="1.1" baseProfile="full" viewBox="0 0 200 200" width="200" height="200">
<g fill="black">
<path d="M 157.9 165.3 L 150.3 160.6 L 142.8 155.5 L 135.6 149.9 L 128.6 143.8 L 121.7 137.3 L 115.1 130.2 L 114.37032060623169 129.31975183486938 L 117.5 139.1 L 118.6 148.6 L 118.1 157.1 L 116.5 164.5 L 114.4 170.4 L 112.3 174.8 L 110.8 177.6 L 109.2 179.5 L 107.5 181.2 L 105.7 182.8 L 103.7 184.1 L 101.6 185.3 L 99.4 186.3 L 97.2 187.0 L 94.8 187.5 L 92.4 187.8 L 90.0 188.0 L 90.0 182.0 L 70.0 179.0 L 70.0 176.0 L 90.0 176.0 L 91.4 175.9 L 92.8 175.7 L 95.2 175.1 L 96.3 174.6 L 97.3 174.0 L 98.3 173.3 L 99.3 172.5 L 100.2 171.5 L 101.2 170.4 L 102.4 168.9 L 104.3 165.7 L 106.4 161.1 L 108.2 155.3 L 109.2 148.5 L 109.04836158752441 142.5102825164795 L 108.1 143.2 L 99.9 148.4 L 91.3 153.3 L 82.2 157.9 L 72.7 162.1 L 62.7 165.9 L 52.3 169.3 L 41.4 172.3 L 30.0 174.8 L 18.2 176.8 L 17.7 175.1 L 29.0 171.2 L 39.8 167.2 L 50.1 163.1 L 59.9 158.8 L 69.2 154.3 L 78.0 149.6 L 86.3 144.7 L 94.1 139.5 L 101.3 134.0 L 106.05522890090943 130.01399936676026 L 102.6 122.3 L 100.08503732681274 118.70220613479614 L 95.1 122.0 L 88.3 126.0 L 81.0 129.8 L 73.3 133.4 L 65.2 136.8 L 56.7 140.0 L 47.7 142.9 L 38.3 145.6 L 28.5 147.9 L 18.2 149.8 L 17.7 148.1 L 27.4 144.3 L 36.6 140.5 L 45.4 136.7 L 53.8 133.0 L 61.7 129.1 L 69.2 125.1 L 76.1 121.0 L 82.7 116.9 L 88.7 112.6 L 92.98673915863037 109.23184785842895 L 85.2 100.3 L 86.3 98.9 L 99.3 108.3 L 103.84285717010498 113.49183673858643 L 104.3 113.1 L 111.8 119.7 L 119.2 126.0 L 121.57732734680175 127.92140159606933 L 123.7 125.7 L 127.8 121.5 L 131.7 117.5 L 135.5 113.8 L 139.0 110.2 L 142.3 106.8 L 145.3 103.5 L 148.1 100.4 L 150.6 97.4 L 152.27582664489745 95.35986318588257 L 152.2 95.3 L 153.2 94.2 L 161.7 102.8 L 162.5 106.3 L 158.60753536224365 105.48053379058838 L 155.6 108.1 L 152.1 110.8 L 148.5 113.7 L 144.5 116.6 L 140.3 119.6 L 135.9 122.6 L 131.1 125.7 L 126.0 128.7 L 123.93459062576294 129.8265869140625 L 126.5 131.9 L 133.8 137.3 L 141.1 142.4 L 148.5 147.0 L 155.9 151.1 L 163.3 154.8 L 170.8 158.0 L 178.3 160.8 L 185.1 163.4 L 173.6 173.1 L 165.6 169.4 Z M 154.8 91.0 L 145.6 85.9 L 137.57440185546875 80.5169768333435 L 129.7 84.6 L 121.1 88.1 L 111.9 90.9 L 102.2 92.8 L 101.7 91.1 L 110.6 87.3 L 118.9 83.2 L 126.6 78.8 L 131.361981010437 75.60266990661621 L 130.1 74.6 L 123.8 68.4 L 118.5 61.8 L 114.2 54.9 L 111.2 47.7 L 109.5920000076294 41.0 L 91.0 41.0 L 91.0 95.0 L 79.0 101.0 L 79.0 80.3 L 77.8 80.6 L 70.6 82.2 L 63.5 83.5 L 56.5 84.8 L 49.6 85.9 L 42.8 87.0 L 36.1 88.0 L 29.5 89.0 L 22.9 89.9 L 20.62410087585449 90.22004833221436 L 18.8 93.6 L 16.5 90.8 L 13.4 79.1 L 15.4 78.9 L 28.4 78.3 L 32.0 78.13880596160888 L 32.0 26.0 L 14.0 26.0 L 14.0 22.0 L 99.81818180084228 22.0 L 108.0 13.0 L 118.0 22.0 L 118.0 26.0 L 91.0 26.0 L 91.0 37.0 L 163.0 37.0 L 163.35687732696533 36.70260219573974 L 163.5 36.4 L 163.64089307785034 36.46592245101929 L 169.0 32.0 L 180.0 41.0 L 175.0 44.0 L 172.35417785644532 45.10242586135864 L 169.8 49.6 L 164.6 57.0 L 158.7 63.8 L 152.3 70.0 L 147.06861953735353 74.11037034988404 L 151.0 76.3 L 159.8 80.4 L 169.5 84.2 L 180.1 87.7 L 187.4 90.2 L 175.8 100.2 L 164.9 95.8 Z M 44.0 63.0 L 44.0 77.63913040161133 L 48.8 77.5 L 55.8 77.2 L 62.9 77.0 L 70.1 76.8 L 77.4 76.9 L 79.0 76.94266662597656 L 79.0 63.0 Z M 111.95806455612183 41.0 L 114.9 45.8 L 119.2 51.7 L 124.1 57.2 L 129.6 62.4 L 135.9 67.3 L 139.34710426330565 69.50231657028198 L 140.1 68.9 L 145.9 63.3 L 151.1 57.2 L 155.8 50.7 L 160.0 43.8 L 161.32432432174681 41.0 Z M 44.0 44.0 L 44.0 59.0 L 79.0 59.0 L 79.0 44.0 Z M 44.0 26.0 L 44.0 40.0 L 79.0 40.0 L 79.0 26.0 Z " />
</g>
</svg>
