<svg xmlns="http://www.w3.org/2000/svg" xmlns:xlink="http://www.w3.org/1999/xlink" version="1.1" baseProfile="full" viewBox="0 0 200 200" width="200" height="200">
<g fill="black">
<path d="M 153.4 178.8 L 144.4 174.7 L 136.1 170.2 L 128.6 165.2 L 121.7 159.9 L 115.6 154.0 L 110.4 147.8 L 106.0 141.1 L 103.02083330154419 134.6 L 99.87358493804932 134.6 L 99.1 136.6 L 93.5 146.3 L 86.4 155.1 L 77.9 162.8 L 68.0 169.6 L 56.8 175.5 L 44.3 180.3 L 30.4 184.2 L 15.1 187.0 L 14.8 185.2 L 29.3 180.5 L 42.3 175.3 L 53.9 169.6 L 63.9 163.3 L 72.4 156.4 L 79.5 148.9 L 85.1 140.9 L 88.17674417495728 134.6 L 13.0 134.6 L 13.0 130.6 L 89.83010749816894 130.6 L 92.2 123.0 L 93.72808351516724 114.10116043090821 L 93.7 114.1 L 94.1 111.0 L 105.8 114.6 L 108.5 116.9 L 104.9040605545044 118.52834997177123 L 103.2 126.0 L 101.42075471878051 130.6 L 165.0 130.6 L 175.0 120.6 L 187.0 130.6 L 187.0 134.6 L 105.68571424484253 134.6 L 109.4 138.6 L 114.7 143.8 L 120.5 148.7 L 126.8 153.2 L 133.6 157.4 L 141.0 161.2 L 148.9 164.6 L 157.5 167.7 L 166.7 170.4 L 176.5 172.8 L 185.1 174.9 L 173.4 185.6 L 163.0 182.4 Z M 19.6 99.9 L 27.3 98.4 L 35.2 96.9 L 43.2 95.5 L 51.3 94.0 L 56.0 93.14024391174317 L 56.0 68.0 L 32.0 68.0 L 32.0 64.0 L 56.0 64.0 L 56.0 40.0 L 37.31538457870484 40.0 L 36.7 41.6 L 34.4 46.7 L 31.8 51.8 L 28.8 56.9 L 25.5 61.9 L 21.8 66.7 L 17.7 71.4 L 16.2 70.5 L 18.6 64.8 L 20.8 59.3 L 22.9 54.0 L 24.8 48.8 L 26.5 43.7 L 27.9 38.6 L 29.0 33.7 L 29.9 28.8 L 30.5 24.0 L 30.8233380317688 20.20077791213989 L 30.8 20.2 L 31.1 17.2 L 42.8 20.6 L 45.5 23.0 L 41.97013750076294 24.59842824935913 L 41.7 25.9 L 40.4 31.2 L 38.8307692527771 36.0 L 56.0 36.0 L 56.0 13.0 L 68.0 15.0 L 71.0 17.0 L 68.0 18.8 L 68.0 36.0 L 77.0 36.0 L 87.0 26.0 L 99.0 36.0 L 99.0 40.0 L 68.0 40.0 L 68.0 64.0 L 73.0 64.0 L 83.0 54.0 L 95.0 64.0 L 95.0 68.0 L 68.0 68.0 L 68.0 91.08235292434692 L 76.4 89.6 L 85.0 88.3 L 93.8 87.1 L 102.8 86.1 L 103.1 87.8 L 94.6 90.8 L 86.2 93.5 L 77.8 96.0 L 69.6 98.5 L 61.4 100.8 L 53.3 103.0 L 45.4 105.2 L 37.6 107.4 L 29.9 109.5 L 26.197350597381593 110.52310047149658 L 24.9 114.0 L 22.3 111.6 L 17.6 100.3 Z M 172.8 100.9 L 171.3 102.8 L 169.5 104.6 L 167.5 106.0 L 165.4 107.2 L 163.1 108.2 L 160.7 108.8 L 158.3 109.2 L 155.8 109.3 L 155.8 103.3 L 135.8 100.3 L 135.8 97.3 L 155.8 97.3 L 157.1 97.2 L 158.3 97.0 L 159.3 96.8 L 160.2 96.4 L 161.0 96.0 L 162.4 94.8 L 163.1 93.9 L 163.7 92.9 L 164.3 91.7 L 164.9 89.9 L 165.6 86.8 L 166.3 82.7 L 166.9 77.5 L 167.4 71.4 L 167.9 64.4 L 168.2 56.4 L 168.4 47.5 L 168.6 37.7 L 168.6 29.0 L 140.5527132034302 29.0 L 139.7 40.0 L 138.0 51.9 L 136.75203256607057 57.341138172149655 L 139.0 58.6 L 143.6 61.6 L 147.9 64.9 L 151.8 68.5 L 155.4 72.4 L 156.5 76.8 L 154.2 80.8 L 149.8 81.9 L 145.8 79.6 L 143.3 76.1 L 140.5 72.7 L 137.2 69.4 L 134.15060663223267 66.68942804336548 L 132.1 72.6 L 127.9 81.5 L 122.9 89.2 L 117.0 95.8 L 110.4 101.1 L 103.0 105.2 L 95.0 107.8 L 94.4 106.2 L 101.2 101.9 L 107.1 97.0 L 112.2 91.3 L 116.6 84.9 L 120.3 77.7 L 123.4 69.5 L 125.68888893127442 60.34444446563721 L 125.2 60.0 L 120.4 57.1 L 115.2 54.2 L 109.7 51.2 L 103.7 48.3 L 104.3 46.5 L 110.9 47.7 L 117.2 49.2 L 123.2 51.1 L 126.99741296768188 52.59184083938599 L 127.4 50.2 L 128.4 39.0 L 128.5666666984558 29.0 L 101.4 29.0 L 101.4 25.0 L 168.6 25.0 L 174.6 20.0 L 185.6 29.0 L 180.6 32.0 L 180.6 37.8 L 180.4 47.8 L 180.2 56.8 L 179.9 65.0 L 179.4 72.3 L 178.9 78.7 L 178.2 84.3 L 177.4 89.1 L 176.5 93.1 L 175.3 96.6 L 174.2 98.8 Z " />
</g>
</svg>
