<svg xmlns="http://www.w3.org/2000/svg" xmlns:xlink="http://www.w3.org/1999/xlink" version="1.1" baseProfile="full" viewBox="0 0 200 200" width="200" height="200">
<g fill="black">
<path d="M 160.0 170.2 L 151.7 165.4 L 143.8 160.4 L 136.3 155.1 L 129.1 149.4 L 122.3 143.4 L 116.0 137.0 L 110.2 130.3 L 106.0 124.40384616851807 L 106.0 181.7 L 94.0 187.7 L 94.0 131.1854838371277 L 92.7 132.8 L 86.0 140.0 L 78.7 146.7 L 71.0 153.0 L 62.7 158.8 L 53.8 164.2 L 44.5 169.1 L 34.6 173.4 L 24.2 177.2 L 13.3 180.3 L 12.6 178.6 L 22.8 173.7 L 32.3 168.6 L 41.3 163.3 L 49.8 157.8 L 57.7 151.9 L 65.1 145.8 L 71.9 139.4 L 78.2 132.7 L 83.9 125.6 L 85.16666669845581 123.7 L 18.0 123.7 L 18.0 119.7 L 94.0 119.7 L 94.0 95.3 L 106.0 97.3 L 109.0 99.3 L 106.0 101.1 L 106.0 119.7 L 160.0 119.7 L 170.0 109.7 L 182.0 119.7 L 182.0 123.7 L 108.64909086227416 123.7 L 113.1 127.3 L 120.0 132.7 L 126.9 137.8 L 134.1 142.7 L 141.5 147.3 L 149.1 151.7 L 157.0 155.8 L 165.2 159.5 L 173.6 163.1 L 182.3 166.3 L 189.1 168.9 L 177.6 178.6 L 168.6 174.5 Z M 22.0 84.7 L 50.0 84.7 L 50.0 56.3 L 16.0 56.3 L 16.0 52.3 L 50.0 52.3 L 50.0 25.0 L 62.0 27.0 L 65.0 29.0 L 62.0 30.8 L 62.0 52.3 L 94.0 52.3 L 94.0 13.9 L 106.0 15.9 L 109.0 17.9 L 106.0 19.7 L 106.0 52.3 L 138.0 52.3 L 138.0 25.0 L 150.0 27.0 L 153.0 29.0 L 150.0 30.8 L 150.0 52.3 L 162.0 52.3 L 172.0 42.3 L 184.0 52.3 L 184.0 56.3 L 150.0 56.3 L 150.0 84.7 L 156.0 84.7 L 166.0 74.7 L 178.0 84.7 L 178.0 88.7 L 22.0 88.7 Z M 62.0 56.3 L 62.0 84.7 L 94.0 84.7 L 94.0 56.3 Z M 106.0 56.3 L 106.0 84.7 L 138.0 84.7 L 138.0 56.3 Z " />
</g>
</svg>
