<svg xmlns="http://www.w3.org/2000/svg" xmlns:xlink="http://www.w3.org/1999/xlink" version="1.1" baseProfile="full" viewBox="0 0 200 200" width="200" height="200">
<g fill="black">
<path d="M 137.0 177.2 L 157.0 177.2 L 158.2 177.1 L 159.1 177.0 L 159.7 176.8 L 160.0 176.6 L 160.2 176.4 L 160.4 176.3 L 160.5 175.9 L 160.7 175.3 L 160.9 174.4 L 161.0 173.2 L 161.0 132.4 L 94.2235294342041 132.4 L 92.7 134.5 L 89.0 139.5 L 85.1 144.2 L 81.2 148.6 L 77.2 152.8 L 75.91097564697266 153.96626014709472 L 80.4 153.8 L 88.6 153.5 L 96.9 153.3 L 105.3 153.2 L 113.8 153.1 L 122.4 153.2 L 129.25268363952637 153.43629941940307 L 127.8 151.3 L 125.9 148.8 L 123.8 146.1 L 121.5 143.4 L 119.1 140.5 L 116.2 137.8 L 117.3 136.4 L 120.7 138.3 L 124.2 140.1 L 127.4 142.0 L 130.4 143.9 L 133.3 145.9 L 135.9 148.0 L 138.3 150.1 L 140.6 152.3 L 142.7 154.6 L 144.6 156.9 L 145.2 161.5 L 142.5 165.1 L 137.9 165.7 L 134.3 162.9 L 133.4 160.8 L 132.3 158.6 L 131.52229070663452 157.16422910690306 L 131.3 157.2 L 122.7 158.5 L 114.2 159.7 L 105.8 160.7 L 97.5 161.8 L 89.3 162.8 L 81.2 163.8 L 73.2 164.8 L 65.3 165.8 L 61.59423990249634 166.32260723114013 L 59.8 169.7 L 57.5 166.9 L 54.4 155.1 L 56.4 154.9 L 64.3 154.5 L 70.09385967254639 154.21030702590943 L 70.1 154.2 L 73.0 149.4 L 76.0 144.6 L 79.0 139.7 L 81.9 134.7 L 83.22692308425903 132.4 L 38.0 132.4 L 38.0 182.5 L 26.0 188.5 L 26.0 122.4 L 38.0 128.4 L 85.51111106872558 128.4 L 87.9 124.1 L 90.8 118.6 L 93.8 112.8 L 94.16129035949707 112.0 L 53.7 112.0 L 53.7 115.0 L 41.7 121.0 L 41.7 57.7 L 53.7 59.7 L 56.7 61.7 L 53.7 63.5 L 53.7 108.0 L 147.0 108.0 L 147.0 57.7 L 159.0 59.7 L 162.0 61.7 L 159.0 63.5 L 159.0 114.0 L 147.0 120.0 L 147.0 112.0 L 107.53103446960449 112.0 L 107.2 112.6 L 103.7 118.4 L 100.1 124.0 L 97.08518514633178 128.4 L 161.0 128.4 L 167.0 123.4 L 178.0 132.4 L 173.0 136.4 L 173.0 173.2 L 172.8 175.7 L 172.4 178.2 L 171.6 180.6 L 170.3 182.9 L 168.7 184.9 L 166.7 186.6 L 164.4 187.8 L 162.0 188.6 L 159.5 189.0 L 157.0 189.2 L 157.0 183.2 L 137.0 180.2 Z M 118.0 92.7 L 111.5 88.8 L 105.21576662063599 85.18180503845215 L 104.1 85.8 L 96.3 89.7 L 88.0 93.2 L 79.3 96.4 L 70.1 99.2 L 60.4 101.5 L 59.9 99.8 L 68.8 95.6 L 77.2 91.5 L 85.2 87.3 L 92.7 83.0 L 96.48236360549927 80.60272731781006 L 91.5 78.0 L 84.7 74.8 L 70.9 68.4 L 64.0 65.3 L 64.5 63.6 L 72.1 64.8 L 79.6 66.5 L 87.0 68.6 L 94.4 71.0 L 101.7 73.7 L 104.77320413589477 74.98050174713134 L 106.3 73.9 L 112.3 69.2 L 117.9 64.2 L 123.0 59.2 L 126.95569496154785 54.64235143661499 L 126.9 54.6 L 127.9 53.5 L 136.5 61.9 L 137.4 65.4 L 133.6257173538208 64.67162971496582 L 130.9 67.3 L 124.9 72.4 L 118.4 77.2 L 115.00572690963745 79.41365642547608 L 116.1 79.9 L 123.2 83.3 L 130.3 87.0 L 137.3 90.8 L 139.9 94.6 L 139.2 99.1 L 135.4 101.7 L 130.9 101.0 L 124.5 96.8 Z M 40.2 54.8 L 28.2 60.8 L 28.2 20.1 L 40.2 22.1 L 43.2 24.1 L 40.2 25.9 L 40.2 43.8 L 94.0 43.8 L 94.0 11.2 L 106.0 13.2 L 109.0 15.2 L 106.0 17.0 L 106.0 43.8 L 158.6 43.8 L 158.6 20.1 L 170.6 22.1 L 173.6 24.1 L 170.6 25.9 L 170.6 51.8 L 158.6 57.8 L 158.6 47.8 L 40.2 47.8 Z " />
</g>
</svg>
