<svg xmlns="http://www.w3.org/2000/svg" xmlns:xlink="http://www.w3.org/1999/xlink" version="1.1" baseProfile="full" viewBox="0 0 200 200" width="200" height="200">
<g fill="black">
<path d="M 82.4 105.1 L 82.5 103.7 L 82.5 102.3 L 82.3 99.3 L 82.0 97.6 L 81.7 96.0 L 81.3 94.2 L 80.3 92.7 L 81.7 91.6 L 82.9 93.0 L 84.5 94.0 L 86.1 95.2 L 87.5 96.4 L 88.8 97.8 L 90.0 99.2 L 91.1 100.8 L 92.1 102.4 L 93.0 104.1 L 93.8 105.8 L 92.7 110.3 L 91.5625 111.0 L 103.40454549789429 111.0 L 104.1 109.3 L 104.6 106.9 L 105.6 102.3 L 106.1 100.1 L 106.6 98.0 L 107.0 96.0 L 107.4 93.9 L 107.84606990814208 91.07489080429077 L 107.6 91.0 L 108.5 88.8 L 119.1 94.5 L 121.2 97.5 L 116.53872709274292 98.22330093383789 L 115.4 99.8 L 114.0 101.6 L 112.6 103.3 L 109.6 106.9 L 106.1 110.4 L 105.68000001907349 111.0 L 106.4 111.0 L 116.4 101.0 L 128.4 111.0 L 128.4 115.0 L 104.0 115.0 L 104.0 132.7 L 107.41818180084229 132.7 L 115.6 123.7 L 125.6 132.7 L 125.6 136.7 L 104.0 136.7 L 104.0 153.8 L 109.6 153.8 L 119.6 143.8 L 131.6 153.8 L 131.6 157.8 L 104.0 157.8 L 104.0 182.7 L 92.0 188.7 L 92.0 157.8 L 64.4 157.8 L 64.4 153.8 L 92.0 153.8 L 92.0 136.7 L 70.4 136.7 L 70.4 132.7 L 92.0 132.7 L 92.0 115.0 L 67.6 115.0 L 67.6 111.0 L 84.09230766296386 111.0 L 82.0 107.6 L 82.2 106.4 Z M 32.8 94.0 L 50.8 94.0 L 56.8 89.0 L 67.8 98.0 L 62.8 102.0 L 62.8 171.6 L 62.6 174.2 L 62.2 176.7 L 61.4 179.1 L 60.1 181.3 L 58.5 183.3 L 56.5 185.0 L 54.2 186.2 L 51.8 187.0 L 49.3 187.5 L 46.8 187.6 L 46.8 181.6 L 32.8 178.6 L 32.8 175.6 L 46.8 175.6 L 48.0 175.5 L 48.9 175.4 L 49.5 175.2 L 49.8 175.0 L 50.0 174.9 L 50.2 174.7 L 50.3 174.3 L 50.5 173.7 L 50.7 172.8 L 50.8 171.6 L 50.8 146.0 L 32.8 146.0 L 32.8 147.3 L 32.3 153.3 L 31.5 158.9 L 30.5 164.0 L 29.2 168.7 L 27.6 173.0 L 25.7 176.8 L 23.5 180.0 L 20.9 182.7 L 18.1 184.7 L 15.3 186.2 L 14.2 184.7 L 15.9 182.4 L 17.2 179.8 L 18.3 177.1 L 19.2 174.0 L 19.9 170.6 L 20.5 166.8 L 20.8 162.5 L 21.0 157.9 L 21.0 152.8 L 20.8 147.3 L 20.8 88.0 Z M 150.0 96.0 L 164.0 96.0 L 170.0 91.0 L 181.0 100.0 L 176.0 104.0 L 176.0 169.2 L 176.2 170.1 L 176.5 171.0 L 176.9 171.4 L 177.8 171.7 L 178.0582278251648 171.7573839187622 L 184.0 147.0 L 186.0 147.0 L 184.0 172.0 L 187.6 174.4 L 190.0 178.0 L 187.6 181.6 L 184.0 184.0 L 180.0 184.0 L 177.4 183.8 L 174.9 183.4 L 172.5 182.6 L 170.2 181.3 L 168.2 179.7 L 166.6 177.7 L 165.3 175.4 L 164.5 173.0 L 164.1 170.5 L 164.0 168.0 L 164.0 100.0 L 150.0 100.0 L 150.0 134.0 L 149.4 140.9 L 148.5 147.5 L 147.2 153.8 L 145.4 159.7 L 143.2 165.2 L 140.5 170.3 L 137.5 174.9 L 133.9 179.1 L 130.0 182.7 L 125.6 185.6 L 124.3 184.3 L 127.2 180.1 L 129.6 175.9 L 131.8 171.5 L 133.7 167.0 L 135.2 162.2 L 136.4 157.2 L 137.3 151.8 L 137.9 146.2 L 138.1 140.2 L 138.0 134.0 L 138.0 90.0 Z M 32.8 121.5 L 32.8 142.0 L 50.8 142.0 L 50.8 121.5 Z M 32.8 98.0 L 32.8 117.5 L 50.8 117.5 L 50.8 98.0 Z M 37.6 92.3 L 37.6 55.4 L 49.6 61.4 L 148.3 61.4 L 154.3 56.4 L 165.3 65.4 L 160.3 69.4 L 160.3 86.3 L 148.3 92.3 L 148.3 86.3 L 49.6 86.3 Z M 49.6 65.4 L 49.6 82.3 L 74.2 82.3 L 74.2 65.4 Z M 86.2 65.4 L 86.2 82.3 L 111.7 82.3 L 111.7 65.4 Z M 123.7 65.4 L 123.7 82.3 L 148.3 82.3 L 148.3 65.4 Z M 52.3 50.6 L 50.1 50.5 L 47.9 50.0 L 45.8 49.2 L 43.8 47.9 L 42.1 46.2 L 40.7 44.2 L 39.7 41.9 L 39.0 39.6 L 38.7 37.0 L 38.7 30.4 L 16.5 30.4 L 16.5 26.4 L 94.0 26.4 L 94.0 12.4 L 106.0 14.4 L 109.0 16.4 L 106.0 18.2 L 106.0 26.4 L 161.4 26.4 L 171.4 16.4 L 183.4 26.4 L 183.4 30.4 L 50.7 30.4 L 50.7 37.0 L 50.5 38.3 L 50.4 39.3 L 50.4 40.6 L 50.5 41.2 L 50.8 41.7 L 51.2 42.2 L 52.0 42.7 L 53.2 43.2 L 54.7 43.5 L 167.9 43.5 L 170.0 44.9 L 171.4 47.0 L 170.0 49.1 L 167.9 50.5 L 54.7 50.5 Z " />
</g>
</svg>
