<svg xmlns="http://www.w3.org/2000/svg" xmlns:xlink="http://www.w3.org/1999/xlink" version="1.1" baseProfile="full" viewBox="0 0 200 200" width="200" height="200">
<g fill="black">
<path d="M 126.12705764770507 18.723765468597414 L 127.3 53.1 L 128.84150943756103 66.0 L 177.5 66.0 L 182.0 60.0 L 188.0 66.0 L 188.0 70.0 L 129.31949682235717 70.0 L 131.1 84.9 L 136.7 110.7 L 143.6 131.2 L 151.3 146.9 L 159.2 158.4 L 166.7 166.2 L 173.5 171.0 L 176.59921159744263 172.40341653823853 L 182.0 149.0 L 184.0 149.0 L 182.07446804046631 174.0319149017334 L 186.2 175.8 L 188.0 180.0 L 186.2 184.2 L 182.0 186.0 L 175.3 184.8 L 167.6 181.5 L 158.9 175.3 L 149.9 166.0 L 140.9 153.0 L 132.5 135.8 L 125.1 113.9 L 119.2 86.9 L 117.2480242729187 70.0 L 12.0 70.0 L 12.0 66.0 L 31.0 66.0 L 31.0 28.0 L 43.0 30.0 L 46.0 32.0 L 43.0 33.8 L 43.0 66.0 L 58.0 66.0 L 58.0 13.0 L 70.0 15.0 L 73.0 17.0 L 70.0 18.8 L 70.0 38.0 L 85.81818180084228 38.0 L 94.0 29.0 L 104.0 38.0 L 104.0 42.0 L 70.0 42.0 L 70.0 66.0 L 116.7860182762146 66.0 L 115.4 54.0 L 114.03579034805298 15.99701747894287 L 114.0 16.0 L 114.0 12.6 L 126.0 15.0 L 129.0 17.0 Z M 92.0 181.0 L 97.0 181.0 L 97.0 167.0 L 109.0 167.0 L 109.0 185.0 L 92.0 185.0 Z M 86.0 185.0 L 76.0 185.0 L 76.0 181.0 L 86.0 181.0 Z M 70.0 185.0 L 60.0 185.0 L 60.0 181.0 L 70.0 181.0 Z M 21.0 167.0 L 33.0 167.0 L 33.0 181.0 L 38.0 181.0 L 38.0 185.0 L 21.0 185.0 Z M 54.0 185.0 L 44.0 185.0 L 44.0 181.0 L 54.0 181.0 Z M 109.0 164.0 L 97.0 164.0 L 97.0 146.0 L 109.0 146.0 Z M 33.0 164.0 L 21.0 164.0 L 21.0 146.0 L 33.0 146.0 Z M 109.0 144.0 L 97.0 144.0 L 97.0 126.0 L 109.0 126.0 Z M 33.0 144.0 L 21.0 144.0 L 21.0 126.0 L 33.0 126.0 Z M 33.0 123.0 L 21.0 123.0 L 21.0 105.0 L 33.0 105.0 Z M 109.0 123.0 L 97.0 123.0 L 97.0 105.0 L 109.0 105.0 Z M 109.0 102.0 L 97.0 102.0 L 97.0 89.0 L 92.0 89.0 L 92.0 85.0 L 109.0 85.0 Z M 38.0 89.0 L 33.0 89.0 L 33.0 102.0 L 21.0 102.0 L 21.0 85.0 L 38.0 85.0 Z M 86.0 89.0 L 76.0 89.0 L 76.0 85.0 L 86.0 85.0 Z M 70.0 89.0 L 60.0 89.0 L 60.0 85.0 L 70.0 85.0 Z M 54.0 89.0 L 44.0 89.0 L 44.0 85.0 L 54.0 85.0 Z " />
</g>
</svg>
