<svg xmlns="http://www.w3.org/2000/svg" xmlns:xlink="http://www.w3.org/1999/xlink" version="1.1" baseProfile="full" viewBox="0 0 200 200" width="200" height="200">
<g fill="black">
<path d="M 70.0 175.9 L 90.0 175.9 L 91.2 175.8 L 92.1 175.6 L 92.7 175.5 L 93.0 175.3 L 93.4 174.9 L 93.7 174.0 L 93.9 173.1 L 94.0 171.9 L 94.0 135.5 L 13.0 135.5 L 13.0 131.5 L 94.0 131.5 L 94.0 110.2 L 105.62591094970703 112.13765182495118 L 105.8 112.0 L 110.1 108.8 L 114.3 105.8 L 118.5 102.9 L 122.6 100.1 L 126.6 97.3 L 130.5 94.5 L 132.0481481552124 93.4 L 44.0 93.4 L 44.0 89.4 L 137.47142858505248 89.4 L 138.0 89.0 L 141.7 86.3 L 142.05606870651246 86.85327606201172 L 145.0 84.4 L 156.0 93.4 L 151.0 96.4 L 139.12244901657104 101.34897956848144 L 135.7 103.1 L 131.3 105.3 L 126.8 107.4 L 122.2 109.5 L 117.5 111.6 L 112.6 113.5 L 107.6 115.3 L 106.71052627563476 115.57368421554565 L 106.0 116.0 L 106.0 131.5 L 166.0 131.5 L 176.0 121.5 L 188.0 131.5 L 188.0 135.5 L 106.0 135.5 L 106.0 171.9 L 105.8 174.4 L 105.4 176.9 L 104.6 179.3 L 103.3 181.6 L 101.7 183.6 L 99.7 185.3 L 97.4 186.5 L 95.0 187.3 L 92.5 187.7 L 90.0 187.9 L 90.0 181.9 L 70.0 178.9 Z M 151.3 53.2 L 152.7 56.5 L 148.8502836227417 56.43362560272217 L 148.8 56.5 L 143.4 63.3 L 140.5 66.8 L 134.3 74.0 L 130.9 77.7 L 127.4 81.4 L 123.7 85.1 L 119.7 88.8 L 118.3 87.7 L 120.8 82.9 L 123.3 78.3 L 125.8 73.9 L 128.3 69.6 L 130.6 65.5 L 133.0 61.5 L 135.2 57.7 L 137.3 53.9 L 139.3 50.3 L 140.7290496826172 47.667540073394775 L 140.6 47.6 L 141.7 46.0 Z M 67.1 74.1 L 66.0 70.8 L 64.7 67.5 L 63.2 64.4 L 61.5 61.3 L 59.7 58.2 L 57.8 55.2 L 55.7 52.1 L 53.2 49.2 L 54.4 47.8 L 61.0 52.0 L 64.1 54.4 L 67.0 57.0 L 69.7 59.9 L 72.2 63.0 L 74.5 66.3 L 76.7 69.7 L 78.6 73.4 L 80.4 77.2 L 80.0 81.8 L 76.5 84.8 L 72.0 84.3 L 69.0 80.9 L 68.1 77.4 Z M 180.8 41.3 L 180.8 45.3 L 21.1 45.3 L 21.1 41.3 L 158.8 41.3 L 168.8 31.3 Z M 99.7 30.8 L 98.6 29.0 L 97.1 27.0 L 95.2 25.1 L 93.0 23.1 L 90.5 21.0 L 87.6 19.0 L 84.5 16.8 L 80.9 15.0 L 81.5 13.3 L 85.5 14.3 L 89.4 15.2 L 93.0 16.2 L 96.4 17.4 L 99.5 18.8 L 102.4 20.3 L 105.1 22.0 L 107.5 24.0 L 109.8 26.1 L 111.7 28.4 L 112.1 33.0 L 109.3 36.6 L 104.7 37.0 L 101.1 34.2 L 100.6 32.5 Z " />
</g>
</svg>
