<svg xmlns="http://www.w3.org/2000/svg" xmlns:xlink="http://www.w3.org/1999/xlink" version="1.1" baseProfile="full" viewBox="0 0 200 200" width="200" height="200">
<g fill="black">
<path d="M 92.0 164.0 L 104.0 164.0 L 104.0 179.0 L 110.0 179.0 L 110.0 183.0 L 92.0 183.0 Z M 39.0 183.0 L 32.0 183.0 L 32.0 179.0 L 39.0 179.0 Z M 14.0 164.0 L 26.0 164.0 L 26.0 179.0 L 28.0 179.0 L 28.0 183.0 L 14.0 183.0 Z M 50.0 183.0 L 43.0 183.0 L 43.0 179.0 L 50.0 179.0 Z M 62.0 183.0 L 55.0 183.0 L 55.0 179.0 L 62.0 179.0 Z M 66.0 179.0 L 68.0 179.0 L 68.0 164.0 L 80.0 164.0 L 80.0 183.0 L 66.0 183.0 Z M 127.0 183.0 L 116.0 183.0 L 116.0 179.0 L 127.0 179.0 Z M 143.0 183.0 L 133.0 183.0 L 133.0 179.0 L 143.0 179.0 Z M 161.0 183.0 L 151.0 183.0 L 151.0 179.0 L 161.0 179.0 Z M 167.0 179.0 L 173.0 179.0 L 173.0 164.0 L 185.0 164.0 L 185.0 183.0 L 167.0 183.0 Z M 104.0 161.0 L 92.0 161.0 L 92.0 141.0 L 104.0 141.0 Z M 26.0 161.0 L 14.0 161.0 L 14.0 141.0 L 26.0 141.0 Z M 80.0 161.0 L 68.0 161.0 L 68.0 141.0 L 80.0 141.0 Z M 185.0 161.0 L 173.0 161.0 L 173.0 141.0 L 185.0 141.0 Z M 80.0 137.0 L 68.0 137.0 L 68.0 119.0 L 80.0 119.0 Z M 26.0 137.0 L 14.0 137.0 L 14.0 119.0 L 26.0 119.0 Z M 104.0 137.0 L 92.0 137.0 L 92.0 119.0 L 104.0 119.0 Z M 185.0 137.0 L 173.0 137.0 L 173.0 119.0 L 185.0 119.0 Z M 104.0 115.0 L 92.0 115.0 L 92.0 96.0 L 104.0 96.0 Z M 185.0 115.0 L 173.0 115.0 L 173.0 96.0 L 185.0 96.0 Z M 80.0 115.0 L 68.0 115.0 L 68.0 96.0 L 80.0 96.0 Z M 26.0 115.0 L 14.0 115.0 L 14.0 96.0 L 26.0 96.0 Z M 110.0 77.0 L 104.0 77.0 L 104.0 93.0 L 92.0 93.0 L 92.0 73.0 L 110.0 73.0 Z M 28.0 77.0 L 26.0 77.0 L 26.0 93.0 L 14.0 93.0 L 14.0 73.0 L 28.0 73.0 Z M 185.0 93.0 L 173.0 93.0 L 173.0 77.0 L 167.0 77.0 L 167.0 73.0 L 185.0 73.0 Z M 80.0 93.0 L 68.0 93.0 L 68.0 77.0 L 66.0 77.0 L 66.0 73.0 L 80.0 73.0 Z M 39.0 77.0 L 32.0 77.0 L 32.0 73.0 L 39.0 73.0 Z M 50.0 77.0 L 43.0 77.0 L 43.0 73.0 L 50.0 73.0 Z M 62.0 77.0 L 55.0 77.0 L 55.0 73.0 L 62.0 73.0 Z M 161.0 77.0 L 151.0 77.0 L 151.0 73.0 L 161.0 73.0 Z M 143.0 77.0 L 133.0 77.0 L 133.0 73.0 L 143.0 73.0 Z M 127.0 77.0 L 116.0 77.0 L 116.0 73.0 L 127.0 73.0 Z M 139.0 14.0 L 142.0 16.0 L 139.0 17.8 L 139.0 37.0 L 168.8181818008423 37.0 L 177.0 28.0 L 187.0 37.0 L 187.0 41.0 L 139.0 41.0 L 139.0 61.0 L 127.0 67.0 L 127.0 41.0 L 73.0 41.0 L 73.0 61.0 L 61.0 67.0 L 61.0 41.0 L 13.0 41.0 L 13.0 37.0 L 61.0 37.0 L 61.0 12.0 L 73.0 14.0 L 76.0 16.0 L 73.0 17.8 L 73.0 37.0 L 127.0 37.0 L 127.0 12.0 Z " />
</g>
</svg>
