<svg xmlns="http://www.w3.org/2000/svg" xmlns:xlink="http://www.w3.org/1999/xlink" version="1.1" baseProfile="full" viewBox="0 0 200 200" width="200" height="200">
<g fill="black">
<path d="M 34.0 175.4 L 51.2 175.4 L 52.1 175.2 L 52.7 175.0 L 53.0 174.8 L 53.2 174.7 L 53.4 174.5 L 53.7 173.6 L 53.9 172.7 L 54.0 171.4 L 54.0 136.6 L 13.5 136.6 L 13.5 132.6 L 54.0 132.6 L 54.0 116.1 L 62.73962268829346 117.55660381317139 L 63.5 116.6 L 66.3 112.8 L 68.9 109.2 L 71.4 105.9 L 73.6 102.7 L 75.6 99.7 L 77.4 96.9 L 78.55200004577637 95.1 L 27.6 95.1 L 27.6 91.1 L 80.4 91.1 L 81.0 90.6 L 81.4 89.8 L 81.7125 90.00625 L 86.4 86.1 L 88.58421049118041 87.8870813369751 L 89.3 86.0 L 90.0 82.9 L 90.6 80.1 L 91.3 77.4 L 91.8 74.8 L 92.3 72.4 L 92.8 70.2 L 93.14545450210571 68.3 L 26.513953495025635 68.3 L 26.7 70.3 L 26.8 74.3 L 26.8 78.0 L 26.6 81.4 L 26.1 84.5 L 25.4 87.5 L 24.3 90.2 L 22.8 92.7 L 18.6 94.5 L 14.3 92.9 L 12.5 88.7 L 14.2 84.4 L 15.0 84.0 L 16.0 83.0 L 17.1 81.4 L 18.2 79.3 L 19.2 76.6 L 20.2 73.5 L 21.1 69.9 L 22.0 65.9 L 22.9 61.4 L 23.3 56.5 L 25.1 56.5 L 25.6 61.4 L 26.041304302215575 64.3 L 54.0 64.3 L 54.0 42.0 L 16.8 42.0 L 16.8 38.0 L 54.0 38.0 L 54.0 13.0 L 66.0 15.0 L 69.0 17.0 L 66.0 18.8 L 66.0 38.0 L 81.2 38.0 L 91.2 28.0 L 103.2 38.0 L 103.2 42.0 L 66.0 42.0 L 66.0 64.3 L 93.3 64.3 L 99.3 59.3 L 108.2 66.58181819915771 L 108.2 50.0 L 120.2 50.0 L 120.2 77.8 L 108.2 77.8 L 108.2 69.56000003814697 L 105.3 71.3 L 102.23742332458497 72.57607364654541 L 101.4 73.8 L 100.0 75.8 L 98.6 77.9 L 97.0 80.0 L 95.3 82.3 L 93.5 84.6 L 91.5 87.0 L 90.13999996185302 89.16000003814698 L 97.4 95.1 L 92.4 98.1 L 88.28571424484252 99.81428575515747 L 87.3 100.8 L 84.9 103.1 L 82.3 105.5 L 79.5 108.0 L 76.4 110.6 L 73.1 113.3 L 69.5 116.0 L 66.2981481552124 118.29876546859741 L 69.0 120.1 L 66.0 121.9 L 66.0 132.6 L 84.4 132.6 L 94.4 122.6 L 106.4 132.6 L 106.4 136.6 L 66.0 136.6 L 66.0 171.4 L 65.8 174.0 L 65.4 176.5 L 64.6 178.9 L 63.3 181.1 L 61.7 183.2 L 59.7 184.8 L 57.4 186.0 L 55.0 186.8 L 52.5 187.3 L 50.0 187.4 L 50.0 181.4 L 34.0 178.4 Z M 108.2 156.7 L 120.2 156.7 L 120.2 180.4 L 123.7 180.4 L 123.7 184.4 L 108.2 184.4 Z M 138.0 184.4 L 128.5 184.4 L 128.5 180.4 L 138.0 180.4 Z M 152.2 184.4 L 142.7 184.4 L 142.7 180.4 L 152.2 180.4 Z M 166.5 184.4 L 157.0 184.4 L 157.0 180.4 L 166.5 180.4 Z M 171.2 180.4 L 174.7 180.4 L 174.7 156.7 L 186.7 156.7 L 186.7 184.4 L 171.2 184.4 Z M 186.7 148.9 L 174.7 148.9 L 174.7 121.2 L 186.7 121.2 Z M 120.2 148.9 L 108.2 148.9 L 108.2 121.2 L 120.2 121.2 Z M 120.2 113.3 L 108.2 113.3 L 108.2 85.6 L 120.2 85.6 Z M 186.7 113.3 L 174.7 113.3 L 174.7 85.6 L 186.7 85.6 Z M 186.7 77.8 L 174.7 77.8 L 174.7 50.0 L 186.7 50.0 Z M 123.7 18.5 L 120.2 18.5 L 120.2 42.2 L 108.2 42.2 L 108.2 14.5 L 123.7 14.5 Z M 186.7 42.2 L 174.7 42.2 L 174.7 18.5 L 171.2 18.5 L 171.2 14.5 L 186.7 14.5 Z M 166.5 18.5 L 157.0 18.5 L 157.0 14.5 L 166.5 14.5 Z M 152.2 18.5 L 142.7 18.5 L 142.7 14.5 L 152.2 14.5 Z M 138.0 18.5 L 128.5 18.5 L 128.5 14.5 L 138.0 14.5 Z " />
</g>
</svg>
