<svg xmlns="http://www.w3.org/2000/svg" xmlns:xlink="http://www.w3.org/1999/xlink" version="1.1" baseProfile="full" viewBox="0 0 200 200" width="200" height="200">
<g fill="black">
<path d="M 139.7 185.7 L 149.8 185.7 L 149.8 174.2 L 161.8 174.2 L 161.8 189.7 L 139.7 189.7 Z M 37.1 174.2 L 49.1 174.2 L 49.1 185.7 L 59.2 185.7 L 59.2 189.7 L 37.1 189.7 Z M 83.4 189.7 L 67.3 189.7 L 67.3 185.7 L 83.4 185.7 Z M 107.5 189.7 L 91.4 189.7 L 91.4 185.7 L 107.5 185.7 Z M 131.7 189.7 L 115.6 189.7 L 115.6 185.7 L 131.7 185.7 Z M 161.8 172.5 L 149.8 172.5 L 149.8 157.0 L 161.8 157.0 Z M 49.1 172.5 L 37.1 172.5 L 37.1 157.0 L 49.1 157.0 Z M 161.8 155.2 L 149.8 155.2 L 149.8 139.7 L 161.8 139.7 Z M 49.1 155.2 L 37.1 155.2 L 37.1 139.7 L 49.1 139.7 Z M 161.8 138.0 L 149.8 138.0 L 149.8 122.5 L 161.8 122.5 Z M 49.1 138.0 L 37.1 138.0 L 37.1 122.5 L 49.1 122.5 Z M 59.2 109.2 L 49.1 109.2 L 49.1 120.7 L 37.1 120.7 L 37.1 105.2 L 59.2 105.2 Z M 161.8 120.7 L 149.8 120.7 L 149.8 109.2 L 139.7 109.2 L 139.7 105.2 L 161.8 105.2 Z M 131.7 109.2 L 115.6 109.2 L 115.6 105.2 L 131.7 105.2 Z M 107.5 109.2 L 91.4 109.2 L 91.4 105.2 L 107.5 105.2 Z M 83.4 109.2 L 67.3 109.2 L 67.3 105.2 L 83.4 105.2 Z M 144.0 69.0 L 146.0 69.0 L 144.0 78.0 L 146.4 79.6 L 148.0 82.0 L 146.4 84.4 L 144.0 86.0 L 67.6 86.0 L 65.3 85.8 L 63.0 85.3 L 60.9 84.3 L 58.9 83.0 L 57.2 81.2 L 55.9 79.2 L 54.9 76.9 L 54.3 74.5 L 54.0 72.0 L 54.0 13.0 L 66.0 15.0 L 69.0 17.0 L 66.0 18.8 L 66.0 46.68658533096313 L 68.1 46.2 L 76.2 44.3 L 84.3 42.5 L 92.2 40.6 L 100.1 38.6 L 107.9 36.5 L 115.6 34.2 L 123.2 31.8 L 130.7 29.3 L 137.21040811538697 26.92458086013794 L 137.2 26.9 L 137.22319717407225 26.919914531707764 L 138.1 26.6 L 138.60088109970093 28.10264320373535 L 147.8 36.0 L 148.1 39.1 L 143.99610223770142 37.289456844329834 L 141.9 38.0 L 134.0 40.2 L 126.1 42.2 L 118.1 44.0 L 110.0 45.6 L 101.8 46.9 L 93.6 48.1 L 85.3 49.0 L 77.0 49.7 L 68.5 49.9 L 66.0 49.87058820724487 L 66.0 72.0 L 65.8 73.2 L 65.8 74.9 L 65.9 75.5 L 66.0 75.9 L 66.2 76.4 L 66.7 76.8 L 67.4 77.3 L 68.5 77.7 L 70.0 78.0 L 140.0 78.0 Z " />
</g>
</svg>
