<svg xmlns="http://www.w3.org/2000/svg" xmlns:xlink="http://www.w3.org/1999/xlink" version="1.1" baseProfile="full" viewBox="0 0 200 200" width="200" height="200">
<g fill="black">
<path d="M 17.0 177.9 L 25.6 176.8 L 34.3 175.8 L 42.9 174.7 L 54.0 173.4241379737854 L 54.0 133.0 L 25.0 133.0 L 25.0 129.0 L 54.0 129.0 L 54.0 108.0 L 66.0 110.0 L 69.0 112.0 L 66.0 113.8 L 66.0 129.0 L 73.0 129.0 L 83.0 119.0 L 95.0 129.0 L 95.0 133.0 L 84.50350875854492 133.0 L 92.2 137.1 L 94.3 140.0 L 90.35133924484253 140.6808035850525 L 88.7 143.8 L 86.9 147.3 L 85.1 150.9 L 81.1 158.1 L 78.9 161.9 L 76.7 165.6 L 74.2 169.4 L 72.98300285339356 171.37762041091918 L 77.6 170.9 L 86.3 170.1 L 95.0 169.5 L 103.8 169.1 L 104.1 170.8 L 95.7 173.2 L 87.2 175.4 L 78.7 177.4 L 70.2 179.3 L 61.6 181.1 L 53.1 182.9 L 44.5 184.6 L 36.0 186.3 L 27.4 188.0 L 22.88999996185303 188.90200004577636 L 21.3 192.4 L 18.9 189.7 L 15.0 178.2 Z M 66.0 133.0 L 66.0 172.10348834991456 L 68.9 171.8 L 70.3371681213379 171.65132741928102 L 71.2 168.2 L 72.2 163.8 L 73.4 159.5 L 74.5 155.4 L 75.6 151.4 L 76.7 147.5 L 77.9 143.6 L 78.9 139.9 L 80.0 136.3 L 80.73840036392212 133.64175872802736 L 80.6 133.6 L 80.84545450210571 133.0 Z M 36.8 158.9 L 36.3 155.5 L 35.7 152.2 L 35.1 149.0 L 34.4 145.9 L 33.6 142.9 L 32.8 140.0 L 32.0 137.0 L 30.8 134.3 L 32.3 133.3 L 34.3 135.5 L 36.6 137.9 L 38.6 140.5 L 40.6 143.3 L 42.3 146.3 L 44.0 149.5 L 45.5 152.8 L 46.9 156.4 L 48.2 160.1 L 49.3 163.9 L 48.3 168.4 L 44.5 170.9 L 40.0 169.9 L 37.5 166.1 L 37.2 162.4 Z M 53.4 85.7 L 55.6 88.5 L 51.924229049682616 89.41894273757934 L 50.9 92.0 L 48.1 97.9 L 45.0 103.6 L 41.6 108.9 L 37.8 113.9 L 33.8 118.5 L 29.5 122.7 L 24.8 126.5 L 19.8 129.9 L 14.5 132.7 L 13.4 131.2 L 17.4 126.9 L 21.1 122.6 L 24.7 118.2 L 27.9 113.7 L 30.9 109.0 L 33.6 104.1 L 36.1 98.9 L 38.3 93.6 L 40.2 88.0 L 41.611156177520755 83.10245809555053 L 41.6 83.1 L 41.71914892196655 82.7276596069336 L 41.9 82.1 L 41.918178939819335 82.10569076538086 L 42.4 80.6 Z M 87.5 106.3 L 84.6 102.7 L 81.6 99.3 L 78.5 95.9 L 75.3 92.5 L 68.7 85.7 L 65.3 82.3 L 66.3 80.8 L 70.8 82.8 L 75.2 85.0 L 79.4 87.6 L 83.4 90.3 L 87.3 93.2 L 91.1 96.3 L 94.7 99.5 L 98.2 102.8 L 101.6 106.3 L 104.9 109.9 L 106.0 114.4 L 103.8 118.3 L 99.3 119.4 L 95.4 117.2 L 90.2 109.8 Z M 14.0 72.0 L 30.0 72.0 L 30.0 30.0 L 42.0 32.0 L 45.0 34.0 L 42.0 35.8 L 42.0 72.0 L 54.0 72.0 L 54.0 12.0 L 66.0 14.0 L 69.0 16.0 L 66.0 17.8 L 66.0 41.0 L 79.77777776718139 41.0 L 86.0 34.0 L 94.0 41.0 L 94.0 45.0 L 66.0 45.0 L 66.0 72.0 L 85.0 72.0 L 95.0 62.0 L 107.0 72.0 L 107.0 76.0 L 14.0 76.0 Z " />
</g>
</svg>
