<svg xmlns="http://www.w3.org/2000/svg" xmlns:xlink="http://www.w3.org/1999/xlink" version="1.1" baseProfile="full" viewBox="0 0 200 200" width="200" height="200">
<g fill="black">
<path d="M 154.3 182.7 L 145.3 178.5 L 136.9 173.8 L 129.3 168.7 L 122.3 163.1 L 116.1 157.0 L 110.7 150.4 L 106.2 143.4 L 103.04230136871338 136.54328308105468 L 100.1 143.0 L 95.3 150.4 L 89.4 157.2 L 82.4 163.4 L 74.4 169.0 L 65.2 174.2 L 55.1 178.8 L 43.9 182.8 L 31.6 186.3 L 18.2 189.1 L 17.7 187.4 L 30.4 182.7 L 42.0 177.8 L 52.3 172.8 L 61.5 167.6 L 69.5 162.1 L 76.4 156.3 L 82.0 150.4 L 86.5 144.2 L 89.9 137.9 L 90.39538459777832 136.5 L 18.0 136.5 L 18.0 132.5 L 91.81076927185059 132.5 L 92.06160459518432 131.791117477417 L 93.78888893127441 100.7 L 56.32399997711182 100.7 L 55.1 102.4 L 51.3 107.2 L 47.0 111.8 L 42.5 116.2 L 37.6 120.3 L 32.2 124.1 L 26.5 127.5 L 25.4 126.1 L 29.7 121.2 L 33.8 116.4 L 37.7 111.7 L 41.2 106.9 L 44.5 102.1 L 47.4 97.3 L 50.0 92.3 L 52.3 87.4 L 54.3 82.3 L 55.66742496490478 78.11728839874267 L 55.6 78.1 L 56.5 75.7 L 67.3 81.1 L 69.4 84.0 L 65.65321578979493 84.78879671096801 L 64.8 86.7 L 61.9 92.1 L 59.122641468048094 96.7 L 146.0 96.7 L 156.0 86.7 L 168.0 96.7 L 168.0 100.7 L 105.87965612411499 100.7 L 103.96618909835816 132.5 L 160.0 132.5 L 170.0 122.5 L 182.0 132.5 L 182.0 136.5 L 105.63999996185302 136.5 L 109.6 140.9 L 115.1 146.5 L 121.1 151.7 L 127.5 156.5 L 134.4 160.9 L 141.9 164.9 L 149.9 168.5 L 158.5 171.6 L 167.7 174.4 L 177.5 176.7 L 186.1 178.9 L 174.4 189.6 L 164.0 186.4 Z M 57.2 26.5 L 142.7 26.5 L 148.7 21.5 L 159.7 30.5 L 154.7 34.5 L 154.7 75.4 L 142.7 81.4 L 142.7 69.4 L 57.2 69.4 L 45.2 75.4 L 45.2 20.5 Z M 57.2 30.5 L 57.2 65.4 L 142.7 65.4 L 142.7 30.5 Z " />
</g>
</svg>
