<svg xmlns="http://www.w3.org/2000/svg" xmlns:xlink="http://www.w3.org/1999/xlink" version="1.1" baseProfile="full" viewBox="0 0 200 200" width="200" height="200">
<g fill="black">
<path d="M 179.7 134.6 L 180.7 138.1 L 176.96185646057128 137.45549249649048 L 172.7 141.9 L 165.4 148.7 L 157.8 155.1 L 149.8 161.1 L 141.5 166.6 L 132.8 171.7 L 123.9 176.3 L 114.6 180.4 L 104.9 183.9 L 94.9 186.8 L 94.3 185.1 L 103.4 180.4 L 112.2 175.6 L 120.7 170.5 L 128.9 165.2 L 136.7 159.6 L 144.1 153.7 L 151.2 147.5 L 158.0 140.9 L 164.5 134.0 L 170.6 126.8 L 170.6388889312744 126.83333330154419 L 171.0 126.4 Z M 165.9 99.3 L 167.2 102.6 L 163.44880542755126 102.34129695892334 L 160.5 106.0 L 154.7 112.2 L 148.8 118.1 L 142.5 123.5 L 136.0 128.5 L 129.3 133.0 L 122.3 137.0 L 115.1 140.5 L 107.6 143.5 L 99.9 145.8 L 99.2 144.1 L 106.0 140.0 L 112.5 135.8 L 118.8 131.4 L 124.9 126.8 L 130.7 121.8 L 136.3 116.6 L 141.6 111.0 L 146.7 105.1 L 151.6 98.8 L 155.6237352371216 93.11428718566894 L 155.6 93.1 L 156.7 91.6 Z M 151.9 68.1 L 153.3 71.5 L 149.44249334335328 71.30047378540038 L 147.6 73.7 L 143.2 78.9 L 138.7 83.8 L 134.0 88.4 L 129.1 92.7 L 124.1 96.7 L 119.0 100.3 L 113.6 103.6 L 108.1 106.4 L 102.5 108.7 L 101.6 107.2 L 106.1 103.2 L 114.9 95.2 L 119.1 91.0 L 123.2 86.6 L 127.2 82.0 L 131.1 77.2 L 134.9 72.2 L 138.5 66.9 L 141.46696424484253 62.2376275062561 L 141.4 62.2 L 142.5 60.7 Z M 167.2 72.0 L 162.5 67.1 L 158.0 61.7 L 153.7 55.8 L 149.6 49.5 L 145.8 42.8 L 142.2 35.5 L 139.40443000793456 28.7731595993042 L 135.4 36.6 L 130.7 44.8 L 125.7 52.4 L 120.4 59.5 L 114.8 66.0 L 108.9 72.0 L 102.8 77.4 L 96.3 82.1 L 94.90380229949952 82.92129278182983 L 95.0 83.0 L 90.0 86.0 L 88.9810133934021 86.4245777130127 L 86.8 97.4 L 82.8 112.1 L 77.7 125.7 L 71.6 138.3 L 64.5 149.8 L 56.4 160.1 L 47.3 169.4 L 37.3 177.5 L 26.3 184.3 L 14.3 189.8 L 13.6 188.1 L 24.3 181.0 L 34.0 173.2 L 42.7 164.7 L 50.5 155.4 L 57.4 145.1 L 63.3 134.0 L 68.4 122.0 L 72.5 109.0 L 75.7 95.1 L 77.55533332824707 83.0 L 41.354545497894286 83.0 L 39.8 88.7 L 37.4 96.0 L 34.6 102.9 L 34.23416147232056 103.667080783844 L 35.9 104.5 L 39.5 106.1 L 42.9 108.1 L 46.0 110.2 L 48.9 112.6 L 51.5 115.1 L 53.9 117.9 L 56.1 120.8 L 58.0 123.9 L 59.7 127.2 L 59.3 131.8 L 55.9 134.8 L 51.3 134.4 L 48.3 131.0 L 47.7 128.3 L 46.9 125.7 L 45.8 123.0 L 44.5 120.3 L 43.0 117.7 L 41.2 115.0 L 39.1 112.3 L 36.8 109.6 L 34.3 106.8 L 33.19622640609741 105.84339618682861 L 31.5 109.4 L 27.9 115.5 L 23.9 121.1 L 19.5 126.1 L 14.6 130.5 L 13.3 129.4 L 16.5 123.8 L 19.4 118.2 L 22.1 112.4 L 24.6 106.3 L 26.7 100.0 L 28.6 93.3 L 30.1 86.3 L 31.3 79.0 L 32.3 71.4 L 32.82498435974121 64.40020818710327 L 32.8 64.4 L 33.1 61.2 L 44.8 64.5 L 47.6 66.8 L 44.19809522628784 68.43553113937378 L 43.5 73.0 L 42.3 79.0 L 54.0 79.0 L 54.0 14.0 L 66.0 16.0 L 69.0 18.0 L 66.0 19.8 L 66.0 44.0 L 80.81818180084228 44.0 L 89.0 35.0 L 99.0 44.0 L 99.0 48.0 L 66.0 48.0 L 66.0 79.0 L 78.0 79.0 L 84.0 74.0 L 92.28888893127441 80.78181819915771 L 93.9 79.2 L 99.1 73.5 L 104.1 67.6 L 108.9 61.2 L 113.5 54.5 L 117.8 47.4 L 121.9 39.8 L 125.8 31.8 L 129.4 23.4 L 132.8 14.4 L 132.8791386604309 14.431090164184571 L 133.4 13.1 L 144.0 18.8 L 146.1 21.8 L 142.33401136398317 22.449308395385742 L 141.53158874511718 24.206995964050293 L 142.7 25.9 L 147.3 32.6 L 151.9 38.9 L 156.4 44.7 L 161.0 50.0 L 165.6 54.9 L 170.3 59.3 L 175.0 63.2 L 179.7 66.6 L 184.5 69.5 L 188.4 72.0 L 177.3 80.6 L 172.2 76.5 Z " />
</g>
</svg>
