<svg xmlns="http://www.w3.org/2000/svg" xmlns:xlink="http://www.w3.org/1999/xlink" version="1.1" baseProfile="full" viewBox="0 0 200 200" width="200" height="200">
<g fill="black">
<path d="M 40.0 30.0 L 161.0 30.0 L 167.0 25.0 L 178.0 34.0 L 173.0 38.0 L 173.0 176.0 L 161.0 182.0 L 161.0 170.0 L 40.0 170.0 L 40.0 182.0 L 28.0 188.0 L 28.0 24.0 Z M 78.1 96.8 L 121.8 96.8 L 127.8 91.8 L 138.8 100.8 L 133.8 104.8 L 133.8 149.1 L 121.8 155.1 L 121.8 145.1 L 78.1 145.1 L 78.1 152.1 L 66.1 158.1 L 66.1 90.8 Z M 78.1 100.8 L 78.1 141.1 L 121.8 141.1 L 121.8 100.8 Z M 123.5 84.9 L 121.1 84.6 L 118.8 83.9 L 116.6 82.8 L 114.6 81.3 L 112.9 79.5 L 111.6 77.3 L 110.7 75.0 L 110.2 72.5 L 110.0 70.0 L 110.0 34.0 L 81.2884614944458 34.0 L 90.9 36.1 L 93.9 38.2 L 90.47876558303832 40.07832479476929 L 90.0 44.6 L 88.2 52.5 L 85.5 59.9 L 82.0 66.5 L 77.6 72.5 L 72.4 77.8 L 66.4 82.3 L 59.7 86.0 L 52.3 88.8 L 44.2 90.8 L 43.7 89.1 L 50.8 85.3 L 57.0 81.3 L 62.5 77.0 L 67.0 72.4 L 70.8 67.4 L 73.8 62.0 L 76.1 56.2 L 77.8 49.9 L 78.7 43.1 L 78.9 35.8 L 78.93028011322022 35.800757026672365 L 78.9848484992981 34.0 L 40.0 34.0 L 40.0 166.0 L 161.0 166.0 L 161.0 34.0 L 122.0 34.0 L 122.0 70.0 L 121.9 71.2 L 122.0 72.1 L 122.1 72.8 L 122.3 73.6 L 122.5 73.9 L 122.9 74.2 L 123.6 74.5 L 124.6 74.8 L 126.0 75.0 L 146.0 75.0 L 151.0 58.0 L 153.0 58.0 L 151.0 75.0 L 154.0 77.0 L 156.0 80.0 L 154.0 83.0 L 151.0 85.0 L 126.0 85.0 Z " />
</g>
</svg>
