<svg xmlns="http://www.w3.org/2000/svg" xmlns:xlink="http://www.w3.org/1999/xlink" version="1.1" baseProfile="full" viewBox="0 0 200 200" width="200" height="200">
<g fill="black">
<path d="M 40.0 47.0 L 123.62894735336303 47.0 L 129.2 39.7 L 132.2 36.1 L 135.0 32.5 L 140.6 25.5 L 145.8 18.7 L 148.3 15.3 L 150.09111642837524 12.762585067749024 L 150.0 12.7 L 151.1 11.4 L 159.9 19.5 L 161.0 23.0 L 157.0987427711487 22.3946325302124 L 156.9 22.6 L 153.8 25.7 L 150.5 28.8 L 147.2 31.8 L 143.7 34.8 L 140.2 37.7 L 136.5 40.6 L 132.7 43.4 L 128.7 46.0 L 127.08461542129517 47.0 L 166.0 47.0 L 176.0 37.0 L 188.0 47.0 L 188.0 51.0 L 40.0 51.0 L 40.0 104.0 L 39.4 116.2 L 38.4 127.6 L 36.9 138.3 L 35.0 148.2 L 32.6 157.3 L 29.6 165.5 L 26.2 173.0 L 22.2 179.5 L 17.7 185.1 L 12.6 189.6 L 11.3 188.3 L 14.6 182.8 L 17.5 176.9 L 20.2 170.3 L 22.4 163.1 L 24.3 155.1 L 25.9 146.4 L 27.0 137.0 L 27.7 126.8 L 28.0 115.7 L 28.0 41.0 Z M 75.0 139.8 L 156.9 139.8 L 162.9 134.8 L 173.9 143.8 L 168.9 147.8 L 168.9 179.2 L 156.9 185.2 L 156.9 175.2 L 75.0 175.2 L 75.0 182.2 L 63.0 188.2 L 63.0 133.8 Z M 75.0 143.8 L 75.0 171.2 L 156.9 171.2 L 156.9 143.8 Z M 48.5 120.5 L 110.0 120.5 L 110.0 92.3 L 63.8 92.3 L 63.8 88.3 L 125.7 88.3 L 127.9 85.0 L 131.2 80.0 L 134.3 75.5 L 137.1 71.3 L 139.7 67.6 L 141.9 64.2 L 143.8 61.2 L 145.3 58.5 L 146.6 56.3 L 146.99662733078003 55.40758857727051 L 146.8 55.3 L 147.9 53.7 L 157.4 61.1 L 158.8 64.4 L 154.4185308456421 64.24891481399536 L 153.8 64.9 L 151.5 67.2 L 148.9 69.9 L 146.0 72.8 L 142.7 76.0 L 139.0 79.5 L 134.9 83.2 L 130.4 87.2 L 129.17209300994872 88.3 L 146.2 88.3 L 156.2 78.3 L 168.2 88.3 L 168.2 92.3 L 122.0 92.3 L 122.0 120.5 L 161.5 120.5 L 171.5 110.5 L 183.5 120.5 L 183.5 124.5 L 48.5 124.5 Z M 90.3 78.5 L 89.4 76.5 L 88.0 74.3 L 86.3 72.0 L 84.3 69.6 L 81.9 67.1 L 79.1 64.5 L 76.0 61.7 L 72.4 59.2 L 73.3 57.6 L 77.4 59.3 L 81.4 60.8 L 85.0 62.5 L 88.4 64.3 L 91.5 66.2 L 94.3 68.3 L 96.8 70.5 L 99.1 72.8 L 101.0 75.4 L 102.6 78.1 L 102.3 82.7 L 99.0 85.8 L 94.4 85.5 L 91.3 82.1 L 91.0 80.4 Z M 76.7 37.6 L 75.0 34.9 L 72.8 32.2 L 70.4 29.5 L 67.5 26.9 L 64.3 24.2 L 60.8 21.5 L 56.9 18.8 L 52.5 16.2 L 53.2 14.5 L 58.2 15.9 L 62.9 17.3 L 67.4 19.0 L 71.5 21.0 L 75.3 23.2 L 78.9 25.6 L 82.1 28.3 L 85.1 31.1 L 87.7 34.2 L 90.0 37.6 L 90.2 42.1 L 87.3 45.6 L 82.7 45.9 L 79.2 43.0 L 78.1 40.3 Z " />
</g>
</svg>
