<svg xmlns="http://www.w3.org/2000/svg" xmlns:xlink="http://www.w3.org/1999/xlink" version="1.1" baseProfile="full" viewBox="0 0 200 200" width="200" height="200">
<g fill="black">
<path d="M 73.5 17.3 L 75.7 20.2 L 71.9561074256897 20.988187885284425 L 69.9 25.9 L 68.85238094329834 28.1 L 116.2 28.1 L 122.2 23.1 L 133.2 32.1 L 128.2 35.1 L 125.66902656555176 36.154572296142575 L 123.6 39.8 L 121.2 43.5 L 118.6 47.1 L 115.8 50.7 L 112.8 54.3 L 109.6 57.9 L 106.2 61.3 L 102.4 64.7 L 100.03636360168457 66.7 L 143.4 66.7 L 153.4 56.7 L 165.4 66.7 L 165.4 70.7 L 136.5 70.7 L 136.5 114.0 L 165.2 114.0 L 175.2 104.0 L 187.2 114.0 L 187.2 118.0 L 136.5 118.0 L 136.5 181.1 L 124.5 187.1 L 124.5 118.0 L 75.22692308425903 118.0 L 74.5 126.4 L 72.5 136.2 L 69.2 145.3 L 64.8 153.8 L 59.2 161.6 L 52.5 168.7 L 44.8 175.0 L 36.0 180.5 L 26.1 185.2 L 15.3 189.1 L 14.6 187.4 L 24.4 181.9 L 33.1 176.0 L 40.7 169.9 L 47.1 163.4 L 52.4 156.5 L 56.7 149.3 L 59.9 141.7 L 62.0 133.6 L 63.2 125.1 L 63.356043910980226 118.0 L 12.8 118.0 L 12.8 114.0 L 63.4 114.0 L 63.4 70.7 L 40.62602739334106 70.7 L 38.4 73.2 L 31.4 80.3 L 23.8 87.0 L 15.7 93.4 L 14.5 92.1 L 21.2 84.4 L 27.5 76.7 L 33.4 69.0 L 34.6 67.28888893127441 L 34.6 66.7 L 35.01298704147339 66.7 L 38.8 61.3 L 43.9 53.6 L 48.4 45.7 L 52.5 37.8 L 56.2 29.8 L 59.4 21.7 L 62.1 13.4 L 62.12992124557495 13.410236263275147 L 62.6 12.0 Z M 75.4 70.7 L 75.4 114.0 L 124.5 114.0 L 124.5 70.7 Z M 66.94761905670165 32.1 L 65.9 34.3 L 61.4 42.5 L 56.4 50.5 L 50.9 58.3 L 44.9 65.9 L 44.18767127990723 66.7 L 97.22272729873657 66.7 L 99.8 62.5 L 102.2 58.2 L 104.6 54.1 L 106.8 50.1 L 108.9 46.2 L 110.8 42.4 L 112.5 38.6 L 114.1 35.0 L 115.1472222328186 32.1 Z " />
</g>
</svg>
