<svg xmlns="http://www.w3.org/2000/svg" xmlns:xlink="http://www.w3.org/1999/xlink" version="1.1" baseProfile="full" viewBox="0 0 200 200" width="200" height="200">
<g fill="black">
<path d="M 52.0 101.7 L 148.0 101.7 L 154.0 96.7 L 165.0 105.7 L 160.0 109.7 L 160.0 141.0 L 148.0 147.0 L 148.0 141.0 L 106.0 141.0 L 106.0 154.6 L 164.0 154.6 L 174.0 144.6 L 186.0 154.6 L 186.0 158.6 L 106.0 158.6 L 106.0 182.2 L 94.0 188.2 L 94.0 158.6 L 14.0 158.6 L 14.0 154.6 L 94.0 154.6 L 94.0 141.0 L 52.0 141.0 L 40.0 147.0 L 40.0 95.7 Z M 52.0 123.4 L 52.0 137.0 L 148.0 137.0 L 148.0 123.4 Z M 52.0 105.7 L 52.0 119.4 L 148.0 119.4 L 148.0 105.7 Z M 184.0 25.4 L 184.0 29.4 L 122.0 29.4 L 122.0 41.2 L 154.2 41.2 L 160.2 36.2 L 171.2 45.2 L 166.2 49.2 L 166.2 88.9 L 154.2 94.9 L 154.2 88.9 L 45.8 88.9 L 33.8 94.9 L 33.8 35.2 L 45.8 41.2 L 77.85384616851806 41.2 L 78.1 40.0 L 78.3 35.9 L 78.2 31.7 L 78.0930233001709 29.4 L 16.0 29.4 L 16.0 25.4 L 165.8181818008423 25.4 L 174.0 16.4 Z M 45.8 76.4 L 45.8 84.9 L 154.2 84.9 L 154.2 76.4 Z M 123.6 65.0 L 121.4 64.9 L 119.2 64.4 L 117.1 63.6 L 115.1 62.3 L 113.4 60.6 L 112.0 58.6 L 111.0 56.3 L 110.3 53.9 L 110.0 51.4 L 110.0 45.2 L 86.74509801864625 45.2 L 86.0 47.2 L 83.0 52.2 L 78.9 56.8 L 73.5 60.7 L 66.7 64.0 L 58.3 66.4 L 48.1 68.0 L 47.8 66.2 L 57.1 62.8 L 64.4 59.1 L 69.7 55.4 L 73.4 51.5 L 75.9 47.7 L 76.82105264663696 45.2 L 45.8 45.2 L 45.8 72.4 L 154.2 72.4 L 154.2 45.2 L 122.0 45.2 L 122.0 51.4 L 121.8 52.7 L 121.7 53.7 L 121.7 55.0 L 121.8 55.6 L 122.0 56.1 L 122.5 56.6 L 123.3 57.1 L 124.5 57.6 L 126.0 57.9 L 144.5 57.9 L 148.0 52.9 L 150.0 52.9 L 148.0 57.9 L 150.1 59.3 L 151.5 61.4 L 150.1 63.5 L 148.0 64.9 L 126.0 64.9 Z M 89.82608699798584 29.4 L 89.6 32.0 L 89.0 36.9 L 88.09038457870483 41.2 L 110.0 41.2 L 110.0 29.4 Z " />
</g>
</svg>
