<svg xmlns="http://www.w3.org/2000/svg" xmlns:xlink="http://www.w3.org/1999/xlink" version="1.1" baseProfile="full" viewBox="0 0 200 200" width="200" height="200">
<g fill="black">
<path d="M 133.7 178.0 L 153.7 178.0 L 154.9 177.9 L 155.9 177.8 L 156.4 177.6 L 156.8 177.4 L 157.0 177.2 L 157.1 177.0 L 157.3 176.7 L 157.5 176.1 L 157.6 175.2 L 157.7 174.0 L 157.7 95.4 L 106.0 95.4 L 106.0 178.8 L 94.0 184.8 L 94.0 95.4 L 41.2 95.4 L 41.2 183.4 L 29.2 189.4 L 29.2 85.4 L 41.2 91.4 L 94.0 91.4 L 94.0 66.9 L 71.0 66.9 L 71.0 73.9 L 59.0 79.9 L 59.0 42.9 L 19.0 42.9 L 19.0 38.9 L 59.0 38.9 L 59.0 13.0 L 71.0 15.0 L 74.0 17.0 L 71.0 18.8 L 71.0 38.9 L 127.0 38.9 L 127.0 13.0 L 139.0 15.0 L 142.0 17.0 L 139.0 18.8 L 139.0 38.9 L 160.0 38.9 L 170.0 28.9 L 182.0 38.9 L 182.0 42.9 L 139.0 42.9 L 139.0 70.9 L 127.0 76.9 L 127.0 66.9 L 106.0 66.9 L 106.0 91.4 L 157.7 91.4 L 163.7 86.4 L 174.7 95.4 L 169.7 99.4 L 169.7 174.0 L 169.6 176.5 L 169.1 179.0 L 168.3 181.4 L 167.1 183.7 L 165.5 185.7 L 163.4 187.4 L 161.2 188.6 L 158.8 189.4 L 156.3 189.8 L 153.7 190.0 L 153.7 184.0 L 133.7 181.0 Z M 150.0 150.0 L 112.0 150.0 L 112.0 146.0 L 150.0 146.0 Z M 87.0 150.0 L 48.0 150.0 L 48.0 146.0 L 87.0 146.0 Z M 150.0 120.0 L 112.0 120.0 L 112.0 116.0 L 150.0 116.0 Z M 87.0 120.0 L 48.0 120.0 L 48.0 116.0 L 87.0 116.0 Z M 71.0 42.9 L 71.0 62.9 L 127.0 62.9 L 127.0 42.9 Z " />
</g>
</svg>
