<svg xmlns="http://www.w3.org/2000/svg" xmlns:xlink="http://www.w3.org/1999/xlink" version="1.1" baseProfile="full" viewBox="0 0 200 200" width="200" height="200">
<g fill="black">
<path d="M 159.1 174.1 L 150.0 167.2 L 141.9 159.4 L 140.65875663757325 157.90370664596557 L 131.0 166.5 L 120.0 174.1 L 108.2 180.4 L 95.6 185.3 L 82.2 188.8 L 81.7 187.1 L 94.2 181.8 L 105.7 175.7 L 116.4 168.7 L 126.1 160.7 L 134.9 151.8 L 135.2392366409302 151.37058658599852 L 134.6 150.6 L 128.3 141.0 L 122.8 130.6 L 118.3 119.3 L 114.7 107.1 L 112.46615381240845 95.0 L 103.0 95.0 L 103.0 91.0 L 132.0 91.0 L 132.0 14.0 L 144.0 16.0 L 147.0 18.0 L 144.0 19.8 L 144.0 50.0 L 167.0 50.0 L 177.0 40.0 L 189.0 50.0 L 189.0 54.0 L 144.0 54.0 L 144.0 91.0 L 166.0 91.0 L 172.0 86.0 L 183.0 95.0 L 178.0 98.0 L 176.20594844818115 98.74752149581909 L 172.2 109.6 L 165.8 123.4 L 158.5 136.0 L 150.2 147.4 L 147.46028451919557 150.43751068115233 L 149.1 152.1 L 157.0 158.6 L 165.4 164.2 L 174.5 168.9 L 184.3 172.8 L 191.1 175.4 L 179.6 185.1 L 168.9 180.1 Z M 16.0 172.9 L 23.7 172.0 L 31.5 171.0 L 39.5 170.0 L 47.6 168.9 L 48.0 168.84216871261597 L 48.0 137.0 L 23.0 137.0 L 23.0 133.0 L 48.0 133.0 L 48.0 105.08000001907348 L 46.0 105.4 L 38.4 106.5 L 30.8 107.3 L 23.0 107.7 L 15.1 107.8 L 14.8 106.1 L 22.4 104.0 L 29.9 102.0 L 37.2 100.0 L 44.4 98.0 L 51.5 95.9 L 58.4 93.7 L 65.2 91.4 L 71.9 89.0 L 78.4 86.4 L 83.90627145767212 84.11277952194214 L 83.9 84.1 L 83.91202430725097 84.11038990020752 L 84.9 83.7 L 85.6262420654297 85.59160718917846 L 94.2 93.0 L 94.4 96.1 L 90.45094194412232 94.42464208602905 L 89.2 94.9 L 82.2 97.1 L 75.2 99.2 L 68.1 101.0 L 60.8 102.7 L 60.0 102.86438360214234 L 60.0 133.0 L 67.0 133.0 L 77.0 123.0 L 89.0 133.0 L 89.0 137.0 L 60.0 137.0 L 60.0 167.1630952835083 L 64.3 166.6 L 72.9 165.4 L 81.7 164.2 L 90.6 163.1 L 99.8 162.1 L 100.1 163.8 L 91.4 166.8 L 82.8 169.4 L 74.2 171.8 L 65.8 174.0 L 57.5 176.1 L 49.3 178.0 L 41.2 179.9 L 33.3 181.6 L 25.5 183.2 L 21.911581325531007 183.9082405090332 L 20.3 187.4 L 17.9 184.7 L 14.0 173.2 Z M 118.7 105.8 L 123.7 117.0 L 129.2 127.2 L 135.3 136.5 L 141.16259784698485 143.87266092300416 L 142.8 141.8 L 149.9 130.8 L 156.2 118.7 L 161.6 105.5 L 164.97762241363526 95.0 L 114.59421491622925 95.0 Z M 27.0 84.0 L 15.0 90.0 L 15.0 30.0 L 27.0 32.0 L 30.0 34.0 L 27.0 35.8 L 27.0 68.0 L 49.0 68.0 L 49.0 16.0 L 61.0 18.0 L 64.0 20.0 L 61.0 21.8 L 61.0 68.0 L 83.0 68.0 L 83.0 30.0 L 95.0 32.0 L 98.0 34.0 L 95.0 35.8 L 95.0 72.0 L 83.0 78.0 L 83.0 72.0 L 27.0 72.0 Z " />
</g>
</svg>
