<svg xmlns="http://www.w3.org/2000/svg" xmlns:xlink="http://www.w3.org/1999/xlink" version="1.1" baseProfile="full" viewBox="0 0 200 200" width="200" height="200">
<g fill="black">
<path d="M 52.0 141.0 L 146.0 141.0 L 152.0 136.0 L 163.0 145.0 L 158.0 149.0 L 158.0 174.0 L 146.0 180.0 L 146.0 170.0 L 52.0 170.0 L 52.0 177.0 L 40.0 183.0 L 40.0 135.0 Z M 52.0 145.0 L 52.0 166.0 L 146.0 166.0 L 146.0 145.0 Z M 31.0 120.0 L 94.0 120.0 L 94.0 101.0 L 17.0 101.0 L 17.0 97.0 L 94.0 97.0 L 94.0 79.0 L 31.0 79.0 L 31.0 75.0 L 114.98666667938232 75.0 L 114.4 74.2 L 117.0 71.5 L 119.4 68.6 L 121.7 65.9 L 123.9 63.3 L 126.0 60.7 L 128.0 58.3 L 129.9 56.0 L 131.7 53.7 L 133.4 51.5 L 134.40125789642335 50.18584909439087 L 134.3 50.1 L 134.4 50.0 L 17.0 50.0 L 17.0 46.0 L 77.0 46.0 L 77.0 15.0 L 89.0 17.0 L 92.0 19.0 L 89.0 20.8 L 89.0 46.0 L 110.0 46.0 L 110.0 15.0 L 122.0 17.0 L 125.0 19.0 L 122.0 20.8 L 122.0 46.0 L 133.58529415130616 46.0 L 135.5 43.9 L 138.3 40.4 L 141.0 37.2 L 143.5 34.2 L 145.8 31.3 L 148.0 28.5 L 150.0 25.9 L 151.7 23.5 L 153.3 21.1 L 154.13324871063233 19.79060916900635 L 154.0 19.7 L 155.1 18.4 L 164.0 26.5 L 165.0 30.0 L 160.82594146728516 29.35230121612549 L 159.4 30.6 L 156.9 32.6 L 154.2 34.8 L 151.3 37.0 L 148.1 39.2 L 144.8 41.5 L 141.2 43.8 L 137.56521739959717 46.0 L 160.0 46.0 L 170.0 36.0 L 182.0 46.0 L 182.0 50.0 L 136.13863639831544 50.0 L 143.5 57.9 L 144.2 61.4 L 140.12037181854248 60.397986030578615 L 138.9 61.3 L 136.4 63.0 L 133.8 64.7 L 131.1 66.5 L 128.2 68.3 L 125.2 70.1 L 122.1 71.9 L 118.8 73.6 L 116.6 75.0 L 147.0 75.0 L 157.0 65.0 L 169.0 75.0 L 169.0 79.0 L 106.0 79.0 L 106.0 97.0 L 164.8181818008423 97.0 L 173.0 88.0 L 183.0 97.0 L 183.0 101.0 L 106.0 101.0 L 106.0 118.0 L 102.0 120.0 L 150.8181818008423 120.0 L 159.0 111.0 L 169.0 120.0 L 169.0 124.0 L 31.0 124.0 Z M 68.2 68.1 L 67.4 66.3 L 66.5 64.4 L 65.3 62.6 L 64.0 60.7 L 62.4 58.7 L 60.7 56.8 L 58.8 54.8 L 56.4 53.2 L 57.2 51.6 L 60.0 52.7 L 62.8 53.5 L 65.5 54.6 L 68.0 55.8 L 70.4 57.2 L 72.6 58.8 L 74.8 60.5 L 76.7 62.4 L 78.5 64.5 L 80.1 66.7 L 80.3 71.3 L 77.2 74.7 L 72.6 74.8 L 69.2 71.7 L 68.8 69.9 Z M 48.8 38.1 L 48.2 36.1 L 47.3 34.0 L 46.2 31.9 L 44.8 29.6 L 43.1 27.3 L 41.2 24.9 L 39.0 22.4 L 36.3 20.2 L 37.3 18.7 L 40.4 20.4 L 43.6 21.7 L 46.5 23.3 L 49.3 25.0 L 51.8 26.9 L 54.0 28.9 L 56.1 31.0 L 58.0 33.3 L 59.6 35.8 L 60.9 38.4 L 60.3 43.0 L 56.8 45.8 L 52.2 45.3 L 49.4 41.7 L 49.2 39.9 Z " />
</g>
</svg>
