<svg xmlns="http://www.w3.org/2000/svg" xmlns:xlink="http://www.w3.org/1999/xlink" version="1.1" baseProfile="full" viewBox="0 0 200 200" width="200" height="200">
<g fill="black">
<path d="M 53.3 121.9 L 146.6 121.9 L 152.6 116.9 L 163.6 125.9 L 158.6 129.9 L 158.6 179.2 L 146.6 185.2 L 146.6 175.2 L 53.3 175.2 L 53.3 182.2 L 41.3 188.2 L 41.3 115.9 Z M 53.3 150.5 L 53.3 171.2 L 146.6 171.2 L 146.6 150.5 Z M 53.3 125.9 L 53.3 146.5 L 146.6 146.5 L 146.6 125.9 Z M 174.7332748413086 91.41106233596801 L 186.0 100.8 L 186.0 104.8 L 14.0 104.8 L 14.0 100.8 L 164.0 100.8 L 171.70705881118775 93.09294118881226 L 166.7 90.5 L 161.5 87.3 L 156.6 84.0 L 152.0 80.4 L 147.8 76.6 L 144.1 72.5 L 140.7 68.3 L 137.8 63.9 L 135.4 59.2 L 135.0280902862549 58.128024864196775 L 133.8 60.9 L 129.3 68.2 L 123.9 74.8 L 117.6 80.7 L 110.4 86.0 L 102.3 90.5 L 93.3 94.2 L 92.6 92.6 L 100.3 87.2 L 107.1 81.7 L 113.0 75.9 L 118.0 69.9 L 122.1 63.6 L 125.3 56.9 L 125.95142860412598 55.0 L 98.0 55.0 L 98.0 51.0 L 127.32285718917846 51.0 L 127.7 49.9 L 129.3 42.5 L 130.0 34.7 L 130.0 28.3 L 100.0 28.3 L 100.0 24.3 L 152.0 24.3 L 162.0 14.3 L 174.0 24.3 L 174.0 28.3 L 141.7882978439331 28.3 L 141.4 35.6 L 139.8 44.6 L 137.8952381134033 51.0 L 160.0 51.0 L 170.0 41.0 L 182.0 51.0 L 182.0 55.0 L 136.8457142829895 55.0 L 138.8 56.9 L 142.4 60.2 L 146.0 63.4 L 149.8 66.5 L 153.8 69.4 L 158.0 72.1 L 162.5 74.6 L 167.3 77.0 L 172.3 79.2 L 177.6 81.3 L 183.8 84.0 Z M 62.9 49.4 L 62.56197185516358 51.0 L 74.0 51.0 L 84.0 41.0 L 96.0 51.0 L 96.0 55.0 L 61.71690139770508 55.0 L 61.4 56.5 L 59.71695785522461 61.3295991897583 L 61.2 61.9 L 65.1 63.2 L 68.8 64.7 L 72.2 66.2 L 75.5 67.9 L 78.5 69.5 L 81.3 71.3 L 83.9 73.1 L 86.4 75.0 L 88.6 76.9 L 89.9 81.3 L 87.9 85.4 L 83.5 86.7 L 79.4 84.6 L 78.2 82.7 L 76.8 80.6 L 75.1 78.5 L 73.1 76.4 L 70.9 74.1 L 68.5 71.8 L 65.8 69.5 L 63.0 67.0 L 59.9 64.4 L 58.83387994766235 63.668946266174316 L 56.2 69.3 L 52.5 75.0 L 48.2 80.2 L 43.3 84.8 L 37.7 89.0 L 31.5 92.5 L 24.7 95.4 L 17.3 97.7 L 16.6 96.0 L 23.0 92.0 L 28.7 87.9 L 33.7 83.7 L 38.0 79.4 L 41.7 74.8 L 44.7 70.0 L 47.2 64.9 L 49.0 59.6 L 50.04912281036377 55.0 L 16.0 55.0 L 16.0 51.0 L 50.64406776428223 51.0 L 51.0 48.0 L 51.0 29.2 L 23.0 29.2 L 23.0 25.2 L 71.0 25.2 L 81.0 15.2 L 93.0 25.2 L 93.0 29.2 L 63.0 29.2 L 63.0 48.7 L 62.560000038146974 49.36000003814697 Z " />
</g>
</svg>
