<svg xmlns="http://www.w3.org/2000/svg" xmlns:xlink="http://www.w3.org/1999/xlink" version="1.1" baseProfile="full" viewBox="0 0 200 200" width="200" height="200">
<g fill="black">
<path d="M 54.0 184.3 L 42.0 190.3 L 42.0 119.45098037719727 L 38.8 122.4 L 33.3 127.1 L 27.5 131.6 L 21.2 136.0 L 14.5 140.1 L 13.4 138.7 L 18.8 133.0 L 23.9 127.6 L 28.8 122.3 L 33.4 117.1 L 37.7 111.9 L 41.7 106.9 L 42.0 106.48333330154419 L 42.0 104.0 L 43.31470584869385 104.65735292434692 L 45.3 101.9 L 48.6 96.9 L 51.6 92.0 L 53.83934421539307 88.0189435005188 L 53.8 88.0 L 54.8 86.2 L 64.6 93.2 L 66.2 96.5 L 62.28999996185303 96.5 L 61.1 98.2 L 57.3 103.2 L 53.2 108.1 L 52.24255323410034 109.12127656936646 L 54.0 110.0 L 98.41999998092652 110.0 L 98.9 109.4 L 100.2 107.1 L 101.5 104.9 L 102.9 102.6 L 104.3 100.4 L 105.8 98.2 L 110.3 91.3 L 111.23661975860595 89.8014084815979 L 111.1 89.7 L 111.72857141494751 89.01428575515747 L 111.8 88.9 L 111.81836738586426 88.91632652282715 L 112.2 88.5 L 120.8 96.9 L 121.7 100.4 L 117.51041011810302 99.59148263931274 L 114.2 102.3 L 111.9 104.0 L 109.7 105.6 L 107.5 107.1 L 105.2 108.6 L 103.0 109.9 L 102.81538457870484 110.0 L 156.0 110.0 L 166.0 100.0 L 178.0 110.0 L 178.0 114.0 L 111.0 114.0 L 111.0 130.8 L 147.8181818008423 130.8 L 156.0 121.8 L 166.0 130.8 L 166.0 134.8 L 111.0 134.8 L 111.0 152.5 L 147.8181818008423 152.5 L 156.0 143.5 L 166.0 152.5 L 166.0 156.5 L 111.0 156.5 L 111.0 173.3 L 166.0 173.3 L 176.0 163.3 L 188.0 173.3 L 188.0 177.3 L 54.0 177.3 Z M 54.0 156.5 L 54.0 173.3 L 99.0 173.3 L 99.0 156.5 Z M 54.0 134.8 L 54.0 152.5 L 99.0 152.5 L 99.0 134.8 Z M 54.0 114.0 L 54.0 130.8 L 99.0 130.8 L 99.0 114.0 Z M 72.6 70.8 L 73.4 74.3 L 69.63482685089112 73.50733194351196 L 68.0 75.0 L 63.2 79.1 L 58.1 83.1 L 52.7 87.0 L 47.1 90.8 L 41.1 94.5 L 34.9 98.1 L 28.4 101.5 L 21.6 104.8 L 14.4 107.7 L 13.5 106.2 L 19.6 101.5 L 25.6 97.0 L 31.3 92.6 L 36.8 88.3 L 42.0 84.0 L 46.9 79.7 L 51.6 75.4 L 56.0 71.1 L 60.1 66.8 L 63.9 62.5 L 63.91460552215576 62.513933944702146 L 64.2 62.2 Z M 159.5 90.6 L 157.0 87.7 L 154.0 84.9 L 150.6 81.9 L 146.8 79.0 L 142.6 75.9 L 137.9 72.8 L 132.9 69.6 L 127.5 66.2 L 128.2 64.5 L 134.5 66.2 L 140.3 68.1 L 145.7 70.2 L 150.7 72.5 L 155.3 74.9 L 159.6 77.5 L 163.5 80.2 L 167.1 83.0 L 170.3 85.9 L 173.1 89.0 L 174.1 93.5 L 171.7 97.4 L 167.2 98.4 L 163.3 96.0 L 161.6 93.3 Z M 85.0 18.3 L 88.0 20.3 L 85.0 22.1 L 85.0 58.5 L 73.0 64.5 L 73.0 16.3 Z M 127.0 18.3 L 130.0 20.3 L 127.0 22.1 L 127.0 48.17931032180786 L 129.5 46.8 L 135.1 43.9 L 140.4 41.0 L 145.5 38.3 L 150.1 35.6 L 154.5 32.9 L 158.5 30.3 L 162.2 27.7 L 165.5 25.1 L 167.734285736084 23.2380952835083 L 167.7 23.2 L 168.1 22.933333301544188 L 168.5 22.6 L 168.53364057540892 22.644239616394042 L 168.6 22.6 L 175.8 32.2 L 176.0 35.8 L 172.32550525665283 34.30298366546631 L 172.0 34.5 L 167.9 36.8 L 163.5 39.0 L 158.8 41.2 L 153.9 43.2 L 148.6 45.2 L 143.0 47.1 L 137.1 48.8 L 130.9 50.4 L 127.0 51.156716442108156 L 127.0 58.5 L 115.0 64.5 L 115.0 16.3 Z M 50.7 47.7 L 48.5 45.7 L 45.8 43.6 L 42.6 41.4 L 38.9 39.1 L 34.8 36.7 L 30.2 34.2 L 25.1 31.5 L 19.6 28.8 L 20.2 27.1 L 26.2 28.4 L 31.9 29.7 L 37.1 31.1 L 41.9 32.6 L 46.3 34.1 L 50.3 35.8 L 53.8 37.5 L 57.1 39.3 L 60.0 41.2 L 62.5 43.3 L 63.9 47.6 L 61.9 51.7 L 57.6 53.1 L 53.5 51.1 L 52.3 49.5 Z " />
</g>
</svg>
