<svg xmlns="http://www.w3.org/2000/svg" xmlns:xlink="http://www.w3.org/1999/xlink" version="1.1" baseProfile="full" viewBox="0 0 200 200" width="200" height="200">
<g fill="black">
<path d="M 139.7 185.7 L 149.8 185.7 L 149.8 174.2 L 161.8 174.2 L 161.8 189.7 L 139.7 189.7 Z M 131.7 189.7 L 115.6 189.7 L 115.6 185.7 L 131.7 185.7 Z M 107.5 189.7 L 91.4 189.7 L 91.4 185.7 L 107.5 185.7 Z M 83.4 189.7 L 67.3 189.7 L 67.3 185.7 L 83.4 185.7 Z M 37.1 174.2 L 49.1 174.2 L 49.1 185.7 L 59.2 185.7 L 59.2 189.7 L 37.1 189.7 Z M 161.8 172.5 L 149.8 172.5 L 149.8 157.0 L 161.8 157.0 Z M 49.1 172.5 L 37.1 172.5 L 37.1 157.0 L 49.1 157.0 Z M 161.8 155.2 L 149.8 155.2 L 149.8 139.7 L 161.8 139.7 Z M 49.1 155.2 L 37.1 155.2 L 37.1 139.7 L 49.1 139.7 Z M 49.1 138.0 L 37.1 138.0 L 37.1 122.5 L 49.1 122.5 Z M 161.8 138.0 L 149.8 138.0 L 149.8 122.5 L 161.8 122.5 Z M 161.8 120.7 L 149.8 120.7 L 149.8 109.2 L 139.7 109.2 L 139.7 105.2 L 161.8 105.2 Z M 59.2 109.2 L 49.1 109.2 L 49.1 120.7 L 37.1 120.7 L 37.1 105.2 L 59.2 105.2 Z M 131.7 109.2 L 115.6 109.2 L 115.6 105.2 L 131.7 105.2 Z M 107.5 109.2 L 91.4 109.2 L 91.4 105.2 L 107.5 105.2 Z M 83.4 109.2 L 67.3 109.2 L 67.3 105.2 L 83.4 105.2 Z M 38.7 82.5 L 91.5 82.5 L 91.5 14.2 L 103.5 16.2 L 106.5 18.2 L 103.5 20.0 L 103.5 44.7 L 131.4 44.7 L 141.4 34.7 L 153.4 44.7 L 153.4 48.7 L 103.5 48.7 L 103.5 82.5 L 147.9777777671814 82.5 L 154.2 75.5 L 162.2 82.5 L 162.2 86.5 L 38.7 86.5 Z " />
</g>
</svg>
