<svg xmlns="http://www.w3.org/2000/svg" xmlns:xlink="http://www.w3.org/1999/xlink" version="1.1" baseProfile="full" viewBox="0 0 200 200" width="200" height="200">
<g fill="black">
<path d="M 19.0 179.0 L 94.0 179.0 L 94.0 153.0 L 34.0 153.0 L 34.0 149.0 L 94.0 149.0 L 94.0 126.0 L 106.0 128.0 L 109.0 130.0 L 106.0 131.8 L 106.0 149.0 L 144.0 149.0 L 154.0 139.0 L 166.0 149.0 L 166.0 153.0 L 106.0 153.0 L 106.0 179.0 L 159.0 179.0 L 169.0 169.0 L 181.0 179.0 L 181.0 183.0 L 19.0 183.0 Z M 26.9 120.6 L 94.0 120.6 L 94.0 94.9 L 50.7 94.9 L 50.7 90.9 L 94.0 90.9 L 94.0 64.0 L 106.0 66.0 L 109.0 68.0 L 106.0 69.8 L 106.0 90.9 L 127.3 90.9 L 137.3 80.9 L 149.3 90.9 L 149.3 94.9 L 106.0 94.9 L 106.0 120.6 L 151.1 120.6 L 161.1 110.6 L 173.1 120.6 L 173.1 124.6 L 26.9 124.6 Z M 161.8 97.2 L 154.3 91.8 L 147.1 86.1 L 140.3 80.1 L 133.7 73.8 L 127.5 67.2 L 121.7 60.2 L 116.3 52.9 L 111.87402601242066 45.8 L 90.38640775680543 45.8 L 88.4 48.9 L 80.7 58.8 L 72.0 68.3 L 62.3 77.3 L 51.5 85.8 L 39.6 93.9 L 26.6 101.5 L 12.6 108.5 L 11.7 106.9 L 24.6 98.3 L 36.5 89.5 L 47.4 80.7 L 57.1 71.7 L 65.8 62.4 L 73.5 53.0 L 78.375 45.8 L 16.2 45.8 L 16.2 41.8 L 80.88888893127441 41.8 L 85.5 33.5 L 90.0 23.5 L 93.1027151107788 14.100598239898682 L 93.1 14.1 L 93.9 11.6 L 104.9 16.7 L 107.2 19.5 L 103.43689317703247 20.424271869659425 L 100.5 27.9 L 95.0 38.6 L 92.94951457977295 41.8 L 160.7 41.8 L 170.7 31.8 L 182.7 41.8 L 182.7 45.8 L 114.88709678649903 45.8 L 119.5 50.2 L 126.0 56.2 L 132.6 62.0 L 139.3 67.6 L 146.2 72.9 L 151.75605449676513 76.81271438598633 L 153.5 74.9 L 156.3 71.4 L 159.0 68.2 L 161.6 65.1 L 164.1 62.2 L 166.4 59.5 L 168.5 56.8 L 170.5 54.3 L 172.2 51.9 L 173.2583179473877 50.4448127746582 L 173.2 50.4 L 173.65454549789428 49.9 L 173.8 49.7 L 173.82001123428344 49.717987632751466 L 174.2 49.3 L 182.7 57.7 L 183.6 61.2 L 179.51130743026732 60.41095409393311 L 177.9 61.7 L 175.3 63.7 L 172.5 65.9 L 169.5 68.0 L 166.3 70.3 L 162.9 72.6 L 159.3 74.9 L 155.4 77.1 L 153.72058429718018 78.17654857635497 L 160.6 82.7 L 168.1 87.2 L 175.8 91.5 L 183.7 95.5 L 188.8 98.2 L 177.6 107.2 L 169.5 102.3 Z M 35.0 71.8 L 33.5 69.4 L 31.8 67.0 L 30.0 64.6 L 27.9 62.1 L 25.6 59.7 L 23.1 57.2 L 20.4 54.6 L 17.4 52.2 L 18.3 50.6 L 21.9 52.2 L 25.5 53.6 L 28.9 55.2 L 32.1 56.9 L 35.1 58.8 L 38.0 60.8 L 40.6 63.0 L 43.1 65.3 L 45.4 67.7 L 47.6 70.3 L 48.2 74.8 L 45.5 78.5 L 41.0 79.1 L 37.3 76.5 L 36.2 74.1 Z " />
</g>
</svg>
