<svg xmlns="http://www.w3.org/2000/svg" xmlns:xlink="http://www.w3.org/1999/xlink" version="1.1" baseProfile="full" viewBox="0 0 200 200" width="200" height="200">
<g fill="black">
<path d="M 64.3 17.8 L 66.5 20.6 L 62.9682430267334 21.405488395690917 L 60.2 28.9 L 55.8 39.8 L 51.2 50.4 L 46.5 60.8 L 41.5 71.0 L 40.41331272125244 73.06888542175292 L 46.0 74.0 L 49.0 76.0 L 46.0 77.8 L 46.0 183.0 L 34.0 189.0 L 34.0 84.91454544067383 L 30.8 90.5 L 25.1 99.8 L 19.1 108.8 L 12.7 117.4 L 11.2 116.5 L 15.8 106.9 L 20.4 97.2 L 25.0 87.4 L 29.5 77.5 L 33.8 67.4 L 37.9 57.1 L 41.9 46.6 L 45.8 36.0 L 49.4 25.1 L 52.61504068374634 14.903728008270264 L 52.6 14.9 L 53.4 12.5 Z M 74.0 53.0 L 77.0 55.0 L 74.0 56.8 L 74.0 152.0 L 62.0 158.0 L 62.0 51.0 Z " />
</g>
</svg>
