<svg xmlns="http://www.w3.org/2000/svg" xmlns:xlink="http://www.w3.org/1999/xlink" version="1.1" baseProfile="full" viewBox="0 0 200 200" width="200" height="200">
<g fill="black">
<path d="M 158.3 178.0 L 150.2 171.1 L 142.8 163.1 L 138.5595319747925 157.18904457092285 L 132.1 164.2 L 123.2 171.9 L 113.6 178.3 L 103.2 183.3 L 92.2 186.8 L 91.7 185.1 L 101.6 179.9 L 110.6 173.8 L 119.0 166.9 L 126.6 159.0 L 133.6 150.1 L 133.82108449935913 149.74697799682616 L 130.3 143.6 L 125.1 132.1 L 120.6 119.6 L 117.0 105.9 L 114.64662160873414 93.0 L 101.0 93.0 L 101.0 89.0 L 131.0 89.0 L 131.0 16.0 L 143.0 18.0 L 146.0 20.0 L 143.0 21.8 L 143.0 52.0 L 160.8181818008423 52.0 L 169.0 43.0 L 179.0 52.0 L 179.0 56.0 L 143.0 56.0 L 143.0 89.0 L 158.0 89.0 L 164.0 84.0 L 175.0 93.0 L 170.0 96.0 L 168.53569622039794 96.61012659072875 L 165.4 107.3 L 160.3 121.0 L 154.4 133.6 L 147.8 145.0 L 144.58554620742797 149.41451654434204 L 150.5 156.3 L 157.6 162.9 L 165.0 168.3 L 172.9 172.6 L 181.1 175.7 L 188.4 178.2 L 176.8 188.2 L 167.2 183.7 Z M 23.2 169.9 L 30.6 169.2 L 37.9 168.5 L 45.3 167.7 L 52.7 167.0 L 55.0 166.74794521331788 L 55.0 127.0 L 14.0 127.0 L 14.0 123.0 L 55.0 123.0 L 55.0 94.35 L 51.3 95.0 L 43.6 96.1 L 35.7 97.0 L 27.5 97.6 L 19.1 97.8 L 18.8 96.1 L 26.9 93.8 L 34.8 91.7 L 42.3 89.6 L 49.7 87.5 L 56.7 85.4 L 63.5 83.2 L 70.0 81.0 L 76.2 78.7 L 82.1 76.2 L 86.93210821151733 74.16542806625367 L 86.9 74.1 L 86.96021680831909 74.15359296798707 L 87.8 73.8 L 88.47433185577393 75.50115537643433 L 96.9 83.0 L 97.1 86.2 L 93.17095260620117 84.5074872970581 L 92.2 84.9 L 86.0 86.9 L 79.6 88.8 L 72.9 90.6 L 67.0 91.94857139587403 L 67.0 123.0 L 86.0 123.0 L 96.0 113.0 L 108.0 123.0 L 108.0 127.0 L 67.0 127.0 L 67.0 165.53783779144288 L 67.4 165.5 L 74.7 164.7 L 82.0 164.0 L 89.4 163.5 L 96.8 163.1 L 97.1 164.8 L 90.1 167.2 L 83.0 169.3 L 75.8 171.2 L 68.6 173.0 L 61.4 174.6 L 54.1 176.2 L 46.8 177.7 L 39.5 179.1 L 32.1 180.5 L 28.782294082641602 181.08284025192262 L 27.1 184.5 L 24.7 181.8 L 21.2 170.1 Z M 121.0 104.7 L 126.2 117.5 L 131.7 129.1 L 137.5 139.4 L 138.97065410614013 141.5242781639099 L 139.8 140.2 L 145.4 129.2 L 150.3 117.1 L 154.5 103.9 L 157.2440559387207 93.0 L 116.90500001907348 93.0 Z M 33.0 72.0 L 21.0 78.0 L 21.0 25.0 L 33.0 27.0 L 36.0 29.0 L 33.0 30.8 L 33.0 56.0 L 55.0 56.0 L 55.0 14.0 L 67.0 16.0 L 70.0 18.0 L 67.0 19.8 L 67.0 56.0 L 88.0 56.0 L 88.0 25.0 L 100.0 27.0 L 103.0 29.0 L 100.0 30.8 L 100.0 62.0 L 88.0 68.0 L 88.0 60.0 L 33.0 60.0 Z " />
</g>
</svg>
