<svg xmlns="http://www.w3.org/2000/svg" xmlns:xlink="http://www.w3.org/1999/xlink" version="1.1" baseProfile="full" viewBox="0 0 200 200" width="200" height="200">
<g fill="black">
<path d="M 139.9 181.2 L 123.9 177.0 L 109.4 172.1 L 99.93634042739868 168.06510639190674 L 99.4 168.3 L 84.5 173.6 L 68.4 178.2 L 51.1 182.2 L 32.7 185.4 L 13.1 187.8 L 12.8 186.0 L 32.0 181.6 L 49.9 176.9 L 66.5 171.9 L 81.9 166.4 L 89.91121912002563 163.04778776168823 L 85.0 160.4 L 75.1 153.6 L 66.8 146.1 L 60.3 138.0 L 56.07011489868164 130.0 L 41.0 130.0 L 41.0 126.0 L 94.0 126.0 L 94.0 107.0 L 24.0 107.0 L 24.0 103.0 L 94.0 103.0 L 94.0 84.7 L 106.0 86.7 L 109.0 88.7 L 106.0 90.5 L 106.0 103.0 L 157.8181818008423 103.0 L 166.0 94.0 L 176.0 103.0 L 176.0 107.0 L 106.0 107.0 L 106.0 126.0 L 145.59756097793579 126.0 L 147.5 124.0 L 147.93297300338745 124.38918914794922 L 152.0 121.0 L 163.0 130.0 L 158.0 133.0 L 153.24575386047363 134.9809358596802 L 147.3 140.6 L 137.1 148.5 L 125.7 155.8 L 113.1 162.3 L 112.84380407333374 162.4122025489807 L 126.8 166.3 L 142.3 169.7 L 159.3 172.5 L 177.8 174.8 L 188.0 176.1 L 176.1 187.9 L 157.3 184.9 Z M 63.5 135.4 L 70.8 141.8 L 79.2 147.7 L 89.0 153.1 L 100.2 158.0 L 100.69244537353515 158.17196502685547 L 108.9 154.1 L 120.4 147.2 L 130.7 139.9 L 139.7 132.2 L 141.79268293380738 130.0 L 58.63999996185303 130.0 Z M 53.0 86.5 L 41.0 92.5 L 41.0 58.54057970046997 L 37.6 61.3 L 30.3 66.6 L 22.5 71.7 L 14.2 76.4 L 13.2 74.9 L 20.2 68.6 L 26.9 62.4 L 33.3 56.3 L 39.2 50.2 L 41.0 48.20714282989502 L 41.0 47.3 L 41.56444444656372 47.58222217559815 L 44.8 44.0 L 50.0 37.8 L 54.8 31.6 L 59.2 25.2 L 63.2 18.9 L 66.30122184753418 13.300571727752686 L 66.3 13.3 L 67.3 11.5 L 77.2 18.4 L 78.8 21.6 L 75.05611658096313 21.66454973220825 L 72.8 25.1 L 114.5 25.1 L 115.01891889572144 24.66756753921509 L 115.7 23.5 L 116.0764705657959 23.78627452850342 L 120.5 20.1 L 131.5 29.1 L 126.5 32.1 L 122.15384616851807 33.910897445678714 L 120.6 35.4 L 117.9 37.8 L 115.1 40.2 L 112.1 42.6 L 108.8 45.0 L 105.4 47.5 L 101.7 50.0 L 97.7 52.4 L 96.31538457870484 53.3 L 146.9 53.3 L 152.9 48.3 L 163.9 57.3 L 158.9 61.3 L 158.9 85.5 L 146.9 91.5 L 146.9 83.5 L 53.0 83.5 Z M 53.0 57.3 L 53.0 79.5 L 76.3 79.5 L 76.3 57.3 Z M 88.3 57.3 L 88.3 79.5 L 111.6 79.5 L 111.6 57.3 Z M 123.6 57.3 L 123.6 79.5 L 146.9 79.5 L 146.9 57.3 Z M 69.7375 29.1 L 67.9 31.5 L 62.7 37.9 L 57.0 44.0 L 50.9 49.9 L 49.22888889312744 51.41444444656372 L 53.0 53.3 L 92.77428569793702 53.3 L 95.7 50.1 L 98.6 46.5 L 101.4 43.2 L 104.0 40.0 L 106.5 36.9 L 108.7 34.0 L 110.8 31.2 L 112.2 29.1 Z " />
</g>
</svg>
