<svg xmlns="http://www.w3.org/2000/svg" xmlns:xlink="http://www.w3.org/1999/xlink" version="1.1" baseProfile="full" viewBox="0 0 200 200" width="200" height="200">
<g fill="black">
<path d="M 53.8 108.5 L 143.1 108.5 L 149.1 103.5 L 160.1 112.5 L 155.1 116.5 L 155.1 177.2 L 143.1 183.2 L 143.1 173.2 L 53.8 173.2 L 53.8 180.2 L 41.8 186.2 L 41.8 102.5 Z M 53.8 142.9 L 53.8 169.2 L 143.1 169.2 L 143.1 142.9 Z M 53.8 112.5 L 53.8 138.9 L 143.1 138.9 L 143.1 112.5 Z M 183.2 60.0 L 185.2 60.0 L 183.2 85.0 L 186.8 87.4 L 189.2 91.0 L 186.8 94.6 L 183.2 97.0 L 162.2 97.0 L 159.6 96.8 L 157.1 96.4 L 154.7 95.6 L 152.5 94.3 L 150.4 92.7 L 148.8 90.7 L 147.6 88.4 L 146.8 86.0 L 146.3 83.5 L 146.2 81.0 L 146.2 52.2 L 145.08888893127443 52.2 L 144.2 56.7 L 141.7 64.1 L 138.3 70.9 L 134.0 77.1 L 129.0 82.5 L 123.1 87.2 L 116.5 91.2 L 109.1 94.3 L 101.1 96.6 L 100.5 94.9 L 107.5 90.9 L 113.7 86.6 L 119.0 82.1 L 123.5 77.3 L 127.1 72.2 L 130.1 66.6 L 132.2 60.7 L 133.7 54.3 L 133.9470588684082 52.2 L 103.5 52.2 L 103.5 48.2 L 134.41764707565306 48.2 L 134.5 47.5 L 134.5 25.7 L 111.9 25.7 L 111.9 21.7 L 153.9 21.7 L 163.9 11.7 L 175.9 21.7 L 175.9 25.7 L 146.5 25.7 L 146.5 40.1 L 145.83294115066528 48.2 L 162.4 48.2 L 172.4 38.2 L 184.4 48.2 L 184.4 52.2 L 158.2 52.2 L 158.2 82.2 L 158.4 83.1 L 158.6 83.7 L 158.8 84.0 L 158.9 84.2 L 159.1 84.4 L 160.0 84.7 L 160.9 84.9 L 162.2 85.0 L 177.2 85.0 Z M 96.9 69.0 L 98.9 69.0 L 96.9 86.0 L 99.9 88.0 L 101.9 91.0 L 99.9 94.0 L 96.9 96.0 L 74.5 96.0 L 72.1 95.9 L 69.7 95.6 L 67.4 94.9 L 65.1 93.8 L 63.2 92.3 L 61.5 90.5 L 60.2 88.3 L 59.3 86.0 L 58.8 83.5 L 58.5 81.0 L 58.5 52.2 L 56.95625 52.2 L 56.0 56.7 L 53.4 64.2 L 49.9 71.0 L 45.5 77.2 L 40.2 82.6 L 34.1 87.3 L 27.3 91.2 L 19.7 94.3 L 11.3 96.6 L 10.7 94.9 L 18.1 90.9 L 24.5 86.6 L 30.1 82.1 L 34.8 77.3 L 38.7 72.1 L 41.7 66.6 L 44.0 60.7 L 45.5 54.3 L 45.743478298187256 52.2 L 13.8 52.2 L 13.8 48.2 L 46.20724639892578 48.2 L 46.3 47.4 L 46.4 40.1 L 46.4 25.7 L 22.6 25.7 L 22.6 21.7 L 67.3 21.7 L 77.3 11.7 L 89.3 21.7 L 89.3 25.7 L 58.4 25.7 L 58.4 40.1 L 57.74069766998291 48.2 L 76.1 48.2 L 86.1 38.2 L 98.1 48.2 L 98.1 52.2 L 70.5 52.2 L 70.5 82.2 L 70.6 83.1 L 70.7 83.8 L 70.9 84.6 L 71.1 84.9 L 71.5 85.2 L 72.2 85.5 L 73.2 85.8 L 74.5 86.0 L 91.9 86.0 Z " />
</g>
</svg>
