<svg xmlns="http://www.w3.org/2000/svg" xmlns:xlink="http://www.w3.org/1999/xlink" version="1.1" baseProfile="full" viewBox="0 0 200 200" width="200" height="200">
<g fill="black">
<path d="M 51.0 113.0 L 148.0 113.0 L 154.0 108.0 L 165.0 117.0 L 160.0 121.0 L 160.0 180.0 L 148.0 186.0 L 148.0 176.0 L 51.0 176.0 L 51.0 183.0 L 39.0 189.0 L 39.0 107.0 Z M 51.0 147.0 L 51.0 172.0 L 148.0 172.0 L 148.0 147.0 Z M 51.0 117.0 L 51.0 143.0 L 148.0 143.0 L 148.0 117.0 Z M 166.4 100.8 L 161.1 97.2 L 156.4 93.3 L 152.2 89.0 L 148.8 84.5 L 146.0 79.7 L 143.9 74.7 L 142.6 69.5 L 142.44444446563722 66.7 L 141.9 68.8 L 138.6 76.2 L 134.1 82.9 L 128.4 88.7 L 121.7 93.8 L 114.1 98.0 L 105.4 101.5 L 95.8 104.1 L 85.1 105.8 L 84.8 104.1 L 94.7 100.4 L 103.4 96.5 L 110.9 92.3 L 117.3 87.6 L 122.5 82.7 L 126.6 77.4 L 129.6 71.7 L 131.7 65.6 L 131.80153846740723 65.0 L 100.0 65.0 L 100.0 61.0 L 132.47846155166627 61.0 L 132.8 59.1 L 133.0 52.0 L 133.0 41.0 L 114.61999998092651 41.0 L 113.0 42.8 L 110.0 45.6 L 106.8 48.2 L 103.2 50.4 L 99.5 52.7 L 98.4 51.2 L 101.2 48.2 L 103.6 44.9 L 105.7 41.8 L 107.5 38.7 L 109.1 35.6 L 110.4 32.5 L 111.4 29.4 L 112.1 26.3 L 112.6 23.2 L 112.80550813674927 21.00791311264038 L 112.7 21.0 L 113.2 18.0 L 124.7 21.9 L 127.4 24.3 L 123.57735195159913 25.857375144958496 L 122.1 29.6 L 120.3 33.2 L 118.1 36.6 L 117.8 37.0 L 133.0 37.0 L 133.0 13.0 L 145.0 15.0 L 148.0 17.0 L 145.0 18.8 L 145.0 37.0 L 161.0 37.0 L 171.0 27.0 L 183.0 37.0 L 183.0 41.0 L 145.0 41.0 L 145.0 52.0 L 144.0 60.7 L 143.9222222328186 61.0 L 166.0 61.0 L 176.0 51.0 L 188.0 61.0 L 188.0 65.0 L 144.83863639831543 65.0 L 146.6 68.1 L 149.2 72.1 L 152.0 75.8 L 155.2 79.2 L 158.8 82.4 L 162.7 85.3 L 167.1 88.0 L 172.0 90.4 L 177.4 92.7 L 183.3 94.8 L 190.2 97.4 L 178.6 107.1 L 172.2 104.1 Z M 78.0 90.3 L 75.9 88.0 L 71.1 83.2 L 68.4 80.8 L 65.5 78.2 L 62.3 75.6 L 59.0 72.8 L 58.76300573348999 72.62883749008179 L 56.8 77.5 L 53.2 83.5 L 48.7 89.0 L 43.3 93.7 L 37.2 97.8 L 30.3 101.2 L 22.6 103.9 L 14.2 105.8 L 13.7 104.1 L 21.2 100.4 L 27.8 96.5 L 33.5 92.4 L 38.3 88.0 L 42.2 83.4 L 45.3 78.6 L 47.6 73.5 L 49.1 68.0 L 49.51379308700562 65.0 L 13.0 65.0 L 13.0 61.0 L 49.91935482025146 61.0 L 50.0 56.0 L 50.0 41.0 L 30.566666698455812 41.0 L 29.9 42.0 L 27.2 45.2 L 24.4 48.2 L 21.3 51.0 L 17.9 53.4 L 14.5 55.6 L 13.4 54.3 L 15.8 51.2 L 17.8 47.9 L 19.7 44.6 L 21.4 41.3 L 22.9 37.9 L 24.3 34.5 L 25.5 30.9 L 26.4 27.3 L 27.2 23.5 L 27.719999980926513 20.60285711288452 L 27.7 20.6 L 27.826315784454344 20.010526275634767 L 27.9 19.6 L 27.91361255645752 19.603141403198244 L 28.3 17.8 L 39.6 22.3 L 42.1 24.9 L 38.26276893615723 26.133395671844482 L 38.1 26.6 L 36.4 30.8 L 34.4 34.7 L 33.09459457397461 37.0 L 50.0 37.0 L 50.0 14.0 L 62.0 16.0 L 65.0 18.0 L 62.0 19.8 L 62.0 37.0 L 73.0 37.0 L 83.0 27.0 L 95.0 37.0 L 95.0 41.0 L 62.0 41.0 L 62.0 56.0 L 61.47368421554565 61.0 L 74.0 61.0 L 84.0 51.0 L 96.0 61.0 L 96.0 65.0 L 60.86944446563721 65.0 L 59.7125 69.9 L 60.5 70.2 L 64.6 71.7 L 68.5 73.3 L 72.2 75.0 L 75.7 76.8 L 79.0 78.6 L 82.1 80.6 L 85.0 82.5 L 87.8 84.6 L 90.3 86.7 L 91.9 91.0 L 90.0 95.2 L 85.7 96.7 L 81.5 94.8 L 79.9 92.6 Z " />
</g>
</svg>
