<svg xmlns="http://www.w3.org/2000/svg" xmlns:xlink="http://www.w3.org/1999/xlink" version="1.1" baseProfile="full" viewBox="0 0 200 200" width="200" height="200">
<g fill="black">
<path d="M 139.7 185.7 L 149.8 185.7 L 149.8 174.2 L 161.8 174.2 L 161.8 189.7 L 139.7 189.7 Z M 37.1 174.2 L 49.1 174.2 L 49.1 185.7 L 59.2 185.7 L 59.2 189.7 L 37.1 189.7 Z M 83.4 189.7 L 67.3 189.7 L 67.3 185.7 L 83.4 185.7 Z M 107.5 189.7 L 91.4 189.7 L 91.4 185.7 L 107.5 185.7 Z M 131.7 189.7 L 115.6 189.7 L 115.6 185.7 L 131.7 185.7 Z M 161.8 172.5 L 149.8 172.5 L 149.8 157.0 L 161.8 157.0 Z M 49.1 172.5 L 37.1 172.5 L 37.1 157.0 L 49.1 157.0 Z M 161.8 155.2 L 149.8 155.2 L 149.8 139.7 L 161.8 139.7 Z M 49.1 155.2 L 37.1 155.2 L 37.1 139.7 L 49.1 139.7 Z M 161.8 138.0 L 149.8 138.0 L 149.8 122.5 L 161.8 122.5 Z M 49.1 138.0 L 37.1 138.0 L 37.1 122.5 L 49.1 122.5 Z M 59.2 109.2 L 49.1 109.2 L 49.1 120.7 L 37.1 120.7 L 37.1 105.2 L 59.2 105.2 Z M 161.8 120.7 L 149.8 120.7 L 149.8 109.2 L 139.7 109.2 L 139.7 105.2 L 161.8 105.2 Z M 131.7 109.2 L 115.6 109.2 L 115.6 105.2 L 131.7 105.2 Z M 107.5 109.2 L 91.4 109.2 L 91.4 105.2 L 107.5 105.2 Z M 83.4 109.2 L 67.3 109.2 L 67.3 105.2 L 83.4 105.2 Z M 67.6 85.6 L 65.4 85.4 L 63.2 85.0 L 61.1 84.1 L 59.1 82.8 L 57.4 81.1 L 56.0 79.1 L 55.0 76.9 L 54.3 74.5 L 54.0 72.0 L 54.0 13.0 L 66.0 15.0 L 69.0 17.0 L 66.0 18.8 L 66.0 31.0 L 121.0 31.0 L 131.0 21.0 L 143.0 31.0 L 143.0 35.0 L 66.0 35.0 L 66.0 57.0 L 123.81818180084228 57.0 L 132.0 48.0 L 142.0 57.0 L 142.0 61.0 L 66.0 61.0 L 66.0 72.0 L 65.8 73.2 L 65.7 74.2 L 65.7 75.6 L 65.8 76.1 L 66.0 76.6 L 66.5 77.1 L 67.3 77.7 L 68.5 78.1 L 70.0 78.5 L 144.0 78.5 L 146.1 79.9 L 147.5 82.0 L 146.1 84.1 L 144.0 85.5 L 70.0 85.5 Z " />
</g>
</svg>
