<svg xmlns="http://www.w3.org/2000/svg" xmlns:xlink="http://www.w3.org/1999/xlink" version="1.1" baseProfile="full" viewBox="0 0 200 200" width="200" height="200">
<g fill="black">
<path d="M 157.2 169.3 L 148.8 160.6 L 141.3 150.9 L 139.94915075302123 148.66265592575073 L 134.0 156.8 L 124.1 167.3 L 113.1 176.1 L 100.9 183.3 L 87.8 188.8 L 87.1 187.1 L 99.0 180.0 L 109.8 171.9 L 119.4 162.6 L 128.0 152.2 L 135.25320634841918 140.8849980354309 L 134.9 140.3 L 129.4 128.8 L 125.0 116.4 L 121.6 103.2 L 119.2 89.1 L 118.58539686203002 80.71904764175414 L 114.9 86.6 L 109.8 93.8 L 104.3 100.5 L 102.9 99.4 L 106.6 91.8 L 110.2 84.0 L 113.7 76.1 L 117.0 68.0 L 120.0 59.6 L 122.8 51.0 L 125.4 42.1 L 127.7 32.9 L 129.7 23.5 L 131.33229064941406 14.703767204284668 L 131.3 14.7 L 131.9 11.9 L 143.3 16.1 L 145.8 18.7 L 142.35223884582518 19.89104480743408 L 140.8 26.1 L 138.0 35.7 L 135.0 45.1 L 131.6 54.1 L 128.66551723480225 61.0 L 164.9 61.0 L 174.9 51.0 L 186.9 61.0 L 186.9 65.0 L 168.87894735336303 65.0 L 166.1 82.6 L 162.0 100.3 L 156.7 116.6 L 150.3 131.5 L 145.75284910202026 139.51734504699706 L 149.6 144.8 L 156.9 153.1 L 164.9 160.4 L 173.7 166.7 L 183.2 172.1 L 188.2 174.8 L 177.0 183.8 L 166.6 177.0 Z M 19.6 165.9 L 26.6 164.6 L 33.9 163.2 L 41.6 161.7 L 49.6 160.2 L 56.0 158.88915662765504 L 56.0 132.0 L 15.0 132.0 L 15.0 128.0 L 56.0 128.0 L 56.0 102.96999998092652 L 51.1 103.6 L 43.8 104.4 L 36.2 105.1 L 28.3 105.6 L 20.1 105.8 L 19.8 104.1 L 27.7 101.9 L 35.3 99.8 L 42.6 98.0 L 49.6 96.1 L 56.4 94.4 L 62.8 92.6 L 68.9 90.8 L 74.7 89.1 L 80.1 87.3 L 84.31596126556397 85.84062881469727 L 84.3 85.8 L 84.33903017044068 85.8326434135437 L 85.3 85.5 L 85.74633483886718 87.00966186523438 L 95.3 95.0 L 95.6 98.1 L 91.43865976333618 96.17010307312012 L 88.7 97.0 L 83.1 98.2 L 77.3 99.5 L 71.2 100.6 L 68.0 101.15 L 68.0 128.0 L 88.0 128.0 L 98.0 118.0 L 110.0 128.0 L 110.0 132.0 L 68.0 132.0 L 68.0 156.53555555343627 L 75.6 155.1 L 84.9 153.3 L 94.6 151.7 L 104.7 150.1 L 105.2 151.8 L 95.6 155.3 L 86.3 158.5 L 77.2 161.5 L 68.4 164.2 L 60.0 166.8 L 51.8 169.2 L 44.0 171.5 L 36.4 173.6 L 29.2 175.7 L 26.215508651733398 176.52181644439696 L 24.9 180.1 L 22.3 177.6 L 17.6 166.3 Z M 126.8397590637207 65.0 L 123.9 71.1 L 120.67415971755982 77.10156335830689 L 123.3 88.3 L 127.3 101.7 L 131.8 114.0 L 137.0 125.3 L 140.2176552772522 130.91726264953613 L 141.9 127.5 L 147.3 113.3 L 151.6 97.7 L 154.9 80.7 L 156.7627119064331 65.0 Z M 35.0 82.8 L 23.0 88.8 L 23.0 29.4 L 35.0 31.4 L 38.0 33.4 L 35.0 35.2 L 35.0 71.8 L 56.0 71.8 L 56.0 13.2 L 68.0 15.2 L 71.0 17.2 L 68.0 19.0 L 68.0 71.8 L 89.0 71.8 L 89.0 29.4 L 101.0 31.4 L 104.0 33.4 L 101.0 35.2 L 101.0 75.8 L 89.0 81.8 L 89.0 75.8 L 35.0 75.8 Z " />
</g>
</svg>
