<svg xmlns="http://www.w3.org/2000/svg" xmlns:xlink="http://www.w3.org/1999/xlink" version="1.1" baseProfile="full" viewBox="0 0 200 200" width="200" height="200">
<g fill="black">
<path d="M 55.0 182.7 L 43.0 188.7 L 43.0 105.49272727966309 L 40.2 108.7 L 34.2 115.2 L 27.8 121.7 L 21.0 128.2 L 13.6 134.8 L 12.3 133.5 L 18.2 125.7 L 23.8 118.2 L 29.2 110.9 L 34.2 104.0 L 39.0 97.2 L 43.3 90.7 L 47.4 84.3 L 51.0 78.2 L 54.3 72.3 L 56.73432579040527 67.51529064178467 L 56.7 67.5 L 57.7 65.6 L 67.7 72.4 L 69.4 75.6 L 65.63317136764526 75.72989063262939 L 64.1 78.2 L 60.0 84.0 L 55.6 90.0 L 52.74918031692505 93.7 L 106.16666669845581 93.7 L 106.9 92.6 L 109.9 87.2 L 113.1 81.8 L 114.7 78.9 L 116.4 76.1 L 118.0 73.1 L 119.7 70.1 L 121.00106430053711 67.85927810668946 L 120.9 67.8 L 122.0 66.3 L 131.3 73.9 L 132.6 77.3 L 128.50673313140868 77.01770572662353 L 124.0 81.9 L 121.5 84.3 L 119.0 86.6 L 116.6 88.8 L 114.1 90.9 L 111.6 92.8 L 110.2235294342041 93.7 L 151.0 93.7 L 161.0 83.7 L 173.0 93.7 L 173.0 97.7 L 112.0 97.7 L 112.0 119.7 L 144.0 119.7 L 154.0 109.7 L 166.0 119.7 L 166.0 123.7 L 112.0 123.7 L 112.0 145.7 L 144.0 145.7 L 154.0 135.7 L 166.0 145.7 L 166.0 149.7 L 112.0 149.7 L 112.0 171.7 L 156.0 171.7 L 166.0 161.7 L 178.0 171.7 L 178.0 175.7 L 55.0 175.7 Z M 55.0 149.7 L 55.0 171.7 L 100.0 171.7 L 100.0 149.7 Z M 55.0 123.7 L 55.0 145.7 L 100.0 145.7 L 100.0 123.7 Z M 55.0 97.7 L 55.0 119.7 L 100.0 119.7 L 100.0 97.7 Z M 16.5 60.9 L 77.5 60.9 L 77.5 12.8 L 89.5 14.8 L 92.5 16.8 L 89.5 18.6 L 89.5 60.9 L 110.4 60.9 L 110.4 12.8 L 122.4 14.8 L 125.4 16.8 L 122.4 18.6 L 122.4 60.9 L 133.95600004196166 60.9 L 135.9 57.3 L 138.5 52.6 L 141.0 48.1 L 143.5 43.7 L 145.8 39.5 L 148.0 35.4 L 150.1 31.4 L 152.0 27.6 L 153.7 23.8 L 154.88416175842286 21.135636043548583 L 154.8 21.1 L 155.8 19.2 L 165.9 25.8 L 167.6 29.0 L 163.727587890625 29.200297164916993 L 163.6 29.4 L 161.2 33.0 L 158.6 36.6 L 155.8 40.4 L 152.8 44.1 L 149.6 48.0 L 146.3 51.8 L 142.7 55.7 L 138.8 59.6 L 137.36315793991088 60.9 L 161.4 60.9 L 171.4 50.9 L 183.4 60.9 L 183.4 64.9 L 16.5 64.9 Z M 49.0 46.5 L 48.2 43.3 L 47.2 40.2 L 45.9 37.0 L 44.5 33.8 L 42.7 30.6 L 40.8 27.3 L 38.6 24.0 L 36.1 20.7 L 37.3 19.4 L 40.8 21.8 L 44.2 24.3 L 47.3 27.0 L 50.1 29.9 L 52.7 33.0 L 55.0 36.2 L 57.1 39.5 L 58.9 43.0 L 60.4 46.7 L 61.6 50.5 L 60.7 54.9 L 56.9 57.5 L 52.4 56.5 L 49.8 52.7 L 49.5 49.6 Z " />
</g>
</svg>
