<svg xmlns="http://www.w3.org/2000/svg" xmlns:xlink="http://www.w3.org/1999/xlink" version="1.1" baseProfile="full" viewBox="0 0 200 200" width="200" height="200">
<g fill="black">
<path d="M 54.4 109.0 L 145.5 109.0 L 151.5 104.0 L 162.5 113.0 L 157.5 117.0 L 157.5 178.1 L 145.5 184.1 L 145.5 174.1 L 54.4 174.1 L 54.4 181.1 L 42.4 187.1 L 42.4 103.0 Z M 54.4 143.6 L 54.4 170.1 L 145.5 170.1 L 145.5 143.6 Z M 54.4 113.0 L 54.4 139.6 L 145.5 139.6 L 145.5 113.0 Z M 76.6 88.4 L 74.9 86.0 L 72.9 83.5 L 70.7 81.0 L 68.3 78.4 L 62.8 72.9 L 59.7 70.0 L 56.38223094940186 67.26771965026856 L 54.9 71.4 L 50.7 79.9 L 45.7 87.5 L 39.8 94.3 L 33.1 100.1 L 25.6 105.0 L 17.4 108.7 L 16.5 107.2 L 23.5 101.8 L 29.6 96.1 L 34.9 89.9 L 39.4 83.3 L 43.2 76.0 L 46.2 68.2 L 48.5 59.6 L 48.60549449920654 59.0 L 16.0 59.0 L 16.0 55.0 L 49.30879125595093 55.0 L 50.1 50.5 L 50.9 40.6 L 50.97916393280029 32.208619117736816 L 44.4 33.2 L 36.7 34.0 L 28.6 34.6 L 20.1 34.8 L 19.8 33.1 L 28.0 30.8 L 35.8 28.7 L 43.1 26.7 L 50.0 24.7 L 56.4 22.7 L 62.4 20.7 L 67.8 18.6 L 72.8 16.4 L 77.4 14.2 L 81.4 12.0 L 82.65864944458008 14.564795112609863 L 89.7 21.3 L 89.9 24.5 L 86.21776180267334 22.990885925292968 L 81.9 24.7 L 76.6 26.5 L 71.0 28.1 L 65.0 29.6 L 63.0 30.0 L 62.2 41.4 L 60.6 52.2 L 59.92799997329712 55.0 L 74.0 55.0 L 84.0 45.0 L 96.0 55.0 L 96.0 59.0 L 58.96800003051758 59.0 L 58.2 62.2 L 56.53058824539185 66.85411767959594 L 57.3 65.7 L 61.3 67.5 L 65.3 69.2 L 69.0 71.0 L 72.5 73.0 L 75.8 75.0 L 78.8 77.0 L 81.7 79.2 L 84.4 81.4 L 86.8 83.7 L 89.1 86.0 L 90.1 90.5 L 87.7 94.4 L 83.2 95.4 L 79.3 93.0 L 78.1 90.7 Z M 161.1 95.9 L 156.3 92.0 L 151.7 87.9 L 147.6 83.5 L 143.8 79.0 L 140.5 74.1 L 137.6 69.1 L 135.3 63.8 L 135.25032148361205 63.63635301589966 L 133.8 67.2 L 129.4 75.1 L 124.0 82.4 L 117.7 89.0 L 110.5 95.0 L 102.4 100.3 L 93.4 104.7 L 92.5 103.2 L 100.2 97.2 L 107.0 90.9 L 112.9 84.5 L 117.9 77.8 L 122.0 70.8 L 125.3 63.5 L 126.70259742736816 59.0 L 98.0 59.0 L 98.0 55.0 L 127.85609760284424 55.0 L 129.3 47.6 L 130.0 39.1 L 130.0 32.657534217834474 L 126.4 33.2 L 118.7 34.0 L 110.6 34.6 L 102.1 34.8 L 101.8 33.1 L 110.0 30.8 L 117.8 28.7 L 125.1 26.7 L 132.0 24.7 L 138.4 22.7 L 144.4 20.7 L 149.8 18.6 L 154.8 16.4 L 159.4 14.2 L 163.4 12.0 L 164.65864944458008 14.564795112609863 L 171.7 21.3 L 171.9 24.5 L 168.21776180267335 22.990885925292968 L 163.9 24.7 L 158.6 26.5 L 153.0 28.1 L 147.0 29.6 L 141.8590000152588 30.628199958801268 L 141.4 39.9 L 139.8 49.5 L 138.2890110015869 55.0 L 160.0 55.0 L 170.0 45.0 L 182.0 55.0 L 182.0 59.0 L 137.13720932006837 59.0 L 136.9572434425354 59.44220180511475 L 138.9 61.7 L 142.5 65.8 L 146.2 69.7 L 150.0 73.3 L 154.1 76.8 L 158.3 80.1 L 162.8 83.1 L 167.6 86.0 L 172.6 88.6 L 177.9 91.0 L 183.3 93.7 L 172.0 102.9 L 166.4 99.5 Z " />
</g>
</svg>
