<svg xmlns="http://www.w3.org/2000/svg" xmlns:xlink="http://www.w3.org/1999/xlink" version="1.1" baseProfile="full" viewBox="0 0 200 200" width="200" height="200">
<g fill="black">
<path d="M 186.0 179.9 L 186.0 183.9 L 14.0 183.9 L 14.0 179.9 L 164.0 179.9 L 174.0 169.9 Z M 57.0 141.6 L 57.0 160.6 L 142.0 160.6 L 142.0 141.6 Z M 57.0 120.5 L 57.0 137.6 L 142.0 137.6 L 142.0 120.5 Z M 45.0 110.5 L 57.0 116.5 L 142.0 116.5 L 148.0 111.5 L 159.0 120.5 L 154.0 124.5 L 154.0 166.6 L 142.0 172.6 L 142.0 164.6 L 57.0 164.6 L 57.0 167.6 L 45.0 173.6 L 45.0 115.0 L 33.0 121.0 L 33.0 36.0 L 45.0 42.0 L 85.23333330154419 42.0 L 86.5 40.1 L 88.2 36.8 L 89.7 33.8 L 91.1 31.1 L 92.2 28.7 L 93.2 26.6 L 93.4333333015442 26.0 L 14.0 26.0 L 14.0 22.0 L 164.0 22.0 L 174.0 12.0 L 186.0 22.0 L 186.0 26.0 L 105.9 26.0 L 104.2 27.7 L 103.0 28.8 L 101.6 30.1 L 100.0 31.5 L 98.2 33.2 L 96.1 35.0 L 93.8 37.0 L 91.2 39.2 L 88.4 41.6 L 88.01379308700561 42.0 L 155.0 42.0 L 161.0 37.0 L 172.0 46.0 L 167.0 50.0 L 167.0 109.0 L 155.0 115.0 L 155.0 103.0 L 45.0 103.0 Z M 45.0 46.0 L 45.0 99.0 L 73.0 99.0 L 73.0 46.0 Z M 85.0 83.0 L 85.0 99.0 L 115.0 99.0 L 115.0 83.0 Z M 127.0 46.0 L 127.0 99.0 L 155.0 99.0 L 155.0 46.0 Z M 85.0 64.0 L 85.0 79.0 L 115.0 79.0 L 115.0 64.0 Z M 85.0 46.0 L 85.0 60.0 L 115.0 60.0 L 115.0 46.0 Z " />
</g>
</svg>
