<svg xmlns="http://www.w3.org/2000/svg" xmlns:xlink="http://www.w3.org/1999/xlink" version="1.1" baseProfile="full" viewBox="0 0 200 200" width="200" height="200">
<g fill="black">
<path d="M 139.9 181.5 L 123.9 177.3 L 109.5 172.4 L 99.82283887863159 168.38025617599487 L 99.3 168.6 L 84.4 173.9 L 68.4 178.4 L 51.1 182.4 L 32.7 185.5 L 13.1 187.9 L 12.8 186.1 L 32.0 181.8 L 49.9 177.1 L 66.5 172.1 L 81.9 166.7 L 89.76989059448242 163.43011589050292 L 85.0 160.9 L 75.1 154.1 L 66.8 146.7 L 60.3 138.7 L 56.07441864013672 130.8 L 41.0 130.8 L 41.0 126.8 L 94.0 126.8 L 94.0 108.0 L 24.0 108.0 L 24.0 104.0 L 94.0 104.0 L 94.0 85.9 L 106.0 87.9 L 109.0 89.9 L 106.0 91.7 L 106.0 104.0 L 157.8181818008423 104.0 L 166.0 95.0 L 176.0 104.0 L 176.0 108.0 L 106.0 108.0 L 106.0 126.8 L 145.5037036895752 126.8 L 147.5 124.7 L 147.98754024505615 125.14371643066406 L 152.0 121.8 L 163.0 130.8 L 158.0 133.8 L 153.17876110076904 135.80884952545165 L 147.3 141.3 L 137.1 149.1 L 125.7 156.3 L 113.1206792831421 162.78933210372924 L 126.8 166.6 L 142.3 169.9 L 159.3 172.7 L 177.7 175.0 L 188.0 176.3 L 176.2 188.1 L 157.3 185.1 Z M 63.5 136.1 L 70.8 142.4 L 79.2 148.2 L 89.0 153.5 L 100.2 158.4 L 100.65836925506592 158.5564275741577 L 108.9 154.5 L 120.5 147.7 L 130.7 140.5 L 139.8 132.8 L 141.70123453140258 130.8 L 58.66086959838867 130.8 Z M 38.0 91.0 L 26.0 97.0 L 26.0 44.0 L 38.0 50.0 L 111.78965520858765 50.0 L 115.1 46.0 L 119.6 40.7 L 123.8 35.8 L 127.7 31.4 L 131.3 27.2 L 134.5 23.5 L 137.4 20.0 L 139.9 16.9 L 142.0 14.2 L 143.2129783630371 12.582695484161377 L 143.1 12.5 L 144.1 11.3 L 152.8 19.6 L 153.8 23.1 L 149.75011625289918 22.401744174957276 L 147.7 24.3 L 144.6 27.0 L 141.1 30.0 L 137.3 33.3 L 133.0 36.8 L 128.3 40.6 L 123.2 44.6 L 117.7 48.8 L 115.99767446517944 50.0 L 161.0 50.0 L 167.0 45.0 L 178.0 54.0 L 173.0 58.0 L 173.0 88.0 L 161.0 94.0 L 161.0 84.0 L 38.0 84.0 Z M 38.0 54.0 L 38.0 80.0 L 71.0 80.0 L 71.0 54.0 Z M 83.0 54.0 L 83.0 80.0 L 116.0 80.0 L 116.0 54.0 Z M 128.0 54.0 L 128.0 80.0 L 161.0 80.0 L 161.0 54.0 Z M 69.8 37.1 L 68.0 34.6 L 65.9 32.0 L 63.4 29.5 L 60.6 26.9 L 57.4 24.4 L 53.8 21.8 L 49.9 19.1 L 45.6 16.6 L 46.2 15.0 L 51.2 16.3 L 55.9 17.6 L 60.3 19.2 L 64.4 21.0 L 68.2 23.0 L 71.7 25.3 L 75.0 27.7 L 77.9 30.4 L 80.6 33.3 L 82.8 36.5 L 83.2 41.0 L 80.4 44.6 L 75.8 45.0 L 72.2 42.1 L 71.2 39.6 Z " />
</g>
</svg>
