<svg xmlns="http://www.w3.org/2000/svg" xmlns:xlink="http://www.w3.org/1999/xlink" version="1.1" baseProfile="full" viewBox="0 0 200 200" width="200" height="200">
<g fill="black">
<path d="M 113.4 182.8 L 110.9 182.4 L 108.5 181.6 L 106.2 180.3 L 104.2 178.7 L 102.6 176.7 L 101.3 174.4 L 100.5 172.0 L 100.1 169.5 L 100.0 167.0 L 100.0 113.0 L 81.66666669845581 113.0 L 87.5 115.5 L 89.9 118.2 L 86.18536205291748 119.26132507324219 L 83.9 125.8 L 79.3 135.5 L 73.9 144.6 L 67.6 153.0 L 60.5 160.6 L 52.5 167.6 L 43.6 173.8 L 34.0 179.3 L 23.5 184.0 L 12.3 187.8 L 11.6 186.1 L 21.9 180.5 L 31.3 174.7 L 39.8 168.5 L 47.5 161.8 L 54.3 154.8 L 60.3 147.2 L 65.4 139.3 L 69.7 130.8 L 73.2 121.8 L 75.63939723968505 113.30728349685668 L 75.6 113.3 L 75.6807692527771 113.0 L 46.0 113.0 L 46.0 125.0 L 34.0 131.0 L 34.0 26.0 L 44.24651165008545 31.123255825042726 L 44.3 31.1 L 52.9 27.3 L 57.0 25.6 L 61.0 23.9 L 64.9 22.2 L 68.6 20.6 L 72.2 18.9 L 75.6 17.3 L 77.91970262527465 16.140148735046388 L 77.9 16.1 L 77.93642854690552 16.131785678863526 L 78.8 15.7 L 79.50852422714233 17.503516292572023 L 88.1 25.0 L 88.3 28.1 L 84.38674793243408 26.439832401275634 L 83.2 26.9 L 79.5 27.9 L 75.7 28.9 L 71.7 29.9 L 67.6 30.8 L 63.4 31.7 L 59.1 32.5 L 54.6 33.2 L 49.9 33.9 L 46.0 34.30625 L 46.0 109.0 L 151.0 109.0 L 151.0 36.0 L 115.0 36.0 L 115.0 32.0 L 151.0 32.0 L 157.0 27.0 L 168.0 36.0 L 163.0 40.0 L 163.0 117.0 L 151.0 123.0 L 151.0 113.0 L 106.0 113.0 L 112.0 114.0 L 115.0 116.0 L 112.0 117.8 L 112.0 168.2 L 112.2 169.1 L 112.5 170.0 L 112.9 170.4 L 113.8 170.7 L 114.7 170.9 L 116.0 171.0 L 176.0 171.0 L 182.0 146.0 L 184.0 146.0 L 182.0 171.0 L 185.6 173.4 L 188.0 177.0 L 185.6 180.6 L 182.0 183.0 L 116.0 183.0 Z M 161.4 157.0 L 160.7 155.0 L 159.7 152.9 L 159.51189193725585 152.53945941925048 L 148.8 155.6 L 143.0 157.1 L 137.9 158.5 L 133.3 159.7 L 129.4 160.8 L 126.1 161.7 L 124.1686131477356 162.27226276397704 L 122.2 166.4 L 119.8 163.7 L 116.1 152.2 L 118.1 151.9 L 119.6 152.0 L 124.6 152.0 L 126.71725101470948 151.87545585632324 L 127.0 151.2 L 128.5 147.0 L 130.1 143.0 L 131.6 139.2 L 133.1 135.5 L 134.5 132.0 L 135.8 128.6 L 137.0 125.4 L 138.1 122.3 L 138.78897638320922 120.23307085037231 L 138.7 120.2 L 139.08571424484253 119.34285717010498 L 139.1 119.3 L 139.10413036346435 119.30193252563477 L 139.6 118.2 L 150.0 124.4 L 151.8 127.5 L 147.75400257110596 127.91855144500732 L 146.4 130.1 L 144.4 133.1 L 142.3 136.2 L 140.1 139.3 L 137.7 142.6 L 135.2 145.9 L 132.5 149.4 L 130.55943117141723 151.6751497268677 L 132.1 151.6 L 136.7 151.4 L 142.0 151.0 L 148.0 150.7 L 154.6 150.4 L 158.2791877746582 150.2467004776001 L 157.0 148.2 L 155.4 145.6 L 153.6 142.9 L 151.6 140.0 L 149.1 137.3 L 150.3 135.9 L 153.3 138.1 L 156.4 140.0 L 159.2 141.9 L 161.8 143.8 L 164.2 145.8 L 166.4 147.7 L 168.4 149.7 L 170.3 151.7 L 171.9 153.8 L 173.3 155.9 L 173.3 160.4 L 170.1 163.7 L 165.5 163.7 L 162.3 160.5 L 161.9 158.9 Z M 113.9 86.4 L 108.9 82.0 L 103.6 77.7 L 103.05343675613403 77.28768033981324 L 97.5 81.7 L 89.5 86.9 L 81.0 91.4 L 71.9 95.2 L 62.1 98.3 L 51.9 100.6 L 51.3 98.9 L 60.8 94.8 L 69.7 90.3 L 77.8 85.6 L 85.3 80.5 L 92.2 75.0 L 95.56837015151977 71.79461555480957 L 91.8 69.2 L 85.3 65.1 L 78.5 61.0 L 71.4 56.9 L 63.9 52.7 L 64.6 51.0 L 72.9 53.4 L 80.9 56.2 L 88.4 59.3 L 95.6 62.7 L 101.42421522140503 65.69775781631469 L 104.0 62.8 L 109.0 56.0 L 113.4 48.8 L 116.74684276580811 42.018239688873294 L 116.7 42.0 L 117.7 40.0 L 128.0 46.4 L 129.8 49.5 L 125.94919090270996 49.83196630477905 L 123.1 54.6 L 117.7 62.3 L 111.6 69.4 L 110.12912492752075 70.805983543396 L 115.0 74.0 L 120.8 78.2 L 126.3 82.6 L 131.4 87.2 L 133.0 91.5 L 131.2 95.7 L 126.9 97.3 L 122.7 95.6 L 118.5 91.0 Z " />
</g>
</svg>
