<svg xmlns="http://www.w3.org/2000/svg" xmlns:xlink="http://www.w3.org/1999/xlink" version="1.1" baseProfile="full" viewBox="0 0 200 200" width="200" height="200">
<g fill="black">
<path d="M 157.3 173.8 L 148.7 168.1 L 140.5 161.6 L 132.7 154.4 L 125.3 146.4 L 118.4 137.8 L 111.9 128.4 L 106.0 118.2 L 101.04036693572998 108.0 L 100.0777777671814 108.0 L 98.7 109.6 L 92.7 116.4 L 86.1 122.8 L 78.9 128.9 L 71.1 134.6 L 71.0 134.6650602340698 L 71.0 167.99340658187867 L 72.1 167.8 L 81.3 166.3 L 99.7 163.1 L 109.0 161.6 L 118.3 160.3 L 127.7 159.1 L 128.2 160.8 L 119.2 164.0 L 110.2 166.9 L 101.2 169.6 L 92.1 172.1 L 74.1 176.9 L 65.1 179.2 L 47.1 183.6 L 42.07806692123413 184.7159851074219 L 40.6 188.2 L 38.1 185.6 L 33.8 174.3 L 35.8 173.9 L 44.8 172.4 L 59.0 170.0593406677246 L 59.0 142.13483142852783 L 53.9 145.0 L 44.4 149.6 L 34.3 153.8 L 23.6 157.6 L 12.3 160.8 L 11.6 159.1 L 22.1 154.1 L 32.0 148.9 L 41.3 143.8 L 50.0 138.4 L 58.1 132.9 L 65.6 127.2 L 72.4 121.3 L 78.6 115.1 L 84.2 108.8 L 84.8 108.0 L 61.0 108.0 L 61.0 115.0 L 49.0 121.0 L 49.0 58.0 L 61.0 64.0 L 139.0 64.0 L 145.0 59.0 L 156.0 68.0 L 151.0 72.0 L 151.0 110.0 L 139.0 116.0 L 139.0 108.0 L 103.42947368621826 108.0 L 109.5 115.9 L 116.7 124.9 L 123.9 133.1 L 131.4 140.7 L 133.56756324768065 142.63939876556395 L 136.1 139.8 L 139.4 136.3 L 142.5 133.0 L 145.6 129.8 L 148.6 126.6 L 151.4 123.6 L 154.1 120.7 L 156.7 117.9 L 158.44299516677856 115.93913040161132 L 158.4 115.9 L 158.7888889312744 115.55 L 159.1 115.2 L 159.13547592163087 115.23807172775268 L 159.4 115.0 L 167.3 124.0 L 167.9 127.6 L 164.0439130783081 126.49826087951661 L 161.2 128.7 L 157.9 131.1 L 154.5 133.5 L 150.9 136.0 L 147.2 138.5 L 143.3 141.1 L 139.2 143.6 L 136.4367329597473 145.20655059814453 L 139.0 147.5 L 146.8 153.6 L 154.8 158.9 L 163.1 163.6 L 171.5 167.5 L 180.2 170.8 L 187.2 173.3 L 175.7 183.1 L 166.3 178.9 Z M 61.0 68.0 L 61.0 104.0 L 139.0 104.0 L 139.0 68.0 Z M 62.5 17.4 L 65.0 20.0 L 61.31178245544434 21.119637489318848 L 60.2 24.6 L 57.4 31.7 L 54.1 38.8 L 53.47391300201416 40.0 L 156.0 40.0 L 166.0 30.0 L 178.0 40.0 L 178.0 44.0 L 51.38695650100708 44.0 L 50.5 45.7 L 46.3 52.5 L 41.8 59.3 L 36.7 65.9 L 31.2 72.3 L 25.2 78.5 L 18.6 84.6 L 17.3 83.3 L 22.3 76.1 L 27.0 69.0 L 31.3 62.1 L 35.3 55.2 L 39.0 48.3 L 42.2 41.5 L 44.9 34.7 L 47.3 28.0 L 49.3 21.2 L 50.68179187774658 15.413746547698974 L 50.6 15.4 L 51.3 12.7 Z " />
</g>
</svg>
