<svg xmlns="http://www.w3.org/2000/svg" xmlns:xlink="http://www.w3.org/1999/xlink" version="1.1" baseProfile="full" viewBox="0 0 200 200" width="200" height="200">
<g fill="black">
<path d="M 105.6 11.6 L 107.2 14.8 L 102.60292110443115 14.879259967803955 L 100.6 17.0 L 98.7 18.7 L 96.7 20.5 L 94.7 22.2 L 92.5 23.9 L 90.2 25.5 L 88.91999998092652 26.3 L 152.0 26.3 L 158.0 21.3 L 169.0 30.3 L 164.0 34.3 L 164.0 90.5 L 152.0 96.5 L 152.0 88.5 L 103.0 88.5 L 106.0 89.0 L 109.0 91.0 L 106.0 92.8 L 106.0 107.8 L 152.0 107.8 L 162.0 97.8 L 174.0 107.8 L 174.0 111.8 L 106.0 111.8 L 106.0 134.4 L 148.0 134.4 L 158.0 124.4 L 170.0 134.4 L 170.0 138.4 L 106.0 138.4 L 106.0 162.3 L 162.0 162.3 L 172.0 152.3 L 184.0 162.3 L 184.0 166.3 L 106.0 166.3 L 106.0 188.5 L 94.0 194.5 L 94.0 166.3 L 18.0 166.3 L 18.0 162.3 L 94.0 162.3 L 94.0 138.4 L 31.0 138.4 L 31.0 134.4 L 94.0 134.4 L 94.0 111.8 L 27.0 111.8 L 27.0 107.8 L 94.0 107.8 L 94.0 88.5 L 48.0 88.5 L 48.0 91.5 L 36.0 97.5 L 36.0 20.3 L 48.0 26.3 L 85.30454549789428 26.3 L 86.0 25.4 L 87.3 22.9 L 88.6 20.5 L 89.8 18.2 L 90.9 15.9 L 92.0 13.7 L 93.8 9.5 L 94.6 7.5 L 94.95832014083862 6.4762282371521 L 94.8 6.4 L 95.8 4.6 Z M 48.0 58.6 L 48.0 84.5 L 152.0 84.5 L 152.0 58.6 Z M 48.0 30.3 L 48.0 54.6 L 152.0 54.6 L 152.0 30.3 Z " />
</g>
</svg>
