<svg xmlns="http://www.w3.org/2000/svg" xmlns:xlink="http://www.w3.org/1999/xlink" version="1.1" baseProfile="full" viewBox="0 0 200 200" width="200" height="200">
<g fill="black">
<path d="M 163.8 84.3 L 162.44864864349364 82.13783779144288 L 159.8 82.8 L 153.1 84.1 L 146.6 85.3 L 140.2 86.3 L 134.0 87.3 L 128.0 88.1 L 122.2 88.9 L 118.28211030960082 89.38114433288574 L 126.7 97.7 L 127.6 101.2 L 123.35017671585084 100.3798586845398 L 122.7 100.9 L 120.6 102.5 L 114.0 107.3 L 111.7 108.8 L 109.3 110.4 L 108.22857141494751 111.0 L 152.0 111.0 L 162.0 101.0 L 174.0 111.0 L 174.0 115.0 L 111.0 115.0 L 111.0 131.0 L 149.8181818008423 131.0 L 158.0 122.0 L 168.0 131.0 L 168.0 135.0 L 111.0 135.0 L 111.0 152.0 L 149.8181818008423 152.0 L 158.0 143.0 L 168.0 152.0 L 168.0 156.0 L 111.0 156.0 L 111.0 172.0 L 162.0 172.0 L 172.0 162.0 L 184.0 172.0 L 184.0 176.0 L 53.0 176.0 L 53.0 183.0 L 41.0 189.0 L 41.0 125.36666669845582 L 37.6 129.1 L 32.5 134.5 L 27.1 139.8 L 21.5 144.8 L 15.6 149.6 L 14.3 148.3 L 18.7 142.2 L 27.5 130.2 L 31.8 124.3 L 36.0 118.3 L 40.1 112.3 L 44.1 106.2 L 47.9 100.1 L 51.7 93.9 L 55.3 87.6 L 55.35857257843018 87.63675146102905 L 55.630061340332034 87.2171778678894 L 55.1 87.3 L 48.8 88.1 L 42.7 88.9 L 36.8 89.6 L 31.1 90.3 L 29.802687168121338 90.44414587020874 L 27.8 93.8 L 25.7 90.9 L 23.0 79.0 L 25.0 78.9 L 41.551282024383546 78.9 L 42.7 75.7 L 44.2 71.8 L 47.2 64.2 L 48.8 60.5 L 50.2 56.7 L 51.7 53.0 L 54.15191736221313 46.51993255615234 L 54.1 46.5 L 54.34444446563721 46.01111106872558 L 54.5 45.6 L 54.54029846191406 45.619402980804445 L 55.1 44.5 L 65.3 50.8 L 67.2 53.9 L 63.29768180847168 54.303688049316406 L 61.1 57.8 L 56.7 64.6 L 51.9 71.4 L 49.4 74.8 L 46.8 78.0 L 46.096830463409425 78.83338613510132 L 48.1 78.8 L 74.6 78.8 L 81.7 79.0 L 82.8692554473877 79.04740228652955 L 81.3 76.9 L 79.2 74.3 L 76.9 71.6 L 74.4 68.9 L 71.8 65.9 L 68.8 63.2 L 69.8 61.7 L 73.4 63.6 L 77.1 65.4 L 80.5 67.3 L 83.7 69.2 L 86.7 71.3 L 89.5 73.4 L 92.1 75.6 L 94.5 77.8 L 96.8 80.1 L 98.9 82.5 L 99.6 87.0 L 97.1 90.7 L 92.6 91.5 L 88.8 88.9 L 87.7 86.7 L 86.4 84.3 L 85.01724662780762 82.08759450912476 L 82.0 82.8 L 75.0 84.1 L 68.2 85.3 L 61.5 86.3 L 56.313793087005614 87.11034479141236 L 65.5 94.0 L 67.0 97.3 L 63.2197151184082 97.23482265472413 L 61.2 100.1 L 56.8 106.1 L 52.979660987854004 111.0 L 104.36363639831544 111.0 L 105.1 110.1 L 106.5 107.6 L 107.9 105.2 L 109.4 102.9 L 110.8 100.6 L 112.3 98.3 L 115.1 93.9 L 116.5 91.8 L 117.3129415512085 90.48678665161133 L 117.2 90.4 L 117.72238807678222 89.82537317276001 L 117.8 89.7 L 117.82001123428344 89.71798763275146 L 118.1066427230835 89.40269298553467 L 116.5 89.6 L 111.1 90.3 L 109.90819187164307 90.43492164611817 L 107.9 93.8 L 105.8 90.9 L 103.1 79.0 L 105.1 78.9 L 118.95128202438354 78.9 L 120.1 75.7 L 121.6 71.8 L 124.6 64.2 L 126.2 60.5 L 127.6 56.7 L 129.1 53.0 L 131.55191736221315 46.51993255615234 L 131.5 46.5 L 131.7444444656372 46.01111106872558 L 131.9 45.6 L 131.94029846191407 45.619402980804445 L 132.5 44.5 L 142.7 50.8 L 144.6 53.9 L 140.69768180847169 54.303688049316406 L 138.5 57.8 L 134.1 64.6 L 129.3 71.4 L 126.8 74.8 L 124.2 78.0 L 123.46878023147583 78.86663084030151 L 127.4 78.8 L 152.6 78.8 L 159.4 79.0 L 160.26120738983155 79.03638906478882 L 158.7 76.9 L 156.6 74.3 L 154.3 71.6 L 151.8 68.9 L 149.2 65.9 L 146.2 63.2 L 147.2 61.7 L 150.8 63.6 L 154.5 65.4 L 157.9 67.3 L 161.1 69.2 L 164.1 71.3 L 166.9 73.4 L 169.5 75.6 L 171.9 77.8 L 174.2 80.1 L 176.3 82.5 L 177.0 87.0 L 174.5 90.7 L 170.0 91.5 L 166.2 88.9 L 165.1 86.7 Z M 53.0 156.0 L 53.0 172.0 L 99.0 172.0 L 99.0 156.0 Z M 53.0 135.0 L 53.0 152.0 L 99.0 152.0 L 99.0 135.0 Z M 53.0 115.0 L 53.0 131.0 L 99.0 131.0 L 99.0 115.0 Z M 20.0 37.6 L 94.0 37.6 L 94.0 12.7 L 106.0 14.7 L 109.0 16.7 L 106.0 18.5 L 106.0 37.6 L 160.0 37.6 L 170.0 27.6 L 182.0 37.6 L 182.0 41.6 L 20.0 41.6 Z " />
</g>
</svg>
