<svg xmlns="http://www.w3.org/2000/svg" xmlns:xlink="http://www.w3.org/1999/xlink" version="1.1" baseProfile="full" viewBox="0 0 200 200" width="200" height="200">
<g fill="black">
<path d="M 77.2 151.0 L 148.7 151.0 L 154.7 146.0 L 165.7 155.0 L 160.7 159.0 L 160.7 182.7 L 148.7 188.7 L 148.7 180.7 L 77.2 180.7 L 77.2 183.7 L 65.2 189.7 L 65.2 145.0 Z M 45.2 119.7 L 43.8 130.7 L 41.9 140.8 L 39.5 150.2 L 36.5 158.9 L 32.8 166.7 L 28.6 173.6 L 23.8 179.7 L 18.4 184.7 L 12.5 188.7 L 11.4 187.2 L 15.7 182.0 L 19.6 176.4 L 23.0 170.3 L 25.9 163.5 L 28.4 156.0 L 30.5 147.9 L 32.1 139.0 L 33.2 129.4 L 33.8 119.0 L 34.0 107.8 L 34.0 58.24754095077515 L 33.0 59.1 L 26.6 64.0 L 19.7 68.6 L 12.5 72.7 L 11.4 71.2 L 17.4 65.6 L 23.1 59.9 L 28.5 54.3 L 33.6 48.6 L 34.0 48.125 L 34.0 48.0 L 34.0740740776062 48.037036991119386 L 38.4 42.9 L 42.8 37.0 L 46.9 31.0 L 50.7 24.8 L 54.1 18.6 L 57.1 12.2 L 57.14014873504639 12.219702625274659 L 57.7 11.1 L 67.9 17.5 L 69.7 20.7 L 65.88683166503907 20.958519840240477 L 64.0 24.2 L 60.775 29.0 L 123.0 29.0 L 123.42531642913818 28.645569610595704 L 124.1 27.4 L 124.53655319213867 27.719538974761964 L 129.0 24.0 L 140.0 33.0 L 135.0 36.0 L 130.37142858505248 37.92857141494751 L 129.5 38.8 L 127.2 40.9 L 124.7 43.1 L 122.1 45.3 L 119.3 47.6 L 116.3 49.8 L 113.2 52.0 L 110.2 54.0 L 163.8181818008423 54.0 L 172.0 45.0 L 182.0 54.0 L 182.0 58.0 L 46.0 58.0 L 46.0 108.0 L 45.89668245315552 108.15497627258301 Z M 77.2 155.0 L 77.2 176.7 L 148.7 176.7 L 148.7 155.0 Z M 174.5 80.4 L 176.5 80.4 L 174.5 93.4 L 177.2 95.2 L 179.0 97.9 L 177.2 100.6 L 174.5 102.4 L 154.23333330154418 102.4 L 163.9 111.1 L 163.9 115.1 L 119.0 115.1 L 119.0 136.1 L 154.8181818008423 136.1 L 163.0 127.1 L 173.0 136.1 L 173.0 140.1 L 52.9 140.1 L 52.9 136.1 L 107.0 136.1 L 107.0 115.1 L 62.0 115.1 L 62.0 111.1 L 145.71818180084227 111.1 L 153.62727270126342 102.4 L 136.7 102.4 L 134.3 102.2 L 132.0 101.5 L 129.9 100.5 L 127.9 99.1 L 126.2 97.3 L 124.9 95.2 L 124.0 92.9 L 123.4 90.4 L 123.1 87.9 L 123.1 60.7 L 135.1 62.7 L 138.1 64.7 L 135.1 66.5 L 135.1 76.14255323410035 L 138.6 75.1 L 143.2 73.8 L 147.6 72.6 L 151.9 71.5 L 156.0 70.4 L 163.8 68.2 L 167.4 67.2 L 169.93067207336426 66.4046459197998 L 169.9 66.3 L 169.9997067451477 66.3829493522644 L 170.9 66.1 L 171.1526315689087 67.34210529327393 L 181.8 76.2 L 182.2 79.2 L 177.8 77.0 L 173.3 77.9 L 169.5 78.3 L 165.7 78.6 L 161.6 79.0 L 157.5 79.3 L 153.1 79.5 L 148.7 79.8 L 139.3 80.0 L 135.1 79.9159999847412 L 135.1 87.9 L 135.0 89.2 L 135.0 90.1 L 135.1 90.8 L 135.2 91.3 L 135.3 91.7 L 135.5 92.1 L 135.9 92.5 L 136.7 92.8 L 137.7 93.2 L 139.1 93.4 L 170.0 93.4 Z M 51.3 89.0 L 55.3 88.9 L 59.4 88.8 L 63.6 88.7 L 72.4 88.5 L 76.9 88.4 L 81.6 88.3 L 86.3 88.3 L 90.3 88.38163261413574 L 90.3 77.3 L 50.9 77.3 L 50.9 73.3 L 90.3 73.3 L 90.3 60.7 L 102.3 62.7 L 105.3 64.7 L 102.3 66.5 L 102.3 98.2 L 90.3 104.2 L 90.3 92.24680852890015 L 87.0 93.3 L 82.4 94.5 L 73.4 96.7 L 64.8 98.5 L 60.6 99.4 L 56.648512268066405 100.1710220336914 L 54.8 103.7 L 52.5 100.9 L 49.3 89.2 Z M 57.91935482025146 33.0 L 55.1 36.8 L 50.1 42.8 L 44.8 48.5 L 41.41454544067383 51.70727272033692 L 46.0 54.0 L 106.39032258987427 54.0 L 107.9 52.2 L 110.1 48.9 L 112.3 45.8 L 114.4 42.9 L 118.2 37.3 L 119.9 34.7 L 120.91999998092652 33.0 Z " />
</g>
</svg>
