<svg xmlns="http://www.w3.org/2000/svg" xmlns:xlink="http://www.w3.org/1999/xlink" version="1.1" baseProfile="full" viewBox="0 0 200 200" width="200" height="200">
<g fill="black">
<path d="M 54.0 182.5 L 42.0 188.5 L 42.0 110.48235292434693 L 39.0 113.6 L 33.5 118.9 L 27.6 124.0 L 21.3 129.0 L 14.5 133.8 L 13.4 132.5 L 18.7 126.3 L 23.8 120.2 L 28.7 114.4 L 33.3 108.6 L 37.6 102.9 L 41.5 97.2 L 42.0 96.44324321746826 L 42.0 94.4 L 43.014765071868894 94.90738258361816 L 45.2 91.6 L 48.5 86.1 L 51.5 80.6 L 53.74816923141479 76.02039594650269 L 53.7 76.0 L 54.7 74.1 L 64.8 80.7 L 66.5 83.8 L 62.698648643493655 84.06216220855713 L 61.3 86.3 L 57.5 91.9 L 53.4 97.4 L 51.83225803375244 99.31612901687622 L 54.0 100.4 L 98.25454549789428 100.4 L 98.8 99.6 L 100.1 97.2 L 101.4 94.7 L 102.8 92.3 L 104.2 89.8 L 105.6 87.4 L 108.6 82.4 L 111.0998613357544 78.06690711975098 L 111.0 78.0 L 111.55384616851806 77.28000001907348 L 111.6 77.2 L 111.60953350067139 77.20760650634766 L 112.0 76.7 L 121.0 84.7 L 122.2 88.1 L 117.97259473800659 87.58979587554931 L 116.6 88.9 L 114.4 90.9 L 112.1 92.9 L 107.7 96.5 L 105.4 98.3 L 103.1 99.9 L 102.3 100.4 L 156.0 100.4 L 166.0 90.4 L 178.0 100.4 L 178.0 104.4 L 111.0 104.4 L 111.0 123.8 L 147.8181818008423 123.8 L 156.0 114.8 L 166.0 123.8 L 166.0 127.8 L 111.0 127.8 L 111.0 148.1 L 147.8181818008423 148.1 L 156.0 139.1 L 166.0 148.1 L 166.0 152.1 L 111.0 152.1 L 111.0 171.5 L 166.0 171.5 L 176.0 161.5 L 188.0 171.5 L 188.0 175.5 L 54.0 175.5 Z M 54.0 152.1 L 54.0 171.5 L 99.0 171.5 L 99.0 152.1 Z M 54.0 127.8 L 54.0 148.1 L 99.0 148.1 L 99.0 127.8 Z M 54.0 104.4 L 54.0 123.8 L 99.0 123.8 L 99.0 104.4 Z M 14.0 69.2 L 64.0 69.2 L 64.0 41.6 L 28.0 41.6 L 28.0 37.6 L 64.0 37.6 L 64.0 13.8 L 76.0 15.8 L 79.0 17.8 L 76.0 19.6 L 76.0 37.6 L 124.0 37.6 L 124.0 13.8 L 136.0 15.8 L 139.0 17.8 L 136.0 19.6 L 136.0 37.6 L 150.0 37.6 L 160.0 27.6 L 172.0 37.6 L 172.0 41.6 L 136.0 41.6 L 136.0 69.2 L 164.0 69.2 L 174.0 59.2 L 186.0 69.2 L 186.0 73.2 L 14.0 73.2 Z M 76.0 41.6 L 76.0 69.2 L 124.0 69.2 L 124.0 41.6 Z " />
</g>
</svg>
