<svg xmlns="http://www.w3.org/2000/svg" xmlns:xlink="http://www.w3.org/1999/xlink" version="1.1" baseProfile="full" viewBox="0 0 200 200" width="200" height="200">
<g fill="black">
<path d="M 138.2 184.3 L 136.1 185.0 L 133.9 185.6 L 131.8 186.1 L 129.5 186.5 L 127.3 186.8 L 125.0 187.0 L 122.8 187.0 L 122.8 181.0 L 102.8 178.0 L 102.8 175.0 L 124.4 175.0 L 126.1 174.9 L 127.7 174.7 L 129.3 174.4 L 132.5 173.6 L 135.5 172.4 L 137.1 171.7 L 138.6 170.9 L 140.4 169.7 L 142.0 168.1 L 143.7 166.1 L 145.2 163.6 L 146.6 160.6 L 147.9 157.1 L 148.9 153.1 L 149.8 148.5 L 150.5 143.5 L 150.78571424484252 140.3 L 96.7214285850525 140.3 L 91.0 149.2 L 83.4 158.1 L 74.8 165.8 L 65.1 172.5 L 54.3 178.1 L 42.4 182.6 L 29.5 186.0 L 15.5 188.2 L 15.2 186.4 L 28.5 182.3 L 40.5 177.6 L 51.3 172.2 L 60.9 166.2 L 69.3 159.4 L 76.6 151.8 L 82.7 143.5 L 84.4777777671814 140.3 L 21.2 140.3 L 21.2 136.3 L 86.7 136.3 L 87.7 134.5 L 91.7 124.6 L 94.42127847671509 114.80339736938477 L 94.4 114.8 L 95.1 112.1 L 106.3 116.7 L 108.8 119.3 L 105.04138164520263 120.50812730789184 L 102.4 128.5 L 98.75045871734619 136.3 L 151.0 136.3 L 157.0 131.3 L 168.0 140.3 L 163.0 143.3 L 162.60961809158326 143.46265916824342 L 162.5 144.8 L 161.7 150.5 L 160.6 155.8 L 159.3 160.7 L 157.7 165.2 L 155.8 169.3 L 153.5 173.0 L 150.8 176.3 L 147.8 179.1 L 144.4 181.4 L 142.4 182.5 Z M 49.2 117.6 L 37.2 123.6 L 37.2 58.146774196624754 L 33.7 60.8 L 27.2 65.2 L 20.2 69.3 L 19.2 67.8 L 24.8 62.2 L 30.2 56.7 L 35.4 51.3 L 37.2 49.31632652282715 L 37.2 48.6 L 37.64713373184204 48.823566913604736 L 40.3 45.9 L 44.9 40.5 L 49.1 35.1 L 53.1 29.6 L 56.7 24.1 L 60.0 18.5 L 62.55711288452149 13.726722526550294 L 62.5 13.7 L 63.5 11.9 L 73.4 18.8 L 75.1 22.0 L 71.26081562042236 22.06507091522217 L 69.6 24.6 L 67.55 27.4 L 116.6 27.4 L 116.91714286804199 27.13571424484253 L 117.9 25.6 L 118.33704919815064 25.952459049224853 L 122.6 22.4 L 133.6 31.4 L 128.6 34.4 L 123.90306749343873 36.35705518722534 L 122.4 37.8 L 119.7 40.2 L 116.9 42.6 L 114.0 45.1 L 110.9 47.6 L 107.6 50.2 L 104.2 52.8 L 101.53599996566773 54.6 L 150.9 54.6 L 156.9 49.6 L 167.9 58.6 L 162.9 62.6 L 162.9 114.6 L 150.9 120.6 L 150.9 110.6 L 49.2 110.6 Z M 49.2 84.2 L 49.2 106.6 L 94.1 106.6 L 94.1 84.2 Z M 106.1 84.2 L 106.1 106.6 L 150.9 106.6 L 150.9 84.2 Z M 49.2 58.6 L 49.2 80.2 L 94.1 80.2 L 94.1 58.6 Z M 106.1 58.6 L 106.1 80.2 L 150.9 80.2 L 150.9 58.6 Z M 64.51818180084229 31.4 L 61.0 35.7 L 56.2 41.0 L 51.1 46.2 L 45.7 51.3 L 44.53246755599976 52.26623373031616 L 49.2 54.6 L 97.13333330154418 54.6 L 98.3 53.1 L 100.9 49.5 L 103.4 46.0 L 105.9 42.8 L 108.2 39.6 L 110.4 36.6 L 112.5 33.7 L 114.06071424484253 31.4 Z " />
</g>
</svg>
