<svg xmlns="http://www.w3.org/2000/svg" xmlns:xlink="http://www.w3.org/1999/xlink" version="1.1" baseProfile="full" viewBox="0 0 200 200" width="200" height="200">
<g fill="black">
<path d="M 54.0 184.2 L 42.0 190.2 L 42.0 111.6235294342041 L 39.0 114.8 L 33.5 120.1 L 27.6 125.3 L 21.3 130.4 L 14.6 135.2 L 13.3 133.9 L 18.7 127.6 L 23.8 121.5 L 28.7 115.6 L 33.3 109.8 L 37.5 104.0 L 41.5 98.3 L 42.0 97.52972974777222 L 42.0 95.5 L 42.99470195770264 95.99735097885132 L 45.2 92.6 L 48.5 87.0 L 51.5 81.5 L 53.78881206512451 76.83760509490966 L 53.7 76.8 L 54.7 74.9 L 64.8 81.5 L 66.6 84.6 L 62.73561897277832 84.86199197769164 L 61.3 87.2 L 57.5 92.8 L 53.4 98.4 L 51.774193572998044 100.38709678649903 L 54.0 101.5 L 98.25454549789428 101.5 L 98.8 100.7 L 100.1 98.2 L 101.4 95.8 L 104.2 90.8 L 105.6 88.4 L 107.1 85.9 L 111.10055313110351 78.96570796966553 L 111.0 78.9 L 111.55384616851806 78.18000001907349 L 111.6 78.1 L 111.60962028503418 78.10749368667602 L 112.0 77.6 L 121.1 85.5 L 122.2 88.9 L 118.06559762954711 88.40102043151856 L 116.6 89.8 L 112.2 93.8 L 109.9 95.7 L 107.7 97.5 L 105.4 99.3 L 103.1 100.9 L 102.13999996185302 101.5 L 156.0 101.5 L 166.0 91.5 L 178.0 101.5 L 178.0 105.5 L 111.0 105.5 L 111.0 125.1 L 147.8181818008423 125.1 L 156.0 116.1 L 166.0 125.1 L 166.0 129.1 L 111.0 129.1 L 111.0 149.7 L 147.8181818008423 149.7 L 156.0 140.7 L 166.0 149.7 L 166.0 153.7 L 111.0 153.7 L 111.0 173.2 L 166.0 173.2 L 176.0 163.2 L 188.0 173.2 L 188.0 177.2 L 54.0 177.2 Z M 54.0 153.7 L 54.0 173.2 L 99.0 173.2 L 99.0 153.7 Z M 54.0 129.1 L 54.0 149.7 L 99.0 149.7 L 99.0 129.1 Z M 54.0 105.5 L 54.0 125.1 L 99.0 125.1 L 99.0 105.5 Z M 180.0 66.0 L 180.0 70.0 L 20.0 70.0 L 20.0 66.0 L 158.0 66.0 L 168.0 56.0 Z M 130.0 14.5 L 133.0 16.5 L 130.0 18.3 L 130.0 34.7 L 165.0 34.7 L 175.0 24.7 L 187.0 34.7 L 187.0 38.7 L 130.0 38.7 L 130.0 55.9 L 118.0 61.9 L 118.0 12.5 Z M 82.0 14.5 L 85.0 16.5 L 82.0 18.3 L 82.0 55.9 L 70.0 61.9 L 70.0 38.7 L 13.0 38.7 L 13.0 34.7 L 70.0 34.7 L 70.0 12.5 Z " />
</g>
</svg>
