<svg xmlns="http://www.w3.org/2000/svg" xmlns:xlink="http://www.w3.org/1999/xlink" version="1.1" baseProfile="full" viewBox="0 0 200 200" width="200" height="200">
<g fill="black">
<path d="M 21.7 173.1 L 27.9 172.6 L 34.6 172.1 L 37.6 171.85 L 37.6 114.3 L 49.6 116.3 L 52.6 118.3 L 49.6 120.1 L 49.6 138.2 L 78.6 138.2 L 88.6 128.2 L 100.6 138.2 L 100.6 142.2 L 49.6 142.2 L 49.6 170.78271608352662 L 57.5 170.1 L 66.1 169.3 L 75.1 168.4 L 84.7 167.6 L 94.7 166.9 L 105.2 166.2 L 105.5 168.0 L 95.3 170.6 L 85.5 172.9 L 76.1 174.9 L 67.2 176.8 L 58.7 178.5 L 50.7 180.0 L 43.1 181.4 L 36.0 182.7 L 29.3 183.9 L 27.215044212341308 184.26991147994994 L 25.5 187.7 L 23.1 185.0 L 19.7 173.3 Z M 180.7 146.9 L 182.7 146.9 L 180.7 171.9 L 184.2 174.3 L 186.7 177.9 L 184.2 181.5 L 180.7 183.9 L 128.9 183.9 L 126.3 183.8 L 123.8 183.3 L 121.4 182.5 L 119.2 181.3 L 117.1 179.7 L 115.5 177.6 L 114.3 175.4 L 113.5 173.0 L 113.0 170.5 L 112.9 167.9 L 112.9 114.3 L 124.9 116.3 L 127.9 118.3 L 124.9 120.1 L 124.9 143.478125 L 125.1 143.4 L 131.4 141.2 L 137.5 139.1 L 143.5 137.2 L 149.2 135.3 L 154.8 133.4 L 160.1 131.6 L 165.3 129.8 L 170.3 128.1 L 174.11868057250976 126.74755058288574 L 174.1 126.7 L 174.1454978942871 126.73805284500122 L 175.1 126.4 L 175.54633483886718 127.90966186523437 L 185.1 135.9 L 185.4 139.0 L 181.20239181518554 137.08109340667724 L 178.5 137.9 L 173.4 139.0 L 168.2 140.2 L 162.8 141.3 L 157.1 142.4 L 151.3 143.5 L 145.3 144.5 L 139.1 145.5 L 132.6 146.4 L 126.0 147.1 L 124.9 147.1956521987915 L 124.9 167.9 L 125.0 169.2 L 125.1 170.1 L 125.3 170.7 L 125.5 171.0 L 125.6 171.2 L 126.2 171.5 L 126.7 171.7 L 127.7 171.9 L 174.7 171.9 Z M 78.1 19.1 L 79.3 22.5 L 75.53699731826782 22.175603199005128 L 73.1 25.1 L 67.8 31.1 L 66.73728809356689 32.2 L 124.2 32.2 L 124.77931032180786 31.71724138259888 L 125.4 30.6 L 125.78145694732666 30.882119178771973 L 130.2 27.2 L 141.2 36.2 L 136.2 39.2 L 131.25365858078004 41.26097564697265 L 131.1 41.4 L 128.8 43.3 L 126.3 45.4 L 123.5 47.6 L 120.5 49.9 L 117.2 52.2 L 113.7 54.7 L 109.8 57.2 L 109.24285717010498 57.6 L 159.4 57.6 L 165.4 52.6 L 176.4 61.6 L 171.4 65.6 L 171.4 105.3 L 159.4 111.3 L 159.4 61.6 L 53.3 61.6 L 53.3 106.5 L 41.3 112.5 L 41.3 55.61971826553345 L 36.0 59.8 L 28.6 65.3 L 20.8 70.6 L 12.5 75.6 L 11.4 74.2 L 18.4 67.6 L 25.2 61.1 L 31.7 54.8 L 38.0 48.6 L 43.9 42.5 L 49.4 36.3 L 54.7 30.2 L 59.6 24.1 L 64.2 18.1 L 67.83460636138916 12.8211669921875 L 67.8 12.8 L 68.19759035110474 12.293975925445556 L 68.4 12.0 L 68.41813936233521 12.01327724456787 L 68.9 11.4 Z M 139.2 98.8 L 135.7 96.7 L 131.8 94.5 L 127.5 92.3 L 122.9 90.1 L 117.9 87.9 L 112.5 85.7 L 106.7 83.3 L 103.07288036346435 81.81347560882568 L 102.8 82.1 L 98.2 86.1 L 93.0 89.7 L 87.2 93.0 L 80.8 96.0 L 73.8 98.7 L 66.1 101.0 L 57.8 102.9 L 57.3 101.2 L 64.8 97.5 L 71.6 93.8 L 77.8 90.2 L 83.3 86.5 L 88.1 82.8 L 92.1 79.1 L 95.5 75.3 L 98.1 71.6 L 100.1 67.8 L 101.12866554260253 65.00790777206421 L 101.1 65.0 L 102.0 62.6 L 112.7 68.2 L 114.8 71.1 L 110.78954753875732 71.87394695281982 L 110.1 73.2 L 106.8 77.9 L 105.29115915298462 79.48428287506104 L 107.7 79.7 L 113.9 80.5 L 119.8 81.6 L 125.4 82.9 L 130.6 84.4 L 135.5 85.9 L 140.1 87.6 L 144.3 89.4 L 148.3 91.4 L 151.9 93.5 L 154.3 97.4 L 153.3 101.9 L 149.4 104.2 L 144.9 103.2 L 142.2 101.0 Z M 62.87288131713867 36.2 L 62.1 37.0 L 56.1 42.8 L 49.8 48.6 L 44.372625732421874 53.136312866210936 L 53.3 57.6 L 105.6777777671814 57.6 L 107.9 55.1 L 110.7 51.5 L 113.3 48.1 L 115.7 45.0 L 118.0 42.1 L 119.9 39.4 L 121.7 36.8 L 122.09130430221558 36.2 Z " />
</g>
</svg>
