<svg xmlns="http://www.w3.org/2000/svg" xmlns:xlink="http://www.w3.org/1999/xlink" version="1.1" baseProfile="full" viewBox="0 0 200 200" width="200" height="200">
<g fill="black">
<path d="M 162.4 182.7 L 158.1 180.4 L 153.1 178.0 L 147.6 175.7 L 141.4 173.5 L 134.6 171.2 L 127.2 168.9 L 119.3 166.5 L 110.8 164.0 L 111.1 162.2 L 120.0 162.8 L 128.4 163.7 L 136.2 164.8 L 143.4 166.1 L 150.1 167.6 L 156.3 169.3 L 162.0 171.1 L 167.1 173.1 L 171.8 175.2 L 176.0 177.6 L 178.4 181.5 L 177.4 185.9 L 173.5 188.3 L 169.0 187.3 L 166.0 185.0 Z M 79.80431146621704 161.23309659957886 L 86.0 167.5 L 86.2 170.9 L 82.48826293945312 169.39014081954957 L 79.4 170.8 L 74.2 172.9 L 68.6 175.0 L 62.5 177.0 L 55.9 179.0 L 48.8 180.9 L 41.2 182.8 L 33.1 184.6 L 24.4 186.2 L 15.2 187.6 L 14.7 185.9 L 23.4 182.5 L 31.6 179.4 L 39.3 176.5 L 46.4 173.7 L 53.1 171.0 L 59.2 168.3 L 64.8 165.7 L 69.8 163.1 L 74.2 160.6 L 78.1 158.2 Z M 56.0 94.7 L 144.0 94.7 L 150.0 89.7 L 161.0 98.7 L 156.0 102.7 L 156.0 154.8 L 144.0 160.8 L 144.0 154.8 L 56.0 154.8 L 56.0 157.8 L 44.0 163.8 L 44.0 88.7 Z M 56.0 136.1 L 56.0 150.8 L 144.0 150.8 L 144.0 136.1 Z M 56.0 117.4 L 56.0 132.1 L 144.0 132.1 L 144.0 117.4 Z M 56.0 98.7 L 56.0 113.4 L 144.0 113.4 L 144.0 98.7 Z M 158.7 88.2 L 150.6 85.1 L 142.6 81.5 L 134.9 77.6 L 127.4 73.2 L 120.1 68.4 L 113.1 63.3 L 106.4 57.6 L 104.82539682388305 56.0 L 103.2622950553894 56.0 L 96.8 61.4 L 89.1 67.0 L 81.0 72.0 L 72.7 76.6 L 64.0 80.8 L 55.0 84.5 L 45.7 87.7 L 36.1 90.6 L 26.3 92.9 L 16.2 94.8 L 15.7 93.1 L 25.2 89.3 L 34.4 85.5 L 43.3 81.6 L 51.9 77.5 L 60.2 73.1 L 68.1 68.5 L 75.6 63.6 L 82.8 58.3 L 89.5 52.6 L 94.0 48.31428575515747 L 94.0 44.0 L 50.0 44.0 L 50.0 71.0 L 38.0 77.0 L 38.0 34.0 L 50.0 40.0 L 94.0 40.0 L 94.0 30.0 L 17.0 30.0 L 17.0 26.0 L 94.0 26.0 L 94.0 12.0 L 106.0 14.0 L 109.0 16.0 L 106.0 17.8 L 106.0 26.0 L 161.0 26.0 L 171.0 16.0 L 183.0 26.0 L 183.0 30.0 L 106.0 30.0 L 106.0 40.0 L 150.0 40.0 L 156.0 35.0 L 167.0 44.0 L 162.0 48.0 L 162.0 67.0 L 150.0 73.0 L 150.0 44.0 L 106.0 44.0 L 106.0 52.55921049118042 L 108.9 54.2 L 116.4 58.3 L 123.8 62.2 L 131.3 65.9 L 138.9 69.1 L 146.6 72.1 L 154.3 74.7 L 162.2 77.0 L 170.2 78.9 L 178.3 80.5 L 187.3 82.4 L 175.6 93.4 L 167.0 91.0 Z " />
</g>
</svg>
