<svg xmlns="http://www.w3.org/2000/svg" xmlns:xlink="http://www.w3.org/1999/xlink" version="1.1" baseProfile="full" viewBox="0 0 200 200" width="200" height="200">
<g fill="black">
<path d="M 70.0 181.9 L 90.0 181.9 L 91.2 181.8 L 92.1 181.7 L 92.7 181.5 L 93.0 181.3 L 93.2 181.2 L 93.4 181.0 L 93.5 180.6 L 93.7 180.0 L 93.9 179.1 L 94.0 177.9 L 94.0 140.5 L 17.0 140.5 L 17.0 136.5 L 161.0 136.5 L 171.0 126.5 L 183.0 136.5 L 183.0 140.5 L 106.0 140.5 L 106.0 177.9 L 105.8 180.5 L 105.4 183.0 L 104.6 185.4 L 103.3 187.6 L 101.7 189.6 L 99.7 191.3 L 97.4 192.5 L 95.0 193.3 L 92.5 193.8 L 90.0 193.9 L 90.0 187.9 L 70.0 184.9 Z M 68.1 155.7 L 69.3 159.1 L 65.34523611068725 158.69088649749756 L 64.6 159.5 L 60.7 163.3 L 56.6 166.9 L 52.0 170.5 L 47.2 174.0 L 42.0 177.4 L 36.4 180.7 L 30.5 183.8 L 24.1 186.8 L 17.4 189.5 L 16.5 188.0 L 22.2 183.5 L 27.6 179.3 L 32.7 175.2 L 37.5 171.2 L 41.9 167.3 L 46.0 163.4 L 49.7 159.6 L 53.0 155.8 L 56.0 152.1 L 58.02605495452881 149.2167679786682 L 58.0 149.2 L 59.0 147.8 Z M 159.4 178.0 L 156.3 174.7 L 152.9 171.4 L 149.1 168.1 L 144.9 164.9 L 140.3 161.6 L 135.4 158.4 L 130.1 155.1 L 124.5 151.6 L 125.2 150.0 L 131.7 151.6 L 137.8 153.6 L 143.5 155.9 L 148.9 158.4 L 153.9 161.1 L 158.6 164.0 L 162.9 167.1 L 167.0 170.5 L 170.7 174.0 L 174.0 177.7 L 175.0 182.1 L 172.7 186.1 L 168.3 187.1 L 164.3 184.8 L 162.0 181.4 Z M 32.6 93.4 L 32.3 97.2 L 31.5 100.9 L 30.4 104.4 L 28.8 107.7 L 26.7 110.7 L 24.1 113.3 L 21.1 115.6 L 16.5 115.8 L 13.0 112.9 L 12.8 108.3 L 15.7 104.8 L 17.7 104.1 L 19.5 103.2 L 21.2 101.9 L 22.9 100.2 L 24.4 98.0 L 25.8 95.4 L 27.1 92.4 L 28.2 88.9 L 29.2 84.9 L 29.6 80.5 L 31.4 80.4 L 32.0 84.9 L 32.27272729873657 87.3 L 169.3 87.3 L 170.00588235855102 86.71176471710206 L 170.5 85.6 L 170.93921566009521 85.93398694992065 L 175.3 82.3 L 186.3 91.3 L 181.3 94.3 L 175.77307691574097 96.60288457870483 L 174.6 97.6 L 172.5 99.2 L 170.2 101.0 L 167.7 102.8 L 165.1 104.7 L 162.2 106.6 L 159.2 108.6 L 156.2 110.9 L 155.0 109.6 L 157.4 106.7 L 159.4 103.7 L 161.3 100.9 L 163.0 98.3 L 164.7 95.8 L 166.2 93.5 L 167.5 91.3 L 32.54878044128418 91.3 Z M 152.0 111.0 L 152.0 115.0 L 48.0 115.0 L 48.0 111.0 L 133.8181818008423 111.0 L 142.0 102.0 Z M 28.0 65.7 L 94.0 65.7 L 94.0 38.9 L 16.0 38.9 L 16.0 34.9 L 94.0 34.9 L 94.0 9.7 L 106.0 11.7 L 109.0 13.7 L 106.0 15.5 L 106.0 34.9 L 162.0 34.9 L 172.0 24.9 L 184.0 34.9 L 184.0 38.9 L 106.0 38.9 L 106.0 65.7 L 150.0 65.7 L 160.0 55.7 L 172.0 65.7 L 172.0 69.7 L 28.0 69.7 Z " />
</g>
</svg>
