<svg xmlns="http://www.w3.org/2000/svg" xmlns:xlink="http://www.w3.org/1999/xlink" version="1.1" baseProfile="full" viewBox="0 0 200 200" width="200" height="200">
<g fill="black">
<path d="M 70.3 136.3 L 69.7 134.8 L 68.8 133.1 L 67.8 131.4 L 66.5 129.6 L 65.0 127.7 L 63.3 125.7 L 61.4 123.6 L 59.1 121.9 L 59.6625 120.9 L 15.9 120.9 L 15.9 116.9 L 94.5 116.9 L 94.5 104.6 L 33.8 104.6 L 33.8 100.6 L 94.5 100.6 L 94.5 86.9 L 106.5 88.9 L 109.5 90.9 L 106.5 92.7 L 106.5 100.6 L 148.9181818008423 100.6 L 157.1 91.6 L 167.1 100.6 L 167.1 104.6 L 106.5 104.6 L 106.5 116.9 L 166.8181818008423 116.9 L 175.0 107.9 L 185.0 116.9 L 185.0 120.9 L 137.36666669845582 120.9 L 143.1 126.5 L 144.0 130.0 L 139.6520930290222 129.1609302520752 L 139.2 129.5 L 137.0 131.2 L 134.7 132.8 L 132.3 134.5 L 129.7 136.3 L 127.0 138.1 L 124.1 139.9 L 121.97894735336304 141.2 L 163.8181818008423 141.2 L 172.0 132.2 L 182.0 141.2 L 182.0 145.2 L 106.5 145.2 L 106.5 158.7 L 152.1 158.7 L 162.1 148.7 L 174.1 158.7 L 174.1 162.7 L 106.5 162.7 L 106.5 182.0 L 94.5 188.0 L 94.5 162.7 L 26.8 162.7 L 26.8 158.7 L 94.5 158.7 L 94.5 145.2 L 18.9 145.2 L 18.9 141.2 L 73.28000001907348 141.2 L 70.9 139.1 L 70.7 137.8 Z M 62.7 121.6 L 65.4 122.5 L 68.0 123.6 L 70.5 124.7 L 72.7 126.0 L 74.8 127.4 L 76.8 128.8 L 78.6 130.4 L 80.3 132.1 L 81.7 134.0 L 81.9 138.6 L 79.52941179275513 141.2 L 118.0 141.2 L 119.2 139.8 L 121.3 136.9 L 123.3 134.2 L 125.2 131.6 L 127.0 129.1 L 128.7 126.8 L 130.2 124.6 L 131.6 122.4 L 132.575 120.9 L 61.246153831481934 120.9 Z M 106.5 15.0 L 109.5 17.0 L 106.5 18.8 L 106.5 31.4 L 164.0 31.4 L 174.0 21.4 L 186.0 31.4 L 186.0 35.4 L 106.5 35.4 L 106.5 52.9 L 146.2 52.9 L 152.2 47.9 L 163.2 56.9 L 158.2 60.9 L 158.2 85.3 L 146.2 91.3 L 146.2 83.3 L 54.7 83.3 L 54.7 86.3 L 42.7 92.3 L 42.7 46.9 L 54.7 52.9 L 94.5 52.9 L 94.5 35.4 L 14.9 35.4 L 14.9 31.4 L 94.5 31.4 L 94.5 13.0 Z M 54.7 79.3 L 146.2 79.3 L 146.2 56.9 L 54.7 56.9 Z " />
</g>
</svg>
