<svg xmlns="http://www.w3.org/2000/svg" xmlns:xlink="http://www.w3.org/1999/xlink" version="1.1" baseProfile="full" viewBox="0 0 200 200" width="200" height="200">
<g fill="black">
<path d="M 156.2 182.3 L 147.2 178.8 L 138.7 174.7 L 130.7 169.9 L 123.4 164.6 L 116.7 158.7 L 110.6 152.2 L 105.3 145.1 L 101.20384616851807 138.0 L 100.87321424484253 138.0 L 96.9 146.9 L 90.0 156.8 L 81.2 165.4 L 70.8 172.6 L 58.6 178.4 L 44.7 182.9 L 29.2 186.1 L 12.1 187.8 L 11.8 186.1 L 28.5 182.3 L 43.2 177.8 L 55.9 172.4 L 66.7 166.1 L 75.7 159.0 L 82.7 151.1 L 88.0 142.3 L 89.59587631225585 138.0 L 16.0 138.0 L 16.0 134.0 L 91.0804123878479 134.0 L 91.6 132.6 L 93.6 121.9 L 93.98406372070312 110.47410354614257 L 93.9 107.7 L 106.0 109.9 L 109.0 111.8 L 105.67479162216186 113.86162919998169 L 104.9 123.3 L 102.31129035949706 134.0 L 162.0 134.0 L 172.0 124.0 L 184.0 134.0 L 184.0 138.0 L 104.02786884307861 138.0 L 108.5 142.4 L 114.8 148.0 L 121.3 153.2 L 128.2 157.8 L 135.5 161.9 L 143.1 165.4 L 151.2 168.5 L 159.6 171.0 L 168.6 173.0 L 178.0 174.4 L 187.7 176.0 L 175.9 187.5 L 165.8 185.2 Z M 138.1 124.2 L 137.1 122.8 L 135.9 121.2 L 134.3 119.6 L 132.5 117.9 L 130.4 116.2 L 128.1 114.4 L 125.6 112.6 L 122.6 111.1 L 123.2 109.4 L 126.4 110.3 L 129.7 110.8 L 132.7 111.5 L 135.5 112.3 L 138.2 113.3 L 140.7 114.3 L 143.1 115.5 L 145.2 116.9 L 147.3 118.4 L 149.1 120.1 L 150.1 124.5 L 147.7 128.4 L 143.2 129.3 L 139.3 126.9 L 138.8 125.6 Z M 39.9 117.2 L 27.9 123.2 L 27.9 54.4 L 39.9 60.4 L 160.0 60.4 L 166.0 55.4 L 177.0 64.4 L 172.0 68.4 L 172.0 111.2 L 160.0 117.2 L 160.0 105.2 L 39.9 105.2 Z M 39.9 64.4 L 39.9 101.2 L 71.6 101.2 L 71.6 64.4 Z M 83.6 64.4 L 83.6 101.2 L 116.3 101.2 L 116.3 64.4 Z M 128.3 64.4 L 128.3 101.2 L 160.0 101.2 L 160.0 64.4 Z M 150.0 17.6 L 151.1 21.0 L 147.22941179275512 20.466125774383546 L 147.1 20.6 L 144.0 23.7 L 140.8 26.7 L 137.4 29.8 L 133.7 32.9 L 129.9 35.9 L 125.9 39.0 L 121.7 42.0 L 117.2 44.9 L 116.8758620262146 45.1 L 166.0 45.1 L 176.0 35.1 L 188.0 45.1 L 188.0 49.1 L 12.0 49.1 L 12.0 45.1 L 112.48333330154419 45.1 L 114.9 42.2 L 118.3 38.2 L 121.6 34.3 L 124.8 30.6 L 127.8 26.9 L 130.7 23.4 L 133.5 20.0 L 136.0 16.6 L 138.4 13.3 L 140.03423194885255 10.922935390472412 L 140.0 10.9 L 140.26666669845582 10.584848499298095 L 140.6 10.1 L 140.64592084884643 10.136639022827149 L 141.1 9.6 Z M 64.3 35.7 L 62.8 33.5 L 61.0 31.1 L 59.0 28.6 L 56.6 26.0 L 47.9 17.3 L 44.3 14.3 L 45.3 12.8 L 49.5 14.9 L 53.6 16.8 L 57.4 18.7 L 60.8 20.7 L 64.1 22.7 L 67.0 24.8 L 69.7 26.8 L 72.2 28.9 L 74.4 31.0 L 76.4 33.2 L 77.1 37.7 L 74.6 41.5 L 70.0 42.2 L 66.3 39.6 L 65.4 37.8 Z " />
</g>
</svg>
