<svg xmlns="http://www.w3.org/2000/svg" xmlns:xlink="http://www.w3.org/1999/xlink" version="1.1" baseProfile="full" viewBox="0 0 200 200" width="200" height="200">
<g fill="black">
<path d="M 106.0 68.2 L 109.0 70.2 L 106.0 72.0 L 106.0 97.4 L 138.0 97.4 L 148.0 87.4 L 160.0 97.4 L 160.0 101.4 L 106.0 101.4 L 106.0 138.0 L 161.0 138.0 L 171.0 128.0 L 183.0 138.0 L 183.0 142.0 L 106.0 142.0 L 106.0 182.5 L 94.0 188.5 L 94.0 142.0 L 19.0 142.0 L 19.0 138.0 L 94.0 138.0 L 94.0 101.4 L 37.0 101.4 L 37.0 97.4 L 94.0 97.4 L 94.0 66.2 Z M 161.6 88.3 L 154.2 83.5 L 147.1 78.5 L 140.4 73.2 L 133.9 67.6 L 127.8 61.8 L 122.0 55.6 L 116.7 49.1 L 112.38695650100708 42.9 L 91.13888893127441 42.9 L 88.9 46.0 L 81.4 54.6 L 72.8 62.8 L 63.2 70.6 L 52.5 78.0 L 40.9 85.0 L 28.1 91.5 L 14.3 97.5 L 13.6 95.9 L 26.3 88.2 L 38.0 80.4 L 48.7 72.6 L 58.4 64.7 L 67.0 56.6 L 74.5 48.4 L 78.69047622680664 42.9 L 18.0 42.9 L 18.0 38.9 L 81.59069766998292 38.9 L 86.3 31.4 L 90.6 22.7 L 93.65101594924927 14.713517093658448 L 93.6 14.7 L 94.5 12.3 L 105.3 17.8 L 107.4 20.6 L 103.69240808486938 21.380545711517335 L 100.9 27.6 L 95.4 37.0 L 94.02777776718139 38.9 L 160.0 38.9 L 170.0 28.9 L 182.0 38.9 L 182.0 42.9 L 115.6384614944458 42.9 L 119.7 46.2 L 126.1 51.3 L 132.5 56.3 L 139.1 61.1 L 145.9 65.7 L 152.8 70.0 L 160.0 74.1 L 167.3 78.0 L 174.9 81.7 L 182.7 85.1 L 188.5 87.8 L 177.2 97.1 L 169.2 92.8 Z " />
</g>
</svg>
