<svg xmlns="http://www.w3.org/2000/svg" xmlns:xlink="http://www.w3.org/1999/xlink" version="1.1" baseProfile="full" viewBox="0 0 200 200" width="200" height="200">
<g fill="black">
<path d="M 121.1 98.6 L 163.8 98.6 L 169.8 93.6 L 180.8 102.6 L 175.8 106.6 L 175.8 181.2 L 163.8 187.2 L 163.8 179.2 L 121.1 179.2 L 121.1 182.2 L 109.1 188.2 L 109.1 92.6 Z M 121.1 152.6 L 121.1 175.2 L 163.8 175.2 L 163.8 152.6 Z M 76.0 168.0 L 79.0 168.0 L 79.0 148.0 L 91.0 148.0 L 91.0 172.0 L 76.0 172.0 Z M 71.0 172.0 L 61.0 172.0 L 61.0 168.0 L 71.0 168.0 Z M 57.0 172.0 L 47.0 172.0 L 47.0 168.0 L 57.0 168.0 Z M 43.0 172.0 L 33.0 172.0 L 33.0 168.0 L 43.0 168.0 Z M 13.0 148.0 L 25.0 148.0 L 25.0 168.0 L 29.0 168.0 L 29.0 172.0 L 13.0 172.0 Z M 121.1 127.6 L 121.1 148.6 L 163.8 148.6 L 163.8 127.6 Z M 91.0 142.0 L 79.0 142.0 L 79.0 118.0 L 91.0 118.0 Z M 25.0 142.0 L 13.0 142.0 L 13.0 118.0 L 25.0 118.0 Z M 121.1 102.6 L 121.1 123.6 L 163.8 123.6 L 163.8 102.6 Z M 25.0 112.0 L 13.0 112.0 L 13.0 88.0 L 25.0 88.0 Z M 91.0 112.0 L 79.0 112.0 L 79.0 88.0 L 91.0 88.0 Z M 188.4 25.9 L 183.4 29.9 L 183.4 81.4 L 171.4 87.4 L 171.4 77.4 L 111.9 77.4 L 111.9 84.4 L 101.9 89.4 L 101.9 16.9 L 111.9 21.9 L 171.4 21.9 L 177.4 16.9 Z M 90.5 82.0 L 79.5 82.0 L 79.5 58.0 L 90.5 58.0 Z M 25.0 82.0 L 13.0 82.0 L 13.0 58.0 L 25.0 58.0 Z M 111.9 51.6 L 111.9 73.4 L 171.4 73.4 L 171.4 51.6 Z M 29.0 32.0 L 25.0 32.0 L 25.0 52.0 L 13.0 52.0 L 13.0 28.0 L 29.0 28.0 Z M 90.5 52.0 L 79.5 52.0 L 79.5 32.0 L 76.0 32.0 L 76.0 28.0 L 90.5 28.0 Z M 111.9 25.9 L 111.9 47.6 L 171.4 47.6 L 171.4 25.9 Z M 43.0 32.0 L 33.0 32.0 L 33.0 28.0 L 43.0 28.0 Z M 57.0 32.0 L 47.0 32.0 L 47.0 28.0 L 57.0 28.0 Z M 71.0 32.0 L 61.0 32.0 L 61.0 28.0 L 71.0 28.0 Z " />
</g>
</svg>
