<svg xmlns="http://www.w3.org/2000/svg" xmlns:xlink="http://www.w3.org/1999/xlink" version="1.1" baseProfile="full" viewBox="0 0 200 200" width="200" height="200">
<g fill="black">
<path d="M 18.4 141.6 L 51.7 141.6 L 51.7 104.8 L 32.8 104.8 L 32.8 100.8 L 116.6 100.8 L 119.3 97.0 L 121.8 93.2 L 124.2 89.5 L 126.6 86.1 L 128.9 82.7 L 131.1 79.4 L 133.2 76.3 L 135.1 73.2 L 137.0 70.2 L 138.1831169128418 68.25133686065674 L 138.1 68.2 L 138.60285711288452 67.56000003814697 L 138.7 67.4 L 138.718070602417 67.41336469650268 L 139.2 66.8 L 148.3 74.5 L 149.6 77.9 L 145.48752222061157 77.54547605514526 L 143.4 79.8 L 140.7 82.4 L 137.9 85.2 L 135.0 87.9 L 131.9 90.7 L 128.7 93.6 L 125.2 96.4 L 121.6 99.2 L 119.55862064361573 100.8 L 145.2 100.8 L 155.2 90.8 L 167.2 100.8 L 167.2 104.8 L 120.4 104.8 L 120.4 141.6 L 159.6 141.6 L 169.6 131.6 L 181.6 141.6 L 181.6 145.6 L 120.4 145.6 L 120.4 182.8 L 108.4 188.8 L 108.4 145.6 L 18.4 145.6 Z M 63.7 104.8 L 63.7 141.6 L 108.4 141.6 L 108.4 104.8 Z M 64.3 88.5 L 62.9 85.9 L 61.4 83.4 L 59.8 80.8 L 58.0 78.3 L 56.0 75.7 L 53.8 73.1 L 51.3 70.8 L 52.3 69.3 L 55.5 70.9 L 58.7 72.4 L 61.7 74.2 L 64.5 76.2 L 67.2 78.3 L 69.7 80.6 L 72.1 83.1 L 74.3 85.7 L 76.4 88.5 L 78.3 91.5 L 78.4 96.0 L 75.3 99.4 L 70.7 99.5 L 67.3 96.4 L 66.5 93.7 Z M 40.7 24.7 L 78.6 24.7 L 84.6 19.7 L 95.6 28.7 L 90.6 32.7 L 90.6 70.0 L 78.6 76.0 L 78.6 64.0 L 40.7 64.0 L 40.7 76.0 L 28.7 82.0 L 28.7 18.7 Z M 121.3 24.7 L 159.2 24.7 L 165.2 19.7 L 176.2 28.7 L 171.2 32.7 L 171.2 70.0 L 159.2 76.0 L 159.2 64.0 L 121.3 64.0 L 121.3 76.0 L 109.3 82.0 L 109.3 18.7 Z M 121.3 28.7 L 121.3 60.0 L 159.2 60.0 L 159.2 28.7 Z M 40.7 28.7 L 40.7 60.0 L 78.6 60.0 L 78.6 28.7 Z " />
</g>
</svg>
