<svg xmlns="http://www.w3.org/2000/svg" xmlns:xlink="http://www.w3.org/1999/xlink" version="1.1" baseProfile="full" viewBox="0 0 200 200" width="200" height="200">
<g fill="black">
<path d="M 176.5 174.2 L 176.0 171.1 L 175.2 167.9 L 174.3 164.7 L 173.3 161.5 L 172.0 158.1 L 170.6 154.7 L 169.1 151.1 L 167.2 147.7 L 168.7 146.6 L 171.5 149.4 L 174.4 152.2 L 176.9 155.2 L 179.3 158.3 L 181.4 161.4 L 183.4 164.6 L 185.1 167.9 L 186.6 171.3 L 187.9 174.7 L 188.9 178.2 L 187.9 182.7 L 184.0 185.2 L 179.6 184.1 L 177.1 180.2 L 176.9 177.2 Z M 97.6 184.2 L 96.1 179.9 L 98.1 175.7 L 99.4 174.9 L 100.7 173.7 L 102.1 171.9 L 103.5 169.7 L 104.9 166.9 L 106.1 163.7 L 107.3 160.1 L 108.4 156.0 L 109.5 151.4 L 110.3 146.4 L 112.0 146.5 L 112.4 151.6 L 112.8 156.4 L 112.9 160.9 L 112.8 165.1 L 112.4 169.0 L 111.7 172.6 L 110.8 176.0 L 109.6 179.1 L 108.1 182.1 L 106.1 184.7 L 101.7 186.1 Z M 151.1 172.3 L 150.9 169.4 L 150.6 166.6 L 150.2 163.7 L 149.6 160.8 L 148.9 157.8 L 148.0 154.7 L 147.0 151.6 L 145.6 148.5 L 147.0 147.5 L 149.3 150.1 L 151.7 152.7 L 153.8 155.4 L 155.7 158.2 L 157.4 161.1 L 158.9 164.1 L 160.2 167.3 L 161.3 170.5 L 162.2 173.7 L 162.9 177.1 L 161.3 181.4 L 157.2 183.4 L 152.9 181.9 L 150.9 177.8 L 151.1 175.0 Z M 131.5 183.4 L 127.4 181.4 L 125.9 177.1 L 126.4 174.4 L 127.0 168.8 L 127.1 166.0 L 127.1 163.2 L 126.9 160.4 L 126.6 157.4 L 126.3 154.5 L 125.8 151.4 L 124.9 148.5 L 126.5 147.7 L 128.2 150.4 L 130.1 153.0 L 131.8 155.8 L 133.2 158.7 L 134.5 161.6 L 135.5 164.7 L 136.4 167.9 L 137.1 171.1 L 137.6 174.4 L 137.9 177.8 L 135.8 181.9 Z M 73.7 168.0 L 76.6 168.0 L 76.6 148.0 L 88.6 148.0 L 88.6 172.0 L 73.7 172.0 Z M 14.3 148.0 L 26.3 148.0 L 26.3 168.0 L 29.2 168.0 L 29.2 172.0 L 14.3 172.0 Z M 42.6 172.0 L 33.7 172.0 L 33.7 168.0 L 42.6 168.0 Z M 55.9 172.0 L 47.0 172.0 L 47.0 168.0 L 55.9 168.0 Z M 69.3 172.0 L 60.4 172.0 L 60.4 168.0 L 69.3 168.0 Z M 145.0 44.0 L 146.3 40.2 L 147.5 36.5 L 148.7 33.0 L 149.9 29.7 L 150.9 26.6 L 151.8 23.6 L 152.6 20.8 L 153.2 18.1 L 153.56370964050294 16.64516124725342 L 153.4 16.6 L 154.3 14.3 L 165.0 19.8 L 167.2 22.8 L 162.99307804107667 23.52533140182495 L 162.2 24.9 L 160.5 27.6 L 158.7 30.4 L 156.8 33.2 L 154.7 36.2 L 152.5 39.2 L 150.1 42.3 L 147.4 45.5 L 146.71818180084227 46.4 L 159.9 46.4 L 169.9 36.4 L 181.9 46.4 L 181.9 50.4 L 153.4 50.4 L 153.4 74.9 L 156.1 74.9 L 166.1 64.9 L 178.1 74.9 L 178.1 78.9 L 153.4 78.9 L 153.4 102.6 L 156.1 102.6 L 166.1 92.6 L 178.1 102.6 L 178.1 106.6 L 153.4 106.6 L 153.4 132.6 L 163.7 132.6 L 173.7 122.6 L 185.7 132.6 L 185.7 136.6 L 122.0 136.6 L 110.0 142.6 L 110.0 65.87948713302612 L 109.5 66.7 L 105.3 72.9 L 100.7 78.8 L 95.7 84.3 L 94.2 83.3 L 97.5 76.7 L 103.7 63.5 L 106.7 56.9 L 109.4 50.1 L 110.0 48.5307692527771 L 110.0 46.4 L 110.81470584869385 46.4 L 112.0 43.3 L 114.3 36.3 L 116.5 29.2 L 118.5 22.0 L 120.2 14.7 L 120.25541954040527 14.714810371398926 L 120.7 13.0 L 131.8 17.8 L 134.2 20.5 L 130.60754718780518 21.526415061950683 L 129.4 25.3 L 126.7 32.7 L 123.7 39.9 L 120.72857141494751 46.4 L 143.95384616851806 46.4 Z M 26.3 142.0 L 14.3 142.0 L 14.3 118.0 L 26.3 118.0 Z M 88.6 142.0 L 76.6 142.0 L 76.6 118.0 L 88.6 118.0 Z M 122.0 106.6 L 122.0 132.6 L 141.4 132.6 L 141.4 106.6 Z M 88.6 112.0 L 76.6 112.0 L 76.6 88.0 L 88.6 88.0 Z M 26.3 112.0 L 14.3 112.0 L 14.3 88.0 L 26.3 88.0 Z M 122.0 78.9 L 122.0 102.6 L 141.4 102.6 L 141.4 78.9 Z M 88.6 82.0 L 76.6 82.0 L 76.6 58.0 L 88.6 58.0 Z M 26.3 82.0 L 14.3 82.0 L 14.3 58.0 L 26.3 58.0 Z M 122.0 50.4 L 122.0 74.9 L 141.4 74.9 L 141.4 50.4 Z M 88.6 52.0 L 76.6 52.0 L 76.6 32.0 L 73.7 32.0 L 73.7 28.0 L 88.6 28.0 Z M 29.2 32.0 L 26.3 32.0 L 26.3 52.0 L 14.3 52.0 L 14.3 28.0 L 29.2 28.0 Z M 42.6 32.0 L 33.7 32.0 L 33.7 28.0 L 42.6 28.0 Z M 69.3 32.0 L 60.4 32.0 L 60.4 28.0 L 69.3 28.0 Z M 55.9 32.0 L 47.0 32.0 L 47.0 28.0 L 55.9 28.0 Z " />
</g>
</svg>
