<svg xmlns="http://www.w3.org/2000/svg" xmlns:xlink="http://www.w3.org/1999/xlink" version="1.1" baseProfile="full" viewBox="0 0 200 200" width="200" height="200">
<g fill="black">
<path d="M 21.5 183.5 L 21.2 179.0 L 24.2 175.5 L 26.9 174.3 L 29.4 172.9 L 31.8 171.1 L 34.0 168.9 L 36.0 166.3 L 37.9 163.3 L 39.6 159.7 L 41.1 155.8 L 42.5 151.3 L 43.5 146.4 L 45.3 146.5 L 45.6 151.7 L 45.7 156.6 L 45.3 161.3 L 44.4 165.7 L 43.1 169.9 L 41.3 173.8 L 39.1 177.5 L 36.4 180.8 L 33.2 183.7 L 29.5 186.2 L 25.0 186.5 Z M 165.5 175.2 L 164.2 172.1 L 162.5 168.9 L 160.5 165.7 L 158.1 162.3 L 155.4 158.8 L 152.3 155.2 L 148.9 151.4 L 145.1 147.6 L 146.1 146.2 L 150.9 148.8 L 155.4 151.5 L 159.6 154.3 L 163.3 157.3 L 166.7 160.4 L 169.8 163.6 L 172.5 166.9 L 174.9 170.4 L 177.0 173.9 L 178.6 177.6 L 178.1 182.1 L 174.6 185.1 L 170.1 184.6 L 167.1 181.1 L 166.5 178.2 Z M 119.9 172.9 L 119.3 170.2 L 118.5 167.4 L 117.3 164.5 L 115.8 161.5 L 113.9 158.4 L 111.8 155.1 L 109.4 151.8 L 106.4 148.5 L 107.5 147.1 L 111.3 149.6 L 114.9 152.0 L 118.2 154.6 L 121.2 157.3 L 123.8 160.2 L 126.2 163.3 L 128.2 166.5 L 129.9 169.8 L 131.2 173.2 L 132.1 176.8 L 130.8 181.2 L 126.8 183.4 L 122.4 182.1 L 120.2 178.1 L 120.2 175.6 Z M 80.8 183.4 L 76.8 181.2 L 75.5 176.8 L 76.0 174.3 L 76.3 171.8 L 76.4 169.2 L 76.3 166.5 L 75.9 163.8 L 75.2 160.9 L 74.2 157.9 L 73.0 154.8 L 71.6 151.6 L 69.5 148.5 L 70.9 147.3 L 73.7 149.9 L 76.5 152.4 L 79.0 155.1 L 81.2 158.0 L 83.0 161.0 L 84.6 164.2 L 85.8 167.5 L 86.7 170.9 L 87.2 174.5 L 87.4 178.1 L 85.2 182.1 Z M 145.0 44.0 L 146.3 40.2 L 147.5 36.5 L 148.7 33.0 L 149.9 29.7 L 150.9 26.6 L 151.8 23.6 L 152.6 20.8 L 153.2 18.1 L 153.56370964050294 16.64516124725342 L 153.4 16.6 L 154.3 14.3 L 165.0 19.8 L 167.2 22.8 L 162.99307804107667 23.52533140182495 L 162.2 24.9 L 160.5 27.6 L 158.7 30.4 L 156.8 33.2 L 154.7 36.2 L 152.5 39.2 L 150.1 42.3 L 147.4 45.5 L 146.71818180084227 46.4 L 159.9 46.4 L 169.9 36.4 L 181.9 46.4 L 181.9 50.4 L 153.4 50.4 L 153.4 74.9 L 156.1 74.9 L 166.1 64.9 L 178.1 74.9 L 178.1 78.9 L 153.4 78.9 L 153.4 102.6 L 156.1 102.6 L 166.1 92.6 L 178.1 102.6 L 178.1 106.6 L 153.4 106.6 L 153.4 132.6 L 163.7 132.6 L 173.7 122.6 L 185.7 132.6 L 185.7 136.6 L 122.0 136.6 L 110.0 142.6 L 110.0 65.87948713302612 L 109.5 66.7 L 105.3 72.9 L 100.7 78.8 L 95.7 84.3 L 94.2 83.3 L 97.5 76.7 L 103.7 63.5 L 106.7 56.9 L 109.4 50.1 L 110.0 48.5307692527771 L 110.0 46.4 L 110.81470584869385 46.4 L 112.0 43.3 L 114.3 36.3 L 116.5 29.2 L 118.5 22.0 L 120.2 14.7 L 120.25541954040527 14.714810371398926 L 120.7 13.0 L 131.8 17.8 L 134.2 20.5 L 130.60754718780518 21.526415061950683 L 129.4 25.3 L 126.7 32.7 L 123.7 39.9 L 120.72857141494751 46.4 L 143.95384616851806 46.4 Z M 74.0 135.0 L 77.0 135.0 L 77.0 119.0 L 89.0 119.0 L 89.0 139.0 L 74.0 139.0 Z M 14.0 119.0 L 26.0 119.0 L 26.0 135.0 L 29.0 135.0 L 29.0 139.0 L 14.0 139.0 Z M 43.0 139.0 L 34.0 139.0 L 34.0 135.0 L 43.0 135.0 Z M 56.0 139.0 L 47.0 139.0 L 47.0 135.0 L 56.0 135.0 Z M 69.0 139.0 L 60.0 139.0 L 60.0 135.0 L 69.0 135.0 Z M 122.0 106.6 L 122.0 132.6 L 141.4 132.6 L 141.4 106.6 Z M 26.0 115.0 L 14.0 115.0 L 14.0 95.0 L 26.0 95.0 Z M 89.0 115.0 L 77.0 115.0 L 77.0 95.0 L 89.0 95.0 Z M 122.0 78.9 L 122.0 102.6 L 141.4 102.6 L 141.4 78.9 Z M 26.0 91.0 L 14.0 91.0 L 14.0 71.0 L 26.0 71.0 Z M 89.0 91.0 L 77.0 91.0 L 77.0 71.0 L 89.0 71.0 Z M 122.0 50.4 L 122.0 74.9 L 141.4 74.9 L 141.4 50.4 Z M 89.0 66.0 L 77.0 66.0 L 77.0 46.0 L 89.0 46.0 Z M 26.0 66.0 L 14.0 66.0 L 14.0 46.0 L 26.0 46.0 Z M 29.0 26.0 L 26.0 26.0 L 26.0 42.0 L 14.0 42.0 L 14.0 22.0 L 29.0 22.0 Z M 89.0 42.0 L 77.0 42.0 L 77.0 26.0 L 74.0 26.0 L 74.0 22.0 L 89.0 22.0 Z M 69.0 26.0 L 60.0 26.0 L 60.0 22.0 L 69.0 22.0 Z M 56.0 26.0 L 47.0 26.0 L 47.0 22.0 L 56.0 22.0 Z M 43.0 26.0 L 34.0 26.0 L 34.0 22.0 L 43.0 22.0 Z " />
</g>
</svg>
