<svg xmlns="http://www.w3.org/2000/svg" xmlns:xlink="http://www.w3.org/1999/xlink" version="1.1" baseProfile="full" viewBox="0 0 200 200" width="200" height="200">
<g fill="black">
<path d="M 70.0 177.3 L 90.0 177.3 L 91.2 177.2 L 92.1 177.0 L 92.7 176.9 L 93.0 176.7 L 93.4 176.3 L 93.7 175.4 L 93.9 174.5 L 94.0 173.3 L 94.0 124.5 L 14.0 124.5 L 14.0 120.5 L 94.0 120.5 L 94.0 98.7 L 105.58659515380859 100.63109922409058 L 107.5 99.0 L 113.2 94.0 L 118.5 89.5 L 123.5 85.2 L 128.1 81.1 L 132.3 77.3 L 136.0 73.7 L 139.2 70.5 L 40.0 70.5 L 40.0 66.5 L 142.8 66.5 L 144.6 64.4 L 145.03171520233155 64.8069040298462 L 149.0 61.5 L 160.0 70.5 L 155.0 73.5 L 149.73571424484254 75.69345235824585 L 146.5 78.3 L 142.5 81.4 L 138.1 84.5 L 133.3 87.8 L 128.1 91.2 L 122.4 94.8 L 116.3 98.4 L 109.6 102.1 L 108.74799995422363 102.53199996948243 L 109.0 102.7 L 106.0 104.5 L 106.0 120.5 L 164.0 120.5 L 174.0 110.5 L 186.0 120.5 L 186.0 124.5 L 106.0 124.5 L 106.0 173.3 L 105.8 175.8 L 105.4 178.3 L 104.6 180.7 L 103.3 183.0 L 101.7 185.0 L 99.7 186.7 L 97.4 187.9 L 95.0 188.7 L 92.5 189.1 L 90.0 189.3 L 90.0 183.3 L 70.0 180.3 Z M 100.5 37.9 L 99.4 35.3 L 97.9 32.7 L 96.1 29.9 L 93.9 27.1 L 91.4 24.2 L 88.4 21.2 L 85.2 18.1 L 81.5 15.1 L 82.4 13.6 L 86.8 15.6 L 91.1 17.5 L 95.0 19.7 L 98.5 22.0 L 101.8 24.5 L 104.8 27.1 L 107.4 29.9 L 109.7 32.9 L 111.7 36.0 L 113.3 39.4 L 112.8 43.9 L 110.74827585220336 45.6 L 163.1 45.6 L 173.1 35.6 L 185.1 45.6 L 185.1 49.6 L 15.0 49.6 L 15.0 45.6 L 104.11999998092651 45.6 L 101.8 42.8 L 101.3 40.4 Z " />
</g>
</svg>
