<svg xmlns="http://www.w3.org/2000/svg" xmlns:xlink="http://www.w3.org/1999/xlink" version="1.1" baseProfile="full" viewBox="0 0 200 200" width="200" height="200">
<g fill="black">
<path d="M 37.0 180.0 L 25.0 186.0 L 25.0 94.0 L 37.0 100.0 L 163.0 100.0 L 169.0 95.0 L 180.0 104.0 L 175.0 108.0 L 175.0 174.0 L 163.0 180.0 L 163.0 168.0 L 37.0 168.0 Z M 37.0 104.0 L 37.0 164.0 L 71.0 164.0 L 71.0 104.0 Z M 83.0 104.0 L 83.0 164.0 L 117.0 164.0 L 117.0 104.0 Z M 129.0 104.0 L 129.0 164.0 L 163.0 164.0 L 163.0 104.0 Z M 173.5 45.0 L 175.0 48.3 L 171.1798593521118 48.23413553237915 L 170.2 49.6 L 166.6 54.2 L 162.9 58.8 L 159.0 63.3 L 154.9 67.8 L 150.5 72.3 L 145.9 76.8 L 141.1 81.2 L 136.0 85.5 L 130.6 89.6 L 129.3 88.3 L 133.3 82.8 L 137.2 77.6 L 141.0 72.4 L 144.7 67.4 L 148.3 62.5 L 151.7 57.6 L 157.9 48.0 L 160.7 43.3 L 162.80165662765503 39.50085153579712 L 162.8 39.5 L 162.81466665267945 39.47733335494995 L 163.3 38.6 L 163.35857257843017 38.63675146102905 L 163.9 37.8 Z M 50.0 70.2 L 48.4 67.1 L 46.6 64.0 L 44.5 60.9 L 42.0 57.8 L 39.3 54.7 L 36.3 51.6 L 33.0 48.3 L 29.4 45.2 L 30.3 43.7 L 34.8 45.7 L 39.1 47.7 L 43.1 50.1 L 46.9 52.6 L 50.3 55.4 L 53.5 58.3 L 56.4 61.4 L 59.0 64.8 L 61.4 68.3 L 63.4 71.9 L 63.3 76.5 L 60.1 79.7 L 55.5 79.6 L 52.3 76.4 L 51.3 73.3 Z M 100.2 64.8 L 99.3 62.2 L 98.1 59.5 L 96.7 56.8 L 94.9 54.0 L 92.9 51.2 L 90.7 48.2 L 88.2 45.1 L 85.2 42.3 L 86.3 40.8 L 89.9 42.9 L 93.6 44.9 L 96.9 47.1 L 99.9 49.5 L 102.7 51.9 L 105.3 54.6 L 107.6 57.3 L 109.6 60.2 L 111.4 63.2 L 112.9 66.4 L 112.3 70.9 L 108.8 73.8 L 104.3 73.3 L 101.3 69.8 L 100.9 67.3 Z M 164.76035900115966 13.748440265655518 L 174.8 22.1 L 175.0 25.1 L 170.8288311958313 23.133591842651366 L 167.5 24.0 L 155.9 26.6 L 143.5 28.9 L 130.4 31.0 L 116.6 32.9 L 102.0 34.5 L 86.7 35.8 L 70.6 36.9 L 53.8 37.6 L 36.3 37.9 L 18.0 37.8 L 17.9 36.1 L 36.1 34.1 L 53.4 32.2 L 70.0 30.3 L 85.9 28.3 L 100.9 26.1 L 115.2 23.7 L 128.7 21.1 L 141.4 18.4 L 153.3 15.5 L 164.4 12.4 Z " />
</g>
</svg>
