<svg xmlns="http://www.w3.org/2000/svg" xmlns:xlink="http://www.w3.org/1999/xlink" version="1.1" baseProfile="full" viewBox="0 0 200 200" width="200" height="200">
<g fill="black">
<path d="M 147.4 176.2 L 160.6 176.2 L 161.5 176.0 L 162.1 175.8 L 162.4 175.6 L 162.6 175.5 L 162.8 175.3 L 163.1 174.4 L 163.3 173.5 L 163.4 172.2 L 163.4 151.7 L 121.5 151.7 L 121.5 183.2 L 109.5 189.2 L 109.5 90.5 L 121.5 96.5 L 163.4 96.5 L 169.4 91.5 L 180.4 100.5 L 175.4 104.5 L 175.4 172.2 L 175.2 174.8 L 174.8 177.3 L 174.0 179.7 L 172.8 181.9 L 171.1 184.0 L 169.1 185.6 L 166.8 186.8 L 164.4 187.6 L 161.9 188.1 L 159.4 188.2 L 159.4 182.2 L 147.4 179.2 Z M 76.0 168.0 L 79.0 168.0 L 79.0 148.0 L 91.0 148.0 L 91.0 172.0 L 76.0 172.0 Z M 71.0 172.0 L 61.0 172.0 L 61.0 168.0 L 71.0 168.0 Z M 57.0 172.0 L 47.0 172.0 L 47.0 168.0 L 57.0 168.0 Z M 13.0 148.0 L 25.0 148.0 L 25.0 168.0 L 29.0 168.0 L 29.0 172.0 L 13.0 172.0 Z M 43.0 172.0 L 33.0 172.0 L 33.0 168.0 L 43.0 168.0 Z M 121.5 126.1 L 121.5 147.7 L 163.4 147.7 L 163.4 126.1 Z M 25.0 142.0 L 13.0 142.0 L 13.0 118.0 L 25.0 118.0 Z M 91.0 142.0 L 79.0 142.0 L 79.0 118.0 L 91.0 118.0 Z M 121.5 100.5 L 121.5 122.1 L 163.4 122.1 L 163.4 100.5 Z M 91.0 112.0 L 79.0 112.0 L 79.0 88.0 L 91.0 88.0 Z M 25.0 112.0 L 13.0 112.0 L 13.0 88.0 L 25.0 88.0 Z M 188.6 28.3 L 183.6 32.3 L 183.6 80.0 L 171.6 86.0 L 171.6 78.0 L 111.6 78.0 L 111.6 81.0 L 101.6 86.0 L 101.6 19.3 L 111.6 24.3 L 171.6 24.3 L 177.6 19.3 Z M 90.5 82.0 L 79.5 82.0 L 79.5 58.0 L 90.5 58.0 Z M 25.0 82.0 L 13.0 82.0 L 13.0 58.0 L 25.0 58.0 Z M 111.6 28.3 L 111.6 48.6 L 149.5 48.6 L 159.5 38.6 L 171.5 48.6 L 171.5 52.6 L 111.6 52.6 L 111.6 74.0 L 171.6 74.0 L 171.6 28.3 Z M 29.0 32.0 L 25.0 32.0 L 25.0 52.0 L 13.0 52.0 L 13.0 28.0 L 29.0 28.0 Z M 90.5 52.0 L 79.5 52.0 L 79.5 32.0 L 76.0 32.0 L 76.0 28.0 L 90.5 28.0 Z M 71.0 32.0 L 61.0 32.0 L 61.0 28.0 L 71.0 28.0 Z M 57.0 32.0 L 47.0 32.0 L 47.0 28.0 L 57.0 28.0 Z M 43.0 32.0 L 33.0 32.0 L 33.0 28.0 L 43.0 28.0 Z " />
</g>
</svg>
