<svg xmlns="http://www.w3.org/2000/svg" xmlns:xlink="http://www.w3.org/1999/xlink" version="1.1" baseProfile="full" viewBox="0 0 200 200" width="200" height="200">
<g fill="black">
<path d="M 92.8 109.4 L 95.6 111.7 L 92.09611587524414 113.2866644859314 L 90.5 122.1 L 87.0 133.9 L 82.3 144.7 L 76.4 154.4 L 69.4 163.0 L 61.2 170.4 L 52.0 176.7 L 41.7 181.8 L 30.4 185.6 L 18.2 188.1 L 17.7 186.4 L 29.2 182.0 L 39.4 176.9 L 48.4 171.2 L 56.3 164.7 L 63.0 157.4 L 68.6 149.3 L 73.2 140.4 L 76.8 130.5 L 79.3 119.8 L 80.88896551132203 108.18068962097168 L 81.1 106.0 Z M 180.0 146.7 L 182.0 146.7 L 180.0 171.7 L 183.6 174.1 L 186.0 177.7 L 183.6 181.3 L 180.0 183.7 L 127.0 183.7 L 124.4 183.6 L 121.9 183.1 L 119.5 182.3 L 117.2 181.1 L 115.2 179.4 L 113.6 177.4 L 112.3 175.2 L 111.5 172.7 L 111.1 170.3 L 111.0 167.7 L 111.0 105.7 L 123.0 107.7 L 126.0 109.7 L 123.0 111.5 L 123.0 168.9 L 123.2 169.8 L 123.4 170.4 L 123.5 170.8 L 123.7 170.9 L 123.9 171.1 L 124.2 171.3 L 124.8 171.5 L 125.7 171.6 L 127.0 171.7 L 174.0 171.7 Z M 51.2 114.8 L 39.2 120.8 L 39.2 19.6 L 51.2 25.6 L 147.8 25.6 L 153.8 20.6 L 164.8 29.6 L 159.8 33.6 L 159.8 108.8 L 147.8 114.8 L 147.8 102.8 L 51.2 102.8 Z M 51.2 66.2 L 51.2 98.8 L 93.5 98.8 L 93.5 66.2 Z M 105.5 66.2 L 105.5 98.8 L 147.8 98.8 L 147.8 66.2 Z M 51.2 29.6 L 51.2 62.2 L 93.5 62.2 L 93.5 29.6 Z M 105.5 29.6 L 105.5 62.2 L 147.8 62.2 L 147.8 29.6 Z " />
</g>
</svg>
