<svg xmlns="http://www.w3.org/2000/svg" xmlns:xlink="http://www.w3.org/1999/xlink" version="1.1" baseProfile="full" viewBox="0 0 200 200" width="200" height="200">
<g fill="black">
<path d="M 162.4 183.0 L 158.1 180.7 L 153.1 178.5 L 147.6 176.2 L 141.4 173.9 L 134.6 171.7 L 127.3 169.5 L 119.3 167.1 L 110.8 164.6 L 111.1 162.8 L 120.0 163.4 L 128.4 164.2 L 136.1 165.3 L 143.4 166.6 L 150.1 168.1 L 156.3 169.7 L 161.9 171.5 L 167.1 173.4 L 171.8 175.5 L 175.9 177.8 L 178.3 181.7 L 177.4 186.2 L 173.5 188.6 L 169.0 187.6 L 166.1 185.3 Z M 79.92765960693359 161.9276596069336 L 86.1 168.1 L 86.3 171.4 L 82.63586816787719 169.90950574874878 L 79.3 171.4 L 74.2 173.4 L 68.6 175.5 L 62.5 177.4 L 55.9 179.4 L 48.8 181.3 L 41.2 183.1 L 33.0 184.9 L 24.4 186.4 L 15.2 187.8 L 14.7 186.1 L 23.4 182.8 L 31.6 179.7 L 39.3 176.8 L 46.4 174.0 L 53.1 171.4 L 59.2 168.7 L 64.8 166.2 L 69.8 163.6 L 74.3 161.2 L 77.3255446434021 159.338126373291 L 77.3 159.3 L 77.33333330154419 159.3333333015442 L 78.2 158.8 Z M 56.0 137.2 L 56.0 151.5 L 144.0 151.5 L 144.0 137.2 Z M 56.0 118.8 L 56.0 133.2 L 144.0 133.2 L 144.0 118.8 Z M 56.0 100.4 L 56.0 114.8 L 144.0 114.8 L 144.0 100.4 Z M 156.0 94.4 L 151.99534883499146 93.03255815505982 L 161.0 100.4 L 156.0 104.4 L 156.0 155.5 L 144.0 161.5 L 144.0 155.5 L 56.0 155.5 L 56.0 158.5 L 44.0 164.5 L 44.0 93.6944444656372 L 38.5 95.1 L 29.0 96.8 L 19.1 98.1 L 18.8 96.3 L 28.1 93.1 L 36.9 89.9 L 45.4 86.6 L 53.4 83.0 L 60.9 79.3 L 68.0 75.4 L 74.7 71.2 L 80.9 66.7 L 84.61739130020142 63.7 L 56.0 63.7 L 56.0 66.7 L 44.0 72.7 L 44.0 33.1 L 56.0 39.1 L 94.0 39.1 L 94.0 30.0 L 18.0 30.0 L 18.0 26.0 L 94.0 26.0 L 94.0 12.0 L 106.0 14.0 L 109.0 16.0 L 106.0 17.8 L 106.0 26.0 L 165.8181818008423 26.0 L 174.0 17.0 L 184.0 26.0 L 184.0 30.0 L 106.0 30.0 L 106.0 39.1 L 145.0 39.1 L 151.0 34.1 L 162.0 43.1 L 157.0 47.1 L 157.0 65.7 L 145.0 71.7 L 145.0 63.7 L 108.25161294937134 63.7 L 111.8 65.7 L 117.5 68.6 L 123.5 71.5 L 129.8 74.2 L 136.5 76.7 L 143.5 79.0 L 151.0 81.1 L 159.0 82.9 L 167.3 84.6 L 176.1 86.0 L 185.6 87.8 L 173.8 99.0 L 164.6 96.8 Z M 106.0 89.5 L 94.0 95.5 L 94.0 70.76666669845581 L 93.7 71.0 L 87.0 75.6 L 79.9 79.8 L 72.4 83.6 L 64.5 87.0 L 56.2 90.1 L 48.3021276473999 92.55106382369995 L 56.0 96.4 L 144.0 96.4 L 149.19031143188477 92.0747405052185 L 147.8 91.6 L 140.0 88.6 L 132.8 85.3 L 126.1 81.7 L 119.9 77.8 L 114.3 73.6 L 109.3 69.0 L 106.0 64.99285717010498 Z M 56.0 43.1 L 56.0 59.7 L 94.0 59.7 L 94.0 43.1 Z M 106.0 43.1 L 106.0 59.7 L 145.0 59.7 L 145.0 43.1 Z " />
</g>
</svg>
