<svg xmlns="http://www.w3.org/2000/svg" xmlns:xlink="http://www.w3.org/1999/xlink" version="1.1" baseProfile="full" viewBox="0 0 200 200" width="200" height="200">
<g fill="black">
<path d="M 157.3 169.1 L 148.7 163.2 L 140.6 156.9 L 133.0 150.2 L 126.1 143.2 L 119.7 135.8 L 113.9 128.0 L 108.9 119.9 L 106.0 113.9619047164917 L 106.0 183.0 L 94.0 189.0 L 94.0 122.42307691574096 L 87.9 130.4 L 80.7 138.5 L 72.9 146.1 L 64.4 153.2 L 55.3 159.8 L 45.6 165.9 L 35.1 171.5 L 24.1 176.5 L 12.3 180.8 L 11.6 179.1 L 22.4 173.0 L 32.5 166.8 L 42.0 160.4 L 50.8 153.7 L 59.0 146.7 L 66.4 139.4 L 73.2 131.8 L 79.4 123.9 L 84.9 115.6 L 86.89285717010497 112.0 L 16.0 112.0 L 16.0 108.0 L 94.0 108.0 L 94.0 44.0 L 28.0 44.0 L 28.0 40.0 L 94.0 40.0 L 94.0 12.0 L 106.0 14.0 L 109.0 16.0 L 106.0 17.8 L 106.0 40.0 L 150.0 40.0 L 160.0 30.0 L 172.0 40.0 L 172.0 44.0 L 106.0 44.0 L 106.0 108.0 L 162.0 108.0 L 172.0 98.0 L 184.0 108.0 L 184.0 112.0 L 107.6402777671814 112.0 L 112.3 117.5 L 118.5 124.3 L 125.0 130.9 L 131.9 137.2 L 139.1 143.1 L 146.8 148.7 L 154.8 154.0 L 163.4 159.0 L 172.3 163.6 L 181.8 168.0 L 187.5 170.7 L 176.1 179.9 L 166.5 174.7 Z M 75.3 89.3 L 73.7 87.2 L 71.8 85.1 L 69.6 82.9 L 67.1 80.7 L 64.3 78.4 L 61.2 76.0 L 57.9 73.5 L 56.660515022277835 72.74978542327881 L 56.5 73.0 L 52.7 78.3 L 48.4 83.5 L 43.5 88.7 L 38.1 93.8 L 32.1 98.8 L 25.6 103.6 L 24.3 102.3 L 29.5 96.1 L 34.2 90.1 L 38.5 84.4 L 42.4 78.9 L 45.7 73.5 L 48.5 68.3 L 50.9 63.2 L 52.7 58.3 L 54.0 53.5 L 54.70831165313721 49.801038932800296 L 54.7 49.8 L 54.78000001907348 49.42666664123535 L 54.9 48.8 L 54.91366529464722 48.80289516448975 L 55.3 47.0 L 66.7 51.3 L 69.2 53.8 L 65.43358345031739 55.1696060180664 L 64.9 56.8 L 62.7 62.3 L 59.9 67.7 L 58.05067987442017 70.582763671875 L 59.1 70.9 L 63.2 72.1 L 67.1 73.4 L 70.7 74.9 L 74.1 76.5 L 77.2 78.2 L 80.1 80.1 L 82.7 82.0 L 85.2 84.1 L 87.4 86.4 L 88.3 90.9 L 85.8 94.7 L 81.3 95.6 L 77.5 93.2 L 76.5 91.3 Z M 160.3 89.3 L 158.7 87.2 L 156.8 85.1 L 154.6 82.9 L 152.1 80.7 L 149.3 78.4 L 146.2 76.0 L 142.9 73.5 L 141.66051502227782 72.74978542327881 L 141.5 73.0 L 137.7 78.3 L 133.4 83.5 L 128.5 88.7 L 123.1 93.8 L 117.1 98.8 L 110.6 103.6 L 109.3 102.3 L 114.5 96.1 L 119.2 90.1 L 123.5 84.4 L 127.4 78.9 L 130.7 73.5 L 133.5 68.3 L 135.9 63.2 L 137.7 58.3 L 139.0 53.5 L 139.7083116531372 49.801038932800296 L 139.7 49.8 L 139.7800000190735 49.42666664123535 L 139.9 48.8 L 139.91366529464722 48.80289516448975 L 140.3 47.0 L 151.7 51.3 L 154.2 53.8 L 150.43358345031737 55.1696060180664 L 149.9 56.8 L 147.7 62.3 L 144.9 67.7 L 143.05067987442015 70.582763671875 L 144.1 70.9 L 148.2 72.1 L 152.1 73.4 L 155.7 74.9 L 159.1 76.5 L 162.2 78.2 L 165.1 80.1 L 167.7 82.0 L 170.2 84.1 L 172.4 86.4 L 173.3 90.9 L 170.8 94.7 L 166.3 95.6 L 162.5 93.2 L 161.5 91.3 Z " />
</g>
</svg>
