<svg xmlns="http://www.w3.org/2000/svg" xmlns:xlink="http://www.w3.org/1999/xlink" version="1.1" baseProfile="full" viewBox="0 0 200 200" width="200" height="200">
<g fill="black">
<path d="M 53.0 183.0 L 41.0 189.0 L 41.0 125.36666669845582 L 37.6 129.1 L 32.5 134.5 L 27.1 139.8 L 21.5 144.8 L 15.6 149.6 L 14.3 148.3 L 18.7 142.2 L 27.5 130.2 L 31.8 124.3 L 36.0 118.3 L 40.1 112.3 L 44.1 106.2 L 47.9 100.1 L 51.7 93.9 L 55.3 87.6 L 55.35857257843018 87.63675146102905 L 55.9 86.8 L 65.5 94.0 L 67.0 97.3 L 63.2197151184082 97.23482265472413 L 61.2 100.1 L 56.8 106.1 L 52.979660987854004 111.0 L 104.36363639831544 111.0 L 105.1 110.1 L 106.5 107.6 L 107.9 105.2 L 109.4 102.9 L 110.8 100.6 L 112.3 98.3 L 115.1 93.9 L 116.5 91.8 L 117.3129415512085 90.48678665161133 L 117.2 90.4 L 117.72238807678222 89.82537317276001 L 117.8 89.7 L 117.82001123428344 89.71798763275146 L 118.2 89.3 L 126.7 97.7 L 127.6 101.2 L 123.35017671585084 100.3798586845398 L 122.7 100.9 L 120.6 102.5 L 114.0 107.3 L 111.7 108.8 L 109.3 110.4 L 108.22857141494751 111.0 L 152.0 111.0 L 162.0 101.0 L 174.0 111.0 L 174.0 115.0 L 111.0 115.0 L 111.0 131.0 L 149.8181818008423 131.0 L 158.0 122.0 L 168.0 131.0 L 168.0 135.0 L 111.0 135.0 L 111.0 152.0 L 149.8181818008423 152.0 L 158.0 143.0 L 168.0 152.0 L 168.0 156.0 L 111.0 156.0 L 111.0 172.0 L 162.0 172.0 L 172.0 162.0 L 184.0 172.0 L 184.0 176.0 L 53.0 176.0 Z M 53.0 156.0 L 53.0 172.0 L 99.0 172.0 L 99.0 156.0 Z M 53.0 135.0 L 53.0 152.0 L 99.0 152.0 L 99.0 135.0 Z M 53.0 115.0 L 53.0 131.0 L 99.0 131.0 L 99.0 115.0 Z M 50.0 86.9 L 38.0 92.9 L 38.0 48.0 L 50.0 54.0 L 150.0 54.0 L 156.0 49.0 L 167.0 58.0 L 162.0 62.0 L 162.0 87.9 L 150.0 93.9 L 150.0 83.9 L 50.0 83.9 Z M 50.0 58.0 L 50.0 79.9 L 94.0 79.9 L 94.0 58.0 Z M 106.0 58.0 L 106.0 79.9 L 150.0 79.9 L 150.0 58.0 Z M 147.3 18.3 L 148.5 21.6 L 144.38387098312378 21.31612901687622 L 142.4 23.3 L 139.8 25.8 L 137.0 28.3 L 134.1 30.6 L 131.1 33.0 L 127.9 35.2 L 124.6 37.4 L 121.85714282989503 39.0 L 161.0 39.0 L 171.0 29.0 L 183.0 39.0 L 183.0 43.0 L 17.0 43.0 L 17.0 39.0 L 117.53225803375244 39.0 L 119.1 37.2 L 121.6 34.1 L 124.0 31.0 L 126.3 28.1 L 128.5 25.2 L 130.5 22.3 L 132.5 19.5 L 134.3 16.7 L 136.0 14.0 L 137.01685390472412 12.169662952423096 L 136.9 12.1 L 138.0 10.6 Z M 67.2 32.6 L 66.3 30.8 L 65.2 29.0 L 63.8 27.0 L 62.1 24.8 L 60.3 22.6 L 58.2 20.2 L 56.0 17.6 L 53.3 15.3 L 54.3 13.8 L 57.4 15.6 L 60.6 17.0 L 63.5 18.5 L 66.3 19.9 L 68.8 21.4 L 71.1 22.9 L 73.2 24.5 L 75.2 26.0 L 76.9 27.6 L 78.6 29.3 L 79.2 33.8 L 76.5 37.5 L 72.0 38.1 L 68.3 35.5 L 67.9 34.1 Z " />
</g>
</svg>
