<svg xmlns="http://www.w3.org/2000/svg" xmlns:xlink="http://www.w3.org/1999/xlink" version="1.1" baseProfile="full" viewBox="0 0 200 200" width="200" height="200">
<g fill="black">
<path d="M 161.2 127.1 L 161.9 130.6 L 158.33942213058472 129.77343730926515 L 150.5 137.1 L 139.5 146.2 L 127.9 154.5 L 116.0 161.9 L 103.6 168.5 L 90.7 174.3 L 77.5 179.1 L 63.8 183.1 L 49.8 186.1 L 35.3 188.1 L 35.0 186.3 L 48.9 182.4 L 62.3 178.0 L 75.2 173.0 L 87.6 167.3 L 99.6 161.0 L 111.1 154.0 L 122.1 146.3 L 132.7 137.8 L 142.8 128.7 L 151.8078906059265 119.50637969970703 L 151.8 119.5 L 152.8 118.5 Z M 136.0 106.2 L 136.8 109.7 L 133.1018424987793 108.92144050598145 L 127.8 113.9 L 119.3 121.1 L 110.5 127.7 L 101.4 133.7 L 92.0 139.1 L 82.4 144.0 L 72.4 148.2 L 62.1 151.8 L 51.6 154.6 L 40.8 156.7 L 40.3 155.0 L 50.4 151.0 L 60.2 146.8 L 69.7 142.2 L 78.9 137.2 L 87.7 131.8 L 96.3 126.0 L 104.5 119.7 L 112.4 112.9 L 120.0 105.6 L 127.3 97.9 L 127.31460552215576 97.91393394470215 L 127.6 97.6 Z M 112.8 84.0 L 113.7 87.5 L 109.9470588684082 86.85294113159179 L 106.8 90.0 L 100.5 95.6 L 94.0 100.9 L 87.2 105.8 L 80.1 110.3 L 72.8 114.4 L 65.2 118.2 L 57.4 121.5 L 49.3 124.3 L 40.9 126.6 L 40.2 124.9 L 47.8 120.8 L 55.1 116.6 L 62.1 112.4 L 68.9 107.9 L 75.4 103.2 L 81.6 98.3 L 87.5 93.1 L 93.2 87.7 L 98.6 82.0 L 103.15020599365235 76.83726625442505 L 103.1 76.8 L 104.2 75.7 Z M 161.2 102.2 L 153.8 96.5 L 146.8 90.6 L 140.0 84.4 L 133.6 77.8 L 127.5 70.9 L 121.8 63.7 L 116.5 56.1 L 112.21125001907349 48.8 L 91.06574077606201 48.8 L 89.2 51.9 L 81.6 62.2 L 73.1 72.0 L 63.4 81.5 L 52.8 90.4 L 41.1 98.9 L 28.3 106.8 L 14.4 114.2 L 13.5 112.6 L 26.2 103.6 L 37.9 94.6 L 48.5 85.4 L 58.1 76.0 L 66.7 66.4 L 74.2 56.6 L 79.21980199813842 48.8 L 18.0 48.8 L 18.0 44.8 L 81.6 44.8 L 86.1 36.3 L 90.5 25.7 L 93.6131344795227 15.902782726287843 L 93.6 15.9 L 94.4 13.4 L 105.4 18.4 L 107.7 21.1 L 104.03525896072388 22.081627082824706 L 101.1 30.0 L 95.7 41.1 L 93.4731481552124 44.8 L 160.0 44.8 L 170.0 34.8 L 182.0 44.8 L 182.0 48.8 L 115.0265625 48.8 L 119.8 53.5 L 126.2 59.8 L 132.7 65.9 L 139.4 71.8 L 146.2 77.3 L 153.2 82.6 L 160.4 87.6 L 167.7 92.4 L 175.3 96.8 L 183.2 101.0 L 188.0 103.6 L 176.7 112.5 L 168.8 107.5 Z " />
</g>
</svg>
