<svg xmlns="http://www.w3.org/2000/svg" xmlns:xlink="http://www.w3.org/1999/xlink" version="1.1" baseProfile="full" viewBox="0 0 200 200" width="200" height="200">
<g fill="black">
<path d="M 150.0 185.0 L 150.0 181.0 L 164.0 181.0 L 164.0 168.0 L 176.0 168.0 L 176.0 185.0 Z M 140.0 185.0 L 120.0 185.0 L 120.0 181.0 L 140.0 181.0 Z M 110.0 185.0 L 90.0 185.0 L 90.0 181.0 L 110.0 181.0 Z M 80.0 185.0 L 60.0 185.0 L 60.0 181.0 L 80.0 181.0 Z M 24.0 168.0 L 36.0 168.0 L 36.0 181.0 L 50.0 181.0 L 50.0 185.0 L 24.0 185.0 Z M 176.0 166.0 L 164.0 166.0 L 164.0 149.0 L 176.0 149.0 Z M 36.0 166.0 L 24.0 166.0 L 24.0 149.0 L 36.0 149.0 Z M 176.0 147.0 L 164.0 147.0 L 164.0 130.0 L 176.0 130.0 Z M 36.0 147.0 L 24.0 147.0 L 24.0 130.0 L 36.0 130.0 Z M 176.0 128.0 L 164.0 128.0 L 164.0 111.0 L 176.0 111.0 Z M 36.0 128.0 L 24.0 128.0 L 24.0 111.0 L 36.0 111.0 Z M 50.0 96.0 L 36.0 96.0 L 36.0 108.0 L 24.0 108.0 L 24.0 92.0 L 50.0 92.0 Z M 164.0 108.0 L 164.0 96.0 L 150.0 96.0 L 150.0 92.0 L 176.0 92.0 L 176.0 108.0 Z M 80.0 96.0 L 60.0 96.0 L 60.0 92.0 L 80.0 92.0 Z M 110.0 96.0 L 90.0 96.0 L 90.0 92.0 L 110.0 92.0 Z M 140.0 96.0 L 120.0 96.0 L 120.0 92.0 L 140.0 92.0 Z M 17.0 74.9 L 23.3 74.1 L 30.2 73.2 L 32.0 72.96000003814697 L 32.0 28.0 L 44.0 30.0 L 47.0 32.0 L 44.0 33.8 L 44.0 71.27804880142212 L 45.9 71.0 L 54.6 69.7 L 60.0 68.8957447052002 L 60.0 14.0 L 72.0 16.0 L 75.0 18.0 L 72.0 19.8 L 72.0 39.0 L 84.81818180084228 39.0 L 93.0 30.0 L 103.0 39.0 L 103.0 43.0 L 72.0 43.0 L 72.0 67.1 L 74.0 66.8 L 84.6 65.2 L 95.9 63.6 L 107.8 62.1 L 108.1 63.8 L 96.6 67.3 L 85.7 70.4 L 75.3 73.2 L 65.5 75.8 L 56.3 78.1 L 47.6 80.2 L 39.6 82.1 L 32.1 83.8 L 25.2 85.4 L 22.902707004547118 85.87404460906983 L 21.3 89.4 L 18.9 86.7 L 15.0 75.2 Z M 180.0 60.0 L 182.0 60.0 L 180.0 69.0 L 182.4 70.6 L 184.0 73.0 L 182.4 75.4 L 180.0 77.0 L 126.6 77.0 L 124.3 76.8 L 122.0 76.3 L 119.9 75.3 L 117.9 74.0 L 116.2 72.2 L 114.9 70.2 L 113.9 67.9 L 113.3 65.5 L 113.0 63.0 L 113.0 14.0 L 125.0 16.0 L 128.0 18.0 L 125.0 19.8 L 125.0 45.236666679382324 L 126.7 44.5 L 132.5 42.1 L 138.0 39.8 L 143.3 37.5 L 148.3 35.3 L 153.0 33.1 L 157.5 30.9 L 161.7 28.7 L 165.6 26.4 L 168.32376823425292 24.73547496795654 L 168.3 24.7 L 168.33125247955323 24.73090124130249 L 169.2 24.2 L 170.8917236328125 27.262603187561034 L 177.2 33.5 L 177.3 36.8 L 173.62791452407836 35.30627031326294 L 170.7 36.6 L 166.2 38.4 L 161.4 40.1 L 156.4 41.8 L 151.2 43.3 L 145.7 44.7 L 140.0 46.1 L 134.0 47.2 L 127.7 48.2 L 125.0 48.44923076629639 L 125.0 63.0 L 124.8 64.2 L 124.8 65.9 L 124.9 66.5 L 125.0 66.9 L 125.2 67.4 L 125.7 67.8 L 126.4 68.3 L 127.5 68.7 L 129.0 69.0 L 176.0 69.0 Z " />
</g>
</svg>
