<svg xmlns="http://www.w3.org/2000/svg" xmlns:xlink="http://www.w3.org/1999/xlink" version="1.1" baseProfile="full" viewBox="0 0 200 200" width="200" height="200">
<g fill="black">
<path d="M 40.0 45.0 L 122.65 45.0 L 125.4 41.7 L 128.3 38.1 L 131.3 34.6 L 134.1 31.3 L 136.9 27.9 L 139.7 24.7 L 142.3 21.4 L 144.9 18.2 L 147.4 14.9 L 149.20038013458253 12.574508953094483 L 149.1 12.5 L 150.2 11.3 L 158.8 19.7 L 159.7 23.1 L 155.96129035949707 22.44408597946167 L 155.8 22.6 L 152.6 25.4 L 149.4 28.3 L 146.1 31.1 L 142.6 33.8 L 139.1 36.6 L 135.4 39.2 L 131.6 41.8 L 127.6 44.2 L 126.23333330154419 45.0 L 165.0 45.0 L 175.0 35.0 L 187.0 45.0 L 187.0 49.0 L 40.0 49.0 L 40.0 97.0 L 39.4 110.0 L 38.4 122.2 L 37.0 133.6 L 35.0 144.2 L 32.6 153.9 L 29.7 162.9 L 26.2 171.0 L 22.3 178.2 L 17.7 184.4 L 12.6 189.5 L 11.3 188.4 L 14.5 182.3 L 17.5 175.7 L 20.1 168.5 L 22.4 160.6 L 24.3 152.0 L 25.9 142.5 L 27.0 132.3 L 27.7 121.3 L 28.0 109.5 L 28.0 39.0 Z M 85.1 149.7 L 147.8 149.7 L 153.8 144.7 L 164.8 153.7 L 159.8 157.7 L 159.8 180.4 L 147.8 186.4 L 147.8 178.4 L 85.1 178.4 L 85.1 181.4 L 73.1 187.4 L 73.1 143.7 Z M 85.1 153.7 L 85.1 174.4 L 147.8 174.4 L 147.8 153.7 Z M 161.1 134.2 L 161.1 138.2 L 72.9 138.2 L 72.9 134.2 L 142.9181818008423 134.2 L 151.1 125.2 Z M 161.1 117.3 L 161.1 121.3 L 72.9 121.3 L 72.9 117.3 L 142.9181818008423 117.3 L 151.1 108.3 Z M 185.8 99.9 L 185.8 103.9 L 47.2 103.9 L 47.2 99.9 L 163.8 99.9 L 173.8 89.9 Z M 115.1 93.3 L 114.2 92.0 L 113.0 90.5 L 111.5 89.0 L 109.7 87.4 L 107.5 85.8 L 105.1 84.1 L 102.4 82.3 L 99.2 81.0 L 99.7 79.3 L 103.1 80.1 L 106.5 80.5 L 109.6 81.1 L 112.5 81.8 L 115.2 82.6 L 117.7 83.6 L 120.0 84.7 L 122.2 85.9 L 124.2 87.4 L 126.0 89.2 L 126.7 93.7 L 124.1 97.4 L 119.6 98.2 L 115.8 95.6 L 115.6 94.5 Z M 98.6 59.8 L 99.4 63.3 L 95.6 62.5 L 94.6 63.4 L 90.4 66.9 L 85.8 70.3 L 81.0 73.6 L 76.0 76.8 L 70.7 79.9 L 65.1 82.9 L 59.2 85.8 L 52.9 88.4 L 46.4 90.7 L 45.5 89.2 L 51.1 85.1 L 56.5 81.1 L 61.6 77.4 L 66.5 73.6 L 71.1 69.9 L 75.4 66.2 L 79.5 62.6 L 83.2 58.9 L 86.7 55.2 L 89.20479755401611 52.30382785797119 L 89.2 52.3 L 89.36666669845582 52.11666669845581 L 89.9 51.5 L 89.91460552215577 51.513933944702146 L 90.2 51.2 Z M 161.1 80.3 L 158.3 77.3 L 155.1 74.3 L 151.4 71.2 L 147.3 68.2 L 142.7 65.1 L 137.7 61.9 L 132.3 58.6 L 126.6 55.2 L 127.2 53.5 L 133.8 55.1 L 140.0 57.1 L 145.8 59.2 L 151.1 61.6 L 156.1 64.1 L 160.6 66.8 L 164.8 69.6 L 168.6 72.6 L 172.0 75.7 L 175.1 79.0 L 176.1 83.5 L 173.7 87.4 L 169.2 88.4 L 165.3 86.0 L 163.4 83.2 Z M 76.7 36.7 L 75.0 34.0 L 72.9 31.4 L 70.4 28.8 L 67.6 26.2 L 64.4 23.7 L 60.8 21.1 L 56.9 18.5 L 52.6 16.1 L 53.2 14.4 L 58.1 15.6 L 62.9 16.9 L 67.3 18.5 L 71.4 20.3 L 75.3 22.4 L 78.8 24.7 L 82.1 27.3 L 85.0 30.2 L 87.7 33.2 L 90.0 36.6 L 90.2 41.1 L 87.3 44.6 L 82.7 44.9 L 79.2 42.0 L 78.1 39.3 Z " />
</g>
</svg>
