<svg xmlns="http://www.w3.org/2000/svg" xmlns:xlink="http://www.w3.org/1999/xlink" version="1.1" baseProfile="full" viewBox="0 0 200 200" width="200" height="200">
<g fill="black">
<path d="M 156.2 182.3 L 147.2 178.8 L 138.7 174.7 L 130.7 169.9 L 123.4 164.6 L 116.7 158.7 L 110.6 152.2 L 105.3 145.1 L 101.20384616851807 138.0 L 100.87321424484253 138.0 L 96.9 146.9 L 90.0 156.8 L 81.2 165.4 L 70.8 172.6 L 58.6 178.4 L 44.7 182.9 L 29.2 186.1 L 12.1 187.8 L 11.8 186.1 L 28.5 182.3 L 43.2 177.8 L 55.9 172.4 L 66.7 166.1 L 75.7 159.0 L 82.7 151.1 L 88.0 142.3 L 89.59587631225585 138.0 L 16.0 138.0 L 16.0 134.0 L 91.0804123878479 134.0 L 91.6 132.6 L 93.6 121.9 L 93.98406372070312 110.47410354614257 L 93.9 107.7 L 106.0 109.9 L 109.0 111.8 L 105.67479162216186 113.86162919998169 L 104.9 123.3 L 102.31129035949706 134.0 L 162.0 134.0 L 172.0 124.0 L 184.0 134.0 L 184.0 138.0 L 104.02786884307861 138.0 L 108.5 142.4 L 114.8 148.0 L 121.3 153.2 L 128.2 157.8 L 135.5 161.9 L 143.1 165.4 L 151.2 168.5 L 159.6 171.0 L 168.6 173.0 L 178.0 174.4 L 187.7 176.0 L 175.9 187.5 L 165.8 185.2 Z M 138.1 124.2 L 137.1 122.8 L 135.9 121.2 L 134.3 119.6 L 132.5 117.9 L 130.4 116.2 L 128.1 114.4 L 125.6 112.6 L 122.6 111.1 L 123.2 109.4 L 126.4 110.3 L 129.7 110.8 L 132.7 111.5 L 135.5 112.3 L 138.2 113.3 L 140.7 114.3 L 143.1 115.5 L 145.2 116.9 L 147.3 118.4 L 149.1 120.1 L 150.1 124.5 L 147.7 128.4 L 143.2 129.3 L 139.3 126.9 L 138.8 125.6 Z M 39.8 116.9 L 27.8 122.9 L 27.8 54.1 L 39.8 60.1 L 160.1 60.1 L 166.1 55.1 L 177.1 64.1 L 172.1 68.1 L 172.1 110.9 L 160.1 116.9 L 160.1 104.9 L 39.8 104.9 Z M 39.8 64.1 L 39.8 100.9 L 71.6 100.9 L 71.6 64.1 Z M 83.6 64.1 L 83.6 100.9 L 116.3 100.9 L 116.3 64.1 Z M 128.3 64.1 L 128.3 100.9 L 160.1 100.9 L 160.1 64.1 Z M 152.2 19.9 L 153.5 23.3 L 149.57568807601928 22.96169729232788 L 146.2 26.9 L 143.0 30.4 L 139.7 33.8 L 136.3 37.2 L 132.8 40.5 L 129.2 43.8 L 125.4 47.1 L 121.4 50.1 L 117.3 53.1 L 116.0 51.9 L 118.8 47.6 L 121.6 43.5 L 124.4 39.5 L 127.2 35.6 L 129.9 31.8 L 132.6 27.9 L 135.2 24.1 L 137.7 20.4 L 140.2 16.6 L 141.9747374534607 13.7449875831604 L 141.9 13.7 L 143.0 12.2 Z M 70.1 41.1 L 68.4 38.1 L 66.3 35.1 L 63.9 32.2 L 61.1 29.3 L 58.0 26.4 L 54.5 23.5 L 50.8 20.5 L 46.6 17.7 L 47.3 16.1 L 52.3 17.6 L 57.0 19.3 L 61.4 21.4 L 65.5 23.6 L 69.2 26.1 L 72.7 28.9 L 75.9 31.9 L 78.8 35.1 L 81.4 38.5 L 83.6 42.2 L 83.7 46.7 L 80.6 50.1 L 76.0 50.2 L 72.7 47.1 L 71.5 44.0 Z " />
</g>
</svg>
