<svg xmlns="http://www.w3.org/2000/svg" xmlns:xlink="http://www.w3.org/1999/xlink" version="1.1" baseProfile="full" viewBox="0 0 200 200" width="200" height="200">
<g fill="black">
<path d="M 151.0 185.0 L 151.0 181.0 L 166.0 181.0 L 166.0 170.0 L 178.0 170.0 L 178.0 185.0 Z M 36.0 181.0 L 50.0 181.0 L 50.0 185.0 L 24.0 185.0 L 24.0 170.0 L 36.0 170.0 Z M 80.0 185.0 L 61.0 185.0 L 61.0 181.0 L 80.0 181.0 Z M 110.0 185.0 L 91.0 185.0 L 91.0 181.0 L 110.0 181.0 Z M 140.0 185.0 L 121.0 185.0 L 121.0 181.0 L 140.0 181.0 Z M 178.0 138.0 L 178.0 169.0 L 166.0 169.0 L 166.0 138.0 Z M 36.0 138.0 L 36.0 169.0 L 24.0 169.0 L 24.0 138.0 Z M 178.0 137.0 L 166.0 137.0 L 166.0 122.0 L 178.0 122.0 Z M 36.0 137.0 L 24.0 137.0 L 24.0 122.0 L 36.0 122.0 Z M 50.0 111.0 L 36.0 111.0 L 36.0 121.0 L 24.0 121.0 L 24.0 107.0 L 50.0 107.0 Z M 166.0 121.0 L 166.0 111.0 L 151.0 111.0 L 151.0 107.0 L 178.0 107.0 L 178.0 121.0 Z M 140.0 111.0 L 121.0 111.0 L 121.0 107.0 L 140.0 107.0 Z M 110.0 111.0 L 91.0 111.0 L 91.0 107.0 L 110.0 107.0 Z M 80.0 111.0 L 61.0 111.0 L 61.0 107.0 L 80.0 107.0 Z M 59.3 71.2 L 58.3 69.8 L 57.1 68.4 L 55.7 66.8 L 54.1 65.2 L 52.3 63.5 L 50.3 61.6 L 48.1 59.7 L 46.78321599960327 58.94031686782837 L 44.0 61.3 L 39.1 65.2 L 33.9 68.9 L 28.4 72.4 L 22.5 75.7 L 21.4 74.2 L 26.0 69.4 L 30.5 64.8 L 34.7 60.3 L 38.8 55.9 L 42.5 51.5 L 46.0 47.1 L 49.2 42.7 L 52.2 38.4 L 54.9 34.0 L 56.84181814193725 30.520909118652344 L 56.8 30.5 L 57.8 28.8 L 67.6 35.9 L 69.1 39.2 L 65.18000001907349 39.2 L 64.3 40.4 L 61.43636360168457 44.0 L 87.0 44.0 L 93.0 39.0 L 104.0 48.0 L 99.0 51.0 L 96.80530118942261 51.91445779800415 L 94.8 56.4 L 89.9 64.4 L 84.0 71.7 L 77.1 78.4 L 69.3 84.6 L 60.5 90.1 L 50.8 95.0 L 40.2 99.3 L 28.7 102.9 L 16.2 105.8 L 15.7 104.1 L 27.4 99.3 L 38.1 94.4 L 47.8 89.2 L 56.5 83.7 L 64.1 77.8 L 67.502942943573 74.65485582351684 L 64.6 75.6 L 60.5 73.6 L 60.0 72.5 Z M 121.5 87.9 L 119.1 87.6 L 116.8 86.9 L 114.6 85.8 L 112.6 84.3 L 110.9 82.5 L 109.6 80.3 L 108.7 78.0 L 108.2 75.5 L 108.0 73.0 L 108.0 30.0 L 120.0 32.0 L 123.0 34.0 L 120.0 35.8 L 120.0 54.2 L 125.3 51.5 L 130.5 49.1 L 135.5 46.9 L 140.3 44.8 L 145.0 42.7 L 149.6 40.8 L 153.9 39.0 L 158.1 37.2 L 161.2217257499695 35.95130968093872 L 161.2 35.9 L 161.24767618179322 35.94092950820923 L 162.1 35.6 L 162.60088109970093 37.102643203735354 L 171.8 45.0 L 172.1 48.1 L 167.99610223770142 46.289456844329834 L 165.9 47.0 L 161.7 48.0 L 157.3 49.2 L 152.8 50.3 L 148.0 51.5 L 143.1 52.8 L 137.9 54.1 L 132.6 55.4 L 127.1 56.6 L 121.3 57.8 L 120.0 58.01311473846435 L 120.0 73.0 L 119.9 74.2 L 120.0 75.1 L 120.1 75.8 L 120.3 76.6 L 120.5 76.9 L 120.9 77.2 L 121.6 77.5 L 122.6 77.8 L 124.0 78.0 L 170.0 78.0 L 175.0 61.0 L 177.0 61.0 L 175.0 78.0 L 178.0 80.0 L 180.0 83.0 L 178.0 86.0 L 175.0 88.0 L 124.0 88.0 Z M 57.97209300994873 48.0 L 57.0 49.1 L 53.0 53.3 L 48.6 57.4 L 48.576869869232176 57.41961030960083 L 49.1 57.6 L 52.0 58.3 L 54.7 59.0 L 57.3 59.8 L 59.7 60.7 L 61.9 61.6 L 64.0 62.5 L 65.9 63.5 L 67.8 64.6 L 69.5 65.7 L 70.9 70.1 L 69.64293403625489 72.67698516845704 L 70.7 71.7 L 76.3 65.2 L 80.9 58.5 L 84.5 51.4 L 85.78648653030396 48.0 Z M 182.0 23.0 L 182.0 27.0 L 20.0 27.0 L 20.0 23.0 L 160.0 23.0 L 170.0 13.0 Z " />
</g>
</svg>
