<svg xmlns="http://www.w3.org/2000/svg" xmlns:xlink="http://www.w3.org/1999/xlink" version="1.1" baseProfile="full" viewBox="0 0 200 200" width="200" height="200">
<g fill="black">
<path d="M 82.16561088562011 156.950678730011 L 85.0 160.1 L 85.2 163.6 L 81.64464282989502 162.113214302063 L 79.0 163.7 L 73.2 166.8 L 67.2 169.8 L 60.9 172.8 L 54.3 175.6 L 47.5 178.3 L 40.4 180.9 L 33.0 183.3 L 25.3 185.4 L 17.3 187.3 L 16.6 185.6 L 23.9 181.9 L 31.0 178.3 L 37.8 174.8 L 44.4 171.4 L 50.6 167.9 L 56.6 164.5 L 62.4 161.0 L 67.8 157.5 L 72.9 154.0 L 76.92211446762084 151.1270610809326 L 76.9 151.1 L 76.9234782218933 151.12608699798585 L 77.8 150.5 Z M 91.1 170.7 L 103.1 170.7 L 103.1 183.2 L 109.2 183.2 L 109.2 187.2 L 91.1 187.2 Z M 169.7 183.2 L 175.8 183.2 L 175.8 170.7 L 187.8 170.7 L 187.8 187.2 L 169.7 187.2 Z M 163.7 187.2 L 151.6 187.2 L 151.6 183.2 L 163.7 183.2 Z M 145.5 187.2 L 133.4 187.2 L 133.4 183.2 L 145.5 183.2 Z M 127.4 187.2 L 115.3 187.2 L 115.3 183.2 L 127.4 183.2 Z M 187.8 168.5 L 175.8 168.5 L 175.8 152.0 L 187.8 152.0 Z M 103.1 168.5 L 91.1 168.5 L 91.1 152.0 L 103.1 152.0 Z M 76.88894395828247 126.21692714691162 L 81.3 131.0 L 81.5 134.4 L 77.91758861541749 132.9286524772644 L 75.1 134.5 L 69.6 137.3 L 63.9 140.0 L 57.9 142.6 L 51.8 145.1 L 45.4 147.5 L 38.7 149.7 L 31.8 151.8 L 24.7 153.7 L 17.2 155.2 L 16.7 153.5 L 23.4 150.1 L 29.9 146.8 L 36.2 143.6 L 42.3 140.5 L 48.2 137.4 L 53.8 134.3 L 59.2 131.1 L 64.3 127.9 L 69.2 124.7 L 73.05649824142456 122.07429904937744 L 73.0 122.0 L 73.06388320922852 122.06927099227906 L 73.9 121.5 Z M 187.8 149.7 L 175.8 149.7 L 175.8 133.2 L 187.8 133.2 Z M 103.1 149.7 L 91.1 149.7 L 91.1 133.2 L 103.1 133.2 Z M 187.8 131.0 L 175.8 131.0 L 175.8 114.5 L 187.8 114.5 Z M 103.1 131.0 L 91.1 131.0 L 91.1 114.5 L 103.1 114.5 Z M 72.8 105.1 L 73.1 108.7 L 69.42202644348144 107.29568281173707 L 68.8 107.7 L 64.4 110.2 L 59.7 112.6 L 54.7 115.0 L 49.4 117.3 L 43.7 119.5 L 37.6 121.6 L 31.2 123.5 L 24.4 125.3 L 17.2 126.9 L 16.7 125.2 L 23.1 121.8 L 29.2 118.5 L 35.1 115.5 L 40.5 112.5 L 45.6 109.6 L 50.4 106.8 L 54.7 103.9 L 58.7 101.1 L 62.3 98.4 L 64.73885669708253 96.34221467971801 L 64.7 96.3 L 65.5 95.6 Z M 187.8 112.2 L 175.8 112.2 L 175.8 99.7 L 169.7 99.7 L 169.7 95.7 L 187.8 95.7 Z M 109.2 99.7 L 103.1 99.7 L 103.1 112.2 L 91.1 112.2 L 91.1 95.7 L 109.2 95.7 Z M 127.4 99.7 L 115.3 99.7 L 115.3 95.7 L 127.4 95.7 Z M 145.5 99.7 L 133.4 99.7 L 133.4 95.7 L 145.5 95.7 Z M 163.7 99.7 L 151.6 99.7 L 151.6 95.7 L 163.7 95.7 Z M 91.1 84.9 L 89.8 82.8 L 88.3 80.6 L 86.6 78.5 L 85.53304538726806 77.32073431015014 L 79.8 79.3 L 71.8 81.9 L 64.2 84.2 L 57.0 86.2 L 50.3 88.0 L 43.9 89.7 L 38.0 91.1 L 32.4 92.3 L 27.3 93.4 L 26.72229881286621 93.51062364578247 L 24.9 97.1 L 22.6 94.3 L 19.3 82.6 L 21.3 82.4 L 25.8 82.1 L 30.8 81.7 L 35.34528303146362 81.28679246902466 L 36.1 79.4 L 37.2 76.6 L 38.3 73.9 L 39.3 71.3 L 40.2 69.0 L 40.9 66.7 L 41.33333330154419 65.4 L 12.0 65.4 L 12.0 61.4 L 32.0 61.4 L 32.0 14.7 L 44.0 20.7 L 90.81818180084228 20.7 L 99.0 11.7 L 109.0 20.7 L 109.0 24.7 L 44.0 24.7 L 44.0 34.6 L 88.77777776718139 34.6 L 95.0 27.6 L 103.0 34.6 L 103.0 38.6 L 44.0 38.6 L 44.0 47.5 L 88.77777776718139 47.5 L 95.0 40.5 L 103.0 47.5 L 103.0 51.5 L 44.0 51.5 L 44.0 61.4 L 93.81818180084228 61.4 L 102.0 52.4 L 112.0 61.4 L 112.0 65.4 L 53.78000001907348 65.4 L 53.4 65.9 L 52.1 67.6 L 50.6 69.5 L 49.1 71.3 L 47.4 73.3 L 45.6 75.3 L 43.7 77.3 L 41.6 79.5 L 40.25157699584961 80.73116884231567 L 42.2 80.5 L 48.6 79.7 L 55.5 78.8 L 62.8 77.8 L 70.6 76.7 L 78.9 75.6 L 83.44609375 75.0833984375 L 82.7 74.3 L 80.5 72.1 L 78.2 69.9 L 75.5 68.1 L 76.2 66.5 L 79.4 67.6 L 82.6 68.6 L 85.7 69.8 L 88.6 71.2 L 91.4 72.7 L 94.1 74.4 L 96.6 76.2 L 99.0 78.2 L 101.3 80.4 L 103.3 82.7 L 104.1 87.2 L 101.6 91.0 L 97.1 91.7 L 93.3 89.2 L 92.3 87.1 Z M 186.35238094329833 66.25333337783813 L 187.8 67.9 L 187.9 71.5 L 184.30062713623047 69.96693382263183 L 182.4 71.1 L 176.6 74.0 L 170.2 76.7 L 163.3 79.2 L 155.9 81.6 L 147.9 83.8 L 139.4 85.8 L 130.2 87.5 L 120.5 89.0 L 110.1 90.2 L 109.8 88.4 L 119.6 85.3 L 128.9 82.3 L 137.6 79.4 L 145.6 76.5 L 153.1 73.6 L 159.9 70.6 L 166.1 67.5 L 171.6 64.5 L 176.4 61.3 L 180.6 58.2 Z M 176.68603458404542 42.78161430358887 L 178.9 45.3 L 179.0 48.9 L 175.37164239883424 47.354588413238524 L 173.9 48.2 L 168.9 50.8 L 163.4 53.3 L 157.6 55.8 L 151.4 58.1 L 144.8 60.3 L 137.8 62.5 L 130.4 64.4 L 122.5 66.2 L 114.2 67.7 L 113.7 66.0 L 121.4 62.6 L 128.7 59.4 L 135.5 56.3 L 142.0 53.3 L 148.1 50.3 L 153.7 47.4 L 158.9 44.4 L 163.6 41.5 L 167.9 38.6 L 170.95607767105102 36.26773023605347 L 170.9 36.2 L 170.95815162658693 36.266147422790525 L 171.7 35.7 Z M 172.7 22.1 L 172.8 25.7 L 169.32244024276733 24.19087028503418 L 168.5 24.7 L 163.9 27.2 L 158.9 29.7 L 153.6 32.2 L 147.9 34.7 L 141.8 37.1 L 135.3 39.5 L 128.4 41.8 L 121.1 44.0 L 113.3 46.0 L 112.6 44.4 L 119.6 40.5 L 126.3 36.9 L 132.6 33.5 L 138.6 30.2 L 144.1 27.1 L 149.2 24.0 L 154.0 21.0 L 158.3 18.0 L 162.2 15.2 L 164.8297776222229 13.034300804138184 L 164.8 13.0 L 165.6 12.4 Z " />
</g>
</svg>
