<svg xmlns="http://www.w3.org/2000/svg" xmlns:xlink="http://www.w3.org/1999/xlink" version="1.1" baseProfile="full" viewBox="0 0 200 200" width="200" height="200">
<g fill="black">
<path d="M 45.2 119.7 L 43.8 130.7 L 41.9 140.8 L 39.5 150.2 L 36.5 158.9 L 32.8 166.7 L 28.6 173.6 L 23.8 179.7 L 18.4 184.7 L 12.5 188.7 L 11.4 187.2 L 15.7 182.0 L 19.6 176.4 L 23.0 170.3 L 25.9 163.5 L 28.4 156.0 L 30.5 147.9 L 32.1 139.0 L 33.2 129.4 L 33.8 119.0 L 34.0 107.8 L 34.0 58.24754095077515 L 33.0 59.1 L 26.6 64.0 L 19.7 68.6 L 12.5 72.7 L 11.4 71.2 L 17.4 65.6 L 23.1 59.9 L 28.5 54.3 L 33.6 48.6 L 34.0 48.125 L 34.0 48.0 L 34.0740740776062 48.037036991119386 L 38.4 42.9 L 42.8 37.0 L 46.9 31.0 L 50.7 24.8 L 54.1 18.6 L 57.1 12.2 L 57.14014873504639 12.219702625274659 L 57.7 11.1 L 67.9 17.5 L 69.7 20.7 L 65.88683166503907 20.958519840240477 L 64.0 24.2 L 60.775 29.0 L 123.0 29.0 L 123.42531642913818 28.645569610595704 L 124.1 27.4 L 124.53655319213867 27.719538974761964 L 129.0 24.0 L 140.0 33.0 L 135.0 36.0 L 130.37142858505248 37.92857141494751 L 129.5 38.8 L 127.2 40.9 L 124.7 43.1 L 122.1 45.3 L 119.3 47.6 L 116.3 49.8 L 113.2 52.0 L 110.2 54.0 L 163.8181818008423 54.0 L 172.0 45.0 L 182.0 54.0 L 182.0 58.0 L 46.0 58.0 L 46.0 108.0 L 45.89668245315552 108.15497627258301 Z M 83.0 156.6 L 142.9 156.6 L 148.9 151.6 L 159.9 160.6 L 154.9 164.6 L 154.9 179.4 L 142.9 185.4 L 142.9 179.4 L 83.0 179.4 L 71.0 185.4 L 71.0 150.6 Z M 83.0 160.6 L 83.0 175.4 L 142.9 175.4 L 142.9 160.6 Z M 153.3 144.5 L 153.3 148.5 L 72.6 148.5 L 72.6 144.5 L 139.0777777671814 144.5 L 145.3 137.5 Z M 153.3 131.9 L 153.3 135.9 L 72.6 135.9 L 72.6 131.9 L 139.0777777671814 131.9 L 145.3 124.9 Z M 174.2 118.7 L 174.2 122.7 L 51.8 122.7 L 51.8 118.7 L 159.9777777671814 118.7 L 166.2 111.7 Z M 154.0 105.1 L 154.0 109.1 L 71.9 109.1 L 71.9 105.1 L 139.7777777671814 105.1 L 145.2888889312744 98.9 L 139.1 98.9 L 136.8 99.0 L 134.5 98.8 L 132.3 98.4 L 130.2 97.5 L 128.2 96.2 L 126.5 94.5 L 125.2 92.5 L 124.2 90.3 L 123.5 87.9 L 123.1 85.4 L 123.1 60.5 L 135.1 62.5 L 138.1 64.5 L 135.1 66.3 L 135.1 74.84255323410034 L 138.6 73.8 L 143.2 72.6 L 147.6 71.4 L 151.9 70.3 L 156.0 69.3 L 160.0 68.2 L 163.8 67.2 L 167.5 66.2 L 170.0219178199768 65.47945203781128 L 170.0 65.4 L 170.07717037200928 65.4636655807495 L 171.0 65.2 L 171.22583875656127 66.41131696701049 L 182.0 75.3 L 182.4 78.3 L 177.96065578460693 76.08032789230347 L 173.2 77.0 L 169.5 77.4 L 165.6 77.7 L 161.6 78.0 L 157.4 78.2 L 153.1 78.4 L 148.6 78.6 L 144.0 78.7 L 139.2 78.7 L 135.1 78.61632652282715 L 135.1 85.4 L 134.9 86.6 L 134.8 87.6 L 134.8 88.4 L 134.9 89.0 L 135.0 89.5 L 135.2 90.0 L 135.7 90.5 L 136.5 91.1 L 137.6 91.5 L 139.1 91.9 L 171.0 91.9 L 174.5 86.9 L 176.5 86.9 L 174.5 91.9 L 176.6 93.3 L 178.0 95.4 L 176.6 97.5 L 174.5 98.9 L 146.91428575515747 98.9 Z M 51.3 86.6 L 55.3 86.6 L 59.4 86.5 L 63.7 86.4 L 68.0 86.4 L 72.4 86.3 L 77.0 86.2 L 86.4 86.2 L 90.3 86.3625 L 90.3 76.2 L 50.9 76.2 L 50.9 72.2 L 90.3 72.2 L 90.3 60.5 L 102.3 62.5 L 105.3 64.5 L 102.3 66.3 L 102.3 95.4 L 90.3 101.4 L 90.3 90.21702127456665 L 87.0 91.2 L 82.4 92.4 L 77.8 93.5 L 73.4 94.5 L 69.0 95.4 L 64.7 96.3 L 60.6 97.1 L 56.57731790542603 97.86622514724732 L 54.7 101.4 L 52.4 98.6 L 49.3 86.8 Z M 57.91935482025146 33.0 L 55.1 36.8 L 50.1 42.8 L 44.8 48.5 L 41.41454544067383 51.70727272033692 L 46.0 54.0 L 106.39032258987427 54.0 L 107.9 52.2 L 110.1 48.9 L 112.3 45.8 L 114.4 42.9 L 118.2 37.3 L 119.9 34.7 L 120.91999998092652 33.0 Z " />
</g>
</svg>
