<svg xmlns="http://www.w3.org/2000/svg" xmlns:xlink="http://www.w3.org/1999/xlink" version="1.1" baseProfile="full" viewBox="0 0 200 200" width="200" height="200">
<g fill="black">
<path d="M 120.1 95.4 L 166.4 95.4 L 172.4 90.4 L 183.4 99.4 L 178.4 103.4 L 178.4 181.4 L 166.4 187.4 L 166.4 179.4 L 120.1 179.4 L 120.1 182.4 L 108.1 188.4 L 108.1 89.4 Z M 120.1 151.6 L 120.1 175.4 L 166.4 175.4 L 166.4 151.6 Z M 56.7 172.0 L 47.3 172.0 L 47.3 168.0 L 56.7 168.0 Z M 42.6 172.0 L 33.2 172.0 L 33.2 168.0 L 42.6 168.0 Z M 13.1 148.0 L 25.1 148.0 L 25.1 168.0 L 28.5 168.0 L 28.5 172.0 L 13.1 172.0 Z M 70.8 172.0 L 61.4 172.0 L 61.4 168.0 L 70.8 168.0 Z M 75.5 168.0 L 78.9 168.0 L 78.9 148.0 L 90.9 148.0 L 90.9 172.0 L 75.5 172.0 Z M 120.1 125.5 L 120.1 147.6 L 166.4 147.6 L 166.4 125.5 Z M 90.9 142.0 L 78.9 142.0 L 78.9 118.0 L 90.9 118.0 Z M 25.1 142.0 L 13.1 142.0 L 13.1 118.0 L 25.1 118.0 Z M 120.1 99.4 L 120.1 121.5 L 166.4 121.5 L 166.4 99.4 Z M 90.9 112.0 L 78.9 112.0 L 78.9 88.0 L 90.9 88.0 Z M 25.1 112.0 L 13.1 112.0 L 13.1 88.0 L 25.1 88.0 Z M 191.8 26.0 L 186.8 30.0 L 186.8 79.0 L 174.8 85.0 L 174.8 26.0 L 110.1 26.0 L 110.1 79.5 L 100.1 84.5 L 100.1 17.0 L 110.1 22.0 L 174.8 22.0 L 180.8 17.0 Z M 25.1 82.0 L 13.1 82.0 L 13.1 58.0 L 25.1 58.0 Z M 90.4 82.0 L 79.4 82.0 L 79.4 58.0 L 90.4 58.0 Z M 167.4 66.0 L 167.4 70.0 L 118.6 70.0 L 118.6 66.0 L 149.21818180084227 66.0 L 157.4 57.0 Z M 90.4 52.0 L 79.4 52.0 L 79.4 32.0 L 75.5 32.0 L 75.5 28.0 L 90.4 28.0 Z M 28.5 32.0 L 25.1 32.0 L 25.1 52.0 L 13.1 52.0 L 13.1 28.0 L 28.5 28.0 Z M 167.4 44.0 L 167.4 48.0 L 118.6 48.0 L 118.6 44.0 L 149.21818180084227 44.0 L 157.4 35.0 Z M 42.6 32.0 L 33.2 32.0 L 33.2 28.0 L 42.6 28.0 Z M 70.8 32.0 L 61.4 32.0 L 61.4 28.0 L 70.8 28.0 Z M 56.7 32.0 L 47.3 32.0 L 47.3 28.0 L 56.7 28.0 Z " />
</g>
</svg>
