<svg xmlns="http://www.w3.org/2000/svg" xmlns:xlink="http://www.w3.org/1999/xlink" version="1.1" baseProfile="full" viewBox="0 0 200 200" width="200" height="200">
<g fill="black">
<path d="M 157.0 169.3 L 148.6 160.6 L 141.1 150.9 L 139.90009565353392 148.91265840530394 L 134.2 156.8 L 124.3 167.3 L 113.4 176.1 L 101.4 183.3 L 88.3 188.8 L 87.6 187.1 L 99.4 180.0 L 110.1 171.9 L 119.7 162.6 L 128.1 152.2 L 135.19871740341188 141.12600078582764 L 134.7 140.3 L 129.3 128.8 L 124.9 116.4 L 121.5 103.2 L 119.2 89.0 L 118.63916444778442 80.58746738433838 L 115.0 86.6 L 110.1 93.8 L 104.7 100.4 L 103.2 99.5 L 106.8 91.8 L 110.3 84.1 L 113.7 76.2 L 116.9 68.0 L 120.0 59.6 L 122.8 51.0 L 125.4 42.1 L 127.8 32.9 L 129.9 23.4 L 131.71404371261596 14.601888179779053 L 131.7 14.6 L 132.3 11.8 L 143.6 16.2 L 146.1 18.8 L 142.59959602355957 20.009230422973634 L 141.0 26.1 L 138.1 35.8 L 135.0 45.1 L 131.5 54.1 L 128.56551723480226 61.0 L 165.0 61.0 L 175.0 51.0 L 187.0 61.0 L 187.0 65.0 L 168.68631582260133 65.0 L 166.0 82.6 L 162.0 100.3 L 156.7 116.6 L 150.4 131.5 L 145.7457438468933 139.70618839263915 L 149.4 144.8 L 156.7 153.1 L 164.7 160.4 L 173.5 166.7 L 183.1 172.1 L 188.1 174.8 L 176.8 183.8 L 166.4 177.0 Z M 14.9 163.9 L 23.1 162.8 L 31.6 161.5 L 40.5 160.2 L 49.8 158.8 L 56.0 157.82105264663696 L 56.0 135.0 L 20.0 135.0 L 20.0 131.0 L 56.0 131.0 L 56.0 108.0 L 17.0 108.0 L 17.0 104.0 L 83.0 104.0 L 93.0 94.0 L 105.0 104.0 L 105.0 108.0 L 68.0 108.0 L 68.0 131.0 L 83.0 131.0 L 93.0 121.0 L 105.0 131.0 L 105.0 135.0 L 68.0 135.0 L 68.0 155.8210000038147 L 69.3 155.6 L 79.6 154.0 L 90.3 152.3 L 101.3 150.6 L 112.7 149.1 L 113.2 150.8 L 102.1 154.3 L 91.4 157.5 L 81.0 160.4 L 70.8 163.1 L 61.0 165.6 L 51.6 167.9 L 42.4 170.1 L 33.6 172.1 L 25.1 174.0 L 20.96487150192261 174.85728273391723 L 19.4 178.3 L 16.9 175.7 L 13.0 164.2 Z M 126.76626510620117 65.0 L 123.9 71.1 L 120.71657991409302 76.94860887527466 L 123.3 88.3 L 127.2 101.7 L 131.7 114.0 L 136.9 125.3 L 140.205255317688 131.07019147872924 L 141.9 127.6 L 147.3 113.3 L 151.5 97.7 L 154.8 80.7 L 156.66271190643312 65.0 Z M 59.2 92.1 L 58.0 90.0 L 56.9 87.8 L 53.0 81.8 L 51.5 79.8 L 50.1 77.8 L 48.3 76.2 L 49.3 74.7 L 51.5 75.8 L 53.9 76.7 L 56.3 77.9 L 58.6 79.2 L 60.9 80.6 L 63.1 82.2 L 65.3 84.0 L 67.4 85.9 L 69.4 88.0 L 71.4 90.2 L 72.1 94.7 L 69.6 98.5 L 65.1 99.2 L 61.3 96.7 L 60.3 94.4 Z M 35.0 81.0 L 23.0 87.0 L 23.0 27.0 L 35.0 29.0 L 38.0 31.0 L 35.0 32.8 L 35.0 65.0 L 56.0 65.0 L 56.0 13.0 L 68.0 15.0 L 71.0 17.0 L 68.0 18.8 L 68.0 65.0 L 89.0 65.0 L 89.0 27.0 L 101.0 29.0 L 104.0 31.0 L 101.0 32.8 L 101.0 75.0 L 89.0 81.0 L 89.0 69.0 L 35.0 69.0 Z " />
</g>
</svg>
