<svg xmlns="http://www.w3.org/2000/svg" xmlns:xlink="http://www.w3.org/1999/xlink" version="1.1" baseProfile="full" viewBox="0 0 200 200" width="200" height="200">
<g fill="black">
<path d="M 81.4 147.5 L 144.5 147.5 L 150.5 142.5 L 161.5 151.5 L 156.5 155.5 L 156.5 180.8 L 144.5 186.8 L 144.5 178.8 L 81.4 178.8 L 81.4 181.8 L 69.4 187.8 L 69.4 141.5 Z M 81.4 151.5 L 81.4 174.8 L 144.5 174.8 L 144.5 151.5 Z M 51.0 134.2 L 107.0 134.2 L 107.0 115.9 L 60.4 115.9 L 60.4 111.9 L 107.0 111.9 L 107.0 96.8 L 119.0 98.8 L 122.0 100.8 L 119.0 102.6 L 119.0 111.9 L 147.3181818008423 111.9 L 155.5 102.9 L 165.5 111.9 L 165.5 115.9 L 119.0 115.9 L 119.0 134.2 L 156.71818180084227 134.2 L 164.9 125.2 L 174.9 134.2 L 174.9 138.2 L 51.0 138.2 Z M 133.7 99.4 L 131.3 99.1 L 128.9 98.4 L 126.7 97.4 L 124.7 95.9 L 123.1 94.0 L 121.8 91.8 L 120.9 89.5 L 120.4 87.0 L 120.1 84.5 L 120.1 58.0 L 64.6 58.0 L 74.8 59.7 L 77.8 61.7 L 74.8 63.5 L 74.8 71.1 L 93.01818180084229 71.1 L 101.2 62.1 L 111.2 71.1 L 111.2 75.1 L 74.8 75.1 L 74.8 89.33230772018433 L 78.4 89.0 L 85.2 88.3 L 92.4 87.7 L 100.0 87.0 L 107.9 86.5 L 116.3 86.1 L 116.6 87.9 L 108.6 90.3 L 100.9 92.3 L 93.5 94.2 L 86.4 95.8 L 79.7 97.3 L 73.3 98.8 L 67.3 100.1 L 61.6 101.3 L 56.3 102.5 L 55.318905448913576 102.69237146377563 L 53.7 106.2 L 51.2 103.5 L 47.5 91.9 L 49.5 91.6 L 54.6 91.2 L 60.0 90.7 L 62.8 90.45862064361572 L 62.8 58.0 L 46.0 58.0 L 46.0 108.0 L 45.89668245315552 108.15497627258301 L 45.2 119.7 L 43.8 130.7 L 41.9 140.8 L 39.5 150.2 L 36.5 158.9 L 32.8 166.7 L 28.6 173.6 L 23.8 179.7 L 18.4 184.7 L 12.5 188.7 L 11.4 187.2 L 15.7 182.0 L 19.6 176.4 L 23.0 170.3 L 25.9 163.5 L 28.4 156.0 L 30.5 147.9 L 32.1 139.0 L 33.2 129.4 L 33.8 119.0 L 34.0 107.8 L 34.0 58.24754095077515 L 33.0 59.1 L 26.6 64.0 L 19.7 68.6 L 12.5 72.7 L 11.4 71.2 L 17.4 65.6 L 23.1 59.9 L 28.5 54.3 L 33.6 48.6 L 34.0 48.125 L 34.0 48.0 L 34.0740740776062 48.037036991119386 L 38.4 42.9 L 42.8 37.0 L 46.9 31.0 L 50.7 24.8 L 54.1 18.6 L 57.1 12.2 L 57.14014873504639 12.219702625274659 L 57.7 11.1 L 67.9 17.5 L 69.7 20.7 L 65.88683166503907 20.958519840240477 L 64.0 24.2 L 60.775 29.0 L 123.0 29.0 L 123.42531642913818 28.645569610595704 L 124.1 27.4 L 124.53655319213867 27.719538974761964 L 129.0 24.0 L 140.0 33.0 L 135.0 36.0 L 130.37142858505248 37.92857141494751 L 129.5 38.8 L 127.2 40.9 L 124.7 43.1 L 122.1 45.3 L 119.3 47.6 L 116.3 49.8 L 113.2 52.0 L 110.2 54.0 L 163.8181818008423 54.0 L 172.0 45.0 L 182.0 54.0 L 182.0 58.0 L 121.9 58.0 L 132.1 59.7 L 135.1 61.7 L 132.1 63.5 L 132.1 75.14499998092651 L 133.9 74.2 L 137.8 72.2 L 141.6 70.4 L 145.4 68.5 L 149.1 66.7 L 152.7 64.9 L 156.2 63.1 L 159.7 61.4 L 162.23156986236572 60.05975713729858 L 162.2 60.0 L 162.25357446670532 60.048107624053955 L 163.1 59.6 L 163.93756771087646 61.560264873504636 L 172.0 68.8 L 172.2 72.0 L 168.33648290634156 70.37007875442505 L 167.8 70.6 L 164.0 71.8 L 160.1 73.0 L 156.2 74.1 L 152.2 75.2 L 148.1 76.2 L 139.7 78.0 L 135.3 78.8 L 132.1 79.23636360168457 L 132.1 86.7 L 132.3 87.3 L 132.4 87.8 L 132.5 88.1 L 132.7 88.4 L 133.1 88.7 L 133.8 89.0 L 134.8 89.3 L 136.1 89.5 L 168.8 89.5 L 173.8 72.5 L 175.8 72.5 L 173.8 89.5 L 176.8 91.5 L 178.8 94.5 L 176.8 97.5 L 173.8 99.5 L 136.1 99.5 Z M 57.91935482025146 33.0 L 55.1 36.8 L 50.1 42.8 L 44.8 48.5 L 41.41454544067383 51.70727272033692 L 46.0 54.0 L 106.39032258987427 54.0 L 107.9 52.2 L 110.1 48.9 L 112.3 45.8 L 114.4 42.9 L 118.2 37.3 L 119.9 34.7 L 120.91999998092652 33.0 Z " />
</g>
</svg>
