<svg xmlns="http://www.w3.org/2000/svg" xmlns:xlink="http://www.w3.org/1999/xlink" version="1.1" baseProfile="full" viewBox="0 0 200 200" width="200" height="200">
<g fill="black">
<path d="M 62.1 15.0 L 65.1 17.0 L 62.1 18.8 L 62.1 36.0 L 73.5 36.0 L 83.5 26.0 L 95.5 36.0 L 95.5 40.0 L 62.1 40.0 L 62.1 63.0 L 77.7 63.0 L 82.7 58.0 L 92.7 67.0 L 87.7 70.0 L 87.7 123.0 L 77.7 128.0 L 77.7 117.0 L 62.1 117.0 L 62.1 146.0 L 76.5 146.0 L 86.5 136.0 L 95.7 143.6666666984558 L 95.7 125.2 L 107.7 125.2 L 107.7 143.7 L 95.73999996185303 143.7 L 98.5 146.0 L 98.5 147.0 L 107.7 147.0 L 107.7 165.5 L 95.7 165.5 L 95.7 150.0 L 62.1 150.0 L 62.1 183.0 L 50.1 189.0 L 50.1 150.0 L 14.7 150.0 L 14.7 146.0 L 50.1 146.0 L 50.1 117.0 L 36.5 117.0 L 36.5 129.0 L 24.5 135.0 L 24.5 57.0 L 36.5 63.0 L 50.1 63.0 L 50.1 40.0 L 17.7 40.0 L 17.7 36.0 L 50.1 36.0 L 50.1 13.0 Z M 95.7 168.7 L 107.7 168.7 L 107.7 183.2 L 112.2 183.2 L 112.2 187.2 L 95.7 187.2 Z M 164.7 183.2 L 169.2 183.2 L 169.2 168.7 L 181.2 168.7 L 181.2 187.2 L 164.7 187.2 Z M 128.0 187.2 L 117.5 187.2 L 117.5 183.2 L 128.0 183.2 Z M 143.7 187.2 L 133.2 187.2 L 133.2 183.2 L 143.7 183.2 Z M 159.5 187.2 L 149.0 187.2 L 149.0 183.2 L 159.5 183.2 Z M 181.2 165.5 L 169.2 165.5 L 169.2 147.0 L 181.2 147.0 Z M 181.2 143.7 L 169.2 143.7 L 169.2 125.2 L 181.2 125.2 Z M 181.2 122.0 L 169.2 122.0 L 169.2 103.5 L 181.2 103.5 Z M 107.2 122.0 L 96.2 122.0 L 96.2 103.5 L 107.2 103.5 Z M 36.5 92.0 L 36.5 113.0 L 77.7 113.0 L 77.7 92.0 Z M 112.2 85.7 L 107.2 85.7 L 107.2 100.2 L 96.2 100.2 L 96.2 81.7 L 112.2 81.7 Z M 181.2 100.2 L 169.2 100.2 L 169.2 85.7 L 164.7 85.7 L 164.7 81.7 L 181.2 81.7 Z M 36.5 88.0 L 77.7 88.0 L 77.7 67.0 L 36.5 67.0 Z M 159.5 85.7 L 149.0 85.7 L 149.0 81.7 L 159.5 81.7 Z M 143.7 85.7 L 133.2 85.7 L 133.2 81.7 L 143.7 81.7 Z M 128.0 85.7 L 117.5 85.7 L 117.5 81.7 L 128.0 81.7 Z M 130.7 18.7 L 133.1 21.4 L 129.5233413696289 22.48577136993408 L 128.4 26.1 L 125.8 33.2 L 123.0 40.1 L 119.9 46.7 L 119.36031742095948 47.7 L 162.5 47.7 L 172.5 37.7 L 184.5 47.7 L 184.5 51.7 L 117.20158729553222 51.7 L 116.5 53.0 L 112.8 59.1 L 108.9 64.9 L 104.6 70.3 L 100.0 75.4 L 95.0 80.1 L 93.6 78.9 L 97.0 73.1 L 100.2 67.3 L 103.3 61.4 L 106.2 55.4 L 108.9 49.3 L 111.3 43.0 L 113.6 36.5 L 115.6 29.8 L 117.4 22.9 L 119.0 15.8 L 119.05568113327027 15.813801288604736 L 119.5 14.1 Z " />
</g>
</svg>
