<svg xmlns="http://www.w3.org/2000/svg" xmlns:xlink="http://www.w3.org/1999/xlink" version="1.1" baseProfile="full" viewBox="0 0 200 200" width="200" height="200">
<g fill="black">
<path d="M 107.3 19.3 L 108.5 22.6 L 104.19677419662476 22.303225803375245 L 101.6 24.9 L 98.8 27.6 L 91.8 34.6 L 87.6 38.7 L 82.8 43.3 L 77.5 48.2 L 76.2754716873169 49.3 L 164.0 49.3 L 170.0 44.3 L 181.0 53.3 L 176.0 57.3 L 176.0 177.6 L 164.0 183.6 L 164.0 173.6 L 36.0 173.6 L 36.0 180.6 L 24.0 186.6 L 24.0 43.3 L 36.0 49.3 L 72.36666669845582 49.3 L 74.7 45.8 L 78.9 39.8 L 82.7 34.5 L 86.1 29.7 L 89.1 25.4 L 91.7 21.7 L 93.8 18.5 L 95.5 15.9 L 96.8 13.8 L 97.07733201980591 13.205717182159423 L 96.9 13.1 L 98.0 11.6 Z M 71.82264146804809 53.3 L 71.6 53.5 L 71.36363639831544 53.3 L 36.0 53.3 L 36.0 169.6 L 164.0 169.6 L 164.0 53.3 Z M 149.3 79.7 L 151.3 82.7 L 147.63457250595093 83.26877326965332 L 145.8 87.2 L 142.2 94.7 L 138.4 102.2 L 134.4 109.7 L 130.2 117.1 L 125.7 124.6 L 121.0 132.0 L 116.1 139.4 L 110.8 146.7 L 105.2 153.8 L 103.7 152.9 L 107.6 144.7 L 111.5 136.7 L 115.3 128.8 L 119.1 121.0 L 122.6 113.2 L 126.1 105.5 L 129.3 97.9 L 132.4 90.3 L 135.4 82.8 L 137.76855363845826 76.22068433761596 L 137.7 76.2 L 138.6 73.9 Z M 78.6 128.4 L 75.9 121.5 L 72.9 114.9 L 69.7 108.5 L 66.3 102.3 L 62.6 96.3 L 58.8 90.5 L 54.7 84.8 L 50.5 79.1 L 51.8 77.8 L 57.5 82.2 L 62.9 87.1 L 67.9 92.4 L 72.6 98.1 L 77.0 104.1 L 81.1 110.5 L 84.9 117.2 L 88.5 124.1 L 91.8 131.4 L 94.8 139.0 L 94.4 143.6 L 91.0 146.6 L 86.4 146.2 L 83.4 142.8 L 81.1 135.5 Z " />
</g>
</svg>
