<svg xmlns="http://www.w3.org/2000/svg" xmlns:xlink="http://www.w3.org/1999/xlink" version="1.1" baseProfile="full" viewBox="0 0 200 200" width="200" height="200">
<g fill="black">
<path d="M 105.7 175.7 L 102.9 171.9 L 99.8 168.2 L 96.2 164.5 L 92.3 160.9 L 88.0 157.3 L 83.3 153.7 L 78.3 150.1 L 72.9 146.4 L 73.6 144.8 L 80.0 146.7 L 86.0 149.1 L 91.5 151.8 L 96.8 154.8 L 101.6 158.0 L 106.1 161.4 L 106.24673700332642 161.5292682647705 L 107.9 160.0 L 112.3 156.2 L 116.9 152.3 L 121.8 148.1 L 127.0 143.7 L 132.4 139.1 L 138.1 134.2 L 144.0 129.0 L 149.29818181991578 124.3 L 34.1 124.3 L 34.1 120.3 L 153.73103446960448 120.3 L 156.6 117.7 L 157.0191035270691 118.20074710845947 L 160.5 115.3 L 171.5 124.3 L 166.5 127.3 L 160.6702702522278 129.72905406951904 L 157.5 132.2 L 150.8 137.3 L 144.3 142.0 L 138.1 146.4 L 132.1 150.5 L 126.3 154.3 L 120.7 157.7 L 115.3 160.7 L 110.0 163.2 L 108.71518154144287 163.70385036468505 L 110.3 165.1 L 114.1 169.0 L 117.5 173.1 L 120.6 177.5 L 121.1 182.0 L 118.3 185.7 L 113.8 186.2 L 110.2 183.4 L 108.1 179.5 Z M 16.0 94.3 L 94.0 94.3 L 94.0 52.0 L 54.765517234802246 52.0 L 54.0 53.2 L 49.9 58.8 L 45.5 64.3 L 40.8 69.5 L 35.8 74.5 L 30.4 79.2 L 24.6 83.6 L 23.3 82.3 L 27.6 76.6 L 31.8 70.9 L 35.7 65.4 L 39.4 59.8 L 42.8 54.1 L 46.0 48.4 L 48.9 42.6 L 51.5 36.8 L 53.9 30.8 L 55.67730302810669 25.721991348266602 L 55.6 25.7 L 56.5 23.4 L 67.2 29.0 L 69.3 31.9 L 65.59317693710327 32.61535177230835 L 64.4 35.3 L 61.2 41.5 L 57.7 47.4 L 57.31724138259888 48.0 L 94.0 48.0 L 94.0 17.0 L 106.0 19.0 L 109.0 21.0 L 106.0 22.8 L 106.0 48.0 L 142.0 48.0 L 152.0 38.0 L 164.0 48.0 L 164.0 52.0 L 106.0 52.0 L 106.0 94.3 L 162.0 94.3 L 172.0 84.3 L 184.0 94.3 L 184.0 98.3 L 16.0 98.3 Z " />
</g>
</svg>
