<svg xmlns="http://www.w3.org/2000/svg" xmlns:xlink="http://www.w3.org/1999/xlink" version="1.1" baseProfile="full" viewBox="0 0 200 200" width="200" height="200">
<g fill="black">
<path d="M 54.0 184.3 L 42.0 190.3 L 42.0 119.45098037719727 L 38.8 122.4 L 33.3 127.1 L 27.5 131.6 L 21.2 136.0 L 14.5 140.1 L 13.4 138.7 L 18.8 133.0 L 23.9 127.6 L 28.8 122.3 L 33.4 117.1 L 37.7 111.9 L 41.7 106.9 L 42.0 106.48333330154419 L 42.0 104.0 L 43.31470584869385 104.65735292434692 L 45.3 101.9 L 48.6 96.9 L 51.6 92.0 L 53.83934421539307 88.0189435005188 L 53.8 88.0 L 54.8 86.2 L 64.6 93.2 L 66.2 96.5 L 62.28999996185303 96.5 L 61.1 98.2 L 57.3 103.2 L 53.2 108.1 L 52.24255323410034 109.12127656936646 L 54.0 110.0 L 98.41999998092652 110.0 L 98.9 109.4 L 100.2 107.1 L 101.5 104.9 L 102.9 102.6 L 104.3 100.4 L 105.8 98.2 L 110.3 91.3 L 111.23661975860595 89.8014084815979 L 111.1 89.7 L 111.72857141494751 89.01428575515747 L 111.8 88.9 L 111.81836738586426 88.91632652282715 L 112.2 88.5 L 120.8 96.9 L 121.7 100.4 L 117.51041011810302 99.59148263931274 L 114.2 102.3 L 111.9 104.0 L 109.7 105.6 L 107.5 107.1 L 105.2 108.6 L 103.0 109.9 L 102.81538457870484 110.0 L 156.0 110.0 L 166.0 100.0 L 178.0 110.0 L 178.0 114.0 L 111.0 114.0 L 111.0 130.8 L 147.8181818008423 130.8 L 156.0 121.8 L 166.0 130.8 L 166.0 134.8 L 111.0 134.8 L 111.0 152.5 L 147.8181818008423 152.5 L 156.0 143.5 L 166.0 152.5 L 166.0 156.5 L 111.0 156.5 L 111.0 173.3 L 166.0 173.3 L 176.0 163.3 L 188.0 173.3 L 188.0 177.3 L 54.0 177.3 Z M 54.0 156.5 L 54.0 173.3 L 99.0 173.3 L 99.0 156.5 Z M 54.0 134.8 L 54.0 152.5 L 99.0 152.5 L 99.0 134.8 Z M 54.0 114.0 L 54.0 130.8 L 99.0 130.8 L 99.0 114.0 Z M 72.6 70.8 L 73.4 74.3 L 69.63482685089112 73.50733194351196 L 68.0 75.0 L 63.2 79.1 L 58.1 83.1 L 52.7 87.0 L 47.1 90.8 L 41.1 94.5 L 34.9 98.1 L 28.4 101.5 L 21.6 104.8 L 14.4 107.7 L 13.5 106.2 L 19.6 101.5 L 25.6 97.0 L 31.3 92.6 L 36.8 88.3 L 42.0 84.0 L 46.9 79.7 L 51.6 75.4 L 56.0 71.1 L 60.1 66.8 L 63.9 62.5 L 63.91460552215576 62.513933944702146 L 63.927272701263426 62.5 L 14.0 62.5 L 14.0 58.5 L 77.0 58.5 L 77.0 12.3 L 89.0 14.3 L 92.0 16.3 L 89.0 18.1 L 89.0 58.5 L 111.0 58.5 L 111.0 12.3 L 123.0 14.3 L 126.0 16.3 L 123.0 18.1 L 123.0 58.5 L 164.0 58.5 L 174.0 48.5 L 186.0 58.5 L 186.0 62.5 L 64.4930233001709 62.5 Z M 159.5 90.6 L 157.0 87.7 L 154.0 84.9 L 150.6 81.9 L 146.8 79.0 L 142.6 75.9 L 137.9 72.8 L 132.9 69.6 L 127.5 66.2 L 128.2 64.5 L 134.5 66.2 L 140.3 68.1 L 145.7 70.2 L 150.7 72.5 L 155.3 74.9 L 159.6 77.5 L 163.5 80.2 L 167.1 83.0 L 170.3 85.9 L 173.1 89.0 L 174.1 93.5 L 171.7 97.4 L 167.2 98.4 L 163.3 96.0 L 161.6 93.3 Z M 167.0 25.0 L 168.0 28.4 L 163.88081102371217 27.821868228912354 L 162.7 28.9 L 160.1 31.3 L 157.1 33.9 L 153.8 36.8 L 150.1 40.0 L 146.1 43.4 L 141.7 47.0 L 136.8 50.8 L 131.6 54.9 L 130.3 53.6 L 134.3 48.4 L 138.1 43.5 L 141.6 39.0 L 144.8 34.9 L 147.8 31.1 L 150.4 27.7 L 152.7 24.6 L 154.7 21.9 L 156.4 19.5 L 157.14410190582277 18.297989273071288 L 157.0 18.2 L 158.1 16.9 Z M 50.1 45.4 L 48.9 42.8 L 47.4 40.0 L 45.4 37.0 L 43.1 33.8 L 40.4 30.4 L 37.4 26.8 L 34.0 23.0 L 30.2 19.1 L 31.3 17.7 L 36.0 20.5 L 40.4 23.3 L 44.5 26.1 L 48.1 28.9 L 51.4 31.7 L 54.3 34.5 L 56.9 37.3 L 59.2 40.1 L 61.1 43.0 L 62.7 45.9 L 62.3 50.5 L 58.9 53.5 L 54.3 53.1 L 51.3 49.7 L 50.9 47.7 Z " />
</g>
</svg>
