<svg xmlns="http://www.w3.org/2000/svg" xmlns:xlink="http://www.w3.org/1999/xlink" version="1.1" baseProfile="full" viewBox="0 0 200 200" width="200" height="200">
<g fill="black">
<path d="M 44.0 17.0 L 47.0 19.0 L 44.0 20.8 L 44.0 97.0 L 162.0 97.0 L 162.0 15.0 L 174.0 17.0 L 177.0 19.0 L 174.0 20.8 L 174.0 182.0 L 162.0 188.0 L 162.0 101.0 L 43.915492916107176 101.0 L 43.4 113.2 L 42.3 126.3 L 40.7 138.2 L 38.5 149.0 L 35.8 158.6 L 32.5 167.1 L 28.6 174.3 L 24.1 180.2 L 19.0 184.8 L 13.4 187.7 L 12.5 186.2 L 16.4 182.0 L 19.8 177.0 L 22.8 171.2 L 25.4 164.3 L 27.6 156.3 L 29.4 147.2 L 30.7 136.9 L 31.6 125.4 L 32.0 112.8 L 32.0 15.0 Z M 129.9 169.4 L 125.8 163.1 L 122.3 156.3 L 119.1 149.0 L 116.4 141.1 L 114.2 132.8 L 112.4 124.0 L 111.2 114.7 L 110.7 104.8 L 112.4 104.5 L 115.3 113.8 L 118.1 122.6 L 121.1 130.7 L 124.3 138.2 L 127.6 145.1 L 131.3 151.4 L 135.1 157.1 L 139.2 162.1 L 143.5 166.6 L 148.0 170.5 L 150.1 172.4 L 139.3 180.4 L 134.3 175.2 Z M 92.3 111.3 L 95.1 113.5 L 91.67565336227418 115.17986812591553 L 90.9 120.0 L 89.0 128.3 L 86.5 136.3 L 83.6 143.9 L 80.1 151.1 L 76.1 157.9 L 71.6 164.2 L 66.6 170.0 L 61.0 175.3 L 54.8 180.0 L 53.6 178.7 L 58.2 172.7 L 62.4 166.7 L 66.2 160.5 L 69.5 154.1 L 72.4 147.5 L 74.9 140.6 L 76.9 133.4 L 78.5 126.0 L 79.7 118.2 L 80.31356067657471 111.10022602081298 L 80.3 111.1 L 80.6 108.0 Z M 131.0 83.4 L 127.0 77.1 L 123.5 70.3 L 120.4 62.9 L 117.7 55.1 L 115.5 46.8 L 113.8 38.0 L 112.6 28.7 L 112.0 18.8 L 113.8 18.5 L 116.7 27.8 L 119.5 36.6 L 122.4 44.7 L 125.6 52.2 L 128.9 59.1 L 132.5 65.4 L 136.3 71.1 L 140.4 76.2 L 144.6 80.7 L 149.1 84.6 L 151.1 86.4 L 140.3 94.4 L 135.4 89.2 Z M 93.9 25.3 L 96.7 27.5 L 93.28150453567505 29.143507385253905 L 92.5 34.0 L 90.6 42.3 L 88.2 50.3 L 85.3 57.9 L 81.8 65.1 L 77.9 71.8 L 73.4 78.2 L 68.4 84.0 L 62.8 89.3 L 56.7 94.0 L 55.5 92.7 L 60.1 86.7 L 64.2 80.7 L 67.9 74.5 L 71.3 68.1 L 74.1 61.5 L 76.6 54.6 L 78.6 47.5 L 80.2 40.0 L 81.3 32.2 L 81.9135606765747 25.10022602081299 L 81.9 25.1 L 82.2 22.0 Z " />
</g>
</svg>
