<svg xmlns="http://www.w3.org/2000/svg" xmlns:xlink="http://www.w3.org/1999/xlink" version="1.1" baseProfile="full" viewBox="0 0 200 200" width="200" height="200">
<g fill="black">
<path d="M 147.5 92.3 L 147.5 96.3 L 106.0 96.3 L 106.0 133.9 L 162.3 133.9 L 172.3 123.9 L 184.3 133.9 L 184.3 137.9 L 106.0 137.9 L 106.0 182.1 L 94.0 188.1 L 94.0 137.9 L 15.6 137.9 L 15.6 133.9 L 94.0 133.9 L 94.0 96.3 L 51.5 96.3 L 51.5 92.3 L 125.5 92.3 L 135.5 82.3 Z M 161.8 96.9 L 154.3 91.6 L 147.2 85.9 L 140.3 80.0 L 133.8 73.8 L 127.6 67.2 L 121.7 60.4 L 116.4 53.1 L 111.95131578445435 46.2 L 90.40588235855103 46.2 L 88.4 49.3 L 80.7 59.0 L 72.0 68.3 L 62.2 77.2 L 51.4 85.6 L 39.6 93.6 L 26.6 101.1 L 12.6 107.9 L 11.7 106.4 L 24.6 97.8 L 36.5 89.2 L 47.4 80.5 L 57.1 71.6 L 65.9 62.5 L 73.5 53.2 L 78.28947372436524 46.2 L 16.2 46.2 L 16.2 42.2 L 80.85051546096801 42.2 L 85.5 34.0 L 90.0 24.0 L 93.4 13.9 L 93.9 12.4 L 104.9 17.5 L 107.1 20.3 L 103.41111106872559 21.222222232818602 L 100.5 28.5 L 95.0 39.1 L 92.99411764144898 42.2 L 160.7 42.2 L 170.7 32.2 L 182.7 42.2 L 182.7 46.2 L 114.95 46.2 L 119.5 50.4 L 126.0 56.3 L 132.6 62.0 L 139.3 67.5 L 146.2 72.8 L 153.3 77.7 L 160.6 82.4 L 168.1 86.9 L 175.8 91.1 L 183.7 95.0 L 188.9 97.7 L 177.6 106.7 L 169.6 102.0 Z " />
</g>
</svg>
