<svg xmlns="http://www.w3.org/2000/svg" xmlns:xlink="http://www.w3.org/1999/xlink" version="1.1" baseProfile="full" viewBox="0 0 200 200" width="200" height="200">
<g fill="black">
<path d="M 159.1 174.1 L 150.0 167.2 L 141.9 159.4 L 140.65875663757325 157.90370664596557 L 131.0 166.5 L 120.0 174.1 L 108.2 180.4 L 95.6 185.3 L 82.2 188.8 L 81.7 187.1 L 94.2 181.8 L 105.7 175.7 L 116.4 168.7 L 126.1 160.7 L 134.9 151.8 L 135.2392366409302 151.37058658599852 L 134.6 150.6 L 128.3 141.0 L 122.8 130.6 L 118.3 119.3 L 114.7 107.1 L 112.46615381240845 95.0 L 103.0 95.0 L 103.0 91.0 L 132.0 91.0 L 132.0 14.0 L 144.0 16.0 L 147.0 18.0 L 144.0 19.8 L 144.0 50.0 L 167.0 50.0 L 177.0 40.0 L 189.0 50.0 L 189.0 54.0 L 144.0 54.0 L 144.0 91.0 L 166.0 91.0 L 172.0 86.0 L 183.0 95.0 L 178.0 98.0 L 176.20594844818115 98.74752149581909 L 172.2 109.6 L 165.8 123.4 L 158.5 136.0 L 150.2 147.4 L 147.46028451919557 150.43751068115233 L 149.1 152.1 L 157.0 158.6 L 165.4 164.2 L 174.5 168.9 L 184.3 172.8 L 191.1 175.4 L 179.6 185.1 L 168.9 180.1 Z M 16.0 172.9 L 23.7 172.0 L 31.6 171.0 L 39.5 170.1 L 47.7 169.0 L 48.0 168.9638554573059 L 48.0 139.0 L 19.0 139.0 L 19.0 135.0 L 48.0 135.0 L 48.0 106.0 L 16.0 106.0 L 16.0 102.0 L 76.0 102.0 L 86.0 92.0 L 98.0 102.0 L 98.0 106.0 L 60.0 106.0 L 60.0 135.0 L 74.0 135.0 L 84.0 125.0 L 96.0 135.0 L 96.0 139.0 L 60.0 139.0 L 60.0 167.47619047164918 L 64.4 166.9 L 73.0 165.8 L 81.7 164.8 L 90.7 163.9 L 99.8 163.1 L 100.1 164.8 L 91.4 167.6 L 82.7 170.1 L 74.2 172.3 L 65.8 174.4 L 57.4 176.3 L 49.3 178.2 L 41.2 180.0 L 33.3 181.6 L 25.5 183.2 L 21.911581325531007 183.9082405090332 L 20.3 187.4 L 17.9 184.7 L 14.0 173.2 Z M 118.7 105.8 L 123.7 117.0 L 129.2 127.2 L 135.3 136.5 L 141.16259784698485 143.87266092300416 L 142.8 141.8 L 149.9 130.8 L 156.2 118.7 L 161.6 105.5 L 164.97762241363526 95.0 L 114.59421491622925 95.0 Z M 52.2 90.2 L 51.5 88.4 L 50.6 86.6 L 49.4 84.9 L 48.1 83.1 L 46.6 81.3 L 44.8 79.4 L 42.9 77.6 L 40.5 76.2 L 41.2 74.5 L 43.9 75.5 L 46.7 76.1 L 49.4 77.0 L 51.9 78.1 L 54.3 79.4 L 56.6 80.9 L 58.7 82.5 L 60.7 84.4 L 62.5 86.5 L 64.1 88.7 L 64.3 93.3 L 61.2 96.7 L 56.6 96.8 L 53.2 93.7 L 52.8 92.0 Z M 27.0 80.0 L 15.0 86.0 L 15.0 29.0 L 27.0 31.0 L 30.0 33.0 L 27.0 34.8 L 27.0 64.0 L 49.0 64.0 L 49.0 16.0 L 61.0 18.0 L 64.0 20.0 L 61.0 21.8 L 61.0 64.0 L 83.0 64.0 L 83.0 29.0 L 95.0 31.0 L 98.0 33.0 L 95.0 34.8 L 95.0 74.0 L 83.0 80.0 L 83.0 68.0 L 27.0 68.0 Z " />
</g>
</svg>
