<svg xmlns="http://www.w3.org/2000/svg" xmlns:xlink="http://www.w3.org/1999/xlink" version="1.1" baseProfile="full" viewBox="0 0 200 200" width="200" height="200">
<g fill="black">
<path d="M 144.3 150.3 L 145.7 153.6 L 141.65126543045045 153.39058265686035 L 139.5 155.8 L 136.8 158.6 L 133.9 161.5 L 130.9 164.4 L 127.6 167.3 L 124.2 170.3 L 120.6 173.3 L 116.0666666984558 176.7 L 163.0 176.7 L 173.0 166.7 L 185.0 176.7 L 185.0 180.7 L 15.0 180.7 L 15.0 176.7 L 112.275 176.7 L 114.3 174.0 L 117.1 170.0 L 119.7 166.2 L 122.3 162.6 L 124.7 159.1 L 127.0 155.7 L 129.1 152.5 L 131.1 149.4 L 132.8 146.4 L 133.9444667816162 144.32565393447877 L 133.9 144.3 L 134.23999996185302 143.78999996185303 L 134.4 143.5 L 134.42286376953126 143.5157043457031 L 134.9 142.8 Z M 69.2 167.2 L 67.9 164.7 L 66.3 162.2 L 64.4 159.7 L 62.3 157.1 L 60.0 154.5 L 57.4 151.9 L 54.6 149.2 L 51.4 146.7 L 52.3 145.1 L 56.1 146.8 L 59.8 148.3 L 63.4 150.0 L 66.7 151.9 L 69.8 154.0 L 72.6 156.2 L 75.3 158.6 L 77.7 161.1 L 80.0 163.8 L 82.0 166.6 L 82.2 171.2 L 79.3 174.7 L 74.7 175.0 L 71.2 172.0 L 70.3 169.6 Z M 58.4 101.0 L 141.5 101.0 L 147.5 96.0 L 158.5 105.0 L 153.5 109.0 L 153.5 138.0 L 141.5 144.0 L 141.5 138.0 L 58.4 138.0 L 46.4 144.0 L 46.4 95.0 Z M 58.4 105.0 L 58.4 134.0 L 141.5 134.0 L 141.5 105.0 Z M 178.0 82.2 L 178.0 86.2 L 22.0 86.2 L 22.0 82.2 L 159.8181818008423 82.2 L 168.0 73.2 Z M 16.4 61.3 L 50.3 61.3 L 50.3 23.7 L 62.3 25.7 L 65.3 27.7 L 62.3 29.5 L 62.3 61.3 L 94.0 61.3 L 94.0 12.4 L 106.0 14.4 L 109.0 16.4 L 106.0 18.2 L 106.0 34.8 L 148.3 34.8 L 158.3 24.8 L 170.3 34.8 L 170.3 38.8 L 106.0 38.8 L 106.0 61.3 L 165.4181818008423 61.3 L 173.6 52.3 L 183.6 61.3 L 183.6 65.3 L 16.4 65.3 Z " />
</g>
</svg>
