<svg xmlns="http://www.w3.org/2000/svg" xmlns:xlink="http://www.w3.org/1999/xlink" version="1.1" baseProfile="full" viewBox="0 0 200 200" width="200" height="200">
<g fill="black">
<path d="M 70.0 176.3 L 90.0 176.3 L 91.2 176.2 L 92.1 176.0 L 93.0 175.7 L 93.4 175.3 L 93.7 174.4 L 93.9 173.5 L 94.0 172.3 L 94.0 115.0 L 106.0 117.0 L 109.0 119.0 L 106.0 120.8 L 106.0 172.3 L 105.8 174.8 L 105.4 177.3 L 104.6 179.7 L 103.3 182.0 L 101.7 184.0 L 99.7 185.6 L 97.4 186.9 L 95.0 187.7 L 92.5 188.1 L 90.0 188.3 L 90.0 182.3 L 70.0 179.3 Z M 76.0 138.3 L 77.1 141.8 L 73.2484712600708 141.26875467300414 L 72.2 142.4 L 68.0 146.5 L 63.5 150.5 L 58.7 154.4 L 53.5 158.3 L 48.0 162.1 L 42.2 165.9 L 36.0 169.5 L 29.4 173.0 L 22.4 176.2 L 21.5 174.7 L 27.3 169.8 L 33.0 165.1 L 38.3 160.5 L 43.4 156.1 L 48.1 151.8 L 52.5 147.5 L 56.5 143.2 L 60.2 139.0 L 63.6 134.9 L 66.00981998443604 131.60657939910888 L 66.0 131.6 L 66.10819673538208 131.4721311569214 L 66.6 130.8 L 66.64592084884643 130.83663902282714 L 67.1 130.3 Z M 156.9 164.3 L 154.4 161.0 L 151.4 157.6 L 147.7 154.0 L 143.5 150.3 L 138.8 146.6 L 133.5 142.7 L 127.7 138.5 L 121.4 134.2 L 122.2 132.6 L 129.5 135.2 L 136.2 138.0 L 142.3 141.0 L 147.9 144.1 L 152.9 147.3 L 157.5 150.6 L 161.6 154.0 L 165.2 157.5 L 168.3 161.1 L 170.9 164.9 L 171.2 169.5 L 168.3 173.0 L 163.8 173.3 L 160.2 170.4 L 158.9 167.5 Z M 157.5 128.0 L 148.7 124.3 L 140.3 120.2 L 132.2 115.8 L 124.6 111.0 L 117.4 105.8 L 110.7 100.2 L 104.5 94.1 L 102.60485935211182 91.82583122253418 L 101.5 92.9 L 93.8 99.5 L 85.5 105.7 L 76.7 111.4 L 67.4 116.6 L 57.6 121.4 L 47.3 125.8 L 36.5 129.6 L 25.1 132.9 L 13.2 135.5 L 12.7 133.8 L 23.9 129.3 L 34.5 124.6 L 44.6 119.8 L 54.2 114.7 L 63.2 109.3 L 71.6 103.6 L 79.5 97.6 L 86.8 91.3 L 93.6 84.7 L 99.8 77.8 L 99.8379126548767 77.83450479507447 L 100.2 77.4 L 108.7 85.9 L 109.6 89.4 L 105.90098886489868 88.62126083374024 L 105.08609371185302 89.41352005004883 L 107.3 90.9 L 114.3 95.5 L 121.4 99.8 L 128.9 103.8 L 136.5 107.5 L 144.5 110.9 L 152.8 114.0 L 161.4 116.8 L 170.3 119.3 L 179.5 121.4 L 188.1 123.6 L 176.4 134.3 L 166.8 131.3 Z M 104.3 70.9 L 110.2 70.0 L 116.3 69.0 L 122.4 67.9 L 128.6 66.9 L 135.0 65.7 L 141.5 64.6 L 148.1 63.4 L 154.9 62.3 L 161.8 61.2 L 167.4 60.49014081954956 L 167.4 24.2 L 108.9 24.2 L 108.9 20.2 L 167.4 20.2 L 173.4 15.2 L 184.4 24.2 L 179.4 28.2 L 179.4 81.4 L 167.4 87.4 L 167.4 62.91846151351929 L 162.8 64.9 L 156.2 67.5 L 149.8 69.8 L 137.0 74.0 L 130.8 75.9 L 118.6 79.5 L 110.85007104873657 81.60167570114136 L 109.4 85.2 L 106.8 82.7 L 102.4 71.4 Z M 19.2 72.0 L 25.1 70.9 L 31.2 69.6 L 37.4 68.4 L 43.8 67.1 L 50.2 65.7 L 56.9 64.4 L 63.6 63.0 L 70.6 61.6 L 77.7 60.4 L 82.5 59.676712322235105 L 82.5 24.2 L 21.8 24.2 L 21.8 20.2 L 82.5 20.2 L 88.5 15.2 L 99.5 24.2 L 94.5 28.2 L 94.5 78.2 L 82.5 84.2 L 82.5 62.343283557891844 L 78.8 64.0 L 72.1 66.8 L 65.4 69.3 L 58.9 71.7 L 52.5 73.9 L 46.2 76.1 L 40.0 78.1 L 33.9 80.0 L 27.9 81.9 L 26.03085289001465 82.48008012771606 L 24.7 86.1 L 22.1 83.7 L 17.3 72.5 Z M 50.0 48.6 L 48.7 46.5 L 47.2 44.4 L 45.4 42.3 L 43.4 40.1 L 41.0 38.0 L 38.4 35.9 L 35.5 33.6 L 32.1 31.8 L 32.8 30.1 L 36.5 31.2 L 40.3 32.1 L 43.8 33.3 L 47.0 34.6 L 50.1 36.2 L 53.0 38.0 L 55.7 40.0 L 58.2 42.3 L 60.4 44.7 L 62.4 47.4 L 62.7 51.9 L 59.7 55.4 L 55.2 55.7 L 51.7 52.8 L 50.9 50.7 Z M 136.9 46.7 L 135.6 44.9 L 133.9 43.1 L 132.1 41.2 L 130.0 39.2 L 127.6 37.1 L 125.0 35.0 L 122.3 32.7 L 119.1 30.8 L 119.9 29.1 L 123.4 30.4 L 127.0 31.4 L 130.3 32.5 L 133.4 33.6 L 136.3 34.9 L 139.0 36.2 L 141.6 37.6 L 144.0 39.1 L 146.2 40.7 L 148.2 42.4 L 149.5 46.8 L 147.3 50.9 L 143.0 52.1 L 138.9 50.0 L 138.0 48.4 Z " />
</g>
</svg>
