<svg xmlns="http://www.w3.org/2000/svg" xmlns:xlink="http://www.w3.org/1999/xlink" version="1.1" baseProfile="full" viewBox="0 0 200 200" width="200" height="200">
<g fill="black">
<path d="M 107.9 91.5 L 111.1 87.7 L 114.1 84.2 L 116.9 80.9 L 119.5 77.8 L 121.8 74.8 L 124.0 72.0 L 125.9 69.4 L 127.5 66.9 L 128.38122482299804 65.45227346420288 L 128.3 65.4 L 128.80175437927247 64.761403465271 L 128.9 64.6 L 128.91781530380248 64.61368961334229 L 129.4 64.0 L 138.4 71.9 L 139.6 75.3 L 135.37115907669067 74.86253366470336 L 133.7 76.4 L 131.1 78.7 L 128.2 81.1 L 125.0 83.6 L 121.7 86.1 L 118.0 88.7 L 114.1 91.3 L 109.9 93.9 L 109.74074077606201 94.0 L 153.7 94.0 L 163.7 84.0 L 175.7 94.0 L 175.7 98.0 L 117.1 98.0 L 117.1 119.7 L 146.6 119.7 L 156.6 109.7 L 168.6 119.7 L 168.6 123.7 L 117.1 123.7 L 117.1 144.7 L 146.6 144.7 L 156.6 134.7 L 168.6 144.7 L 168.6 148.7 L 117.1 148.7 L 117.1 171.8 L 160.8 171.8 L 170.8 161.8 L 182.8 171.8 L 182.8 175.8 L 58.5 175.8 L 58.5 182.8 L 46.5 188.8 L 46.5 105.58000001907348 L 43.9 107.9 L 37.0 113.5 L 29.7 118.9 L 21.9 124.0 L 13.6 128.7 L 12.6 127.2 L 19.6 120.9 L 26.3 114.7 L 32.7 108.6 L 38.7 102.4 L 44.2 96.2 L 49.4 89.9 L 54.1 83.6 L 58.5 77.1 L 62.4 70.6 L 65.41838436126709 64.90818939208984 L 65.4 64.9 L 65.571875 64.61875 L 65.9 64.0 L 65.93738136291503 64.02064876556396 L 66.5 63.1 L 76.4 69.8 L 78.1 73.0 L 74.28275241851807 73.19744386672974 L 72.1 76.7 L 67.3 83.3 L 62.0 89.8 L 58.20645160675049 94.0 L 105.59736843109131 94.0 Z M 58.5 148.7 L 58.5 171.8 L 105.1 171.8 L 105.1 148.7 Z M 58.5 123.7 L 58.5 144.7 L 105.1 144.7 L 105.1 123.7 Z M 58.5 98.0 L 58.5 119.7 L 105.1 119.7 L 105.1 98.0 Z M 163.4 74.7 L 159.2 71.4 L 154.6 68.0 L 149.7 64.6 L 144.5 61.2 L 138.9 57.6 L 133.1 54.0 L 126.9 50.2 L 120.5 46.2 L 121.2 44.5 L 128.5 46.7 L 135.4 49.2 L 142.0 51.8 L 148.1 54.5 L 154.0 57.3 L 159.5 60.1 L 164.7 63.0 L 169.6 66.0 L 174.2 69.0 L 178.5 72.0 L 180.6 76.1 L 179.2 80.5 L 175.2 82.5 L 170.8 81.2 L 167.3 78.0 Z M 77.7 51.4 L 78.6 54.9 L 74.71417322158814 54.15010356903076 L 73.9 54.9 L 69.6 58.2 L 64.9 61.5 L 59.7 64.7 L 54.0 67.9 L 47.9 70.9 L 41.2 73.9 L 34.1 76.8 L 26.5 79.4 L 18.3 81.9 L 17.6 80.2 L 24.9 76.0 L 31.8 71.9 L 38.2 68.1 L 44.2 64.3 L 49.6 60.6 L 54.5 57.0 L 58.9 53.5 L 62.7 50.0 L 66.0 46.6 L 68.8 43.3 L 68.8696478843689 43.36338739395141 L 69.2 43.0 Z M 19.2 36.6 L 94.0 36.6 L 94.0 12.7 L 106.0 14.7 L 109.0 16.7 L 106.0 18.5 L 106.0 36.6 L 158.7 36.6 L 168.7 26.6 L 180.7 36.6 L 180.7 40.6 L 19.2 40.6 Z " />
</g>
</svg>
