<svg xmlns="http://www.w3.org/2000/svg" xmlns:xlink="http://www.w3.org/1999/xlink" version="1.1" baseProfile="full" viewBox="0 0 200 200" width="200" height="200">
<g fill="black">
<path d="M 40.6 49.0 L 123.31750001907349 49.0 L 126.0 45.3 L 128.8 41.3 L 131.7 37.5 L 137.3 30.1 L 140.0 26.5 L 142.6 22.8 L 145.2 19.2 L 147.6 15.6 L 149.43568201065062 12.922963714599609 L 149.4 12.9 L 149.80408163070678 12.385714244842529 L 150.0 12.1 L 150.01781530380248 12.113689613342284 L 150.5 11.5 L 159.5 19.4 L 160.7 22.8 L 156.8333333015442 22.33333330154419 L 156.5 22.7 L 153.4 26.0 L 150.2 29.3 L 146.9 32.5 L 143.5 35.7 L 136.3 41.9 L 132.5 44.9 L 128.5 47.8 L 126.7 49.0 L 165.1 49.0 L 175.1 39.0 L 187.1 49.0 L 187.1 53.0 L 40.6 53.0 L 40.6 105.0 L 40.1 117.0 L 39.1 128.3 L 37.6 138.8 L 35.7 148.5 L 33.3 157.5 L 30.4 165.7 L 26.9 173.1 L 23.0 179.6 L 18.5 185.1 L 13.5 189.6 L 12.2 188.3 L 15.4 182.8 L 18.3 176.9 L 20.9 170.4 L 23.2 163.2 L 25.1 155.4 L 26.6 146.8 L 27.7 137.5 L 28.4 127.4 L 28.7 116.6 L 28.6 105.0 L 28.6 43.0 Z M 79.9 140.1 L 148.0 140.1 L 154.0 135.1 L 165.0 144.1 L 160.0 148.1 L 160.0 178.8 L 148.0 184.8 L 148.0 174.8 L 79.9 174.8 L 79.9 181.8 L 67.9 187.8 L 67.9 134.1 Z M 79.9 144.1 L 79.9 170.8 L 148.0 170.8 L 148.0 144.1 Z M 46.0 123.0 L 107.0 123.0 L 107.0 103.0 L 62.0 103.0 L 62.0 99.0 L 107.0 99.0 L 107.0 74.0 L 119.0 76.0 L 122.0 78.0 L 119.0 79.8 L 119.0 99.0 L 142.0 99.0 L 152.0 89.0 L 164.0 99.0 L 164.0 103.0 L 119.0 103.0 L 119.0 123.0 L 164.8181818008423 123.0 L 173.0 114.0 L 183.0 123.0 L 183.0 127.0 L 46.0 127.0 Z M 98.9 64.6 L 99.8 68.1 L 95.99646844863892 67.43271379470825 L 94.8 68.6 L 90.6 72.5 L 86.0 76.3 L 81.2 80.0 L 76.1 83.5 L 70.8 86.9 L 65.1 90.2 L 59.2 93.3 L 53.0 96.2 L 46.4 98.7 L 45.5 97.2 L 51.1 92.9 L 56.4 88.7 L 61.5 84.7 L 66.4 80.7 L 70.9 76.8 L 75.3 72.8 L 79.3 68.8 L 83.1 64.8 L 86.5 60.8 L 89.7 56.8 L 89.73906583786011 56.83312101364136 L 90.1 56.4 Z M 161.0 87.2 L 158.2 84.0 L 155.0 80.7 L 151.3 77.4 L 147.2 74.0 L 142.6 70.7 L 137.6 67.3 L 132.3 63.8 L 126.5 60.2 L 127.2 58.5 L 133.9 60.4 L 140.1 62.6 L 145.9 65.0 L 151.3 67.6 L 156.2 70.5 L 160.8 73.5 L 165.0 76.6 L 168.9 79.9 L 172.3 83.5 L 175.3 87.2 L 176.1 91.7 L 173.6 95.5 L 169.1 96.2 L 165.3 93.7 L 163.4 90.5 Z M 76.8 39.0 L 75.1 36.2 L 73.0 33.3 L 70.5 30.4 L 67.7 27.6 L 64.5 24.8 L 61.0 21.9 L 57.2 19.0 L 53.0 16.2 L 53.7 14.5 L 58.7 16.1 L 63.4 17.7 L 67.8 19.7 L 71.9 21.9 L 75.8 24.3 L 79.3 26.9 L 82.5 29.8 L 85.4 32.9 L 88.0 36.2 L 90.2 39.7 L 90.4 44.3 L 87.4 47.7 L 82.8 47.8 L 79.4 44.8 L 78.3 41.9 Z " />
</g>
</svg>
