<svg xmlns="http://www.w3.org/2000/svg" xmlns:xlink="http://www.w3.org/1999/xlink" version="1.1" baseProfile="full" viewBox="0 0 200 200" width="200" height="200">
<g fill="black">
<path d="M 85.5 169.5 L 97.5 169.5 L 97.5 183.7 L 103.2 183.7 L 103.2 187.7 L 85.5 187.7 Z M 161.7 183.7 L 167.4 183.7 L 167.4 169.5 L 179.4 169.5 L 179.4 187.7 L 161.7 187.7 Z M 120.8 187.7 L 109.1 187.7 L 109.1 183.7 L 120.8 183.7 Z M 138.3 187.7 L 126.6 187.7 L 126.6 183.7 L 138.3 183.7 Z M 155.9 187.7 L 144.2 187.7 L 144.2 183.7 L 155.9 183.7 Z M 169.0 72.3 L 163.2 67.7 L 157.7 62.5 L 152.5 56.9 L 147.5 50.9 L 142.8 44.3 L 138.3 37.2 L 134.3 29.5 L 133.31898889541625 27.265474700927733 L 130.0 33.3 L 125.2 40.9 L 119.8 48.1 L 113.9 54.9 L 107.4 61.4 L 100.5 67.4 L 93.0 73.0 L 85.0 78.1 L 76.4 82.7 L 76.0 82.03333330154419 L 76.0 129.0 L 66.0 129.0 L 66.0 122.0 L 56.0 122.0 L 56.0 148.0 L 63.1 148.0 L 73.1 138.0 L 85.1 148.0 L 85.1 152.0 L 56.0 152.0 L 56.0 186.0 L 44.0 186.0 L 44.0 152.0 L 14.9 152.0 L 14.9 148.0 L 44.0 148.0 L 44.0 122.0 L 34.1 122.0 L 34.1 130.0 L 22.1 130.0 L 22.1 58.0 L 34.1 64.0 L 44.0 64.0 L 44.0 44.0 L 16.4 44.0 L 16.4 40.0 L 44.0 40.0 L 44.0 14.0 L 56.0 16.0 L 59.0 18.0 L 56.0 19.8 L 56.0 40.0 L 63.1 40.0 L 73.1 30.0 L 85.1 40.0 L 85.1 44.0 L 56.0 44.0 L 56.0 64.0 L 66.0 64.0 L 71.0 59.0 L 81.0 68.0 L 76.0 71.0 L 76.0 80.78219175338745 L 82.8 75.1 L 89.6 68.9 L 96.1 62.6 L 102.0 56.1 L 107.4 49.4 L 112.3 42.6 L 116.7 35.5 L 120.6 28.1 L 124.0 20.6 L 126.61827850341797 13.705199909210204 L 126.6 13.7 L 127.5 11.4 L 138.2 17.0 L 140.3 20.0 L 136.52314414978028 20.66260633468628 L 135.04082527160645 23.900302600860595 L 137.8 27.3 L 143.2 33.8 L 148.5 39.8 L 153.8 45.3 L 159.1 50.4 L 164.6 54.9 L 170.0 58.9 L 175.5 62.4 L 181.1 65.4 L 186.7 68.0 L 192.5 70.7 L 181.2 79.9 L 174.9 76.4 Z M 179.4 166.4 L 167.4 166.4 L 167.4 148.2 L 179.4 148.2 Z M 97.5 166.4 L 85.5 166.4 L 85.5 148.2 L 97.5 148.2 Z M 179.4 145.1 L 167.4 145.1 L 167.4 126.9 L 179.4 126.9 Z M 97.5 145.1 L 85.5 145.1 L 85.5 126.9 L 97.5 126.9 Z M 179.4 123.8 L 167.4 123.8 L 167.4 105.6 L 179.4 105.6 Z M 97.0 123.8 L 86.0 123.8 L 86.0 105.6 L 97.0 105.6 Z M 34.1 95.0 L 34.1 118.0 L 66.0 118.0 L 66.0 95.0 Z M 103.2 88.3 L 97.0 88.3 L 97.0 102.5 L 86.0 102.5 L 86.0 84.3 L 103.2 84.3 Z M 179.4 102.5 L 167.4 102.5 L 167.4 88.3 L 161.7 88.3 L 161.7 84.3 L 179.4 84.3 Z M 34.1 68.0 L 34.1 91.0 L 66.0 91.0 L 66.0 68.0 Z M 155.9 88.3 L 144.2 88.3 L 144.2 84.3 L 155.9 84.3 Z M 138.3 88.3 L 126.6 88.3 L 126.6 84.3 L 138.3 84.3 Z M 120.8 88.3 L 109.1 88.3 L 109.1 84.3 L 120.8 84.3 Z " />
</g>
</svg>
