<svg xmlns="http://www.w3.org/2000/svg" xmlns:xlink="http://www.w3.org/1999/xlink" version="1.1" baseProfile="full" viewBox="0 0 200 200" width="200" height="200">
<g fill="black">
<path d="M 92.8 114.6 L 95.5 117.0 L 92.0465449333191 118.56382865905762 L 90.5 126.7 L 86.9 137.9 L 82.2 148.1 L 76.3 157.2 L 69.3 165.3 L 61.1 172.3 L 51.9 178.2 L 41.7 183.0 L 30.4 186.5 L 18.1 188.8 L 17.8 187.1 L 29.2 182.9 L 39.4 178.1 L 48.5 172.6 L 56.3 166.4 L 63.1 159.6 L 68.7 151.9 L 73.3 143.5 L 76.8 134.3 L 79.4 124.2 L 80.88913040161133 113.37898550033569 L 81.1 111.2 Z M 180.0 148.0 L 182.0 148.0 L 180.0 173.0 L 183.6 175.4 L 186.0 179.0 L 183.6 182.6 L 180.0 185.0 L 127.0 185.0 L 124.4 184.8 L 121.9 184.4 L 119.5 183.6 L 117.2 182.3 L 115.2 180.7 L 113.6 178.7 L 112.3 176.4 L 111.5 174.0 L 111.1 171.5 L 111.0 169.0 L 111.0 111.0 L 123.0 113.0 L 126.0 115.0 L 123.0 116.8 L 123.0 170.2 L 123.2 171.1 L 123.5 172.0 L 123.9 172.4 L 124.8 172.7 L 125.7 172.9 L 127.0 173.0 L 174.0 173.0 Z M 51.7 121.5 L 39.7 127.5 L 39.7 34.5 L 51.7 40.5 L 80.65161294937134 40.5 L 81.6 38.4 L 82.6 35.3 L 83.7 32.2 L 86.7 23.2 L 88.5 17.4 L 89.3 14.5 L 89.76262626647949 12.649494934082032 L 89.6 12.6 L 90.5 10.3 L 101.1 16.1 L 103.2 19.1 L 99.0706298828125 19.740764331817626 L 97.9 21.6 L 96.2 24.4 L 94.4 27.0 L 92.5 29.7 L 90.5 32.3 L 88.4 34.9 L 86.2 37.4 L 83.9 39.9 L 83.37200002670288 40.5 L 148.2 40.5 L 154.2 35.5 L 165.2 44.5 L 160.2 48.5 L 160.2 115.5 L 148.2 121.5 L 148.2 109.5 L 51.7 109.5 Z M 51.7 76.5 L 51.7 105.5 L 94.0 105.5 L 94.0 76.5 Z M 106.0 76.5 L 106.0 105.5 L 148.2 105.5 L 148.2 76.5 Z M 51.7 44.5 L 51.7 72.5 L 94.0 72.5 L 94.0 44.5 Z M 106.0 44.5 L 106.0 72.5 L 148.2 72.5 L 148.2 44.5 Z " />
</g>
</svg>
