<svg xmlns="http://www.w3.org/2000/svg" xmlns:xlink="http://www.w3.org/1999/xlink" version="1.1" baseProfile="full" viewBox="0 0 200 200" width="200" height="200">
<g fill="black">
<path d="M 145.0 176.0 L 159.0 176.0 L 160.2 175.9 L 161.1 175.7 L 162.0 175.4 L 162.4 175.0 L 162.7 174.1 L 162.9 173.2 L 163.0 172.0 L 163.0 91.0 L 106.0 91.0 L 106.0 180.0 L 94.0 186.0 L 94.0 91.0 L 37.0 91.0 L 37.0 183.0 L 25.0 189.0 L 25.0 81.0 L 37.0 87.0 L 94.0 87.0 L 94.0 65.0 L 16.0 65.0 L 16.0 61.0 L 74.0 61.0 L 74.0 12.0 L 86.0 14.0 L 89.0 16.0 L 86.0 17.8 L 86.0 61.0 L 114.0 61.0 L 114.0 12.0 L 126.0 14.0 L 129.0 16.0 L 126.0 17.8 L 126.0 61.0 L 162.0 61.0 L 172.0 51.0 L 184.0 61.0 L 184.0 65.0 L 106.0 65.0 L 106.0 87.0 L 163.0 87.0 L 169.0 82.0 L 180.0 91.0 L 175.0 95.0 L 175.0 172.0 L 174.8 174.5 L 174.4 177.0 L 173.6 179.4 L 172.3 181.7 L 170.7 183.7 L 168.7 185.3 L 166.4 186.6 L 164.0 187.4 L 161.5 187.8 L 159.0 188.0 L 159.0 182.0 L 145.0 179.0 Z M 155.5 151.2 L 155.5 155.2 L 112.9 155.2 L 112.9 151.2 L 137.3181818008423 151.2 L 145.5 142.2 Z M 87.5 151.2 L 87.5 155.2 L 44.9 155.2 L 44.9 151.2 L 69.31818180084228 151.2 L 77.5 142.2 Z M 155.5 120.2 L 155.5 124.2 L 112.9 124.2 L 112.9 120.2 L 137.3181818008423 120.2 L 145.5 111.2 Z M 87.5 120.2 L 87.5 124.2 L 44.9 124.2 L 44.9 120.2 L 69.31818180084228 120.2 L 77.5 111.2 Z M 171.5 23.9 L 173.1 27.2 L 169.17058820724486 27.2 L 169.1 27.3 L 166.5 30.6 L 161.1 37.4 L 158.2 40.8 L 155.2 44.2 L 152.0 47.6 L 148.8 50.9 L 145.3 54.2 L 141.7 57.5 L 140.2 56.4 L 142.6 52.1 L 144.8 47.9 L 147.0 43.9 L 149.3 39.9 L 151.5 36.0 L 153.6 32.2 L 157.6 24.8 L 159.5 21.2 L 160.87032012939454 18.5354887008667 L 160.8 18.5 L 161.8 16.8 Z M 41.5 44.2 L 40.6 41.2 L 39.5 38.2 L 38.0 35.2 L 36.3 32.1 L 34.2 28.9 L 31.9 25.7 L 29.3 22.4 L 26.2 19.3 L 27.3 17.8 L 31.2 20.1 L 35.0 22.4 L 38.5 24.9 L 41.6 27.7 L 44.5 30.6 L 47.1 33.7 L 49.3 37.0 L 51.3 40.4 L 52.9 44.0 L 54.2 47.8 L 53.3 52.3 L 49.5 54.9 L 45.1 54.0 L 42.5 50.2 L 42.1 47.2 Z " />
</g>
</svg>
