<svg xmlns="http://www.w3.org/2000/svg" xmlns:xlink="http://www.w3.org/1999/xlink" version="1.1" baseProfile="full" viewBox="0 0 200 200" width="200" height="200">
<g fill="black">
<path d="M 133.7 178.0 L 153.7 178.0 L 154.9 177.9 L 155.9 177.8 L 156.4 177.6 L 156.8 177.4 L 157.0 177.2 L 157.1 177.0 L 157.3 176.7 L 157.5 176.1 L 157.6 175.2 L 157.7 174.0 L 157.7 95.4 L 106.0 95.4 L 106.0 178.8 L 94.0 184.8 L 94.0 95.4 L 41.2 95.4 L 41.2 183.4 L 29.2 189.4 L 29.2 85.4 L 41.2 91.4 L 94.0 91.4 L 94.0 66.9 L 71.0 66.9 L 71.0 73.9 L 59.0 79.9 L 59.0 42.9 L 19.0 42.9 L 19.0 38.9 L 59.0 38.9 L 59.0 13.0 L 71.0 15.0 L 74.0 17.0 L 71.0 18.8 L 71.0 38.9 L 127.0 38.9 L 127.0 13.0 L 139.0 15.0 L 142.0 17.0 L 139.0 18.8 L 139.0 38.9 L 160.0 38.9 L 170.0 28.9 L 182.0 38.9 L 182.0 42.9 L 139.0 42.9 L 139.0 70.9 L 127.0 76.9 L 127.0 66.9 L 106.0 66.9 L 106.0 91.4 L 157.7 91.4 L 163.7 86.4 L 174.7 95.4 L 169.7 99.4 L 169.7 174.0 L 169.6 176.5 L 169.1 179.0 L 168.3 181.4 L 167.1 183.7 L 165.5 185.7 L 163.4 187.4 L 161.2 188.6 L 158.8 189.4 L 156.3 189.8 L 153.7 190.0 L 153.7 184.0 L 133.7 181.0 Z M 44.7 156.2 L 49.0 154.2 L 57.6 150.4 L 62.1 148.4 L 66.5 146.5 L 71.0 144.6 L 80.2 141.0 L 84.9 139.4 L 89.8 138.0 L 90.6 139.5 L 86.7 142.7 L 82.6 145.7 L 78.6 148.5 L 74.5 151.3 L 70.5 153.9 L 66.4 156.6 L 62.4 159.2 L 54.4 164.2 L 53.92906112670899 164.50611028671264 L 53.6 168.4 L 50.4 166.8 L 42.9 157.1 Z M 143.2 161.2 L 141.0 159.3 L 138.3 157.1 L 135.0 154.8 L 131.1 152.3 L 126.7 149.6 L 121.7 146.8 L 116.3 143.6 L 110.3 140.4 L 111.0 138.7 L 117.6 140.4 L 123.7 142.2 L 129.3 143.9 L 134.3 145.7 L 138.9 147.5 L 142.9 149.3 L 146.5 151.0 L 149.6 152.8 L 152.3 154.6 L 154.7 156.6 L 156.0 161.0 L 153.8 165.1 L 149.4 166.3 L 145.4 164.2 L 144.6 162.9 Z M 74.3 123.5 L 73.0 121.9 L 71.1 119.9 L 68.7 117.8 L 65.8 115.5 L 62.3 113.1 L 58.4 110.4 L 54.1 107.6 L 49.2 104.8 L 49.9 103.1 L 55.3 104.9 L 60.4 106.4 L 65.0 108.0 L 69.1 109.6 L 72.8 111.1 L 76.1 112.7 L 79.0 114.3 L 81.6 116.0 L 83.8 117.9 L 85.7 120.1 L 86.0 124.7 L 83.1 128.2 L 78.6 128.6 L 75.0 125.7 L 75.0 124.9 Z M 148.40851068496704 103.69949340820312 L 153.6 109.2 L 153.8 112.6 L 149.88669729232788 110.95229358673096 L 147.4 112.1 L 144.3 113.4 L 140.9 114.8 L 137.0 116.5 L 132.6 118.3 L 127.9 120.2 L 122.6 122.3 L 116.9 124.4 L 110.8 126.7 L 109.9 125.2 L 115.3 121.4 L 120.3 117.9 L 124.9 114.8 L 129.2 111.9 L 133.0 109.3 L 136.5 106.9 L 139.5 104.8 L 142.1 102.9 L 144.3 101.2 L 145.2725312232971 100.39909191131592 L 145.2 100.3 L 145.284343624115 100.38936405181884 L 146.0 99.8 Z M 71.0 42.9 L 71.0 62.9 L 127.0 62.9 L 127.0 42.9 Z " />
</g>
</svg>
