<svg xmlns="http://www.w3.org/2000/svg" xmlns:xlink="http://www.w3.org/1999/xlink" version="1.1" baseProfile="full" viewBox="0 0 200 200" width="200" height="200">
<g fill="black">
<path d="M 87.5 115.5 L 89.9 118.2 L 86.18536205291748 119.26132507324219 L 83.9 125.8 L 79.3 135.5 L 73.9 144.6 L 67.6 153.0 L 60.5 160.6 L 52.5 167.6 L 43.6 173.8 L 34.0 179.3 L 23.5 184.0 L 12.3 187.8 L 11.6 186.1 L 21.9 180.5 L 31.3 174.7 L 39.8 168.5 L 47.5 161.8 L 54.3 154.8 L 60.3 147.2 L 65.4 139.3 L 69.7 130.8 L 73.2 121.8 L 75.63939723968505 113.30728349685668 L 75.6 113.3 L 76.3 110.7 Z M 182.0 146.0 L 184.0 146.0 L 182.0 171.0 L 185.6 173.4 L 188.0 177.0 L 185.6 180.6 L 182.0 183.0 L 116.0 183.0 L 113.4 182.8 L 110.9 182.4 L 108.5 181.6 L 106.2 180.3 L 104.2 178.7 L 102.6 176.7 L 101.3 174.4 L 100.5 172.0 L 100.1 169.5 L 100.0 167.0 L 100.0 112.0 L 112.0 114.0 L 115.0 116.0 L 112.0 117.8 L 112.0 168.2 L 112.2 169.1 L 112.5 170.0 L 112.9 170.4 L 113.8 170.7 L 114.7 170.9 L 116.0 171.0 L 176.0 171.0 Z M 161.3 156.7 L 160.6 154.8 L 159.7 152.8 L 159.35667037963867 152.17056226730347 L 155.2 153.4 L 148.9 155.3 L 143.1 157.0 L 137.9 158.4 L 133.3 159.7 L 129.3 160.9 L 125.9 161.9 L 123.92422323226928 162.48541536331177 L 122.1 166.7 L 119.6 164.1 L 115.4 152.7 L 117.4 152.3 L 121.3 152.3 L 124.2 152.1 L 126.83718662261963 151.94930362701416 L 127.1 151.3 L 128.7 147.2 L 130.2 143.2 L 131.7 139.4 L 133.1 135.7 L 134.5 132.2 L 135.7 128.8 L 136.9 125.5 L 138.0 122.3 L 138.61789979934693 120.24033412933349 L 138.5 120.2 L 138.85135135650634 119.46216220855713 L 138.9 119.3 L 138.92365589141846 119.31032257080078 L 139.5 118.1 L 149.9 124.1 L 151.8 127.2 L 147.78409090042115 127.69318180084228 L 146.4 130.0 L 142.4 136.2 L 140.2 139.4 L 137.8 142.7 L 135.3 146.1 L 132.7 149.5 L 130.849502658844 151.66954860687255 L 131.8 151.6 L 136.6 151.3 L 142.0 150.8 L 148.0 150.4 L 154.7 150.0 L 158.04170408248902 149.8143497467041 L 157.1 148.2 L 155.4 145.6 L 153.4 142.9 L 151.3 140.0 L 148.7 137.3 L 149.8 135.9 L 153.0 138.1 L 156.2 139.9 L 159.1 141.8 L 161.8 143.7 L 164.2 145.6 L 166.4 147.5 L 168.4 149.5 L 170.2 151.4 L 171.8 153.5 L 173.1 155.6 L 172.8 160.2 L 169.5 163.3 L 164.9 163.0 L 161.8 159.7 L 161.7 158.3 Z M 48.8 119.1 L 36.8 125.1 L 36.8 29.5 L 48.8 35.5 L 95.5 35.5 L 95.5 8.6 L 107.5 10.6 L 110.5 12.6 L 107.5 14.4 L 107.5 35.5 L 154.1 35.5 L 160.1 30.5 L 171.1 39.5 L 166.1 43.5 L 166.1 113.1 L 154.1 119.1 L 154.1 107.1 L 48.8 107.1 Z M 48.8 72.4 L 48.8 103.1 L 95.5 103.1 L 95.5 72.4 Z M 107.5 72.4 L 107.5 103.1 L 154.1 103.1 L 154.1 72.4 Z M 48.8 39.5 L 48.8 68.4 L 95.5 68.4 L 95.5 39.5 Z M 107.5 39.5 L 107.5 68.4 L 154.1 68.4 L 154.1 39.5 Z " />
</g>
</svg>
