<svg xmlns="http://www.w3.org/2000/svg" xmlns:xlink="http://www.w3.org/1999/xlink" version="1.1" baseProfile="full" viewBox="0 0 200 200" width="200" height="200">
<g fill="black">
<path d="M 162.0 184.0 L 167.0 184.0 L 167.0 170.0 L 179.0 170.0 L 179.0 188.0 L 162.0 188.0 Z M 86.0 170.0 L 98.0 170.0 L 98.0 184.0 L 103.0 184.0 L 103.0 188.0 L 86.0 188.0 Z M 121.0 188.0 L 109.0 188.0 L 109.0 184.0 L 121.0 184.0 Z M 138.0 188.0 L 127.0 188.0 L 127.0 184.0 L 138.0 184.0 Z M 156.0 188.0 L 144.0 188.0 L 144.0 184.0 L 156.0 184.0 Z M 56.0 16.0 L 59.0 18.0 L 56.0 19.8 L 56.0 40.0 L 63.1 40.0 L 73.1 30.0 L 85.1 40.0 L 85.1 44.0 L 56.0 44.0 L 56.0 64.0 L 66.0 64.0 L 71.0 59.0 L 81.0 68.0 L 76.0 71.0 L 76.0 129.0 L 66.0 129.0 L 66.0 122.0 L 56.0 122.0 L 56.0 148.0 L 63.1 148.0 L 73.1 138.0 L 85.1 148.0 L 85.1 152.0 L 56.0 152.0 L 56.0 186.0 L 44.0 186.0 L 44.0 152.0 L 14.9 152.0 L 14.9 148.0 L 44.0 148.0 L 44.0 122.0 L 34.1 122.0 L 34.1 130.0 L 22.1 130.0 L 22.1 58.0 L 34.1 64.0 L 44.0 64.0 L 44.0 44.0 L 16.4 44.0 L 16.4 40.0 L 44.0 40.0 L 44.0 14.0 Z M 98.0 166.0 L 86.0 166.0 L 86.0 148.0 L 98.0 148.0 Z M 179.0 166.0 L 167.0 166.0 L 167.0 148.0 L 179.0 148.0 Z M 179.0 145.0 L 167.0 145.0 L 167.0 127.0 L 179.0 127.0 Z M 98.0 145.0 L 86.0 145.0 L 86.0 127.0 L 98.0 127.0 Z M 179.0 124.0 L 167.0 124.0 L 167.0 106.0 L 179.0 106.0 Z M 97.5 124.0 L 86.5 124.0 L 86.5 106.0 L 97.5 106.0 Z M 34.1 95.0 L 34.1 118.0 L 66.0 118.0 L 66.0 95.0 Z M 103.0 88.0 L 97.5 88.0 L 97.5 103.0 L 86.5 103.0 L 86.5 84.0 L 103.0 84.0 Z M 179.0 103.0 L 167.0 103.0 L 167.0 88.0 L 162.0 88.0 L 162.0 84.0 L 179.0 84.0 Z M 34.1 68.0 L 34.1 91.0 L 66.0 91.0 L 66.0 68.0 Z M 121.0 88.0 L 109.0 88.0 L 109.0 84.0 L 121.0 84.0 Z M 156.0 88.0 L 144.0 88.0 L 144.0 84.0 L 156.0 84.0 Z M 138.0 88.0 L 127.0 88.0 L 127.0 84.0 L 138.0 84.0 Z M 167.4 76.7 L 163.4 73.2 L 159.5 69.5 L 155.8 65.6 L 152.4 61.4 L 149.1 57.0 L 146.0 52.3 L 143.3 47.4 L 141.2981481552124 42.7 L 128.30909090042115 42.7 L 127.6 44.0 L 122.8 51.2 L 117.5 58.0 L 111.6 64.3 L 105.2 70.2 L 98.2 75.5 L 90.7 80.3 L 82.6 84.4 L 81.7 82.8 L 88.5 77.2 L 94.8 71.4 L 100.6 65.4 L 106.0 59.3 L 110.7 52.8 L 115.0 46.2 L 116.9 42.7 L 85.7 42.7 L 85.7 38.7 L 119.01917810440064 38.7 L 122.0 31.9 L 124.7 24.3 L 126.70838489532471 17.401634311676027 L 126.7 17.4 L 126.86470584869384 16.86470584869385 L 127.0 16.4 L 127.00706825256347 16.402028274536132 L 127.5 14.8 L 138.5 19.7 L 140.9 22.5 L 137.11561641693115 23.495890426635743 L 135.4 28.2 L 131.8 36.3 L 130.49090909957886 38.7 L 157.3 38.7 L 167.3 28.7 L 179.3 38.7 L 179.3 42.7 L 144.3307692527771 42.7 L 146.7 44.9 L 150.6 48.6 L 154.5 52.2 L 158.4 55.6 L 162.3 58.8 L 166.2 61.8 L 170.2 64.5 L 174.2 67.0 L 178.3 69.3 L 182.5 71.4 L 187.2 74.1 L 176.0 82.9 L 171.6 79.9 Z " />
</g>
</svg>
