<svg xmlns="http://www.w3.org/2000/svg" xmlns:xlink="http://www.w3.org/1999/xlink" version="1.1" baseProfile="full" viewBox="0 0 200 200" width="200" height="200">
<g fill="black">
<path d="M 145.74496641159058 111.9530200958252 L 145.26708698272705 119.36015129089355 L 147.1 129.2 L 149.5 138.4 L 152.6 146.7 L 156.4 154.1 L 160.7 160.6 L 165.7 166.3 L 171.4 171.3 L 177.7 175.5 L 184.8 179.0 L 190.5 181.7 L 179.1 190.9 L 171.0 186.0 L 163.8 180.3 L 157.5 173.7 L 152.3 166.4 L 148.0 158.3 L 144.8 149.5 L 142.5 140.1 L 142.1219055175781 136.9177043914795 L 140.7 142.5 L 137.1 152.3 L 132.4 161.0 L 126.8 168.8 L 120.2 175.5 L 112.8 181.1 L 104.4 185.6 L 95.3 188.8 L 94.6 187.1 L 102.6 182.2 L 109.5 176.8 L 115.6 170.9 L 120.7 164.2 L 125.0 156.9 L 128.4 148.8 L 131.1 139.9 L 132.9 130.1 L 133.8 119.5 L 134.0 108.0 L 134.0 105.6 L 146.0 108.0 L 149.0 110.0 Z M 106.3 110.2 L 107.6 113.6 L 103.8245283126831 113.33962268829346 L 102.2 115.4 L 97.9 120.4 L 93.4 125.3 L 88.7 130.0 L 85.18888893127442 133.3648148536682 L 89.0 134.0 L 92.0 136.0 L 89.0 137.8 L 89.0 184.0 L 77.0 190.0 L 77.0 140.4884614944458 L 73.6 143.3 L 68.2 147.4 L 62.5 151.2 L 56.5 154.7 L 55.4 153.2 L 60.1 148.2 L 64.6 143.3 L 69.1 138.5 L 73.5 133.6 L 77.7 128.7 L 81.8 123.8 L 85.7 118.8 L 89.5 113.7 L 93.1 108.5 L 95.95560007095337 104.13261156082153 L 95.9 104.1 L 97.0 102.6 Z M 70.1 109.4 L 71.2 112.8 L 67.48855600357055 112.3520670890808 L 65.5 114.6 L 60.7 119.6 L 55.7 124.6 L 50.4 129.4 L 45.91359519958496 133.15226583480836 L 51.0 134.0 L 54.0 136.0 L 51.0 137.8 L 51.0 184.0 L 39.0 190.0 L 39.0 138.64666662216186 L 33.2 142.9 L 26.9 147.1 L 20.3 151.0 L 13.5 154.7 L 12.4 153.2 L 18.1 148.0 L 23.6 142.9 L 29.0 137.8 L 34.2 132.8 L 39.2 127.8 L 43.9 122.7 L 48.4 117.6 L 52.7 112.5 L 56.8 107.3 L 60.05987110137939 102.83912372589111 L 60.0 102.8 L 61.0 101.5 Z M 19.8 87.9 L 25.9 87.0 L 32.2 86.1 L 38.0 85.284375 L 38.0 27.0 L 18.0 27.0 L 18.0 23.0 L 95.81818180084228 23.0 L 104.0 14.0 L 114.0 23.0 L 114.0 27.0 L 94.0 27.0 L 94.0 101.0 L 82.0 107.0 L 82.0 83.86197185516357 L 81.0 84.2 L 73.9 86.3 L 67.0 88.3 L 60.2 90.1 L 53.5 91.8 L 46.9 93.5 L 40.5 95.1 L 34.2 96.7 L 28.1 98.2 L 26.08305082321167 98.70423727035522 L 24.6 102.2 L 22.1 99.7 L 17.8 88.2 Z M 163.1 84.2 L 157.9 79.4 L 152.3 74.9 L 148.10459604263306 71.89329385757446 L 145.2 74.4 L 137.4 80.1 L 129.2 85.1 L 120.4 89.4 L 111.0 93.0 L 101.3 95.8 L 100.6 94.1 L 109.5 89.5 L 117.9 84.7 L 125.7 79.5 L 132.9 74.0 L 139.7 68.0 L 140.67324495315552 66.99536008834839 L 139.9 66.5 L 133.2 62.7 L 126.0 59.1 L 118.5 55.5 L 110.7 52.1 L 111.2 50.4 L 119.7 51.9 L 128.0 54.1 L 135.9 56.7 L 143.4 59.8 L 146.24030027389526 61.18070154190063 L 151.5 54.7 L 156.7 47.4 L 161.4 39.6 L 163.22168674468995 36.0 L 107.0 36.0 L 107.0 32.0 L 165.0 32.0 L 165.425 31.64583330154419 L 165.6 31.3 L 165.75052757263182 31.374560356140137 L 171.0 27.0 L 182.0 36.0 L 177.0 39.0 L 174.24344568252565 40.14856433868408 L 171.2 45.4 L 165.5 53.6 L 159.3 61.1 L 154.83664798736572 65.6946270942688 L 157.5 67.2 L 164.0 71.5 L 170.2 76.2 L 176.0 81.3 L 181.5 86.8 L 182.9 91.1 L 180.9 95.2 L 176.6 96.6 L 172.5 94.6 L 168.0 89.3 Z M 50.0 66.0 L 50.0 83.75522384643554 L 51.9 83.5 L 58.8 82.6 L 65.8 81.8 L 72.9 81.1 L 80.3 80.5 L 82.0 80.40933332443237 L 82.0 66.0 Z M 50.0 47.0 L 50.0 62.0 L 82.0 62.0 L 82.0 47.0 Z M 50.0 27.0 L 50.0 43.0 L 82.0 43.0 L 82.0 27.0 Z " />
</g>
</svg>
