<svg xmlns="http://www.w3.org/2000/svg" xmlns:xlink="http://www.w3.org/1999/xlink" version="1.1" baseProfile="full" viewBox="0 0 200 200" width="200" height="200">
<g fill="black">
<path d="M 182.0 147.0 L 184.0 147.0 L 182.0 172.0 L 185.6 174.4 L 188.0 178.0 L 185.6 181.6 L 182.0 184.0 L 116.0 184.0 L 113.4 183.8 L 110.9 183.4 L 108.5 182.6 L 106.2 181.3 L 104.2 179.7 L 102.6 177.7 L 101.3 175.4 L 100.5 173.0 L 100.1 170.5 L 100.0 168.0 L 100.0 115.19298248291015 L 98.82254238128662 115.46152544021606 L 95.7 123.2 L 90.0 133.9 L 83.5 143.7 L 75.9 152.7 L 67.5 160.8 L 58.2 168.0 L 48.0 174.4 L 36.9 179.9 L 25.0 184.3 L 12.2 187.8 L 11.7 186.1 L 23.6 180.8 L 34.5 175.1 L 44.5 168.8 L 53.6 162.0 L 61.7 154.6 L 68.9 146.6 L 75.2 137.9 L 80.7 128.6 L 85.2 118.7 L 87.86261682510376 111.0 L 49.0 111.0 L 49.0 123.0 L 37.0 129.0 L 37.0 45.0 L 49.0 51.0 L 96.0 51.0 L 96.0 15.0 L 108.0 17.0 L 111.0 19.0 L 108.0 20.8 L 108.0 51.0 L 154.0 51.0 L 160.0 46.0 L 171.0 55.0 L 166.0 59.0 L 166.0 117.0 L 154.0 123.0 L 154.0 111.0 L 98.65471696853638 111.0 L 100.3 111.8 L 102.6 114.6 L 100.48888893127442 115.08148145675659 L 112.0 117.0 L 115.0 119.0 L 112.0 120.8 L 112.0 169.2 L 112.2 170.1 L 112.5 171.0 L 112.9 171.4 L 113.8 171.7 L 114.7 171.9 L 116.0 172.0 L 176.0 172.0 Z M 161.3 158.3 L 160.7 156.5 L 159.8 154.5 L 159.45753898620606 153.9006932258606 L 155.2 155.1 L 148.8 157.0 L 143.0 158.6 L 137.8 160.0 L 133.2 161.3 L 129.3 162.4 L 125.9 163.4 L 123.88279848098755 163.99768934249877 L 122.1 168.2 L 119.6 165.6 L 115.4 154.2 L 117.4 153.8 L 121.3 153.8 L 124.2 153.7 L 126.96197280883788 153.54217300415038 L 127.2 153.0 L 128.7 148.9 L 130.2 145.0 L 131.7 141.3 L 133.2 137.8 L 134.5 134.3 L 135.8 131.0 L 136.9 127.8 L 138.0 124.7 L 138.60883798599244 122.73818874359131 L 138.5 122.7 L 138.84653463363648 121.97227725982665 L 138.9 121.8 L 138.92357139587403 121.81049995422363 L 139.5 120.6 L 149.9 126.7 L 151.8 129.8 L 147.7486120223999 130.288960647583 L 144.4 135.4 L 142.3 138.5 L 140.1 141.6 L 137.8 144.7 L 135.3 148.0 L 132.7 151.3 L 130.91975507736205 153.2644082069397 L 131.8 153.2 L 136.6 152.8 L 142.0 152.5 L 148.0 152.0 L 154.7 151.7 L 158.0478476524353 151.51655626296997 L 157.1 150.0 L 155.4 147.5 L 153.5 144.9 L 151.3 142.1 L 148.7 139.4 L 149.8 138.0 L 152.9 140.1 L 156.1 141.9 L 159.1 143.7 L 161.7 145.5 L 164.1 147.4 L 166.4 149.2 L 168.3 151.0 L 170.1 152.9 L 171.7 154.9 L 173.1 157.0 L 172.8 161.5 L 169.5 164.7 L 165.0 164.5 L 161.8 161.2 L 161.7 159.9 Z M 49.0 82.0 L 49.0 107.0 L 89.23999996185303 107.0 L 89.4 106.5 L 90.42830190658569 107.0 L 96.0 107.0 L 96.0 82.0 Z M 108.0 82.0 L 108.0 107.0 L 154.0 107.0 L 154.0 82.0 Z M 49.0 55.0 L 49.0 78.0 L 96.0 78.0 L 96.0 55.0 Z M 108.0 55.0 L 108.0 78.0 L 154.0 78.0 L 154.0 55.0 Z M 160.3 24.1 L 160.8 27.7 L 157.0035587310791 26.547508907318115 L 154.5 28.3 L 151.4 30.4 L 148.2 32.6 L 144.8 34.8 L 141.3 37.1 L 137.6 39.3 L 133.7 41.6 L 129.7 43.8 L 125.5 46.1 L 124.4 44.6 L 127.7 41.2 L 130.8 37.8 L 133.9 34.6 L 139.7 28.6 L 142.5 25.7 L 145.1 23.0 L 147.6 20.3 L 149.9 17.7 L 151.48443202972413 15.97779130935669 L 151.4 15.9 L 151.99090909957886 15.427272701263428 L 152.2 15.2 L 152.23159952163695 15.234720420837402 L 152.4 15.1 Z M 66.4 37.1 L 65.1 34.9 L 63.6 32.7 L 61.9 30.5 L 59.9 28.3 L 57.7 26.0 L 55.2 23.8 L 52.5 21.4 L 49.5 19.4 L 50.2 17.8 L 53.8 19.0 L 57.3 20.1 L 60.7 21.5 L 63.8 23.0 L 66.8 24.7 L 69.5 26.5 L 72.1 28.5 L 74.5 30.7 L 76.7 33.0 L 78.7 35.6 L 79.2 40.1 L 76.4 43.7 L 71.9 44.2 L 68.2 41.4 L 67.4 39.2 Z " />
</g>
</svg>
