<svg xmlns="http://www.w3.org/2000/svg" xmlns:xlink="http://www.w3.org/1999/xlink" version="1.1" baseProfile="full" viewBox="0 0 200 200" width="200" height="200">
<g fill="black">
<path d="M 83.0 92.0 L 157.0 92.0 L 163.0 87.0 L 174.0 96.0 L 169.0 100.0 L 169.0 178.0 L 157.0 184.0 L 157.0 174.0 L 83.0 174.0 L 83.0 181.0 L 71.0 187.0 L 71.0 86.0 Z M 41.0 89.0 L 44.0 91.0 L 41.0 92.8 L 41.0 179.0 L 29.0 185.0 L 29.0 87.0 Z M 83.0 134.0 L 83.0 170.0 L 157.0 170.0 L 157.0 134.0 Z M 83.0 96.0 L 83.0 130.0 L 157.0 130.0 L 157.0 96.0 Z M 164.3 44.9 L 166.5 47.7 L 162.71763343811034 48.496287727355956 L 162.1 49.9 L 159.8 54.7 L 157.3 59.4 L 154.6 63.8 L 151.8 68.1 L 148.7 72.1 L 145.5 75.9 L 142.1 79.5 L 138.5 82.7 L 134.6 85.6 L 133.3 84.3 L 135.7 80.3 L 138.0 76.2 L 142.4 68.0 L 144.5 63.8 L 146.4 59.5 L 148.3 55.0 L 149.9 50.5 L 151.5 45.8 L 152.68704509735107 41.92231922149658 L 152.6 41.9 L 153.5 39.5 Z M 51.8 71.0 L 50.7 68.0 L 49.4 65.0 L 47.8 62.0 L 45.9 59.0 L 43.9 55.8 L 41.6 52.7 L 39.1 49.4 L 36.2 46.3 L 37.3 44.9 L 41.0 47.1 L 44.7 49.4 L 48.1 51.8 L 51.2 54.5 L 54.1 57.3 L 56.7 60.2 L 59.1 63.3 L 61.2 66.5 L 63.1 69.8 L 64.8 73.3 L 64.3 77.8 L 60.9 80.8 L 56.3 80.4 L 53.3 76.9 L 52.7 74.0 Z M 98.0 63.8 L 97.2 61.2 L 96.3 58.6 L 94.1 53.4 L 92.8 50.9 L 91.4 48.3 L 90.0 45.6 L 88.1 43.3 L 89.3 42.0 L 91.8 43.8 L 94.5 45.5 L 97.0 47.5 L 99.3 49.6 L 101.5 51.8 L 103.6 54.2 L 105.6 56.8 L 107.4 59.4 L 109.1 62.2 L 110.6 65.1 L 110.3 69.7 L 106.9 72.8 L 102.4 72.5 L 99.3 69.1 L 98.7 66.4 Z M 166.80447282791138 13.866214084625245 L 176.6 22.0 L 176.9 25.1 L 172.57404375076294 23.15027322769165 L 169.6 24.0 L 155.8 27.3 L 141.9 30.2 L 127.7 32.7 L 113.3 34.8 L 98.8 36.5 L 84.0 37.7 L 69.0 38.5 L 53.8 38.9 L 38.5 38.7 L 23.0 37.9 L 23.0 36.1 L 38.4 34.9 L 53.6 33.5 L 68.5 32.0 L 83.2 30.2 L 97.7 28.1 L 111.9 25.6 L 125.9 22.8 L 139.6 19.7 L 153.1 16.3 L 166.4 12.4 Z " />
</g>
</svg>
