<svg xmlns="http://www.w3.org/2000/svg" xmlns:xlink="http://www.w3.org/1999/xlink" version="1.1" baseProfile="full" viewBox="0 0 200 200" width="200" height="200">
<g fill="black">
<path d="M 151.0 185.0 L 151.0 181.0 L 166.0 181.0 L 166.0 168.0 L 178.0 168.0 L 178.0 185.0 Z M 36.0 181.0 L 50.0 181.0 L 50.0 185.0 L 24.0 185.0 L 24.0 168.0 L 36.0 168.0 Z M 80.0 185.0 L 61.0 185.0 L 61.0 181.0 L 80.0 181.0 Z M 110.0 185.0 L 91.0 185.0 L 91.0 181.0 L 110.0 181.0 Z M 140.0 185.0 L 121.0 185.0 L 121.0 181.0 L 140.0 181.0 Z M 178.0 132.0 L 178.0 167.0 L 166.0 167.0 L 166.0 132.0 Z M 36.0 132.0 L 36.0 167.0 L 24.0 167.0 L 24.0 132.0 Z M 178.0 130.0 L 166.0 130.0 L 166.0 114.0 L 178.0 114.0 Z M 36.0 130.0 L 24.0 130.0 L 24.0 114.0 L 36.0 114.0 Z M 50.0 101.0 L 36.0 101.0 L 36.0 112.0 L 24.0 112.0 L 24.0 97.05500001907349 L 13.3 100.8 L 12.6 99.1 L 23.7 93.2 L 34.0 87.1 L 43.5 80.7 L 52.1 74.1 L 59.9 67.0 L 61.87910451889038 64.90616483688355 L 60.8 65.0 L 57.2 62.2 L 56.9 60.7 L 56.2 59.2 L 55.4 57.5 L 54.3 55.6 L 52.9 53.7 L 51.3 51.7 L 49.4 49.7 L 47.4 47.5 L 45.1 45.2 L 44.54858245849609 44.791542530059814 L 42.4 46.8 L 37.5 50.9 L 32.2 54.8 L 26.6 58.4 L 20.5 61.7 L 19.4 60.2 L 24.2 55.4 L 28.8 50.7 L 33.0 46.1 L 37.0 41.5 L 40.7 36.9 L 44.0 32.2 L 47.0 27.6 L 47.0 27.0 L 47.344680881500246 27.0 L 49.7 22.9 L 52.0 18.1 L 54.1 13.3 L 54.12379913330078 13.311135387420654 L 54.6 12.2 L 65.0 18.4 L 66.9 21.4 L 63.028421020507814 21.86725950241089 L 62.1 23.5 L 59.78999996185303 27.0 L 86.0 27.0 L 92.0 22.0 L 103.0 31.0 L 98.0 34.0 L 95.62519340515136 34.98950271606445 L 92.8 40.7 L 87.2 49.7 L 80.8 58.2 L 73.6 66.0 L 65.5 73.4 L 56.7 80.1 L 47.0 86.2 L 36.6 91.8 L 25.3 96.6 L 24.15714282989502 97.0 L 50.0 97.0 Z M 166.0 112.0 L 166.0 101.0 L 151.0 101.0 L 151.0 97.0 L 178.0 97.0 L 178.0 112.0 Z M 140.0 101.0 L 121.0 101.0 L 121.0 97.0 L 140.0 97.0 Z M 110.0 101.0 L 91.0 101.0 L 91.0 97.0 L 110.0 97.0 Z M 80.0 101.0 L 61.0 101.0 L 61.0 97.0 L 80.0 97.0 Z M 131.0 48.0 L 151.0 48.0 L 152.2 47.9 L 153.1 47.7 L 154.0 47.4 L 154.4 47.0 L 154.7 46.1 L 154.9 45.2 L 155.0 44.0 L 155.0 27.0 L 120.0 27.0 L 120.0 62.0 L 119.9 63.2 L 120.0 64.1 L 120.1 64.8 L 120.3 65.6 L 120.5 65.9 L 120.9 66.2 L 121.6 66.5 L 122.6 66.8 L 124.0 67.0 L 176.0 67.0 L 181.0 50.0 L 183.0 50.0 L 181.0 67.0 L 184.0 69.0 L 186.0 72.0 L 184.0 75.0 L 181.0 77.0 L 124.0 77.0 L 121.5 76.9 L 119.1 76.6 L 116.8 75.9 L 114.6 74.8 L 112.6 73.3 L 110.9 71.5 L 109.6 69.3 L 108.7 67.0 L 108.2 64.5 L 108.0 62.0 L 108.0 17.0 L 120.0 23.0 L 155.0 23.0 L 161.0 18.0 L 172.0 27.0 L 167.0 31.0 L 167.0 44.0 L 166.8 46.5 L 166.4 49.0 L 165.6 51.4 L 164.3 53.7 L 162.7 55.7 L 160.7 57.3 L 158.4 58.6 L 156.0 59.4 L 153.5 59.8 L 151.0 60.0 L 151.0 54.0 L 131.0 51.0 Z M 56.925 31.0 L 55.2 33.3 L 51.3 38.0 L 47.0 42.5 L 46.371775436401364 43.087253379821775 L 46.4 43.1 L 49.5 44.2 L 52.5 45.4 L 55.2 46.7 L 57.7 48.1 L 60.1 49.6 L 62.3 51.1 L 64.3 52.8 L 66.1 54.5 L 67.8 56.4 L 67.95966606140136 58.236159324645996 L 72.9 52.0 L 78.2 43.9 L 82.7 35.5 L 84.59204549789429 31.0 Z " />
</g>
</svg>
