<svg xmlns="http://www.w3.org/2000/svg" xmlns:xlink="http://www.w3.org/1999/xlink" version="1.1" baseProfile="full" viewBox="0 0 200 200" width="200" height="200">
<g fill="black">
<path d="M 104.0 176.0 L 124.0 176.0 L 125.2 175.9 L 126.1 175.8 L 126.7 175.6 L 127.0 175.4 L 127.2 175.2 L 127.4 175.1 L 127.5 174.7 L 127.7 174.1 L 127.9 173.2 L 128.0 172.0 L 128.0 142.0 L 19.0 142.0 L 19.0 138.0 L 128.0 138.0 L 128.0 119.2 L 140.0 121.2 L 143.0 123.2 L 140.0 125.0 L 140.0 138.0 L 158.0 138.0 L 168.0 128.0 L 180.0 138.0 L 180.0 142.0 L 140.0 142.0 L 140.0 172.0 L 139.8 174.5 L 139.4 177.0 L 138.6 179.4 L 137.3 181.7 L 135.7 183.7 L 133.7 185.4 L 131.4 186.6 L 129.0 187.4 L 126.5 187.8 L 124.0 188.0 L 124.0 182.0 L 104.0 179.0 Z M 72.9 169.5 L 71.6 166.8 L 70.1 164.2 L 68.5 161.6 L 66.8 159.1 L 64.9 156.6 L 62.9 154.2 L 60.8 151.7 L 58.3 149.5 L 59.3 148.0 L 62.3 149.4 L 65.5 150.8 L 68.5 152.5 L 71.4 154.3 L 74.1 156.4 L 76.8 158.7 L 79.3 161.1 L 81.6 163.8 L 83.8 166.6 L 85.9 169.6 L 86.2 174.1 L 83.3 177.7 L 78.8 178.0 L 75.2 175.1 L 74.1 172.2 Z M 156.3 118.7 L 153.5 115.9 L 150.8 113.1 L 149.05060729980468 111.59190282821655 L 141.5 112.8 L 129.0 114.6 L 104.0 117.6 L 79.0 120.2 L 66.6 121.4 L 54.1 122.6 L 41.7 123.8 L 33.33357105255127 124.54218320846557 L 31.5 127.7 L 29.3 124.9 L 26.6 113.0 L 28.6 112.9 L 53.4 111.9 L 78.4 110.9 L 90.9 110.5 L 94.0 110.37600002288818 L 94.0 91.0 L 54.0 91.0 L 54.0 98.0 L 42.0 104.0 L 42.0 44.0 L 52.0 49.0 L 94.0 49.0 L 94.0 38.0 L 18.0 38.0 L 18.0 34.0 L 94.0 34.0 L 94.0 13.0 L 106.0 15.0 L 109.0 17.0 L 106.0 18.8 L 106.0 34.0 L 163.8181818008423 34.0 L 172.0 25.0 L 182.0 34.0 L 182.0 38.0 L 106.0 38.0 L 106.0 49.0 L 148.2 49.0 L 153.0 45.0 L 164.0 54.0 L 159.0 58.0 L 159.0 91.0 L 147.0 97.0 L 147.0 91.0 L 106.0 91.0 L 106.0 109.91746034622193 L 128.6 109.2 L 141.2 109.0 L 146.08865222930908 109.03849334716797 L 145.0 108.1 L 142.0 105.7 L 139.0 103.4 L 135.9 101.2 L 132.6 99.1 L 133.2 97.5 L 137.1 98.3 L 141.0 99.2 L 144.9 100.5 L 148.7 102.1 L 152.4 103.9 L 156.1 106.0 L 159.7 108.3 L 163.3 110.9 L 166.8 113.7 L 170.3 116.6 L 171.8 120.9 L 170.0 125.1 L 165.7 126.7 L 161.5 124.9 L 158.9 121.7 Z M 54.0 72.0 L 54.0 87.0 L 94.0 87.0 L 94.0 72.0 Z M 106.0 72.0 L 106.0 87.0 L 147.0 87.0 L 147.0 72.0 Z M 54.0 53.0 L 54.0 68.0 L 94.0 68.0 L 94.0 53.0 Z M 106.0 53.0 L 106.0 68.0 L 147.0 68.0 L 147.0 53.0 Z M 140.9 27.1 L 140.2 25.8 L 139.3 24.4 L 138.0 23.0 L 136.4 21.4 L 134.6 19.8 L 132.4 18.1 L 130.0 16.4 L 127.1 15.1 L 127.7 13.4 L 130.8 14.2 L 133.9 14.7 L 136.7 15.2 L 139.4 16.0 L 141.9 16.8 L 144.2 17.8 L 146.4 18.9 L 148.4 20.2 L 150.2 21.7 L 151.9 23.5 L 152.2 28.0 L 149.4 31.6 L 144.8 32.0 L 141.2 29.1 L 141.2 28.2 Z " />
</g>
</svg>
