<svg xmlns="http://www.w3.org/2000/svg" xmlns:xlink="http://www.w3.org/1999/xlink" version="1.1" baseProfile="full" viewBox="0 0 200 200" width="200" height="200">
<g fill="black">
<path d="M 157.8 169.4 L 149.0 160.7 L 141.2 151.0 L 139.62149381637573 148.50266189575194 L 133.2 156.9 L 122.9 167.3 L 111.5 176.1 L 98.9 183.3 L 85.2 188.8 L 84.6 187.1 L 97.0 180.0 L 108.3 171.8 L 118.3 162.6 L 127.3 152.1 L 134.79200963974 140.8619854927063 L 134.5 140.4 L 128.8 128.9 L 124.1 116.5 L 120.5 103.2 L 118.1 89.1 L 117.40118341445923 80.36479291915893 L 113.4 86.7 L 108.1 93.8 L 102.4 100.5 L 101.0 99.4 L 104.9 91.8 L 108.7 84.0 L 112.4 76.1 L 115.8 67.9 L 119.0 59.6 L 121.9 50.9 L 124.6 42.0 L 127.0 32.9 L 129.2 23.4 L 130.81410579681398 14.701763248443603 L 130.8 14.7 L 130.90769233703614 14.197435855865479 L 131.0 13.7 L 131.0136652946472 13.702895164489746 L 131.4 11.9 L 142.8 16.2 L 145.3 18.7 L 141.8284790992737 19.899252700805665 L 140.2 26.1 L 137.3 35.8 L 134.1 45.1 L 130.6 54.1 L 127.58620691299438 61.0 L 166.4 61.0 L 176.4 51.0 L 188.4 61.0 L 188.4 65.0 L 169.38010473251342 65.0 L 166.6 82.7 L 162.3 100.4 L 156.8 116.7 L 150.1 131.5 L 145.4543628692627 139.54052572250367 L 149.3 144.8 L 157.0 153.0 L 165.3 160.3 L 174.5 166.6 L 184.4 172.1 L 189.6 174.8 L 178.3 183.8 L 167.6 177.1 Z M 14.8 163.9 L 23.0 162.6 L 31.5 161.2 L 40.5 159.7 L 49.7 158.1 L 56.0 157.05 L 56.0 132.0 L 22.0 132.0 L 22.0 128.0 L 56.0 128.0 L 56.0 102.9368420600891 L 50.4 103.6 L 42.5 104.4 L 34.4 105.1 L 25.9 105.6 L 17.1 105.8 L 16.8 104.1 L 25.3 101.9 L 33.5 99.8 L 41.5 98.0 L 49.1 96.1 L 56.4 94.3 L 63.4 92.6 L 70.2 90.8 L 76.6 89.0 L 82.7 87.2 L 88.4 85.4 L 88.76035900115967 86.74844026565552 L 98.8 95.1 L 99.1 98.1 L 94.85473651885987 96.12684936523438 L 91.5 97.0 L 85.4 98.3 L 79.0 99.5 L 72.3 100.6 L 68.0 101.275714302063 L 68.0 128.0 L 81.0 128.0 L 91.0 118.0 L 103.0 128.0 L 103.0 132.0 L 68.0 132.0 L 68.0 155.0210000038147 L 69.3 154.8 L 79.6 153.1 L 90.2 151.3 L 101.3 149.6 L 112.7 148.1 L 113.2 149.8 L 102.1 153.3 L 91.4 156.6 L 81.0 159.5 L 70.9 162.2 L 61.1 164.8 L 51.6 167.2 L 42.5 169.5 L 33.7 171.7 L 25.2 173.7 L 21.101204776763915 174.66144580841063 L 19.6 178.2 L 17.1 175.6 L 12.8 164.3 Z M 125.71325302124023 65.0 L 122.7 71.1 L 119.44504022598267 76.8865951538086 L 122.2 88.3 L 126.2 101.6 L 130.9 114.0 L 136.3 125.3 L 139.88197145462036 131.19292068481445 L 141.8 127.5 L 147.4 113.2 L 151.9 97.6 L 155.4 80.6 L 157.35 65.0 Z M 23.0 82.0 L 23.0 29.0 L 35.0 31.0 L 38.0 33.0 L 35.0 34.8 L 35.0 72.0 L 56.0 72.0 L 56.0 13.0 L 68.0 15.0 L 71.0 17.0 L 68.0 18.8 L 68.0 72.0 L 89.0 72.0 L 89.0 29.0 L 101.0 31.0 L 104.0 33.0 L 101.0 34.8 L 101.0 76.0 L 89.0 82.0 L 89.0 76.0 L 35.0 76.0 Z " />
</g>
</svg>
