<svg xmlns="http://www.w3.org/2000/svg" xmlns:xlink="http://www.w3.org/1999/xlink" version="1.1" baseProfile="full" viewBox="0 0 200 200" width="200" height="200">
<g fill="black">
<path d="M 148.3 73.8 L 149.6 77.2 L 145.48752222061157 76.84547605514527 L 143.4 79.1 L 140.8 81.8 L 138.0 84.6 L 135.0 87.4 L 132.0 90.3 L 128.7 93.2 L 125.3 96.1 L 121.6 99.0 L 120.24333333969116 100.1 L 152.8 100.1 L 162.8 90.1 L 174.8 100.1 L 174.8 104.1 L 107.9 104.1 L 107.9 140.9 L 159.6 140.9 L 169.6 130.9 L 181.6 140.9 L 181.6 144.9 L 107.9 144.9 L 107.9 182.8 L 95.9 188.8 L 95.9 144.9 L 41.7 144.9 L 33.7 152.9 L 27.45 146.65 L 27.1 146.7 L 27.200986194610596 146.4009861946106 L 23.7 142.9 L 30.21774787902832 137.46854343414307 L 39.9 108.8 L 50.6 114.5 L 52.8 117.4 L 49.36694412231445 118.16290130615235 L 41.71287126541138 140.9 L 95.9 140.9 L 95.9 104.1 L 25.1 104.1 L 25.1 100.1 L 117.0666666984558 100.1 L 119.2 96.9 L 121.7 92.9 L 124.2 89.2 L 126.6 85.6 L 128.9 82.2 L 131.1 78.9 L 133.2 75.7 L 135.1 72.6 L 137.0 69.6 L 138.1962025642395 67.55941925048828 L 138.1 67.5 L 138.6160493850708 66.84320983886718 L 138.7 66.7 L 138.718070602417 66.71336469650268 L 139.2 66.1 Z M 68.4 91.2 L 67.4 89.1 L 66.2 86.8 L 64.6 84.4 L 62.6 81.8 L 60.3 79.2 L 57.7 76.4 L 54.8 73.5 L 51.4 70.8 L 52.3 69.2 L 56.3 71.2 L 60.2 72.9 L 63.8 74.8 L 67.0 76.8 L 70.0 78.9 L 72.7 81.1 L 75.1 83.4 L 77.3 85.9 L 79.1 88.5 L 80.7 91.2 L 80.3 95.8 L 76.9 98.8 L 72.4 98.5 L 69.3 95.1 L 69.0 93.2 Z M 40.7 24.7 L 78.6 24.7 L 84.6 19.7 L 95.6 28.7 L 90.6 32.7 L 90.6 68.0 L 78.6 74.0 L 78.6 64.0 L 40.7 64.0 L 40.7 76.0 L 28.7 82.0 L 28.7 18.7 Z M 121.3 24.7 L 159.2 24.7 L 165.2 19.7 L 176.2 28.7 L 171.2 32.7 L 171.2 70.0 L 159.2 76.0 L 159.2 64.0 L 121.3 64.0 L 121.3 76.0 L 109.3 82.0 L 109.3 18.7 Z M 121.3 28.7 L 121.3 60.0 L 159.2 60.0 L 159.2 28.7 Z M 40.7 28.7 L 40.7 60.0 L 78.6 60.0 L 78.6 28.7 Z " />
</g>
</svg>
