<svg xmlns="http://www.w3.org/2000/svg" xmlns:xlink="http://www.w3.org/1999/xlink" version="1.1" baseProfile="full" viewBox="0 0 200 200" width="200" height="200">
<g fill="black">
<path d="M 64.8 130.0 L 64.2 138.2 L 63.2 145.8 L 63.03972606658935 146.7 L 139.3 146.7 L 139.3 123.5 L 64.8 123.5 L 64.8 129.9 L 64.73406591415406 129.9989010810852 Z M 64.8 96.4 L 64.8 119.5 L 139.3 119.5 L 139.3 96.4 Z M 163.0 97.6 L 156.3 94.5 L 150.18515281677247 91.39694318771362 L 156.3 96.4 L 151.3 100.4 L 151.3 171.1 L 151.2 173.7 L 150.7 176.2 L 149.9 178.6 L 148.7 180.8 L 147.1 182.8 L 145.0 184.5 L 142.8 185.7 L 140.4 186.5 L 137.9 187.0 L 135.3 187.1 L 135.3 181.1 L 115.3 178.1 L 115.3 175.1 L 135.3 175.1 L 136.5 175.0 L 137.5 174.9 L 138.0 174.7 L 138.6 174.4 L 138.9 173.8 L 139.1 173.2 L 139.2 172.3 L 139.3 171.1 L 139.3 150.7 L 62.32739725112915 150.7 L 61.9 153.1 L 60.2 159.8 L 58.2 166.1 L 55.9 171.8 L 53.2 177.1 L 50.1 181.7 L 46.6 185.7 L 42.7 189.0 L 41.3 187.8 L 43.5 183.5 L 45.4 179.0 L 47.2 174.3 L 48.8 169.2 L 50.1 163.7 L 51.2 157.8 L 52.0 151.5 L 52.5 144.7 L 52.8 137.5 L 52.8 90.96124029159546 L 44.0 95.6 L 29.6 101.5 L 14.0 106.3 L 13.4 104.6 L 28.2 98.0 L 41.5 90.8 L 53.4 83.2 L 63.8 75.1 L 72.9 66.4 L 76.08043479919434 62.6 L 21.6 62.6 L 21.6 58.6 L 79.42826089859008 58.6 L 80.6 57.2 L 86.8 47.4 L 91.8 37.1 L 92.35636367797852 35.4 L 35.3 35.4 L 35.3 31.4 L 93.66545457839966 31.4 L 95.4 26.1 L 97.63448276519776 15.393103408813477 L 98.1 12.6 L 109.6 16.6 L 112.2 19.0 L 108.63711338043213 20.451546382904052 L 106.4 29.4 L 105.6 31.4 L 142.6 31.4 L 152.6 21.4 L 164.6 31.4 L 164.6 35.4 L 104.0 35.4 L 101.6 41.4 L 95.5 52.6 L 91.11538457870483 58.6 L 156.4 58.6 L 166.4 48.6 L 178.4 58.6 L 178.4 62.6 L 116.7 62.6 L 120.3 64.7 L 127.2 68.7 L 134.0 72.4 L 140.8 75.9 L 147.4 79.1 L 154.0 81.9 L 160.6 84.3 L 167.1 86.5 L 173.5 88.2 L 180.0 89.7 L 188.5 91.8 L 176.7 102.5 L 169.9 100.2 Z M 88.19230766296387 62.6 L 87.9 63.0 L 78.9 72.4 L 68.6 81.0 L 57.2 88.6 L 64.8 92.4 L 139.3 92.4 L 144.4311827659607 88.124014377594 L 143.0 87.3 L 136.5 83.1 L 130.1 78.5 L 123.8 73.5 L 117.7 68.0 L 112.5655737876892 62.6 Z " />
</g>
</svg>
