<svg xmlns="http://www.w3.org/2000/svg" xmlns:xlink="http://www.w3.org/1999/xlink" version="1.1" baseProfile="full" viewBox="0 0 200 200" width="200" height="200">
<g fill="black">
<path d="M 37.0 183.1 L 25.0 189.1 L 25.0 61.2 L 37.0 67.2 L 64.38103446960449 67.2 L 66.3 61.9 L 68.6 56.2 L 71.0 50.6 L 73.6 45.1 L 76.1 39.7 L 78.7 34.2 L 81.3 28.8 L 84.0 23.5 L 86.6 18.1 L 88.74782609939575 13.721739101409913 L 88.7 13.7 L 88.9965217590332 13.214782619476319 L 89.2 12.8 L 89.23721933364868 12.820913791656494 L 89.8 11.9 L 99.7 18.7 L 101.3 21.9 L 97.5696756362915 22.02863187789917 L 93.3 28.7 L 90.1 33.8 L 80.2 48.8 L 76.8 53.9 L 73.3 58.9 L 69.6 63.8 L 66.8375 67.2 L 163.0 67.2 L 169.0 62.2 L 180.0 71.2 L 175.0 75.2 L 175.0 177.1 L 163.0 183.1 L 163.0 171.1 L 37.0 171.1 Z M 37.0 71.2 L 37.0 167.1 L 71.0 167.1 L 71.0 71.2 Z M 83.0 71.2 L 83.0 167.1 L 117.0 167.1 L 117.0 71.2 Z M 129.0 71.2 L 129.0 167.1 L 163.0 167.1 L 163.0 71.2 Z " />
</g>
</svg>
