<svg xmlns="http://www.w3.org/2000/svg" xmlns:xlink="http://www.w3.org/1999/xlink" version="1.1" baseProfile="full" viewBox="0 0 200 200" width="200" height="200">
<g fill="black">
<path d="M 33.0 176.0 L 49.0 176.0 L 50.2 175.9 L 51.1 175.7 L 52.0 175.4 L 52.4 175.0 L 52.7 174.1 L 52.9 173.2 L 53.0 172.0 L 53.0 130.0 L 18.0 130.0 L 18.0 126.0 L 53.0 126.0 L 53.0 102.0 L 61.2 103.36666669845582 L 62.0 101.9 L 63.8 98.7 L 67.4 92.5 L 69.2 89.5 L 70.9 86.4 L 72.7 83.4 L 72.92666664123536 83.0 L 32.0 83.0 L 32.0 79.0 L 75.0 79.0 L 75.43146066665649 78.64044942855836 L 76.1 77.5 L 76.4776418685913 77.7686318397522 L 81.0 74.0 L 88.04088172912597 79.7607213973999 L 88.6 77.4 L 89.2 73.7 L 89.8 70.1 L 90.4 66.7 L 91.0 63.5 L 91.5 60.5 L 92.0 57.6 L 92.4 54.9 L 92.54399995803833 53.7 L 27.27857141494751 53.7 L 27.5 56.8 L 27.7 61.9 L 27.6 66.6 L 27.3 70.9 L 26.8 74.8 L 26.1 78.3 L 25.1 81.6 L 23.7 84.5 L 19.8 86.9 L 15.3 85.9 L 13.0 81.9 L 14.0 77.5 L 15.0 76.4 L 16.2 74.7 L 17.3 72.2 L 18.5 69.2 L 19.5 65.5 L 20.5 61.2 L 21.4 56.4 L 22.3 51.0 L 23.1 45.1 L 23.9 38.7 L 25.7 38.6 L 26.5 45.1 L 26.952459049224853 49.7 L 54.0 49.7 L 54.0 13.1 L 66.0 15.1 L 69.0 17.1 L 66.0 18.9 L 66.0 49.7 L 72.83636360168457 49.7 L 74.0 46.5 L 75.3 42.2 L 76.4 38.3 L 77.5 34.8 L 78.4 31.5 L 79.2 28.6 L 79.9 25.9 L 80.4 23.6 L 80.8 21.6 L 80.87696847915649 20.94576768875122 L 80.7 20.9 L 80.98181819915771 20.05454549789429 L 81.0 19.9 L 81.02981529235839 19.910554122924804 L 81.5 18.5 L 92.3 23.9 L 94.5 26.8 L 89.84446430206299 27.763214302062988 L 88.7 29.7 L 87.1 32.1 L 85.4 34.7 L 83.5 37.6 L 81.4 40.7 L 79.1 44.1 L 76.5 47.7 L 75.25 49.7 L 92.7 49.7 L 98.7 44.7 L 109.7 53.7 L 104.7 56.7 L 102.46163263320923 57.632653045654294 L 102.3 58.0 L 101.0 60.5 L 99.7 63.2 L 98.3 66.0 L 96.7 68.9 L 95.0 72.0 L 93.2 75.1 L 91.2 78.4 L 89.7718463897705 81.17696523666382 L 92.0 83.0 L 87.0 86.0 L 82.9625 87.68229169845581 L 81.1 89.7 L 78.6 92.3 L 73.5 97.4 L 70.9 99.9 L 68.2 102.4 L 65.75 104.5 L 68.0 106.0 L 65.0 107.8 L 65.0 126.0 L 79.0 126.0 L 89.0 116.0 L 101.0 126.0 L 101.0 130.0 L 65.0 130.0 L 65.0 172.0 L 64.8 174.5 L 64.4 177.0 L 63.6 179.4 L 62.3 181.7 L 60.7 183.7 L 58.7 185.3 L 56.4 186.6 L 54.0 187.4 L 51.5 187.8 L 49.0 188.0 L 49.0 182.0 L 33.0 179.0 Z M 171.7 182.6 L 175.0 182.6 L 175.0 159.0 L 187.0 159.0 L 187.0 186.6 L 171.7 186.6 Z M 167.1 186.6 L 157.8 186.6 L 157.8 182.6 L 167.1 182.6 Z M 153.1 186.6 L 143.8 186.6 L 143.8 182.6 L 153.1 182.6 Z M 139.2 186.6 L 129.9 186.6 L 129.9 182.6 L 139.2 182.6 Z M 109.9 159.0 L 121.9 159.0 L 121.9 182.6 L 125.2 182.6 L 125.2 186.6 L 109.9 186.6 Z M 187.0 151.2 L 175.0 151.2 L 175.0 123.6 L 187.0 123.6 Z M 121.9 151.2 L 109.9 151.2 L 109.9 123.6 L 121.9 123.6 Z M 121.9 115.8 L 109.9 115.8 L 109.9 88.2 L 121.9 88.2 Z M 187.0 115.8 L 175.0 115.8 L 175.0 88.2 L 187.0 88.2 Z M 187.0 80.4 L 175.0 80.4 L 175.0 52.8 L 187.0 52.8 Z M 121.9 80.4 L 109.9 80.4 L 109.9 52.8 L 121.9 52.8 Z M 35.1 36.3 L 34.6 33.9 L 34.1 31.6 L 33.4 29.3 L 32.7 27.1 L 32.0 24.8 L 31.2 22.5 L 29.9 20.6 L 31.2 19.4 L 33.0 21.0 L 35.1 22.5 L 37.1 24.3 L 38.9 26.2 L 40.7 28.3 L 42.3 30.5 L 43.8 32.9 L 45.2 35.4 L 46.5 38.1 L 47.7 40.8 L 47.0 45.4 L 43.3 48.1 L 38.8 47.4 L 36.1 43.7 L 35.5 38.7 Z M 187.0 45.0 L 175.0 45.0 L 175.0 21.4 L 171.7 21.4 L 171.7 17.4 L 187.0 17.4 Z M 125.2 21.4 L 121.9 21.4 L 121.9 45.0 L 109.9 45.0 L 109.9 17.4 L 125.2 17.4 Z M 167.1 21.4 L 157.8 21.4 L 157.8 17.4 L 167.1 17.4 Z M 153.1 21.4 L 143.8 21.4 L 143.8 17.4 L 153.1 17.4 Z M 139.2 21.4 L 129.9 21.4 L 129.9 17.4 L 139.2 17.4 Z " />
</g>
</svg>
