<svg xmlns="http://www.w3.org/2000/svg" xmlns:xlink="http://www.w3.org/1999/xlink" version="1.1" baseProfile="full" viewBox="0 0 200 200" width="200" height="200">
<g fill="black">
<path d="M 58.4 130.6 L 141.5 130.6 L 147.5 125.6 L 158.5 134.6 L 153.5 138.6 L 153.5 178.0 L 141.5 184.0 L 141.5 174.0 L 58.4 174.0 L 58.4 181.0 L 46.4 187.0 L 46.4 124.6 Z M 58.4 134.6 L 58.4 170.0 L 141.5 170.0 L 141.5 134.6 Z M 17.0 107.2 L 94.0 107.2 L 94.0 78.1 L 39.0 78.1 L 39.0 74.1 L 94.0 74.1 L 94.0 53.0 L 106.0 55.0 L 109.0 57.0 L 106.0 58.8 L 106.0 74.1 L 139.0 74.1 L 149.0 64.1 L 161.0 74.1 L 161.0 78.1 L 106.0 78.1 L 106.0 107.2 L 161.0 107.2 L 171.0 97.2 L 183.0 107.2 L 183.0 111.2 L 17.0 111.2 Z M 13.4 71.2 L 12.8 66.7 L 15.4 63.0 L 17.4 62.0 L 19.4 60.6 L 21.2 58.8 L 23.0 56.5 L 24.6 53.7 L 26.1 50.3 L 27.4 46.4 L 28.5 42.0 L 29.5 37.1 L 30.1 31.7 L 31.9 31.6 L 32.6 37.1 L 32.93018865585327 40.6 L 94.0 40.6 L 94.0 13.3 L 106.0 15.3 L 109.0 17.3 L 106.0 19.1 L 106.0 40.6 L 170.0 40.6 L 170.5760000228882 40.119999980926515 L 170.9 39.4 L 171.2067491531372 39.594375705718996 L 176.0 35.6 L 187.0 44.6 L 182.0 47.6 L 177.6956521987915 49.393478298187254 L 177.5 49.6 L 175.5 51.7 L 173.3 53.9 L 171.0 56.1 L 168.5 58.4 L 165.8 60.8 L 162.9 63.3 L 159.7 65.8 L 156.6 68.7 L 155.3 67.5 L 157.6 64.0 L 159.6 60.6 L 161.5 57.3 L 163.3 54.2 L 164.9 51.3 L 166.4 48.6 L 167.8 46.1 L 168.55 44.6 L 33.14489793777466 44.6 L 33.2 47.3 L 32.9 51.9 L 32.1 56.3 L 31.0 60.3 L 29.4 64.1 L 27.3 67.5 L 24.7 70.6 L 21.6 73.3 L 17.1 73.9 Z " />
</g>
</svg>
