<svg xmlns="http://www.w3.org/2000/svg" xmlns:xlink="http://www.w3.org/1999/xlink" version="1.1" baseProfile="full" viewBox="0 0 200 200" width="200" height="200">
<g fill="black">
<path d="M 114.60714282989503 120.13571424484253 L 114.11145629882813 125.22776699066162 L 114.2 125.7 L 116.8 134.3 L 120.4 141.9 L 125.0 148.6 L 130.5 154.4 L 137.2 159.5 L 144.9 163.8 L 153.9 167.4 L 164.1 170.4 L 175.6 172.6 L 185.1 174.3 L 173.3 185.6 L 160.9 182.5 L 149.7 178.5 L 139.8 173.6 L 131.1 167.7 L 123.9 161.0 L 118.1 153.4 L 113.9 145.0 L 111.46307687759399 136.87692308425903 L 111.2 137.9 L 106.9 147.6 L 101.0 156.4 L 93.7 164.2 L 84.9 171.0 L 74.7 176.9 L 63.2 181.8 L 50.3 185.7 L 36.1 188.6 L 35.7 186.8 L 49.2 182.1 L 61.1 176.9 L 71.5 171.1 L 80.4 164.9 L 87.7 158.1 L 93.5 150.9 L 97.9 143.1 L 100.9 134.7 L 102.6 125.8 L 103.0 116.1 L 103.0 113.7 L 115.0 116.1 L 118.0 118.1 Z M 41.0 49.5 L 90.0 49.5 L 90.0 12.1 L 102.0 14.1 L 105.0 16.1 L 102.0 17.9 L 102.0 28.3 L 143.0 28.3 L 153.0 18.3 L 165.0 28.3 L 165.0 32.3 L 102.0 32.3 L 102.0 49.5 L 170.0 49.5 L 170.56629209518434 49.028089904785155 L 170.9 48.3 L 171.2067491531372 48.494375705718994 L 176.0 44.5 L 187.0 53.5 L 182.0 56.5 L 177.79617834091187 58.251592350006106 L 177.3 58.8 L 175.4 61.0 L 173.4 63.1 L 171.3 65.3 L 169.1 67.4 L 166.9 69.6 L 164.5 71.8 L 162.0 73.9 L 159.7 76.2 L 158.2 75.2 L 159.9 72.3 L 161.2 69.3 L 162.5 66.4 L 163.8 63.6 L 165.1 60.9 L 166.3 58.2 L 167.6 55.7 L 168.5307692527771 53.5 L 41.0 53.5 L 41.0 117.1 L 40.4 126.8 L 39.4 136.0 L 37.8 144.6 L 35.8 152.6 L 33.2 160.1 L 30.2 167.0 L 26.6 173.2 L 22.4 178.7 L 17.8 183.5 L 12.6 187.5 L 11.3 186.1 L 14.9 181.0 L 18.0 175.7 L 20.8 170.0 L 23.2 164.0 L 25.2 157.4 L 26.8 150.4 L 27.9 142.9 L 28.7 134.8 L 29.0 126.2 L 29.0 43.5 Z M 170.0 71.0 L 172.0 71.0 L 170.0 96.0 L 173.6 98.4 L 176.0 102.0 L 173.6 105.6 L 170.0 108.0 L 100.0 108.0 L 97.4 107.8 L 94.9 107.4 L 92.5 106.6 L 90.2 105.4 L 88.2 103.7 L 86.6 101.7 L 85.3 99.4 L 84.5 97.0 L 84.1 94.5 L 84.0 92.0 L 84.0 81.16212959289551 L 45.1 84.8 L 44.8 80.8 L 84.0 77.13407411575318 L 84.0 55.5 L 96.0 57.5 L 99.0 59.5 L 96.0 61.3 L 96.0 76.01185188293456 L 130.87196025848388 72.75067777633667 L 139.9 61.8 L 152.8 70.7 L 153.1 74.7 L 96.0 80.03990736007691 L 96.0 93.2 L 96.2 94.1 L 96.5 95.0 L 96.9 95.4 L 97.8 95.7 L 98.7 95.9 L 100.0 96.0 L 164.0 96.0 Z " />
</g>
</svg>
