<svg xmlns="http://www.w3.org/2000/svg" xmlns:xlink="http://www.w3.org/1999/xlink" version="1.1" baseProfile="full" viewBox="0 0 200 200" width="200" height="200">
<g fill="black">
<path d="M 83.9 105.2 L 86.8 107.3 L 83.42441987991333 109.15325965881348 L 82.3 118.5 L 79.5 130.7 L 75.4 142.0 L 69.9 152.1 L 63.2 161.1 L 55.3 168.9 L 46.2 175.6 L 36.0 180.9 L 24.6 185.0 L 12.2 187.8 L 11.7 186.1 L 23.3 181.5 L 33.5 176.2 L 42.5 170.1 L 50.2 163.4 L 56.6 155.8 L 61.9 147.4 L 66.1 138.1 L 69.1 128.0 L 71.1 116.8 L 71.9 104.7 L 71.93026485443116 104.70126104354858 L 72.0 102.4 Z M 180.0 144.0 L 182.0 144.0 L 180.0 169.0 L 183.6 171.4 L 186.0 175.0 L 183.6 178.6 L 180.0 181.0 L 118.0 181.0 L 115.4 180.8 L 112.9 180.4 L 110.5 179.6 L 108.2 178.3 L 106.2 176.7 L 104.6 174.7 L 103.3 172.4 L 102.5 170.0 L 102.1 167.5 L 102.0 165.0 L 102.0 103.0 L 114.0 105.0 L 117.0 107.0 L 114.0 108.8 L 114.0 166.2 L 114.2 167.1 L 114.5 168.0 L 114.9 168.4 L 115.8 168.7 L 116.7 168.9 L 118.0 169.0 L 174.0 169.0 Z M 153.3 139.2 L 152.0 136.3 L 150.3 133.5 L 148.3 130.6 L 145.9 127.8 L 143.2 124.9 L 140.2 122.0 L 136.9 119.0 L 133.1 116.3 L 133.9 114.7 L 138.4 116.4 L 142.7 118.1 L 146.8 120.2 L 150.5 122.5 L 153.9 125.0 L 157.1 127.7 L 159.9 130.7 L 162.4 133.9 L 164.6 137.3 L 166.5 140.9 L 166.2 145.5 L 162.8 148.6 L 158.3 148.3 L 155.2 144.9 L 154.4 142.1 Z M 51.7 112.6 L 39.7 118.6 L 39.7 18.5 L 51.7 24.5 L 148.2 24.5 L 154.2 19.5 L 165.2 28.5 L 160.2 32.5 L 160.2 102.6 L 148.2 108.6 L 148.2 100.6 L 51.7 100.6 Z M 51.7 64.0 L 51.7 96.6 L 94.0 96.6 L 94.0 64.0 Z M 106.0 64.0 L 106.0 96.6 L 148.2 96.6 L 148.2 64.0 Z M 51.7 28.5 L 51.7 60.0 L 94.0 60.0 L 94.0 28.5 Z M 106.0 28.5 L 106.0 60.0 L 148.2 60.0 L 148.2 28.5 Z " />
</g>
</svg>
