<svg xmlns="http://www.w3.org/2000/svg" xmlns:xlink="http://www.w3.org/1999/xlink" version="1.1" baseProfile="full" viewBox="0 0 200 200" width="200" height="200">
<g fill="black">
<path d="M 138.0 175.2 L 158.0 175.2 L 159.2 175.1 L 160.1 174.9 L 161.0 174.6 L 161.4 174.2 L 161.7 173.3 L 161.9 172.4 L 162.0 171.2 L 162.0 108.7 L 93.44459457397461 108.7 L 91.6 112.2 L 87.6 119.5 L 83.4 126.8 L 79.1 134.1 L 74.5 141.2 L 69.7 148.3 L 69.32138080596924 148.8122494697571 L 70.5 148.7 L 79.2 147.9 L 88.2 147.1 L 97.4 146.3 L 107.0 145.5 L 116.8 144.8 L 126.9 144.2 L 130.80912160873413 144.01385135650634 L 130.8 144.0 L 127.9 139.9 L 124.8 135.7 L 121.6 131.4 L 118.2 126.9 L 114.7 122.2 L 116.0 120.9 L 120.8 124.2 L 125.4 127.6 L 129.6 131.3 L 133.6 134.9 L 137.4 138.6 L 140.9 142.4 L 144.1 146.1 L 147.2 149.9 L 150.0 153.7 L 152.7 157.5 L 153.2 162.0 L 150.4 165.7 L 145.9 166.2 L 142.2 163.4 L 140.4 159.7 L 138.3 155.9 L 136.0 152.0 L 133.5 148.1 L 132.56757764816285 146.68409938812255 L 127.4 147.9 L 117.5 150.1 L 107.9 152.0 L 98.5 153.8 L 89.3 155.5 L 80.5 157.1 L 71.9 158.7 L 63.6 160.1 L 55.5 161.6 L 51.83803310394287 162.2182541847229 L 50.2 165.6 L 47.8 162.9 L 44.2 151.3 L 46.2 151.0 L 54.0 150.3 L 62.1 149.5 L 65.22956686019897 149.20194597244262 L 66.4 146.4 L 69.8 138.7 L 73.3 131.0 L 76.6 123.4 L 80.0 115.8 L 82.98947372436524 108.7 L 38.0 108.7 L 38.0 180.1 L 26.0 186.1 L 26.0 98.7 L 38.0 104.7 L 84.6276315689087 104.7 L 89.4 93.0 L 92.3 85.4 L 94.72831354141235 78.80886335372925 L 94.7 78.8 L 95.6 76.5 L 106.2 82.4 L 108.2 85.3 L 104.62978076934814 85.86371879577636 L 102.8 89.9 L 99.2 97.3 L 95.5493332862854 104.7 L 162.0 104.7 L 168.0 99.7 L 179.0 108.7 L 174.0 112.7 L 174.0 171.2 L 173.8 173.7 L 173.4 176.2 L 172.6 178.6 L 171.3 180.9 L 169.7 182.9 L 167.7 184.5 L 165.4 185.8 L 163.0 186.6 L 160.5 187.0 L 158.0 187.2 L 158.0 181.2 L 138.0 178.2 Z M 58.4 25.7 L 141.5 25.7 L 147.5 20.7 L 158.5 29.7 L 153.5 33.7 L 153.5 82.2 L 141.5 88.2 L 141.5 76.2 L 58.4 76.2 L 58.4 88.2 L 46.4 94.2 L 46.4 19.7 Z M 58.4 29.7 L 58.4 72.2 L 141.5 72.2 L 141.5 29.7 Z " />
</g>
</svg>
