<svg xmlns="http://www.w3.org/2000/svg" xmlns:xlink="http://www.w3.org/1999/xlink" version="1.1" baseProfile="full" viewBox="0 0 200 200" width="200" height="200">
<g fill="black">
<path d="M 146.7 181.2 L 133.2 177.1 L 121.1 172.3 L 110.1 166.8 L 106.77471952438354 164.61778469085692 L 100.2 168.5 L 88.2 173.8 L 74.8 178.3 L 60.0 182.0 L 43.8 184.7 L 26.1 186.6 L 25.8 184.8 L 43.0 181.0 L 58.7 176.8 L 72.7 172.1 L 85.2 166.8 L 96.1 161.0 L 98.88618535995484 159.12235336303712 L 92.3 153.5 L 85.4 145.8 L 80.1 137.3 L 79.40134344100952 135.53395137786865 L 76.5 140.1 L 69.1 149.1 L 60.5 157.3 L 50.5 164.8 L 39.4 171.5 L 27.0 177.3 L 13.3 182.4 L 12.6 180.7 L 25.3 173.9 L 36.6 166.9 L 46.6 159.5 L 55.3 151.7 L 62.7 143.5 L 68.8 134.9 L 73.7 126.0 L 75.5189474105835 121.2 L 18.0 121.2 L 18.0 117.2 L 77.03473682403565 117.2 L 77.3 116.5 L 79.7 106.6 L 80.88000001907349 96.37333335876465 L 81.1 94.1 L 92.8 97.3 L 95.7 99.5 L 92.1240626335144 101.25423345565795 L 90.8 109.0 L 88.28828830718994 117.2 L 160.0 117.2 L 170.0 107.2 L 182.0 117.2 L 182.0 121.2 L 86.89230766296387 121.2 L 82.6 130.5 L 81.54989242553711 132.15262832641602 L 83.6 135.0 L 89.9 141.9 L 97.0 148.1 L 105.2 153.6 L 106.11369714736938 154.0814103126526 L 113.0 148.0 L 119.1 140.8 L 123.7 133.1 L 126.9 124.9 L 126.91802654266357 124.90616703033447 L 127.4 123.4 L 138.3 128.8 L 140.5 131.6 L 136.544331741333 132.50216999053956 L 133.7 138.5 L 127.6 147.3 L 119.9 155.3 L 115.26751413345337 158.82471752166748 L 124.9 162.9 L 136.5 166.6 L 149.4 169.7 L 163.4 172.1 L 178.7 174.0 L 189.1 175.2 L 177.2 187.1 L 161.3 184.5 Z M 140.0 110.4 L 138.8 109.1 L 137.1 107.7 L 135.0 106.2 L 132.4 104.7 L 129.5 103.1 L 126.2 101.5 L 122.6 99.8 L 118.5 98.4 L 118.9 96.6 L 123.2 97.2 L 127.3 97.5 L 131.1 98.0 L 134.6 98.5 L 137.8 99.2 L 140.8 100.0 L 143.5 100.9 L 146.0 101.9 L 148.2 103.2 L 150.3 104.8 L 151.6 109.2 L 149.5 113.3 L 145.1 114.5 L 141.0 112.4 L 140.7 111.5 Z M 39.8 101.9 L 27.8 107.9 L 27.8 46.6 L 39.8 52.6 L 160.1 52.6 L 166.1 47.6 L 177.1 56.6 L 172.1 60.6 L 172.1 95.9 L 160.1 101.9 L 160.1 89.9 L 39.8 89.9 Z M 39.8 56.6 L 39.8 85.9 L 71.6 85.9 L 71.6 56.6 Z M 83.6 56.6 L 83.6 85.9 L 116.3 85.9 L 116.3 56.6 Z M 128.3 56.6 L 128.3 85.9 L 160.1 85.9 L 160.1 56.6 Z M 151.8 21.5 L 152.7 24.9 L 148.7853620529175 24.21322135925293 L 145.7 27.0 L 142.6 29.7 L 139.3 32.4 L 135.9 35.1 L 132.4 37.7 L 128.8 40.3 L 125.1 42.8 L 121.2 45.1 L 117.2 47.5 L 116.0 46.1 L 119.0 42.6 L 121.9 39.1 L 124.7 35.7 L 127.5 32.4 L 130.3 29.2 L 133.0 26.0 L 135.6 22.8 L 138.1 19.7 L 140.5 16.6 L 142.25155744552612 14.239205169677735 L 142.2 14.2 L 142.638596534729 13.717543888092042 L 142.8 13.5 L 142.8201117515564 13.517877101898193 L 143.2 13.1 Z M 70.3 38.2 L 68.6 35.8 L 66.6 33.3 L 64.2 30.9 L 61.4 28.5 L 58.3 26.0 L 54.8 23.5 L 50.9 21.0 L 46.7 18.6 L 47.3 16.9 L 52.1 18.2 L 56.8 19.4 L 61.1 20.9 L 65.1 22.6 L 68.8 24.5 L 72.3 26.6 L 75.4 28.9 L 78.3 31.4 L 80.9 34.1 L 83.2 37.1 L 83.6 41.6 L 80.8 45.2 L 76.3 45.7 L 72.7 42.9 L 71.7 40.5 Z " />
</g>
</svg>
