<svg xmlns="http://www.w3.org/2000/svg" xmlns:xlink="http://www.w3.org/1999/xlink" version="1.1" baseProfile="full" viewBox="0 0 200 200" width="200" height="200">
<g fill="black">
<path d="M 14.0 53.0 L 77.0 53.0 L 77.0 12.7 L 89.0 14.7 L 92.0 16.7 L 89.0 18.5 L 89.0 53.0 L 111.0 53.0 L 111.0 12.7 L 123.0 14.7 L 126.0 16.7 L 123.0 18.5 L 123.0 53.0 L 164.0 53.0 L 174.0 43.0 L 186.0 53.0 L 186.0 57.0 L 140.14750003814697 57.0 L 146.6 62.8 L 147.7 66.3 L 143.73399238586427 65.74336738586426 L 141.8 67.6 L 136.4 72.6 L 133.5 75.2 L 130.5 77.8 L 127.4 80.4 L 124.0 83.0 L 120.5 85.6 L 118.75 87.0 L 154.0 87.0 L 164.0 77.0 L 176.0 87.0 L 176.0 91.0 L 106.0 91.0 L 106.0 113.0 L 162.0 113.0 L 172.0 103.0 L 184.0 113.0 L 184.0 117.0 L 106.0 117.0 L 106.0 139.9 L 140.9 139.9 L 146.9 134.9 L 157.9 143.9 L 152.9 147.9 L 152.9 180.2 L 140.9 186.2 L 140.9 178.2 L 59.0 178.2 L 59.0 181.2 L 47.0 187.2 L 47.0 133.9 L 59.0 139.9 L 94.0 139.9 L 94.0 117.0 L 15.0 117.0 L 15.0 113.0 L 94.0 113.0 L 94.0 91.0 L 24.0 91.0 L 24.0 87.0 L 115.7722222328186 87.0 L 118.3 83.5 L 120.7 79.9 L 123.0 76.4 L 125.3 73.1 L 127.6 69.9 L 129.7 66.8 L 131.8 63.8 L 133.7 60.8 L 135.5 58.0 L 136.1666666984558 57.0 L 14.0 57.0 Z M 106.0 143.9 L 106.0 144.0 L 94.0 144.0 L 94.0 143.9 L 59.0 143.9 L 59.0 174.2 L 140.9 174.2 L 140.9 143.9 Z M 67.2 77.6 L 66.3 75.2 L 65.1 72.8 L 63.8 70.4 L 62.3 68.1 L 60.6 65.7 L 58.8 63.3 L 56.8 60.8 L 54.4 58.6 L 55.4 57.1 L 58.3 58.7 L 61.4 60.0 L 64.3 61.7 L 67.0 63.5 L 69.5 65.5 L 71.9 67.6 L 74.1 70.0 L 76.2 72.5 L 78.1 75.1 L 79.8 78.0 L 79.7 82.5 L 76.5 85.8 L 71.9 85.7 L 68.7 82.5 L 68.0 80.0 Z M 166.7 24.7 L 167.5 28.2 L 163.3804147720337 27.33271884918213 L 162.4 28.1 L 159.8 30.1 L 156.8 32.3 L 153.5 34.8 L 149.9 37.5 L 145.9 40.4 L 141.5 43.5 L 136.7 46.7 L 131.5 50.2 L 130.4 48.9 L 134.5 44.2 L 138.3 39.8 L 141.8 35.8 L 145.1 32.1 L 148.0 28.8 L 150.7 25.7 L 153.0 23.0 L 155.0 20.5 L 156.6 18.4 L 157.29956636428832 17.377556896209718 L 157.2 17.3 L 157.81702127456666 16.621276569366454 L 157.9 16.5 L 157.91476507186889 16.513758373260497 L 158.2 16.2 Z M 50.2 42.1 L 49.1 39.9 L 47.6 37.5 L 45.6 34.8 L 43.3 32.0 L 40.6 29.0 L 37.6 25.7 L 34.2 22.3 L 30.3 18.9 L 31.3 17.4 L 35.9 19.9 L 40.3 22.1 L 44.3 24.5 L 47.9 26.8 L 51.1 29.2 L 54.1 31.5 L 56.7 33.9 L 58.9 36.3 L 60.9 38.8 L 62.5 41.5 L 62.3 46.1 L 59.0 49.2 L 54.4 49.0 L 51.3 45.7 L 50.9 44.1 Z " />
</g>
</svg>
