<svg xmlns="http://www.w3.org/2000/svg" xmlns:xlink="http://www.w3.org/1999/xlink" version="1.1" baseProfile="full" viewBox="0 0 200 200" width="200" height="200">
<g fill="black">
<path d="M 157.7 169.3 L 149.1 160.6 L 141.5 150.9 L 140.07432985305786 148.5750609397888 L 133.9 156.9 L 123.9 167.3 L 112.8 176.1 L 100.5 183.3 L 87.3 188.8 L 86.6 187.1 L 98.7 180.0 L 109.5 171.9 L 119.3 162.6 L 128.0 152.2 L 135.35444736480713 140.87802181243896 L 135.0 140.3 L 129.4 128.8 L 125.0 116.4 L 121.5 103.2 L 119.2 89.0 L 118.68207426071167 81.23111391067505 L 115.3 86.7 L 110.2 93.8 L 104.7 100.5 L 103.2 99.4 L 107.0 91.8 L 110.6 84.0 L 114.1 76.1 L 117.4 68.0 L 120.5 59.6 L 123.3 51.0 L 125.8 42.1 L 128.1 32.9 L 130.1 23.5 L 131.71414623260497 14.801545429229737 L 131.7 14.8 L 132.2 11.9 L 143.6 16.1 L 146.2 18.6 L 142.69402389526368 19.87490043640137 L 141.2 26.1 L 138.4 35.7 L 135.4 45.1 L 132.0 54.1 L 129.06551723480226 61.0 L 166.0 61.0 L 176.0 51.0 L 188.0 61.0 L 188.0 65.0 L 169.67277488708496 65.0 L 166.8 82.7 L 162.5 100.4 L 157.1 116.6 L 150.5 131.5 L 145.87530193328857 139.54817581176758 L 149.7 144.8 L 157.1 153.1 L 165.3 160.3 L 174.3 166.7 L 184.0 172.1 L 189.1 174.8 L 177.9 183.8 L 167.3 177.1 Z M 65.0 176.0 L 77.0 176.0 L 78.2 175.9 L 79.1 175.7 L 80.0 175.4 L 80.4 175.0 L 80.7 174.1 L 80.9 173.2 L 81.0 172.0 L 81.0 156.0 L 38.0 156.0 L 38.0 183.0 L 26.0 189.0 L 26.0 104.0 L 38.0 110.0 L 81.0 110.0 L 87.0 105.0 L 98.0 114.0 L 93.0 118.0 L 93.0 172.0 L 92.8 174.5 L 92.4 177.0 L 91.6 179.4 L 90.3 181.7 L 88.7 183.7 L 86.7 185.3 L 84.4 186.6 L 82.0 187.4 L 79.5 187.8 L 77.0 188.0 L 77.0 182.0 L 65.0 179.0 Z M 38.0 135.0 L 38.0 152.0 L 81.0 152.0 L 81.0 135.0 Z M 127.2397590637207 65.0 L 124.3 71.1 L 120.84740285873413 77.52343664169311 L 123.3 88.3 L 127.2 101.7 L 131.8 114.0 L 137.0 125.3 L 140.37525691986085 131.0941909790039 L 142.2 127.5 L 147.7 113.2 L 152.2 97.6 L 155.6 80.6 L 157.63863639831544 65.0 Z M 38.0 114.0 L 38.0 131.0 L 81.0 131.0 L 81.0 114.0 Z M 59.4 59.5 L 55.4 66.1 L 53.3 69.3 L 51.1 72.5 L 46.7 78.7 L 44.3 81.7 L 41.8 84.7 L 41.58409357070923 84.93251466751099 L 43.6 84.9 L 50.1 84.7 L 56.8 84.5 L 63.9 84.3 L 71.2 84.1 L 78.9 84.0 L 81.92048244476318 84.03823394775391 L 81.9 84.0 L 80.1 81.3 L 78.3 78.5 L 74.1 72.9 L 71.8 70.0 L 69.2 67.3 L 70.3 65.8 L 73.6 67.8 L 77.0 69.6 L 80.1 71.6 L 83.1 73.8 L 86.0 76.1 L 91.2 81.1 L 93.6 83.8 L 95.8 86.6 L 97.8 89.5 L 98.2 94.0 L 95.4 97.6 L 90.8 98.0 L 87.2 95.1 L 86.1 92.3 L 84.9 89.6 L 83.3758454322815 86.75491142272949 L 79.3 87.8 L 71.8 89.5 L 64.6 90.9 L 57.6 92.1 L 50.8 93.2 L 44.4 94.1 L 38.2 95.0 L 32.2 95.7 L 26.6 96.4 L 25.345683002471922 96.51614046096802 L 23.3 99.8 L 21.2 96.9 L 18.7 85.0 L 20.7 84.9 L 26.0 85.0 L 36.95135135650635 85.0 L 37.9 82.3 L 39.2 78.8 L 42.0 71.8 L 43.3 68.3 L 44.7 64.8 L 46.0 61.4 L 46.891428565979005 59.0 L 14.0 59.0 L 14.0 55.0 L 52.0 55.0 L 52.0 34.0 L 22.0 34.0 L 22.0 30.0 L 52.0 30.0 L 52.0 13.0 L 64.0 15.0 L 67.0 17.0 L 64.0 18.8 L 64.0 30.0 L 71.0 30.0 L 81.0 20.0 L 93.0 30.0 L 93.0 34.0 L 64.0 34.0 L 64.0 55.0 L 79.0 55.0 L 89.0 45.0 L 101.0 55.0 L 101.0 59.0 L 59.7 59.0 Z " />
</g>
</svg>
