<svg xmlns="http://www.w3.org/2000/svg" xmlns:xlink="http://www.w3.org/1999/xlink" version="1.1" baseProfile="full" viewBox="0 0 200 200" width="200" height="200">
<g fill="black">
<path d="M 106.6 22.9 L 108.1 26.2 L 104.11666669845582 26.2 L 102.2 28.7 L 99.7 31.8 L 97.1 35.1 L 94.2 38.5 L 91.2 42.1 L 87.9 45.8 L 84.5 49.6 L 80.7 53.5 L 79.2 55.0 L 152.0 55.0 L 158.0 50.0 L 169.0 59.0 L 164.0 63.0 L 164.0 173.0 L 152.0 179.0 L 152.0 167.0 L 48.0 167.0 L 48.0 179.0 L 36.0 185.0 L 36.0 49.0 L 48.0 55.0 L 75.95600004196167 55.0 L 77.9 51.4 L 80.4 46.6 L 82.8 42.1 L 85.2 37.9 L 87.4 33.8 L 89.5 30.0 L 91.4 26.4 L 93.2 23.0 L 94.8 19.7 L 95.84014873504638 17.61970262527466 L 95.8 17.6 L 96.8 15.8 Z M 48.0 59.0 L 48.0 163.0 L 152.0 163.0 L 152.0 59.0 Z M 129.5 141.0 L 127.4 137.3 L 124.6 133.6 L 121.3 129.7 L 117.4 125.8 L 113.0 121.9 L 108.0 117.8 L 102.5 113.6 L 99.29059228897094 111.28501739501954 L 98.8 112.4 L 93.6 121.8 L 87.7 130.5 L 81.0 138.4 L 73.6 145.7 L 65.4 152.1 L 56.5 157.7 L 55.4 156.2 L 63.0 149.2 L 69.8 141.9 L 76.0 134.2 L 81.4 126.2 L 86.2 117.6 L 90.3 108.6 L 93.7 99.1 L 96.4 89.0 L 98.5 78.4 L 99.9 67.2 L 100.1 65.2 L 111.8 68.6 L 114.5 71.0 L 111.1051869392395 72.53727378845215 L 109.7 80.5 L 106.8 91.8 L 103.2 102.4 L 100.38793354034424 108.79106006622314 L 104.3 110.3 L 110.8 113.3 L 116.8 116.5 L 122.2 119.9 L 127.0 123.5 L 131.4 127.2 L 135.3 131.2 L 138.6 135.3 L 141.4 139.6 L 143.6 144.1 L 143.3 148.7 L 139.9 151.8 L 135.4 151.5 L 132.3 148.1 L 131.2 144.6 Z " />
</g>
</svg>
