<svg xmlns="http://www.w3.org/2000/svg" xmlns:xlink="http://www.w3.org/1999/xlink" version="1.1" baseProfile="full" viewBox="0 0 200 200" width="200" height="200">
<g fill="black">
<path d="M 109.0 18.0 L 112.0 20.0 L 109.0 21.8 L 109.0 57.0 L 154.0 57.0 L 164.0 47.0 L 176.0 57.0 L 176.0 61.0 L 109.0 61.0 L 109.0 115.0 L 163.0 115.0 L 173.0 105.0 L 185.0 115.0 L 185.0 119.0 L 109.0 119.0 L 109.0 181.0 L 97.0 187.0 L 97.0 119.0 L 34.0 119.0 L 26.0 127.0 L 19.567785263061523 120.56778526306152 L 19.3 120.6 L 19.378349113464356 120.37834911346435 L 16.0 117.0 L 22.481869316101076 111.59844226837158 L 38.6 66.0 L 49.3 71.9 L 51.4 74.8 L 47.99871072769165 75.57010326385497 L 34.018259048461914 115.0 L 97.0 115.0 L 97.0 61.0 L 24.0 61.0 L 24.0 57.0 L 97.0 57.0 L 97.0 16.0 Z " />
</g>
</svg>
