<svg xmlns="http://www.w3.org/2000/svg" xmlns:xlink="http://www.w3.org/1999/xlink" version="1.1" baseProfile="full" viewBox="0 0 200 200" width="200" height="200">
<g fill="black">
<path d="M 145.0 176.0 L 159.0 176.0 L 160.2 175.9 L 161.1 175.7 L 162.0 175.4 L 162.4 175.0 L 162.7 174.1 L 162.9 173.2 L 163.0 172.0 L 163.0 94.0 L 106.0 94.0 L 106.0 180.0 L 94.0 186.0 L 94.0 94.0 L 38.0 94.0 L 38.0 156.2222222328186 L 42.0 152.4 L 45.9 148.0 L 49.2 143.6 L 52.1 139.1 L 54.5 134.4 L 56.3 129.5 L 57.7 124.4 L 58.6 119.0 L 59.0 113.4 L 58.91664352416992 108.39861307144164 L 58.9 108.4 L 58.9 105.0 L 70.9 107.4 L 73.9 109.4 L 70.55137615203857 111.40917434692383 L 70.3 114.3 L 69.1 120.9 L 67.3 127.1 L 65.81661806106567 130.74664726257325 L 69.2 132.1 L 72.5 133.7 L 75.5 135.5 L 78.4 137.5 L 81.1 139.6 L 83.7 141.8 L 86.1 144.2 L 88.3 146.7 L 90.3 149.4 L 90.7 153.9 L 87.9 157.5 L 83.4 157.9 L 79.8 155.1 L 78.8 152.7 L 77.7 150.3 L 76.3 147.9 L 74.8 145.5 L 73.1 143.0 L 71.2 140.6 L 69.0 138.1 L 66.7 135.6 L 64.67456645965576 133.40578031539917 L 61.9 138.4 L 58.4 143.4 L 54.2 147.9 L 49.5 151.9 L 44.3 155.4 L 38.5 158.2 L 38.0 157.45 L 38.0 183.0 L 26.0 189.0 L 26.0 84.0 L 38.0 90.0 L 94.0 90.0 L 94.0 70.0 L 17.0 70.0 L 17.0 66.0 L 64.0 66.0 L 64.0 37.0 L 26.0 37.0 L 26.0 33.0 L 64.0 33.0 L 64.0 12.0 L 76.0 14.0 L 79.0 16.0 L 76.0 17.8 L 76.0 33.0 L 124.0 33.0 L 124.0 12.0 L 136.0 14.0 L 139.0 16.0 L 136.0 17.8 L 136.0 33.0 L 152.0 33.0 L 162.0 23.0 L 174.0 33.0 L 174.0 37.0 L 136.0 37.0 L 136.0 66.0 L 162.0 66.0 L 172.0 56.0 L 184.0 66.0 L 184.0 70.0 L 106.0 70.0 L 106.0 90.0 L 163.0 90.0 L 169.0 85.0 L 180.0 94.0 L 175.0 98.0 L 175.0 172.0 L 174.8 174.5 L 174.4 177.0 L 173.6 179.4 L 172.3 181.7 L 170.7 183.7 L 168.7 185.3 L 166.4 186.6 L 164.0 187.4 L 161.5 187.8 L 159.0 188.0 L 159.0 182.0 L 145.0 179.0 Z M 140.55137615203859 111.40917434692383 L 140.3 114.3 L 139.1 120.9 L 137.3 127.1 L 135.81661806106567 130.74664726257325 L 139.2 132.1 L 142.5 133.7 L 145.5 135.5 L 148.4 137.5 L 151.1 139.6 L 153.7 141.8 L 156.1 144.2 L 158.3 146.7 L 160.3 149.4 L 160.7 153.9 L 157.9 157.5 L 153.4 157.9 L 149.8 155.1 L 148.8 152.7 L 147.7 150.3 L 146.3 147.9 L 144.8 145.5 L 143.1 143.0 L 141.2 140.6 L 139.0 138.1 L 136.7 135.6 L 134.67456645965575 133.40578031539917 L 131.9 138.4 L 128.4 143.4 L 124.2 147.9 L 119.5 151.9 L 114.3 155.4 L 108.5 158.2 L 107.5 156.7 L 112.0 152.4 L 115.9 148.0 L 119.2 143.6 L 122.1 139.1 L 124.5 134.4 L 126.3 129.5 L 127.7 124.4 L 128.6 119.0 L 129.0 113.4 L 128.91664352416993 108.39861307144164 L 128.9 108.4 L 128.9 105.0 L 140.9 107.4 L 143.9 109.4 Z M 76.0 37.0 L 76.0 66.0 L 124.0 66.0 L 124.0 37.0 Z " />
</g>
</svg>
