<svg xmlns="http://www.w3.org/2000/svg" xmlns:xlink="http://www.w3.org/1999/xlink" version="1.1" baseProfile="full" viewBox="0 0 200 200" width="200" height="200">
<g fill="black">
<path d="M 133.7 176.2 L 154.9 176.2 L 155.9 176.0 L 156.4 175.8 L 157.0 175.5 L 157.1 175.3 L 157.3 175.0 L 157.5 174.4 L 157.6 173.5 L 157.7 172.2 L 157.7 95.0 L 106.0 95.0 L 106.0 177.1 L 94.0 183.1 L 94.0 95.0 L 41.2 95.0 L 41.2 181.6 L 29.2 187.6 L 29.2 85.0 L 41.2 91.0 L 94.0 91.0 L 94.0 66.9 L 71.0 66.9 L 71.0 73.9 L 59.0 79.9 L 59.0 43.2 L 19.0 43.2 L 19.0 39.2 L 59.0 39.2 L 59.0 13.8 L 71.0 15.8 L 74.0 17.8 L 71.0 19.6 L 71.0 39.2 L 127.0 39.2 L 127.0 13.8 L 139.0 15.8 L 142.0 17.8 L 139.0 19.6 L 139.0 39.2 L 160.0 39.2 L 170.0 29.2 L 182.0 39.2 L 182.0 43.2 L 139.0 43.2 L 139.0 70.9 L 127.0 76.9 L 127.0 66.9 L 106.0 66.9 L 106.0 91.0 L 157.7 91.0 L 163.7 86.0 L 174.7 95.0 L 169.7 99.0 L 169.7 172.2 L 169.6 174.8 L 169.1 177.3 L 168.3 179.7 L 167.1 182.0 L 165.5 184.0 L 163.4 185.6 L 161.2 186.9 L 158.8 187.7 L 156.3 188.1 L 153.7 188.2 L 153.7 182.2 L 133.7 179.2 Z M 143.3 153.6 L 142.2 151.1 L 141.0 148.6 L 139.6 146.0 L 137.9 143.4 L 136.1 140.8 L 134.1 138.1 L 131.9 135.3 L 131.89784603118898 135.2980055809021 L 129.7 140.3 L 126.4 146.9 L 122.7 153.4 L 118.5 159.9 L 113.9 166.3 L 108.7 172.6 L 107.2 171.7 L 110.6 164.4 L 113.9 157.3 L 116.8 150.4 L 119.5 143.7 L 121.9 137.1 L 123.9 130.7 L 125.5 124.3 L 126.8 118.0 L 127.8 111.9 L 128.3 106.9 L 128.6 103.8 L 140.3 107.3 L 143.0 109.7 L 139.53072834014893 111.2055329322815 L 139.0 113.9 L 137.3 120.5 L 135.1 127.1 L 132.9198685646057 132.85554695129395 L 133.5 133.2 L 136.8 134.9 L 139.9 136.8 L 142.7 138.9 L 145.4 141.1 L 147.9 143.4 L 150.2 145.8 L 152.3 148.4 L 154.2 151.1 L 155.9 153.9 L 155.8 158.5 L 152.6 161.7 L 148.0 161.6 L 144.8 158.4 L 144.1 156.0 Z M 78.3 153.6 L 77.2 151.1 L 76.0 148.6 L 74.6 146.0 L 72.9 143.4 L 71.1 140.8 L 69.1 138.1 L 66.9 135.3 L 66.89784603118896 135.2980055809021 L 64.7 140.3 L 61.4 146.9 L 57.7 153.4 L 53.5 159.9 L 48.9 166.3 L 43.7 172.6 L 42.2 171.7 L 45.6 164.4 L 48.9 157.3 L 51.8 150.4 L 54.5 143.7 L 56.9 137.1 L 58.9 130.7 L 60.5 124.3 L 61.8 118.0 L 62.8 111.9 L 63.3 106.9 L 63.6 103.8 L 75.3 107.3 L 78.0 109.7 L 74.53072834014893 111.2055329322815 L 74.0 113.9 L 72.3 120.5 L 70.1 127.1 L 67.91986856460571 132.85554695129395 L 68.5 133.2 L 71.8 134.9 L 74.9 136.8 L 77.7 138.9 L 80.4 141.1 L 82.9 143.4 L 85.2 145.8 L 87.3 148.4 L 89.2 151.1 L 90.9 153.9 L 90.8 158.5 L 87.6 161.7 L 83.0 161.6 L 79.8 158.4 L 79.1 156.0 Z M 71.0 43.2 L 71.0 62.9 L 127.0 62.9 L 127.0 43.2 Z " />
</g>
</svg>
