<svg xmlns="http://www.w3.org/2000/svg" xmlns:xlink="http://www.w3.org/1999/xlink" version="1.1" baseProfile="full" viewBox="0 0 200 200" width="200" height="200">
<g fill="black">
<path d="M 51.0 113.0 L 148.0 113.0 L 154.0 108.0 L 165.0 117.0 L 160.0 121.0 L 160.0 180.0 L 148.0 186.0 L 148.0 176.0 L 51.0 176.0 L 51.0 183.0 L 39.0 189.0 L 39.0 107.0 Z M 51.0 147.0 L 51.0 172.0 L 148.0 172.0 L 148.0 147.0 Z M 51.0 117.0 L 51.0 143.0 L 148.0 143.0 L 148.0 117.0 Z M 54.3 92.9 L 57.8 92.2 L 61.5 91.5 L 64.0 90.92307691574096 L 64.0 64.0 L 51.63599996566772 64.0 L 50.1 70.4 L 47.8 77.6 L 45.1 84.3 L 42.0 90.6 L 38.3 96.4 L 34.3 101.7 L 29.7 106.6 L 24.8 110.9 L 19.3 114.6 L 13.4 117.7 L 12.5 116.2 L 17.0 111.7 L 21.1 107.1 L 24.8 102.3 L 28.1 97.3 L 31.1 92.0 L 33.6 86.5 L 35.8 80.6 L 37.6 74.4 L 39.0 67.9 L 39.52881355285645 64.0 L 14.0 64.0 L 14.0 60.0 L 48.0 60.0 L 48.0 36.0 L 32.48684206008911 36.0 L 32.1 36.7 L 29.7 40.3 L 27.3 44.0 L 24.6 47.5 L 21.7 51.0 L 18.7 54.4 L 17.2 53.5 L 18.9 49.3 L 21.9 41.1 L 23.3 37.1 L 24.7 33.2 L 26.0 29.3 L 28.2 21.7 L 29.1 17.9 L 29.70078840255737 15.121353435516358 L 29.6 15.1 L 30.4 12.6 L 41.4 17.6 L 43.7 20.4 L 39.85714282989502 21.36071424484253 L 39.8 21.5 L 38.1 25.3 L 36.2 29.1 L 34.673684215545656 32.0 L 70.0 32.0 L 80.0 22.0 L 92.0 32.0 L 92.0 36.0 L 60.0 36.0 L 60.0 60.0 L 76.0 60.0 L 86.0 50.0 L 98.0 60.0 L 98.0 64.0 L 76.0 64.0 L 76.0 87.91333332061768 L 78.3 87.3 L 83.0 86.0 L 88.0 84.7 L 93.2 83.5 L 98.6 82.1 L 99.3 83.8 L 94.5 86.7 L 89.9 89.5 L 85.3 91.9 L 80.9 94.2 L 76.6 96.3 L 72.5 98.2 L 68.5 100.0 L 64.7 101.6 L 61.52321510314941 102.88788576126099 L 60.2 106.8 L 57.5 104.5 L 52.4 93.4 Z M 182.0 65.0 L 184.0 65.0 L 182.0 90.0 L 185.6 92.4 L 188.0 96.0 L 185.6 99.6 L 182.0 102.0 L 164.0 102.0 L 161.4 101.8 L 158.9 101.4 L 156.5 100.6 L 154.2 99.3 L 152.2 97.7 L 150.6 95.7 L 149.3 93.4 L 148.5 91.0 L 148.1 88.5 L 148.0 86.0 L 148.0 64.0 L 135.63333330154418 64.0 L 134.9 68.4 L 133.2 74.2 L 130.8 79.6 L 127.9 84.7 L 124.4 89.4 L 120.3 93.8 L 115.6 97.7 L 110.4 101.2 L 104.7 104.2 L 98.4 106.7 L 97.5 105.2 L 102.7 101.0 L 107.2 96.9 L 111.2 92.8 L 114.7 88.7 L 117.5 84.5 L 119.8 80.1 L 121.6 75.7 L 122.9 71.1 L 123.7 66.4 L 123.80909090042114 64.0 L 102.0 64.0 L 102.0 60.0 L 135.0 60.0 L 135.0 36.0 L 118.48684206008912 36.0 L 118.1 36.7 L 115.7 40.3 L 113.3 44.0 L 110.6 47.5 L 107.7 51.0 L 104.7 54.4 L 103.2 53.5 L 104.9 49.3 L 107.9 41.1 L 109.3 37.1 L 110.7 33.2 L 112.0 29.3 L 114.2 21.7 L 115.1 17.9 L 115.70078840255738 15.121353435516358 L 115.6 15.1 L 116.4 12.6 L 127.4 17.6 L 129.7 20.4 L 125.85714282989503 21.36071424484253 L 125.8 21.5 L 124.1 25.3 L 122.2 29.1 L 120.67368421554565 32.0 L 154.0 32.0 L 164.0 22.0 L 176.0 32.0 L 176.0 36.0 L 147.0 36.0 L 147.0 60.0 L 164.0 60.0 L 174.0 50.0 L 186.0 60.0 L 186.0 64.0 L 160.0 64.0 L 160.0 87.2 L 160.2 88.1 L 160.5 89.0 L 160.9 89.4 L 161.8 89.7 L 162.7 89.9 L 164.0 90.0 L 176.0 90.0 Z " />
</g>
</svg>
