<svg xmlns="http://www.w3.org/2000/svg" xmlns:xlink="http://www.w3.org/1999/xlink" version="1.1" baseProfile="full" viewBox="0 0 200 200" width="200" height="200">
<g fill="black">
<path d="M 87.76358404159546 102.36050806045532 L 97.7 110.7 L 98.0 113.7 L 93.8124662399292 111.72587699890137 L 90.5 112.6 L 87.9 113.0 L 84.6 113.4 L 80.7 114.0 L 76.2 114.6 L 71.1 115.3 L 65.4 116.1 L 59.1 117.0 L 52.1 117.9 L 44.4 118.7 L 42.0 118.90240964889526 L 42.0 142.3 L 71.0 142.3 L 81.0 132.3 L 93.0 142.3 L 93.0 146.3 L 42.0 146.3 L 42.0 171.2 L 158.0 171.2 L 158.0 146.3 L 107.0 146.3 L 107.0 142.3 L 158.0 142.3 L 158.0 119.1 L 106.0 119.1 L 106.0 115.1 L 158.0 115.1 L 164.0 110.1 L 175.0 119.1 L 170.0 123.1 L 170.0 179.2 L 158.0 185.2 L 158.0 175.2 L 42.0 175.2 L 42.0 182.2 L 30.0 188.2 L 30.0 110.5 L 40.78947372436524 115.89473686218261 L 43.7 114.9 L 51.0 112.6 L 57.7 110.6 L 63.8 108.7 L 69.3 107.1 L 74.2 105.5 L 78.4 104.2 L 82.1 103.0 L 85.1 101.9 L 86.51622171401978 101.34582633972168 L 86.5 101.3 L 86.54239749908447 101.33558359146119 L 87.4 101.0 Z M 70.4 89.1 L 91.7 89.1 L 92.6 88.9 L 93.2 88.7 L 93.5 88.5 L 93.7 88.4 L 93.8 88.2 L 94.0 87.9 L 94.2 87.3 L 94.4 86.4 L 94.4 12.3 L 106.4 14.3 L 109.4 16.3 L 106.4 18.1 L 106.4 22.56774196624756 L 108.5 28.8 L 112.3 37.1 L 117.0 44.7 L 122.11234130859376 50.88862371444702 L 124.8 49.5 L 130.6 46.6 L 136.1 43.9 L 141.3 41.4 L 146.2 39.0 L 150.7 36.7 L 155.0 34.5 L 158.9 32.4 L 162.5 30.4 L 164.9528293609619 28.9877649307251 L 164.9 28.9 L 164.97764930725097 28.97347459793091 L 165.8 28.5 L 166.96686210632325 30.855740451812743 L 174.2 37.7 L 174.3 41.0 L 170.57565259933472 39.4125732421875 L 167.4 40.7 L 163.3 42.2 L 158.9 43.7 L 154.3 45.3 L 149.3 46.9 L 144.0 48.5 L 138.4 50.1 L 132.4 51.6 L 126.1 53.0 L 124.5648648262024 53.29786205291748 L 129.4 57.7 L 137.2 63.3 L 146.1 68.2 L 156.1 72.6 L 167.4 76.3 L 179.8 79.4 L 188.4 81.5 L 176.7 92.2 L 163.5 88.2 L 151.6 83.4 L 140.9 77.9 L 131.4 71.7 L 123.2 64.7 L 116.4 56.9 L 110.9 48.5 L 106.9 39.5 L 106.4 37.58000001907349 L 106.4 85.1 L 106.3 87.7 L 105.8 90.2 L 105.0 92.6 L 103.8 94.9 L 102.2 96.9 L 100.1 98.5 L 97.9 99.7 L 95.5 100.6 L 93.0 101.0 L 90.4 101.1 L 90.4 95.1 L 70.4 92.1 Z M 83.8 42.3 L 78.8 45.3 L 76.98075313568116 46.05801954269409 L 75.9 48.9 L 72.2 55.4 L 67.7 61.5 L 62.3 67.0 L 56.0 72.0 L 49.0 76.5 L 41.2 80.5 L 32.6 83.9 L 23.2 86.8 L 13.0 89.1 L 12.5 87.4 L 21.9 83.3 L 30.5 79.0 L 38.1 74.7 L 44.9 70.1 L 50.7 65.4 L 55.7 60.4 L 59.8 55.3 L 63.0 49.9 L 65.4 44.4 L 65.98947372436524 42.3 L 17.7 42.3 L 17.7 38.3 L 66.8 38.3 L 72.8 33.3 Z " />
</g>
</svg>
