<svg xmlns="http://www.w3.org/2000/svg" xmlns:xlink="http://www.w3.org/1999/xlink" version="1.1" baseProfile="full" viewBox="0 0 200 200" width="200" height="200">
<g fill="black">
<path d="M 38.0 19.6 L 77.9 19.6 L 83.9 14.6 L 94.9 23.6 L 89.9 27.6 L 89.9 101.3 L 77.9 107.3 L 77.9 95.3 L 38.0 95.3 L 38.0 107.3 L 26.0 113.3 L 26.0 13.6 Z M 122.0 19.6 L 161.9 19.6 L 167.9 14.6 L 178.9 23.6 L 173.9 27.6 L 173.9 101.3 L 161.9 107.3 L 161.9 95.3 L 122.0 95.3 L 122.0 107.3 L 110.0 113.3 L 110.0 13.6 Z M 122.0 70.4 L 122.0 91.3 L 161.9 91.3 L 161.9 70.4 Z M 38.0 70.4 L 38.0 91.3 L 77.9 91.3 L 77.9 70.4 Z M 122.0 47.0 L 122.0 66.4 L 161.9 66.4 L 161.9 47.0 Z M 38.0 47.0 L 38.0 66.4 L 77.9 66.4 L 77.9 47.0 Z M 122.0 23.6 L 122.0 43.0 L 161.9 43.0 L 161.9 23.6 Z M 38.0 23.6 L 38.0 43.0 L 77.9 43.0 L 77.9 23.6 Z " />
</g>
</svg>
