<svg xmlns="http://www.w3.org/2000/svg" xmlns:xlink="http://www.w3.org/1999/xlink" version="1.1" baseProfile="full" viewBox="0 0 200 200" width="200" height="200">
<g fill="black">
<path d="M 181.0 179.0 L 181.0 183.0 L 23.0 183.0 L 23.0 179.0 L 159.0 179.0 L 169.0 169.0 Z M 110.4 116.5 L 104.0 109.3 L 98.85698547363282 103.9300877571106 L 92.2 112.5 L 82.7 123.3 L 72.4 133.5 L 61.3 143.2 L 49.3 152.2 L 36.5 160.7 L 35.4 159.2 L 47.0 149.3 L 57.8 139.1 L 67.8 128.8 L 77.1 118.2 L 85.5 107.3 L 92.31642179489135 97.38520460128784 L 90.1 95.2 L 82.7 88.3 L 75.0 81.5 L 67.0 74.8 L 58.8 68.0 L 50.3 61.2 L 51.3 59.7 L 60.9 64.9 L 70.2 70.4 L 79.1 76.3 L 87.6 82.4 L 95.7 88.8 L 96.95227651596069 89.84620571136475 L 100.1 84.6 L 106.1 72.7 L 111.4 60.5 L 115.6319314956665 48.908187580108645 L 115.6 48.9 L 116.5 46.5 L 127.3 51.9 L 129.5 54.7 L 125.8146406173706 55.47586517333984 L 121.9 64.9 L 115.7 77.5 L 108.7 89.7 L 104.38727502822876 96.113796043396 L 111.1 102.2 L 118.3 109.2 L 125.2 116.4 L 131.8 123.9 L 133.0 128.3 L 130.8 132.3 L 126.4 133.5 L 122.4 131.4 L 116.6 123.9 Z M 147.4 162.8 L 145.6 164.5 L 143.7 165.9 L 141.7 167.2 L 139.5 168.2 L 137.2 169.0 L 134.9 169.5 L 132.4 169.8 L 130.0 170.0 L 130.0 164.0 L 110.0 161.0 L 110.0 158.0 L 130.0 158.0 L 131.4 157.9 L 132.7 157.7 L 133.9 157.4 L 135.0 157.1 L 136.0 156.6 L 137.0 156.0 L 137.9 155.3 L 138.8 154.5 L 139.7 153.5 L 140.5 152.3 L 142.3 148.8 L 144.2 143.2 L 146.0 135.7 L 147.5 126.3 L 148.9 115.3 L 150.0 102.4 L 150.8 87.9 L 151.5 71.6 L 151.8 53.6 L 151.97959184646606 36.0 L 38.0 36.0 L 38.0 32.0 L 152.0 32.0 L 158.0 27.0 L 169.0 36.0 L 164.0 39.0 L 163.94928150177003 39.02113275527954 L 163.8 53.8 L 163.4 72.0 L 162.8 88.4 L 161.9 103.3 L 160.8 116.5 L 159.4 128.0 L 157.7 138.0 L 155.8 146.4 L 153.4 153.3 L 150.5 159.0 L 149.0 161.0 Z " />
</g>
</svg>
