<svg xmlns="http://www.w3.org/2000/svg" xmlns:xlink="http://www.w3.org/1999/xlink" version="1.1" baseProfile="full" viewBox="0 0 200 200" width="200" height="200">
<g fill="black">
<path d="M 158.6 173.0 L 152.5 163.7 L 147.4 151.7 L 143.1 137.1 L 139.6 119.8 L 136.7 99.6 L 134.4 76.6 L 132.9 50.8 L 132.30644884109498 31.872313022613525 L 132.0 32.0 L 132.0 24.0 L 22.0 24.0 L 22.0 20.0 L 132.0 20.0 L 138.0 15.0 L 149.0 24.0 L 144.0813793182373 26.95117244720459 L 144.9 50.2 L 146.4 75.7 L 148.6 98.2 L 151.4 117.7 L 154.8 134.3 L 158.7 147.8 L 163.1 158.1 L 167.8 165.3 L 170.90707349777222 168.06934814453126 L 176.0 146.0 L 178.0 146.0 L 176.0965986251831 170.74421768188478 L 176.8 171.0 L 180.7 173.4 L 181.9 177.8 L 179.5 181.7 L 175.1 182.9 L 166.1 179.6 Z M 80.0 32.0 L 83.0 34.0 L 80.0 35.8 L 80.0 72.0 L 99.0 72.0 L 109.0 62.0 L 121.0 72.0 L 121.0 76.0 L 80.0 76.0 L 80.0 123.0 L 111.0 123.0 L 121.0 113.0 L 133.0 123.0 L 133.0 127.0 L 80.0 127.0 L 80.0 176.0 L 68.0 182.0 L 68.0 127.0 L 23.0 127.0 L 23.0 123.0 L 68.0 123.0 L 68.0 76.0 L 32.0 76.0 L 32.0 72.0 L 68.0 72.0 L 68.0 30.0 Z " />
</g>
</svg>
