<svg xmlns="http://www.w3.org/2000/svg" xmlns:xlink="http://www.w3.org/1999/xlink" version="1.1" baseProfile="full" viewBox="0 0 200 200" width="200" height="200">
<g fill="black">
<path d="M 106.0 70.0 L 109.0 72.0 L 106.0 73.8 L 106.0 109.0 L 129.0 109.0 L 139.0 99.0 L 151.0 109.0 L 151.0 113.0 L 106.0 113.0 L 106.0 143.0 L 155.0 143.0 L 165.0 133.0 L 177.0 143.0 L 177.0 147.0 L 106.0 147.0 L 106.0 183.0 L 94.0 189.0 L 94.0 147.0 L 24.0 147.0 L 24.0 143.0 L 94.0 143.0 L 94.0 113.0 L 50.0 113.0 L 50.0 109.0 L 94.0 109.0 L 94.0 68.0 Z M 161.8 109.3 L 155.7 104.5 L 149.8 99.4 L 144.2 93.9 L 138.9 88.2 L 133.8 82.2 L 129.0 75.8 L 124.7 69.1 L 121.18450708389283 62.7 L 84.68000001907349 62.7 L 84.4 63.2 L 80.0 70.9 L 75.1 78.3 L 69.6 85.4 L 63.5 92.1 L 56.9 98.5 L 49.8 104.5 L 42.0 110.2 L 33.8 115.5 L 24.9 120.3 L 15.4 124.7 L 14.5 123.1 L 22.9 117.1 L 30.7 111.1 L 38.0 105.0 L 44.8 98.8 L 51.0 92.4 L 56.6 85.9 L 61.7 79.2 L 66.2 72.3 L 70.1 65.3 L 71.28695650100708 62.7 L 22.0 62.7 L 22.0 58.7 L 121.95384616851807 58.7 L 124.0 54.9 L 126.7 50.0 L 129.4 45.3 L 132.1 40.8 L 134.6 36.3 L 137.0 32.0 L 141.4 23.8 L 143.4 19.9 L 144.76994218826295 16.931791877746583 L 144.7 16.9 L 145.0457142829895 16.334285736083984 L 145.2 16.0 L 145.23721933364868 16.020913791656493 L 145.8 15.1 L 155.7 21.9 L 157.3 25.1 L 153.44809160232543 25.232824420928956 L 153.2 25.6 L 150.5 29.4 L 147.7 33.3 L 144.7 37.2 L 141.6 41.1 L 138.3 45.1 L 134.7 49.2 L 131.0 53.2 L 127.0 57.2 L 125.3875 58.7 L 156.0 58.7 L 166.0 48.7 L 178.0 58.7 L 178.0 62.7 L 124.13214282989502 62.7 L 128.0 66.5 L 133.5 72.0 L 139.1 77.3 L 144.7 82.3 L 150.5 87.0 L 156.3 91.5 L 162.3 95.7 L 168.5 99.6 L 174.7 103.3 L 181.2 106.6 L 185.9 109.3 L 174.7 118.2 L 168.2 113.9 Z M 53.0 43.7 L 52.3 41.3 L 51.4 38.9 L 50.1 36.3 L 48.4 33.7 L 46.4 31.0 L 44.1 28.3 L 41.5 25.4 L 38.3 22.8 L 39.3 21.3 L 43.1 23.2 L 46.8 24.9 L 50.1 26.9 L 53.2 29.1 L 56.0 31.4 L 58.5 34.0 L 60.7 36.8 L 62.6 39.8 L 64.2 43.0 L 65.3 46.3 L 64.3 50.8 L 60.5 53.3 L 56.0 52.2 L 53.5 48.4 L 53.4 46.1 Z M 90.7 35.3 L 89.9 32.8 L 88.9 30.2 L 87.7 27.6 L 86.2 25.0 L 84.5 22.4 L 82.4 19.8 L 80.1 17.2 L 77.3 14.8 L 78.3 13.3 L 85.1 16.5 L 88.2 18.4 L 91.1 20.5 L 93.8 22.9 L 96.2 25.5 L 98.4 28.3 L 100.3 31.4 L 101.9 34.6 L 103.2 38.0 L 102.3 42.5 L 98.6 45.2 L 94.1 44.3 L 91.4 40.6 L 91.2 37.9 Z " />
</g>
</svg>
