<svg xmlns="http://www.w3.org/2000/svg" xmlns:xlink="http://www.w3.org/1999/xlink" version="1.1" baseProfile="full" viewBox="0 0 200 200" width="200" height="200">
<g fill="black">
<path d="M 63.8 154.9 L 60.7 159.9 L 59.6 163.2 L 59.7 164.8 L 60.7 166.0 L 63.7 167.8 L 69.3 169.5 L 77.5 170.6 L 88.0 171.0 L 166.0 171.0 L 172.0 146.0 L 174.0 146.0 L 172.0 171.0 L 175.6 173.4 L 178.0 177.0 L 175.6 180.6 L 172.0 183.0 L 88.0 183.0 L 76.5 182.5 L 66.9 181.2 L 59.0 178.9 L 52.7 175.0 L 48.5 169.1 L 47.7 161.8 L 49.8 154.8 L 54.1 147.7 L 60.4 140.4 L 68.6 132.4 L 122.7619047164917 84.0 L 53.0 84.0 L 53.0 80.0 L 128.0 80.0 L 134.0 75.0 L 145.0 84.0 L 140.0 87.0 L 134.34904460906984 89.35456476211547 L 76.6 141.4 L 69.1 148.6 Z M 78.1 22.1 L 80.2 25.1 L 76.44990615844726 25.681911087036134 L 74.0 31.0 L 69.5 39.7 L 64.6 48.3 L 64.15529413223267 49.0 L 149.0 49.0 L 159.0 39.0 L 171.0 49.0 L 171.0 53.0 L 61.61411762237549 53.0 L 59.2 56.8 L 53.4 65.0 L 47.2 73.2 L 40.5 81.1 L 33.4 88.9 L 25.7 96.4 L 17.6 103.6 L 16.3 102.3 L 22.9 93.8 L 29.3 85.4 L 35.3 77.1 L 41.0 68.7 L 46.3 60.3 L 51.3 51.9 L 55.8 43.4 L 59.9 34.9 L 63.7 26.3 L 66.64893617630005 18.614893627166747 L 66.6 18.6 L 67.5 16.3 Z " />
</g>
</svg>
