<svg xmlns="http://www.w3.org/2000/svg" xmlns:xlink="http://www.w3.org/1999/xlink" version="1.1" baseProfile="full" viewBox="0 0 200 200" width="200" height="200">
<g fill="black">
<path d="M 70.0 176.1 L 91.2 176.1 L 92.1 175.9 L 92.7 175.7 L 93.0 175.5 L 93.2 175.4 L 93.4 175.2 L 93.7 174.3 L 93.9 173.4 L 94.0 172.1 L 94.0 144.9 L 19.1 144.9 L 19.1 140.9 L 94.0 140.9 L 94.0 127.2 L 104.38064517974854 128.93010749816895 L 107.2 127.1 L 112.7 123.6 L 117.8 120.4 L 122.5 117.5 L 126.9 114.7 L 130.8 112.1 L 133.68000001907347 110.1 L 43.6 110.1 L 43.6 106.1 L 139.04285717010498 106.1 L 140.2 105.2 L 142.5 103.3 L 142.82296133041382 103.74753217697143 L 146.0 101.1 L 157.0 110.1 L 152.0 113.1 L 140.0 118.1 L 140.0 118.01578950881958 L 139.4 118.3 L 135.3 120.2 L 130.8 122.2 L 126.0 124.2 L 120.7 126.3 L 115.0 128.4 L 108.8 130.5 L 108.215625 130.6770833015442 L 109.0 131.2 L 106.0 133.0 L 106.0 140.9 L 158.8 140.9 L 168.8 130.9 L 180.8 140.9 L 180.8 144.9 L 106.0 144.9 L 106.0 172.1 L 105.8 174.7 L 105.4 177.2 L 104.6 179.6 L 103.3 181.9 L 101.7 183.9 L 99.7 185.5 L 97.4 186.7 L 95.0 187.6 L 92.5 188.0 L 90.0 188.1 L 90.0 182.1 L 70.0 179.1 Z M 65.9 56.9 L 134.0 56.9 L 140.0 51.9 L 151.0 60.9 L 146.0 64.9 L 146.0 91.0 L 134.0 97.0 L 134.0 89.0 L 65.9 89.0 L 65.9 92.0 L 53.9 98.0 L 53.9 50.9 Z M 65.9 60.9 L 65.9 85.0 L 134.0 85.0 L 134.0 60.9 Z M 19.2 38.8 L 94.0 38.8 L 94.0 14.1 L 106.0 16.1 L 109.0 18.1 L 106.0 19.9 L 106.0 38.8 L 158.7 38.8 L 168.7 28.8 L 180.7 38.8 L 180.7 42.8 L 19.2 42.8 Z " />
</g>
</svg>
