<svg xmlns="http://www.w3.org/2000/svg" xmlns:xlink="http://www.w3.org/1999/xlink" version="1.1" baseProfile="full" viewBox="0 0 200 200" width="200" height="200">
<g fill="black">
<path d="M 34.4 179.8 L 31.9 179.4 L 29.5 178.6 L 27.2 177.3 L 25.2 175.7 L 23.6 173.7 L 22.3 171.4 L 21.5 169.0 L 21.1 166.5 L 21.0 164.0 L 21.0 18.0 L 33.0 20.0 L 36.0 22.0 L 33.0 23.8 L 33.0 165.2 L 33.2 166.1 L 33.5 167.0 L 33.9 167.4 L 34.8 167.7 L 35.7 167.9 L 37.0 168.0 L 183.0 168.0 L 186.6 170.4 L 189.0 174.0 L 186.6 177.6 L 183.0 180.0 L 37.0 180.0 Z M 145.6 140.2 L 136.4 130.1 L 128.5 118.8 L 122.1 106.2 L 117.0 92.5 L 113.4 77.5 L 111.1 61.5 L 111.03957443237304 60.19329786300659 L 110.6 63.6 L 106.8 80.6 L 101.7 96.2 L 95.1 110.3 L 87.2 122.8 L 77.9 133.7 L 67.2 142.9 L 55.2 150.4 L 41.9 156.1 L 41.2 154.4 L 53.2 147.2 L 63.8 138.8 L 73.0 129.3 L 80.9 118.5 L 87.6 106.4 L 93.0 93.0 L 97.1 78.2 L 100.0 61.9 L 101.6 44.2 L 102.0 25.1 L 102.0 22.7 L 114.0 25.1 L 117.0 27.1 L 113.80310878753662 29.018134689331056 L 113.53944730758667 34.26499795913696 L 114.4 44.0 L 116.9 60.6 L 120.4 75.9 L 124.9 89.7 L 130.5 102.2 L 137.2 113.3 L 144.8 123.0 L 153.5 131.4 L 163.3 138.6 L 174.1 144.6 L 179.5 147.3 L 168.2 156.4 L 156.2 149.0 Z " />
</g>
</svg>
