<svg xmlns="http://www.w3.org/2000/svg" xmlns:xlink="http://www.w3.org/1999/xlink" version="1.1" baseProfile="full" viewBox="0 0 200 200" width="200" height="200">
<g fill="black">
<path d="M 70.0 176.0 L 90.0 176.0 L 91.2 175.9 L 92.1 175.7 L 93.0 175.4 L 93.4 175.0 L 93.7 174.1 L 93.9 173.2 L 94.0 172.0 L 94.0 120.0 L 30.0 120.0 L 30.0 116.0 L 94.0 116.0 L 94.0 91.0 L 53.0 91.0 L 53.0 87.0 L 94.0 87.0 L 94.0 61.0 L 106.0 63.0 L 109.0 65.0 L 106.0 66.8 L 106.0 87.0 L 125.0 87.0 L 135.0 77.0 L 147.0 87.0 L 147.0 91.0 L 106.0 91.0 L 106.0 116.0 L 148.0 116.0 L 158.0 106.0 L 170.0 116.0 L 170.0 120.0 L 106.0 120.0 L 106.0 172.0 L 105.8 174.5 L 105.4 177.0 L 104.6 179.4 L 103.3 181.7 L 101.7 183.7 L 99.7 185.3 L 97.4 186.6 L 95.0 187.4 L 92.5 187.8 L 90.0 188.0 L 90.0 182.0 L 70.0 179.0 Z M 70.3 139.2 L 71.6 142.6 L 67.8245283126831 142.33962268829345 L 66.2 144.4 L 61.9 149.3 L 57.5 154.2 L 52.9 158.8 L 48.1 163.3 L 43.2 167.7 L 38.1 171.8 L 32.8 175.7 L 27.3 179.4 L 21.5 182.7 L 20.4 181.2 L 24.9 176.4 L 29.3 171.7 L 33.6 167.0 L 37.9 162.2 L 42.0 157.5 L 46.0 152.6 L 49.8 147.7 L 53.5 142.6 L 57.1 137.5 L 59.955600070953366 133.13261156082154 L 59.9 133.1 L 61.0 131.6 Z M 152.2 167.4 L 149.4 163.1 L 146.3 158.8 L 143.0 154.6 L 139.5 150.5 L 135.7 146.5 L 127.6 138.4 L 123.3 134.3 L 124.3 132.7 L 129.8 135.3 L 135.0 138.2 L 140.0 141.5 L 144.6 145.0 L 149.1 148.7 L 153.3 152.7 L 157.2 156.8 L 160.9 161.1 L 164.4 165.7 L 167.6 170.4 L 168.2 174.9 L 165.4 178.5 L 160.9 179.1 L 157.3 176.3 L 154.9 171.8 Z M 156.7 82.1 L 148.0 77.1 L 139.6 71.6 L 131.4 65.4 L 123.4 58.7 L 115.7 51.3 L 108.4 43.3 L 101.4 34.7 L 99.28255004882813 31.63784170150757 L 93.6 39.5 L 85.7 49.0 L 77.3 57.8 L 68.5 66.0 L 59.1 73.6 L 49.2 80.5 L 38.7 86.7 L 27.8 92.1 L 16.3 96.8 L 15.6 95.1 L 26.0 88.8 L 35.9 82.1 L 45.3 75.1 L 54.3 67.7 L 62.7 59.8 L 70.6 51.4 L 78.0 42.5 L 84.9 33.2 L 91.3 23.3 L 96.73654232025146 13.716942310333252 L 96.7 13.7 L 97.8 11.9 L 107.7 18.8 L 109.3 22.0 L 105.60631580352783 22.06368417739868 L 101.25249853134156 28.850516986846923 L 104.5 31.9 L 112.6 39.2 L 120.6 46.0 L 128.7 52.2 L 136.9 57.9 L 145.1 63.0 L 153.4 67.5 L 161.9 71.5 L 170.4 74.9 L 179.0 77.7 L 186.5 80.2 L 174.9 90.2 L 165.7 86.5 Z " />
</g>
</svg>
