<svg xmlns="http://www.w3.org/2000/svg" xmlns:xlink="http://www.w3.org/1999/xlink" version="1.1" baseProfile="full" viewBox="0 0 200 200" width="200" height="200">
<g fill="black">
<path d="M 70.0 176.0 L 90.0 176.0 L 91.2 175.9 L 92.1 175.7 L 93.0 175.4 L 93.4 175.0 L 93.7 174.1 L 93.9 173.2 L 94.0 172.0 L 94.0 120.0 L 24.0 120.0 L 24.0 116.0 L 94.0 116.0 L 94.0 87.0 L 58.0 87.0 L 58.0 83.0 L 120.0 83.0 L 130.0 73.0 L 142.0 83.0 L 142.0 87.0 L 106.0 87.0 L 106.0 116.0 L 154.0 116.0 L 164.0 106.0 L 176.0 116.0 L 176.0 120.0 L 106.0 120.0 L 106.0 172.0 L 105.8 174.5 L 105.4 177.0 L 104.6 179.4 L 103.3 181.7 L 101.7 183.7 L 99.7 185.3 L 97.4 186.6 L 95.0 187.4 L 92.5 187.8 L 90.0 188.0 L 90.0 182.0 L 70.0 179.0 Z M 68.6 137.8 L 70.2 141.0 L 66.35846729278565 141.06623334884642 L 65.1 142.9 L 61.3 147.9 L 57.1 152.9 L 52.5 157.7 L 47.6 162.4 L 42.4 167.0 L 36.8 171.4 L 30.8 175.7 L 24.3 179.8 L 17.5 183.7 L 16.4 182.2 L 22.0 176.8 L 27.3 171.6 L 32.4 166.5 L 37.1 161.5 L 41.5 156.5 L 45.6 151.5 L 49.3 146.6 L 52.6 141.6 L 55.6 136.7 L 57.80323886871338 132.70152950286865 L 57.8 132.7 L 58.8 130.9 Z M 159.1 167.5 L 156.0 163.2 L 152.5 159.0 L 148.7 154.8 L 144.5 150.7 L 140.0 146.6 L 135.1 142.6 L 129.9 138.4 L 124.4 134.2 L 125.3 132.6 L 131.8 135.2 L 138.0 138.1 L 143.8 141.3 L 149.3 144.8 L 154.4 148.5 L 159.1 152.5 L 163.5 156.6 L 167.6 161.0 L 171.3 165.6 L 174.6 170.4 L 175.2 174.9 L 172.4 178.5 L 167.9 179.1 L 164.3 176.3 L 161.8 171.9 Z M 158.1 81.4 L 149.4 75.8 L 141.0 69.5 L 132.9 62.8 L 125.1 55.5 L 117.7 47.6 L 110.6 39.1 L 103.9 30.0 L 101.85390863418579 26.74637928009033 L 99.2 30.6 L 91.3 40.7 L 83.0 50.1 L 74.2 58.9 L 64.9 67.1 L 55.1 74.6 L 44.9 81.5 L 34.2 87.7 L 23.0 93.1 L 11.3 97.8 L 10.6 96.1 L 21.2 89.8 L 31.4 83.1 L 41.2 76.1 L 50.4 68.7 L 59.3 60.7 L 67.6 52.3 L 75.5 43.4 L 82.9 34.0 L 89.8 24.1 L 96.3 13.6 L 96.32148275375366 13.613479328155517 L 96.8 12.8 L 106.5 20.0 L 108.0 23.2 L 104.29622640609742 23.2 L 103.81994428634644 23.891587734222412 L 107.2 27.4 L 115.0 35.2 L 122.8 42.5 L 130.7 49.3 L 138.8 55.5 L 147.0 61.3 L 155.4 66.4 L 163.9 71.1 L 172.6 75.2 L 181.5 78.8 L 187.9 81.5 L 176.4 91.1 L 167.1 86.5 Z " />
</g>
</svg>
