<svg xmlns="http://www.w3.org/2000/svg" xmlns:xlink="http://www.w3.org/1999/xlink" version="1.1" baseProfile="full" viewBox="0 0 200 200" width="200" height="200">
<g fill="black">
<path d="M 70.5 141.1 L 145.5 141.1 L 151.5 136.1 L 162.5 145.1 L 157.5 149.1 L 157.5 179.8 L 145.5 185.8 L 145.5 175.8 L 70.5 175.8 L 70.5 182.8 L 58.5 188.8 L 58.5 135.1 Z M 60.0 80.0 L 144.0 80.0 L 150.0 75.0 L 161.0 84.0 L 156.0 88.0 L 156.0 126.0 L 144.0 132.0 L 144.0 124.0 L 59.666292095184325 124.0 L 59.5 127.7 L 58.2 136.2 L 56.2 144.3 L 53.3 152.0 L 49.7 159.1 L 45.4 165.8 L 40.3 171.9 L 34.4 177.5 L 27.8 182.4 L 20.5 186.7 L 19.4 185.2 L 25.4 179.5 L 30.6 173.7 L 35.2 167.8 L 39.0 161.6 L 42.2 155.3 L 44.6 148.7 L 46.5 141.8 L 47.6 134.6 L 48.1 127.0 L 48.0 119.1 L 48.065564727783205 119.09834709167481 L 48.0 119.0 L 48.0 74.0 Z M 70.5 145.1 L 70.5 171.8 L 145.5 171.8 L 145.5 145.1 Z M 59.84606742858887 120.0 L 144.0 120.0 L 144.0 104.0 L 60.0 104.0 L 60.0 119.0 L 59.88313255310059 119.17530117034912 Z M 60.0 84.0 L 60.0 100.0 L 144.0 100.0 L 144.0 84.0 Z M 157.7 69.7 L 149.2 65.1 L 141.1 60.0 L 133.2 54.5 L 125.6 48.5 L 118.4 42.1 L 111.4 35.1 L 105.0 27.7 L 103.03820962905884 25.051583003997802 L 99.9 28.8 L 92.3 36.8 L 84.2 44.4 L 75.7 51.4 L 66.7 57.9 L 57.3 63.9 L 47.4 69.3 L 37.0 74.2 L 26.2 78.4 L 14.9 81.9 L 14.3 80.2 L 24.7 74.9 L 34.6 69.4 L 44.1 63.6 L 53.1 57.5 L 61.7 51.0 L 69.8 44.2 L 77.4 37.0 L 84.5 29.4 L 91.2 21.4 L 96.9 13.8 L 97.9 12.4 L 107.1 20.2 L 108.3 23.6 L 106.32676668167115 23.395872402191163 L 107.9 24.7 L 115.4 30.8 L 123.0 36.5 L 130.6 41.8 L 138.4 46.8 L 146.3 51.3 L 154.4 55.4 L 162.7 59.0 L 171.1 62.3 L 179.7 65.1 L 187.0 67.6 L 175.4 77.6 L 166.4 73.9 Z M 133.0 62.1 L 133.0 66.1 L 66.0 66.1 L 66.0 62.1 L 111.0 62.1 L 121.0 52.1 Z " />
</g>
</svg>
