<svg xmlns="http://www.w3.org/2000/svg" xmlns:xlink="http://www.w3.org/1999/xlink" version="1.1" baseProfile="full" viewBox="0 0 200 200" width="200" height="200">
<g fill="black">
<path d="M 123.4 182.8 L 120.9 182.4 L 118.5 181.6 L 116.2 180.3 L 114.2 178.7 L 112.6 176.7 L 111.3 174.4 L 110.5 172.0 L 110.1 169.5 L 110.0 167.0 L 110.0 99.0 L 84.8 99.0 L 89.9 100.2 L 92.8 102.3 L 89.4565499305725 104.13561964035034 L 88.3 114.4 L 85.4 127.5 L 81.0 139.6 L 75.3 150.4 L 68.3 160.1 L 59.9 168.5 L 50.3 175.6 L 39.4 181.4 L 27.4 185.8 L 14.2 188.8 L 13.7 187.1 L 26.1 182.2 L 37.0 176.6 L 46.5 170.2 L 54.7 162.9 L 61.6 154.8 L 67.3 145.8 L 71.7 135.8 L 75.0 124.8 L 77.0 112.8 L 77.9 99.7 L 77.93026485443116 99.70126104354858 L 77.9515151977539 99.0 L 59.0 99.0 L 59.0 111.0 L 47.0 117.0 L 47.0 21.0 L 59.0 27.0 L 143.0 27.0 L 149.0 22.0 L 160.0 31.0 L 155.0 35.0 L 155.0 105.0 L 143.0 111.0 L 143.0 99.0 L 122.0 99.0 L 122.0 168.2 L 122.2 169.1 L 122.5 170.0 L 122.9 170.4 L 123.8 170.7 L 124.7 170.9 L 126.0 171.0 L 174.0 171.0 L 180.0 146.0 L 182.0 146.0 L 180.0 171.0 L 183.6 173.4 L 186.0 177.0 L 183.6 180.6 L 180.0 183.0 L 126.0 183.0 Z M 59.0 31.0 L 59.0 95.0 L 143.0 95.0 L 143.0 31.0 Z " />
</g>
</svg>
