<svg xmlns="http://www.w3.org/2000/svg" xmlns:xlink="http://www.w3.org/1999/xlink" version="1.1" baseProfile="full" viewBox="0 0 200 200" width="200" height="200">
<g fill="black">
<path d="M 92.8 114.6 L 95.5 117.0 L 92.0465449333191 118.56382865905762 L 90.5 126.7 L 86.9 137.9 L 82.2 148.1 L 76.3 157.2 L 69.3 165.3 L 61.1 172.3 L 51.9 178.2 L 41.7 183.0 L 30.4 186.5 L 18.1 188.8 L 17.8 187.1 L 29.2 182.9 L 39.4 178.1 L 48.5 172.6 L 56.3 166.4 L 63.1 159.6 L 68.7 151.9 L 73.3 143.5 L 76.8 134.3 L 79.4 124.2 L 80.88913040161133 113.37898550033569 L 81.1 111.2 Z M 180.0 148.0 L 182.0 148.0 L 180.0 173.0 L 183.6 175.4 L 186.0 179.0 L 183.6 182.6 L 180.0 185.0 L 127.0 185.0 L 124.4 184.8 L 121.9 184.4 L 119.5 183.6 L 117.2 182.3 L 115.2 180.7 L 113.6 178.7 L 112.3 176.4 L 111.5 174.0 L 111.1 171.5 L 111.0 169.0 L 111.0 111.0 L 123.0 113.0 L 126.0 115.0 L 123.0 116.8 L 123.0 170.2 L 123.2 171.1 L 123.5 172.0 L 123.9 172.4 L 124.8 172.7 L 125.7 172.9 L 127.0 173.0 L 174.0 173.0 Z M 150.0 104.2 L 147.1 100.5 L 144.68511600494384 97.61771907806397 L 135.8 99.2 L 121.9 101.4 L 108.7 103.4 L 96.1 105.1 L 84.2 106.8 L 73.0 108.3 L 62.5 109.6 L 52.6 110.9 L 43.4 112.0 L 39.053143405914305 112.51139488220215 L 37.2 115.9 L 34.9 113.0 L 32.0 101.2 L 34.0 101.1 L 42.5 100.7 L 51.7 100.2 L 60.42741060256958 99.66566877365112 L 60.7 99.3 L 64.8 93.9 L 72.6 83.3 L 76.3 78.1 L 79.9 72.8 L 83.2 67.5 L 86.4 62.2 L 89.5 56.8 L 91.91329507827759 52.306278228759766 L 91.9 52.3 L 92.9 50.5 L 102.7 57.4 L 104.3 60.7 L 100.56111106872558 60.7 L 99.2 62.8 L 95.4 68.1 L 91.5 73.3 L 87.3 78.3 L 83.0 83.3 L 78.4 88.2 L 73.7 93.0 L 68.7 97.5 L 66.51219511032104 99.31629085540771 L 72.1 99.0 L 83.4 98.3 L 95.4 97.6 L 108.0 96.8 L 121.4 96.1 L 135.4 95.4 L 142.49018535614013 95.11256008148193 L 140.6 93.0 L 136.9 89.2 L 133.0 85.3 L 128.9 81.4 L 124.7 77.3 L 120.2 73.1 L 121.2 71.6 L 126.9 74.2 L 132.2 77.1 L 137.1 80.2 L 141.8 83.4 L 146.3 86.7 L 150.5 90.1 L 154.4 93.6 L 158.1 97.2 L 161.6 100.9 L 164.8 104.6 L 165.8 109.1 L 163.5 113.0 L 159.0 114.0 L 155.1 111.6 L 152.7 107.9 Z M 74.2 36.4 L 75.8 39.6 L 71.82960968017578 39.66729478836059 L 70.5 41.5 L 66.4 46.4 L 61.7 51.0 L 56.7 55.4 L 51.2 59.5 L 45.2 63.4 L 38.8 67.0 L 31.9 70.4 L 24.6 73.4 L 16.7 76.0 L 16.0 74.4 L 22.9 70.0 L 29.3 65.7 L 35.3 61.5 L 40.8 57.2 L 45.9 52.9 L 50.4 48.5 L 54.5 44.0 L 58.1 39.5 L 61.2 34.9 L 63.42362871170044 31.11159553527832 L 63.4 31.1 L 64.4 29.4 Z M 160.7 66.6 L 154.2 62.5 L 148.3 58.1 L 143.1 53.5 L 138.5 48.6 L 134.6 43.4 L 131.5 37.9 L 129.7372262954712 33.531386852264404 L 128.8 34.0 L 128.8 30.23333330154419 L 128.16271190643312 27.1 L 74.3 27.1 L 74.3 23.1 L 123.88000001907349 23.1 L 128.8 19.0 L 139.8 28.0 L 134.8 31.0 L 133.91056909561158 31.444715404510497 L 136.5 34.7 L 140.3 38.8 L 144.5 42.7 L 149.1 46.4 L 154.3 49.8 L 160.0 53.1 L 166.1 56.1 L 172.9 59.0 L 180.2 61.6 L 187.0 64.2 L 175.5 74.0 L 167.8 70.4 Z M 128.5 26.1125 L 128.8 26.0 L 128.5 25.9 Z " />
</g>
</svg>
