<svg xmlns="http://www.w3.org/2000/svg" xmlns:xlink="http://www.w3.org/1999/xlink" version="1.1" baseProfile="full" viewBox="0 0 200 200" width="200" height="200">
<g fill="black">
<path d="M 85.72661867141724 100.9640287399292 L 85.0 111.5 L 82.6 125.1 L 78.8 137.4 L 73.7 148.7 L 67.2 158.7 L 59.3 167.4 L 50.1 174.8 L 39.7 180.9 L 28.0 185.6 L 15.2 188.8 L 14.7 187.1 L 26.6 182.0 L 37.0 176.2 L 46.1 169.6 L 53.8 162.1 L 60.2 153.7 L 65.4 144.4 L 69.4 134.2 L 72.1 122.8 L 73.6 110.5 L 74.0 97.0 L 74.0 94.6 L 86.0 97.0 L 89.0 99.0 Z M 182.0 148.0 L 184.0 148.0 L 182.0 173.0 L 185.6 175.4 L 188.0 179.0 L 185.6 182.6 L 182.0 185.0 L 128.0 185.0 L 125.4 184.8 L 122.9 184.4 L 120.5 183.6 L 118.2 182.3 L 116.2 180.7 L 114.6 178.7 L 113.3 176.4 L 112.5 174.0 L 112.1 171.5 L 112.0 169.0 L 112.0 91.0 L 124.0 93.0 L 127.0 95.0 L 124.0 96.8 L 124.0 170.2 L 124.2 171.1 L 124.5 172.0 L 124.9 172.4 L 125.8 172.7 L 126.7 172.9 L 128.0 173.0 L 176.0 173.0 Z M 161.8 90.7 L 158.9 85.4 L 155.4 80.0 L 152.51542291641235 75.96159200668335 L 145.6 77.4 L 133.0 79.8 L 120.3 81.9 L 94.7 85.9 L 81.8 87.8 L 55.8 91.4 L 33.61222038269043 94.27933015823365 L 31.9 97.6 L 29.6 94.8 L 26.3 83.1 L 28.3 82.9 L 41.5 81.8 L 57.53680372238159 80.45339813232422 L 59.7 76.8 L 64.1 69.5 L 68.4 62.3 L 72.6 55.3 L 76.5 48.4 L 80.3 41.6 L 83.8 34.9 L 87.1 28.2 L 90.2 21.7 L 93.1 15.2 L 93.14014873504638 15.219702625274659 L 93.7 14.1 L 103.9 20.5 L 105.7 23.6 L 101.97565116882325 23.921064567565917 L 100.3 26.9 L 96.5 33.4 L 92.5 39.9 L 88.2 46.4 L 83.7 52.9 L 78.9 59.5 L 73.8 66.1 L 68.5 72.6 L 62.8 79.1 L 61.85569820404053 80.0907428741455 L 67.7 79.6 L 80.7 78.5 L 93.7 77.5 L 106.6 76.4 L 119.5 75.4 L 132.3 74.4 L 145.1 73.7 L 150.6373462677002 73.43839311599731 L 146.8 68.6 L 141.8 62.7 L 136.4 56.5 L 130.5 50.0 L 124.1 43.3 L 125.3 41.9 L 133.0 47.2 L 140.0 52.6 L 146.5 58.0 L 152.4 63.5 L 157.8 68.9 L 162.7 74.3 L 167.1 79.7 L 171.0 85.1 L 174.4 90.5 L 177.3 95.8 L 177.3 100.4 L 174.1 103.7 L 169.6 103.7 L 166.3 100.6 L 164.3 95.7 Z " />
</g>
</svg>
