<svg xmlns="http://www.w3.org/2000/svg" xmlns:xlink="http://www.w3.org/1999/xlink" version="1.1" baseProfile="full" viewBox="0 0 200 200" width="200" height="200">
<g fill="black">
<path d="M 85.75 91.95 L 85.0 103.8 L 82.6 118.5 L 78.8 131.9 L 73.6 144.0 L 67.0 154.8 L 59.0 164.2 L 49.7 172.1 L 39.0 178.6 L 27.2 183.5 L 14.2 186.8 L 13.7 185.1 L 25.8 180.0 L 36.4 173.9 L 45.6 167.0 L 53.4 159.1 L 59.9 150.1 L 65.2 140.0 L 69.2 128.8 L 72.0 116.4 L 73.6 102.8 L 74.0 88.0 L 74.0 86.0 L 16.0 86.0 L 16.0 82.0 L 162.0 82.0 L 172.0 72.0 L 184.0 82.0 L 184.0 86.0 L 76.0 86.0 L 86.0 88.0 L 89.0 90.0 Z M 129.4 178.8 L 126.9 178.4 L 124.5 177.6 L 122.2 176.3 L 120.2 174.7 L 118.6 172.7 L 117.3 170.4 L 116.5 168.0 L 116.1 165.5 L 116.0 163.0 L 116.0 86.0 L 128.0 88.0 L 131.0 90.0 L 128.0 91.8 L 128.0 164.2 L 128.2 165.1 L 128.5 166.0 L 128.9 166.4 L 129.8 166.7 L 130.7 166.9 L 132.0 167.0 L 174.0 167.0 L 180.0 142.0 L 182.0 142.0 L 180.0 167.0 L 183.6 169.4 L 186.0 173.0 L 183.6 176.6 L 180.0 179.0 L 132.0 179.0 Z M 169.0 31.0 L 169.0 35.0 L 31.0 35.0 L 31.0 31.0 L 147.0 31.0 L 157.0 21.0 Z " />
</g>
</svg>
