<svg xmlns="http://www.w3.org/2000/svg" xmlns:xlink="http://www.w3.org/1999/xlink" version="1.1" baseProfile="full" viewBox="0 0 200 200" width="200" height="200">
<g fill="black">
<path d="M 91.7 123.8 L 94.4 126.2 L 90.80671014785767 127.73047533035279 L 89.2 134.8 L 85.4 144.9 L 80.3 154.0 L 74.1 162.1 L 66.7 169.1 L 58.3 175.1 L 48.7 179.9 L 38.2 183.7 L 26.6 186.4 L 14.1 187.8 L 13.8 186.1 L 25.7 182.7 L 36.4 178.7 L 45.8 174.0 L 54.1 168.7 L 61.1 162.8 L 67.0 156.1 L 71.7 148.8 L 75.5 140.7 L 78.2 131.8 L 79.72449188232422 123.10142869949341 L 79.7 123.1 L 80.2 120.1 Z M 183.0 147.0 L 185.0 147.0 L 183.0 172.0 L 186.6 174.4 L 189.0 178.0 L 186.6 181.6 L 183.0 184.0 L 130.0 184.0 L 127.4 183.8 L 124.9 183.4 L 122.5 182.6 L 120.2 181.3 L 118.2 179.7 L 116.6 177.7 L 115.3 175.4 L 114.5 173.0 L 114.1 170.5 L 114.0 168.0 L 114.0 122.0 L 126.0 124.0 L 129.0 126.0 L 126.0 127.8 L 126.0 169.2 L 126.2 170.1 L 126.5 171.0 L 126.9 171.4 L 127.8 171.7 L 128.7 171.9 L 130.0 172.0 L 177.0 172.0 Z M 59.65864944458008 27.564795112609865 L 66.7 34.3 L 66.9 37.5 L 63.177205848693845 35.97426471710205 L 60.7 36.8 L 57.6 37.8 L 54.3 38.7 L 50.9 39.6 L 47.3 40.5 L 43.6 41.3 L 39.7 42.0 L 35.7 42.7 L 33.0 43.02142858505249 L 33.0 108.0 L 45.81818180084228 108.0 L 54.0 99.0 L 64.0 108.0 L 64.0 112.0 L 33.0 112.0 L 33.0 124.0 L 21.0 130.0 L 21.0 35.0 L 31.1 40.05 L 34.4 38.4 L 41.4 34.8 L 44.6 33.1 L 47.7 31.5 L 50.6 29.8 L 53.4 28.2 L 56.0 26.6 L 57.54295616149902 25.571362590789796 L 57.5 25.5 L 57.56160717010498 25.55892858505249 L 58.4 25.0 Z M 186.0 39.0 L 181.0 43.0 L 181.0 118.0 L 169.0 124.0 L 169.0 112.0 L 142.0 112.0 L 142.0 108.0 L 169.0 108.0 L 169.0 39.0 L 144.0 39.0 L 144.0 35.0 L 169.0 35.0 L 175.0 30.0 Z M 109.9 18.5 L 111.7 21.7 L 107.38538846969604 21.992516040802002 L 104.5 26.0 L 102.6 28.5 L 98.6 33.3 L 94.2 37.9 L 91.90909090042115 40.0 L 123.0 40.0 L 129.0 35.0 L 140.0 44.0 L 135.0 48.0 L 135.0 111.0 L 123.0 117.0 L 123.0 111.0 L 81.0 111.0 L 81.0 114.0 L 69.0 120.0 L 69.0 34.0 L 81.0 40.0 L 88.9 40.0 L 89.6 38.6 L 90.7 35.6 L 91.8 32.7 L 93.0 29.8 L 95.2 24.2 L 97.2 18.6 L 98.2 15.9 L 98.78842105865479 14.134736824035645 L 98.7 14.1 L 99.0 13.5 L 99.1 13.2 L 99.14014873504638 13.219702625274659 L 99.7 12.1 Z M 81.0 76.0 L 81.0 107.0 L 123.0 107.0 L 123.0 76.0 Z M 81.0 44.0 L 81.0 72.0 L 123.0 72.0 L 123.0 44.0 Z " />
</g>
</svg>
