<svg xmlns="http://www.w3.org/2000/svg" xmlns:xlink="http://www.w3.org/1999/xlink" version="1.1" baseProfile="full" viewBox="0 0 200 200" width="200" height="200">
<g fill="black">
<path d="M 46.4 166.1 L 49.4 165.0 L 53.0 163.5 L 57.2 161.8 L 61.9 159.88163261413575 L 61.9 104.0 L 48.098319339752194 104.0 L 46.8 114.3 L 44.8 125.4 L 42.4 135.7 L 39.5 145.3 L 36.2 154.2 L 32.4 162.2 L 28.1 169.4 L 23.4 175.8 L 18.1 181.2 L 12.4 185.6 L 11.2 184.3 L 15.3 178.7 L 19.0 172.7 L 22.4 166.2 L 25.5 159.0 L 28.2 151.2 L 30.6 142.7 L 32.6 133.5 L 34.2 123.6 L 35.5 112.9 L 36.07155961990357 104.0 L 14.7 104.0 L 14.7 100.0 L 51.1 100.0 L 51.1 56.0 L 33.444444465637204 56.0 L 33.4 56.2 L 31.4 63.9 L 29.2 71.1 L 26.7 77.9 L 24.0 84.2 L 20.9 90.1 L 17.5 95.3 L 15.9 94.6 L 17.4 88.6 L 18.9 82.5 L 20.4 76.0 L 21.8 69.2 L 23.1 62.0 L 24.3 54.5 L 25.3 46.6 L 26.1 38.2 L 26.8 29.5 L 27.33335189819336 21.4997220993042 L 27.3 21.5 L 27.6 18.3 L 39.3 21.4 L 42.2 23.7 L 38.83256511688232 25.351949214935303 L 38.2 30.7 L 36.8 39.6 L 35.2 48.1 L 34.33333330154419 52.0 L 51.1 52.0 L 51.1 15.0 L 63.1 17.0 L 66.1 19.0 L 63.1 20.8 L 63.1 52.0 L 70.5 52.0 L 80.5 42.0 L 92.5 52.0 L 92.5 56.0 L 63.1 56.0 L 63.1 100.0 L 74.5 100.0 L 84.5 90.0 L 96.5 100.0 L 96.5 104.0 L 73.9 104.0 L 73.9 154.83636360168458 L 80.1 152.3 L 87.4 149.4 L 95.3 146.3 L 104.0 143.1 L 104.8 144.8 L 97.0 149.7 L 89.8 154.2 L 83.1 158.2 L 76.9 161.8 L 71.3 165.1 L 66.2 168.1 L 61.7 170.8 L 57.9 173.1 L 55.45785274505615 174.5365571975708 L 55.0 178.6 L 51.8 176.8 L 44.6 167.1 Z M 182.0 147.0 L 184.0 147.0 L 182.0 172.0 L 185.6 174.4 L 188.0 178.0 L 185.6 181.6 L 182.0 184.0 L 166.0 184.0 L 163.4 183.8 L 160.9 183.4 L 158.5 182.6 L 156.2 181.3 L 154.2 179.7 L 152.6 177.7 L 151.3 175.4 L 150.5 173.0 L 150.1 170.5 L 150.0 168.0 L 150.0 104.0 L 134.74518518447877 104.0 L 133.8 115.6 L 131.9 128.0 L 129.1 139.5 L 125.5 149.9 L 121.0 159.3 L 115.7 167.7 L 109.5 174.8 L 102.5 180.8 L 94.8 185.5 L 86.3 188.8 L 85.6 187.1 L 92.8 182.2 L 99.1 176.7 L 104.6 170.5 L 109.4 163.4 L 113.4 155.6 L 116.7 146.8 L 119.4 137.0 L 121.3 126.3 L 122.5 114.5 L 122.83599996566772 104.0 L 100.0 104.0 L 100.0 100.0 L 138.0 100.0 L 138.0 55.0 L 119.42972974777221 55.0 L 117.2 61.6 L 114.6 68.7 L 111.6 75.5 L 108.4 81.9 L 104.7 87.8 L 100.7 93.4 L 99.2 92.5 L 101.3 86.2 L 103.4 79.7 L 105.5 73.1 L 107.4 66.3 L 109.1 59.3 L 110.6 52.0 L 112.0 44.4 L 113.2 36.7 L 114.1 28.6 L 114.8036057472229 21.3000901222229 L 114.8 21.3 L 115.1 18.2 L 126.8 21.6 L 129.6 23.9 L 126.16683740615845 25.489427089691162 L 125.4 30.2 L 123.7 38.5 L 121.8 46.5 L 120.57272729873657 51.0 L 138.0 51.0 L 138.0 15.0 L 150.0 17.0 L 153.0 19.0 L 150.0 20.8 L 150.0 51.0 L 160.0 51.0 L 170.0 41.0 L 182.0 51.0 L 182.0 55.0 L 150.0 55.0 L 150.0 100.0 L 165.0 100.0 L 175.0 90.0 L 187.0 100.0 L 187.0 104.0 L 162.0 104.0 L 162.0 169.2 L 162.2 170.1 L 162.5 171.0 L 162.9 171.4 L 163.8 171.7 L 164.7 171.9 L 166.0 172.0 L 176.0 172.0 Z " />
</g>
</svg>
