<svg xmlns="http://www.w3.org/2000/svg" xmlns:xlink="http://www.w3.org/1999/xlink" version="1.1" baseProfile="full" viewBox="0 0 200 200" width="200" height="200">
<g fill="black">
<path d="M 85.8 125.6 L 88.5 128.0 L 84.96140556335449 129.6023823738098 L 83.6 136.1 L 80.3 145.7 L 75.7 154.5 L 70.0 162.4 L 63.1 169.3 L 55.1 175.2 L 46.1 180.1 L 36.1 184.1 L 25.1 187.0 L 13.1 188.8 L 12.8 187.1 L 24.1 183.3 L 34.2 179.1 L 43.0 174.3 L 50.7 169.0 L 57.3 163.1 L 62.7 156.6 L 67.0 149.5 L 70.3 141.8 L 72.6 133.4 L 73.86666669845582 124.53333330154419 L 74.1 122.2 Z M 182.0 147.0 L 184.0 147.0 L 182.0 172.0 L 185.6 174.4 L 188.0 178.0 L 185.6 181.6 L 182.0 184.0 L 130.0 184.0 L 127.4 183.8 L 124.9 183.4 L 122.5 182.6 L 120.2 181.3 L 118.2 179.7 L 116.6 177.7 L 115.3 175.4 L 114.5 173.0 L 114.1 170.5 L 114.0 168.0 L 114.0 123.0 L 126.0 125.0 L 129.0 127.0 L 126.0 128.8 L 126.0 169.2 L 126.2 170.1 L 126.5 171.0 L 126.9 171.4 L 127.8 171.7 L 128.7 171.9 L 130.0 172.0 L 176.0 172.0 Z M 14.6 99.0 L 17.9 98.0 L 21.3 97.0 L 24.8 95.9 L 28.3 94.7 L 35.7 92.3 L 39.5 91.0 L 43.4 89.7 L 46.0 88.93902435302735 L 46.0 54.0 L 16.0 54.0 L 16.0 50.0 L 46.0 50.0 L 46.0 15.0 L 58.0 17.0 L 61.0 19.0 L 58.0 20.8 L 58.0 113.0 L 46.0 119.0 L 46.0 93.51764707565307 L 45.5 93.9 L 42.1 96.3 L 38.7 98.6 L 32.1 102.8 L 25.5 106.6 L 23.021126747131348 107.99436616897583 L 22.2 112.1 L 19.2 110.1 L 12.7 99.8 Z M 106.0 16.0 L 108.6 18.5 L 104.36336631774903 20.04059410095215 L 104.2 20.4 L 103.3 22.5 L 102.2 24.7 L 101.2 26.9 L 98.8 31.3 L 97.5 33.5 L 96.1 35.6 L 96.05652170181274 35.7 L 116.0 35.7 L 122.0 30.7 L 133.0 39.7 L 128.0 43.7 L 128.0 108.9 L 116.0 114.9 L 116.0 106.9 L 83.9 106.9 L 83.9 109.9 L 71.9 115.9 L 71.9 29.7 L 83.9 35.7 L 93.7541666984558 35.7 L 93.9 35.0 L 93.9 29.9 L 94.1 25.1 L 94.1 22.8 L 94.2 20.4 L 94.2 18.2 L 94.3 15.9 L 94.24618043899537 14.715969276428222 L 94.1 14.7 L 94.21510791778564 14.032374095916747 L 94.2 13.7 L 94.27005939483642 13.71365566253662 L 94.6 11.8 Z M 155.3 114.9 L 152.8 114.5 L 150.4 113.7 L 148.2 112.5 L 146.2 110.8 L 144.5 108.8 L 143.3 106.5 L 142.5 104.1 L 142.0 101.6 L 141.9 99.1 L 141.9 14.5 L 153.9 16.5 L 156.9 18.5 L 153.9 20.3 L 153.9 57.84666662216186 L 156.7 55.7 L 159.6 53.3 L 162.6 50.8 L 165.5 48.1 L 168.3 45.4 L 173.9 39.4 L 176.01252641677857 36.91023664474487 L 176.0 36.9 L 176.3181818008423 36.55 L 176.7 36.1 L 176.71444568634033 36.114109706878665 L 177.0 35.8 L 185.3 44.5 L 186.0 48.1 L 182.1227642059326 47.14769649505615 L 181.7 47.5 L 178.1 50.3 L 174.5 52.9 L 170.8 55.3 L 167.1 57.4 L 163.4 59.3 L 159.6 60.9 L 155.9 62.2 L 153.9 62.712820529937744 L 153.9 99.1 L 154.0 100.3 L 154.1 101.2 L 154.3 101.8 L 154.5 102.1 L 154.6 102.3 L 154.8 102.5 L 155.2 102.7 L 155.8 102.8 L 156.7 103.0 L 157.9 103.1 L 176.9 103.1 L 182.9 78.1 L 184.9 78.1 L 182.9 103.1 L 186.5 105.5 L 188.9 109.1 L 186.5 112.7 L 182.9 115.1 L 157.9 115.1 Z M 83.9 72.4 L 83.9 102.9 L 116.0 102.9 L 116.0 72.4 Z M 83.9 39.7 L 83.9 68.4 L 116.0 68.4 L 116.0 39.7 Z " />
</g>
</svg>
