<svg xmlns="http://www.w3.org/2000/svg" xmlns:xlink="http://www.w3.org/1999/xlink" version="1.1" baseProfile="full" viewBox="0 0 200 200" width="200" height="200">
<g fill="black">
<path d="M 36.4 180.8 L 33.9 180.4 L 31.5 179.6 L 29.2 178.3 L 27.2 176.7 L 25.6 174.7 L 24.3 172.4 L 23.5 170.0 L 23.1 167.5 L 23.0 165.0 L 23.0 26.0 L 35.0 28.0 L 38.0 30.0 L 35.0 31.8 L 35.0 166.2 L 35.2 167.1 L 35.5 168.0 L 35.9 168.4 L 36.8 168.7 L 37.7 168.9 L 39.0 169.0 L 176.0 169.0 L 179.6 171.4 L 182.0 175.0 L 179.6 178.6 L 176.0 181.0 L 39.0 181.0 Z M 150.7 133.3 L 141.6 123.2 L 133.6 112.1 L 126.7 100.0 L 121.1 87.1 L 118.34954957962036 78.4009009361267 L 117.5 80.1 L 111.5 90.4 L 104.8 100.2 L 97.6 109.3 L 89.9 117.8 L 81.6 125.7 L 72.7 132.9 L 63.3 139.5 L 53.3 145.2 L 42.8 150.2 L 41.9 148.6 L 51.3 142.0 L 60.2 135.1 L 68.5 127.9 L 76.3 120.2 L 83.6 112.1 L 90.4 103.6 L 96.6 94.5 L 102.2 84.9 L 107.4 74.9 L 112.0 64.3 L 113.93813457489014 59.858441543579104 L 113.8 59.2 L 112.4 44.5 L 112.68000001907349 30.5 L 76.8 30.5 L 76.8 26.5 L 108.8 26.5 L 113.6 22.5 L 124.6 31.5 L 119.6 34.5 L 115.51309900283813 36.54345045089722 L 116.6 44.1 L 119.6 58.1 L 122.98569650650025 69.08286905288696 L 123.0 69.1 L 122.99441862106323 69.11116275787353 L 123.7 71.4 L 128.8 83.9 L 135.0 95.6 L 142.0 106.3 L 150.0 116.1 L 158.7 124.6 L 168.2 132.0 L 178.4 138.1 L 183.2 140.8 L 171.9 149.7 L 160.8 142.1 Z " />
</g>
</svg>
