<svg xmlns="http://www.w3.org/2000/svg" xmlns:xlink="http://www.w3.org/1999/xlink" version="1.1" baseProfile="full" viewBox="0 0 200 200" width="200" height="200">
<g fill="black">
<path d="M 152.6 166.1 L 149.4 159.5 L 147.6351463317871 156.12156591415405 L 137.8 158.5 L 123.2 161.9 L 109.3 164.9 L 96.1 167.6 L 83.6 170.1 L 71.8 172.4 L 60.8 174.5 L 50.4 176.5 L 40.7 178.2 L 35.78162336349487 179.0842025756836 L 34.1 182.5 L 31.8 179.8 L 28.1 168.1 L 30.1 167.9 L 39.1 166.9 L 48.8 165.8 L 56.82547426223755 164.87398376464844 L 58.4 161.5 L 66.8 143.7 L 70.9 134.7 L 74.8 125.6 L 78.5 116.5 L 82.2 107.2 L 85.6 97.9 L 88.9 88.5 L 91.67118892669677 79.91825361251831 L 91.6 79.9 L 92.5 77.5 L 103.3 82.9 L 105.5 85.7 L 101.87471265792847 86.46321840286255 L 99.5 92.4 L 95.6 101.8 L 91.4 111.1 L 87.0 120.3 L 82.5 129.3 L 77.6 138.1 L 72.6 146.7 L 67.3 155.2 L 61.7 163.5 L 61.03916082382202 164.3701048851013 L 70.4 163.2 L 82.3 161.7 L 94.9 160.1 L 108.2 158.4 L 122.3 156.6 L 137.2 154.8 L 146.41991491317748 153.79526567459106 L 145.9 152.8 L 142.3 146.3 L 138.4 139.7 L 134.3 133.2 L 130.0 126.6 L 125.5 120.0 L 121.0 113.3 L 122.3 112.1 L 128.4 117.6 L 134.1 123.3 L 139.5 129.2 L 144.6 135.4 L 149.4 141.6 L 153.9 148.0 L 158.1 154.5 L 162.1 161.2 L 165.8 167.9 L 169.3 174.8 L 169.3 179.4 L 166.1 182.7 L 161.6 182.7 L 158.3 179.6 L 155.5 172.8 Z M 84.1 33.2 L 86.1 36.2 L 82.42873401641846 36.706381511688235 L 79.0 43.9 L 73.4 54.2 L 67.4 64.0 L 60.9 73.4 L 54.0 82.3 L 46.6 90.6 L 38.8 98.5 L 30.5 105.9 L 21.8 112.6 L 12.5 118.7 L 11.4 117.2 L 19.3 109.7 L 26.9 101.9 L 34.0 94.0 L 40.8 85.7 L 47.2 77.1 L 53.2 68.1 L 58.8 58.8 L 63.9 49.1 L 68.7 39.0 L 72.62461071014404 29.507918262481688 L 72.6 29.5 L 72.90851068496704 28.821276569366454 L 73.0 28.6 L 73.00764989852905 28.6031702041626 L 73.6 27.3 Z M 161.0 96.3 L 153.1 88.3 L 145.8 79.8 L 139.1 70.8 L 132.9 61.2 L 127.3 51.0 L 122.3 40.3 L 117.9 29.0 L 114.5 17.2 L 116.1 16.6 L 121.8 27.4 L 127.5 37.7 L 133.5 47.4 L 139.8 56.5 L 146.5 65.1 L 153.6 73.1 L 161.0 80.5 L 168.8 87.4 L 177.0 93.7 L 185.6 99.5 L 189.3 101.9 L 178.3 110.4 L 169.4 103.6 Z " />
</g>
</svg>
