<svg xmlns="http://www.w3.org/2000/svg" xmlns:xlink="http://www.w3.org/1999/xlink" version="1.1" baseProfile="full" viewBox="0 0 200 200" width="200" height="200">
<g fill="black">
<path d="M 81.3 153.0 L 81.8 156.6 L 78.15865383148193 155.55961542129518 L 75.9 157.4 L 70.3 161.5 L 64.5 165.6 L 58.4 169.5 L 52.1 173.2 L 45.5 176.8 L 38.6 180.1 L 31.5 183.3 L 24.1 186.2 L 16.3 188.8 L 15.6 187.1 L 22.4 182.8 L 29.0 178.6 L 35.4 174.4 L 41.6 170.2 L 47.5 166.0 L 53.1 161.8 L 58.5 157.5 L 63.7 153.1 L 68.5 148.7 L 72.43531742095948 144.932142829895 L 72.4 144.9 L 73.4 144.0 Z M 156.1 177.3 L 152.0 173.3 L 147.5 169.4 L 142.6 165.5 L 137.4 161.8 L 131.9 158.1 L 126.1 154.5 L 120.0 150.9 L 113.6 147.2 L 114.2 145.5 L 121.5 147.4 L 128.4 149.7 L 135.0 152.3 L 141.3 155.2 L 147.3 158.4 L 152.9 161.8 L 158.3 165.5 L 163.3 169.3 L 168.1 173.4 L 172.5 177.7 L 173.9 182.1 L 171.9 186.2 L 167.6 187.6 L 163.5 185.6 L 160.0 181.4 Z M 13.0 132.8 L 55.0 132.8 L 55.0 48.9 L 18.0 48.9 L 18.0 44.9 L 55.0 44.9 L 55.0 13.9 L 67.0 15.9 L 70.0 17.9 L 67.0 19.7 L 67.0 44.9 L 133.0 44.9 L 133.0 13.9 L 145.0 15.9 L 148.0 17.9 L 145.0 19.7 L 145.0 44.9 L 160.0 44.9 L 170.0 34.9 L 182.0 44.9 L 182.0 48.9 L 145.0 48.9 L 145.0 132.8 L 165.0 132.8 L 175.0 122.8 L 187.0 132.8 L 187.0 136.8 L 13.0 136.8 Z M 67.0 107.0 L 67.0 132.8 L 133.0 132.8 L 133.0 107.0 Z M 67.0 78.0 L 67.0 103.0 L 133.0 103.0 L 133.0 78.0 Z M 67.0 48.9 L 67.0 74.0 L 133.0 74.0 L 133.0 48.9 Z " />
</g>
</svg>
