<svg xmlns="http://www.w3.org/2000/svg" xmlns:xlink="http://www.w3.org/1999/xlink" version="1.1" baseProfile="full" viewBox="0 0 200 200" width="200" height="200">
<g fill="black">
<path d="M 78.9 132.6 L 77.75483875274658 139.7 L 124.0 139.7 L 124.0 106.7 L 136.0 108.7 L 139.0 110.7 L 136.0 112.5 L 136.0 139.7 L 163.0 139.7 L 173.0 129.7 L 185.0 139.7 L 185.0 143.7 L 136.0 143.7 L 136.0 183.9 L 124.0 189.9 L 124.0 143.7 L 76.94482755661011 143.7 L 75.2 150.6 L 72.2 158.5 L 68.4 165.6 L 63.9 172.0 L 58.6 177.5 L 52.7 182.2 L 46.1 185.9 L 39.0 188.6 L 31.2 190.4 L 30.7 188.6 L 37.5 185.2 L 43.4 181.3 L 48.7 177.0 L 53.2 172.3 L 57.0 167.0 L 60.2 161.2 L 62.8 154.8 L 64.8 147.7 L 65.52727270126343 143.7 L 16.0 143.7 L 16.0 139.7 L 66.22857141494751 139.7 L 67.0 131.6 L 67.0 106.7 L 79.0 108.7 L 82.0 110.7 L 79.0 112.5 L 79.0 132.1 L 78.67904510498047 132.5814323425293 Z M 149.0 10.6 L 152.0 12.6 L 149.0 14.4 L 149.0 29.0 L 165.0 29.0 L 175.0 19.0 L 187.0 29.0 L 187.0 33.0 L 149.0 33.0 L 149.0 102.9 L 137.0 108.9 L 137.0 96.9 L 63.0 96.9 L 63.0 108.9 L 51.0 114.9 L 51.0 33.0 L 13.0 33.0 L 13.0 29.0 L 51.0 29.0 L 51.0 8.6 L 63.0 10.6 L 66.0 12.6 L 63.0 14.4 L 63.0 29.0 L 137.0 29.0 L 137.0 8.6 Z M 63.0 63.5 L 63.0 92.9 L 137.0 92.9 L 137.0 63.5 Z M 63.0 33.0 L 63.0 59.5 L 137.0 59.5 L 137.0 33.0 Z " />
</g>
</svg>
