<svg xmlns="http://www.w3.org/2000/svg" xmlns:xlink="http://www.w3.org/1999/xlink" version="1.1" baseProfile="full" viewBox="0 0 200 200" width="200" height="200">
<g fill="black">
<path d="M 162.0 29.0 L 121.0 29.0 L 121.0 73.0 L 120.9 74.2 L 121.0 75.1 L 121.1 75.8 L 121.3 76.6 L 121.5 76.9 L 121.9 77.2 L 122.6 77.5 L 123.6 77.8 L 125.0 78.0 L 162.0 78.0 Z M 75.4 104.1 L 122.5 104.1 L 128.5 99.1 L 139.5 108.1 L 134.5 112.1 L 134.5 156.8 L 122.5 162.8 L 122.5 150.8 L 75.4 150.8 L 75.4 162.8 L 63.4 168.8 L 63.4 98.1 Z M 75.4 108.1 L 75.4 146.8 L 122.5 146.8 L 122.5 108.1 Z M 173.4 177.0 L 172.6 179.4 L 171.3 181.7 L 169.7 183.7 L 167.7 185.3 L 165.4 186.6 L 163.0 187.4 L 160.5 187.8 L 158.0 188.0 L 158.0 182.0 L 138.0 179.0 L 138.0 176.0 L 158.0 176.0 L 159.2 175.9 L 160.1 175.7 L 161.0 175.4 L 161.4 175.0 L 161.7 174.1 L 161.9 173.2 L 162.0 172.0 L 162.0 88.0 L 125.0 88.0 L 122.5 87.9 L 120.1 87.6 L 117.8 86.9 L 115.6 85.8 L 113.6 84.3 L 111.9 82.5 L 110.6 80.3 L 109.7 78.0 L 109.2 75.5 L 109.0 73.0 L 109.0 29.0 L 91.83090906143188 29.0 L 90.0 39.6 L 87.4 49.9 L 84.1 59.4 L 80.1 68.2 L 75.3 76.2 L 69.9 83.3 L 63.7 89.6 L 56.9 95.0 L 49.4 99.4 L 41.3 102.8 L 40.6 101.1 L 47.4 96.2 L 53.5 90.8 L 59.0 85.0 L 63.9 78.7 L 68.1 71.7 L 71.7 64.2 L 74.7 56.0 L 77.0 47.1 L 78.8 37.6 L 79.80194177627564 29.0 L 39.0 29.0 L 39.0 182.0 L 27.0 188.0 L 27.0 19.0 L 39.0 25.0 L 162.0 25.0 L 168.0 20.0 L 179.0 29.0 L 174.0 33.0 L 174.0 172.0 L 173.8 174.5 Z " />
</g>
</svg>
