<svg xmlns="http://www.w3.org/2000/svg" xmlns:xlink="http://www.w3.org/1999/xlink" version="1.1" baseProfile="full" viewBox="0 0 200 200" width="200" height="200">
<g fill="black">
<path d="M 138.0 176.0 L 158.0 176.0 L 159.2 175.9 L 160.1 175.7 L 161.0 175.4 L 161.4 175.0 L 161.7 174.1 L 161.9 173.2 L 162.0 172.0 L 162.0 29.0 L 39.0 29.0 L 39.0 182.0 L 27.0 188.0 L 27.0 19.0 L 39.0 25.0 L 162.0 25.0 L 168.0 20.0 L 179.0 29.0 L 174.0 33.0 L 174.0 172.0 L 173.8 174.5 L 173.4 177.0 L 172.6 179.4 L 171.3 181.7 L 169.7 183.7 L 167.7 185.3 L 165.4 186.6 L 163.0 187.4 L 160.5 187.8 L 158.0 188.0 L 158.0 182.0 L 138.0 179.0 Z M 76.4 91.3 L 123.5 91.3 L 129.5 86.3 L 140.5 95.3 L 135.5 99.3 L 135.5 146.6 L 123.5 152.6 L 123.5 140.6 L 76.4 140.6 L 76.4 152.6 L 64.4 158.6 L 64.4 85.3 Z M 76.4 95.3 L 76.4 136.6 L 123.5 136.6 L 123.5 95.3 Z M 93.0 47.3 L 94.5 50.6 L 90.66730108261109 50.470077991485596 L 89.1 52.6 L 85.0 57.7 L 80.7 62.7 L 76.2 67.5 L 71.6 72.1 L 66.7 76.5 L 61.7 80.7 L 56.4 84.7 L 50.9 88.4 L 45.1 91.8 L 44.0 90.4 L 48.5 85.5 L 52.9 80.7 L 57.2 76.0 L 61.3 71.2 L 65.3 66.3 L 69.2 61.4 L 72.9 56.4 L 76.4 51.3 L 79.8 46.1 L 82.4883095741272 41.647487258911134 L 82.4 41.6 L 83.5 40.0 Z M 136.7 76.4 L 134.0 71.6 L 131.1 67.1 L 128.1 62.7 L 124.8 58.5 L 121.3 54.5 L 117.6 50.5 L 113.8 46.6 L 109.8 42.7 L 110.7 41.2 L 116.0 43.5 L 121.0 46.3 L 125.7 49.6 L 130.2 53.2 L 134.4 57.1 L 138.5 61.4 L 142.3 65.9 L 145.8 70.7 L 149.1 75.8 L 152.2 81.2 L 152.4 85.7 L 149.4 89.2 L 144.9 89.4 L 141.4 86.4 L 139.2 81.3 Z " />
</g>
</svg>
