<svg xmlns="http://www.w3.org/2000/svg" xmlns:xlink="http://www.w3.org/1999/xlink" version="1.1" baseProfile="full" viewBox="0 0 200 200" width="200" height="200">
<g fill="black">
<path d="M 121.0 176.0 L 139.0 176.0 L 140.2 175.9 L 141.1 175.7 L 142.0 175.4 L 142.4 175.0 L 142.7 174.1 L 142.9 173.2 L 143.0 172.0 L 143.0 154.0 L 56.0 154.0 L 56.0 183.0 L 44.0 189.0 L 44.0 154.0 L 18.0 154.0 L 18.0 150.0 L 44.0 150.0 L 44.0 96.0 L 56.0 102.0 L 94.0 102.0 L 94.0 81.0 L 106.0 83.0 L 109.0 85.0 L 106.0 86.8 L 106.0 102.0 L 143.0 102.0 L 149.0 97.0 L 160.0 106.0 L 155.0 110.0 L 155.0 150.0 L 160.0 150.0 L 170.0 140.0 L 182.0 150.0 L 182.0 154.0 L 155.0 154.0 L 155.0 172.0 L 154.8 174.5 L 154.4 177.0 L 153.6 179.4 L 152.3 181.7 L 150.7 183.7 L 148.7 185.3 L 146.4 186.6 L 144.0 187.4 L 141.5 187.8 L 139.0 188.0 L 139.0 182.0 L 121.0 179.0 Z M 56.0 130.0 L 56.0 150.0 L 94.0 150.0 L 94.0 130.0 Z M 106.0 130.0 L 106.0 150.0 L 143.0 150.0 L 143.0 130.0 Z M 56.0 106.0 L 56.0 126.0 L 94.0 126.0 L 94.0 106.0 Z M 106.0 106.0 L 106.0 126.0 L 143.0 126.0 L 143.0 106.0 Z M 18.2 73.1 L 25.7 72.5 L 33.4 71.8 L 41.3 71.1 L 49.4 70.4 L 50.0 70.34878044128418 L 50.0 51.6 L 23.0 51.6 L 23.0 47.6 L 50.0 47.6 L 50.0 25.8 L 19.0 25.8 L 19.0 21.8 L 75.0 21.8 L 85.0 11.8 L 97.0 21.8 L 97.0 25.8 L 62.0 25.8 L 62.0 47.6 L 74.0 47.6 L 84.0 37.6 L 96.0 47.6 L 96.0 51.6 L 62.0 51.6 L 62.0 69.33764705657958 L 66.1 69.0 L 74.7 68.3 L 83.5 67.7 L 92.6 67.2 L 101.8 66.9 L 102.1 68.6 L 93.1 70.9 L 84.3 73.0 L 75.6 74.8 L 67.1 76.5 L 58.8 78.1 L 50.6 79.7 L 42.6 81.1 L 34.8 82.5 L 27.2 83.8 L 23.750569343566895 84.35190887451172 L 22.0 87.8 L 19.7 85.0 L 16.2 73.4 Z M 100.0 74.4 L 134.0 74.4 L 134.0 51.6 L 107.0 51.6 L 107.0 47.6 L 134.0 47.6 L 134.0 25.8 L 104.0 25.8 L 104.0 21.8 L 160.0 21.8 L 170.0 11.8 L 182.0 21.8 L 182.0 25.8 L 146.0 25.8 L 146.0 47.6 L 158.0 47.6 L 168.0 37.6 L 180.0 47.6 L 180.0 51.6 L 146.0 51.6 L 146.0 74.4 L 165.0 74.4 L 175.0 64.4 L 187.0 74.4 L 187.0 78.4 L 100.0 78.4 Z " />
</g>
</svg>
