<svg xmlns="http://www.w3.org/2000/svg" xmlns:xlink="http://www.w3.org/1999/xlink" version="1.1" baseProfile="full" viewBox="0 0 200 200" width="200" height="200">
<g fill="black">
<path d="M 159.0 171.0 L 151.4 164.1 L 144.6 156.8 L 138.8 149.0 L 133.8 140.9 L 129.8 132.4 L 126.7 123.6 L 124.85440979003906 115.60244235992431 L 122.1 127.0 L 118.0 138.0 L 112.8 148.2 L 106.3 157.5 L 98.7 165.8 L 90.0 173.1 L 80.1 179.4 L 69.2 184.6 L 57.3 188.8 L 56.6 187.1 L 67.5 181.3 L 77.3 174.9 L 85.8 168.0 L 93.2 160.5 L 99.5 152.4 L 104.6 143.7 L 108.7 134.3 L 111.8 124.1 L 113.8 113.3 L 114.3615385055542 106.0 L 66.0 106.0 L 66.0 102.0 L 114.6692307472229 102.0 L 114.7 101.6 L 114.7 54.0 L 81.0 54.0 L 81.0 50.0 L 114.7 50.0 L 114.7 12.0 L 126.7 14.0 L 129.7 16.0 L 126.7 17.8 L 126.7 50.0 L 153.0 50.0 L 159.0 45.0 L 170.0 54.0 L 165.0 58.0 L 165.0 102.0 L 169.3181818008423 102.0 L 177.5 93.0 L 187.5 102.0 L 187.5 106.0 L 126.20472440719604 106.0 L 126.13102426528931 106.55058345794677 L 128.6 113.4 L 132.2 121.5 L 136.2 129.2 L 140.9 136.5 L 146.2 143.4 L 152.2 149.9 L 158.9 156.0 L 166.3 161.7 L 174.4 167.2 L 183.2 172.2 L 187.9 174.9 L 176.7 183.7 L 167.4 177.6 Z M 36.3 179.9 L 32.4 177.6 L 31.1 173.2 L 31.8 167.9 L 32.0 162.7 L 31.7 157.5 L 30.8 152.4 L 29.4 147.3 L 27.4 142.2 L 24.8 137.1 L 21.7 131.9 L 18.0 126.7 L 13.8 121.3 L 14.9 119.9 L 20.7 124.0 L 25.8 128.5 L 28.125534057617188 131.03224821090697 L 28.4 130.7 L 32.4 125.3 L 36.7 119.2 L 41.3 112.3 L 46.1 104.6 L 51.2 96.2 L 56.6 87.1 L 62.2 77.3 L 68.3 66.8 L 74.7 55.6 L 76.4 56.3 L 71.7 68.4 L 67.0 79.7 L 62.4 90.1 L 57.9 99.8 L 53.5 108.8 L 49.3 117.0 L 45.3 124.5 L 41.4 131.2 L 37.7 137.3 L 35.36293125152588 140.74068450927734 L 37.2 144.0 L 39.7 149.7 L 41.6 155.6 L 42.7 161.8 L 43.2 168.2 L 43.0 174.7 L 40.7 178.7 Z M 153.0 54.0 L 126.7 54.0 L 126.7 102.0 L 153.0 102.0 Z M 43.2 53.0 L 41.6 50.5 L 39.7 47.9 L 37.5 45.4 L 35.1 42.9 L 32.3 40.5 L 29.4 38.0 L 26.2 35.4 L 22.6 33.2 L 23.3 31.5 L 27.5 32.8 L 31.6 34.0 L 35.4 35.6 L 39.0 37.4 L 42.5 39.4 L 45.7 41.5 L 48.7 44.0 L 51.4 46.6 L 54.0 49.4 L 56.2 52.4 L 56.7 57.0 L 53.9 60.6 L 49.4 61.0 L 45.7 58.2 L 44.6 55.6 Z " />
</g>
</svg>
