<svg xmlns="http://www.w3.org/2000/svg" xmlns:xlink="http://www.w3.org/1999/xlink" version="1.1" baseProfile="full" viewBox="0 0 200 200" width="200" height="200">
<g fill="black">
<path d="M 173.0 56.3 L 176.0 58.3 L 173.0 60.1 L 173.0 179.6 L 161.0 185.6 L 161.0 175.6 L 36.5 175.6 L 36.5 182.6 L 25.5 188.1 L 25.5 54.3 L 36.5 56.3 L 39.2 58.3 L 36.5 60.02340421676636 L 36.5 171.6 L 161.0 171.6 L 161.0 54.3 Z M 79.2 154.5 L 93.2 154.5 L 94.2 154.4 L 94.8 154.3 L 95.2 154.1 L 95.5 154.0 L 95.6 153.8 L 95.8 153.6 L 96.0 153.1 L 96.2 152.4 L 96.4 151.3 L 96.5 150.0 L 96.5 51.0 L 107.5 53.0 L 107.70114612579346 53.148997116088864 L 111.3 50.0 L 115.3 46.6 L 119.4 43.3 L 123.6 39.9 L 127.7 36.6 L 131.9 33.3 L 135.87941179275512 30.0 L 42.0 30.0 L 42.0 26.0 L 140.81764707565307 26.0 L 144.4 23.1 L 144.80917825698853 23.659018135070802 L 148.0 21.0 L 159.0 30.0 L 154.0 33.0 L 146.0754716873169 36.30188674926758 L 142.3 38.6 L 137.6 41.5 L 133.0 44.3 L 128.3 47.0 L 123.7 49.6 L 119.0 52.1 L 114.2 54.5 L 109.4 56.7 L 107.5 57.46000003814697 L 107.5 150.0 L 107.3 152.4 L 107.0 154.7 L 106.3 157.0 L 105.3 159.1 L 103.9 161.1 L 102.1 162.7 L 100.1 164.0 L 97.9 164.8 L 95.6 165.3 L 93.2 165.5 L 93.2 160.0 L 79.2 157.2 Z M 58.7 69.9 L 73.2 69.9 L 78.7 64.9 L 89.2 73.9 L 84.2 77.4 L 84.2 143.0 L 73.2 148.5 L 73.2 137.0 L 58.7 137.0 L 58.7 149.0 L 47.7 154.5 L 47.7 64.4 Z M 141.8 132.3 L 139.5 126.7 L 137.43834438323975 122.34761590957642 L 133.5 129.4 L 128.9 136.4 L 123.9 142.7 L 118.4 148.1 L 112.6 152.6 L 111.3 151.3 L 115.6 145.6 L 119.6 139.5 L 123.3 132.9 L 126.8 125.8 L 130.1 118.2 L 132.1750883102417 112.33250885009765 L 130.4 109.2 L 126.7 103.0 L 122.7 96.7 L 118.4 90.1 L 113.9 83.3 L 115.3 82.1 L 121.4 87.7 L 126.9 93.4 L 132.0 99.1 L 135.13360586166382 102.96700296401977 L 135.7 101.1 L 138.1 91.7 L 140.2 81.6 L 141.47850465774536 74.0 L 113.0 74.0 L 113.0 70.0 L 142.0 70.0 L 148.0 65.0 L 159.0 74.0 L 154.0 77.0 L 152.850915145874 77.47878532409668 L 151.3 84.1 L 148.5 94.5 L 145.3 104.2 L 142.09528656005858 112.30080347061157 L 144.9 116.4 L 148.4 122.2 L 151.5 127.9 L 154.3 133.5 L 156.7 139.2 L 156.3 143.8 L 152.9 146.8 L 148.3 146.4 L 145.3 143.0 L 143.7 137.7 Z M 58.7 73.9 L 58.7 133.0 L 73.2 133.0 L 73.2 73.9 Z " />
</g>
</svg>
