<svg xmlns="http://www.w3.org/2000/svg" xmlns:xlink="http://www.w3.org/1999/xlink" version="1.1" baseProfile="full" viewBox="0 0 200 200" width="200" height="200">
<g fill="black">
<path d="M 130.0 29.0 L 166.0 29.0 L 172.0 24.0 L 183.0 33.0 L 178.0 37.0 L 178.0 176.0 L 166.0 182.0 L 166.0 170.0 L 34.0 170.0 L 34.0 182.0 L 22.0 188.0 L 22.0 23.0 L 34.0 29.0 L 70.0 29.0 L 76.0 24.0 L 87.0 33.0 L 82.0 37.0 L 82.0 99.0 L 118.0 99.0 L 118.0 23.0 Z M 34.0 33.0 L 34.0 166.0 L 166.0 166.0 L 166.0 33.0 L 130.0 33.0 L 130.0 109.0 L 118.0 115.0 L 118.0 103.0 L 82.0 103.0 L 82.0 115.0 L 70.0 121.0 L 70.0 33.0 Z " />
</g>
</svg>
