<svg xmlns="http://www.w3.org/2000/svg" xmlns:xlink="http://www.w3.org/1999/xlink" version="1.1" baseProfile="full" viewBox="0 0 200 200" width="200" height="200">
<g fill="black">
<path d="M 174.0 31.0 L 177.0 33.0 L 174.0 34.8 L 174.0 178.0 L 162.0 184.0 L 162.0 172.0 L 38.0 172.0 L 38.0 184.0 L 26.0 190.0 L 26.0 29.0 L 38.0 31.0 L 41.0 33.0 L 38.0 34.8 L 38.0 168.0 L 162.0 168.0 L 162.0 29.0 Z M 44.1 135.2 L 94.0 135.2 L 94.0 68.8 L 52.5 68.8 L 52.5 64.8 L 94.0 64.8 L 94.0 14.6 L 106.0 16.6 L 109.0 18.6 L 106.0 20.4 L 106.0 64.8 L 125.4 64.8 L 135.4 54.8 L 147.4 64.8 L 147.4 68.8 L 106.0 68.8 L 106.0 135.2 L 133.9 135.2 L 143.9 125.2 L 155.9 135.2 L 155.9 139.2 L 44.1 139.2 Z " />
</g>
</svg>
