<svg xmlns="http://www.w3.org/2000/svg" xmlns:xlink="http://www.w3.org/1999/xlink" version="1.1" baseProfile="full" viewBox="0 0 200 200" width="200" height="200">
<g fill="black">
<path d="M 167.5 179.2 L 165.9 181.0 L 164.0 182.5 L 162.0 183.9 L 159.8 185.0 L 157.6 185.9 L 155.2 186.5 L 152.8 186.8 L 150.3 187.0 L 150.3 181.0 L 130.3 178.0 L 130.3 175.0 L 150.3 175.0 L 151.6 174.9 L 152.9 174.7 L 154.0 174.4 L 155.0 174.1 L 155.9 173.6 L 156.7 173.0 L 157.5 172.3 L 158.3 171.5 L 159.0 170.5 L 159.8 169.3 L 161.0 166.2 L 162.3 160.3 L 163.6 152.1 L 164.7 141.7 L 165.7 129.1 L 166.4 114.4 L 167.1 97.5 L 167.5 78.4 L 167.8 57.2 L 167.89137935638428 36.0 L 140.72558135986327 36.0 L 140.0 55.5 L 138.3 75.8 L 135.7 94.8 L 132.1 112.4 L 127.6 128.6 L 122.1 143.6 L 115.6 157.1 L 108.2 169.1 L 99.7 179.7 L 90.3 188.6 L 89.1 187.3 L 96.8 177.3 L 103.6 166.3 L 109.7 154.2 L 115.0 140.8 L 119.4 126.3 L 123.0 110.4 L 125.7 93.3 L 127.6 74.8 L 128.6 55.0 L 128.78095235824586 36.0 L 106.7 36.0 L 106.7 32.0 L 167.9 32.0 L 173.9 27.0 L 184.9 36.0 L 179.9 39.0 L 179.878502368927 39.008957386016846 L 179.8 57.3 L 179.5 78.6 L 179.1 97.8 L 178.4 114.9 L 177.6 129.9 L 176.6 142.8 L 175.5 153.7 L 174.1 162.6 L 172.5 169.6 L 170.3 175.0 L 169.0 177.2 Z M 57.3 102.3 L 59.7 105.0 L 56.14062604904175 106.10017013549805 L 55.5 108.2 L 53.4 114.2 L 51.2 120.1 L 48.7 126.0 L 46.0 132.0 L 43.1 137.9 L 40.0 143.9 L 36.6 149.8 L 33.09407367706299 155.15115070343018 L 37.5 153.8 L 44.8 151.4 L 52.0 149.2 L 59.0 146.9 L 65.8 144.8 L 72.5 142.7 L 79.0 140.8 L 80.73996171951293 140.3449330329895 L 80.2 139.4 L 77.7 135.2 L 75.0 131.1 L 69.2 122.7 L 66.3 118.3 L 67.5 117.0 L 72.0 120.0 L 76.1 123.3 L 80.0 126.9 L 83.7 130.6 L 87.1 134.5 L 90.4 138.5 L 93.4 142.6 L 96.3 146.9 L 99.0 151.2 L 101.5 155.7 L 101.6 160.3 L 98.5 163.7 L 93.9 163.8 L 90.5 160.7 L 88.8 156.4 L 86.9 152.1 L 84.8 147.8 L 82.6 143.6 L 82.35064935684204 143.16363639831542 L 80.5 144.3 L 74.5 147.7 L 68.2 150.9 L 61.7 154.0 L 55.0 157.1 L 48.1 160.1 L 41.0 163.2 L 33.6 166.2 L 26.1 169.3 L 22.25158758163452 170.79938144683837 L 21.3 174.5 L 18.4 172.3 L 12.6 161.6 L 14.5 161.0 L 22.3 158.5 L 28.466799163818358 156.57788076400757 L 29.4 153.9 L 31.7 147.5 L 34.0 141.2 L 36.1 135.0 L 38.1 128.9 L 40.0 122.9 L 41.6 116.9 L 43.1 111.1 L 44.5 105.3 L 45.41005630493164 100.50152111053467 L 45.4 100.5 L 45.43853206634522 100.35137615203857 L 45.6 99.5 L 45.655797290802 99.51335315704345 L 45.788888931274414 99.0 L 13.4 99.0 L 13.4 95.0 L 49.8 95.0 L 49.8 58.0 L 17.5 58.0 L 17.5 54.0 L 49.8 54.0 L 49.8 14.0 L 61.8 16.0 L 64.8 18.0 L 61.8 19.8 L 61.8 54.0 L 74.2 54.0 L 84.2 44.0 L 96.2 54.0 L 96.2 58.0 L 61.8 58.0 L 61.8 95.0 L 80.4 95.0 L 90.4 85.0 L 102.4 95.0 L 102.4 99.0 L 49.086666679382326 99.0 Z " />
</g>
</svg>
