<svg xmlns="http://www.w3.org/2000/svg" xmlns:xlink="http://www.w3.org/1999/xlink" version="1.1" baseProfile="full" viewBox="0 0 200 200" width="200" height="200">
<g fill="black">
<path d="M 168.8 161.9 L 166.4 169.6 L 163.4 175.7 L 162.0 177.8 L 160.4 179.6 L 158.7 181.3 L 156.8 182.8 L 154.7 184.1 L 152.5 185.1 L 150.3 185.9 L 147.9 186.5 L 145.5 186.8 L 143.0 187.0 L 143.0 181.0 L 123.0 178.0 L 123.0 175.0 L 143.0 175.0 L 144.4 174.9 L 145.7 174.7 L 146.9 174.4 L 147.9 174.1 L 148.9 173.6 L 149.9 173.0 L 150.7 172.3 L 151.6 171.5 L 152.5 170.5 L 153.3 169.3 L 155.2 165.3 L 157.2 158.9 L 158.9564356803894 150.60572061538696 L 150.4 143.0 L 142.2 134.3 L 134.6 124.9 L 130.86883211135864 119.3843605041504 L 128.1 128.3 L 122.1 143.0 L 115.1 156.4 L 107.1 168.3 L 98.1 178.8 L 88.0 187.6 L 86.8 186.3 L 95.2 176.3 L 102.7 165.3 L 109.3 153.2 L 115.1 140.0 L 120.1 125.6 L 124.1 110.0 L 124.32368307113647 108.81867370605468 L 121.5 103.9 L 116.0 92.4 L 111.4 80.2 L 109.3763313293457 73.27692308425904 L 108.6 75.8 L 106.0 83.8 L 104.5 87.8 L 102.88175678253174 91.84560813903809 L 104.8 95.4 L 101.3 95.8 L 89.7 92.1 L 90.6 90.3 L 92.8 86.7 L 95.0 83.2 L 97.1 79.6 L 99.2 76.1 L 101.2 72.6 L 103.3 69.2 L 105.3 65.7 L 107.3 62.3 L 109.4 59.0 L 111.3 55.7 L 113.0 56.2 L 112.3 60.1 L 111.7 64.0 L 110.8 68.0 L 110.52529363632202 69.07135486602783 L 115.2 78.5 L 121.3 89.8 L 126.3546275138855 98.09274826049804 L 127.3 93.1 L 129.6 75.0 L 131.0 55.6 L 131.3611650466919 37.0 L 95.5 37.0 L 95.5 33.0 L 164.8 33.0 L 170.8 28.0 L 181.8 37.0 L 176.8 40.0 L 176.8 57.4 L 176.5 78.0 L 175.9 96.7 L 175.1 113.5 L 173.9 128.4 L 172.5 141.4 L 171.9329336166382 145.13596687316894 L 175.8 147.7 L 185.5 153.2 L 190.4 155.8 L 179.1 164.7 L 169.51184873580934 158.58990354537963 Z M 51.8 102.2 L 54.3 104.8 L 50.691683769226074 106.04650926589966 L 50.1 108.1 L 48.2 114.0 L 46.2 120.0 L 43.9 125.9 L 41.4 131.9 L 38.7 137.8 L 35.8 143.8 L 32.6 149.7 L 29.431476306915282 155.04122562408446 L 33.0 153.8 L 39.7 151.5 L 46.2 149.2 L 52.6 147.0 L 58.9 144.8 L 65.0 142.7 L 71.0 140.8 L 72.4890510559082 140.37810220718384 L 71.9 139.2 L 69.6 135.1 L 67.2 131.0 L 64.7 126.8 L 62.1 122.6 L 59.5 118.3 L 60.8 117.1 L 64.9 120.2 L 68.7 123.5 L 72.3 127.0 L 75.7 130.8 L 78.9 134.6 L 81.9 138.6 L 84.7 142.8 L 87.4 147.0 L 89.9 151.4 L 92.2 155.9 L 92.1 160.4 L 88.9 163.7 L 84.4 163.7 L 81.1 160.5 L 79.5 156.1 L 77.8 151.9 L 76.0 147.6 L 74.0 143.4 L 73.98417263031006 143.36834535598754 L 72.6 144.3 L 67.2 147.6 L 61.5 150.8 L 55.6 153.9 L 49.5 157.0 L 43.2 160.1 L 36.7 163.1 L 30.1 166.2 L 23.2 169.2 L 19.947058868408202 170.59411764144897 L 19.1 174.3 L 16.2 172.2 L 10.1 161.7 L 11.9 161.0 L 19.1 158.6 L 24.909661865234376 156.6081159591675 L 25.7 154.0 L 27.7 147.6 L 29.7 141.3 L 31.6 135.1 L 33.4 129.0 L 35.1 123.0 L 36.6 117.1 L 37.9 111.2 L 39.1 105.4 L 39.92696123123169 100.6036250114441 L 39.9 100.6 L 40.04117650985718 99.94117650985717 L 40.1 99.6 L 40.11363639831543 99.60303030014038 L 40.24285717010498 99.0 L 11.2 99.0 L 11.2 95.0 L 44.0 95.0 L 44.0 58.0 L 15.0 58.0 L 15.0 54.0 L 44.0 54.0 L 44.0 14.0 L 56.0 16.0 L 59.0 18.0 L 56.0 19.8 L 56.0 54.0 L 64.8 54.0 L 74.8 44.0 L 86.8 54.0 L 86.8 58.0 L 56.0 58.0 L 56.0 95.0 L 70.5 95.0 L 80.5 85.0 L 92.5 95.0 L 92.5 99.0 L 43.581818199157716 99.0 Z M 143.29671363830568 37.0 L 142.3 56.3 L 140.2 76.2 L 137.2 94.9 L 133.86594820022583 108.9680721282959 L 134.6 110.0 L 141.9 119.0 L 149.7 127.3 L 157.9 134.8 L 160.90564041137696 137.14923620224 L 162.0 127.3 L 163.1 112.7 L 163.9 96.2 L 164.5 77.8 L 164.8 57.3 L 164.8 37.0 Z " />
</g>
</svg>
