<svg xmlns="http://www.w3.org/2000/svg" xmlns:xlink="http://www.w3.org/1999/xlink" version="1.1" baseProfile="full" viewBox="0 0 200 200" width="200" height="200">
<g fill="black">
<path d="M 167.5 178.8 L 165.7 180.4 L 163.8 181.9 L 161.7 183.1 L 159.5 184.2 L 157.3 185.0 L 154.9 185.5 L 152.5 185.8 L 150.0 186.0 L 150.0 180.0 L 130.0 177.0 L 130.0 174.0 L 150.0 174.0 L 151.4 173.9 L 152.7 173.7 L 153.9 173.4 L 155.0 173.1 L 156.0 172.6 L 157.0 172.0 L 157.9 171.3 L 158.8 170.5 L 159.7 169.5 L 160.5 168.3 L 162.3 164.8 L 164.2 159.6 L 165.9 152.9 L 167.5 144.6 L 168.8 134.9 L 169.9 123.8 L 170.7 111.2 L 171.3 97.2 L 171.7 81.8 L 171.7880952835083 67.0 L 142.0244680404663 67.0 L 141.1 82.8 L 138.2 100.4 L 133.7 116.6 L 127.4 131.4 L 119.4 144.8 L 109.7 156.7 L 98.4 167.1 L 85.4 176.0 L 70.9 183.2 L 54.9 188.8 L 54.3 187.1 L 69.3 179.8 L 82.5 171.5 L 94.1 162.1 L 104.0 151.7 L 112.3 140.1 L 119.0 127.4 L 124.1 113.5 L 127.7 98.3 L 129.8 81.8 L 130.13258428573607 67.0 L 97.6 67.0 L 97.6 63.0 L 130.2 63.0 L 130.2 18.0 L 142.2 20.0 L 145.2 22.0 L 142.2 23.8 L 142.2 63.0 L 171.8 63.0 L 177.8 58.0 L 188.8 67.0 L 183.8 70.0 L 183.77034111022948 70.01235790252686 L 183.7 81.9 L 183.3 97.6 L 182.7 111.8 L 181.8 124.7 L 180.7 136.3 L 179.3 146.5 L 177.7 155.5 L 175.7 163.1 L 173.4 169.6 L 170.5 174.9 L 169.1 176.9 Z M 13.6 159.9 L 23.4 158.0 L 29.0 156.89166669845582 L 29.0 23.0 L 41.0 29.0 L 75.0 29.0 L 81.0 24.0 L 92.0 33.0 L 87.0 37.0 L 87.0 144.6079545021057 L 87.5 144.5 L 96.1 142.7 L 104.7 141.1 L 105.2 142.8 L 97.2 146.3 L 89.0 149.6 L 80.5 152.7 L 71.9 155.7 L 63.0 158.5 L 54.0 161.3 L 44.8 163.9 L 35.5 166.6 L 25.9 169.1 L 20.16690034866333 170.57760305404662 L 18.8 174.1 L 16.2 171.6 L 11.7 160.3 Z M 41.0 115.0 L 41.0 154.48297872543336 L 42.4 154.2 L 51.7 152.2 L 60.9 150.3 L 69.9 148.3 L 75.0 147.19886360168456 L 75.0 115.0 Z M 41.0 74.0 L 41.0 111.0 L 75.0 111.0 L 75.0 74.0 Z M 41.0 33.0 L 41.0 70.0 L 75.0 70.0 L 75.0 33.0 Z " />
</g>
</svg>
