<svg xmlns="http://www.w3.org/2000/svg" xmlns:xlink="http://www.w3.org/1999/xlink" version="1.1" baseProfile="full" viewBox="0 0 200 200" width="200" height="200">
<g fill="black">
<path d="M 167.9 178.5 L 166.2 180.3 L 164.3 181.8 L 162.3 183.1 L 160.1 184.1 L 157.8 184.9 L 155.5 185.5 L 153.0 185.8 L 150.6 186.0 L 150.6 180.0 L 130.6 177.0 L 130.6 174.0 L 150.6 174.0 L 152.0 173.9 L 153.3 173.7 L 155.5 173.1 L 156.4 172.6 L 157.4 172.0 L 158.2 171.3 L 159.1 170.5 L 159.9 169.5 L 160.7 168.3 L 162.4 164.8 L 164.1 159.6 L 165.7 152.9 L 167.2 144.6 L 168.4 134.9 L 169.4 123.8 L 170.2 111.2 L 170.7 97.2 L 171.1 81.8 L 171.1880952835083 67.0 L 143.0709677696228 67.0 L 142.4 82.6 L 140.5 100.0 L 137.5 116.0 L 133.3 130.7 L 128.1 144.1 L 121.8 156.1 L 114.3 166.6 L 105.8 175.6 L 96.1 183.0 L 85.5 188.7 L 84.6 187.2 L 93.8 180.0 L 101.9 171.8 L 109.0 162.6 L 115.2 152.3 L 120.3 140.8 L 124.4 128.0 L 127.6 114.0 L 129.8 98.6 L 131.0 82.0 L 131.1666666984558 67.0 L 100.6 67.0 L 100.6 63.0 L 131.2 63.0 L 131.2 18.0 L 143.2 20.0 L 146.2 22.0 L 143.2 23.8 L 143.2 63.0 L 171.2 63.0 L 177.2 58.0 L 188.2 67.0 L 183.2 70.0 L 183.1703411102295 70.01235790252686 L 183.1 81.9 L 182.7 97.6 L 182.2 111.8 L 181.4 124.7 L 180.3 136.2 L 179.0 146.4 L 177.5 155.3 L 175.7 162.9 L 173.5 169.3 L 170.9 174.6 L 169.5 176.6 Z M 57.3 102.3 L 59.7 105.0 L 56.14062604904175 106.10017013549805 L 55.5 108.2 L 53.4 114.2 L 51.2 120.1 L 48.7 126.0 L 46.0 132.0 L 43.1 137.9 L 40.0 143.9 L 36.6 149.8 L 33.09407367706299 155.15115070343018 L 37.5 153.8 L 44.8 151.4 L 52.0 149.2 L 59.0 146.9 L 65.8 144.8 L 72.5 142.7 L 79.0 140.8 L 80.73996171951293 140.3449330329895 L 80.2 139.4 L 77.7 135.2 L 75.0 131.1 L 69.2 122.7 L 66.3 118.3 L 67.5 117.0 L 72.0 120.0 L 76.1 123.3 L 80.0 126.9 L 83.7 130.6 L 87.1 134.5 L 90.4 138.5 L 93.4 142.6 L 96.3 146.9 L 99.0 151.2 L 101.5 155.7 L 101.6 160.3 L 98.5 163.7 L 93.9 163.8 L 90.5 160.7 L 88.8 156.4 L 86.9 152.1 L 84.8 147.8 L 82.6 143.6 L 82.35064935684204 143.16363639831542 L 80.5 144.3 L 74.5 147.7 L 68.2 150.9 L 61.7 154.0 L 55.0 157.1 L 48.1 160.1 L 41.0 163.2 L 33.6 166.2 L 26.1 169.3 L 22.25158758163452 170.79938144683837 L 21.3 174.5 L 18.4 172.3 L 12.6 161.6 L 14.5 161.0 L 22.3 158.5 L 28.466799163818358 156.57788076400757 L 29.4 153.9 L 31.7 147.5 L 34.0 141.2 L 36.1 135.0 L 38.1 128.9 L 40.0 122.9 L 41.6 116.9 L 43.1 111.1 L 44.5 105.3 L 45.41005630493164 100.50152111053467 L 45.4 100.5 L 45.43853206634522 100.35137615203857 L 45.6 99.5 L 45.655797290802 99.51335315704345 L 45.788888931274414 99.0 L 13.4 99.0 L 13.4 95.0 L 49.8 95.0 L 49.8 58.0 L 17.5 58.0 L 17.5 54.0 L 49.8 54.0 L 49.8 14.0 L 61.8 16.0 L 64.8 18.0 L 61.8 19.8 L 61.8 54.0 L 74.2 54.0 L 84.2 44.0 L 96.2 54.0 L 96.2 58.0 L 61.8 58.0 L 61.8 95.0 L 80.4 95.0 L 90.4 85.0 L 102.4 95.0 L 102.4 99.0 L 49.086666679382326 99.0 Z " />
</g>
</svg>
