<svg xmlns="http://www.w3.org/2000/svg" xmlns:xlink="http://www.w3.org/1999/xlink" version="1.1" baseProfile="full" viewBox="0 0 200 200" width="200" height="200">
<g fill="black">
<path d="M 154.6 183.4 L 152.6 184.5 L 150.5 185.4 L 148.3 186.2 L 146.1 186.8 L 143.9 187.3 L 141.6 187.7 L 139.3 187.9 L 137.0 188.0 L 137.0 182.0 L 117.0 179.0 L 117.0 176.0 L 137.0 176.0 L 138.6 175.9 L 140.1 175.8 L 141.7 175.5 L 143.1 175.2 L 144.6 174.8 L 147.4 173.6 L 148.8 172.9 L 150.1 172.1 L 151.4 171.2 L 152.9 169.9 L 154.4 168.4 L 155.7 166.5 L 157.0 164.3 L 158.1 161.7 L 159.2 158.8 L 160.1 155.5 L 160.9 151.8 L 161.5 147.8 L 161.7093023300171 146.0 L 96.73913040161133 146.0 L 93.4 150.8 L 86.0 159.0 L 77.8 166.3 L 68.8 172.5 L 59.0 177.7 L 48.4 181.9 L 37.0 185.0 L 24.9 187.0 L 12.0 187.8 L 11.9 186.1 L 24.2 183.2 L 35.5 179.8 L 46.0 175.7 L 55.5 170.9 L 64.1 165.4 L 71.8 159.1 L 78.7 152.1 L 83.53246755599976 146.0 L 23.0 146.0 L 23.0 142.0 L 86.25116281509399 142.0 L 90.0 135.8 L 94.5 126.5 L 105.4 131.4 L 99.8 141.6 L 99.5217391014099 142.0 L 162.0 142.0 L 168.0 137.0 L 179.0 146.0 L 174.0 149.0 L 173.41565217971802 149.24347829818726 L 173.4 149.4 L 172.7 154.0 L 171.8 158.3 L 170.6 162.4 L 169.3 166.2 L 167.7 169.7 L 165.8 173.0 L 163.7 175.9 L 161.3 178.6 L 158.6 180.8 L 156.6 182.2 Z M 151.6 62.7 L 149.5 63.7 L 147.4 64.6 L 145.3 65.3 L 143.1 65.9 L 140.8 66.4 L 138.6 66.7 L 136.3 66.9 L 134.0 67.0 L 134.0 61.0 L 114.0 58.0 L 114.0 55.0 L 134.0 55.0 L 137.2 54.8 L 138.8 54.5 L 140.3 54.2 L 141.8 53.8 L 143.3 53.3 L 146.1 52.1 L 147.5 51.3 L 148.9 50.4 L 150.1 49.5 L 151.3 48.3 L 152.5 46.7 L 153.7 44.8 L 154.8 42.4 L 155.8 39.7 L 156.8 36.7 L 157.6 33.2 L 158.4 29.4 L 158.6 28.0 L 101.66956520080566 28.0 L 101.5 28.3 L 97.4 35.4 L 92.2 41.9 L 85.9 47.8 L 78.6 53.1 L 70.3 57.9 L 60.9 62.2 L 50.6 65.9 L 39.1 69.2 L 38.606818199157715 69.30340909957886 L 46.0 73.0 L 154.0 73.0 L 160.0 68.0 L 171.0 77.0 L 166.0 81.0 L 166.0 128.0 L 154.0 134.0 L 154.0 126.0 L 46.0 126.0 L 46.0 129.0 L 34.0 135.0 L 34.0 70.26935482025146 L 26.7 71.8 L 13.1 73.8 L 12.8 72.1 L 25.7 68.1 L 37.6 64.0 L 48.2 59.8 L 57.8 55.3 L 66.1 50.5 L 73.3 45.5 L 79.3 40.3 L 84.1 34.9 L 87.8 29.3 L 88.39090909957886 28.0 L 23.0 28.0 L 23.0 24.0 L 159.0 24.0 L 165.0 19.0 L 176.0 28.0 L 171.0 31.0 L 170.21058597564698 31.328922462463378 L 170.2 31.4 L 169.3 35.8 L 168.3 39.9 L 167.2 43.7 L 165.8 47.2 L 164.2 50.4 L 162.5 53.4 L 160.4 56.1 L 158.2 58.4 L 155.6 60.4 L 153.6 61.6 Z M 46.0 102.0 L 46.0 122.0 L 94.0 122.0 L 94.0 102.0 Z M 106.0 102.0 L 106.0 122.0 L 154.0 122.0 L 154.0 102.0 Z M 46.0 77.0 L 46.0 98.0 L 94.0 98.0 L 94.0 77.0 Z M 106.0 77.0 L 106.0 98.0 L 154.0 98.0 L 154.0 77.0 Z " />
</g>
</svg>
