<svg xmlns="http://www.w3.org/2000/svg" xmlns:xlink="http://www.w3.org/1999/xlink" version="1.1" baseProfile="full" viewBox="0 0 200 200" width="200" height="200">
<g fill="black">
<path d="M 171.0 23.1 L 171.0 27.1 L 34.0 27.1 L 34.0 167.8 L 158.0 167.8 L 168.0 157.8 L 180.0 167.8 L 180.0 171.8 L 34.0 171.8 L 34.0 183.8 L 22.0 189.8 L 22.0 17.1 L 34.0 23.1 L 149.0 23.1 L 159.0 13.1 Z M 131.6 129.7 L 141.6 129.7 L 142.8 129.6 L 143.7 129.5 L 144.3 129.3 L 144.7 129.1 L 144.8 128.9 L 145.0 128.8 L 145.2 128.4 L 145.4 127.8 L 145.5 126.9 L 145.6 125.7 L 145.6 63.0 L 113.0 63.0 L 113.0 157.1 L 101.0 163.1 L 101.0 63.0 L 68.3 63.0 L 68.3 135.7 L 56.3 141.7 L 56.3 53.0 L 68.3 59.0 L 101.0 59.0 L 101.0 35.5 L 113.0 37.5 L 116.0 39.5 L 113.0 41.3 L 113.0 59.0 L 145.6 59.0 L 151.6 54.0 L 162.6 63.0 L 157.6 67.0 L 157.6 125.7 L 157.5 128.3 L 157.0 130.7 L 156.2 133.2 L 155.0 135.4 L 153.3 137.4 L 151.3 139.1 L 149.1 140.3 L 146.6 141.1 L 144.2 141.6 L 141.6 141.7 L 141.6 135.7 L 131.6 132.7 Z " />
</g>
</svg>
