<svg xmlns="http://www.w3.org/2000/svg" xmlns:xlink="http://www.w3.org/1999/xlink" version="1.1" baseProfile="full" viewBox="0 0 200 200" width="200" height="200">
<g fill="black">
<path d="M 90.00923080444336 16.541153812408446 L 96.0 22.6 L 96.1 25.9 L 92.5692307472229 24.438992023468018 L 88.3 26.5 L 82.3 29.2 L 76.3 31.6 L 70.1 33.9 L 63.8 36.0 L 57.3 37.9 L 50.7 39.6 L 44.0 41.0 L 37.2 42.1 L 36.0 42.21999998092652 L 36.0 92.0 L 71.0 92.0 L 81.0 82.0 L 93.0 92.0 L 93.0 96.0 L 36.0 96.0 L 36.0 153.0 L 72.0 153.0 L 82.0 143.0 L 94.0 153.0 L 94.0 157.0 L 36.0 157.0 L 36.0 169.0 L 24.0 175.0 L 24.0 32.0 L 36.0 38.0 L 36.0 38.48307695388794 L 36.2 38.4 L 42.5 35.9 L 48.7 33.3 L 54.8 30.8 L 60.7 28.1 L 66.5 25.4 L 72.1 22.5 L 77.6 19.5 L 82.9 16.4 L 87.2260799407959 13.737796974182128 L 87.2 13.7 L 87.23310050964355 13.733476638793945 L 88.1 13.2 Z M 149.8 153.0 L 163.8 153.0 L 165.0 152.9 L 165.9 152.7 L 166.8 152.4 L 167.2 152.0 L 167.4 151.7 L 167.5 151.1 L 167.7 150.2 L 167.8 149.0 L 167.8 36.0 L 118.2 36.0 L 118.2 183.0 L 106.2 189.0 L 106.2 26.0 L 118.2 32.0 L 167.8 32.0 L 173.8 27.0 L 184.8 36.0 L 179.8 40.0 L 179.8 149.0 L 179.6 151.5 L 179.2 154.0 L 178.4 156.4 L 177.2 158.7 L 175.5 160.7 L 173.5 162.3 L 171.2 163.6 L 168.8 164.4 L 166.3 164.8 L 163.8 165.0 L 163.8 159.0 L 149.8 156.0 Z " />
</g>
</svg>
