<svg xmlns="http://www.w3.org/2000/svg" xmlns:xlink="http://www.w3.org/1999/xlink" version="1.1" baseProfile="full" viewBox="0 0 200 200" width="200" height="200">
<g fill="black">
<path d="M 39.0 26.0 L 82.0 26.0 L 88.0 21.0 L 99.0 30.0 L 94.0 34.0 L 94.0 78.0 L 82.0 84.0 L 82.0 72.0 L 39.0 72.0 L 39.0 102.0 L 71.0 102.0 L 81.0 92.0 L 93.0 102.0 L 93.0 106.0 L 39.0 106.0 L 39.0 134.0 L 71.0 134.0 L 81.0 124.0 L 93.0 134.0 L 93.0 138.0 L 39.0 138.0 L 39.0 183.0 L 27.0 189.0 L 27.0 20.0 Z M 153.7 173.4 L 144.6 167.3 L 136.6 160.4 L 134.95803995132445 158.56766777038575 L 133.9 159.5 L 122.4 167.2 L 109.6 173.9 L 95.5 179.4 L 80.0 183.7 L 63.1 186.8 L 62.8 185.1 L 78.9 180.1 L 93.6 174.4 L 106.7 168.0 L 118.3 160.8 L 128.5 152.9 L 129.2957447052002 152.1042552947998 L 124.0 144.3 L 119.4 135.2 L 116.0 125.4 L 113.9 115.0 L 113.25779819488525 105.0 L 102.0 105.0 L 102.0 101.0 L 158.0 101.0 L 164.0 96.0 L 175.0 105.0 L 170.0 108.0 L 168.4 108.66666669845581 L 165.6 117.4 L 159.9 129.6 L 152.6 140.6 L 144.0 150.6 L 142.47430000305175 151.944428730011 L 143.4 152.8 L 151.0 158.3 L 159.4 163.1 L 168.7 167.2 L 179.0 170.7 L 186.5 173.1 L 174.9 183.2 L 163.8 178.7 Z M 115.34951457977294 105.0 L 118.0 114.1 L 121.6 123.5 L 125.9 132.0 L 130.9 139.7 L 135.8395348548889 145.5604651451111 L 137.2 144.2 L 144.5 134.8 L 150.4 124.6 L 154.9 113.5 L 157.18571424484253 105.0 Z M 177.0 30.0 L 172.0 34.0 L 172.0 78.0 L 160.0 84.0 L 160.0 72.0 L 109.0 72.0 L 109.0 68.0 L 160.0 68.0 L 160.0 30.0 L 109.0 30.0 L 109.0 26.0 L 160.0 26.0 L 166.0 21.0 Z M 39.0 30.0 L 39.0 68.0 L 82.0 68.0 L 82.0 30.0 Z " />
</g>
</svg>
