<svg xmlns="http://www.w3.org/2000/svg" xmlns:xlink="http://www.w3.org/1999/xlink" version="1.1" baseProfile="full" viewBox="0 0 200 200" width="200" height="200">
<g fill="black">
<path d="M 145.1 178.0 L 131.2 173.2 L 118.0 167.4 L 105.7 160.4 L 94.3 152.5 L 88.98400173187255 147.98641653060912 L 81.3 157.1 L 71.0 165.9 L 58.9 173.3 L 45.3 179.3 L 30.0 183.8 L 13.1 186.8 L 12.8 185.1 L 28.9 180.1 L 43.2 174.3 L 55.7 167.6 L 66.3 159.9 L 75.1 151.3 L 82.09357786178589 141.8438946723938 L 74.0 133.5 L 65.3 122.4 L 57.8 110.3 L 59.3 109.3 L 68.6 119.8 L 78.3 129.4 L 85.36993341445923 135.4199432373047 L 87.5 131.2 L 91.3 119.6 L 93.4 106.9 L 93.56834535598755 103.0 L 48.0 103.0 L 48.0 115.0 L 36.0 121.0 L 36.0 43.9 L 48.0 49.9 L 94.0 49.9 L 94.0 15.0 L 106.0 17.0 L 109.0 19.0 L 106.0 20.8 L 106.0 49.9 L 152.0 49.9 L 158.0 44.9 L 169.0 53.9 L 164.0 57.9 L 164.0 109.0 L 152.0 115.0 L 152.0 103.0 L 105.15032682418823 103.0 L 104.7 108.3 L 101.6 122.4 L 96.7 135.3 L 93.12429733276367 141.39972801208495 L 99.1 145.7 L 110.4 152.4 L 122.4 158.1 L 134.9 162.8 L 148.2 166.6 L 162.1 169.5 L 176.7 171.4 L 187.1 172.6 L 175.2 184.5 L 159.7 181.8 Z M 152.0 99.0 L 152.0 53.9 L 106.0 53.9 L 106.0 93.0 L 105.49019603729248 99.0 Z M 48.0 53.9 L 48.0 99.0 L 93.74100723266602 99.0 L 94.0 93.0 L 94.0 53.9 Z " />
</g>
</svg>
