<svg xmlns="http://www.w3.org/2000/svg" xmlns:xlink="http://www.w3.org/1999/xlink" version="1.1" baseProfile="full" viewBox="0 0 200 200" width="200" height="200">
<g fill="black">
<path d="M 69.0 123.0 L 69.0 170.0 L 137.0 170.0 L 137.0 123.0 Z M 148.8 115.6 L 135.9 109.0 L 124.0 101.4 L 113.1 92.8 L 103.80690155029296 83.69464092254638 L 101.9 85.4 L 88.8 95.6 L 74.7 104.9 L 59.9 113.3 L 58.723778533935544 113.86188926696778 L 69.0 119.0 L 137.0 119.0 L 143.0 114.0 L 154.0 123.0 L 149.0 127.0 L 149.0 178.0 L 137.0 184.0 L 137.0 174.0 L 69.0 174.0 L 69.0 181.0 L 57.0 187.0 L 57.0 114.6853503227234 L 44.2 120.8 L 27.6 127.3 L 10.2 132.8 L 9.7 131.1 L 26.2 123.8 L 41.9 116.0 L 56.7 107.6 L 70.6 98.5 L 83.6 88.8 L 95.8 78.4 L 97.72105140686035 76.51294946670532 L 94.3 72.4 L 86.5 60.7 L 79.9 48.0 L 76.14180641174316 38.395727443695066 L 74.7 40.3 L 69.0 47.0 L 63.0 53.5 L 56.6 59.7 L 49.9 65.7 L 42.9 71.4 L 35.4 76.7 L 27.5 81.7 L 26.4 80.2 L 33.0 73.8 L 39.3 67.4 L 45.4 61.0 L 51.2 54.5 L 56.6 47.9 L 61.8 41.1 L 66.6 34.3 L 71.2 27.3 L 75.3 20.2 L 78.71549139022827 13.806900691986083 L 78.7 13.8 L 78.94838705062867 13.370967769622803 L 79.2 12.9 L 79.21595134735108 12.908811283111572 L 79.8 11.9 L 89.7 18.7 L 91.4 21.9 L 87.63139915466309 22.027749156951906 L 85.1 26.1 L 81.6291666984558 31.0 L 135.0 31.0 L 135.0888268470764 30.925977611541747 L 135.9 29.7 L 136.27240219116212 29.939664840698242 L 141.0 26.0 L 152.0 35.0 L 147.0 38.0 L 143.7504795074463 39.353966903686526 L 136.3 49.8 L 125.7 62.5 L 114.2 74.4 L 110.11043252944947 78.05733671188355 L 119.0 85.6 L 129.7 92.9 L 141.1 99.3 L 153.4 104.7 L 166.5 109.1 L 180.4 112.5 L 189.2 114.5 L 177.5 125.4 L 162.7 121.0 Z M 78.7128571510315 35.0 L 77.78876867294312 36.22049427032471 L 83.5 46.0 L 91.4 57.4 L 99.9 67.8 L 103.17965822219848 71.15095520019531 L 107.1 67.3 L 117.6 55.5 L 127.1 43.0 L 132.39323310852052 35.0 Z " />
</g>
</svg>
