<svg xmlns="http://www.w3.org/2000/svg" xmlns:xlink="http://www.w3.org/1999/xlink" version="1.1" baseProfile="full" viewBox="0 0 200 200" width="200" height="200">
<g fill="black">
<path d="M 54.9 119.4 L 145.0 119.4 L 151.0 114.4 L 162.0 123.4 L 157.0 127.4 L 157.0 175.8 L 145.0 181.8 L 145.0 169.8 L 54.9 169.8 L 54.9 181.8 L 42.9 187.8 L 42.9 113.4 Z M 54.9 123.4 L 54.9 165.8 L 145.0 165.8 L 145.0 123.4 Z M 136.3 105.2 L 121.0 99.3 L 107.2 92.1 L 99.15585784912109 86.49547472000123 L 90.8 91.4 L 75.5 98.2 L 58.8 103.7 L 40.6 108.0 L 21.1 110.8 L 20.8 109.0 L 39.8 104.3 L 57.1 98.6 L 72.9 92.1 L 87.1 84.7 L 92.36906652450561 81.21494817733765 L 84.3 73.9 L 75.2 62.9 L 67.8 50.7 L 62.2 37.3 L 58.76689653396606 24.2 L 34.0 24.2 L 34.0 20.2 L 140.0 20.2 L 146.0 15.2 L 157.0 24.2 L 152.0 27.2 L 149.87645788192748 28.08480920791626 L 145.3 38.4 L 137.4 51.5 L 128.0 63.3 L 117.1 73.9 L 108.08579607009888 80.67868137359619 L 112.3 83.2 L 125.3 89.1 L 139.7 93.9 L 155.5 97.4 L 172.7 99.9 L 183.0 101.1 L 171.2 113.0 L 153.0 109.7 Z M 60.93656721115112 24.2 L 66.0 35.7 L 72.9 47.7 L 80.9 58.4 L 90.1 67.9 L 100.24768457412719 75.9215030670166 L 110.8 67.0 L 120.4 56.8 L 128.5 45.6 L 135.1 33.4 L 138.72424240112304 24.2 Z M 99.9 46.5 L 98.8 44.8 L 97.4 43.0 L 95.7 41.1 L 93.7 39.2 L 91.4 37.3 L 88.8 35.3 L 85.9 33.3 L 82.6 31.6 L 83.2 29.9 L 86.9 30.9 L 90.5 31.6 L 93.8 32.6 L 97.0 33.7 L 99.9 34.9 L 102.6 36.2 L 105.2 37.8 L 107.5 39.5 L 109.6 41.3 L 111.6 43.4 L 112.2 48.0 L 109.5 51.7 L 105.0 52.3 L 101.3 49.6 L 100.7 48.1 Z " />
</g>
</svg>
