<svg xmlns="http://www.w3.org/2000/svg" xmlns:xlink="http://www.w3.org/1999/xlink" version="1.1" baseProfile="full" viewBox="0 0 200 200" width="200" height="200">
<g fill="black">
<path d="M 159.6 166.3 L 151.3 160.7 L 143.4 154.7 L 135.9 148.4 L 128.8 141.6 L 122.0 134.5 L 115.8 127.0 L 110.0 119.0 L 106.0 112.5384614944458 L 106.0 182.2 L 94.0 188.2 L 94.0 119.97540979385376 L 93.0 121.5 L 86.3 130.1 L 79.1 138.3 L 71.3 146.0 L 63.0 153.1 L 54.1 159.6 L 44.7 165.6 L 34.8 171.0 L 24.3 175.7 L 13.3 179.7 L 12.6 178.0 L 22.6 172.3 L 32.1 166.3 L 41.1 160.1 L 49.5 153.5 L 57.4 146.6 L 64.8 139.3 L 71.6 131.6 L 77.8 123.6 L 83.6 115.1 L 85.8474575996399 111.2 L 18.0 111.2 L 18.0 107.2 L 94.0 107.2 L 94.0 77.6 L 106.0 79.6 L 109.0 81.6 L 106.0 83.4 L 106.0 107.2 L 160.0 107.2 L 170.0 97.2 L 182.0 107.2 L 182.0 111.2 L 108.0 111.2 L 113.2 116.4 L 120.1 123.0 L 127.1 129.4 L 134.4 135.4 L 141.8 141.1 L 149.5 146.5 L 157.4 151.5 L 165.6 156.2 L 174.0 160.5 L 182.8 164.4 L 188.5 167.1 L 177.1 176.4 L 168.2 171.5 Z M 54.9 24.8 L 145.0 24.8 L 151.0 19.8 L 162.0 28.8 L 157.0 32.8 L 157.0 79.1 L 145.0 85.1 L 145.0 73.1 L 54.9 73.1 L 54.9 85.1 L 42.9 91.1 L 42.9 18.8 Z M 54.9 28.8 L 54.9 69.1 L 145.0 69.1 L 145.0 28.8 Z " />
</g>
</svg>
