<svg xmlns="http://www.w3.org/2000/svg" xmlns:xlink="http://www.w3.org/1999/xlink" version="1.1" baseProfile="full" viewBox="0 0 200 200" width="200" height="200">
<g fill="black">
<path d="M 134.0 175.0 L 154.0 175.0 L 155.2 174.9 L 156.1 174.7 L 157.0 174.4 L 157.4 174.0 L 157.7 173.1 L 157.9 172.2 L 158.0 171.0 L 158.0 105.0 L 103.33300971984863 105.0 L 103.1 106.2 L 100.0 116.0 L 99.73431081771851 116.57565984725952 L 103.1 117.6 L 109.4 120.0 L 115.3 122.7 L 120.8 125.7 L 125.7 128.8 L 130.3 132.1 L 134.4 135.7 L 138.0 139.4 L 141.2 143.4 L 144.0 147.6 L 133.2 152.9 L 131.6 149.5 L 129.6 146.0 L 127.0 142.5 L 124.0 139.0 L 120.5 135.5 L 116.4 131.9 L 111.9 128.3 L 106.9 124.7 L 101.4 121.0 L 98.54190950393676 119.1591959953308 L 95.8 125.1 L 90.5 133.5 L 84.1 141.3 L 76.7 148.3 L 68.3 154.6 L 58.8 160.1 L 48.4 164.8 L 47.5 163.1 L 56.8 156.9 L 65.1 150.3 L 72.2 143.5 L 78.3 136.4 L 83.4 128.9 L 87.5 121.0 L 90.5 112.7 L 92.3375 105.0 L 42.0 105.0 L 42.0 182.0 L 30.0 188.0 L 30.0 95.0 L 42.0 101.0 L 92.9782608985901 101.0 L 93.8 94.7 L 94.0 85.0 L 94.0 74.9 L 62.5 74.9 L 62.5 86.9 L 50.5 92.9 L 50.5 20.0 L 62.5 26.0 L 137.5 26.0 L 143.5 21.0 L 154.5 30.0 L 149.5 34.0 L 149.5 80.9 L 137.5 86.9 L 137.5 74.9 L 106.0 74.9 L 106.0 85.0 L 105.1 95.9 L 104.10970869064332 101.0 L 158.0 101.0 L 164.0 96.0 L 175.0 105.0 L 170.0 109.0 L 170.0 171.0 L 169.8 173.5 L 169.4 176.0 L 168.6 178.4 L 167.3 180.7 L 165.7 182.7 L 163.7 184.3 L 161.4 185.6 L 159.0 186.4 L 156.5 186.8 L 154.0 187.0 L 154.0 181.0 L 134.0 178.0 Z M 144.2 152.1 L 141.3 155.6 L 136.7 155.9 L 133.2 153.0 L 144.0 147.6 Z M 62.5 30.0 L 62.5 70.9 L 137.5 70.9 L 137.5 30.0 Z " />
</g>
</svg>
