<svg xmlns="http://www.w3.org/2000/svg" xmlns:xlink="http://www.w3.org/1999/xlink" version="1.1" baseProfile="full" viewBox="0 0 200 200" width="200" height="200">
<g fill="black">
<path d="M 152.8 173.7 L 143.2 167.7 L 134.3 160.8 L 126.1 153.1 L 118.6 144.5 L 111.8 135.2 L 105.8 125.0 L 100.7 114.0 L 99.8268816947937 111.54695339202881 L 99.65900058746338 111.50571947097778 L 95.1 115.7 L 87.4 122.1 L 79.5 128.0 L 71.2 133.5 L 66.74025974273681 136.12337665557862 L 72.0 137.0 L 75.0 139.0 L 72.0 140.8 L 72.0 168.0 L 69.38032789230347 169.30983610153197 L 73.7 168.7 L 82.6 167.5 L 91.9 166.3 L 101.7 165.1 L 112.0 164.0 L 122.8 163.1 L 123.1 164.8 L 112.7 167.8 L 102.7 170.4 L 93.1 172.8 L 84.0 175.0 L 75.2 177.1 L 66.9 179.0 L 59.0 180.8 L 51.6 182.6 L 44.6 184.2 L 42.02091798782349 184.78615503311158 L 40.5 188.3 L 38.0 185.7 L 33.9 174.2 L 35.9 173.9 L 42.5 173.0 L 49.7 172.0 L 57.2 171.0 L 60.0 170.61499996185302 L 60.0 139.89655170440673 L 54.0 143.0 L 44.9 147.1 L 35.6 150.6 L 26.1 153.5 L 16.2 155.8 L 15.7 154.1 L 24.8 150.0 L 33.6 145.7 L 42.1 141.2 L 50.3 136.4 L 58.3 131.3 L 66.0 125.8 L 73.4 120.0 L 80.5 113.9 L 87.4 107.4 L 91.60869569778443 103.0 L 61.0 103.0 L 61.0 115.0 L 49.0 121.0 L 49.0 56.0 L 61.0 62.0 L 139.0 62.0 L 145.0 57.0 L 156.0 66.0 L 151.0 70.0 L 151.0 105.0 L 139.0 111.0 L 139.0 103.0 L 99.0773585319519 103.0 L 102.26953258514405 108.45758800506592 L 102.6 108.8 L 102.66483221054077 109.1334228515625 L 104.4 112.1 L 110.9 121.9 L 117.7 130.9 L 124.3222222328186 138.35 L 125.8 137.4 L 129.8 134.7 L 133.8 132.1 L 137.6 129.6 L 141.3 127.2 L 144.9 124.8 L 148.4 122.4 L 151.7 120.1 L 157.08280611038208 116.10630512237549 L 157.0 116.0 L 157.09245929718017 116.0991431236267 L 157.9 115.5 L 161.04274349212648 120.33499002456665 L 165.3 124.9 L 165.4 128.4 L 161.74756870269775 126.89989433288574 L 160.8 127.4 L 157.1 129.2 L 149.3 132.8 L 145.1 134.5 L 140.9 136.1 L 136.5 137.7 L 131.9 139.2 L 127.2 140.5 L 126.62144575119018 140.653493976593 L 132.5 146.3 L 140.6 152.8 L 149.2 158.4 L 158.3 163.3 L 167.8 167.4 L 177.9 170.7 L 185.6 173.1 L 174.0 183.2 L 163.1 178.9 Z M 61.0 66.0 L 61.0 99.0 L 139.0 99.0 L 139.0 66.0 Z M 18.0 43.0 L 92.0 43.0 L 92.0 15.0 L 104.0 17.0 L 107.0 19.0 L 104.0 20.8 L 104.0 43.0 L 161.0 43.0 L 171.0 33.0 L 183.0 43.0 L 183.0 47.0 L 18.0 47.0 Z " />
</g>
</svg>
