<svg xmlns="http://www.w3.org/2000/svg" xmlns:xlink="http://www.w3.org/1999/xlink" version="1.1" baseProfile="full" viewBox="0 0 200 200" width="200" height="200">
<g fill="black">
<path d="M 53.0 128.9 L 145.9 128.9 L 151.9 123.9 L 162.9 132.9 L 157.9 136.9 L 157.9 178.5 L 145.9 184.5 L 145.9 174.5 L 53.0 174.5 L 53.0 181.5 L 41.0 187.5 L 41.0 122.9 Z M 53.0 132.9 L 53.0 170.5 L 145.9 170.5 L 145.9 132.9 Z M 83.0 74.0 L 83.0 46.8 L 41.0 46.8 L 41.0 70.2 L 40.68333330154419 74.0 Z M 159.3 112.3 L 151.3 107.1 L 144.0 101.1 L 140.03999996185303 97.08000001907348 L 132.6 103.0 L 122.0 109.3 L 110.3 114.6 L 97.3 118.7 L 83.2 121.7 L 82.7 120.0 L 96.1 115.1 L 108.1 109.7 L 118.7 103.6 L 128.0 96.9 L 134.57920122146606 90.8142388343811 L 131.5 86.9 L 126.3 78.7 L 121.8 69.8 L 118.2 60.3 L 117.40123357772828 57.33315343856812 L 115.0 61.5 L 111.3 67.1 L 107.2 72.5 L 102.7 77.5 L 101.2 76.5 L 104.0 70.4 L 106.6 64.5 L 109.1 58.5 L 111.4 52.5 L 113.5 46.4 L 115.3 40.3 L 116.8 34.0 L 118.1 27.7 L 119.1 21.3 L 119.77823467254639 15.70456371307373 L 119.7 15.7 L 120.2 12.7 L 131.7 16.4 L 134.4 18.8 L 130.91776857376098 20.311157035827637 L 130.3 23.4 L 128.5 30.2 L 126.5 36.8 L 124.9625 40.9 L 165.0 40.9 L 175.0 30.9 L 187.0 40.9 L 187.0 44.9 L 168.61463413238525 44.9 L 166.2 55.9 L 162.2 67.3 L 156.7 77.8 L 150.0 87.2 L 147.05454549789428 90.25454549789428 L 150.6 93.2 L 157.5 97.9 L 164.8 101.9 L 172.6 105.1 L 180.9 107.7 L 188.7 110.1 L 177.0 120.3 L 167.8 116.7 Z M 123.37142858505248 44.9 L 121.4 49.5 L 119.37490911483765 53.61768474578857 L 122.0 58.6 L 127.0 67.1 L 132.4 74.8 L 138.1 81.7 L 140.45757989883424 84.0968729019165 L 142.6 81.5 L 148.0 72.8 L 152.2 63.3 L 155.2 53.1 L 156.54181814193726 44.9 Z M 103.0 21.4 L 103.0 25.4 L 20.0 25.4 L 20.0 21.4 L 80.98347110748291 21.4 L 91.0 11.3 Z M 41.0 42.8 L 83.0 42.8 L 89.0 37.8 L 100.0 46.8 L 95.0 50.8 L 95.0 84.0 L 83.0 90.0 L 83.0 78.0 L 40.32173910140991 78.0 L 39.5 84.3 L 38.1 91.0 L 36.2 97.4 L 34.0 103.5 L 31.2 109.2 L 28.0 114.6 L 24.4 119.6 L 20.3 124.2 L 15.6 128.3 L 14.3 127.1 L 17.2 121.9 L 19.9 116.7 L 22.3 111.5 L 24.3 106.2 L 25.9 100.7 L 27.3 95.0 L 28.2 89.1 L 28.8 83.0 L 29.1 76.7 L 29.0 70.2 L 29.0 36.8 Z " />
</g>
</svg>
