<svg xmlns="http://www.w3.org/2000/svg" xmlns:xlink="http://www.w3.org/1999/xlink" version="1.1" baseProfile="full" viewBox="0 0 200 200" width="200" height="200">
<g fill="black">
<path d="M 155.1 169.4 L 145.9 160.7 L 137.8 151.1 L 135.88876066207885 148.20583753585817 L 129.0 157.0 L 118.2 167.4 L 106.3 176.2 L 93.2 183.3 L 79.0 188.8 L 78.4 187.1 L 91.4 180.0 L 103.2 171.8 L 113.8 162.5 L 123.2 152.1 L 131.05707855224608 140.8892903327942 L 130.8 140.5 L 124.8 128.9 L 119.9 116.5 L 116.1 103.2 L 113.5 89.1 L 112.72768697738647 80.18869562149048 L 108.3 86.7 L 102.9 93.9 L 97.0 100.5 L 95.6 99.4 L 99.7 91.7 L 103.7 84.0 L 107.6 76.0 L 111.2 67.9 L 114.5 59.5 L 117.6 50.9 L 120.4 42.0 L 123.0 32.8 L 125.2 23.4 L 127.01404371261597 14.601888179779053 L 127.0 14.6 L 127.6 11.8 L 138.9 16.2 L 141.4 18.8 L 137.86861839294434 20.01993179321289 L 136.2 26.2 L 133.3 35.9 L 129.9 45.2 L 126.3 54.2 L 123.1735631942749 61.0 L 164.9 61.0 L 174.9 51.0 L 186.9 61.0 L 186.9 65.0 L 166.7654450416565 65.0 L 163.8 82.7 L 159.4 100.4 L 153.6 116.7 L 146.7 131.6 L 141.79226121902465 139.52333736419678 L 145.8 144.7 L 153.7 152.9 L 162.5 160.2 L 172.1 166.6 L 182.5 172.0 L 187.9 174.7 L 176.6 183.9 L 165.4 177.2 Z M 48.5 116.8 L 82.4 116.8 L 88.4 111.8 L 99.4 120.8 L 94.4 124.8 L 94.4 165.1 L 82.4 171.1 L 82.4 165.1 L 48.5 165.1 L 48.5 177.1 L 36.5 183.1 L 36.5 110.8 Z M 36.05473680496216 35.52736845016479 L 36.8 35.3 L 42.6 33.6 L 48.2 31.7 L 53.6 29.8 L 58.8 27.6 L 63.9 25.2 L 68.9 22.6 L 73.6 19.8 L 78.3 16.8 L 81.94165649414063 14.151522541046143 L 81.9 14.1 L 81.94450550079345 14.149450588226319 L 82.7 13.6 L 86.72843599319458 19.464928913116456 L 90.0 23.1 L 90.2 26.7 L 86.61238880157471 25.134496879577636 L 84.2 26.5 L 78.7 29.3 L 73.2 31.7 L 67.5 33.8 L 61.7 35.6 L 55.7 37.0 L 49.7 38.1 L 43.6 38.8 L 37.4 39.1 L 37.0 39.08125 L 37.0 55.0 L 83.0 55.0 L 89.0 50.0 L 100.0 59.0 L 95.0 63.0 L 95.0 95.0 L 83.0 101.0 L 83.0 95.0 L 36.89583330154419 95.0 L 36.5 102.6 L 35.6 111.9 L 34.3 120.8 L 32.6 129.4 L 30.6 137.6 L 28.1 145.5 L 25.2 152.9 L 21.9 159.9 L 18.1 166.4 L 13.7 172.4 L 12.2 171.5 L 14.7 164.7 L 17.0 157.8 L 19.0 150.7 L 20.8 143.4 L 22.3 135.8 L 23.5 127.8 L 24.3 119.6 L 24.9 111.0 L 25.1 102.2 L 25.0 93.0 L 25.0 30.0 Z M 48.5 120.8 L 48.5 161.1 L 82.4 161.1 L 82.4 120.8 Z M 121.21204814910888 65.0 L 118.0 71.2 L 114.70454921722413 76.93121871948242 L 117.6 88.2 L 121.8 101.6 L 126.6 113.9 L 132.2 125.2 L 136.1741268157959 131.53376455307006 L 138.4 127.4 L 144.3 113.1 L 149.0 97.6 L 152.6 80.6 L 154.72727270126342 65.0 Z M 37.0 59.0 L 37.0 91.0 L 83.0 91.0 L 83.0 59.0 Z " />
</g>
</svg>
