<svg xmlns="http://www.w3.org/2000/svg" xmlns:xlink="http://www.w3.org/1999/xlink" version="1.1" baseProfile="full" viewBox="0 0 200 200" width="200" height="200">
<g fill="black">
<path d="M 59.6 126.7 L 140.4 126.7 L 146.4 121.7 L 157.4 130.7 L 152.4 134.7 L 152.4 178.0 L 140.4 184.0 L 140.4 174.0 L 59.6 174.0 L 59.6 181.0 L 47.6 187.0 L 47.6 120.7 Z M 59.6 130.7 L 59.6 170.0 L 140.4 170.0 L 140.4 130.7 Z M 35.9375 88.0 L 79.0 88.0 L 79.0 51.0 L 37.0 51.0 L 37.0 77.0 L 36.4 84.3 Z M 157.5 113.0 L 149.1 107.5 L 141.3 101.6 L 137.43652029037474 97.96049013137818 L 129.0 104.2 L 118.4 110.1 L 106.7 114.9 L 93.9 118.5 L 80.1 120.8 L 79.8 119.1 L 92.8 114.8 L 104.7 109.9 L 115.3 104.3 L 124.6 98.0 L 131.5576244354248 91.89086627960205 L 128.2 88.1 L 122.9 80.6 L 118.4 72.6 L 114.9 64.1 L 113.40204801559449 58.76729078292847 L 112.3 60.1 L 107.7 65.0 L 102.8 69.5 L 97.6 73.6 L 96.3 72.3 L 100.0 67.0 L 103.6 61.6 L 107.0 56.2 L 110.2 50.7 L 113.2 45.0 L 116.0 39.2 L 118.6 33.2 L 120.9 27.0 L 123.0 20.7 L 124.61139822006226 15.102511501312256 L 124.6 15.1 L 124.72075471878051 14.722641468048096 L 124.9 14.1 L 124.91817893981934 14.10569076538086 L 125.4 12.6 L 136.4 17.7 L 138.6 20.5 L 134.92326526641847 21.41918363571167 L 133.7 24.5 L 130.8 31.1 L 127.7 37.5 L 125.075 42.0 L 164.0 42.0 L 174.0 32.0 L 186.0 42.0 L 186.0 46.0 L 168.56774196624755 46.0 L 165.2 57.6 L 160.3 69.1 L 154.3 79.5 L 147.0 88.9 L 144.60215444564818 91.24075403213502 L 147.6 93.5 L 155.0 98.2 L 163.1 102.5 L 171.8 106.4 L 181.2 109.7 L 188.3 112.3 L 176.7 122.2 L 166.8 117.8 Z M 122.60517244338989 46.0 L 120.5 49.3 L 116.6 54.9 L 115.24399585723877 56.5398190498352 L 118.7 62.4 L 123.5 69.6 L 128.7 76.3 L 134.4 82.6 L 137.58211431503295 85.47905588150024 L 139.9 82.9 L 145.8 74.1 L 150.6 64.6 L 154.4 54.1 L 156.2445544242859 46.0 Z M 58.9 34.8 L 57.4 32.1 L 55.7 29.5 L 53.9 27.0 L 51.8 24.4 L 49.5 21.8 L 47.0 19.2 L 44.4 16.6 L 41.4 14.2 L 42.3 12.6 L 45.9 14.2 L 49.5 15.6 L 53.0 17.3 L 56.2 19.3 L 59.3 21.4 L 62.2 23.6 L 64.9 26.1 L 67.4 28.7 L 69.7 31.5 L 71.8 34.5 L 72.2 39.0 L 69.4 42.6 L 64.8 43.0 L 61.2 40.1 L 60.2 37.4 Z M 37.0 47.0 L 79.0 47.0 L 85.0 42.0 L 96.0 51.0 L 91.0 55.0 L 91.0 96.0 L 79.0 102.0 L 79.0 92.0 L 35.40579710006714 92.0 L 34.2 98.4 L 32.4 105.1 L 30.3 111.5 L 27.6 117.6 L 24.6 123.4 L 21.1 128.8 L 17.1 133.9 L 12.7 138.5 L 11.2 137.4 L 14.0 131.8 L 16.4 126.2 L 18.7 120.6 L 20.6 114.8 L 22.1 108.9 L 23.4 102.9 L 24.3 96.7 L 24.9 90.3 L 25.1 83.7 L 25.0 77.0 L 25.0 41.0 Z " />
</g>
</svg>
