<svg xmlns="http://www.w3.org/2000/svg" xmlns:xlink="http://www.w3.org/1999/xlink" version="1.1" baseProfile="full" viewBox="0 0 200 200" width="200" height="200">
<g fill="black">
<path d="M 156.3 169.4 L 147.5 160.7 L 139.8 151.0 L 138.14992151260375 148.42781887054443 L 131.6 156.9 L 121.3 167.3 L 109.8 176.2 L 97.1 183.3 L 83.3 188.8 L 82.6 187.1 L 95.2 180.0 L 106.6 171.8 L 116.8 162.6 L 125.8 152.1 L 133.2942307472229 140.85865383148194 L 133.0 140.4 L 127.3 128.9 L 122.6 116.5 L 119.0 103.2 L 116.4 89.1 L 115.70118341445922 80.36479291915893 L 111.7 86.7 L 106.4 93.8 L 100.7 100.5 L 99.2 99.4 L 103.2 91.8 L 107.0 84.0 L 110.7 76.1 L 114.1 68.0 L 117.2 59.6 L 120.1 51.0 L 122.7 42.1 L 125.1 32.9 L 127.1 23.5 L 128.71414623260497 14.801545429229737 L 128.7 14.8 L 129.2 11.9 L 140.6 16.1 L 143.2 18.6 L 139.69402389526368 19.87490043640137 L 138.2 26.1 L 135.4 35.8 L 132.3 45.1 L 128.9 54.1 L 125.88620691299438 61.0 L 165.0 61.0 L 175.0 51.0 L 187.0 61.0 L 187.0 65.0 L 167.68631582260133 65.0 L 165.0 82.6 L 160.8 100.4 L 155.4 116.7 L 148.7 131.5 L 144.0104022026062 139.51386966705323 L 147.9 144.7 L 155.5 153.0 L 163.9 160.3 L 173.0 166.6 L 183.0 172.1 L 188.2 174.8 L 176.9 183.8 L 166.1 177.1 Z M 42.0 23.0 L 85.0 23.0 L 91.0 18.0 L 102.0 27.0 L 97.0 31.0 L 97.0 77.0 L 85.0 83.0 L 85.0 73.0 L 42.0 73.0 L 42.0 81.0 L 41.4 93.1 L 41.162655639648435 95.58132781982422 L 52.0 101.0 L 85.0 101.0 L 91.0 96.0 L 102.0 105.0 L 97.0 109.0 L 97.0 163.0 L 85.0 169.0 L 85.0 161.0 L 52.0 161.0 L 52.0 173.0 L 40.0 179.0 L 40.0 106.78000001907348 L 38.8 115.5 L 36.7 125.8 L 34.1 135.5 L 30.9 144.6 L 27.2 152.9 L 23.0 160.6 L 18.1 167.5 L 12.7 173.5 L 11.2 172.4 L 14.9 165.4 L 18.2 158.1 L 21.2 150.4 L 23.7 142.1 L 25.8 133.4 L 27.5 124.1 L 28.8 114.2 L 29.6 103.7 L 30.0 92.6 L 30.0 17.0 Z M 52.0 105.0 L 52.0 157.0 L 85.0 157.0 L 85.0 105.0 Z M 124.01325302124023 65.0 L 121.0 71.1 L 117.74504022598266 76.8865951538086 L 120.5 88.3 L 124.6 101.6 L 129.4 114.0 L 134.8 125.2 L 138.3937445640564 131.17025299072264 L 140.3 127.5 L 145.9 113.2 L 150.4 97.6 L 153.8 80.7 L 155.66271190643312 65.0 Z M 42.0 27.0 L 42.0 69.0 L 85.0 69.0 L 85.0 27.0 Z " />
</g>
</svg>
