<svg xmlns="http://www.w3.org/2000/svg" xmlns:xlink="http://www.w3.org/1999/xlink" version="1.1" baseProfile="full" viewBox="0 0 200 200" width="200" height="200">
<g fill="black">
<path d="M 158.0 174.0 L 149.5 167.1 L 141.7 159.3 L 140.54764633178712 157.83033151626586 L 131.3 166.5 L 121.0 174.1 L 109.8 180.4 L 97.9 185.3 L 85.2 188.8 L 84.7 187.1 L 96.4 181.8 L 107.2 175.7 L 117.2 168.7 L 126.3 160.8 L 134.5 151.9 L 135.1833333015442 150.9888889312744 L 134.8 150.5 L 128.7 141.0 L 123.5 130.5 L 119.1 119.2 L 115.7 107.1 L 113.46615381240845 95.0 L 104.0 95.0 L 104.0 91.0 L 132.0 91.0 L 132.0 14.0 L 144.0 16.0 L 147.0 18.0 L 144.0 19.8 L 144.0 50.0 L 168.8181818008423 50.0 L 177.0 41.0 L 187.0 50.0 L 187.0 54.0 L 144.0 54.0 L 144.0 91.0 L 164.0 91.0 L 170.0 86.0 L 181.0 95.0 L 176.0 98.0 L 174.27168827056886 98.72012987136841 L 170.5 109.6 L 164.4 123.3 L 157.4 135.9 L 149.6 147.4 L 147.21069593429564 150.1737897872925 L 149.1 152.2 L 156.6 158.7 L 164.6 164.2 L 173.2 169.0 L 182.4 172.8 L 189.0 175.5 L 177.5 185.1 L 167.4 180.0 Z M 42.0 52.0 L 85.0 52.0 L 91.0 47.0 L 102.0 56.0 L 97.0 60.0 L 97.0 97.0 L 85.0 103.0 L 85.0 93.0 L 42.0 93.0 L 42.0 99.0 L 41.4 108.8 L 41.30050249099732 109.65025129318238 L 52.0 115.0 L 85.0 115.0 L 91.0 110.0 L 102.0 119.0 L 97.0 123.0 L 97.0 166.0 L 85.0 172.0 L 85.0 164.0 L 52.0 164.0 L 52.0 176.0 L 40.0 182.0 L 40.0 119.85 L 38.7 127.0 L 36.6 135.4 L 34.0 143.3 L 30.8 150.6 L 27.1 157.3 L 22.8 163.4 L 18.0 168.9 L 12.6 173.6 L 11.3 172.3 L 15.0 166.5 L 18.3 160.5 L 21.3 154.3 L 23.8 147.7 L 25.9 140.6 L 27.6 133.2 L 28.8 125.3 L 29.7 117.0 L 30.0 108.2 L 30.0 46.0 Z M 52.0 119.0 L 52.0 160.0 L 85.0 160.0 L 85.0 119.0 Z M 119.7 105.8 L 124.6 117.0 L 130.0 127.3 L 135.8 136.5 L 140.99603958129882 143.23861389160157 L 142.0 141.9 L 148.7 130.9 L 154.6 118.8 L 159.8 105.6 L 163.0615385055542 95.0 L 115.59421491622925 95.0 Z M 42.0 56.0 L 42.0 89.0 L 85.0 89.0 L 85.0 56.0 Z M 63.0 39.7 L 61.7 37.3 L 60.2 35.0 L 58.6 32.7 L 56.9 30.3 L 55.0 28.0 L 53.0 25.7 L 50.8 23.3 L 48.3 21.2 L 49.3 19.7 L 52.3 21.1 L 55.4 22.3 L 58.4 23.8 L 61.2 25.4 L 63.9 27.2 L 66.5 29.1 L 69.0 31.2 L 71.3 33.4 L 73.5 35.8 L 75.6 38.3 L 76.2 42.8 L 73.5 46.5 L 69.0 47.1 L 65.3 44.5 L 64.2 42.1 Z " />
</g>
</svg>
