<svg xmlns="http://www.w3.org/2000/svg" xmlns:xlink="http://www.w3.org/1999/xlink" version="1.1" baseProfile="full" viewBox="0 0 200 200" width="200" height="200">
<g fill="black">
<path d="M 48.0 108.0 L 152.0 108.0 L 158.0 103.0 L 169.0 112.0 L 164.0 116.0 L 164.0 180.0 L 152.0 186.0 L 152.0 176.0 L 48.0 176.0 L 48.0 183.0 L 36.0 189.0 L 36.0 102.0 Z M 48.0 112.0 L 48.0 172.0 L 152.0 172.0 L 152.0 112.0 Z M 82.0 128.0 L 118.0 128.0 L 124.0 123.0 L 135.0 132.0 L 130.0 136.0 L 130.0 156.0 L 118.0 162.0 L 118.0 154.0 L 82.0 154.0 L 82.0 157.0 L 70.0 163.0 L 70.0 122.0 Z M 82.0 132.0 L 82.0 150.0 L 118.0 150.0 L 118.0 132.0 Z M 17.0 89.8 L 94.0 89.8 L 94.0 36.7 L 32.0 36.7 L 32.0 32.7 L 94.0 32.7 L 94.0 12.3 L 106.0 14.3 L 109.0 16.3 L 106.0 18.1 L 106.0 32.7 L 145.0 32.7 L 155.0 22.7 L 167.0 32.7 L 167.0 36.7 L 106.0 36.7 L 106.0 89.8 L 163.0 89.8 L 173.0 79.8 L 185.0 89.8 L 185.0 93.8 L 17.0 93.8 Z M 69.5 75.3 L 68.4 73.4 L 67.0 71.5 L 65.3 69.6 L 63.5 67.7 L 61.4 65.8 L 59.1 63.9 L 56.730515480041504 62.077319622039795 L 53.9 66.5 L 50.3 71.1 L 46.4 75.3 L 42.2 79.1 L 37.6 82.5 L 32.7 85.3 L 27.4 87.5 L 26.5 86.0 L 30.5 82.2 L 34.2 78.3 L 37.6 74.4 L 40.7 70.4 L 43.4 66.1 L 45.9 61.7 L 48.1 57.0 L 50.0 52.0 L 51.6 46.8 L 52.661205005645755 42.31028652191162 L 52.6 42.3 L 53.3 39.6 L 64.5 44.3 L 66.9 47.0 L 63.181922149658206 48.12870216369629 L 62.4 50.4 L 59.9 56.1 L 58.034769248962405 59.69723081588745 L 60.8 60.2 L 63.9 61.1 L 66.9 62.2 L 69.8 63.5 L 72.4 65.0 L 75.0 66.7 L 77.3 68.6 L 79.5 70.6 L 81.5 72.9 L 82.2 77.4 L 79.5 81.1 L 75.0 81.8 L 71.3 79.1 L 70.5 77.2 Z M 154.2 75.4 L 152.9 73.5 L 151.4 71.5 L 149.8 69.6 L 147.9 67.7 L 145.9 65.8 L 143.7 63.9 L 141.49503383636474 62.06252822875977 L 138.5 66.7 L 135.1 71.1 L 131.2 75.2 L 127.1 78.8 L 122.5 81.9 L 117.6 84.5 L 112.4 86.5 L 111.5 84.9 L 115.5 81.3 L 119.2 77.7 L 122.5 74.0 L 125.5 70.1 L 128.2 66.1 L 130.6 61.9 L 132.6 57.4 L 134.3 52.7 L 135.8 47.7 L 136.70931730270385 43.40140933990479 L 136.7 43.4 L 137.3 40.7 L 148.6 45.2 L 151.0 47.9 L 147.2967297554016 49.04464712142944 L 146.6 51.1 L 144.3 56.7 L 142.7503833770752 59.68444690704346 L 145.5 60.2 L 148.5 61.2 L 151.5 62.3 L 154.2 63.5 L 156.9 65.0 L 159.4 66.7 L 161.8 68.5 L 164.1 70.5 L 166.2 72.7 L 167.1 77.2 L 164.6 81.1 L 160.1 81.9 L 156.3 79.5 L 155.3 77.4 Z " />
</g>
</svg>
