<svg xmlns="http://www.w3.org/2000/svg" xmlns:xlink="http://www.w3.org/1999/xlink" version="1.1" baseProfile="full" viewBox="0 0 200 200" width="200" height="200">
<g fill="black">
<path d="M 174.0 76.0 L 177.0 78.0 L 174.0 79.8 L 174.0 178.0 L 162.0 184.0 L 162.0 172.0 L 38.0 172.0 L 38.0 184.0 L 26.0 190.0 L 26.0 74.0 L 38.0 76.0 L 41.0 78.0 L 38.0 79.8 L 38.0 168.0 L 162.0 168.0 L 162.0 74.0 Z M 106.6637167930603 72.00176992416382 L 106.0 79.9 L 103.9 91.2 L 100.5 101.9 L 97.56256628036499 108.14985904693603 L 100.8 109.3 L 107.9 112.4 L 114.5 115.8 L 120.8 119.5 L 126.7 123.4 L 132.2 127.5 L 137.3 131.8 L 142.0 136.4 L 146.3 141.2 L 150.3 146.1 L 151.1 150.6 L 148.6 154.4 L 144.1 155.3 L 140.3 152.8 L 137.3 148.1 L 133.9 143.5 L 130.1 138.9 L 126.0 134.4 L 121.4 130.0 L 116.3 125.6 L 110.9 121.3 L 105.1 117.0 L 99.0 112.6 L 96.3227707862854 110.78772172927856 L 95.8 111.9 L 90.0 121.3 L 83.0 129.9 L 74.8 137.8 L 65.5 145.0 L 55.0 151.3 L 43.4 156.7 L 42.5 155.2 L 53.0 148.1 L 62.2 140.7 L 70.3 133.0 L 77.2 125.0 L 82.9 116.6 L 87.5 107.8 L 91.0 98.6 L 93.4 88.9 L 94.7 78.7 L 95.0 68.0 L 95.0 65.6 L 107.0 68.0 L 110.0 70.0 Z M 78.4 23.1 L 79.8 26.4 L 75.99777774810791 26.268888854980467 L 73.7 29.3 L 68.6 35.4 L 63.1 41.3 L 57.2 47.0 L 51.0 52.5 L 44.3 57.9 L 37.2 63.0 L 29.7 67.9 L 21.8 72.5 L 13.4 76.7 L 12.5 75.2 L 19.7 69.3 L 26.6 63.5 L 33.2 57.8 L 39.4 52.1 L 45.2 46.3 L 50.6 40.5 L 55.6 34.6 L 60.3 28.6 L 64.5 22.6 L 67.86558198928833 17.335884475708006 L 67.8 17.3 L 68.9 15.7 Z M 161.9 60.0 L 157.9 54.9 L 153.3 49.8 L 148.1 44.7 L 142.3 39.6 L 135.9 34.6 L 129.0 29.6 L 121.5 24.4 L 113.5 19.2 L 114.2 17.6 L 123.3 21.1 L 131.7 24.9 L 139.5 29.1 L 146.8 33.5 L 153.5 38.1 L 159.6 43.0 L 165.2 48.0 L 170.3 53.2 L 174.8 58.7 L 178.7 64.4 L 179.2 68.9 L 176.4 72.6 L 171.9 73.1 L 168.3 70.3 L 165.4 65.1 Z " />
</g>
</svg>
