<svg xmlns="http://www.w3.org/2000/svg" xmlns:xlink="http://www.w3.org/1999/xlink" version="1.1" baseProfile="full" viewBox="0 0 200 200" width="200" height="200">
<g fill="black">
<path d="M 106.5 20.0 L 108.0 23.3 L 103.94445667266845 23.23007688522339 L 101.8 26.0 L 99.3 29.2 L 96.6 32.6 L 93.7 36.0 L 90.7 39.5 L 87.5 43.2 L 84.1 46.9 L 80.5 50.6 L 79.13589744567871 52.0 L 153.5 52.0 L 159.5 47.0 L 170.5 56.0 L 165.5 60.0 L 165.5 170.0 L 153.5 176.0 L 153.5 164.0 L 46.5 164.0 L 46.5 176.0 L 34.5 182.0 L 34.5 46.0 L 46.5 52.0 L 75.92916669845582 52.0 L 77.7 48.6 L 80.0 44.0 L 82.4 39.6 L 84.7 35.4 L 86.9 31.3 L 89.0 27.5 L 91.0 23.8 L 92.9 20.2 L 94.7 16.8 L 95.83977699279785 14.52044610977173 L 95.8 14.5 L 96.01999998092651 14.160000038146972 L 96.3 13.6 L 96.35857257843017 13.636751461029053 L 96.9 12.8 Z M 46.5 56.0 L 46.5 160.0 L 153.5 160.0 L 153.5 56.0 Z M 121.7 132.0 L 115.7 125.1 L 109.3 118.4 L 108.47518177032471 117.59980325698852 L 102.1 124.5 L 92.9 132.7 L 82.9 139.9 L 72.3 146.2 L 60.9 151.4 L 48.8 155.6 L 48.2 153.9 L 59.2 148.0 L 69.5 141.6 L 79.1 134.6 L 87.9 127.0 L 95.9 118.6 L 101.86869983673095 111.26011238098144 L 95.4 105.6 L 87.8 99.5 L 79.8 93.4 L 71.4 87.4 L 62.7 81.4 L 63.5 79.8 L 73.3 84.1 L 82.6 88.9 L 91.5 94.1 L 100.0 99.6 L 106.73170728683472 104.48048782348633 L 110.0 99.7 L 116.0 89.2 L 121.2 77.8 L 125.8 65.7 L 125.86582527160644 65.72446603775025 L 126.4 64.3 L 137.1 69.9 L 139.2 72.8 L 135.5245096206665 73.50930519104004 L 131.6 82.5 L 125.4 94.3 L 118.3 105.3 L 114.27887506484986 110.52224016189575 L 115.6 111.6 L 122.9 118.1 L 129.7 124.8 L 136.1 131.8 L 142.1 139.2 L 143.1 143.6 L 140.7 147.6 L 136.3 148.6 L 132.3 146.2 L 127.2 139.0 Z " />
</g>
</svg>
