<svg xmlns="http://www.w3.org/2000/svg" xmlns:xlink="http://www.w3.org/1999/xlink" version="1.1" baseProfile="full" viewBox="0 0 200 200" width="200" height="200">
<g fill="black">
<path d="M 138.0 174.0 L 158.0 174.0 L 159.2 173.9 L 160.1 173.7 L 161.0 173.4 L 161.4 173.0 L 161.7 172.1 L 161.9 171.2 L 162.0 170.0 L 162.0 30.0 L 38.0 30.0 L 38.0 181.0 L 26.0 187.0 L 26.0 20.0 L 38.0 26.0 L 162.0 26.0 L 168.0 21.0 L 179.0 30.0 L 174.0 34.0 L 174.0 170.0 L 173.8 172.5 L 173.4 175.0 L 172.6 177.4 L 171.3 179.7 L 169.7 181.7 L 167.7 183.3 L 165.4 184.6 L 163.0 185.4 L 160.5 185.8 L 158.0 186.0 L 158.0 180.0 L 138.0 177.0 Z M 138.0 114.4 L 140.0 114.4 L 138.0 139.4 L 141.6 141.8 L 144.0 145.4 L 141.6 149.0 L 138.0 151.4 L 79.0 151.4 L 76.4 151.3 L 73.9 150.8 L 71.5 150.0 L 69.2 148.8 L 67.2 147.2 L 65.6 145.1 L 64.3 142.9 L 63.5 140.5 L 63.1 138.0 L 63.0 135.4 L 63.0 50.5 L 75.0 56.5 L 123.0 56.5 L 129.0 51.5 L 140.0 60.5 L 135.0 64.5 L 135.0 103.7 L 123.0 109.7 L 123.0 97.7 L 75.0 97.7 L 75.0 136.7 L 75.2 137.6 L 75.5 138.5 L 75.7 138.7 L 75.9 138.8 L 76.2 139.0 L 76.8 139.2 L 77.7 139.4 L 132.0 139.4 Z M 75.0 60.5 L 75.0 93.7 L 123.0 93.7 L 123.0 60.5 Z " />
</g>
</svg>
