<svg xmlns="http://www.w3.org/2000/svg" xmlns:xlink="http://www.w3.org/1999/xlink" version="1.1" baseProfile="full" viewBox="0 0 200 200" width="200" height="200">
<g fill="black">
<path d="M 170.0 67.0 L 173.0 69.0 L 170.0 70.8 L 170.0 176.0 L 158.0 182.0 L 158.0 170.0 L 42.0 170.0 L 42.0 182.0 L 30.0 188.0 L 30.0 67.0 L 42.0 69.0 L 45.0 71.0 L 42.0 72.8 L 42.0 166.0 L 158.0 166.0 L 158.0 65.0 Z M 118.9 138.0 L 112.6 131.1 L 106.1 124.3 L 106.07175750732422 124.27298545837402 L 103.4 126.6 L 93.7 134.2 L 83.7 141.2 L 73.3 147.7 L 62.5 153.6 L 51.4 158.7 L 50.5 157.2 L 60.6 150.3 L 70.4 143.2 L 79.8 135.9 L 89.0 128.2 L 97.7 120.2 L 99.7232771873474 118.20052604675293 L 99.2 117.7 L 92.0 111.3 L 84.5 104.9 L 76.7 98.7 L 68.7 92.5 L 60.4 86.2 L 61.3 84.7 L 70.7 89.3 L 79.7 94.2 L 88.4 99.6 L 96.7 105.3 L 104.7 111.3 L 105.80534162521363 112.19001531600952 L 106.2 111.8 L 114.3 103.0 L 122.0 93.9 L 129.4 84.3 L 135.9225917816162 75.11325092315674 L 135.9 75.1 L 137.0 73.6 L 146.3 81.2 L 147.5 84.6 L 143.83812761306763 84.34745712280274 L 138.4 91.3 L 130.2 100.8 L 121.6 109.9 L 113.09471940994263 118.11858577728272 L 119.7 124.0 L 126.7 130.7 L 133.4 137.7 L 139.8 144.9 L 141.0 149.3 L 138.8 153.3 L 134.4 154.5 L 130.4 152.3 L 124.8 145.1 Z M 158.9 59.2 L 150.1 55.2 L 141.7 50.7 L 133.6 45.8 L 125.7 40.5 L 118.2 34.7 L 111.0 28.6 L 104.3 21.9 L 102.2401683807373 19.50793743133545 L 98.4 23.4 L 90.6 30.4 L 82.3 37.0 L 73.5 43.0 L 64.3 48.7 L 54.6 53.8 L 44.5 58.5 L 33.9 62.7 L 22.8 66.3 L 11.2 69.2 L 10.7 67.5 L 21.5 62.7 L 31.8 57.7 L 41.6 52.6 L 50.9 47.2 L 59.8 41.5 L 68.2 35.4 L 76.0 29.1 L 83.4 22.4 L 90.3 15.4 L 96.8 8.0 L 96.81847105026245 8.016213417053223 L 97.2 7.6 L 105.8 15.9 L 106.4457673072815 18.411317348480225 L 107.0 18.8 L 114.7 23.9 L 122.4 28.8 L 130.2 33.4 L 138.2 37.7 L 146.3 41.6 L 154.7 45.1 L 163.2 48.3 L 171.9 51.1 L 180.8 53.5 L 188.8 55.9 L 177.1 66.2 L 167.8 62.9 Z " />
</g>
</svg>
