<svg xmlns="http://www.w3.org/2000/svg" xmlns:xlink="http://www.w3.org/1999/xlink" version="1.1" baseProfile="full" viewBox="0 0 200 200" width="200" height="200">
<g fill="black">
<path d="M 40.0 182.0 L 28.0 188.0 L 28.0 24.0 L 40.0 30.0 L 161.0 30.0 L 167.0 25.0 L 178.0 34.0 L 173.0 38.0 L 173.0 176.0 L 161.0 182.0 L 161.0 170.0 L 40.0 170.0 Z M 40.0 34.0 L 40.0 166.0 L 65.0 166.0 L 65.0 103.0 L 77.0 109.0 L 122.0 109.0 L 128.0 104.0 L 139.0 113.0 L 134.0 117.0 L 134.0 166.0 L 161.0 166.0 L 161.0 34.0 Z M 77.0 113.0 L 77.0 166.0 L 122.0 166.0 L 122.0 113.0 Z M 93.7 51.7 L 95.2 55.0 L 91.43543443679809 54.93509368896484 L 89.5 57.7 L 85.1 63.4 L 80.6 69.0 L 75.8 74.4 L 70.8 79.6 L 65.6 84.6 L 60.2 89.4 L 54.6 93.9 L 48.7 98.1 L 42.5 102.0 L 41.4 100.6 L 46.2 95.2 L 51.0 89.9 L 55.6 84.7 L 60.1 79.4 L 64.4 74.0 L 68.6 68.5 L 72.6 62.9 L 76.4 57.2 L 80.1 51.3 L 83.5 45.4 L 83.52157363891601 45.41332483291626 L 84.0 44.6 Z M 141.2 84.6 L 138.3 79.2 L 135.2 74.1 L 131.8 69.2 L 128.2 64.5 L 124.4 60.0 L 120.4 55.6 L 116.2 51.3 L 111.9 47.0 L 112.9 45.5 L 118.5 48.2 L 123.9 51.5 L 128.9 55.2 L 133.7 59.3 L 138.3 63.8 L 142.6 68.6 L 146.7 73.7 L 150.5 79.1 L 154.0 84.9 L 157.3 90.9 L 157.5 95.5 L 154.4 98.9 L 149.8 99.0 L 146.4 95.9 L 143.9 90.1 Z " />
</g>
</svg>
