<svg xmlns="http://www.w3.org/2000/svg" xmlns:xlink="http://www.w3.org/1999/xlink" version="1.1" baseProfile="full" viewBox="0 0 200 200" width="200" height="200">
<g fill="black">
<path d="M 40.0 182.0 L 28.0 188.0 L 28.0 24.0 L 40.0 30.0 L 161.0 30.0 L 167.0 25.0 L 178.0 34.0 L 173.0 38.0 L 173.0 176.0 L 161.0 182.0 L 161.0 170.0 L 40.0 170.0 Z M 77.0 113.0 L 77.0 166.0 L 122.0 166.0 L 122.0 113.0 Z M 126.4 90.4 L 124.0 90.0 L 121.6 89.2 L 119.4 88.1 L 117.4 86.5 L 115.7 84.6 L 114.5 82.4 L 113.6 80.0 L 113.1 77.5 L 113.0 75.0 L 113.0 34.0 L 87.68867921829224 34.0 L 86.5 43.0 L 84.3 53.0 L 81.5 62.2 L 77.9 70.7 L 73.7 78.5 L 68.7 85.5 L 63.1 91.7 L 56.8 97.0 L 49.9 101.4 L 42.4 104.7 L 41.5 103.2 L 47.8 98.2 L 53.3 93.0 L 58.2 87.3 L 62.5 81.1 L 66.2 74.4 L 69.4 67.1 L 71.9 59.2 L 73.8 50.6 L 75.2 41.4 L 75.75106382369995 34.0 L 40.0 34.0 L 40.0 166.0 L 65.0 166.0 L 65.0 103.0 L 77.0 109.0 L 122.0 109.0 L 128.0 104.0 L 139.0 113.0 L 134.0 117.0 L 134.0 166.0 L 161.0 166.0 L 161.0 34.0 L 125.0 34.0 L 125.0 76.2 L 125.1 77.1 L 125.2 77.7 L 125.4 78.1 L 125.5 78.4 L 125.7 78.6 L 126.1 78.9 L 126.7 79.1 L 127.7 79.3 L 129.0 79.5 L 145.5 79.5 L 151.0 58.5 L 153.0 58.5 L 151.0 79.5 L 154.3 81.7 L 156.5 85.0 L 154.3 88.3 L 151.0 90.5 L 129.0 90.5 Z " />
</g>
</svg>
