<svg xmlns="http://www.w3.org/2000/svg" xmlns:xlink="http://www.w3.org/1999/xlink" version="1.1" baseProfile="full" viewBox="0 0 200 200" width="200" height="200">
<g fill="black">
<path d="M 17.0 178.0 L 94.0 178.0 L 94.0 62.0 L 23.0 62.0 L 23.0 58.0 L 94.0 58.0 L 94.0 37.86106195449829 L 84.1 39.0 L 72.6 40.2 L 61.0 41.3 L 49.1 42.2 L 37.1 42.8 L 36.8 41.1 L 48.6 38.5 L 60.2 36.0 L 71.7 33.7 L 82.9 31.5 L 94.0 29.3 L 105.0 27.1 L 115.7 24.9 L 126.3 22.7 L 136.6 20.5 L 145.90076379776002 18.402768898010255 L 145.9 18.4 L 145.9027997970581 18.402309799194335 L 146.8 18.2 L 147.01890935897828 19.32310018539429 L 157.9 28.3 L 158.2 31.3 L 153.70081338882446 29.111206531524658 L 149.1 30.0 L 138.7 31.7 L 128.1 33.3 L 117.4 34.8 L 106.5 36.3 L 106.0 36.36306304931641 L 106.0 58.0 L 156.0 58.0 L 166.0 48.0 L 178.0 58.0 L 178.0 62.0 L 106.0 62.0 L 106.0 178.0 L 161.0 178.0 L 171.0 168.0 L 183.0 178.0 L 183.0 182.0 L 17.0 182.0 Z M 18.3 133.9 L 23.2 132.9 L 28.1 131.8 L 42.8 128.8 L 52.6 127.0 L 57.6 126.2 L 62.0 125.5840000152588 L 62.0 101.0 L 21.0 101.0 L 21.0 97.0 L 62.0 97.0 L 62.0 67.0 L 74.0 69.0 L 77.0 71.0 L 74.0 72.8 L 74.0 153.0 L 62.0 159.0 L 62.0 129.97608699798585 L 59.1 131.3 L 54.5 133.3 L 49.8 135.2 L 45.1 137.0 L 26.3 143.8 L 25.502768135070802 144.08235292434694 L 24.3 147.8 L 21.5 145.5 L 16.4 134.4 Z M 175.0 115.0 L 177.0 115.0 L 175.0 140.0 L 178.6 142.4 L 181.0 146.0 L 178.6 149.6 L 175.0 152.0 L 139.0 152.0 L 136.4 151.8 L 133.9 151.4 L 131.5 150.6 L 129.2 149.3 L 127.2 147.7 L 125.6 145.7 L 124.3 143.4 L 123.5 141.0 L 123.1 138.5 L 123.0 136.0 L 123.0 69.0 L 135.0 71.0 L 138.0 73.0 L 135.0 74.8 L 135.0 115.27142858505249 L 138.5 112.7 L 143.4 109.2 L 148.2 105.9 L 152.8 102.7 L 157.3 99.5 L 161.7 96.4 L 165.9 93.4 L 169.9 90.4 L 173.8 87.5 L 177.35202159881592 92.88185081481933 L 181.1 97.0 L 181.3 100.6 L 177.7125 99.0625 L 176.1 100.0 L 171.6 102.5 L 167.0 105.0 L 162.1 107.5 L 157.1 110.0 L 152.0 112.5 L 146.7 114.9 L 141.1 117.4 L 135.4 119.6 L 135.0 119.73999996185303 L 135.0 137.2 L 135.2 138.1 L 135.5 139.0 L 135.9 139.4 L 136.8 139.7 L 137.7 139.9 L 139.0 140.0 L 169.0 140.0 Z " />
</g>
</svg>
