<svg xmlns="http://www.w3.org/2000/svg" xmlns:xlink="http://www.w3.org/1999/xlink" version="1.1" baseProfile="full" viewBox="0 0 200 200" width="200" height="200">
<g fill="black">
<path d="M 17.0 178.0 L 94.0 178.0 L 94.0 154.0 L 39.0 154.0 L 39.0 150.0 L 94.0 150.0 L 94.0 62.0 L 23.0 62.0 L 23.0 58.0 L 94.0 58.0 L 94.0 37.86106195449829 L 84.1 39.0 L 72.6 40.2 L 61.0 41.3 L 49.1 42.2 L 37.1 42.8 L 36.8 41.1 L 48.6 38.5 L 60.2 36.0 L 71.7 33.7 L 82.9 31.5 L 94.0 29.3 L 105.0 27.1 L 115.7 24.9 L 126.3 22.7 L 136.6 20.5 L 145.90076379776002 18.402768898010255 L 145.9 18.4 L 145.9027997970581 18.402309799194335 L 146.8 18.2 L 147.01890935897828 19.32310018539429 L 157.9 28.3 L 158.2 31.3 L 153.70081338882446 29.111206531524658 L 149.1 30.0 L 138.7 31.7 L 128.1 33.3 L 117.4 34.8 L 106.5 36.3 L 106.0 36.36306304931641 L 106.0 58.0 L 156.0 58.0 L 166.0 48.0 L 178.0 58.0 L 178.0 62.0 L 106.0 62.0 L 106.0 150.0 L 139.0 150.0 L 149.0 140.0 L 161.0 150.0 L 161.0 154.0 L 106.0 154.0 L 106.0 178.0 L 161.0 178.0 L 171.0 168.0 L 183.0 178.0 L 183.0 182.0 L 17.0 182.0 Z M 18.3 113.9 L 23.2 112.9 L 28.1 111.8 L 42.8 108.8 L 52.6 107.0 L 57.6 106.2 L 62.0 105.5840000152588 L 62.0 91.0 L 21.0 91.0 L 21.0 87.0 L 62.0 87.0 L 62.0 67.0 L 74.0 69.0 L 77.0 71.0 L 74.0 72.8 L 74.0 133.0 L 62.0 139.0 L 62.0 109.97608699798585 L 59.1 111.3 L 54.5 113.3 L 49.8 115.2 L 45.1 117.0 L 26.3 123.8 L 25.502768135070802 124.08235292434692 L 24.3 127.8 L 21.5 125.5 L 16.4 114.4 Z M 175.0 99.5 L 177.0 99.5 L 175.0 120.5 L 178.3 122.7 L 180.5 126.0 L 178.3 129.3 L 175.0 131.5 L 139.0 131.5 L 136.4 131.4 L 134.0 131.0 L 131.6 130.2 L 129.4 129.1 L 127.4 127.5 L 125.7 125.6 L 124.5 123.4 L 123.6 121.0 L 123.1 118.5 L 123.0 116.0 L 123.0 69.0 L 135.0 71.0 L 138.0 73.0 L 135.0 74.8 L 135.0 96.56470584869385 L 138.9 94.5 L 148.7 89.6 L 153.4 87.3 L 158.0 85.1 L 162.4 83.0 L 166.6 80.9 L 170.7 78.8 L 173.74206638336182 77.2789668083191 L 173.7 77.2 L 173.771480178833 77.26425991058349 L 174.7 76.8 L 175.5880693435669 78.89735527038575 L 183.6 86.1 L 183.8 89.3 L 179.93648290634155 87.67007875442505 L 179.4 87.9 L 175.1 89.3 L 170.7 90.8 L 166.1 92.3 L 161.4 93.8 L 156.5 95.3 L 151.4 96.7 L 146.2 98.2 L 140.8 99.5 L 135.1 100.7 L 135.0 100.71896553039551 L 135.0 117.2 L 135.1 118.1 L 135.2 118.7 L 135.4 119.1 L 135.5 119.4 L 135.7 119.6 L 136.1 119.9 L 136.7 120.1 L 137.7 120.3 L 139.0 120.5 L 169.5 120.5 Z " />
</g>
</svg>
