<svg xmlns="http://www.w3.org/2000/svg" xmlns:xlink="http://www.w3.org/1999/xlink" version="1.1" baseProfile="full" viewBox="0 0 200 200" width="200" height="200">
<g fill="black">
<path d="M 14.0 112.0 L 14.0 108.0 L 60.0 108.0 L 60.0 74.0 L 35.0 74.0 L 35.0 86.0 L 23.0 92.0 L 23.0 23.0 L 35.0 25.0 L 38.0 27.0 L 35.0 28.8 L 35.0 70.0 L 60.0 70.0 L 60.0 12.0 L 72.0 14.0 L 75.0 16.0 L 72.0 17.8 L 72.0 182.0 L 60.0 188.0 L 60.0 112.0 L 40.0 112.0 L 40.0 126.0 L 39.4 133.7 L 38.4 141.2 L 37.0 148.4 L 35.1 155.3 L 32.7 161.8 L 29.9 168.0 L 26.6 173.8 L 22.8 179.2 L 18.5 184.1 L 13.6 188.5 L 12.3 187.4 L 15.4 181.9 L 18.2 176.4 L 20.7 170.8 L 22.9 165.0 L 24.7 159.1 L 26.1 152.9 L 27.1 146.6 L 27.8 140.0 L 28.1 133.1 L 28.0 126.0 L 28.0 112.0 Z M 86.6 167.0 L 128.0 167.0 L 128.0 84.0 L 79.6 84.0 L 79.6 80.0 L 128.0 80.0 L 128.0 18.0 L 140.0 20.0 L 143.0 22.0 L 140.0 23.8 L 140.0 80.0 L 166.4 80.0 L 176.4 70.0 L 188.4 80.0 L 188.4 84.0 L 140.0 84.0 L 140.0 167.0 L 159.3 167.0 L 169.3 157.0 L 181.3 167.0 L 181.3 171.0 L 86.6 171.0 Z " />
</g>
</svg>
