<svg xmlns="http://www.w3.org/2000/svg" xmlns:xlink="http://www.w3.org/1999/xlink" version="1.1" baseProfile="full" viewBox="0 0 200 200" width="200" height="200">
<g fill="black">
<path d="M 14.3 134.4 L 18.6 131.8 L 22.9 129.0 L 27.3 126.1 L 31.7 123.0 L 36.2 119.8 L 40.8 116.5 L 45.4 113.0 L 50.1 109.5 L 54.6 106.1938775062561 L 54.6 14.0 L 66.6 16.0 L 69.6 18.0 L 66.6 19.8 L 66.6 182.0 L 54.6 188.0 L 54.6 112.38947372436523 L 53.8 113.4 L 49.8 117.9 L 45.8 122.2 L 41.7 126.3 L 37.6 130.2 L 33.5 134.0 L 29.4 137.6 L 25.2 141.0 L 24.344288063049316 141.68874368667602 L 24.4 145.7 L 21.1 144.3 L 12.6 135.6 Z M 80.5 167.0 L 124.5 167.0 L 124.5 84.0 L 73.1 84.0 L 73.1 80.0 L 124.5 80.0 L 124.5 18.0 L 136.5 20.0 L 139.5 22.0 L 136.5 23.8 L 136.5 80.0 L 165.8 80.0 L 175.8 70.0 L 187.8 80.0 L 187.8 84.0 L 136.5 84.0 L 136.5 167.0 L 158.4 167.0 L 168.4 157.0 L 180.4 167.0 L 180.4 171.0 L 80.5 171.0 Z M 35.5 73.9 L 34.3 69.9 L 32.9 66.0 L 31.3 62.2 L 29.5 58.5 L 27.4 54.9 L 25.2 51.4 L 22.8 47.8 L 20.0 44.3 L 21.2 42.9 L 25.1 45.3 L 28.8 48.0 L 32.2 51.1 L 35.4 54.4 L 38.3 58.0 L 41.0 61.9 L 43.3 66.0 L 45.5 70.3 L 47.3 74.9 L 48.9 79.7 L 48.1 84.2 L 44.4 86.9 L 39.9 86.1 L 37.2 82.4 L 36.4 78.1 Z " />
</g>
</svg>
