<svg xmlns="http://www.w3.org/2000/svg" xmlns:xlink="http://www.w3.org/1999/xlink" version="1.1" baseProfile="full" viewBox="0 0 200 200" width="200" height="200">
<g fill="black">
<path d="M 53.7 95.7 L 52.1 92.7 L 50.2 89.7 L 48.2 86.6 L 45.9 83.6 L 43.3 80.6 L 40.6 77.5 L 37.6 74.3 L 37.25293226242066 73.97396669387817 L 32.6 82.9 L 27.1 92.0 L 21.2 100.9 L 14.7 109.4 L 13.2 108.5 L 17.9 98.9 L 22.4 89.4 L 26.7 79.9 L 30.6 70.4 L 34.2 60.9 L 37.5 51.2 L 40.4 41.5 L 42.9 31.7 L 45.1 21.8 L 46.719617462158205 12.802125263214112 L 46.7 12.8 L 47.2 9.9 L 58.7 14.1 L 61.2 16.6 L 57.792449188232425 17.839109420776367 L 56.2 24.4 L 53.2 34.5 L 51.714999961853025 39.0 L 84.0 39.0 L 90.0 34.0 L 101.0 43.0 L 96.0 46.0 L 95.0901554107666 46.37910194396973 L 92.3 62.5 L 87.6 81.9 L 81.9 99.9 L 75.2 116.5 L 67.4 131.7 L 58.7 145.4 L 48.9 157.6 L 38.0 168.3 L 26.2 177.4 L 13.4 184.7 L 12.5 183.2 L 23.9 174.3 L 34.3 164.4 L 43.8 153.4 L 52.4 141.2 L 60.0 127.7 L 66.6 112.9 L 72.4 96.7 L 77.2 79.2 L 81.1 60.4 L 83.59801979064942 43.0 L 50.394999980926514 43.0 L 49.9 44.5 L 46.2 54.4 L 42.1 64.0 L 38.53715286254883 71.35805387496949 L 39.4 71.8 L 43.4 73.8 L 47.2 76.1 L 50.7 78.5 L 54.0 81.2 L 57.1 84.0 L 59.9 86.9 L 62.5 90.0 L 64.9 93.3 L 67.1 96.7 L 67.3 101.2 L 64.2 104.7 L 59.7 104.8 L 56.2 101.8 L 55.1 98.8 Z M 138.8 104.0 L 158.8 104.0 L 160.0 103.9 L 160.9 103.7 L 161.5 103.5 L 161.9 103.4 L 162.0 103.2 L 162.2 103.0 L 162.4 102.7 L 162.6 102.1 L 162.7 101.2 L 162.8 100.0 L 162.8 32.0 L 119.4 32.0 L 119.4 164.2 L 119.6 165.1 L 119.9 166.0 L 120.3 166.4 L 121.2 166.7 L 122.1 166.9 L 123.4 167.0 L 173.4 167.0 L 179.4 142.0 L 181.4 142.0 L 179.4 167.0 L 183.0 169.4 L 185.4 173.0 L 183.0 176.6 L 179.4 179.0 L 123.4 179.0 L 120.8 178.8 L 118.3 178.4 L 115.9 177.6 L 113.6 176.3 L 111.6 174.7 L 110.0 172.7 L 108.7 170.4 L 107.9 168.0 L 107.5 165.5 L 107.4 163.0 L 107.4 22.0 L 119.4 28.0 L 162.8 28.0 L 168.8 23.0 L 179.8 32.0 L 174.8 36.0 L 174.8 100.0 L 174.7 102.5 L 174.2 105.0 L 173.4 107.4 L 172.2 109.7 L 170.5 111.7 L 168.5 113.3 L 166.3 114.6 L 163.8 115.4 L 161.4 115.8 L 158.8 116.0 L 158.8 110.0 L 138.8 107.0 Z " />
</g>
</svg>
