<svg xmlns="http://www.w3.org/2000/svg" xmlns:xlink="http://www.w3.org/1999/xlink" version="1.1" baseProfile="full" viewBox="0 0 200 200" width="200" height="200">
<g fill="black">
<path d="M 148.3 183.6 L 135.7 180.8 L 124.1 177.3 L 113.4 173.3 L 105.21023254394531 169.20511627197266 L 103.3 170.1 L 91.5 174.7 L 78.9 178.5 L 65.5 181.7 L 51.5 184.2 L 36.6 185.9 L 21.0 186.8 L 20.9 185.1 L 36.1 182.2 L 50.4 179.0 L 64.0 175.4 L 76.6 171.3 L 88.4 166.7 L 95.63730154037475 163.41031742095947 L 95.3 163.2 L 87.8 157.2 L 81.6 150.6 L 78.24203424453735 145.49309368133544 L 75.9 147.2 L 69.3 151.3 L 62.2 155.3 L 54.4 159.1 L 46.1 162.7 L 37.1 166.0 L 27.5 169.1 L 17.2 171.8 L 16.7 170.1 L 26.1 165.5 L 35.0 161.1 L 43.3 156.7 L 50.9 152.4 L 57.9 148.0 L 64.2 143.6 L 69.8 139.2 L 74.8 134.7 L 79.1 130.3 L 80.16363639831543 129.0 L 54.7 129.0 L 54.7 136.0 L 42.7 142.0 L 42.7 79.15 L 37.0 82.0 L 37.0 49.2 L 29.5 53.4 L 21.3 57.6 L 12.4 61.7 L 11.5 60.2 L 19.3 54.4 L 26.6 48.9 L 33.3 43.7 L 39.6 38.8 L 45.2 34.0 L 50.3 29.5 L 54.8 25.1 L 58.6 20.9 L 61.9 16.9 L 64.0111231803894 14.006979274749757 L 64.0 14.0 L 65.0 12.5 L 74.2 20.4 L 75.4 23.8 L 71.43446102142335 23.38977184295654 L 70.5 24.4 L 67.76999998092651 27.0 L 122.68999996185303 27.0 L 123.5 26.1 L 125.2 24.3 L 125.6180064201355 24.81832799911499 L 129.0 22.0 L 140.0 31.0 L 135.0 34.0 L 123.0 39.0 L 123.0 38.892307662963866 L 122.8 39.0 L 117.4 41.6 L 114.5 42.9 L 111.75 44.0 L 156.0 44.0 L 162.0 39.0 L 173.0 48.0 L 168.0 52.0 L 168.0 76.0 L 156.64827585220337 81.6758620262146 L 162.3 86.3 L 157.3 90.3 L 157.3 135.0 L 146.7 140.3 L 150.0 143.0 L 145.0 146.0 L 139.38490562438966 148.33962268829345 L 134.3 152.5 L 124.7 159.1 L 115.78722076416015 164.11884651184081 L 116.8 164.5 L 127.0 167.5 L 138.1 170.0 L 150.3 172.0 L 163.3 173.4 L 177.4 174.4 L 188.4 175.1 L 176.5 187.5 L 161.9 185.9 Z M 81.66279067993165 143.0 L 80.34977102279663 143.9569465637207 L 84.6 147.6 L 91.5 152.6 L 99.1 157.1 L 103.82162637710572 159.29218368530275 L 109.5 156.2 L 118.8 150.1 L 127.2 143.6 L 127.85142860412597 143.0 Z M 86.96341466903687 129.0 L 91.9 133.6 L 92.9 137.0 L 89.1 136.4 L 87.2 138.3 L 86.37826089859009 139.0 L 132.19428567886354 139.0 L 134.8 136.6 L 135.2783350944519 137.1013874053955 L 139.0 134.0 L 145.3 139.15454549789428 L 145.3 129.0 Z M 54.7 114.2 L 54.7 125.0 L 145.3 125.0 L 145.3 114.2 Z M 54.7 100.2 L 54.7 110.2 L 145.3 110.2 L 145.3 100.2 Z M 54.7 86.3 L 54.7 96.2 L 145.3 96.2 L 145.3 86.3 Z M 131.1 70.8 L 128.4 69.3 L 125.3 67.8 L 121.9 66.2 L 118.1 64.7 L 114.0 63.1 L 109.6 61.4 L 104.9 59.7 L 103.72686567306519 59.30895519256592 L 100.3 61.9 L 95.5 64.4 L 89.9 66.6 L 83.4 68.5 L 76.2 70.0 L 68.1 71.1 L 59.1 71.8 L 58.8 70.1 L 67.3 67.4 L 74.8 64.8 L 81.4 62.2 L 86.9 59.6 L 91.4 57.0 L 94.9 54.4 L 97.2 51.9 L 98.5 49.6 L 98.92105264663697 48.0 L 49.0 48.0 L 49.0 76.0 L 45.55 77.725 L 54.7 82.3 L 145.3 82.3 L 151.3 77.3 L 156.0 81.14545450210571 L 156.0 48.0 L 110.58333330154419 48.0 L 110.0 50.8 L 107.7 55.2 L 106.38485803604127 56.634700298309326 L 110.6 56.8 L 115.4 57.3 L 120.0 57.8 L 124.2 58.5 L 128.1 59.3 L 131.8 60.1 L 135.2 61.1 L 138.4 62.1 L 141.3 63.3 L 144.1 66.9 L 143.6 71.4 L 139.9 74.2 L 135.4 73.7 L 133.4 72.2 Z M 107.0 43.1 L 109.2 40.7 L 115.8 34.1 L 117.8 32.0 L 118.8 31.0 L 63.256097602844235 31.0 L 61.5 32.5 L 56.2 36.6 L 50.4 40.8 L 45.52380952835083 44.0 L 105.92857141494751 44.0 Z " />
</g>
</svg>
