<svg xmlns="http://www.w3.org/2000/svg" xmlns:xlink="http://www.w3.org/1999/xlink" version="1.1" baseProfile="full" viewBox="0 0 200 200" width="200" height="200">
<g fill="black">
<path d="M 145.4 184.1 L 132.8 181.4 L 121.1 178.2 L 110.5 174.3 L 102.48310708999634 170.542081451416 L 90.1 175.0 L 76.8 178.7 L 62.6 181.8 L 47.6 184.3 L 31.8 186.0 L 15.0 186.8 L 14.9 185.1 L 31.2 182.2 L 46.7 179.0 L 61.2 175.4 L 74.7 171.4 L 87.3 166.9 L 92.48297872543336 164.71063833236695 L 92.3 164.6 L 84.9 158.8 L 78.7 152.4 L 75.2180396080017 147.249600315094 L 73.8 148.3 L 68.0 152.0 L 61.7 155.5 L 55.1 158.8 L 48.0 161.8 L 40.5 164.5 L 32.6 166.8 L 24.2 168.8 L 23.7 167.1 L 31.3 163.3 L 38.4 159.6 L 45.2 155.8 L 51.5 152.1 L 57.4 148.3 L 62.7 144.3 L 67.7 140.3 L 72.2 136.2 L 76.2 132.0 L 79.16144800186157 128.5449773788452 L 79.1 128.5 L 80.1 127.3 L 88.8 135.6 L 89.8 139.1 L 85.90814332962036 138.42899026870728 L 84.30222225189209 140.0 L 133.03235292434692 140.0 L 135.9 137.5 L 136.37444086074828 138.0212992668152 L 140.0 135.0 L 151.0 144.0 L 146.0 147.0 L 139.93454542160035 149.52727270126343 L 134.9 153.4 L 125.0 159.8 L 114.2 165.5 L 114.00546236038208 165.5838523864746 L 123.9 168.3 L 135.1 170.6 L 147.2 172.4 L 160.3 173.6 L 174.3 174.4 L 185.5 175.0 L 173.6 187.5 L 159.0 186.1 Z M 79.55714282989501 144.0 L 79.2 144.3 L 77.20844593048096 145.77522525787353 L 81.6 149.4 L 88.4 154.1 L 96.0 158.4 L 101.29076957702637 160.79344339370726 L 109.6 156.6 L 119.3 150.7 L 128.1 144.3 L 128.44411764144897 144.0 Z M 16.4 127.9 L 20.9 127.8 L 24.5 127.65 L 24.5 94.0 L 35.5 96.0 L 38.2 98.0 L 35.5 99.72340421676635 L 35.5 126.94528303146362 L 36.1 126.9 L 41.8 126.5 L 43.5 126.35833330154419 L 43.5 81.0 L 54.5 83.0 L 55.0 83.370370388031 L 55.0 29.0 L 67.0 35.0 L 87.9333333015442 35.0 L 88.8 33.7 L 90.8 30.9 L 92.8 27.9 L 93.7 26.4 L 94.7 24.9 L 95.2625 24.0 L 15.0 24.0 L 15.0 20.0 L 166.8181818008423 20.0 L 175.0 11.0 L 185.0 20.0 L 185.0 24.0 L 99.0 24.0 L 105.2 30.2 L 101.6 32.4 L 99.8 33.3 L 97.9 34.2 L 96.1 35.0 L 133.0 35.0 L 139.0 30.0 L 150.0 39.0 L 145.0 43.0 L 145.0 79.0 L 133.0 85.0 L 133.0 79.0 L 115.0 79.0 L 115.0 121.5 L 105.0 126.5 L 105.0 79.0 L 93.5 79.0 L 93.5 122.2 L 82.5 127.7 L 82.5 79.0 L 67.0 79.0 L 67.0 86.0 L 55.0 92.0 L 55.0 86.40425529479981 L 54.5 86.72340421676635 L 54.5 102.0 L 58.7777777671814 102.0 L 65.0 95.0 L 73.0 102.0 L 73.0 106.0 L 54.5 106.0 L 54.5 125.46307687759399 L 60.6 124.9 L 67.5 124.4 L 74.8 124.1 L 75.1 125.8 L 68.2 128.2 L 61.6 130.2 L 55.2 131.9 L 49.0 133.5 L 43.1 134.9 L 37.4 136.1 L 32.1 137.2 L 26.9 138.2 L 22.1 139.1 L 21.629603576660156 139.17158203125 L 19.7 142.7 L 17.5 139.8 L 14.4 128.1 Z M 181.0 122.5 L 183.0 122.5 L 181.0 127.5 L 183.1 128.9 L 184.5 131.0 L 183.1 133.1 L 181.0 134.5 L 139.6 134.5 L 137.4 134.3 L 135.2 133.8 L 133.2 132.9 L 131.3 131.6 L 129.6 130.0 L 128.3 128.0 L 127.4 125.8 L 126.8 123.4 L 126.5 121.0 L 126.5 83.5 L 137.5 89.0 L 162.0 89.0 L 168.0 84.0 L 179.0 93.0 L 174.0 97.0 L 174.0 111.0 L 162.0 117.0 L 162.0 111.0 L 137.5 111.0 L 137.5 121.0 L 137.3 122.3 L 137.3 123.3 L 137.4 124.1 L 137.6 125.3 L 137.9 125.8 L 138.5 126.3 L 139.3 126.8 L 140.5 127.2 L 142.0 127.5 L 177.5 127.5 Z M 137.5 93.0 L 137.5 107.0 L 162.0 107.0 L 162.0 93.0 Z M 67.0 66.0 L 67.0 75.0 L 133.0 75.0 L 133.0 66.0 Z M 67.0 52.0 L 67.0 62.0 L 133.0 62.0 L 133.0 52.0 Z M 67.0 39.0 L 67.0 48.0 L 133.0 48.0 L 133.0 39.0 Z " />
</g>
</svg>
