<svg xmlns="http://www.w3.org/2000/svg" xmlns:xlink="http://www.w3.org/1999/xlink" version="1.1" baseProfile="full" viewBox="0 0 200 200" width="200" height="200">
<g fill="black">
<path d="M 57.5 105.5 L 55.7 102.6 L 53.7 99.7 L 51.4 96.8 L 48.9 94.0 L 46.1 91.1 L 43.1 88.1 L 39.9 85.1 L 39.375850677490234 84.67776861190796 L 35.1 92.1 L 29.4 101.0 L 23.2 109.5 L 16.5 117.5 L 15.1 116.4 L 20.0 107.4 L 24.8 98.3 L 29.3 89.0 L 33.6 79.6 L 37.5 70.0 L 41.1 60.2 L 44.3 50.1 L 47.3 39.9 L 49.8 29.4 L 52.1 18.6 L 52.11363639831543 18.603030300140382 L 52.5 16.8 L 63.8 21.2 L 66.3 23.8 L 62.79536275863647 25.010692882537843 L 60.9 32.2 L 57.5 43.0 L 54.298076915740964 52.0 L 89.0 52.0 L 95.0 47.0 L 106.0 56.0 L 101.0 59.0 L 100.00037212371826 59.416511631011964 L 97.1 74.3 L 92.3 92.4 L 86.3 109.3 L 79.3 124.8 L 71.3 138.9 L 62.1 151.6 L 51.9 163.0 L 40.7 172.8 L 28.4 181.1 L 15.1 187.7 L 14.3 186.2 L 26.3 177.9 L 37.2 168.7 L 47.1 158.4 L 56.1 147.1 L 64.0 134.5 L 71.0 120.7 L 76.9 105.7 L 81.9 89.5 L 86.0 71.9 L 88.53723402023316 56.0 L 52.770297050476074 56.0 L 49.8 63.5 L 45.3 73.4 L 40.765009021759035 82.19232940673828 L 41.5 82.5 L 45.7 84.3 L 49.7 86.3 L 53.4 88.6 L 56.8 91.0 L 60.1 93.6 L 63.1 96.3 L 65.9 99.2 L 68.5 102.2 L 70.9 105.4 L 71.3 110.0 L 68.5 113.6 L 64.0 114.0 L 60.4 111.3 L 59.1 108.4 Z M 149.4 154.2 L 161.4 154.2 L 162.6 154.1 L 163.5 154.0 L 164.1 153.8 L 164.4 153.6 L 164.6 153.4 L 164.8 153.3 L 165.0 152.9 L 165.1 152.3 L 165.3 151.4 L 165.4 150.2 L 165.4 40.9 L 126.2 40.9 L 126.2 183.4 L 114.2 189.4 L 114.2 30.9 L 126.2 36.9 L 165.4 36.9 L 171.4 31.9 L 182.4 40.9 L 177.4 44.9 L 177.4 150.2 L 177.2 152.7 L 176.8 155.2 L 176.0 157.6 L 174.8 159.9 L 173.1 161.9 L 171.1 163.6 L 168.8 164.8 L 166.4 165.6 L 163.9 166.0 L 161.4 166.2 L 161.4 160.2 L 149.4 157.2 Z " />
</g>
</svg>
