<svg xmlns="http://www.w3.org/2000/svg" xmlns:xlink="http://www.w3.org/1999/xlink" version="1.1" baseProfile="full" viewBox="0 0 200 200" width="200" height="200">
<g fill="black">
<path d="M 145.3 182.7 L 132.6 179.7 L 120.9 175.9 L 110.3 171.4 L 103.01206064224243 167.49306344985962 L 102.8 167.6 L 90.3 172.8 L 76.9 177.3 L 62.7 181.0 L 47.7 183.9 L 31.8 186.0 L 15.0 187.2 L 14.9 185.4 L 31.2 182.3 L 46.6 178.7 L 61.1 174.6 L 74.6 170.1 L 87.1 165.0 L 93.99212083816528 161.61335439682006 L 92.1 160.3 L 84.7 153.6 L 78.5 146.2 L 75.17953186035156 140.47749099731445 L 74.1 141.4 L 68.2 145.8 L 62.0 149.9 L 55.3 153.7 L 48.2 157.2 L 40.7 160.4 L 32.7 163.2 L 24.3 165.5 L 23.6 163.8 L 31.2 159.7 L 38.3 155.6 L 45.0 151.5 L 51.3 147.3 L 57.1 142.9 L 62.5 138.5 L 67.4 133.9 L 71.9 129.1 L 75.9 124.3 L 78.92453355789185 120.01524410247802 L 78.9 120.0 L 79.2473684310913 119.55789470672607 L 79.5 119.2 L 79.51804647445678 119.21339530944825 L 80.0 118.6 L 89.2 126.4 L 90.4 129.8 L 86.59104480743409 129.40597019195556 L 84.6 131.7 L 83.1 133.2 L 133.42784814834596 133.2 L 135.6 131.0 L 136.08488750457764 131.4625937461853 L 140.0 128.2 L 151.0 137.2 L 146.0 140.2 L 140.97996215820314 142.29168243408202 L 135.2 147.5 L 125.3 155.0 L 114.5 161.7 L 112.93953971862793 162.48689880371094 L 113.9 162.9 L 124.1 166.2 L 135.2 169.0 L 147.3 171.1 L 160.4 172.6 L 174.4 173.5 L 185.4 174.2 L 173.5 186.7 L 158.9 185.1 Z M 79.01489362716674 137.2 L 77.08068904876708 138.8528657913208 L 81.7 143.4 L 88.6 149.2 L 96.2 154.3 L 101.90606899261475 157.42475204467775 L 109.3 153.1 L 119.0 146.3 L 127.8 138.9 L 129.4784810066223 137.2 Z M 93.0 101.5 L 94.1 104.9 L 90.14545450210571 104.35454549789429 L 88.9 105.6 L 84.2 109.3 L 78.8 112.9 L 72.8 116.1 L 66.2 119.2 L 58.9 122.0 L 51.0 124.7 L 42.4 127.0 L 33.1 129.1 L 23.2 130.8 L 22.7 129.1 L 32.1 125.5 L 40.7 122.0 L 48.7 118.5 L 55.9 115.1 L 62.4 111.6 L 68.2 108.1 L 73.2 104.5 L 77.4 101.0 L 80.9 97.5 L 83.6 94.0 L 83.64592084884643 94.03663902282715 L 84.1 93.5 Z M 116.6 122.6 L 114.4 122.4 L 112.2 122.0 L 110.1 121.1 L 108.1 119.8 L 106.4 118.1 L 105.0 116.1 L 104.0 113.9 L 103.3 111.5 L 103.0 109.0 L 103.0 93.0 L 83.0 93.0 L 71.0 99.0 L 71.0 31.0 L 83.0 37.0 L 91.96000003814697 37.0 L 92.2 35.8 L 92.5 34.2 L 92.8 32.7 L 93.2 31.0 L 93.7 29.4 L 94.1 27.6 L 94.26666669845581 27.0 L 15.0 27.0 L 15.0 23.0 L 166.8181818008423 23.0 L 175.0 14.0 L 185.0 23.0 L 185.0 27.0 L 107.03793106079101 27.0 L 106.2 27.9 L 103.4 30.9 L 101.9 32.3 L 100.6 33.7 L 99.2 34.9 L 97.8 36.0 L 96.2444444656372 37.0 L 117.5 37.0 L 123.0 32.0 L 133.5 41.0 L 128.5 44.5 L 128.5 97.0 L 117.5 102.5 L 117.5 93.0 L 115.0 93.0 L 115.0 109.0 L 114.8 110.2 L 114.7 111.2 L 114.7 112.6 L 114.8 113.1 L 115.0 113.6 L 115.5 114.1 L 116.3 114.7 L 117.5 115.1 L 119.0 115.5 L 163.5 115.5 L 167.0 110.5 L 169.0 110.5 L 167.0 115.5 L 169.1 116.9 L 170.5 119.0 L 169.1 121.1 L 167.0 122.5 L 119.0 122.5 Z M 15.6 99.6 L 19.8 99.2 L 23.5 98.87111110687256 L 23.5 51.0 L 33.5 53.0 L 36.0 55.0 L 33.5 56.66666669845581 L 33.5 97.67058820724488 L 34.1 97.6 L 39.3 96.9 L 41.3 96.61428575515747 L 41.3 31.1 L 51.3 33.1 L 53.8 35.1 L 51.3 36.76666669845581 L 51.3 61.4 L 57.3 61.4 L 61.8 55.4 L 67.8 61.4 L 67.8 65.4 L 51.3 65.4 L 51.3 95.22622947692871 L 56.9 94.4 L 63.3 93.6 L 70.1 93.0 L 70.5 94.7 L 64.2 97.3 L 58.2 99.6 L 52.3 101.7 L 46.6 103.5 L 41.2 105.2 L 36.0 106.7 L 31.0 108.1 L 26.2 109.3 L 21.7 110.5 L 21.544444465637206 110.53703699111938 L 19.9 114.1 L 17.5 111.5 L 13.7 99.9 Z M 150.5 103.9 L 148.1 103.5 L 145.8 102.8 L 143.7 101.7 L 141.7 100.2 L 140.1 98.3 L 138.9 96.2 L 138.1 93.9 L 137.6 91.5 L 137.5 89.0 L 137.5 36.5 L 148.5 42.0 L 165.0 42.0 L 171.0 37.0 L 182.0 46.0 L 177.0 50.0 L 177.0 75.0 L 165.0 81.0 L 165.0 71.0 L 148.5 71.0 L 148.5 90.2 L 148.6 91.2 L 148.8 91.9 L 149.0 92.4 L 149.4 93.0 L 149.9 93.3 L 150.6 93.6 L 151.6 93.8 L 153.0 94.0 L 176.0 94.0 L 181.0 77.0 L 183.0 77.0 L 181.0 94.0 L 184.0 96.0 L 186.0 99.0 L 184.0 102.0 L 181.0 104.0 L 153.0 104.0 Z M 83.0 76.0 L 83.0 89.0 L 117.5 89.0 L 117.5 76.0 Z M 83.0 58.0 L 83.0 72.0 L 117.5 72.0 L 117.5 58.0 Z M 148.5 46.0 L 148.5 67.0 L 165.0 67.0 L 165.0 46.0 Z M 83.0 41.0 L 83.0 54.0 L 117.5 54.0 L 117.5 41.0 Z " />
</g>
</svg>
