<svg xmlns="http://www.w3.org/2000/svg" xmlns:xlink="http://www.w3.org/1999/xlink" version="1.1" baseProfile="full" viewBox="0 0 200 200" width="200" height="200">
<g fill="black">
<path d="M 148.3 183.6 L 135.7 180.8 L 124.1 177.3 L 113.4 173.3 L 105.63490562438965 169.41745281219482 L 103.3 170.5 L 91.4 174.9 L 78.9 178.7 L 65.5 181.8 L 51.5 184.3 L 36.6 185.9 L 21.0 186.8 L 20.9 185.1 L 36.1 182.2 L 50.4 179.0 L 64.0 175.4 L 76.6 171.4 L 88.5 167.0 L 95.92900171279908 163.5922010421753 L 95.3 163.2 L 87.8 157.2 L 81.6 150.6 L 77.26027393341064 144.0 L 25.0 144.0 L 25.0 140.0 L 37.0 140.0 L 37.0 87.0 L 49.0 89.0 L 52.0 91.0 L 49.0 92.8 L 49.0 140.0 L 164.8181818008423 140.0 L 173.0 131.0 L 183.0 140.0 L 183.0 144.0 L 146.0 144.0 L 143.0 146.4 L 134.2 153.4 L 124.7 159.7 L 116.29136562347412 164.30857849121094 L 116.8 164.5 L 127.0 167.5 L 138.1 170.0 L 150.3 172.0 L 163.3 173.4 L 177.4 174.4 L 188.4 175.1 L 176.5 187.5 L 161.9 185.9 Z M 80.4 144.0 L 84.6 147.6 L 91.5 152.6 L 99.1 157.1 L 104.19090909957886 159.46363639831543 L 109.6 156.6 L 118.8 150.7 L 127.3 144.4 L 127.73333330154419 144.0 Z M 76.0 114.0 L 76.0 125.0 L 145.0 125.0 L 145.0 114.0 Z M 76.0 100.0 L 76.0 110.0 L 145.0 110.0 L 145.0 100.0 Z M 76.0 86.0 L 76.0 96.0 L 145.0 96.0 L 145.0 86.0 Z M 115.6 71.6 L 113.4 71.4 L 111.2 71.0 L 109.1 70.1 L 107.1 68.8 L 105.4 67.1 L 104.0 65.1 L 103.0 62.9 L 102.3 60.5 L 102.0 58.0 L 102.0 48.0 L 87.54186048507691 48.0 L 86.8 50.9 L 85.2 54.8 L 83.0 58.4 L 80.4 61.5 L 77.3 64.1 L 73.9 66.1 L 70.1 67.7 L 66.1 68.8 L 61.7 69.4 L 57.1 69.8 L 56.8 68.1 L 61.0 66.6 L 64.5 64.7 L 67.6 62.7 L 70.1 60.6 L 72.1 58.3 L 73.6 56.0 L 74.7 53.6 L 75.4 51.1 L 75.9 48.3 L 75.9 48.0 L 49.0 48.0 L 49.0 76.0 L 37.0 82.0 L 37.0 49.2 L 29.5 53.4 L 21.3 57.6 L 12.4 61.7 L 11.5 60.2 L 19.3 54.4 L 26.6 48.9 L 33.3 43.7 L 39.6 38.8 L 45.2 34.0 L 50.3 29.5 L 54.8 25.1 L 58.6 20.9 L 61.9 16.9 L 64.0111231803894 14.006979274749757 L 64.0 14.0 L 65.0 12.5 L 74.2 20.4 L 75.4 23.8 L 71.43446102142335 23.38977184295654 L 70.5 24.4 L 67.76999998092651 27.0 L 122.68999996185303 27.0 L 123.5 26.1 L 125.2 24.3 L 125.6180064201355 24.81832799911499 L 129.0 22.0 L 140.0 31.0 L 135.0 34.0 L 123.0 39.0 L 123.0 38.892307662963866 L 122.8 39.0 L 117.4 41.6 L 114.5 42.9 L 111.75 44.0 L 156.0 44.0 L 162.0 39.0 L 173.0 48.0 L 168.0 52.0 L 168.0 76.0 L 156.68965520858765 81.65517244338989 L 162.0 86.0 L 157.0 90.0 L 157.0 129.0 L 145.0 135.0 L 145.0 129.0 L 76.0 129.0 L 64.0 135.0 L 64.0 76.0 L 76.0 82.0 L 145.0 82.0 L 151.0 77.0 L 156.0 81.09090909957885 L 156.0 48.0 L 114.0 48.0 L 114.0 58.0 L 113.8 59.2 L 113.7 60.2 L 113.7 61.6 L 113.8 62.1 L 114.0 62.6 L 114.5 63.1 L 115.3 63.7 L 116.5 64.1 L 118.0 64.5 L 139.5 64.5 L 143.0 59.5 L 145.0 59.5 L 143.0 64.5 L 145.1 65.9 L 146.5 68.0 L 145.1 70.1 L 143.0 71.5 L 118.0 71.5 Z M 107.0 43.1 L 109.2 40.7 L 115.8 34.1 L 117.8 32.0 L 118.8 31.0 L 63.256097602844235 31.0 L 61.5 32.5 L 56.2 36.6 L 50.4 40.8 L 45.52380952835083 44.0 L 105.92857141494751 44.0 Z " />
</g>
</svg>
