<svg xmlns="http://www.w3.org/2000/svg" xmlns:xlink="http://www.w3.org/1999/xlink" version="1.1" baseProfile="full" viewBox="0 0 200 200" width="200" height="200">
<g fill="black">
<path d="M 20.0 178.0 L 94.0 178.0 L 94.0 152.0 L 46.0 152.0 L 46.0 148.0 L 94.0 148.0 L 94.0 123.0 L 106.0 125.0 L 109.0 127.0 L 106.0 128.8 L 106.0 148.0 L 132.0 148.0 L 142.0 138.0 L 154.0 148.0 L 154.0 152.0 L 106.0 152.0 L 106.0 178.0 L 158.0 178.0 L 168.0 168.0 L 180.0 178.0 L 180.0 182.0 L 20.0 182.0 Z M 24.0 118.0 L 94.0 118.0 L 94.0 94.0 L 56.0 94.0 L 56.0 90.0 L 94.0 90.0 L 94.0 64.0 L 106.0 66.0 L 109.0 68.0 L 106.0 69.8 L 106.0 90.0 L 122.0 90.0 L 132.0 80.0 L 144.0 90.0 L 144.0 94.0 L 106.0 94.0 L 106.0 118.0 L 154.0 118.0 L 164.0 108.0 L 176.0 118.0 L 176.0 122.0 L 24.0 122.0 Z M 161.3 99.8 L 153.9 94.4 L 146.9 88.7 L 140.1 82.7 L 133.7 76.4 L 127.6 69.8 L 121.9 62.9 L 116.6 55.6 L 112.32727270126342 48.6 L 91.05631065368652 48.6 L 89.1 51.7 L 81.6 61.5 L 73.0 70.9 L 63.4 79.9 L 52.7 88.4 L 41.0 96.5 L 28.2 104.0 L 14.4 111.0 L 13.5 109.4 L 26.2 100.8 L 37.9 92.1 L 48.6 83.3 L 58.2 74.3 L 66.8 65.1 L 74.3 55.8 L 79.1 48.6 L 18.0 48.6 L 18.0 44.6 L 81.58163261413574 44.6 L 86.1 36.4 L 90.5 26.3 L 93.9 16.1 L 93.9070336341858 16.102140712738038 L 94.4 14.5 L 105.4 19.6 L 107.7 22.4 L 103.9222903251648 23.327858543395998 L 101.0 30.7 L 95.6 41.4 L 93.58058252334595 44.6 L 160.0 44.6 L 170.0 34.6 L 182.0 44.6 L 182.0 48.6 L 115.21803274154664 48.6 L 119.8 52.9 L 126.2 58.9 L 132.7 64.7 L 139.3 70.3 L 146.1 75.5 L 153.1 80.6 L 160.3 85.3 L 167.6 89.8 L 175.2 94.0 L 183.0 98.0 L 188.1 100.7 L 176.9 109.7 L 168.9 104.9 Z " />
</g>
</svg>
