<svg xmlns="http://www.w3.org/2000/svg" xmlns:xlink="http://www.w3.org/1999/xlink" version="1.1" baseProfile="full" viewBox="0 0 200 200" width="200" height="200">
<g fill="black">
<path d="M 154.5 183.4 L 145.2 180.0 L 136.7 175.8 L 128.8 171.0 L 121.8 165.5 L 115.6 159.3 L 110.3 152.5 L 105.9 145.0 L 102.6 136.9 L 103.0 136.7 L 97.21415929794311 136.7 L 91.6 147.1 L 84.1 157.0 L 75.2 165.7 L 65.1 173.0 L 53.6 178.9 L 41.0 183.5 L 27.1 186.6 L 12.1 188.4 L 11.8 186.6 L 26.3 182.9 L 39.2 178.4 L 50.8 173.0 L 60.9 166.7 L 69.6 159.4 L 77.0 151.1 L 83.0 141.9 L 85.47378644943237 136.7 L 12.0 136.7 L 12.0 132.7 L 87.3766990661621 132.7 L 87.9 131.6 L 91.5 120.3 L 93.70788640975952 108.80059146881104 L 93.7 108.8 L 94.2 105.9 L 105.7 109.7 L 108.4 112.2 L 104.75651006698608 113.61691274642945 L 102.4 123.4 L 98.875 132.7 L 165.0 132.7 L 175.0 122.7 L 187.0 132.7 L 187.0 136.7 L 104.66567163467407 136.7 L 109.4 142.8 L 114.8 148.8 L 120.7 154.2 L 127.0 158.9 L 133.8 163.1 L 141.2 166.7 L 149.1 169.7 L 157.7 172.1 L 166.9 173.9 L 176.8 175.2 L 187.0 176.5 L 175.1 188.3 L 164.5 186.2 Z M 16.9 98.9 L 23.4 97.9 L 30.5 96.8 L 37.9 95.6 L 45.8 94.1 L 53.0 92.72857141494751 L 53.0 67.0 L 25.0 67.0 L 25.0 63.0 L 53.0 63.0 L 53.0 40.0 L 19.0 40.0 L 19.0 36.0 L 53.0 36.0 L 53.0 13.0 L 65.0 15.0 L 68.0 17.0 L 65.0 18.8 L 65.0 36.0 L 81.0 36.0 L 91.0 26.0 L 103.0 36.0 L 103.0 40.0 L 65.0 40.0 L 65.0 63.0 L 75.0 63.0 L 85.0 53.0 L 97.0 63.0 L 97.0 67.0 L 65.0 67.0 L 65.0 90.38695650100708 L 72.2 88.9 L 81.9 87.0 L 92.1 85.0 L 102.7 83.1 L 103.2 84.8 L 93.1 88.7 L 83.3 92.2 L 73.9 95.3 L 64.8 98.2 L 56.2 100.8 L 48.0 103.2 L 40.1 105.4 L 32.7 107.3 L 25.7 109.1 L 23.043304347991942 109.73443479537964 L 21.5 113.3 L 19.0 110.7 L 14.9 99.2 Z M 167.7 95.9 L 166.3 98.0 L 164.6 99.8 L 162.7 101.4 L 160.6 102.7 L 158.4 103.7 L 156.0 104.4 L 153.5 104.8 L 151.0 105.0 L 151.0 99.0 L 131.0 96.0 L 131.0 93.0 L 151.0 93.0 L 152.3 92.9 L 153.4 92.7 L 154.3 92.4 L 155.0 92.1 L 155.7 91.7 L 156.3 91.2 L 156.8 90.6 L 157.3 89.8 L 157.8 88.8 L 158.3 87.6 L 159.6 83.4 L 160.7 78.8 L 161.8 73.8 L 162.7 68.5 L 163.5 62.8 L 164.2 56.7 L 164.8 50.3 L 165.3 43.5 L 165.7 36.3 L 165.91199998855592 31.0 L 139.7317756652832 31.0 L 138.9 39.9 L 137.1 50.0 L 134.6 59.4 L 131.4 68.3 L 127.5 76.5 L 122.9 84.1 L 117.6 90.9 L 111.6 97.0 L 104.8 102.3 L 97.5 106.7 L 96.4 105.2 L 102.4 99.4 L 107.7 93.3 L 112.4 86.9 L 116.4 80.1 L 119.9 72.9 L 122.7 65.1 L 124.9 56.8 L 126.6 48.0 L 127.6 38.7 L 127.83814430236816 31.0 L 107.0 31.0 L 107.0 27.0 L 166.0 27.0 L 172.0 22.0 L 183.0 31.0 L 178.0 34.0 L 177.77024068832398 34.095733070373534 L 177.7 36.8 L 177.3 44.2 L 176.8 51.3 L 176.2 58.0 L 175.4 64.4 L 174.5 70.4 L 173.5 76.1 L 172.4 81.5 L 171.1 86.5 L 169.7 91.3 L 168.8 93.7 Z " />
</g>
</svg>
