<svg xmlns="http://www.w3.org/2000/svg" xmlns:xlink="http://www.w3.org/1999/xlink" version="1.1" baseProfile="full" viewBox="0 0 200 200" width="200" height="200">
<g fill="black">
<path d="M 154.5 183.6 L 145.2 180.1 L 136.7 176.0 L 128.8 171.1 L 121.8 165.6 L 115.6 159.5 L 110.3 152.7 L 105.9 145.3 L 102.6 137.3 L 103.13333330154418 137.0 L 97.15535717010498 137.0 L 91.6 147.2 L 84.1 157.2 L 75.2 165.9 L 65.1 173.2 L 53.6 179.2 L 41.0 183.8 L 27.1 187.0 L 12.1 188.8 L 11.8 187.1 L 26.3 183.3 L 39.2 178.7 L 50.7 173.3 L 60.9 166.9 L 69.6 159.5 L 76.9 151.3 L 83.0 142.0 L 85.40196075439454 137.0 L 12.0 137.0 L 12.0 133.0 L 87.3235294342041 133.0 L 87.9 131.8 L 91.5 120.4 L 93.70635929107667 109.00047693252563 L 93.7 109.0 L 94.2 106.0 L 105.7 109.9 L 108.4 112.3 L 104.75757026672363 113.78395280838012 L 102.4 123.5 L 98.82799997329712 133.0 L 165.0 133.0 L 175.0 123.0 L 187.0 133.0 L 187.0 137.0 L 104.67272729873658 137.0 L 109.4 143.0 L 114.8 149.0 L 120.7 154.3 L 127.0 159.1 L 133.8 163.2 L 141.2 166.8 L 149.1 169.8 L 157.7 172.2 L 166.9 174.1 L 176.8 175.4 L 187.0 176.7 L 175.1 188.5 L 164.4 186.4 Z M 144.4 122.9 L 142.6 121.0 L 140.6 119.3 L 138.4 117.6 L 135.9 116.1 L 133.3 114.6 L 130.4 113.2 L 127.3 111.8 L 123.9 110.9 L 124.0 109.2 L 127.7 109.2 L 131.3 109.1 L 134.8 109.4 L 138.2 109.9 L 141.5 110.7 L 144.7 111.8 L 147.8 113.1 L 150.8 114.7 L 153.6 116.6 L 156.3 118.7 L 157.9 123.0 L 156.0 127.2 L 151.7 128.7 L 147.5 126.8 L 146.1 124.8 Z M 16.9 98.9 L 23.4 97.9 L 30.5 96.8 L 37.9 95.6 L 45.8 94.1 L 53.0 92.72857141494751 L 53.0 67.0 L 25.0 67.0 L 25.0 63.0 L 53.0 63.0 L 53.0 40.0 L 19.0 40.0 L 19.0 36.0 L 53.0 36.0 L 53.0 13.0 L 65.0 15.0 L 68.0 17.0 L 65.0 18.8 L 65.0 36.0 L 81.0 36.0 L 91.0 26.0 L 103.0 36.0 L 103.0 40.0 L 65.0 40.0 L 65.0 63.0 L 75.0 63.0 L 85.0 53.0 L 97.0 63.0 L 97.0 67.0 L 65.0 67.0 L 65.0 90.38695650100708 L 72.2 88.9 L 81.9 87.0 L 92.1 85.0 L 102.7 83.1 L 103.2 84.8 L 93.1 88.7 L 83.3 92.2 L 73.9 95.3 L 64.8 98.2 L 56.2 100.8 L 48.0 103.2 L 40.1 105.4 L 32.7 107.3 L 25.7 109.1 L 23.043304347991942 109.73443479537964 L 21.5 113.3 L 19.0 110.7 L 14.9 99.2 Z M 167.7 95.9 L 166.3 98.0 L 164.6 99.8 L 162.7 101.4 L 160.6 102.7 L 158.4 103.7 L 156.0 104.4 L 153.5 104.8 L 151.0 105.0 L 151.0 99.0 L 131.0 96.0 L 131.0 93.0 L 151.0 93.0 L 152.3 92.9 L 153.4 92.7 L 154.3 92.4 L 155.0 92.1 L 155.7 91.7 L 156.3 91.2 L 156.8 90.6 L 157.3 89.8 L 157.8 88.8 L 158.3 87.6 L 159.6 83.4 L 160.7 78.8 L 161.8 73.8 L 162.7 68.5 L 163.5 62.8 L 164.2 56.7 L 164.8 50.3 L 165.3 43.5 L 165.7 36.3 L 165.91199998855592 31.0 L 148.7317756652832 31.0 L 147.9 39.9 L 146.1 50.0 L 143.6 59.4 L 140.4 68.3 L 136.5 76.5 L 131.9 84.1 L 126.6 90.9 L 120.6 97.0 L 113.8 102.3 L 106.5 106.7 L 105.4 105.2 L 111.4 99.4 L 116.7 93.3 L 121.4 86.9 L 125.4 80.1 L 128.9 72.9 L 131.7 65.1 L 133.9 56.8 L 135.6 48.0 L 136.6 38.7 L 136.83814430236816 31.0 L 107.0 31.0 L 107.0 27.0 L 166.0 27.0 L 172.0 22.0 L 183.0 31.0 L 178.0 34.0 L 177.77024068832398 34.095733070373534 L 177.7 36.8 L 177.3 44.2 L 176.8 51.3 L 176.2 58.0 L 175.4 64.4 L 174.5 70.4 L 173.5 76.1 L 172.4 81.5 L 171.1 86.5 L 169.7 91.3 L 168.8 93.7 Z M 109.2 72.3 L 106.9 68.4 L 108.0 63.9 L 109.4 62.6 L 110.8 61.2 L 112.0 59.7 L 113.1 58.2 L 114.2 56.5 L 115.1 54.7 L 115.9 52.7 L 116.6 50.7 L 117.2 48.4 L 117.2 46.1 L 119.0 45.8 L 119.5 48.2 L 120.4 50.6 L 120.9 53.1 L 121.2 55.7 L 121.2 58.2 L 121.0 60.8 L 120.5 63.4 L 119.8 66.0 L 118.8 68.6 L 117.6 71.2 L 113.6 73.4 Z " />
</g>
</svg>
