<svg xmlns="http://www.w3.org/2000/svg" xmlns:xlink="http://www.w3.org/1999/xlink" version="1.1" baseProfile="full" viewBox="0 0 200 200" width="200" height="200">
<g fill="black">
<path d="M 154.5 183.4 L 145.2 180.0 L 136.7 175.8 L 128.8 171.0 L 121.8 165.5 L 115.6 159.3 L 110.3 152.5 L 105.9 145.0 L 102.6 136.9 L 103.0 136.7 L 97.21415929794311 136.7 L 91.6 147.1 L 84.1 157.0 L 75.2 165.7 L 65.1 173.0 L 53.6 178.9 L 41.0 183.5 L 27.1 186.6 L 12.1 188.4 L 11.8 186.6 L 26.3 182.9 L 39.2 178.4 L 50.8 173.0 L 60.9 166.7 L 69.6 159.4 L 77.0 151.1 L 83.0 141.9 L 85.47378644943237 136.7 L 12.0 136.7 L 12.0 132.7 L 87.3766990661621 132.7 L 87.9 131.6 L 91.5 120.3 L 93.70788640975952 108.80059146881104 L 93.7 108.8 L 94.2 105.9 L 105.7 109.7 L 108.4 112.2 L 104.75651006698608 113.61691274642945 L 102.4 123.4 L 98.875 132.7 L 165.0 132.7 L 175.0 122.7 L 187.0 132.7 L 187.0 136.7 L 104.66567163467407 136.7 L 109.4 142.8 L 114.8 148.8 L 120.7 154.2 L 127.0 158.9 L 133.8 163.1 L 141.2 166.7 L 149.1 169.7 L 157.7 172.1 L 166.9 173.9 L 176.8 175.2 L 187.0 176.5 L 175.1 188.3 L 164.5 186.2 Z M 18.0 97.4 L 24.2 96.7 L 31.0 95.8 L 38.4 94.7 L 46.4 93.6 L 52.0 92.75348834991455 L 52.0 67.2 L 25.4 67.2 L 25.4 63.2 L 52.0 63.2 L 52.0 39.3 L 20.2 39.3 L 20.2 35.3 L 52.0 35.3 L 52.0 12.5 L 64.0 14.5 L 67.0 16.5 L 64.0 18.3 L 64.0 35.3 L 83.2 35.3 L 93.2 25.3 L 105.2 35.3 L 105.2 39.3 L 64.0 39.3 L 64.0 63.2 L 74.8 63.2 L 84.8 53.2 L 96.8 63.2 L 96.8 67.2 L 64.0 67.2 L 64.0 91.02826089859009 L 64.2 91.0 L 74.0 89.5 L 84.4 88.0 L 95.4 86.5 L 107.1 85.0 L 107.5 86.8 L 96.2 90.2 L 85.5 93.2 L 75.3 95.9 L 65.7 98.4 L 56.7 100.7 L 48.2 102.7 L 40.3 104.6 L 33.0 106.3 L 26.2 107.9 L 24.1029411315918 108.3735294342041 L 22.5 111.9 L 20.0 109.3 L 16.1 97.8 Z M 167.1 98.7 L 165.4 100.5 L 163.6 102.0 L 161.6 103.4 L 159.4 104.5 L 157.1 105.4 L 154.7 106.0 L 152.3 106.3 L 149.8 106.4 L 149.8 100.4 L 129.8 97.4 L 129.8 94.4 L 151.2 94.4 L 152.4 94.2 L 153.6 93.9 L 154.6 93.5 L 155.5 93.1 L 156.3 92.5 L 157.1 91.8 L 157.9 91.0 L 158.7 90.0 L 159.4 88.8 L 160.6 86.3 L 161.7 83.2 L 162.8 79.6 L 163.7 75.4 L 164.5 70.7 L 165.2 65.5 L 165.7 59.7 L 166.1 53.4 L 166.3 46.6 L 166.37222223281861 41.4 L 136.63362827301026 41.4 L 134.2 52.4 L 131.1 62.9 L 127.2 72.5 L 122.6 81.2 L 117.4 88.9 L 111.4 95.5 L 104.6 101.0 L 97.3 105.3 L 96.3 103.8 L 102.2 98.1 L 107.4 91.9 L 112.0 85.1 L 116.0 77.6 L 119.4 69.3 L 122.2 60.2 L 124.4 50.3 L 125.8009259223938 41.4 L 106.3 41.4 L 106.3 37.4 L 126.27948713302612 37.4 L 127.1 27.8 L 127.5 15.3 L 127.53027248382568 15.30100908279419 L 127.6 13.0 L 139.5 15.7 L 142.5 17.8 L 139.20145292282103 19.610967063903807 L 138.5 28.8 L 137.24146337509154 37.4 L 166.4 37.4 L 172.4 32.4 L 183.4 41.4 L 178.4 44.4 L 178.33296089172364 44.42793292999268 L 178.3 46.9 L 178.1 54.0 L 177.7 60.6 L 177.1 66.7 L 176.4 72.5 L 175.5 77.7 L 174.4 82.6 L 173.1 87.0 L 171.6 91.0 L 169.9 94.6 L 168.6 96.7 Z " />
</g>
</svg>
