<svg xmlns="http://www.w3.org/2000/svg" xmlns:xlink="http://www.w3.org/1999/xlink" version="1.1" baseProfile="full" viewBox="0 0 200 200" width="200" height="200">
<g fill="black">
<path d="M 159.3 171.7 L 153.2 165.0 L 146.5 158.6 L 139.1 152.4 L 134.7267716407776 149.12007875442504 L 132.4 152.3 L 122.0 163.0 L 110.1 171.9 L 96.9 179.1 L 82.3 184.4 L 66.4 187.8 L 66.0 186.1 L 81.0 180.8 L 94.5 174.3 L 106.4 166.5 L 116.8 157.5 L 125.8 147.1 L 127.68988094329833 144.12658729553223 L 122.4 140.6 L 113.1 135.0 L 103.2 129.5 L 100.4276107788086 128.0741997718811 L 95.6 142.0 L 84.3 137.9 L 89.5 123.1 L 94.3 108.8 L 98.7 95.2 L 102.7 82.1 L 104.45679998397827 76.0 L 79.2 76.0 L 79.2 72.0 L 105.60880002975463 72.0 L 106.3 69.6 L 109.5 57.7 L 112.3 46.4 L 114.7 35.6 L 116.8 25.5 L 118.4 16.0 L 118.4326385498047 16.00521116256714 L 118.7 14.0 L 130.3 17.9 L 132.9 20.3 L 129.65429039001464 21.622326183319093 L 128.6 27.7 L 126.5 38.2 L 124.0 49.1 L 121.1 60.7 L 118.01818180084229 72.0 L 164.1 72.0 L 174.1 62.0 L 186.1 72.0 L 186.1 76.0 L 161.5754011154175 76.0 L 159.0 93.2 L 154.6 110.4 L 148.8 126.0 L 141.4 140.0 L 139.46944704055787 142.6384222984314 L 144.1 145.5 L 152.4 151.4 L 160.1 157.7 L 167.3 164.5 L 173.8 171.6 L 179.6 179.1 L 180.5 183.6 L 178.0 187.4 L 173.5 188.3 L 169.7 185.8 L 164.8 178.7 Z M 14.4 134.4 L 18.7 131.8 L 23.1 129.0 L 27.5 126.1 L 31.9 123.0 L 36.4 119.8 L 41.0 116.5 L 45.6 113.0 L 50.3 109.5 L 55.0 106.04693880081177 L 55.0 14.0 L 67.0 16.0 L 70.0 18.0 L 67.0 19.8 L 67.0 182.0 L 55.0 188.0 L 55.0 112.1692307472229 L 54.0 113.4 L 50.0 117.9 L 46.0 122.2 L 41.9 126.3 L 37.8 130.2 L 33.6 134.0 L 29.5 137.6 L 25.3 141.1 L 24.44537534713745 141.7670241355896 L 24.5 145.7 L 21.2 144.3 L 12.7 135.6 Z M 116.89291334152222 76.0 L 114.2 85.5 L 110.1 98.8 L 105.7 112.6 L 101.46465349197388 125.04673271179199 L 104.8 126.1 L 115.5 130.2 L 125.6 134.9 L 131.54638681411743 138.05901803970337 L 133.3 135.3 L 139.5 122.1 L 144.3 107.4 L 147.8 91.2 L 149.5674418449402 76.0 Z M 35.7 73.9 L 34.5 69.9 L 33.1 66.0 L 31.5 62.2 L 29.6 58.5 L 27.6 54.9 L 25.3 51.4 L 22.9 47.8 L 20.1 44.3 L 21.3 42.9 L 25.2 45.3 L 29.0 48.0 L 32.4 51.1 L 35.6 54.4 L 38.5 58.0 L 41.1 61.9 L 43.5 66.0 L 45.7 70.3 L 47.5 74.9 L 49.1 79.7 L 48.3 84.2 L 44.6 86.9 L 40.1 86.1 L 37.4 82.4 L 36.7 78.1 Z " />
</g>
</svg>
