<svg xmlns="http://www.w3.org/2000/svg" xmlns:xlink="http://www.w3.org/1999/xlink" version="1.1" baseProfile="full" viewBox="0 0 200 200" width="200" height="200">
<g fill="black">
<path d="M 13.5 112.0 L 13.5 108.0 L 58.2 108.0 L 58.2 74.0 L 34.1 74.0 L 34.1 86.0 L 22.1 92.0 L 22.1 23.0 L 34.1 25.0 L 37.1 27.0 L 34.1 28.8 L 34.1 70.0 L 58.2 70.0 L 58.2 12.0 L 70.2 14.0 L 73.2 16.0 L 70.2 17.8 L 70.2 182.0 L 58.2 188.0 L 58.2 112.0 L 39.0 112.0 L 39.0 126.0 L 38.5 133.7 L 37.5 141.2 L 36.1 148.4 L 34.2 155.2 L 31.9 161.8 L 29.1 168.0 L 25.9 173.8 L 22.2 179.2 L 17.9 184.1 L 13.2 188.5 L 11.8 187.4 L 14.9 181.9 L 17.6 176.4 L 20.0 170.8 L 22.1 165.1 L 23.8 159.1 L 25.2 153.0 L 26.2 146.6 L 26.8 140.0 L 27.1 133.1 L 27.0 126.0 L 27.0 112.0 Z M 160.7 171.8 L 154.5 165.1 L 147.6 158.6 L 140.1 152.4 L 135.54561042785645 149.06751985549926 L 133.1 152.4 L 122.5 163.0 L 110.5 171.9 L 97.0 179.1 L 82.1 184.4 L 65.9 187.8 L 65.6 186.1 L 80.9 180.8 L 94.6 174.3 L 106.8 166.5 L 117.4 157.4 L 126.5 147.0 L 128.3977777481079 144.09171714782715 L 123.1 140.6 L 113.6 135.0 L 103.5 129.5 L 100.5438081741333 128.0080901145935 L 95.6 142.0 L 84.3 137.9 L 89.6 123.1 L 94.5 108.8 L 98.9 95.1 L 103.0 82.0 L 104.79032258987426 76.0 L 79.0 76.0 L 79.0 72.0 L 105.98387098312378 72.0 L 106.7 69.6 L 110.0 57.6 L 112.8 46.3 L 115.3 35.6 L 117.4 25.5 L 118.92077379226684 17.001558017730712 L 118.9 17.0 L 119.4 14.0 L 130.9 17.9 L 133.6 20.3 L 130.2583514213562 21.63665943145752 L 129.2 27.8 L 127.0 38.2 L 124.5 49.2 L 121.6 60.7 L 118.42479343414307 72.0 L 165.9 72.0 L 175.9 62.0 L 187.9 72.0 L 187.9 76.0 L 162.76737966537476 76.0 L 160.1 93.2 L 155.7 110.4 L 149.7 126.0 L 142.2 140.0 L 140.29055557250976 142.60188035964967 L 145.0 145.5 L 153.5 151.4 L 161.3 157.7 L 168.6 164.4 L 175.2 171.6 L 181.2 179.1 L 182.1 183.6 L 179.6 187.4 L 175.2 188.3 L 171.3 185.9 L 166.3 178.7 Z M 117.2677165031433 76.0 L 114.5 85.5 L 110.4 98.8 L 105.8 112.6 L 101.59034690856933 124.97122535705566 L 105.0 126.0 L 115.9 130.2 L 126.3 134.8 L 132.36017694473267 138.01946907043458 L 134.2 135.2 L 140.5 122.0 L 145.4 107.3 L 149.0 91.1 L 150.76608190536498 76.0 Z " />
</g>
</svg>
