<svg xmlns="http://www.w3.org/2000/svg" xmlns:xlink="http://www.w3.org/1999/xlink" version="1.1" baseProfile="full" viewBox="0 0 200 200" width="200" height="200">
<g fill="black">
<path d="M 174.9 86.2 L 174.9 90.2 L 136.5 90.2 L 136.5 123.5 L 166.8 123.5 L 176.8 113.5 L 188.8 123.5 L 188.8 127.5 L 136.5 127.5 L 136.5 177.0 L 165.9 177.0 L 165.9 139.4 L 177.9 141.4 L 180.9 143.4 L 177.9 145.2 L 177.9 183.0 L 165.9 189.0 L 165.9 181.0 L 94.3 181.0 L 94.3 184.0 L 82.3 190.0 L 82.3 139.4 L 94.3 141.4 L 97.3 143.4 L 94.3 145.2 L 94.3 177.0 L 124.5 177.0 L 124.5 127.5 L 72.1 127.5 L 72.1 123.5 L 124.5 123.5 L 124.5 90.2 L 86.0 90.2 L 86.0 86.2 L 152.9 86.2 L 162.9 76.2 Z M 60.6 149.2 L 57.2 145.5 L 53.5 142.0 L 52.107248592376706 140.85098009109498 L 45.6 152.7 L 38.0 163.7 L 29.7 173.4 L 20.5 181.8 L 10.5 188.7 L 9.4 187.2 L 17.9 179.0 L 25.6 169.9 L 32.6 159.9 L 39.0 149.0 L 44.6 136.9 L 45.06858644485474 135.6472484588623 L 45.0 135.6 L 40.2 132.6 L 35.1 129.7 L 29.6 126.9 L 23.7 124.1 L 23.727777767181397 124.0 L 19.8 124.0 L 31.102452278137207 63.0 L 15.0 63.0 L 15.0 59.0 L 31.843596744537354 59.0 L 40.2 13.9 L 51.7 18.0 L 54.3 20.5 L 51.056692600250244 21.479111671447754 L 44.11886796951294 59.0 L 62.0 59.0 L 68.0 54.0 L 79.0 63.0 L 74.0 66.0 L 73.19351987838745 66.3360333442688 L 71.2 79.7 L 67.7 96.6 L 63.4 112.4 L 58.2 127.0 L 55.741837120056154 132.62461004257202 L 59.1 134.6 L 63.8 137.9 L 68.3 141.6 L 72.4 145.7 L 76.1 150.0 L 77.1 154.5 L 74.7 158.4 L 70.2 159.4 L 66.3 157.0 L 63.6 153.0 Z M 43.37924528121948 63.0 L 32.16906967163086 123.62645988464355 L 37.0 124.7 L 43.0 126.6 L 47.73761930465698 128.51167097091675 L 49.5 123.8 L 53.7 109.6 L 57.2 94.3 L 59.9 77.9 L 61.677840900421145 63.0 Z M 173.5 43.4 L 175.9 46.1 L 172.09854011535646 47.254014587402345 L 171.9 47.8 L 170.3 52.1 L 168.5 56.1 L 166.6 60.0 L 164.6 63.8 L 162.5 67.3 L 160.2 70.7 L 157.8 73.8 L 155.3 76.7 L 152.7 79.4 L 151.2 78.5 L 152.6 75.1 L 153.7 71.5 L 154.9 68.0 L 156.1 64.3 L 157.2 60.6 L 158.3 56.8 L 159.3 52.9 L 161.1 44.7 L 161.71049842834472 41.41857118606568 L 161.6 41.4 L 162.3 38.7 Z M 97.7 65.8 L 97.2 63.1 L 96.5 60.4 L 95.6 57.7 L 94.6 55.1 L 93.5 52.4 L 90.9 46.8 L 89.0 44.3 L 90.3 43.0 L 92.8 45.1 L 95.5 47.0 L 97.9 49.2 L 100.2 51.5 L 102.3 54.0 L 104.2 56.7 L 106.0 59.5 L 107.5 62.5 L 108.9 65.5 L 110.2 68.7 L 109.3 73.2 L 105.6 75.9 L 101.1 75.0 L 98.4 71.3 L 98.2 68.6 Z M 126.9 59.5 L 126.6 57.1 L 126.2 54.7 L 125.8 52.4 L 124.8 47.8 L 124.3 45.6 L 123.8 43.3 L 122.8 41.3 L 124.3 40.3 L 125.8 42.0 L 127.6 43.6 L 129.4 45.4 L 131.0 47.4 L 132.5 49.5 L 134.0 51.7 L 135.4 54.0 L 136.7 56.4 L 137.9 58.9 L 139.0 61.6 L 138.3 66.1 L 134.7 68.9 L 130.2 68.1 L 127.4 64.5 L 127.2 62.0 Z M 172.60672273635865 14.789915943145752 L 180.8 22.0 L 181.0 25.2 L 177.1494990348816 23.54132261276245 L 176.3 23.9 L 167.3 27.0 L 158.1 29.8 L 148.9 32.2 L 139.5 34.1 L 130.0 35.7 L 120.4 36.9 L 110.7 37.6 L 100.9 37.9 L 90.9 37.7 L 81.0 36.9 L 81.0 35.1 L 90.8 33.9 L 100.5 32.6 L 110.0 31.1 L 119.3 29.4 L 128.4 27.4 L 137.4 25.1 L 146.2 22.5 L 154.9 19.6 L 163.4 16.3 L 170.80705575942994 13.213726711273193 L 170.8 13.2 L 170.81285343170165 13.211311054229736 L 171.8 12.8 Z " />
</g>
</svg>
