<svg xmlns="http://www.w3.org/2000/svg" xmlns:xlink="http://www.w3.org/1999/xlink" version="1.1" baseProfile="full" viewBox="0 0 200 200" width="200" height="200">
<g fill="black">
<path d="M 66.0 151.3 L 62.1 146.8 L 57.9 142.5 L 56.39690294265747 141.09710941314697 L 56.3 141.3 L 48.9 153.4 L 40.6 164.1 L 31.3 173.2 L 21.1 180.8 L 10.0 186.7 L 9.2 185.2 L 18.9 177.8 L 27.6 169.4 L 35.5 159.9 L 42.6 149.3 L 48.7 137.6 L 49.65398759841919 135.24203071594238 L 48.5 134.3 L 43.3 130.4 L 37.7 126.6 L 31.9 122.9 L 28.69793176651001 120.98908834457397 L 27.5 125.2 L 24.1 136.7 L 12.6 133.2 L 16.0 121.8 L 19.2 110.4 L 22.4 98.9 L 25.4 87.3 L 28.2 75.6 L 30.9 63.8 L 31.293277263641357 62.0 L 9.6 62.0 L 9.6 58.0 L 32.16722688674927 58.0 L 33.5 51.9 L 35.9 40.0 L 38.2 28.0 L 40.21788377761841 16.9016393661499 L 40.2 16.9 L 40.7 14.0 L 52.2 18.0 L 54.8 20.4 L 51.5384916305542 21.668364334106446 L 50.0 30.2 L 47.7 42.3 L 45.2 54.4 L 44.41999998092651 58.0 L 66.6 58.0 L 72.6 53.0 L 83.6 62.0 L 78.6 65.0 L 77.9664945602417 65.26396055221558 L 76.1 79.3 L 72.6 96.8 L 68.1 113.0 L 62.7 127.9 L 60.353030586242674 132.81396713256837 L 64.0 135.4 L 69.1 139.6 L 74.0 144.1 L 78.5 149.0 L 82.7 154.1 L 83.6 158.5 L 81.1 162.4 L 76.7 163.3 L 72.8 160.9 L 69.6 156.0 Z M 88.9 179.4 L 129.5 179.4 L 129.5 134.8 L 83.4 134.8 L 83.4 130.8 L 129.5 130.8 L 129.5 97.97469882965088 L 124.7 98.9 L 116.2 100.3 L 107.4 101.4 L 98.3 102.2 L 89.0 102.6 L 88.7 100.8 L 97.7 98.4 L 106.4 96.1 L 114.9 93.8 L 123.0 91.5 L 130.8 89.1 L 138.4 86.6 L 145.6 84.0 L 152.5 81.4 L 159.1 78.6 L 164.5229702949524 76.14271659851075 L 164.5 76.1 L 164.5395860671997 76.13518762588501 L 165.5 75.7 L 166.387947845459 77.77817592620849 L 174.4 84.9 L 174.6 88.1 L 170.73648290634156 86.47007875442505 L 170.2 86.7 L 163.2 89.2 L 156.1 91.5 L 148.6 93.6 L 141.5 95.44415588378907 L 141.5 130.8 L 165.5 130.8 L 175.5 120.8 L 187.5 130.8 L 187.5 134.8 L 141.5 134.8 L 141.5 179.4 L 160.0 179.4 L 170.0 169.4 L 182.0 179.4 L 182.0 183.4 L 88.9 183.4 Z M 43.553333377838136 62.0 L 42.6 66.4 L 39.9 78.3 L 37.0 90.2 L 34.0 101.9 L 30.8 113.6 L 29.457734394073487 118.31826696395873 L 33.5 119.4 L 40.2 121.9 L 46.6 124.7 L 52.60480489730835 127.94850101470948 L 54.0 124.5 L 58.5 110.2 L 62.1 94.6 L 64.8 77.7 L 66.43005466461182 62.0 Z M 172.14446458816528 15.038112545013428 L 181.2 22.8 L 181.4 25.9 L 177.3854250907898 24.162348175048827 L 175.6 24.8 L 168.7 26.8 L 161.8 28.6 L 154.7 30.3 L 147.5 31.9 L 140.2 33.3 L 132.8 34.5 L 125.3 35.6 L 117.7 36.4 L 113.77091960906982 36.65186414718628 L 110.89168376922608 37.64650926589966 L 110.3 39.7 L 108.5 45.3 L 106.6 50.8 L 104.4 56.1 L 102.0 61.1 L 99.5 65.9 L 96.8 70.5 L 93.8 74.8 L 90.6 78.8 L 87.0 82.4 L 85.5 81.4 L 90.9 67.6 L 92.6 62.8 L 94.2 57.9 L 95.6 52.9 L 97.0 47.8 L 98.2 42.5 L 99.3 37.0 L 100.05426692962646 32.30678339004517 L 100.0 32.3 L 100.6 29.5 L 109.79179782867432 32.96708164215088 L 116.7 31.1 L 124.0 29.1 L 131.2 27.1 L 138.3 25.0 L 145.2 22.9 L 152.0 20.7 L 158.7 18.4 L 165.2 16.0 L 170.7195644378662 13.843920135498047 L 170.7 13.8 L 170.74132375717164 13.835420417785645 L 171.6 13.5 Z M 173.8 65.0 L 172.7 61.6 L 171.4 58.1 L 169.9 54.6 L 168.3 51.0 L 166.5 47.3 L 164.5 43.5 L 162.5 39.6 L 160.1 35.7 L 161.5 34.5 L 168.3 40.7 L 171.4 43.9 L 174.2 47.2 L 176.9 50.5 L 179.3 54.0 L 181.5 57.4 L 183.5 60.9 L 185.3 64.5 L 186.9 68.1 L 186.4 72.7 L 183.0 75.6 L 178.4 75.2 L 175.4 71.7 L 174.7 68.4 Z M 133.9 63.3 L 133.5 60.5 L 133.0 57.8 L 132.4 55.0 L 131.7 52.2 L 130.9 49.5 L 129.9 46.7 L 128.9 43.8 L 127.5 41.2 L 128.9 40.1 L 131.1 42.3 L 133.4 44.5 L 135.6 46.8 L 137.6 49.3 L 139.4 51.9 L 141.1 54.7 L 142.6 57.6 L 143.9 60.6 L 145.1 63.7 L 146.1 67.0 L 145.1 71.4 L 141.2 73.9 L 136.8 72.8 L 134.3 69.0 L 134.2 66.2 Z " />
</g>
</svg>
