<svg xmlns="http://www.w3.org/2000/svg" xmlns:xlink="http://www.w3.org/1999/xlink" version="1.1" baseProfile="full" viewBox="0 0 200 200" width="200" height="200">
<g fill="black">
<path d="M 186.0 177.0 L 186.0 181.0 L 18.0 181.0 L 18.0 177.0 L 164.0 177.0 L 174.0 167.0 Z M 60.7 92.4 L 137.2 92.4 L 143.2 87.4 L 154.2 96.4 L 149.2 100.4 L 149.2 159.6 L 137.2 165.6 L 137.2 157.6 L 60.7 157.6 L 60.7 160.6 L 48.7 166.6 L 48.7 86.4 Z M 60.7 126.1 L 60.7 153.6 L 137.2 153.6 L 137.2 126.1 Z M 60.7 96.4 L 60.7 122.1 L 137.2 122.1 L 137.2 96.4 Z M 155.0 69.0 L 155.0 73.0 L 45.0 73.0 L 45.0 69.0 L 133.0 69.0 L 143.0 59.0 Z M 32.2 45.4 L 31.9 50.3 L 31.2 54.8 L 30.0 59.0 L 28.4 62.9 L 26.4 66.5 L 23.8 69.7 L 20.7 72.4 L 16.2 73.1 L 12.4 70.5 L 11.7 66.0 L 14.3 62.2 L 16.3 61.2 L 18.2 59.7 L 20.1 57.8 L 21.9 55.3 L 23.5 52.3 L 25.0 48.7 L 26.3 44.6 L 27.4 39.9 L 28.4 34.7 L 29.1 29.0 L 30.9 29.0 L 31.6 34.8 L 32.00363636016846 38.5 L 94.0 38.5 L 94.0 13.6 L 106.0 15.6 L 109.0 17.6 L 106.0 19.4 L 106.0 38.5 L 171.0 38.5 L 171.5310344696045 38.05747127532959 L 171.8 37.4 L 172.1019165992737 37.581736183166505 L 177.0 33.5 L 188.0 42.5 L 183.0 45.5 L 179.08888893127443 47.129629611968994 L 178.6 47.7 L 176.6 49.9 L 174.4 52.2 L 172.0 54.5 L 169.5 57.0 L 166.8 59.6 L 163.9 62.2 L 160.7 64.9 L 157.6 67.8 L 156.3 66.7 L 158.6 63.1 L 160.5 59.5 L 162.4 56.1 L 164.2 52.9 L 165.9 49.9 L 167.4 47.1 L 168.7 44.4 L 169.6119999885559 42.5 L 32.2 42.5 Z " />
</g>
</svg>
