<svg xmlns="http://www.w3.org/2000/svg" xmlns:xlink="http://www.w3.org/1999/xlink" version="1.1" baseProfile="full" viewBox="0 0 200 200" width="200" height="200">
<g fill="black">
<path d="M 161.5 179.3 L 157.3 176.3 L 152.8 173.3 L 147.8 170.4 L 142.5 167.5 L 136.8 164.7 L 130.8 161.9 L 124.4 159.0 L 117.7 156.1 L 118.2 154.3 L 125.5 155.4 L 132.5 156.8 L 139.1 158.5 L 145.4 160.5 L 151.4 162.7 L 157.1 165.1 L 162.4 167.6 L 167.5 170.4 L 172.2 173.3 L 176.6 176.4 L 178.6 180.5 L 177.2 184.9 L 173.1 186.9 L 168.8 185.6 L 165.3 182.4 Z M 82.44189624786377 159.75515699386597 L 83.8 161.3 L 83.9 164.9 L 80.36155948638915 163.3928864479065 L 78.4 164.6 L 72.9 167.6 L 67.0 170.5 L 60.8 173.3 L 54.3 176.0 L 47.4 178.5 L 40.1 180.9 L 32.6 183.1 L 24.6 185.1 L 16.2 186.8 L 15.7 185.1 L 23.4 181.5 L 30.7 178.1 L 37.7 174.8 L 44.4 171.5 L 50.7 168.2 L 56.7 165.0 L 62.2 161.7 L 67.4 158.3 L 72.2 155.0 L 75.84134273529052 152.24876327514647 L 75.8 152.2 L 75.84225969314575 152.2480704307556 L 76.7 151.6 Z M 51.0 156.0 L 39.0 162.0 L 39.0 78.0 L 51.0 84.0 L 94.0 84.0 L 94.0 64.0 L 48.0 64.0 L 48.0 60.0 L 133.8181818008423 60.0 L 142.0 51.0 L 152.0 60.0 L 152.0 64.0 L 106.0 64.0 L 106.0 84.0 L 149.0 84.0 L 155.0 79.0 L 166.0 88.0 L 161.0 92.0 L 161.0 146.0 L 149.0 152.0 L 149.0 144.0 L 51.0 144.0 Z M 51.0 116.0 L 51.0 140.0 L 94.0 140.0 L 94.0 116.0 Z M 106.0 116.0 L 106.0 140.0 L 149.0 140.0 L 149.0 116.0 Z M 51.0 88.0 L 51.0 112.0 L 94.0 112.0 L 94.0 88.0 Z M 106.0 88.0 L 106.0 112.0 L 149.0 112.0 L 149.0 88.0 Z M 32.3 45.7 L 32.0 50.8 L 31.2 55.6 L 30.1 60.1 L 28.5 64.3 L 26.5 68.0 L 23.9 71.4 L 20.8 74.3 L 16.3 75.2 L 12.5 72.7 L 11.6 68.2 L 14.1 64.4 L 16.1 63.2 L 18.1 61.6 L 20.0 59.4 L 21.8 56.6 L 23.4 53.3 L 24.9 49.3 L 26.2 44.8 L 27.3 39.8 L 28.4 34.2 L 29.1 28.0 L 30.9 27.9 L 31.7 34.2 L 32.06440677642822 38.5 L 94.0 38.5 L 94.0 11.6 L 106.0 13.6 L 109.0 15.6 L 106.0 17.4 L 106.0 38.5 L 171.0 38.5 L 171.45806455612183 38.11827955245972 L 171.7 37.5 L 171.99863481521606 37.66780433654785 L 177.0 33.5 L 188.0 42.5 L 183.0 45.5 L 179.29032258987428 47.045698928833005 L 178.7 47.8 L 176.7 50.2 L 174.5 52.7 L 172.2 55.3 L 169.6 58.0 L 166.9 60.8 L 164.0 63.7 L 160.8 66.6 L 157.7 69.8 L 156.2 68.7 L 158.5 64.8 L 160.5 61.0 L 162.3 57.4 L 164.1 54.0 L 168.6 45.0 L 169.7111110687256 42.5 L 32.24285717010498 42.5 Z " />
</g>
</svg>
