<svg xmlns="http://www.w3.org/2000/svg" xmlns:xlink="http://www.w3.org/1999/xlink" version="1.1" baseProfile="full" viewBox="0 0 200 200" width="200" height="200">
<g fill="black">
<path d="M 72.0 176.0 L 92.0 176.0 L 93.3 175.9 L 94.2 175.7 L 95.1 175.4 L 95.3 175.2 L 95.4 175.0 L 95.6 174.7 L 95.8 174.1 L 96.0 173.2 L 96.0 140.8 L 14.7 140.8 L 14.7 136.8 L 163.2 136.8 L 173.2 126.8 L 185.2 136.8 L 185.2 140.8 L 108.0 140.8 L 108.0 172.0 L 107.9 174.5 L 107.5 177.0 L 106.6 179.4 L 105.4 181.7 L 103.8 183.7 L 101.8 185.3 L 99.5 186.6 L 97.1 187.4 L 94.6 187.8 L 92.0 188.0 L 92.0 182.0 L 72.0 179.0 Z M 47.6 121.5 L 35.6 127.5 L 35.6 78.0 L 47.6 84.0 L 79.2 84.0 L 80.8 80.5 L 82.3 77.2 L 83.8 74.1 L 85.2 71.1 L 86.6 68.2 L 87.8 65.5 L 88.85769233703613 63.0 L 42.0 63.0 L 42.0 59.0 L 132.0 59.0 L 142.0 49.0 L 154.0 59.0 L 154.0 63.0 L 101.77142858505249 63.0 L 101.2 63.8 L 99.6 66.0 L 97.8 68.2 L 95.9 70.5 L 91.7 75.3 L 89.3 77.8 L 86.9 80.4 L 84.2 83.0 L 83.12307691574097 84.0 L 151.3 84.0 L 157.3 79.0 L 168.3 88.0 L 163.3 92.0 L 163.3 120.5 L 151.3 126.5 L 151.3 118.5 L 47.6 118.5 Z M 47.6 88.0 L 47.6 114.5 L 73.9 114.5 L 73.9 88.0 Z M 85.9 88.0 L 85.9 114.5 L 113.0 114.5 L 113.0 88.0 Z M 125.0 88.0 L 125.0 114.5 L 151.3 114.5 L 151.3 88.0 Z M 32.1 39.2 L 31.8 43.5 L 31.0 47.6 L 29.9 51.3 L 28.3 54.9 L 26.1 58.1 L 23.5 61.0 L 20.5 63.4 L 15.9 63.9 L 12.3 61.1 L 11.9 56.5 L 14.7 52.9 L 16.7 52.1 L 18.6 50.9 L 20.4 49.3 L 22.1 47.3 L 23.7 44.8 L 25.2 41.8 L 26.5 38.3 L 27.6 34.3 L 28.6 29.8 L 29.1 24.9 L 30.9 24.8 L 31.5 29.9 L 31.80208330154419 32.8 L 94.0 32.8 L 94.0 11.2 L 106.0 13.2 L 109.0 15.2 L 106.0 17.0 L 106.0 32.8 L 171.0 32.8 L 171.55652170181276 32.33623189926148 L 172.0 31.4 L 172.37275743484497 31.65603542327881 L 177.0 27.8 L 188.0 36.8 L 183.0 39.8 L 178.17931032180786 41.808620643615725 L 176.3 43.5 L 174.2 45.5 L 171.8 47.5 L 169.3 49.6 L 166.7 51.8 L 163.8 54.0 L 160.6 56.2 L 157.6 58.8 L 156.3 57.5 L 158.7 54.4 L 160.7 51.1 L 162.6 48.1 L 164.4 45.2 L 166.1 42.5 L 167.6 40.0 L 168.9 37.6 L 169.33636360168458 36.8 L 32.046666622161865 36.8 Z " />
</g>
</svg>
