<svg xmlns="http://www.w3.org/2000/svg" xmlns:xlink="http://www.w3.org/1999/xlink" version="1.1" baseProfile="full" viewBox="0 0 200 200" width="200" height="200">
<g fill="black">
<path d="M 126.3 176.0 L 146.3 176.0 L 147.5 175.9 L 148.4 175.7 L 149.0 175.5 L 149.4 175.4 L 149.6 175.2 L 149.7 175.0 L 149.9 174.7 L 150.1 174.1 L 150.2 173.2 L 150.3 172.0 L 150.3 69.0 L 93.4 69.0 L 93.4 65.0 L 150.3 65.0 L 150.3 13.0 L 162.3 15.0 L 165.3 17.0 L 162.3 18.8 L 162.3 65.0 L 165.8 65.0 L 175.8 55.0 L 187.8 65.0 L 187.8 69.0 L 162.3 69.0 L 162.3 172.0 L 162.2 174.5 L 161.7 177.0 L 160.9 179.4 L 159.7 181.7 L 158.0 183.7 L 156.0 185.3 L 153.8 186.6 L 151.4 187.4 L 148.9 187.8 L 146.3 188.0 L 146.3 182.0 L 126.3 179.0 Z M 72.6 135.2 L 66.6 127.5 L 63.84786005020142 124.20645542144776 L 59.4 132.9 L 51.8 145.0 L 43.4 156.3 L 34.0 166.7 L 23.7 176.2 L 12.5 184.7 L 11.3 183.2 L 21.1 173.4 L 30.0 163.1 L 38.2 152.3 L 45.4 141.0 L 51.9 129.0 L 57.34900798797607 116.64242839813232 L 54.3 113.2 L 47.8 106.7 L 41.1 100.4 L 34.3 94.5 L 27.4 88.8 L 20.3 83.2 L 21.2 81.7 L 29.4 85.6 L 37.5 90.1 L 45.3 95.3 L 52.8 101.0 L 60.2 107.2 L 60.60582809448242 107.57724866867065 L 62.2 103.1 L 66.2 89.1 L 69.2 74.5 L 71.35027704238891 60.102493095397946 L 71.3 60.1 L 71.8 57.1 L 83.4 60.7 L 86.1 63.1 L 82.6766037940979 64.55811319351196 L 80.4 76.7 L 76.5 91.9 L 71.7 106.3 L 68.19221067428589 114.73100242614746 L 74.2 121.0 L 81.0 128.6 L 87.5 136.6 L 93.8 145.1 L 94.7 149.6 L 92.2 153.4 L 87.7 154.3 L 83.8 151.8 L 78.3 143.3 Z M 120.0 120.1 L 118.4 116.3 L 116.5 112.5 L 114.2 108.7 L 111.6 104.9 L 108.6 101.1 L 105.3 97.3 L 101.7 93.3 L 97.7 89.3 L 98.8 87.8 L 103.9 90.4 L 108.7 93.3 L 113.1 96.5 L 117.1 99.9 L 120.8 103.5 L 124.1 107.3 L 127.1 111.3 L 129.7 115.5 L 131.9 119.8 L 133.8 124.4 L 133.3 128.9 L 129.8 131.8 L 125.2 131.3 L 122.3 127.8 L 121.3 123.9 Z M 12.9 51.0 L 49.7 51.0 L 49.7 15.0 L 61.7 17.0 L 64.7 19.0 L 61.7 20.8 L 61.7 51.0 L 78.4 51.0 L 88.4 41.0 L 100.4 51.0 L 100.4 55.0 L 12.9 55.0 Z " />
</g>
</svg>
