<svg xmlns="http://www.w3.org/2000/svg" xmlns:xlink="http://www.w3.org/1999/xlink" version="1.1" baseProfile="full" viewBox="0 0 200 200" width="200" height="200">
<g fill="black">
<path d="M 125.2 176.0 L 145.2 176.0 L 146.4 175.9 L 147.3 175.7 L 148.2 175.4 L 148.6 175.0 L 148.9 174.1 L 149.1 173.2 L 149.2 172.0 L 149.2 69.0 L 89.1 69.0 L 89.1 65.0 L 149.2 65.0 L 149.2 13.0 L 161.2 15.0 L 164.2 17.0 L 161.2 18.8 L 161.2 65.0 L 166.2 65.0 L 176.2 55.0 L 188.2 65.0 L 188.2 69.0 L 161.2 69.0 L 161.2 172.0 L 161.0 174.5 L 160.6 177.0 L 159.8 179.4 L 158.5 181.7 L 156.9 183.7 L 154.9 185.3 L 152.6 186.6 L 150.2 187.4 L 147.7 187.8 L 145.2 188.0 L 145.2 182.0 L 125.2 179.0 Z M 72.6 125.9 L 68.4 117.5 L 63.6 109.2 L 61.917421627044675 106.64497365951539 L 57.0 116.7 L 49.7 129.5 L 41.9 141.5 L 33.4 152.6 L 24.3 162.8 L 14.6 171.9 L 13.3 170.6 L 21.4 160.3 L 29.1 149.4 L 36.4 138.0 L 43.1 125.8 L 49.4 112.9 L 55.2 99.3 L 55.806320095062254 97.63261976242066 L 52.3 92.7 L 45.8 84.5 L 38.7 76.3 L 31.2 68.1 L 23.1 59.7 L 24.3 58.3 L 33.7 65.3 L 42.5 72.5 L 50.6 80.1 L 58.1 87.9 L 58.976089000701904 88.91575536727905 L 60.4 85.0 L 65.1 69.8 L 69.4 53.9 L 72.36445779800415 40.6 L 18.0 40.6 L 18.0 36.6 L 73.0 36.6 L 79.0 31.6 L 90.0 40.6 L 85.0 43.6 L 83.70241756439209 44.14065933227539 L 80.4 56.9 L 75.4 73.0 L 69.8 88.4 L 66.07942953109742 97.30497179031372 L 71.3 104.1 L 77.0 112.4 L 82.1 121.0 L 86.6 129.7 L 90.6 138.6 L 90.3 143.2 L 87.0 146.3 L 82.4 146.1 L 79.3 142.8 L 76.2 134.3 Z M 117.4 120.2 L 115.7 116.4 L 113.6 112.6 L 111.2 108.8 L 108.4 105.0 L 105.2 101.2 L 101.7 97.3 L 97.9 93.3 L 93.7 89.3 L 94.7 87.8 L 100.1 90.3 L 105.1 93.2 L 109.6 96.4 L 113.8 99.8 L 117.6 103.4 L 121.1 107.2 L 124.2 111.2 L 126.9 115.4 L 129.3 119.8 L 131.2 124.3 L 130.8 128.9 L 127.3 131.8 L 122.7 131.3 L 119.8 127.9 L 118.7 124.0 Z " />
</g>
</svg>
