<svg xmlns="http://www.w3.org/2000/svg" xmlns:xlink="http://www.w3.org/1999/xlink" version="1.1" baseProfile="full" viewBox="0 0 200 200" width="200" height="200">
<g fill="black">
<path d="M 127.4 177.7 L 143.4 177.7 L 144.6 177.6 L 145.5 177.5 L 146.1 177.3 L 146.5 177.1 L 146.8 176.8 L 147.0 176.4 L 147.2 175.9 L 147.3 174.9 L 147.4 173.7 L 147.4 154.0 L 79.5 154.0 L 79.5 182.9 L 67.5 188.9 L 67.5 97.86000003814698 L 63.2 101.3 L 58.4 104.7 L 53.4 108.0 L 48.1 111.0 L 47.0 109.6 L 51.0 105.0 L 54.9 100.7 L 58.7 96.4 L 62.3 92.3 L 65.8 88.1 L 69.1 84.0 L 72.3 79.8 L 75.2 75.7 L 78.0 71.5 L 80.00902147293091 68.20520467758179 L 80.0 68.2 L 80.14285717010497 67.98571424484253 L 80.5 67.4 L 80.52286376953126 67.41570434570312 L 81.0 66.7 L 90.4 74.2 L 91.8 77.5 L 87.90601530075074 77.29858703613282 L 87.1 78.3 L 83.6 82.3 L 79.9 86.3 L 76.0 90.2 L 71.9 94.0 L 69.00344829559326 96.55172414779663 L 79.5 101.8 L 106.7 101.8 L 106.7 59.6 L 118.7 61.6 L 121.7 63.6 L 118.7 65.4 L 118.7 101.8 L 147.4 101.8 L 153.4 96.8 L 164.4 105.8 L 159.4 109.8 L 159.4 173.7 L 159.3 176.3 L 158.8 178.8 L 158.0 181.2 L 156.8 183.4 L 155.1 185.5 L 153.1 187.1 L 150.9 188.3 L 148.4 189.1 L 146.0 189.6 L 143.4 189.7 L 143.4 183.7 L 127.4 180.7 Z M 45.0 23.0 L 161.0 23.0 L 167.0 18.0 L 178.0 27.0 L 173.0 31.0 L 173.0 60.0 L 161.0 66.0 L 161.0 56.0 L 45.0 56.0 L 45.0 87.0 L 44.4 99.7 L 43.3 111.8 L 41.7 123.3 L 39.5 134.2 L 36.8 144.5 L 33.6 154.1 L 29.7 163.1 L 25.4 171.4 L 20.3 178.8 L 14.7 185.5 L 13.2 184.4 L 17.1 176.9 L 20.6 169.0 L 23.7 160.6 L 26.3 151.8 L 28.6 142.4 L 30.4 132.5 L 31.7 122.0 L 32.6 110.9 L 33.0 99.2 L 33.0 17.0 Z M 79.5 129.6 L 79.5 150.0 L 147.4 150.0 L 147.4 129.6 Z M 79.5 125.6 L 147.4 125.6 L 147.4 105.8 L 79.5 105.8 Z M 164.1 94.5 L 161.8 91.8 L 159.2 89.1 L 156.1 86.3 L 152.6 83.6 L 148.7 80.8 L 144.4 77.9 L 139.8 74.9 L 134.7 71.9 L 135.4 70.2 L 141.2 71.7 L 146.6 73.4 L 151.7 75.2 L 156.3 77.3 L 160.7 79.5 L 164.7 81.9 L 168.4 84.4 L 171.7 87.0 L 174.8 89.9 L 177.4 92.9 L 178.3 97.4 L 175.8 101.2 L 171.3 102.1 L 167.5 99.6 L 166.0 97.1 Z M 45.0 27.0 L 45.0 52.0 L 161.0 52.0 L 161.0 27.0 Z " />
</g>
</svg>
