<svg xmlns="http://www.w3.org/2000/svg" xmlns:xlink="http://www.w3.org/1999/xlink" version="1.1" baseProfile="full" viewBox="0 0 200 200" width="200" height="200">
<g fill="black">
<path d="M 18.0 59.0 L 18.0 55.0 L 112.09130430221558 55.0 L 113.9 51.8 L 116.4 47.4 L 118.9 43.2 L 121.4 39.1 L 123.7 35.0 L 127.9 27.2 L 129.8 23.4 L 131.6 19.7 L 132.79366121292114 16.93965835571289 L 132.7 16.9 L 133.7 15.0 L 143.8 21.6 L 145.5 24.8 L 141.6882522583008 24.99715938568115 L 141.5 25.3 L 139.0 28.9 L 136.3 32.5 L 133.5 36.2 L 130.5 39.8 L 127.3 43.4 L 124.0 47.0 L 120.5 50.6 L 116.6 54.1 L 115.54117650985718 55.0 L 162.0 55.0 L 172.0 45.0 L 184.0 55.0 L 184.0 59.0 L 107.0 59.0 L 107.0 117.0 L 106.49152545928955 123.0 L 151.0 123.0 L 151.0 74.0 L 163.0 76.0 L 166.0 78.0 L 163.0 79.8 L 163.0 133.0 L 151.0 139.0 L 151.0 127.0 L 106.1525424003601 127.0 L 106.0 128.8 L 103.7 139.7 L 100.1 149.7 L 95.2 158.7 L 88.9 166.7 L 81.5 173.6 L 72.8 179.4 L 63.0 184.0 L 52.1 187.5 L 40.2 189.8 L 39.7 188.1 L 50.9 183.9 L 60.8 179.2 L 69.3 173.8 L 76.5 167.8 L 82.5 161.2 L 87.2 153.9 L 90.8 145.9 L 93.3 137.1 L 94.7 127.5 L 94.71428575515748 127.0 L 51.0 127.0 L 51.0 139.0 L 39.0 145.0 L 39.0 74.0 L 51.0 76.0 L 54.0 78.0 L 51.0 79.8 L 51.0 123.0 L 94.8285714149475 123.0 L 95.0 117.0 L 95.0 59.0 Z M 68.7 42.3 L 67.1 39.5 L 65.2 36.6 L 63.1 33.8 L 60.7 30.9 L 58.0 28.0 L 55.0 25.1 L 51.9 22.1 L 48.4 19.2 L 49.3 17.7 L 57.7 21.3 L 61.6 23.4 L 65.2 25.6 L 68.6 28.0 L 71.8 30.6 L 74.7 33.4 L 77.4 36.3 L 79.8 39.4 L 82.0 42.6 L 82.2 47.1 L 79.3 50.6 L 74.7 50.9 L 71.2 48.0 L 70.1 45.1 Z " />
</g>
</svg>
