<svg xmlns="http://www.w3.org/2000/svg" xmlns:xlink="http://www.w3.org/1999/xlink" version="1.1" baseProfile="full" viewBox="0 0 200 200" width="200" height="200">
<g fill="black">
<path d="M 165.1 179.0 L 163.3 180.6 L 161.3 182.0 L 159.3 183.2 L 157.1 184.2 L 154.8 185.0 L 152.4 185.5 L 150.0 185.8 L 147.6 186.0 L 147.6 180.0 L 127.6 177.0 L 127.6 174.0 L 147.6 174.0 L 149.0 173.9 L 150.3 173.7 L 152.7 173.1 L 153.7 172.6 L 154.7 172.0 L 155.7 171.3 L 156.6 170.5 L 157.5 169.5 L 158.4 168.3 L 160.3 164.8 L 162.3 159.6 L 164.2 152.9 L 165.8 144.6 L 167.2 134.9 L 168.4 123.8 L 169.3 111.2 L 169.9 97.2 L 170.3 81.8 L 170.47619047164918 67.0 L 138.2395722389221 67.0 L 137.4 82.7 L 135.2 100.1 L 131.8 116.2 L 127.1 130.9 L 121.0 144.3 L 113.8 156.3 L 105.2 166.8 L 95.4 175.7 L 84.4 183.1 L 72.3 188.8 L 71.5 187.1 L 82.3 179.9 L 91.9 171.7 L 100.2 162.5 L 107.4 152.1 L 113.4 140.6 L 118.3 127.8 L 122.0 113.8 L 124.6 98.5 L 126.1 81.9 L 126.34972066879273 67.0 L 93.3 67.0 L 93.3 63.0 L 126.4 63.0 L 126.4 18.0 L 138.4 20.0 L 141.4 22.0 L 138.4 23.8 L 138.4 63.0 L 170.5 63.0 L 176.5 58.0 L 187.5 67.0 L 182.5 70.0 L 182.4408866882324 70.02463054656982 L 182.3 82.0 L 181.9 97.6 L 181.3 111.9 L 180.3 124.8 L 179.1 136.4 L 177.6 146.6 L 175.8 155.6 L 173.7 163.3 L 171.2 169.8 L 168.2 175.2 L 166.7 177.2 Z M 88.4 146.9 L 87.5 142.9 L 86.81773052215576 140.8007092475891 L 84.3 141.9 L 77.1 144.7 L 69.8 147.3 L 62.5 149.8 L 55.1 152.2 L 40.3 156.8 L 32.8 159.1 L 25.4 161.3 L 21.822950839996338 162.30157375335693 L 20.5 165.9 L 17.9 163.4 L 13.1 152.2 L 15.0 151.8 L 26.89072847366333 149.296688747406 L 29.5 144.6 L 35.4 134.1 L 41.3 124.0 L 47.0 114.1 L 52.5 104.5 L 57.8 95.2 L 62.8 86.1 L 67.7 77.3 L 72.3 68.7 L 76.22303628921509 61.21056709289551 L 76.2 61.2 L 77.2 59.4 L 87.1 66.2 L 88.8 69.4 L 85.08673915863037 69.52804346084595 L 82.2 74.3 L 76.9 82.7 L 71.5 91.3 L 59.7 109.0 L 53.4 118.2 L 46.8 127.5 L 39.9 137.1 L 32.6 146.7 L 31.257423210144044 148.39129800796508 L 37.8 147.1 L 45.4 145.5 L 53.0 144.0 L 60.5 142.4 L 68.1 140.9 L 75.6 139.5 L 83.2 138.2 L 85.77297296524048 137.8324324607849 L 84.6 134.9 L 82.8 130.8 L 80.7 126.7 L 78.3 122.5 L 75.7 118.2 L 72.8 113.8 L 74.0 112.5 L 78.3 115.8 L 82.3 119.3 L 85.8 123.0 L 89.0 126.9 L 91.9 130.9 L 94.5 135.1 L 96.7 139.4 L 98.6 143.8 L 100.2 148.3 L 101.4 153.0 L 100.3 157.4 L 96.4 159.8 L 92.0 158.7 L 89.6 154.8 L 89.1 150.9 Z M 38.5 93.2 L 36.9 90.2 L 34.9 87.0 L 32.5 83.8 L 29.8 80.4 L 26.8 76.9 L 23.4 73.3 L 19.8 69.5 L 15.8 65.6 L 16.8 64.1 L 21.8 66.8 L 26.5 69.4 L 30.9 72.3 L 32.08710136413574 73.1827163696289 L 34.3 68.4 L 37.4 62.1 L 40.5 56.0 L 43.4 50.1 L 46.1 44.4 L 48.7 39.0 L 51.1 33.8 L 53.3 28.7 L 55.3 23.9 L 56.748622035980226 20.11748685836792 L 56.7 20.1 L 56.98260869979858 19.506521701812744 L 57.1 19.2 L 57.12348756790161 19.210676193237305 L 57.7 18.0 L 68.1 24.2 L 70.0 27.2 L 66.22174091339112 27.655996799468994 L 65.6 28.8 L 62.9 33.5 L 60.0 38.4 L 56.8 43.5 L 53.5 48.6 L 49.9 53.9 L 46.1 59.4 L 42.0 64.9 L 37.5 70.5 L 33.98859062194824 74.59664430618287 L 34.8 75.2 L 38.5 78.1 L 41.8 81.2 L 44.8 84.3 L 47.4 87.5 L 49.8 90.7 L 51.8 94.1 L 51.8 98.7 L 48.7 102.0 L 44.1 102.0 L 40.8 98.9 L 39.8 96.1 Z " />
</g>
</svg>
