<svg xmlns="http://www.w3.org/2000/svg" xmlns:xlink="http://www.w3.org/1999/xlink" version="1.1" baseProfile="full" viewBox="0 0 200 200" width="200" height="200">
<g fill="black">
<path d="M 76.0 177.0 L 96.0 177.0 L 97.2 176.9 L 98.1 176.7 L 99.0 176.4 L 99.4 176.0 L 99.7 175.1 L 99.9 174.2 L 100.0 173.0 L 100.0 151.71000003814697 L 96.3 154.3 L 90.9 157.6 L 85.2 160.7 L 79.4 163.8 L 73.3 166.8 L 67.0 169.8 L 60.5 172.7 L 53.8 175.6 L 46.9 178.4 L 43.70585660934448 179.7232879638672 L 42.8 183.4 L 39.9 181.3 L 34.0 170.6 L 35.9 170.0 L 43.1 167.7 L 50.1 165.5 L 56.9 163.3 L 63.6 161.1 L 70.1 158.9 L 76.4 156.8 L 82.6 154.7 L 88.7 152.7 L 94.7 150.8 L 100.0 149.27288131713868 L 100.0 112.0 L 53.0 112.0 L 53.0 108.0 L 100.0 108.0 L 100.0 88.0 L 48.0 88.0 L 48.0 84.0 L 100.0 84.0 L 100.0 67.0 L 54.0 67.0 L 54.0 63.0 L 100.0 63.0 L 100.0 46.0 L 112.0 48.0 L 115.0 50.0 L 112.0 51.8 L 112.0 63.0 L 143.0 63.0 L 149.0 58.0 L 160.0 67.0 L 155.0 71.0 L 155.0 84.0 L 162.8181818008423 84.0 L 171.0 75.0 L 181.0 84.0 L 181.0 88.0 L 155.0 88.0 L 155.0 116.0 L 143.0 122.0 L 143.0 112.0 L 113.85384616851806 112.0 L 118.0 119.7 L 123.1 128.1 L 128.5 135.9 L 134.4 142.9 L 140.6 149.2 L 143.0978391647339 151.28774614334105 L 144.1 150.1 L 146.7 146.9 L 149.3 143.8 L 152.0 140.7 L 154.5 137.7 L 157.1 134.7 L 159.6 131.6 L 162.1 128.6 L 166.28580646514894 123.36774196624756 L 166.2 123.3 L 167.2 122.2 L 175.7 130.8 L 176.5 134.3 L 172.52671012878417 133.46351795196534 L 169.6 136.0 L 166.5 138.6 L 163.3 141.1 L 160.0 143.6 L 156.7 146.0 L 153.3 148.3 L 149.8 150.5 L 146.1 152.5 L 145.18606481552123 153.03312883377075 L 147.3 154.8 L 154.5 159.7 L 162.2 164.0 L 170.4 167.7 L 179.1 170.7 L 186.4 173.2 L 174.8 183.2 L 165.3 179.1 L 156.5 174.4 L 148.3 168.8 L 140.8 162.6 L 133.9 155.7 L 127.9 148.1 L 122.5 139.9 L 117.9 131.0 L 114.2 121.4 L 112.0 113.38571424484253 L 112.0 173.0 L 111.8 175.5 L 111.4 178.0 L 110.6 180.4 L 109.3 182.7 L 107.7 184.7 L 105.7 186.3 L 103.4 187.6 L 101.0 188.4 L 98.5 188.8 L 96.0 189.0 L 96.0 183.0 L 76.0 180.0 Z M 42.0 35.0 L 98.0 35.0 L 98.0 12.0 L 110.0 14.0 L 113.0 16.0 L 110.0 17.8 L 110.0 35.0 L 164.0 35.0 L 174.0 25.0 L 186.0 35.0 L 186.0 39.0 L 42.0 39.0 L 42.0 102.0 L 41.4 113.5 L 40.4 124.4 L 38.9 134.7 L 36.8 144.3 L 34.3 153.3 L 31.3 161.6 L 27.7 169.3 L 23.6 176.2 L 18.9 182.3 L 13.6 187.5 L 12.3 186.4 L 15.8 180.2 L 18.9 173.6 L 21.7 166.6 L 24.1 159.1 L 26.1 151.1 L 27.7 142.5 L 28.9 133.3 L 29.7 123.4 L 30.0 113.0 L 30.0 29.0 Z M 72.4 138.0 L 71.2 135.8 L 69.9 133.6 L 68.4 131.4 L 66.8 129.2 L 63.0 124.6 L 60.9 122.3 L 58.3 120.2 L 59.3 118.7 L 62.3 120.1 L 65.3 121.3 L 68.3 122.7 L 71.0 124.3 L 73.7 126.0 L 76.1 127.8 L 78.5 129.7 L 80.7 131.8 L 82.8 134.0 L 84.7 136.4 L 85.2 140.9 L 82.4 144.6 L 77.9 145.1 L 74.3 142.3 L 73.4 140.2 Z M 112.0 88.0 L 112.0 108.0 L 143.0 108.0 L 143.0 88.0 Z M 112.0 67.0 L 112.0 84.0 L 143.0 84.0 L 143.0 67.0 Z " />
</g>
</svg>
