<svg xmlns="http://www.w3.org/2000/svg" xmlns:xlink="http://www.w3.org/1999/xlink" version="1.1" baseProfile="full" viewBox="0 0 200 200" width="200" height="200">
<g fill="black">
<path d="M 126.6 182.7 L 105.3 179.8 L 87.0 175.1 L 71.3 168.5 L 58.2 159.9 L 52.183978176116945 154.04955673217773 L 49.1 158.7 L 41.8 167.2 L 33.6 174.8 L 24.4 181.3 L 14.4 186.7 L 13.5 185.2 L 22.2 178.2 L 29.9 170.8 L 36.8 162.9 L 42.8 154.3 L 46.39457015991211 148.00950222015382 L 38.6 136.9 L 31.7 122.5 L 26.4 106.2 L 28.1 105.6 L 35.5 120.8 L 43.6 133.7 L 49.79930419921875 141.05741596221924 L 52.3 135.3 L 55.7 124.7 L 58.3 113.5 L 60.1 101.4 L 60.83125 91.0 L 38.565180110931394 91.0 L 37.5 93.3 L 24.1 93.6 L 51.353691291809085 36.0 L 15.0 36.0 L 15.0 32.0 L 53.0 32.0 L 59.0 27.0 L 70.0 36.0 L 65.0 39.0 L 62.08501596450806 40.214576721191406 L 40.41766719818115 87.0 L 61.0 87.0 L 67.0 82.0 L 78.0 91.0 L 73.0 94.0 L 72.3134020805359 94.2860824584961 L 71.3 102.9 L 68.8 115.7 L 65.3 127.7 L 60.8 138.9 L 56.30017404556274 147.48300132751464 L 63.2 153.2 L 75.4 160.1 L 90.0 165.4 L 107.2 169.0 L 127.5 171.0 L 151.2 171.4 L 178.6 170.4 L 189.8 169.8 L 179.3 183.5 L 151.2 184.0 Z M 86.1 144.5 L 127.5 144.5 L 127.5 90.1 L 80.6 90.1 L 80.6 86.1 L 127.5 86.1 L 127.5 45.55714282989502 L 122.7 46.7 L 114.0 48.4 L 105.0 49.9 L 95.8 51.0 L 86.2 51.8 L 85.9 50.0 L 95.1 47.3 L 103.9 44.7 L 112.4 42.1 L 120.7 39.4 L 128.6 36.6 L 136.2 33.7 L 143.6 30.7 L 150.6 27.5 L 157.3 24.3 L 162.8360659599304 21.358964920043945 L 162.8 21.3 L 162.85251140594482 21.350228309631348 L 163.7 20.9 L 164.9301650047302 23.337549114227294 L 172.0 30.1 L 172.2 33.4 L 168.4638557434082 31.868793296813966 L 162.0 34.6 L 154.7 37.5 L 147.1 40.1 L 139.5 42.408860778808595 L 139.5 86.1 L 164.3 86.1 L 174.3 76.1 L 186.3 86.1 L 186.3 90.1 L 139.5 90.1 L 139.5 144.5 L 158.8 144.5 L 168.8 134.5 L 180.8 144.5 L 180.8 148.5 L 86.1 148.5 Z " />
</g>
</svg>
