<svg xmlns="http://www.w3.org/2000/svg" xmlns:xlink="http://www.w3.org/1999/xlink" version="1.1" baseProfile="full" viewBox="0 0 200 200" width="200" height="200">
<g fill="black">
<path d="M 172.5 107.2 L 171.5 105.4 L 170.85584411621093 104.43376626968384 L 165.3 105.4 L 156.6 106.7 L 149.1 107.70609760284424 L 149.1 130.2 L 137.5 136.0 L 139.0 137.0 L 136.0 138.8 L 136.0 154.4 L 163.0 154.4 L 173.0 144.4 L 185.0 154.4 L 185.0 158.4 L 136.0 158.4 L 136.0 183.3 L 124.0 189.3 L 124.0 158.4 L 76.9 158.4 L 74.9 163.4 L 71.8 168.9 L 67.9 173.8 L 63.3 178.0 L 58.1 181.5 L 52.2 184.4 L 45.8 186.6 L 38.7 188.2 L 31.1 188.9 L 30.8 187.2 L 37.7 184.5 L 43.8 181.6 L 49.2 178.6 L 53.8 175.3 L 57.6 171.7 L 60.7 167.8 L 63.2 163.7 L 65.0 159.3 L 65.24375 158.4 L 16.0 158.4 L 16.0 154.4 L 66.3134614944458 154.4 L 67.0 149.3 L 67.0 133.0 L 79.0 135.0 L 82.0 137.0 L 79.0 138.8 L 79.0 150.1 L 78.5023136138916 150.8465295791626 L 78.9 150.9 L 78.0384614944458 154.4 L 124.0 154.4 L 124.0 133.0 L 136.0 135.0 L 137.1 135.73333330154418 L 137.1 109.11111106872559 L 133.6 109.5 L 127.0 110.3 L 122.45523586273194 110.73981590270996 L 129.8 116.6 L 131.1 120.0 L 126.59595279693603 119.68937606811524 L 125.7 120.5 L 123.5 122.2 L 121.1 123.9 L 118.6 125.5 L 115.9 127.1 L 113.1 128.5 L 110.1 129.8 L 106.9 131.0 L 103.8 132.4 L 102.9 130.9 L 105.6 128.8 L 107.8 126.4 L 109.9 124.2 L 111.9 122.0 L 113.6 119.8 L 115.3 117.7 L 116.7 115.7 L 117.9 113.7 L 119.0 111.7 L 119.31619234085083 111.03248281478882 L 115.2 111.4 L 110.1 111.9 L 109.64867925643921 111.93924531936645 L 107.5 115.3 L 105.5 112.3 L 103.3 100.4 L 105.3 100.3 L 109.8 100.5 L 114.8 100.7 L 120.4 100.9 L 126.5 101.0 L 130.89417514801025 101.06558465957642 L 131.2 100.8 L 134.9 97.5 L 136.42159996032714 96.23199996948242 L 132.5 97.6 L 128.3 95.7 L 127.5 94.3 L 126.6 92.9 L 125.6 91.5 L 124.3 90.0 L 122.9 88.5 L 121.3 87.0 L 119.6 85.5 L 117.7 83.9 L 115.7 82.2 L 113.3 81.1 L 113.9 79.4 L 116.5 80.1 L 119.2 80.4 L 121.8 80.9 L 124.3 81.5 L 126.40722894668579 82.20240964889527 L 127.8 80.4 L 129.6 78.4 L 132.8 74.4 L 135.8 70.6 L 137.1 68.7 L 138.4 66.9 L 138.94191493988038 66.01323003768921 L 138.8 65.9 L 139.44406776428224 65.19152545928955 L 139.5 65.1 L 139.51460552215576 65.11393394470215 L 139.8 64.8 L 148.2 73.4 L 149.0 77.0 L 144.47485208511353 75.96794872283935 L 144.1 76.2 L 142.0 77.6 L 139.8 78.9 L 135.2 81.3 L 132.7 82.5 L 130.11092433929443 83.59537811279297 L 131.1 84.0 L 133.2 85.1 L 135.2 86.3 L 137.1 87.6 L 138.6 91.9 L 136.9222222328186 95.81481485366821 L 142.1 91.5 L 145.5 88.5 L 148.8 85.6 L 152.0 82.7 L 155.1 79.8 L 158.1 77.0 L 160.21242265701295 74.81213369369507 L 160.2 74.8 L 160.37027025222778 74.64864864349366 L 160.9 74.1 L 160.93811168670655 74.14390077590943 L 161.1 74.0 L 168.8 83.2 L 169.2 86.8 L 165.46932668685912 85.57905235290528 L 165.3 85.7 L 161.8 88.1 L 158.1 90.6 L 150.3 95.2 L 146.2 97.5 L 142.0 99.7 L 139.0666666984558 101.1 L 140.4 101.1 L 148.1 101.2 L 156.3 101.4 L 165.1 101.6 L 168.87012300491332 101.7621558189392 L 167.4 99.9 L 165.8 98.0 L 164.0 96.1 L 162.0 94.1 L 159.7 92.5 L 160.5 90.9 L 163.2 92.0 L 166.0 92.8 L 168.7 93.8 L 171.2 94.9 L 173.6 96.1 L 175.9 97.4 L 178.1 98.9 L 180.2 100.4 L 182.2 102.1 L 184.0 103.9 L 184.9 108.3 L 182.5 112.2 L 178.0 113.1 L 174.2 110.7 L 173.4 109.0 Z M 83.5 119.1 L 81.4 117.2 L 79.1 115.3 L 76.5 113.3 L 73.6 111.3 L 70.4 109.3 L 67.1 107.2 L 64.8 105.83243246078491 L 64.8 130.1 L 52.8 136.1 L 52.8 106.13333330154418 L 52.0 107.2 L 48.7 111.1 L 45.0 114.7 L 40.9 118.1 L 36.5 121.3 L 31.8 124.2 L 26.7 126.9 L 21.3 129.2 L 15.4 131.2 L 14.6 129.5 L 19.4 125.9 L 23.9 122.3 L 28.0 118.9 L 31.8 115.4 L 35.2 111.9 L 38.2 108.3 L 40.9 104.7 L 43.2 101.1 L 44.713513469696046 98.3 L 16.5 98.3 L 16.5 94.3 L 52.8 94.3 L 52.8 66.4 L 64.8 68.4 L 67.8 70.4 L 64.8 72.2 L 64.8 94.3 L 78.6 94.3 L 88.6 84.3 L 100.6 94.3 L 100.6 98.3 L 64.8 98.3 L 64.8 102.35714282989503 L 68.7 103.1 L 72.7 104.1 L 76.5 105.2 L 80.1 106.4 L 83.4 107.7 L 86.5 109.1 L 89.5 110.5 L 92.2 112.1 L 94.8 113.7 L 96.7 117.9 L 95.2 122.2 L 91.1 124.1 L 86.7 122.6 L 85.2 120.9 Z M 170.1 126.9 L 169.1 125.2 L 167.9 123.5 L 166.5 121.7 L 165.0 119.9 L 163.4 118.0 L 161.5 116.1 L 159.6 114.1 L 157.3 112.5 L 158.1 110.9 L 160.8 112.0 L 163.5 112.8 L 166.2 113.7 L 168.7 114.8 L 171.1 115.9 L 173.4 117.1 L 177.6 119.9 L 179.6 121.4 L 181.4 123.0 L 182.4 127.5 L 180.1 131.4 L 175.7 132.5 L 171.7 130.2 L 171.0 128.6 Z M 33.9 86.1 L 33.3 84.3 L 32.5 82.6 L 31.5 80.8 L 30.4 79.0 L 29.1 77.1 L 27.7 75.2 L 26.1 73.3 L 24.1 71.8 L 25.0 70.2 L 27.4 71.4 L 29.9 72.2 L 32.3 73.2 L 34.6 74.4 L 36.7 75.7 L 38.8 77.1 L 40.7 78.7 L 42.5 80.5 L 44.2 82.4 L 45.7 84.4 L 45.8 89.0 L 42.8 92.4 L 38.2 92.5 L 34.8 89.4 L 34.4 87.8 Z M 90.9 74.5 L 92.4 77.8 L 87.8676646232605 77.7218563079834 L 87.7 77.9 L 85.9 79.5 L 84.1 81.2 L 82.2 82.8 L 80.3 84.5 L 78.2 86.1 L 76.0 87.7 L 73.7 89.2 L 71.7 91.0 L 70.4 89.8 L 72.0 87.6 L 73.1 85.2 L 74.3 82.8 L 75.4 80.5 L 76.4 78.3 L 78.4 74.1 L 80.0 70.1 L 80.35679206848144 69.08059406280518 L 80.2 69.0 L 80.65679016113282 68.2234567642212 L 80.7 68.1 L 80.72148275375366 68.11347932815552 L 81.2 67.3 Z M 83.3 16.9 L 85.4 19.8 L 81.9930760383606 20.557094192504884 L 79.33322887420654 28.0 L 128.0 28.0 L 134.0 23.0 L 145.0 32.0 L 140.0 35.0 L 137.7331220626831 35.94453248977661 L 130.89333333969117 59.0 L 164.8181818008423 59.0 L 173.0 50.0 L 183.0 59.0 L 183.0 63.0 L 20.0 63.0 L 20.0 59.0 L 118.24516124725342 59.0 L 122.11612901687622 47.0 L 72.54326019287109 47.0 L 71.9 48.8 L 58.6 50.5 L 72.6 11.0 Z M 77.90376176834107 32.0 L 73.97272729873657 43.0 L 123.4064516067505 43.0 L 126.95483875274658 32.0 Z " />
</g>
</svg>
