<svg xmlns="http://www.w3.org/2000/svg" xmlns:xlink="http://www.w3.org/1999/xlink" version="1.1" baseProfile="full" viewBox="0 0 200 200" width="200" height="200">
<g fill="black">
<path d="M 78.9 152.9 L 78.1 156.0 L 124.0 156.0 L 124.0 135.9 L 136.0 137.9 L 139.0 139.9 L 136.0 141.7 L 136.0 156.0 L 163.0 156.0 L 173.0 146.0 L 185.0 156.0 L 185.0 160.0 L 136.0 160.0 L 136.0 183.0 L 124.0 189.0 L 124.0 160.0 L 76.92105264663697 160.0 L 74.9 164.8 L 71.7 169.9 L 67.8 174.5 L 63.2 178.4 L 58.0 181.7 L 52.1 184.4 L 45.7 186.5 L 38.7 187.8 L 31.1 188.5 L 30.8 186.7 L 37.7 184.2 L 43.9 181.4 L 49.3 178.5 L 53.9 175.4 L 57.7 172.0 L 60.8 168.4 L 63.3 164.5 L 65.1 160.4 L 65.20909090042115 160.0 L 16.0 160.0 L 16.0 156.0 L 66.3 156.0 L 67.0 151.2 L 67.0 135.9 L 79.0 137.9 L 82.0 139.9 L 79.0 141.7 L 79.0 152.0 L 78.44347829818726 152.83478260040283 Z M 157.5 132.3 L 155.6 133.7 L 153.6 135.0 L 151.5 136.0 L 149.3 136.9 L 147.0 137.5 L 144.7 138.0 L 142.3 138.3 L 139.9 138.4 L 139.9 132.4 L 121.9 129.4 L 121.9 126.4 L 139.9 126.4 L 141.4 126.3 L 142.8 126.1 L 144.1 125.9 L 145.4 125.5 L 147.8 124.5 L 148.9 123.8 L 150.0 123.0 L 151.1 122.0 L 151.85862064361572 121.16551723480225 L 151.9 121.0 L 152.2 120.1 L 152.5 118.6 L 152.8 116.6 L 153.0 114.2 L 153.2 111.4 L 153.4 108.2 L 153.4 104.6 L 153.45 102.6 L 132.53584909439087 102.6 L 132.1 105.9 L 130.5 110.8 L 128.0 115.3 L 124.8 119.3 L 121.0 122.8 L 116.5 125.7 L 111.4 128.1 L 105.7 130.1 L 99.4 131.5 L 92.5 132.5 L 92.1 130.8 L 98.3 128.1 L 103.7 125.3 L 108.4 122.5 L 112.3 119.6 L 115.4 116.6 L 117.8 113.5 L 119.4 110.4 L 120.4 107.3 L 120.9 104.1 L 120.85714282989503 102.6 L 105.7 102.6 L 105.7 98.6 L 153.5 98.6 L 159.5 93.6 L 170.5 102.6 L 165.5 105.6 L 165.4 105.64166669845581 L 165.4 108.6 L 165.2 112.0 L 165.0 115.2 L 164.7 118.0 L 164.4 120.5 L 163.9 122.8 L 163.3 124.9 L 162.5 126.9 L 161.0 129.0 L 159.3 130.7 Z M 78.1 119.0 L 76.4 117.2 L 74.6 115.3 L 70.6 111.5 L 68.4 109.6 L 66.1 107.7 L 63.8 105.6 L 62.8 105.0074073791504 L 62.8 131.5 L 50.8 137.5 L 50.8 109.50588235855102 L 48.6 111.9 L 44.8 115.4 L 40.8 118.6 L 36.6 121.6 L 32.1 124.3 L 27.3 126.7 L 22.2 128.7 L 16.8 130.4 L 16.0 128.7 L 20.4 125.4 L 24.5 122.2 L 28.3 118.9 L 31.9 115.6 L 35.2 112.3 L 38.3 108.9 L 41.0 105.3 L 43.5 101.7 L 45.045945930480954 99.1 L 17.4 99.1 L 17.4 95.1 L 50.8 95.1 L 50.8 65.7 L 62.8 67.7 L 65.8 69.7 L 62.8 71.5 L 62.8 95.1 L 72.2 95.1 L 82.2 85.1 L 94.2 95.1 L 94.2 99.1 L 62.8 99.1 L 62.8 102.63000001907349 L 64.9 103.4 L 68.0 104.1 L 71.0 105.0 L 73.9 106.0 L 76.7 107.1 L 79.4 108.3 L 82.0 109.6 L 84.5 110.9 L 87.0 112.4 L 89.3 113.9 L 91.2 118.1 L 89.7 122.4 L 85.5 124.3 L 81.2 122.8 L 79.7 120.9 Z M 125.2 79.9 L 127.2 83.0 L 122.90291967391968 83.51861314773559 L 121.0 86.2 L 118.4 89.0 L 115.5 91.7 L 112.4 94.2 L 109.0 96.5 L 105.3 98.7 L 101.4 100.7 L 97.1 102.5 L 92.7 104.2 L 91.8 102.6 L 95.6 99.8 L 98.9 96.9 L 101.9 94.0 L 104.6 91.2 L 107.0 88.4 L 109.0 85.7 L 110.8 83.0 L 112.2 80.3 L 113.4 77.7 L 113.90120477676392 76.13373489379883 L 113.8 76.1 L 114.7 73.9 Z M 166.7 98.2 L 163.1 95.5 L 159.8 92.6 L 156.9 89.6 L 154.5 86.5 L 152.4 83.2 L 151.06265058517457 80.168674659729 L 150.2 80.6 L 150.2 77.0777777671814 L 150.0 76.3 L 149.54117650985717 73.7 L 121.1 73.7 L 121.1 69.7 L 145.2800000190735 69.7 L 150.2 65.6 L 161.2 74.6 L 156.2 77.6 L 155.836923122406 77.78153848648071 L 157.5 79.3 L 160.0 81.3 L 162.7 83.1 L 165.6 84.9 L 168.8 86.6 L 172.3 88.1 L 176.1 89.6 L 180.2 91.0 L 186.6 93.6 L 175.2 103.2 L 170.8 100.8 Z M 89.9 77.3 L 91.3 80.6 L 86.8676420211792 80.37074012756348 L 86.1 81.1 L 84.2 82.9 L 82.1 84.7 L 77.9 87.9 L 75.7 89.4 L 73.4 90.8 L 71.0 92.0 L 68.9 93.5 L 67.7 92.2 L 69.3 90.3 L 70.6 88.0 L 72.0 85.8 L 73.2 83.6 L 74.5 81.4 L 75.7 79.3 L 79.0 72.7 L 79.59372749328614 71.45317230224609 L 79.5 71.4 L 80.5 69.8 Z M 34.6 87.8 L 34.2 86.5 L 33.6 85.0 L 32.8 83.4 L 31.8 81.7 L 30.6 79.9 L 29.1 78.0 L 27.5 76.0 L 25.4 74.4 L 26.4 72.9 L 28.8 74.2 L 31.3 75.0 L 33.6 76.0 L 35.8 77.1 L 37.9 78.3 L 39.8 79.5 L 41.5 80.9 L 43.1 82.4 L 44.6 84.0 L 45.9 85.8 L 45.7 90.3 L 42.5 93.5 L 37.9 93.4 L 34.7 90.1 L 34.7 89.1 Z M 149.9 72.7235294342041 L 150.2 72.61764707565308 L 150.2 72.6 L 149.9 72.5 Z M 163.8 21.4 L 158.8 25.4 L 158.8 34.8 L 167.21818180084227 34.8 L 175.4 25.8 L 185.4 34.8 L 185.4 38.8 L 158.8 38.8 L 158.8 57.3 L 146.8 63.3 L 146.8 57.3 L 37.6 57.3 L 37.6 53.3 L 146.8 53.3 L 146.8 38.8 L 18.4 38.8 L 18.4 34.8 L 146.8 34.8 L 146.8 21.4 L 39.5 21.4 L 39.5 17.4 L 146.8 17.4 L 152.8 12.4 Z " />
</g>
</svg>
