<svg xmlns="http://www.w3.org/2000/svg" xmlns:xlink="http://www.w3.org/1999/xlink" version="1.1" baseProfile="full" viewBox="0 0 200 200" width="200" height="200">
<g fill="black">
<path d="M 46.0 54.0 L 99.27570848464966 54.0 L 98.4 43.7 L 97.91863059997559 17.8986026763916 L 97.9 17.9 L 97.91141548156739 17.51187210083008 L 97.9 16.9 L 97.92940454483032 16.900244998931885 L 98.0 14.5 L 109.9 17.0 L 112.9 19.1 L 109.97275485992432 20.79780216217041 L 110.4 43.1 L 111.31596641540527 54.0 L 163.0 54.0 L 173.0 44.0 L 185.0 54.0 L 185.0 58.0 L 111.65210084915161 58.0 L 112.4 66.9 L 116.0 88.4 L 121.2 107.5 L 127.9 124.4 L 130.01107549667358 128.1329993247986 L 135.4 120.7 L 143.2 107.7 L 150.0 93.8 L 155.63591327667237 79.71021671295166 L 155.6 79.7 L 156.5 77.4 L 167.2 83.0 L 169.3 85.9 L 165.62691555023193 86.60884084701539 L 160.4 98.6 L 152.5 113.1 L 143.7 126.4 L 135.0915090560913 137.1166928291321 L 136.1 138.9 L 145.7 151.2 L 156.9 161.3 L 169.5 169.3 L 176.8466601371765 172.33113946914673 L 182.0 150.0 L 184.0 150.0 L 182.1150156021118 174.50479669570922 L 183.8 175.2 L 187.2 178.3 L 187.7 182.8 L 184.6 186.2 L 180.1 186.7 L 164.0 180.0 L 149.6 170.8 L 136.9 159.4 L 126.54096384048462 146.16345376968383 L 123.1 149.7 L 111.4 159.6 L 98.7 168.3 L 85.1 175.8 L 70.6 182.0 L 55.2 186.8 L 54.7 185.1 L 69.1 178.5 L 82.6 171.1 L 95.1 162.8 L 106.6 153.7 L 117.1 143.7 L 121.91055526733399 138.1879054069519 L 117.0 129.5 L 109.8 111.3 L 104.3 90.9 L 100.5 68.4 L 99.61578950881957 58.0 L 46.0 58.0 L 46.0 105.0 L 45.4 115.6 L 44.2 125.8 L 42.5 135.5 L 40.1 144.6 L 37.2 153.3 L 33.7 161.4 L 29.6 168.9 L 24.9 175.8 L 19.6 182.1 L 13.6 187.6 L 12.3 186.3 L 16.6 179.7 L 20.4 172.9 L 23.8 165.9 L 26.7 158.4 L 29.2 150.6 L 31.1 142.4 L 32.6 133.7 L 33.5 124.6 L 34.0 115.0 L 34.0 48.0 Z M 145.9 39.8 L 144.4 37.5 L 142.6 35.1 L 140.6 32.7 L 138.2 30.2 L 135.7 27.7 L 132.9 25.2 L 129.9 22.6 L 126.4 20.2 L 127.2 18.6 L 131.2 20.1 L 135.2 21.5 L 138.8 23.0 L 142.3 24.8 L 145.5 26.7 L 148.5 28.7 L 151.4 30.9 L 154.0 33.2 L 156.4 35.7 L 158.6 38.3 L 159.2 42.8 L 156.5 46.5 L 152.0 47.1 L 148.3 44.5 L 147.2 42.2 Z " />
</g>
</svg>
