<svg xmlns="http://www.w3.org/2000/svg" xmlns:xlink="http://www.w3.org/1999/xlink" version="1.1" baseProfile="full" viewBox="0 0 200 200" width="200" height="200">
<g fill="black">
<path d="M 152.8 175.4 L 141.0 164.8 L 130.6 151.5 L 129.59475898742676 149.72407426834107 L 122.1 156.6 L 110.2 165.8 L 97.3 174.1 L 83.3 181.4 L 68.3 187.8 L 67.6 186.1 L 81.5 178.1 L 94.4 169.6 L 106.3 160.6 L 117.0 151.0 L 125.37998542785644 142.277974319458 L 121.6 135.6 L 113.9 117.0 L 107.6 95.8 L 102.5 72.0 L 100.14528303146362 56.0 L 47.0 56.0 L 47.0 155.82941179275514 L 48.8 155.3 L 57.5 152.6 L 66.3 149.9 L 75.2 147.2 L 84.1 144.4 L 93.3 141.7 L 102.6 139.1 L 103.3 140.8 L 94.7 145.3 L 86.1 149.4 L 77.5 153.4 L 68.9 157.1 L 60.4 160.6 L 51.9 164.0 L 43.5 167.3 L 35.2 170.5 L 26.9 173.5 L 22.545736408233644 175.03992252349855 L 21.5 178.7 L 18.7 176.4 L 13.2 165.5 L 15.1 164.9 L 23.4 162.6 L 31.8 160.3 L 35.0 159.3588234901428 L 35.0 46.0 L 47.0 52.0 L 99.55660381317139 52.0 L 98.6 45.5 L 96.0 16.3 L 96.03736381530761 16.297820472717284 L 95.9 14.1 L 108.0 15.6 L 111.1 17.4 L 108.33747425079346 19.299236488342284 L 110.6 44.1 L 111.732945728302 52.0 L 161.0 52.0 L 171.0 42.0 L 183.0 52.0 L 183.0 56.0 L 112.30658912658691 56.0 L 114.3 69.9 L 119.2 92.8 L 125.2 113.0 L 132.4 130.3 L 133.54199514389038 132.33330841064452 L 135.4 130.0 L 143.1 118.5 L 149.7 106.4 L 155.3 93.6 L 159.70285711288452 80.67857141494751 L 160.4 78.5 L 171.4 83.7 L 173.6 86.5 L 169.9413953781128 87.39860467910766 L 165.8 97.9 L 159.2 111.3 L 151.5 123.9 L 142.8 135.7 L 138.26550807952881 140.7434655189514 L 140.6 144.9 L 149.7 156.6 L 159.9 165.7 L 171.0 172.1 L 176.69953107833862 173.96869869232177 L 182.0 151.0 L 184.0 151.0 L 182.09704799652098 175.7383764266968 L 183.2 176.1 L 186.9 178.7 L 187.8 183.2 L 185.2 186.9 L 180.7 187.8 L 166.1 183.1 Z M 142.2 38.2 L 140.9 35.5 L 139.4 32.9 L 137.6 30.4 L 135.7 27.9 L 133.5 25.4 L 131.1 22.9 L 128.5 20.4 L 125.4 18.2 L 126.2 16.6 L 129.9 18.0 L 133.5 19.3 L 136.9 20.9 L 140.1 22.8 L 143.1 24.9 L 145.9 27.2 L 148.6 29.8 L 151.0 32.6 L 153.2 35.6 L 155.2 38.8 L 155.3 43.3 L 152.2 46.7 L 147.6 46.8 L 144.2 43.6 L 143.3 40.9 Z " />
</g>
</svg>
