<svg xmlns="http://www.w3.org/2000/svg" xmlns:xlink="http://www.w3.org/1999/xlink" version="1.1" baseProfile="full" viewBox="0 0 200 200" width="200" height="200">
<g fill="black">
<path d="M 70.0 177.0 L 90.0 177.0 L 91.2 176.9 L 92.1 176.7 L 93.0 176.4 L 93.4 176.0 L 93.7 175.1 L 93.9 174.2 L 94.0 173.0 L 94.0 147.0 L 22.0 147.0 L 22.0 143.0 L 94.0 143.0 L 94.0 120.0 L 49.0 120.0 L 49.0 116.0 L 94.0 116.0 L 94.0 93.51999998092651 L 87.6 94.8 L 80.6 96.1 L 73.5 97.2 L 66.4 98.2 L 59.2 98.8 L 58.7 97.1 L 65.5 94.5 L 72.2 92.0 L 79.0 89.7 L 85.7 87.5 L 92.3 85.2 L 99.0 82.9 L 105.6 80.6 L 112.1 78.3 L 118.7 75.9 L 125.2 73.5 L 125.72834644317626 75.18777341842652 L 135.0 83.0 L 135.2 86.1 L 131.13491773605347 84.24680070877075 L 128.8 85.0 L 122.1 86.8 L 115.3 88.6 L 108.4 90.2 L 106.0 90.79130430221558 L 106.0 116.0 L 129.0 116.0 L 139.0 106.0 L 151.0 116.0 L 151.0 120.0 L 106.0 120.0 L 106.0 143.0 L 160.0 143.0 L 170.0 133.0 L 182.0 143.0 L 182.0 147.0 L 106.0 147.0 L 106.0 173.0 L 105.8 175.5 L 105.4 178.0 L 104.6 180.4 L 103.3 182.7 L 101.7 184.7 L 99.7 186.3 L 97.4 187.6 L 95.0 188.4 L 92.5 188.8 L 90.0 189.0 L 90.0 183.0 L 70.0 180.0 Z M 162.0 103.2 L 155.8 98.7 L 150.0 93.9 L 144.3 88.7 L 139.0 83.4 L 133.9 77.7 L 129.1 71.7 L 124.7 65.4 L 121.2014705657959 59.3 L 84.71481485366822 59.3 L 84.3 60.0 L 79.9 67.2 L 75.0 74.1 L 69.5 80.7 L 63.4 87.0 L 56.8 92.9 L 49.7 98.6 L 42.0 103.8 L 33.7 108.7 L 24.8 113.2 L 15.4 117.2 L 14.5 115.6 L 22.9 109.9 L 30.8 104.2 L 38.1 98.5 L 44.9 92.7 L 51.1 86.7 L 56.7 80.6 L 61.8 74.3 L 66.3 67.9 L 70.2 61.3 L 71.2 59.3 L 22.0 59.3 L 22.0 55.3 L 122.11666669845582 55.3 L 124.1 51.9 L 126.8 47.2 L 129.5 42.8 L 132.2 38.5 L 134.7 34.3 L 137.1 30.3 L 139.3 26.4 L 141.5 22.6 L 143.5 18.9 L 144.8800000190735 16.13999996185303 L 144.8 16.1 L 145.8 14.4 L 155.6 21.5 L 157.1 24.7 L 153.2470588684082 24.7 L 153.1 24.9 L 150.4 28.5 L 147.6 32.0 L 144.6 35.6 L 141.5 39.3 L 138.1 43.0 L 134.6 46.7 L 130.9 50.5 L 126.9 54.2 L 125.62162160873413 55.3 L 156.0 55.3 L 166.0 45.3 L 178.0 55.3 L 178.0 59.3 L 124.2384614944458 59.3 L 127.9 62.7 L 133.5 67.7 L 139.0 72.6 L 144.6 77.2 L 150.4 81.6 L 156.2 85.8 L 162.2 89.6 L 168.3 93.3 L 174.6 96.7 L 181.0 99.8 L 186.2 102.5 L 174.9 111.5 L 168.3 107.5 Z M 53.1 41.6 L 52.4 39.4 L 51.4 37.1 L 50.2 34.8 L 48.5 32.3 L 46.5 29.8 L 44.2 27.2 L 41.6 24.5 L 38.4 22.0 L 39.3 20.5 L 43.0 22.2 L 46.7 23.8 L 50.0 25.5 L 53.1 27.5 L 55.9 29.7 L 58.4 32.1 L 60.6 34.6 L 62.5 37.4 L 64.1 40.4 L 65.3 43.6 L 64.3 48.0 L 60.5 50.6 L 56.0 49.6 L 53.5 45.8 L 53.4 43.7 Z M 90.7 33.8 L 90.0 31.4 L 89.0 29.0 L 87.8 26.6 L 86.3 24.2 L 84.6 21.7 L 82.5 19.3 L 80.2 16.7 L 77.4 14.5 L 78.3 12.9 L 81.6 14.5 L 85.0 15.9 L 88.1 17.6 L 91.0 19.6 L 93.7 21.7 L 96.1 24.1 L 98.3 26.7 L 100.2 29.6 L 101.8 32.6 L 103.1 35.8 L 102.3 40.3 L 98.6 43.0 L 94.1 42.2 L 91.4 38.5 L 91.2 36.1 Z " />
</g>
</svg>
