<svg xmlns="http://www.w3.org/2000/svg" xmlns:xlink="http://www.w3.org/1999/xlink" version="1.1" baseProfile="full" viewBox="0 0 200 200" width="200" height="200">
<g fill="black">
<path d="M 54.2 100.3 L 144.7 100.3 L 150.7 95.3 L 161.7 104.3 L 156.7 108.3 L 156.7 177.4 L 144.7 183.4 L 144.7 173.4 L 54.2 173.4 L 54.2 180.4 L 42.2 186.4 L 42.2 94.3 Z M 54.2 138.9 L 54.2 169.4 L 144.7 169.4 L 144.7 138.9 Z M 54.2 104.3 L 54.2 134.9 L 144.7 134.9 L 144.7 104.3 Z M 165.0 57.0 L 167.0 57.0 L 165.0 74.0 L 168.0 76.0 L 170.0 79.0 L 168.0 82.0 L 165.0 84.0 L 49.0 84.0 L 46.5 83.9 L 44.1 83.6 L 41.8 82.9 L 39.6 81.8 L 37.6 80.3 L 35.9 78.5 L 34.6 76.3 L 33.7 74.0 L 33.2 71.5 L 33.0 69.0 L 33.0 12.0 L 45.0 14.0 L 48.0 16.0 L 45.0 17.8 L 45.0 44.97760000228882 L 51.4 43.8 L 63.5 41.7 L 75.2 39.6 L 86.6 37.5 L 97.5 35.3 L 108.1 33.1 L 118.3 30.8 L 128.1 28.4 L 137.5 26.0 L 145.52831859588622 23.680707931518555 L 145.5 23.6 L 145.57920789718628 23.666006565093994 L 146.5 23.4 L 146.84065933227538 24.717216110229494 L 156.9 33.1 L 157.1 36.1 L 152.87108945846558 34.1344500541687 L 149.5 35.0 L 140.1 37.0 L 130.3 38.9 L 120.2 40.7 L 109.7 42.3 L 98.9 43.7 L 87.7 45.0 L 76.1 46.1 L 64.1 47.0 L 51.8 47.6 L 45.0 47.70625 L 45.0 69.0 L 44.9 70.2 L 45.0 71.1 L 45.1 71.8 L 45.3 72.6 L 45.5 72.9 L 45.9 73.2 L 46.6 73.5 L 47.6 73.8 L 49.0 74.0 L 160.0 74.0 Z " />
</g>
</svg>
