<svg xmlns="http://www.w3.org/2000/svg" xmlns:xlink="http://www.w3.org/1999/xlink" version="1.1" baseProfile="full" viewBox="0 0 200 200" width="200" height="200">
<g fill="black">
<path d="M 156.2 179.0 L 154.5 180.9 L 152.7 182.5 L 150.7 183.9 L 148.6 185.0 L 146.3 185.9 L 143.9 186.5 L 141.5 186.8 L 139.0 187.0 L 139.0 181.0 L 119.0 178.0 L 119.0 175.0 L 139.0 175.0 L 140.3 174.9 L 141.6 174.7 L 143.6 174.1 L 144.5 173.6 L 146.1 172.4 L 146.8 171.5 L 147.5 170.5 L 148.2 169.3 L 149.6 166.3 L 150.9 162.8 L 152.1 158.9 L 153.2 154.4 L 154.2 149.5 L 155.0 144.0 L 155.7 138.2 L 156.3 131.8 L 156.7 125.0 L 156.9083333015442 120.0 L 137.55652170181276 120.0 L 134.4 128.8 L 130.3 137.4 L 125.6 145.7 L 120.2 153.4 L 114.2 160.7 L 107.5 167.4 L 100.2 173.6 L 92.3 179.3 L 83.7 184.3 L 74.4 188.7 L 73.5 187.2 L 81.6 181.2 L 89.1 175.0 L 95.9 168.7 L 102.1 162.1 L 107.7 155.2 L 112.6 148.1 L 116.9 140.6 L 120.6 132.9 L 123.7 124.7 L 125.03283586502076 120.0 L 102.64615383148194 120.0 L 102.3 120.6 L 97.1 129.5 L 91.2 137.8 L 84.7 145.6 L 77.5 152.9 L 69.7 159.7 L 61.3 165.9 L 52.2 171.5 L 42.6 176.6 L 32.2 181.0 L 21.3 184.8 L 20.6 183.1 L 30.6 177.6 L 40.0 171.9 L 48.7 166.0 L 56.8 159.8 L 64.2 153.2 L 70.9 146.4 L 77.0 139.1 L 82.5 131.5 L 87.4 123.6 L 89.2 120.0 L 64.25522384643554 120.0 L 64.0 120.3 L 57.8 126.5 L 51.3 132.3 L 44.5 137.7 L 37.2 142.5 L 29.7 146.9 L 21.7 150.6 L 13.3 153.8 L 12.6 152.1 L 19.9 147.3 L 26.8 142.3 L 33.4 137.2 L 39.7 131.8 L 45.6 126.1 L 51.1 120.1 L 56.3 113.8 L 61.1 107.2 L 65.6 100.2 L 66.85714282989503 98.0 L 14.0 98.0 L 14.0 94.0 L 167.8181818008423 94.0 L 176.0 85.0 L 186.0 94.0 L 186.0 98.0 L 80.76666669845581 98.0 L 75.1 106.5 L 69.7 113.6 L 67.65820894241332 116.0 L 157.0 116.0 L 163.0 111.0 L 174.0 120.0 L 169.0 123.0 L 168.76674156188966 123.09719104766846 L 168.7 125.6 L 168.2 132.7 L 167.7 139.4 L 166.9 145.7 L 166.0 151.5 L 165.0 157.0 L 163.7 162.0 L 162.3 166.7 L 160.7 170.9 L 158.9 174.8 L 157.6 177.0 Z M 56.0 22.0 L 144.0 22.0 L 150.0 17.0 L 161.0 26.0 L 156.0 30.0 L 156.0 77.5 L 144.0 83.5 L 144.0 75.5 L 56.0 75.5 L 56.0 78.5 L 44.0 84.5 L 44.0 16.0 Z M 56.0 50.7 L 56.0 71.5 L 144.0 71.5 L 144.0 50.7 Z M 56.0 26.0 L 56.0 46.7 L 144.0 46.7 L 144.0 26.0 Z " />
</g>
</svg>
