<svg xmlns="http://www.w3.org/2000/svg" xmlns:xlink="http://www.w3.org/1999/xlink" version="1.1" baseProfile="full" viewBox="0 0 200 200" width="200" height="200">
<g fill="black">
<path d="M 68.2 147.0 L 68.2 172.4 L 130.7 172.4 L 130.7 147.0 Z M 68.2 117.6 L 68.2 143.0 L 130.7 143.0 L 130.7 117.6 Z M 157.1 126.6 L 148.7 120.2 L 146.69540586471558 118.403675365448 L 142.7 121.6 L 142.7 180.4 L 130.7 186.4 L 130.7 176.4 L 68.2 176.4 L 68.2 183.4 L 56.2 189.4 L 56.2 115.2 L 43.3 125.0 L 29.0 133.6 L 13.3 140.9 L 12.6 139.3 L 27.1 130.3 L 40.1 120.7 L 51.7 110.3 L 61.9 99.2 L 68.5 90.2 L 15.0 90.2 L 15.0 86.2 L 71.278125 86.2 L 78.1 74.4 L 82.34817514419555 64.7 L 34.0 64.7 L 34.0 60.7 L 84.1 60.7 L 88.7 46.1 L 90.16903228759766 39.2 L 27.0 39.2 L 27.0 35.2 L 91.02064514160156 35.2 L 92.0 30.6 L 93.8797872543335 14.27553195953369 L 94.1 12.0 L 105.8 15.2 L 108.6 17.5 L 105.21661539077759 19.126627254486085 L 103.2 32.7 L 102.55975608825683 35.2 L 151.0 35.2 L 161.0 25.2 L 173.0 35.2 L 173.0 39.2 L 101.53536586761474 39.2 L 99.0 49.1 L 94.78181819915771 60.7 L 144.0 60.7 L 154.0 50.7 L 166.0 60.7 L 166.0 64.7 L 114.89506168365479 64.7 L 118.7 71.4 L 123.5 79.1 L 128.7263889312744 86.2 L 163.0 86.2 L 173.0 76.2 L 185.0 86.2 L 185.0 90.2 L 132.0782608985901 90.2 L 134.6 93.2 L 140.9 99.6 L 147.8 105.7 L 155.4 111.4 L 163.6 116.8 L 172.4 121.7 L 181.9 126.3 L 187.4 129.0 L 176.0 138.2 L 166.2 132.6 Z M 78.92857141494751 90.2 L 77.7 92.1 L 67.6 104.2 L 61.388023948669435 110.19401197433471 L 68.2 113.6 L 130.7 113.6 L 136.6222798347473 108.66476688385009 L 134.2 106.1 L 128.1 98.4 L 122.8 90.4 L 122.69411764144897 90.2 Z M 93.30069932937622 64.7 L 86.3 78.8 L 81.51503763198852 86.2 L 120.5764705657959 86.2 L 118.3 81.9 L 114.9 73.1 L 112.61739130020142 64.7 Z " />
</g>
</svg>
