<svg xmlns="http://www.w3.org/2000/svg" xmlns:xlink="http://www.w3.org/1999/xlink" version="1.1" baseProfile="full" viewBox="0 0 200 200" width="200" height="200">
<g fill="black">
<path d="M 140.6 184.6 L 126.7 180.7 L 113.8 176.0 L 101.9 170.7 L 101.08770189285278 170.24541120529176 L 99.6 170.9 L 85.9 175.7 L 71.0 179.7 L 54.9 182.9 L 37.6 185.3 L 19.0 186.7 L 18.9 184.9 L 37.0 181.5 L 53.8 177.7 L 69.3 173.4 L 83.5 168.5 L 91.7498028755188 165.01961441040038 L 91.0 164.6 L 81.2 157.8 L 72.5 150.2 L 65.0 141.9 L 59.481318664550784 133.8 L 34.0 133.8 L 34.0 129.8 L 138.9375 129.8 L 140.1 128.3 L 140.47513809204102 128.5707181930542 L 145.0 124.8 L 156.0 133.8 L 151.0 136.8 L 147.15682821273805 138.40132160186766 L 142.3 144.1 L 133.4 152.0 L 123.4 159.1 L 113.07441415786744 164.8567425727844 L 117.3 166.4 L 129.8 170.0 L 143.1 173.0 L 157.4 175.4 L 172.7 177.1 L 183.1 178.2 L 171.2 190.2 L 155.4 187.7 Z M 62.51506853103638 133.8 L 68.0 139.0 L 76.3 145.7 L 85.3 151.8 L 95.1 157.3 L 101.68240184783936 160.31437091827394 L 107.7 157.2 L 117.8 150.8 L 126.5 143.8 L 133.9 136.3 L 135.8375 133.8 Z M 37.6 117.7 L 25.6 123.7 L 25.6 75.0 L 37.6 81.0 L 161.3 81.0 L 167.3 76.0 L 178.3 85.0 L 173.3 89.0 L 173.3 118.7 L 161.3 124.7 L 161.3 114.7 L 37.6 114.7 Z M 37.6 85.0 L 37.6 110.7 L 70.5 110.7 L 70.5 85.0 Z M 82.5 85.0 L 82.5 110.7 L 116.4 110.7 L 116.4 85.0 Z M 128.4 85.0 L 128.4 110.7 L 161.3 110.7 L 161.3 85.0 Z M 58.0 22.9 L 142.0 22.9 L 148.0 17.9 L 159.0 26.9 L 154.0 30.9 L 154.0 66.8 L 142.0 72.8 L 142.0 66.8 L 58.0 66.8 L 46.0 72.8 L 46.0 16.9 Z M 58.0 46.8 L 58.0 62.8 L 142.0 62.8 L 142.0 46.8 Z M 58.0 26.9 L 58.0 42.8 L 142.0 42.8 L 142.0 26.9 Z " />
</g>
</svg>
