<svg xmlns="http://www.w3.org/2000/svg" xmlns:xlink="http://www.w3.org/1999/xlink" version="1.1" baseProfile="full" viewBox="0 0 200 200" width="200" height="200">
<g fill="black">
<path d="M 60.0 123.1 L 139.9 123.1 L 145.9 118.1 L 156.9 127.1 L 151.9 131.1 L 151.9 180.2 L 139.9 186.2 L 139.9 176.2 L 60.0 176.2 L 60.0 183.2 L 48.0 189.2 L 48.0 117.1 Z M 60.0 151.7 L 60.0 172.2 L 139.9 172.2 L 139.9 151.7 Z M 60.0 127.1 L 60.0 147.7 L 139.9 147.7 L 139.9 127.1 Z M 170.03725490570068 65.87019605636597 L 165.5 69.5 L 165.5 113.1 L 153.5 119.1 L 153.5 107.1 L 46.5 107.1 L 46.5 119.1 L 34.5 125.1 L 34.5 63.6 L 27.2 67.1 L 19.5 70.2 L 11.3 72.8 L 10.6 71.1 L 17.9 66.7 L 24.7 62.4 L 31.0 58.0 L 36.9 53.6 L 42.2 49.1 L 47.0 44.5 L 51.3 39.7 L 55.1 34.9 L 58.4 29.9 L 60.70468883514404 25.702173900604247 L 60.7 25.7 L 60.75789470672608 25.60526313781738 L 61.2 24.8 L 61.23705883026123 24.82117643356323 L 61.8 23.9 L 71.7 30.8 L 73.3 34.0 L 69.42569675445557 34.06566619873047 L 67.8 36.4 L 63.4 41.7 L 58.6 46.6 L 53.3 51.3 L 47.5 55.7 L 42.025517272949216 59.26275863647461 L 46.5 61.5 L 153.5 61.5 L 156.56336631774903 58.947194766998294 L 154.9 58.0 L 148.5 53.6 L 142.9 48.7 L 138.3 43.6 L 134.7 38.0 L 132.0 32.3 L 130.5 26.2 L 130.24426231384277 21.0 L 72.0 21.0 L 72.0 17.0 L 126.18000001907349 17.0 L 131.1 12.9 L 142.1 21.9 L 137.1 24.9 L 135.0967212677002 25.9016393661499 L 137.3 29.6 L 140.6 33.9 L 144.5 37.9 L 149.0 41.7 L 154.3 45.1 L 160.3 48.4 L 167.0 51.4 L 174.6 54.1 L 182.9 56.6 L 190.6 59.0 L 179.0 69.3 L 170.1 65.9 Z M 46.5 65.5 L 46.5 103.1 L 94.0 103.1 L 94.0 65.5 Z M 106.0 65.5 L 106.0 103.1 L 153.5 103.1 L 153.5 65.5 Z M 143.0 78.0 L 144.0 81.4 L 139.94585990905762 80.7598726272583 L 138.3 82.2 L 135.8 84.4 L 133.2 86.6 L 130.5 88.9 L 127.6 91.1 L 124.7 93.4 L 121.6 95.6 L 118.3 97.8 L 115.0 100.2 L 113.8 98.9 L 116.2 95.8 L 118.4 92.5 L 120.6 89.4 L 122.7 86.4 L 124.8 83.5 L 126.8 80.7 L 128.7 78.0 L 130.5 75.3 L 132.2 72.8 L 133.3043137550354 71.07450981140137 L 133.2 71.0 L 134.2 69.8 Z M 69.4 90.6 L 68.2 88.3 L 66.9 86.0 L 65.5 83.7 L 63.8 81.4 L 62.0 79.0 L 60.0 76.7 L 57.8 74.3 L 55.3 72.2 L 56.2 70.6 L 59.3 72.1 L 62.4 73.4 L 65.4 74.9 L 68.2 76.5 L 70.9 78.4 L 73.4 80.4 L 75.7 82.6 L 78.0 84.9 L 80.0 87.3 L 81.9 89.9 L 82.1 94.5 L 79.2 98.0 L 74.6 98.3 L 71.1 95.3 L 70.3 93.0 Z M 131.0 19.96666669845581 L 131.1 19.95 L 131.1 19.9 L 131.0 19.86666669845581 Z " />
</g>
</svg>
