<svg xmlns="http://www.w3.org/2000/svg" xmlns:xlink="http://www.w3.org/1999/xlink" version="1.1" baseProfile="full" viewBox="0 0 200 200" width="200" height="200">
<g fill="black">
<path d="M 54.4 113.1 L 145.5 113.1 L 151.5 108.1 L 162.5 117.1 L 157.5 121.1 L 157.5 177.6 L 145.5 183.6 L 145.5 173.6 L 54.4 173.6 L 54.4 180.6 L 42.4 186.6 L 42.4 107.1 Z M 54.4 145.4 L 54.4 169.6 L 145.5 169.6 L 145.5 145.4 Z M 54.4 117.1 L 54.4 141.4 L 145.5 141.4 L 145.5 117.1 Z M 78.9 94.0 L 76.8 91.4 L 74.5 88.9 L 71.9 86.4 L 69.1 83.9 L 66.1 81.5 L 62.9 79.1 L 59.4 76.6 L 56.95968074798584 75.12296466827392 L 54.9 80.3 L 50.1 89.0 L 44.5 97.1 L 37.8 104.4 L 30.3 111.1 L 21.8 116.9 L 12.4 121.9 L 11.5 120.4 L 19.6 113.8 L 26.7 107.1 L 33.0 100.0 L 38.3 92.6 L 42.8 84.9 L 46.3 76.7 L 49.0 68.1 L 49.019999980926514 68.0 L 13.0 68.0 L 13.0 64.0 L 49.81999998092651 64.0 L 50.8 59.1 L 51.8 49.6 L 51.96000003814697 41.6 L 19.0 41.6 L 19.0 37.6 L 52.0 37.6 L 52.0 14.6 L 64.0 16.6 L 67.0 18.6 L 64.0 20.4 L 64.0 37.6 L 75.0 37.6 L 85.0 27.6 L 97.0 37.6 L 97.0 41.6 L 63.854545497894286 41.6 L 63.2 50.6 L 61.4 61.1 L 60.57979793548584 64.0 L 77.0 64.0 L 87.0 54.0 L 99.0 64.0 L 99.0 68.0 L 59.44848480224609 68.0 L 58.6 71.0 L 57.76772613525391 73.09193153381348 L 60.6 73.8 L 64.9 74.9 L 69.0 76.3 L 72.9 78.0 L 76.6 79.9 L 80.1 82.0 L 83.4 84.3 L 86.5 86.8 L 89.4 89.5 L 92.1 92.4 L 93.1 96.9 L 90.7 100.8 L 86.2 101.8 L 82.3 99.4 L 80.7 96.7 Z M 165.8 105.8 L 161.2 101.9 L 157.0 97.8 L 153.2 93.4 L 149.7 88.7 L 146.6 83.7 L 144.0 78.5 L 142.0 73.0 L 140.70689659118653 68.0 L 140.55764703750611 68.0 L 139.7 70.7 L 136.1 78.5 L 131.4 85.5 L 125.9 91.7 L 119.5 97.0 L 112.2 101.5 L 104.1 105.0 L 95.3 107.6 L 94.6 105.9 L 102.5 101.6 L 109.4 96.9 L 115.3 91.9 L 120.3 86.5 L 124.5 80.6 L 127.8 74.3 L 129.99130430221558 68.0 L 103.0 68.0 L 103.0 64.0 L 130.97066669464112 64.0 L 131.9 59.9 L 132.8 51.9 L 133.0 43.2 L 133.0 41.6 L 105.0 41.6 L 105.0 37.6 L 133.0 37.6 L 133.0 14.6 L 145.0 16.6 L 148.0 18.6 L 145.0 20.4 L 145.0 37.6 L 159.0 37.6 L 169.0 27.6 L 181.0 37.6 L 181.0 41.6 L 145.0 41.6 L 145.0 43.2 L 144.2 53.0 L 142.4 62.2 L 141.8282353401184 64.0 L 165.0 64.0 L 175.0 54.0 L 187.0 64.0 L 187.0 68.0 L 143.34130430221558 68.0 L 145.7 71.1 L 149.1 75.5 L 152.6 79.6 L 156.2 83.4 L 159.9 87.0 L 163.9 90.3 L 168.1 93.3 L 172.5 96.1 L 177.1 98.6 L 181.9 100.9 L 187.3 103.6 L 176.0 112.6 L 170.7 109.4 Z " />
</g>
</svg>
