<svg xmlns="http://www.w3.org/2000/svg" xmlns:xlink="http://www.w3.org/1999/xlink" version="1.1" baseProfile="full" viewBox="0 0 200 200" width="200" height="200">
<g fill="black">
<path d="M 54.0 113.0 L 146.0 113.0 L 152.0 108.0 L 163.0 117.0 L 158.0 121.0 L 158.0 178.0 L 146.0 184.0 L 146.0 174.0 L 54.0 174.0 L 54.0 181.0 L 42.0 187.0 L 42.0 107.0 Z M 54.0 145.0 L 54.0 170.0 L 146.0 170.0 L 146.0 145.0 Z M 54.0 117.0 L 54.0 141.0 L 146.0 141.0 L 146.0 117.0 Z M 70.6 107.5 L 68.1 107.2 L 65.7 106.4 L 63.4 105.3 L 61.3 103.7 L 59.6 101.7 L 58.3 99.4 L 57.5 97.0 L 57.1 94.5 L 57.0 92.0 L 57.0 75.42162160873413 L 54.9 80.7 L 50.1 89.3 L 44.5 97.3 L 37.8 104.5 L 30.3 111.1 L 21.8 116.8 L 12.4 121.7 L 11.5 120.2 L 19.6 113.7 L 26.7 107.1 L 33.0 100.1 L 38.3 92.8 L 42.8 85.1 L 46.3 77.0 L 49.0 68.5 L 49.1 68.0 L 13.0 68.0 L 13.0 64.0 L 49.9 64.0 L 50.8 59.5 L 51.8 50.0 L 51.96000003814697 42.0 L 19.0 42.0 L 19.0 38.0 L 52.0 38.0 L 52.0 15.0 L 64.0 17.0 L 67.0 19.0 L 64.0 20.8 L 64.0 38.0 L 75.0 38.0 L 85.0 28.0 L 97.0 38.0 L 97.0 42.0 L 63.854545497894286 42.0 L 63.2 51.0 L 61.4 61.5 L 60.6929292678833 64.0 L 77.0 64.0 L 87.0 54.0 L 99.0 64.0 L 99.0 68.0 L 69.0 68.0 L 69.0 93.2 L 69.2 94.1 L 69.3 94.6 L 69.5 94.9 L 69.7 95.1 L 70.0 95.3 L 70.6 95.4 L 71.5 95.5 L 72.7 95.5 L 80.889404296875 95.20752124786377 L 85.7 70.0 L 87.7 69.9 L 86.73766622543334 95.0169114112854 L 91.6 97.2 L 92.9 100.7 L 91.9 104.3 L 87.2 106.9 L 73.2 107.5 Z M 177.0 83.5 L 179.0 83.5 L 177.0 96.5 L 179.7 98.3 L 181.5 101.0 L 179.7 103.7 L 177.0 105.5 L 150.5 105.5 L 148.2 105.2 L 145.9 104.6 L 143.7 103.6 L 141.7 102.2 L 140.1 100.3 L 138.7 98.2 L 137.8 95.9 L 137.2 93.5 L 137.0 91.0 L 137.0 76.35 L 136.1 78.3 L 131.4 85.4 L 125.9 91.6 L 119.5 97.0 L 112.2 101.5 L 104.1 105.1 L 95.3 107.8 L 94.6 106.1 L 102.5 101.7 L 109.3 97.0 L 115.3 91.9 L 120.3 86.5 L 124.5 80.5 L 127.8 74.2 L 129.925714302063 68.0 L 103.0 68.0 L 103.0 64.0 L 130.93513517379762 64.0 L 131.9 59.8 L 132.8 51.7 L 133.0 43.0 L 133.0 42.0 L 105.0 42.0 L 105.0 38.0 L 133.0 38.0 L 133.0 15.0 L 145.0 17.0 L 148.0 19.0 L 145.0 20.8 L 145.0 38.0 L 159.0 38.0 L 169.0 28.0 L 181.0 38.0 L 181.0 42.0 L 145.0 42.0 L 145.0 43.0 L 144.2 52.8 L 142.4 62.0 L 141.76470584869384 64.0 L 165.0 64.0 L 175.0 54.0 L 187.0 64.0 L 187.0 68.0 L 149.0 68.0 L 149.0 91.0 L 148.9 92.2 L 148.9 93.2 L 149.0 93.9 L 149.0 94.4 L 149.2 94.7 L 149.4 95.1 L 149.8 95.5 L 150.5 95.9 L 151.6 96.2 L 153.0 96.5 L 172.5 96.5 Z " />
</g>
</svg>
