<svg xmlns="http://www.w3.org/2000/svg" xmlns:xlink="http://www.w3.org/1999/xlink" version="1.1" baseProfile="full" viewBox="0 0 200 200" width="200" height="200">
<g fill="black">
<path d="M 59.0 111.0 L 140.0 111.0 L 146.0 106.0 L 157.0 115.0 L 152.0 119.0 L 152.0 179.0 L 140.0 185.0 L 140.0 175.0 L 59.0 175.0 L 59.0 182.0 L 47.0 188.0 L 47.0 105.0 Z M 59.0 145.0 L 59.0 171.0 L 140.0 171.0 L 140.0 145.0 Z M 59.0 115.0 L 59.0 141.0 L 140.0 141.0 L 140.0 115.0 Z M 84.2 94.1 L 81.8 91.8 L 79.2 89.5 L 76.5 87.4 L 73.7 85.4 L 70.7 83.4 L 67.5 81.5 L 64.2 79.6 L 62.424503326416016 78.83907289505005 L 61.9 79.3 L 55.2 84.7 L 48.3 89.7 L 41.3 94.2 L 34.2 98.3 L 26.8 101.8 L 19.4 104.8 L 18.5 103.1 L 24.9 98.5 L 31.3 93.8 L 37.5 88.8 L 43.7 83.7 L 49.7 78.2 L 55.6 72.4 L 61.5 66.4 L 67.2 60.0 L 72.8 53.2 L 73.74285717010498 52.0 L 28.0 52.0 L 28.0 48.0 L 76.88571424484253 48.0 L 78.3 46.2 L 78.73704919815063 46.55245904922485 L 83.0 43.0 L 94.0 52.0 L 89.0 55.0 L 84.95622644424438 56.68490562438965 L 81.4 60.7 L 75.0 67.3 L 68.5 73.5 L 64.78905658721924 76.76113204956054 L 65.1 76.8 L 69.0 77.3 L 72.9 78.1 L 76.7 79.2 L 80.3 80.5 L 83.9 82.1 L 87.3 83.9 L 90.7 85.9 L 93.9 88.1 L 97.1 90.6 L 98.8 94.8 L 97.1 99.1 L 92.8 100.8 L 88.6 99.1 L 86.4 96.5 Z M 166.2 93.1 L 163.8 90.8 L 161.2 88.5 L 158.5 86.4 L 155.7 84.4 L 152.7 82.4 L 149.5 80.5 L 146.2 78.6 L 144.42450332641602 77.83907289505005 L 143.9 78.3 L 137.2 83.7 L 130.3 88.7 L 123.3 93.2 L 116.2 97.3 L 108.8 100.8 L 101.4 103.8 L 100.5 102.1 L 106.9 97.5 L 113.3 92.8 L 119.5 87.8 L 125.7 82.7 L 131.7 77.2 L 137.6 71.4 L 143.5 65.4 L 149.2 59.0 L 154.8 52.2 L 155.74285717010497 51.0 L 110.0 51.0 L 110.0 47.0 L 158.88571424484252 47.0 L 160.3 45.2 L 160.73704919815063 45.55245904922485 L 165.0 42.0 L 176.0 51.0 L 171.0 54.0 L 166.95622644424438 55.68490562438965 L 163.4 59.7 L 157.0 66.3 L 150.5 72.5 L 146.78905658721925 75.76113204956054 L 147.1 75.8 L 151.0 76.3 L 154.9 77.1 L 158.7 78.2 L 162.3 79.5 L 165.9 81.1 L 169.3 82.9 L 172.7 84.9 L 175.9 87.1 L 179.1 89.6 L 180.8 93.8 L 179.1 98.1 L 174.8 99.8 L 170.6 98.1 L 168.4 95.5 Z M 94.0 27.0 L 94.0 31.0 L 29.0 31.0 L 29.0 27.0 L 72.0 27.0 L 82.0 17.0 Z M 176.0 26.0 L 176.0 30.0 L 111.0 30.0 L 111.0 26.0 L 154.0 26.0 L 164.0 16.0 Z " />
</g>
</svg>
