<svg xmlns="http://www.w3.org/2000/svg" xmlns:xlink="http://www.w3.org/1999/xlink" version="1.1" baseProfile="full" viewBox="0 0 200 200" width="200" height="200">
<g fill="black">
<path d="M 79.2 75.0 L 39.6 75.0 L 39.6 114.0 L 79.2 114.0 Z M 143.8 175.0 L 159.8 175.0 L 161.0 174.9 L 161.9 174.7 L 162.5 174.5 L 162.9 174.4 L 163.1 174.2 L 163.2 174.0 L 163.4 173.7 L 163.6 173.1 L 163.7 172.2 L 163.8 171.0 L 163.8 110.12857141494752 L 162.0 111.5 L 155.7 116.0 L 149.4 120.2 L 143.1 124.1 L 136.9 127.9 L 130.7 131.4 L 124.6 134.8 L 118.6 138.1 L 112.7 141.2 L 110.47898740768433 142.2916841506958 L 109.8 146.0 L 106.8 144.1 L 100.2 133.8 L 102.0 133.0 L 108.0 130.8 L 114.1 128.4 L 120.3 125.8 L 126.6 123.1 L 133.0 120.3 L 139.5 117.4 L 146.2 114.4 L 153.1 111.3 L 160.1 108.2 L 163.8 106.67945203781127 L 163.8 32.0 L 105.5 32.0 L 105.5 28.0 L 163.8 28.0 L 169.8 23.0 L 180.8 32.0 L 175.8 36.0 L 175.8 171.0 L 175.7 173.5 L 175.2 176.0 L 174.4 178.4 L 173.2 180.7 L 171.5 182.7 L 169.5 184.3 L 167.3 185.6 L 164.9 186.4 L 162.4 186.8 L 159.8 187.0 L 159.8 181.0 L 143.8 178.0 Z M 132.9 80.7 L 131.6 76.5 L 130.0 72.5 L 128.3 68.6 L 126.3 64.8 L 124.1 61.1 L 121.8 57.4 L 119.2 53.8 L 116.4 50.3 L 117.5 48.9 L 121.6 51.3 L 125.4 54.0 L 129.0 57.1 L 132.3 60.5 L 135.3 64.2 L 138.1 68.2 L 140.6 72.4 L 142.9 76.9 L 144.9 81.6 L 146.6 86.6 L 145.9 91.1 L 142.3 93.9 L 137.7 93.1 L 135.0 89.5 L 134.0 85.0 Z M 39.6 31.0 L 39.6 71.0 L 79.2 71.0 L 79.2 31.0 Z M 90.6 176.0 L 89.8 178.4 L 88.6 180.7 L 87.0 182.7 L 84.9 184.3 L 82.7 185.6 L 80.3 186.4 L 77.8 186.8 L 75.2 187.0 L 75.2 181.0 L 55.2 178.0 L 55.2 175.0 L 75.2 175.0 L 76.4 174.9 L 77.4 174.7 L 77.9 174.5 L 78.3 174.4 L 78.5 174.2 L 78.6 174.0 L 78.8 173.7 L 79.0 173.1 L 79.1 172.2 L 79.2 171.0 L 79.2 118.0 L 39.39166669845581 118.0 L 39.1 123.6 L 38.2 132.7 L 36.9 141.4 L 35.3 149.7 L 33.2 157.5 L 30.7 164.8 L 27.8 171.6 L 24.5 177.8 L 20.7 183.5 L 16.4 188.5 L 14.9 187.4 L 17.4 181.6 L 19.7 175.5 L 21.7 169.2 L 23.5 162.5 L 25.0 155.4 L 26.1 148.0 L 27.0 140.1 L 27.5 131.8 L 27.7 123.1 L 27.6 114.0 L 27.6 21.0 L 39.6 27.0 L 79.2 27.0 L 85.2 22.0 L 96.2 31.0 L 91.2 35.0 L 91.2 171.0 L 91.1 173.5 Z " />
</g>
</svg>
