<svg xmlns="http://www.w3.org/2000/svg" xmlns:xlink="http://www.w3.org/1999/xlink" version="1.1" baseProfile="full" viewBox="0 0 200 200" width="200" height="200">
<g fill="black">
<path d="M 59.0 111.0 L 140.0 111.0 L 146.0 106.0 L 157.0 115.0 L 152.0 119.0 L 152.0 179.0 L 140.0 185.0 L 140.0 175.0 L 59.0 175.0 L 59.0 182.0 L 47.0 188.0 L 47.0 105.0 Z M 59.0 145.0 L 59.0 171.0 L 140.0 171.0 L 140.0 145.0 Z M 59.0 115.0 L 59.0 141.0 L 140.0 141.0 L 140.0 115.0 Z M 164.6 104.8 L 160.3 101.3 L 156.3 97.3 L 152.6 93.1 L 149.4 88.6 L 146.4 83.7 L 143.9 78.6 L 142.35841789245606 74.36064910888672 L 142.0 75.7 L 139.0 82.2 L 135.1 88.1 L 130.3 93.4 L 124.7 98.0 L 118.2 102.0 L 111.0 105.3 L 103.0 107.9 L 94.2 109.8 L 93.7 108.1 L 101.6 104.4 L 108.6 100.5 L 114.7 96.4 L 119.9 92.1 L 124.1 87.5 L 127.5 82.8 L 130.0 77.8 L 131.7 72.5 L 132.3140351295471 69.0 L 102.0 69.0 L 102.0 65.0 L 132.78999996185303 65.0 L 133.0 60.8 L 133.0 34.0 L 108.0 34.0 L 108.0 30.0 L 133.0 30.0 L 133.0 12.0 L 145.0 14.0 L 148.0 16.0 L 145.0 17.8 L 145.0 30.0 L 154.0 30.0 L 164.0 20.0 L 176.0 30.0 L 176.0 34.0 L 145.0 34.0 L 145.0 61.0 L 144.89166669845582 61.1625 L 144.3800000190735 65.0 L 158.0 65.0 L 168.0 55.0 L 180.0 65.0 L 180.0 69.0 L 144.0617021560669 69.0 L 145.7 71.2 L 149.0 75.6 L 152.4 79.6 L 155.9 83.3 L 159.5 86.7 L 163.2 89.8 L 167.1 92.5 L 171.1 95.0 L 175.3 97.1 L 179.7 99.0 L 185.6 101.6 L 174.2 110.9 L 169.2 108.1 Z M 79.8 94.7 L 77.5 92.4 L 75.0 90.2 L 72.3 87.9 L 69.4 85.6 L 66.3 83.3 L 62.9 80.9 L 59.4 78.5 L 57.69110631942749 77.49219093322753 L 57.1 79.1 L 53.7 85.3 L 49.5 90.8 L 44.5 95.6 L 38.7 99.6 L 32.2 102.8 L 25.0 105.2 L 17.2 106.8 L 16.7 105.1 L 23.7 101.7 L 29.7 98.1 L 35.0 94.2 L 39.3 90.1 L 42.9 85.6 L 45.7 80.7 L 47.8 75.5 L 49.2 69.8 L 49.29180326461792 69.0 L 14.0 69.0 L 14.0 65.0 L 49.75081968307495 65.0 L 49.9 63.7 L 50.0 57.0 L 50.0 35.0 L 19.0 35.0 L 19.0 31.0 L 50.0 31.0 L 50.0 14.0 L 62.0 16.0 L 65.0 18.0 L 62.0 19.8 L 62.0 31.0 L 74.0 31.0 L 84.0 21.0 L 96.0 31.0 L 96.0 35.0 L 62.0 35.0 L 62.0 57.0 L 61.2 64.9 L 61.178378391265866 65.0 L 77.0 65.0 L 87.0 55.0 L 99.0 65.0 L 99.0 69.0 L 60.31351346969605 69.0 L 59.6 72.3 L 58.555042552947995 75.14228429794312 L 60.6 75.7 L 64.9 76.8 L 68.9 78.1 L 72.8 79.6 L 76.5 81.1 L 79.9 82.8 L 83.2 84.6 L 86.4 86.5 L 89.3 88.5 L 92.1 90.6 L 93.8 94.8 L 92.1 99.1 L 87.8 100.8 L 83.6 99.1 L 81.8 96.9 Z M 31.3 55.6 L 31.0 54.0 L 30.6 52.4 L 29.9 50.6 L 29.1 48.8 L 28.0 46.9 L 26.7 45.0 L 25.3 42.9 L 23.3 41.3 L 24.3 39.8 L 26.6 41.1 L 29.1 42.1 L 31.4 43.3 L 33.5 44.6 L 35.5 46.1 L 37.4 47.7 L 39.1 49.4 L 40.6 51.3 L 41.9 53.4 L 43.0 55.6 L 42.3 60.1 L 38.7 62.9 L 34.2 62.1 L 31.4 58.5 L 31.4 57.1 Z M 116.6 53.6 L 116.2 51.7 L 115.2 47.7 L 113.8 43.5 L 113.1 41.2 L 111.9 39.3 L 113.3 38.2 L 114.9 39.9 L 116.9 41.3 L 118.7 42.9 L 120.4 44.5 L 122.0 46.1 L 123.5 47.9 L 125.0 49.6 L 126.3 51.4 L 128.7 55.2 L 128.3 59.8 L 124.9 62.8 L 120.3 62.4 L 117.3 59.0 L 117.2 57.2 Z M 91.6 43.9 L 93.1 47.2 L 88.58333330154419 47.2 L 88.3 47.5 L 86.5 49.3 L 84.6 51.1 L 82.5 53.0 L 80.4 54.8 L 78.1 56.7 L 75.6 58.6 L 73.0 60.4 L 70.6 62.6 L 69.3 61.3 L 71.2 58.8 L 72.6 56.0 L 74.0 53.3 L 75.4 50.8 L 77.8 46.0 L 78.8 43.8 L 79.8 41.7 L 80.6 39.7 L 80.95788221359253 38.67747926712036 L 80.8 38.6 L 81.8 36.8 Z M 170.4 44.1 L 171.8 47.4 L 167.16000003814696 47.23999996185303 L 163.9 50.5 L 162.1 52.2 L 158.2 56.1 L 156.0 58.1 L 153.7 60.1 L 151.7 62.5 L 150.2 61.4 L 151.7 58.7 L 152.8 55.8 L 153.9 53.1 L 155.0 50.5 L 157.0 45.7 L 157.9 43.5 L 158.8 41.4 L 159.6 39.4 L 160.01388216018677 38.4170298576355 L 159.8 38.3 L 160.9 36.7 Z " />
</g>
</svg>
