<svg xmlns="http://www.w3.org/2000/svg" xmlns:xlink="http://www.w3.org/1999/xlink" version="1.1" baseProfile="full" viewBox="0 0 200 200" width="200" height="200">
<g fill="black">
<path d="M 54.9 98.0 L 60.4 96.3 L 61.0 96.11111106872559 L 61.0 63.0 L 59.43017244338989 63.0 L 55.9 72.1 L 51.0 82.5 L 45.5 91.8 L 39.5 99.8 L 33.0 106.5 L 25.9 111.9 L 18.4 115.7 L 17.5 114.2 L 23.5 108.9 L 29.1 102.8 L 34.2 95.8 L 39.0 87.9 L 43.3 78.9 L 47.3 68.7 L 49.08125 63.0 L 22.0 63.0 L 22.0 59.0 L 33.0 59.0 L 33.0 27.0 L 45.0 33.0 L 56.339999961853025 33.0 L 56.6 31.7 L 58.743032455444336 18.00322742462158 L 58.7 18.0 L 59.2 15.0 L 70.7 18.9 L 73.4 21.3 L 69.96547842025757 22.69924955368042 L 67.97399997711182 33.0 L 73.0 33.0 L 83.0 23.0 L 95.0 33.0 L 95.0 37.0 L 67.01942443847656 37.0 L 64.3 47.8 L 60.86062994003296 59.0 L 76.0 59.0 L 86.0 49.0 L 98.0 59.0 L 98.0 63.0 L 73.0 63.0 L 76.0 65.0 L 73.0 66.8 L 73.0 92.09411764144897 L 76.1 91.0 L 81.1 89.1 L 85.9 87.1 L 90.6 85.1 L 99.8 81.1 L 104.4 79.2 L 105.5 80.7 L 101.9 84.3 L 98.0 87.7 L 93.8 90.8 L 89.4 93.8 L 84.8 96.7 L 80.0 99.4 L 75.0 102.0 L 69.8 104.6 L 64.4 107.0 L 62.671245670318605 107.72293367385865 L 61.72571430206299 111.4 L 139.5 111.4 L 145.5 106.4 L 156.5 115.4 L 151.5 119.4 L 151.5 178.5 L 139.5 184.5 L 139.5 174.5 L 58.5 174.5 L 58.5 181.5 L 46.5 187.5 L 46.5 105.4 L 58.5 111.4 L 61.572727298736574 111.4 L 58.9 109.3 L 53.0 98.6 Z M 58.5 144.9 L 58.5 170.5 L 139.5 170.5 L 139.5 144.9 Z M 58.5 115.4 L 58.5 140.9 L 139.5 140.9 L 139.5 115.4 Z M 172.0 89.0 L 174.0 89.0 L 172.0 98.0 L 174.4 99.6 L 176.0 102.0 L 174.4 104.4 L 172.0 106.0 L 151.6 106.0 L 149.3 105.8 L 147.0 105.3 L 144.9 104.3 L 142.9 103.0 L 141.2 101.2 L 139.9 99.2 L 138.9 96.9 L 138.3 94.5 L 138.0 92.0 L 138.0 63.0 L 136.0089285850525 63.0 L 132.6 71.3 L 127.4 81.2 L 121.7 89.8 L 115.3 97.1 L 108.5 102.9 L 101.1 107.2 L 93.3 109.8 L 92.6 108.1 L 99.1 103.9 L 105.0 98.8 L 110.4 92.7 L 115.4 85.5 L 119.9 77.2 L 124.0 67.7 L 125.61018514633179 63.0 L 101.0 63.0 L 101.0 59.0 L 109.0 59.0 L 109.0 27.0 L 121.0 33.0 L 133.3157895088196 33.0 L 133.6 31.6 L 135.741969871521 18.003147697448732 L 135.7 18.0 L 136.2 15.0 L 147.7 18.9 L 150.4 21.3 L 146.96012420654296 22.701430892944337 L 144.95570468902588 33.0 L 152.0 33.0 L 162.0 23.0 L 174.0 33.0 L 174.0 37.0 L 143.96521739959718 37.0 L 141.2 47.6 L 137.55200004577637 59.0 L 156.0 59.0 L 166.0 49.0 L 178.0 59.0 L 178.0 63.0 L 150.0 63.0 L 153.0 65.0 L 150.0 66.8 L 150.0 92.0 L 149.8 93.2 L 149.8 94.9 L 149.9 95.5 L 150.0 95.9 L 150.2 96.4 L 150.7 96.8 L 151.4 97.3 L 152.5 97.7 L 154.0 98.0 L 168.0 98.0 Z M 121.0 37.0 L 121.0 59.0 L 126.9805555343628 59.0 L 127.7 56.9 L 130.9 44.9 L 132.50375938415527 37.0 Z M 45.0 37.0 L 45.0 59.0 L 50.33125 59.0 L 50.8 57.5 L 53.9 45.2 L 55.53999996185303 37.0 Z " />
</g>
</svg>
