<svg xmlns="http://www.w3.org/2000/svg" xmlns:xlink="http://www.w3.org/1999/xlink" version="1.1" baseProfile="full" viewBox="0 0 200 200" width="200" height="200">
<g fill="black">
<path d="M 156.6 162.2 L 148.2 155.3 L 140.4 148.1 L 133.0 140.5 L 126.2 132.4 L 119.8 124.0 L 114.1 115.2 L 109.0 106.0 L 106.0 99.38636360168456 L 106.0 183.0 L 94.0 189.0 L 94.0 109.19420289993286 L 87.8 118.0 L 80.3 127.3 L 72.4 136.1 L 64.0 144.5 L 55.0 152.3 L 45.6 159.5 L 35.7 166.3 L 25.3 172.3 L 14.4 177.7 L 13.5 176.2 L 23.3 169.1 L 32.6 161.9 L 41.5 154.4 L 50.0 146.6 L 58.0 138.5 L 65.4 129.9 L 72.5 121.0 L 79.0 111.8 L 85.1 102.1 L 87.9014084815979 97.0 L 15.0 97.0 L 15.0 93.0 L 94.0 93.0 L 94.0 51.0 L 30.0 51.0 L 30.0 47.0 L 94.0 47.0 L 94.0 13.0 L 106.0 15.0 L 109.0 17.0 L 106.0 18.8 L 106.0 47.0 L 148.0 47.0 L 158.0 37.0 L 170.0 47.0 L 170.0 51.0 L 106.0 51.0 L 106.0 93.0 L 163.0 93.0 L 173.0 83.0 L 185.0 93.0 L 185.0 97.0 L 107.4 97.0 L 112.5 103.8 L 118.9 111.8 L 125.5 119.5 L 132.4 126.9 L 139.6 133.9 L 147.2 140.5 L 155.2 146.7 L 163.5 152.6 L 172.2 158.1 L 181.2 163.2 L 185.8 165.9 L 174.7 174.7 L 165.4 168.6 Z " />
</g>
</svg>
