<svg xmlns="http://www.w3.org/2000/svg" xmlns:xlink="http://www.w3.org/1999/xlink" version="1.1" baseProfile="full" viewBox="0 0 200 200" width="200" height="200">
<g fill="black">
<path d="M 159.2 170.6 L 151.0 165.8 L 143.2 160.6 L 135.6 154.9 L 128.5 148.9 L 121.6 142.4 L 115.2 135.5 L 109.3 128.2 L 106.0 123.3722222328186 L 106.0 183.0 L 94.0 189.0 L 94.0 128.33384618759155 L 92.3 130.4 L 85.3 137.9 L 77.8 144.9 L 69.9 151.5 L 61.5 157.6 L 52.6 163.3 L 43.2 168.5 L 33.4 173.2 L 23.1 177.3 L 12.3 180.8 L 11.6 179.1 L 21.5 173.8 L 31.0 168.4 L 39.9 162.8 L 48.4 156.9 L 56.4 150.8 L 63.9 144.4 L 70.9 137.6 L 77.5 130.5 L 83.5 123.1 L 84.98536586761475 121.0 L 18.0 121.0 L 18.0 117.0 L 94.0 117.0 L 94.0 86.0 L 106.0 88.0 L 109.0 90.0 L 106.0 91.8 L 106.0 117.0 L 160.0 117.0 L 170.0 107.0 L 182.0 117.0 L 182.0 121.0 L 107.41111106872559 121.0 L 112.3 125.4 L 119.3 131.3 L 126.4 137.0 L 133.7 142.4 L 141.1 147.3 L 148.7 152.0 L 156.5 156.2 L 164.6 160.1 L 172.8 163.6 L 181.3 166.8 L 188.1 169.4 L 176.6 179.1 L 167.7 175.1 Z M 153.6 104.0 L 151.5 104.9 L 149.4 105.7 L 147.2 106.4 L 145.0 107.0 L 142.8 107.4 L 140.5 107.7 L 138.2 107.9 L 135.9 108.0 L 135.9 102.0 L 123.9 99.0 L 123.9 96.0 L 135.9 96.0 L 137.6 95.9 L 139.2 95.8 L 140.8 95.6 L 142.4 95.2 L 143.9 94.9 L 145.4 94.4 L 148.4 93.2 L 151.2 91.6 L 152.4 90.6 L 153.7 89.1 L 155.0 86.9 L 156.3 83.9 L 157.5 80.3 L 158.5 75.9 L 159.4 70.9 L 160.1 65.2 L 160.5 58.8 L 160.70571432113647 54.0 L 128.76526947021483 54.0 L 126.2 62.4 L 113.0 64.3 L 124.14986228942871 30.0 L 89.1 30.0 L 88.2 39.0 L 85.8 49.4 L 82.2 59.1 L 77.3 68.2 L 71.2 76.5 L 64.0 84.1 L 55.6 91.0 L 46.0 97.1 L 35.4 102.4 L 23.6 106.8 L 22.9 105.1 L 33.6 99.0 L 43.1 92.6 L 51.5 85.9 L 58.6 78.8 L 64.5 71.4 L 69.2 63.5 L 72.9 55.3 L 75.4 46.7 L 76.9 37.5 L 77.13684206008911 30.0 L 35.4 30.0 L 35.4 26.0 L 125.1 26.0 L 131.1 21.0 L 142.1 30.0 L 137.1 33.0 L 134.89828472137452 33.91738138198853 L 129.9868263244629 50.0 L 160.8 50.0 L 166.8 45.0 L 177.8 54.0 L 172.8 57.0 L 172.59793815612792 57.08419246673584 L 172.5 59.5 L 172.0 66.3 L 171.3 72.6 L 170.3 78.3 L 169.1 83.5 L 167.5 88.2 L 165.7 92.3 L 163.5 96.0 L 160.8 99.2 L 157.6 101.7 L 155.6 102.9 Z " />
</g>
</svg>
