<svg xmlns="http://www.w3.org/2000/svg" xmlns:xlink="http://www.w3.org/1999/xlink" version="1.1" baseProfile="full" viewBox="0 0 200 200" width="200" height="200">
<g fill="black">
<path d="M 159.5 166.8 L 151.2 161.5 L 143.3 155.9 L 135.7 149.9 L 128.6 143.5 L 121.8 136.8 L 115.4 129.7 L 109.6 122.2 L 105.5 115.89230766296387 L 105.5 181.1 L 93.5 187.1 L 93.5 122.93548383712769 L 92.3 124.6 L 85.6 132.8 L 78.3 140.4 L 70.5 147.6 L 62.2 154.2 L 53.3 160.3 L 43.9 165.9 L 33.9 170.9 L 23.4 175.3 L 12.4 179.0 L 11.7 177.3 L 21.8 171.9 L 31.4 166.2 L 40.4 160.3 L 48.9 154.1 L 56.8 147.6 L 64.2 140.7 L 71.1 133.5 L 77.4 125.9 L 83.1 118.0 L 85.00769233703613 114.8 L 17.0 114.8 L 17.0 110.8 L 93.5 110.8 L 93.5 83.1 L 105.5 85.1 L 108.5 87.1 L 105.5 88.9 L 105.5 110.8 L 159.9 110.8 L 169.9 100.8 L 181.9 110.8 L 181.9 114.8 L 107.740625 114.8 L 112.7 119.4 L 119.6 125.6 L 126.7 131.5 L 133.9 137.1 L 141.4 142.5 L 149.1 147.4 L 157.0 152.1 L 165.2 156.5 L 173.7 160.5 L 182.5 164.2 L 188.6 166.9 L 177.2 176.3 L 168.2 171.7 Z M 72.4 24.0 L 124.8 24.0 L 130.8 19.0 L 141.8 28.0 L 136.8 32.0 L 136.8 75.2 L 136.9 76.1 L 137.1 76.7 L 137.4 77.3 L 137.6 77.6 L 138.6 78.1 L 139.5 78.3 L 140.8 78.4 L 172.7 78.4 L 178.2 57.4 L 180.2 57.4 L 178.2 78.4 L 181.5 80.6 L 183.7 83.9 L 181.5 87.2 L 178.2 89.4 L 140.8 89.4 L 138.3 89.3 L 135.9 88.9 L 133.5 88.2 L 131.3 87.1 L 129.3 85.5 L 127.6 83.5 L 126.3 81.3 L 125.5 78.9 L 125.0 76.5 L 124.8 73.9 L 124.8 28.0 L 72.4 28.0 L 72.4 50.8 L 71.7 58.0 L 69.9 64.8 L 67.3 71.1 L 63.7 76.9 L 59.3 82.1 L 54.1 86.7 L 48.1 90.8 L 41.3 94.4 L 33.7 97.2 L 25.4 99.5 L 24.8 97.8 L 32.2 93.8 L 38.7 89.7 L 44.3 85.4 L 49.0 81.1 L 52.9 76.5 L 55.9 71.8 L 58.1 66.9 L 59.6 61.9 L 60.4 56.5 L 60.4 18.0 Z " />
</g>
</svg>
