<svg xmlns="http://www.w3.org/2000/svg" xmlns:xlink="http://www.w3.org/1999/xlink" version="1.1" baseProfile="full" viewBox="0 0 200 200" width="200" height="200">
<g fill="black">
<path d="M 160.0 170.5 L 151.7 165.9 L 143.8 160.9 L 136.3 155.6 L 129.1 150.0 L 122.3 144.0 L 116.0 137.8 L 110.2 131.1 L 106.0 125.28461542129517 L 106.0 181.8 L 94.0 187.8 L 94.0 131.98032789230348 L 92.7 133.6 L 86.0 140.7 L 78.7 147.4 L 70.9 153.6 L 62.6 159.3 L 53.8 164.6 L 44.5 169.4 L 34.6 173.7 L 24.2 177.4 L 13.2 180.5 L 12.7 178.8 L 22.8 173.9 L 32.3 168.8 L 41.4 163.6 L 49.8 158.2 L 57.8 152.4 L 65.1 146.3 L 71.9 140.0 L 78.2 133.3 L 83.9 126.4 L 85.13157892227173 124.6 L 18.0 124.6 L 18.0 120.6 L 94.0 120.6 L 94.0 96.5 L 106.0 98.5 L 109.0 100.5 L 106.0 102.3 L 106.0 120.6 L 160.0 120.6 L 170.0 110.6 L 182.0 120.6 L 182.0 124.6 L 108.69259262084961 124.6 L 113.1 128.1 L 120.0 133.4 L 126.9 138.4 L 134.1 143.3 L 141.5 147.8 L 149.1 152.1 L 157.0 156.2 L 165.1 159.9 L 173.6 163.4 L 182.3 166.6 L 189.1 169.2 L 177.6 178.9 L 168.6 174.9 Z M 150.0 17.0 L 153.0 19.0 L 150.0 20.8 L 150.0 46.0 L 158.0 46.0 L 168.0 36.0 L 180.0 46.0 L 180.0 50.0 L 150.0 50.0 L 150.0 96.0 L 138.0 102.0 L 138.0 90.0 L 61.0 90.0 L 61.0 102.0 L 49.0 108.0 L 49.0 50.0 L 20.0 50.0 L 20.0 46.0 L 49.0 46.0 L 49.0 15.0 L 61.0 17.0 L 64.0 19.0 L 61.0 20.8 L 61.0 46.0 L 138.0 46.0 L 138.0 15.0 Z M 61.0 50.0 L 61.0 86.0 L 138.0 86.0 L 138.0 50.0 Z " />
</g>
</svg>
