<svg xmlns="http://www.w3.org/2000/svg" xmlns:xlink="http://www.w3.org/1999/xlink" version="1.1" baseProfile="full" viewBox="0 0 200 200" width="200" height="200">
<g fill="black">
<path d="M 160.3 174.3 L 152.1 170.2 L 144.1 165.9 L 136.6 161.3 L 129.4 156.5 L 122.6 151.3 L 116.2 145.8 L 110.3 139.9 L 106.0 134.77307691574097 L 106.0 182.6 L 94.0 188.6 L 94.0 140.92258062362671 L 92.4 142.6 L 85.7 148.7 L 78.4 154.3 L 70.7 159.6 L 62.4 164.4 L 53.6 168.9 L 44.3 172.9 L 34.5 176.5 L 24.1 179.5 L 13.2 182.0 L 12.7 180.3 L 22.9 175.9 L 32.5 171.5 L 41.5 166.9 L 50.1 162.2 L 58.0 157.2 L 65.4 151.9 L 72.2 146.4 L 78.5 140.7 L 84.2 134.7 L 84.51666669845581 134.3 L 18.0 134.3 L 18.0 130.3 L 94.0 130.3 L 94.0 109.9 L 106.0 111.9 L 109.0 113.9 L 106.0 115.7 L 106.0 130.3 L 160.0 130.3 L 170.0 120.3 L 182.0 130.3 L 182.0 134.3 L 109.27777776718139 134.3 L 113.0 136.8 L 119.8 141.1 L 126.7 145.4 L 133.8 149.4 L 141.2 153.2 L 148.8 156.8 L 156.7 160.2 L 164.8 163.4 L 173.3 166.3 L 182.0 169.0 L 189.5 171.4 L 177.9 181.5 L 168.9 178.0 Z M 106.0 15.0 L 109.0 17.0 L 106.0 18.8 L 106.0 36.0 L 154.0 36.0 L 164.0 26.0 L 176.0 36.0 L 176.0 40.0 L 106.0 40.0 L 106.0 72.0 L 140.0 72.0 L 140.0 49.0 L 152.0 51.0 L 155.0 53.0 L 152.0 54.8 L 152.0 72.0 L 164.0 72.0 L 174.0 62.0 L 186.0 72.0 L 186.0 76.0 L 152.0 76.0 L 152.0 112.0 L 140.0 118.0 L 140.0 108.0 L 60.0 108.0 L 60.0 115.0 L 48.0 121.0 L 48.0 76.0 L 14.0 76.0 L 14.0 72.0 L 48.0 72.0 L 48.0 49.0 L 60.0 51.0 L 63.0 53.0 L 60.0 54.8 L 60.0 72.0 L 94.0 72.0 L 94.0 40.0 L 24.0 40.0 L 24.0 36.0 L 94.0 36.0 L 94.0 13.0 Z M 60.0 104.0 L 140.0 104.0 L 140.0 76.0 L 60.0 76.0 Z " />
</g>
</svg>
