<svg xmlns="http://www.w3.org/2000/svg" xmlns:xlink="http://www.w3.org/1999/xlink" version="1.1" baseProfile="full" viewBox="0 0 200 200" width="200" height="200">
<g fill="black">
<path d="M 157.6 170.6 L 149.5 165.8 L 141.8 160.7 L 134.4 155.2 L 127.4 149.5 L 120.8 143.4 L 114.6 136.9 L 108.9 130.1 L 105.0 124.51764707565307 L 105.0 182.5 L 93.0 188.5 L 93.0 131.3 L 92.0 132.6 L 85.4 139.9 L 78.3 146.8 L 70.7 153.2 L 62.5 159.1 L 53.9 164.5 L 44.7 169.5 L 35.0 173.9 L 24.8 177.8 L 14.0 181.0 L 13.4 179.3 L 23.3 174.3 L 32.6 169.1 L 41.4 163.8 L 49.7 158.2 L 57.5 152.3 L 64.7 146.1 L 71.3 139.5 L 77.4 132.7 L 83.0 125.5 L 84.38292684555054 123.4 L 18.6 123.4 L 18.6 119.4 L 93.0 119.4 L 93.0 94.6 L 105.0 96.6 L 108.0 98.6 L 105.0 100.4 L 105.0 119.4 L 157.3 119.4 L 167.3 109.4 L 179.3 119.4 L 179.3 123.4 L 107.35357141494751 123.4 L 111.9 127.2 L 118.6 132.6 L 125.5 137.9 L 132.5 142.9 L 139.8 147.6 L 147.3 152.0 L 155.0 156.2 L 163.0 160.0 L 171.3 163.6 L 179.8 166.9 L 186.4 169.5 L 174.9 179.2 L 166.1 175.0 Z M 150.0 16.6 L 153.0 18.6 L 150.0 20.4 L 150.0 39.6 L 164.0 39.6 L 174.0 29.6 L 186.0 39.6 L 186.0 43.6 L 150.0 43.6 L 150.0 72.5 L 138.0 78.5 L 138.0 68.5 L 102.0 68.5 L 102.0 75.5 L 90.0 81.5 L 90.0 43.6 L 54.0 43.6 L 54.0 89.5 L 152.0 89.5 L 162.0 79.5 L 174.0 89.5 L 174.0 93.5 L 54.0 93.5 L 54.0 100.5 L 42.0 106.5 L 42.0 43.6 L 14.0 43.6 L 14.0 39.6 L 42.0 39.6 L 42.0 15.6 L 54.0 17.6 L 57.0 19.6 L 54.0 21.4 L 54.0 39.6 L 90.0 39.6 L 90.0 14.6 L 102.0 16.6 L 105.0 18.6 L 102.0 20.4 L 102.0 39.6 L 138.0 39.6 L 138.0 14.6 Z M 102.0 43.6 L 102.0 64.5 L 138.0 64.5 L 138.0 43.6 Z " />
</g>
</svg>
