<svg xmlns="http://www.w3.org/2000/svg" xmlns:xlink="http://www.w3.org/1999/xlink" version="1.1" baseProfile="full" viewBox="0 0 200 200" width="200" height="200">
<g fill="black">
<path d="M 160.1 172.0 L 151.8 167.6 L 143.9 162.8 L 136.4 157.8 L 129.2 152.4 L 122.4 146.7 L 116.1 140.6 L 110.2 134.2 L 106.0 128.62692308425903 L 106.0 182.4 L 94.0 188.4 L 94.0 135.17419357299804 L 92.6 136.8 L 85.9 143.6 L 78.6 149.9 L 70.9 155.8 L 62.6 161.3 L 53.8 166.3 L 44.4 170.8 L 34.6 174.9 L 24.2 178.4 L 13.2 181.3 L 12.7 179.6 L 22.8 174.9 L 32.4 170.0 L 41.4 165.0 L 49.9 159.8 L 57.8 154.2 L 65.2 148.5 L 72.0 142.4 L 78.3 136.0 L 84.0 129.4 L 84.98823528289795 128.0 L 18.0 128.0 L 18.0 124.0 L 94.0 124.0 L 94.0 101.1 L 106.0 103.1 L 109.0 105.1 L 106.0 106.9 L 106.0 124.0 L 160.0 124.0 L 170.0 114.0 L 182.0 124.0 L 182.0 128.0 L 108.83333330154419 128.0 L 113.1 131.2 L 119.9 136.2 L 126.9 141.0 L 134.0 145.5 L 141.4 149.9 L 149.0 154.0 L 156.9 157.8 L 165.1 161.3 L 173.5 164.6 L 182.2 167.7 L 189.2 170.2 L 177.7 180.0 L 168.7 176.2 Z M 69.4 95.8 L 66.9 95.4 L 64.5 94.6 L 62.2 93.3 L 60.2 91.7 L 58.6 89.7 L 57.3 87.4 L 56.5 85.0 L 56.1 82.5 L 56.0 80.0 L 56.0 48.0 L 20.0 48.0 L 20.0 44.0 L 56.0 44.0 L 56.0 15.0 L 68.0 17.0 L 71.0 19.0 L 68.0 20.8 L 68.0 44.0 L 124.0 44.0 L 124.0 15.0 L 136.0 17.0 L 139.0 19.0 L 136.0 20.8 L 136.0 44.0 L 158.0 44.0 L 168.0 34.0 L 180.0 44.0 L 180.0 48.0 L 136.0 48.0 L 136.0 75.0 L 124.0 81.0 L 124.0 48.0 L 68.0 48.0 L 68.0 81.2 L 68.2 82.1 L 68.5 83.0 L 68.9 83.4 L 69.8 83.7 L 70.7 83.9 L 72.0 84.0 L 148.0 84.0 L 151.6 86.4 L 154.0 90.0 L 151.6 93.6 L 148.0 96.0 L 72.0 96.0 Z " />
</g>
</svg>
