<svg xmlns="http://www.w3.org/2000/svg" xmlns:xlink="http://www.w3.org/1999/xlink" version="1.1" baseProfile="full" viewBox="0 0 200 200" width="200" height="200">
<g fill="black">
<path d="M 70.0 175.9 L 91.2 175.9 L 92.1 175.7 L 92.7 175.5 L 93.0 175.3 L 93.2 175.2 L 93.4 175.0 L 93.7 174.1 L 93.9 173.2 L 94.0 171.9 L 94.0 132.3 L 17.0 132.3 L 17.0 128.3 L 161.0 128.3 L 171.0 118.3 L 183.0 128.3 L 183.0 132.3 L 106.0 132.3 L 106.0 171.9 L 105.8 174.5 L 105.4 177.0 L 104.6 179.4 L 103.3 181.7 L 101.7 183.7 L 99.7 185.3 L 97.4 186.5 L 95.0 187.4 L 92.5 187.8 L 90.0 187.9 L 90.0 181.9 L 70.0 178.9 Z M 68.2 148.0 L 69.4 151.4 L 65.51783571243286 151.06533069610595 L 64.7 152.0 L 60.8 155.9 L 56.7 159.8 L 52.1 163.5 L 47.3 167.2 L 42.0 170.7 L 36.5 174.2 L 30.5 177.5 L 24.2 180.7 L 17.4 183.6 L 16.5 182.0 L 22.2 177.5 L 27.6 173.1 L 32.7 168.8 L 37.4 164.7 L 41.8 160.6 L 45.9 156.6 L 49.6 152.6 L 52.9 148.7 L 55.9 144.8 L 57.94735631942749 141.72896547317504 L 57.9 141.7 L 58.339999961853025 141.13999996185302 L 58.5 140.9 L 58.518139362335205 140.91327724456787 L 59.0 140.3 Z M 159.3 171.4 L 156.3 167.9 L 152.8 164.5 L 149.0 161.1 L 144.8 157.7 L 140.3 154.3 L 135.4 151.0 L 130.1 147.5 L 124.5 144.0 L 125.2 142.3 L 131.7 144.1 L 137.8 146.2 L 143.6 148.6 L 148.9 151.3 L 154.0 154.2 L 158.7 157.2 L 163.1 160.5 L 167.1 164.0 L 170.8 167.7 L 174.1 171.6 L 175.1 176.0 L 172.7 179.9 L 168.2 180.9 L 164.3 178.5 L 162.0 174.9 Z M 152.0 101.6 L 152.0 105.6 L 48.0 105.6 L 48.0 101.6 L 130.0 101.6 L 140.0 91.6 Z M 159.0 91.6 L 151.1 87.0 L 143.4 81.8 L 136.1 76.2 L 129.1 70.1 L 122.4 63.4 L 116.1 56.3 L 110.2 48.5 L 106.0 41.9226414680481 L 106.0 90.0 L 94.0 96.0 L 94.0 49.55 L 93.0 50.8 L 85.8 58.7 L 78.1 66.1 L 70.1 72.9 L 61.8 79.2 L 53.0 84.9 L 43.9 90.1 L 34.4 94.6 L 24.5 98.5 L 14.3 101.6 L 13.6 99.9 L 23.0 95.0 L 32.0 89.8 L 40.6 84.4 L 48.8 78.6 L 56.6 72.5 L 64.1 65.9 L 71.1 58.9 L 77.8 51.5 L 84.1 43.6 L 86.08333330154419 40.8 L 20.0 40.8 L 20.0 36.8 L 94.0 36.8 L 94.0 12.4 L 106.0 14.4 L 109.0 16.4 L 106.0 18.2 L 106.0 36.8 L 158.0 36.8 L 168.0 26.8 L 180.0 36.8 L 180.0 40.8 L 108.0761194229126 40.8 L 113.3 45.8 L 120.3 52.2 L 127.3 58.2 L 134.4 63.7 L 141.6 68.7 L 149.0 73.3 L 156.5 77.3 L 164.2 80.9 L 172.1 84.1 L 180.1 86.7 L 187.4 89.2 L 175.8 99.2 L 167.3 95.6 Z " />
</g>
</svg>
