<svg xmlns="http://www.w3.org/2000/svg" xmlns:xlink="http://www.w3.org/1999/xlink" version="1.1" baseProfile="full" viewBox="0 0 200 200" width="200" height="200">
<g fill="black">
<path d="M 159.8 171.3 L 151.5 166.7 L 143.6 161.7 L 136.0 156.3 L 128.8 150.7 L 122.0 144.7 L 115.6 138.4 L 109.7 131.7 L 105.5 125.88461542129517 L 105.5 182.8 L 93.5 188.8 L 93.5 132.48387098312378 L 92.1 134.2 L 85.4 141.4 L 78.1 148.1 L 70.3 154.3 L 61.9 160.1 L 53.1 165.4 L 43.7 170.2 L 33.8 174.6 L 23.3 178.3 L 12.3 181.4 L 11.7 179.7 L 21.9 174.8 L 31.5 169.7 L 40.6 164.5 L 49.1 158.9 L 57.1 153.2 L 64.5 147.1 L 71.3 140.7 L 77.6 134.0 L 83.3 127.0 L 84.61538457870483 125.1 L 17.0 125.1 L 17.0 121.1 L 93.5 121.1 L 93.5 96.9 L 105.5 98.9 L 108.5 100.9 L 105.5 102.7 L 105.5 121.1 L 159.9 121.1 L 169.9 111.1 L 181.9 121.1 L 181.9 125.1 L 108.1 125.1 L 112.7 128.7 L 119.5 134.0 L 126.5 139.1 L 133.7 144.0 L 141.1 148.6 L 148.8 152.9 L 156.8 156.9 L 165.0 160.7 L 173.4 164.2 L 182.2 167.4 L 189.0 170.0 L 177.5 179.7 L 168.5 175.7 Z M 82.0 84.0 L 102.0 84.0 L 102.0 32.0 L 114.0 38.0 L 140.0 38.0 L 140.0 11.0 L 152.0 13.0 L 155.0 15.0 L 152.0 16.8 L 152.0 38.0 L 164.0 38.0 L 174.0 28.0 L 186.0 38.0 L 186.0 42.0 L 152.0 42.0 L 152.0 84.0 L 166.0 84.0 L 176.0 74.0 L 188.0 84.0 L 188.0 88.0 L 152.0 88.0 L 152.0 111.0 L 140.0 117.0 L 140.0 88.0 L 82.0 88.0 Z M 53.3 67.8 L 51.9 66.0 L 50.2 64.2 L 48.2 62.3 L 46.0 60.4 L 43.5 58.5 L 40.8 56.4 L 37.9 54.3 L 37.67276201248169 54.18293800354004 L 33.3 59.3 L 28.1 64.5 L 22.6 69.4 L 16.6 74.0 L 15.3 72.7 L 19.8 66.8 L 24.1 61.0 L 28.1 55.2 L 31.9 49.4 L 35.3 43.5 L 38.4 37.5 L 41.3 31.5 L 43.8 25.3 L 46.0 19.0 L 47.62672710418701 13.606115531921386 L 47.6 13.6 L 48.4 11.1 L 59.4 16.3 L 61.6 19.2 L 57.914808464050296 20.040482234954833 L 56.7 23.1 L 53.6 29.6 L 51.846875 32.9 L 81.0 32.9 L 87.0 27.9 L 98.0 36.9 L 93.0 39.9 L 91.55567741394043 40.501801109313966 L 89.3 48.3 L 84.9 59.6 L 79.4 70.0 L 73.0 79.5 L 65.6 88.2 L 57.3 95.9 L 48.1 102.7 L 38.0 108.5 L 27.1 113.2 L 15.2 116.9 L 14.7 115.2 L 25.5 109.7 L 35.4 103.8 L 44.3 97.3 L 52.2 90.3 L 59.3 82.6 L 65.4 74.2 L 70.6 65.1 L 75.0 55.4 L 78.5 44.9 L 80.34070796966553 36.9 L 49.65409832000732 36.9 L 46.5 42.1 L 42.4 48.1 L 39.383693885803225 52.00748748779297 L 42.5 52.7 L 46.0 53.6 L 49.2 54.7 L 52.2 55.9 L 55.1 57.2 L 57.7 58.6 L 60.2 60.1 L 62.5 61.7 L 64.7 63.5 L 66.0 67.9 L 63.9 72.0 L 59.5 73.3 L 55.4 71.1 L 54.5 69.5 Z M 114.0 42.0 L 114.0 84.0 L 140.0 84.0 L 140.0 42.0 Z " />
</g>
</svg>
