<svg xmlns="http://www.w3.org/2000/svg" xmlns:xlink="http://www.w3.org/1999/xlink" version="1.1" baseProfile="full" viewBox="0 0 200 200" width="200" height="200">
<g fill="black">
<path d="M 40.7 120.1 L 39.9 117.5 L 38.9 115.0 L 37.6 112.5 L 36.2 110.1 L 34.5 107.8 L 32.5 105.5 L 30.3 103.1 L 30.04515733718872 102.92066621780396 L 29.3 104.3 L 24.3 112.3 L 18.7 119.8 L 12.6 126.5 L 11.1 125.4 L 15.5 117.6 L 19.6 109.6 L 23.5 101.3 L 27.0 92.6 L 30.2 83.5 L 33.0 73.9 L 35.5 63.9 L 37.6 53.5 L 39.4 42.6 L 40.37358493804932 34.0 L 11.9 34.0 L 11.9 30.0 L 62.1 30.0 L 72.1 20.0 L 84.1 30.0 L 84.1 34.0 L 52.468644046783446 34.0 L 50.6 44.5 L 48.1 55.7 L 45.2 66.5 L 44.391176509857175 69.0 L 65.4 69.0 L 71.4 64.0 L 82.4 73.0 L 77.4 76.0 L 76.59731817245483 76.33445072174072 L 74.8 88.7 L 71.5 104.7 L 67.2 119.6 L 62.1 133.3 L 56.0 145.9 L 49.1 157.2 L 41.2 167.4 L 32.4 176.2 L 22.8 183.7 L 12.3 189.7 L 11.4 188.2 L 20.5 180.7 L 28.7 172.4 L 36.1 163.3 L 42.6 153.2 L 48.4 142.0 L 53.4 129.9 L 57.6 116.7 L 61.0 102.3 L 63.6 86.9 L 65.11636362075805 73.0 L 43.097058868408205 73.0 L 41.9 76.7 L 38.1 86.4 L 34.0 95.6 L 31.274410438537597 100.64524021148682 L 31.7 100.8 L 34.9 102.1 L 38.0 103.6 L 40.8 105.5 L 43.5 107.7 L 46.0 110.1 L 48.2 112.8 L 50.2 115.8 L 51.9 119.0 L 53.4 122.5 L 52.8 127.0 L 49.2 129.8 L 44.7 129.2 L 41.8 125.6 L 41.4 122.8 Z M 178.7 134.8 L 179.5 138.4 L 175.8193603515625 137.49598321914672 L 170.9 142.1 L 162.8 148.9 L 154.2 155.3 L 145.4 161.2 L 136.1 166.7 L 126.5 171.8 L 116.5 176.4 L 106.1 180.4 L 95.4 183.9 L 84.3 186.8 L 83.7 185.1 L 94.1 180.4 L 104.0 175.5 L 113.6 170.5 L 122.8 165.1 L 131.7 159.5 L 140.1 153.6 L 148.2 147.3 L 155.9 140.7 L 163.2 133.8 L 169.4216404914856 127.21768474578857 L 169.4 127.2 L 170.4 126.2 Z M 163.3 99.5 L 164.4 102.9 L 160.67256517410277 102.38587102890014 L 157.2 106.2 L 150.8 112.4 L 144.1 118.3 L 137.2 123.7 L 130.0 128.6 L 122.5 133.1 L 114.8 137.1 L 106.7 140.6 L 98.4 143.5 L 89.9 145.8 L 89.2 144.1 L 97.0 140.0 L 104.4 135.8 L 111.6 131.3 L 118.4 126.7 L 125.1 121.7 L 131.4 116.4 L 137.4 110.8 L 143.2 104.9 L 148.7 98.6 L 153.33157062530518 92.72146806716918 L 153.3 92.7 L 154.4 91.4 Z M 147.5 68.4 L 148.7 71.8 L 144.9783745765686 71.35083827972412 L 142.8 73.9 L 137.9 79.1 L 132.8 84.0 L 127.6 88.6 L 122.2 92.9 L 116.6 96.8 L 110.9 100.4 L 105.1 103.7 L 99.0 106.5 L 92.7 108.7 L 91.9 107.2 L 97.1 103.2 L 102.2 99.2 L 107.1 95.1 L 112.0 90.8 L 116.7 86.4 L 121.2 81.8 L 125.6 77.0 L 129.9 71.9 L 134.0 66.6 L 137.41238508224487 61.90797052383423 L 137.4 61.9 L 138.4 60.5 Z M 166.2 72.2 L 160.9 67.3 L 155.8 61.9 L 150.9 56.0 L 146.3 49.7 L 141.9 42.9 L 137.8 35.7 L 134.07402601242066 28.051948070526123 L 134.0 28.2 L 129.1 36.8 L 123.8 45.0 L 118.2 52.6 L 112.3 59.7 L 106.2 66.2 L 99.7 72.2 L 92.8 77.5 L 85.7 82.2 L 78.2 86.1 L 77.2 84.6 L 83.4 79.1 L 89.4 73.4 L 95.1 67.4 L 100.6 61.1 L 105.7 54.3 L 110.7 47.2 L 115.3 39.6 L 119.7 31.6 L 123.8 23.1 L 127.30487995147705 15.101684188842773 L 127.3 15.1 L 128.2 13.0 L 138.6 19.0 L 140.6 22.1 L 136.82201833724974 22.55596332550049 L 136.19431819915772 23.81136360168457 L 137.7 25.8 L 142.8 32.5 L 147.8 38.7 L 152.8 44.5 L 157.9 49.8 L 163.0 54.7 L 168.2 59.0 L 173.5 62.9 L 178.8 66.4 L 184.1 69.3 L 188.7 72.0 L 177.5 80.8 L 171.8 76.7 Z " />
</g>
</svg>
