<svg xmlns="http://www.w3.org/2000/svg" xmlns:xlink="http://www.w3.org/1999/xlink" version="1.1" baseProfile="full" viewBox="0 0 200 200" width="200" height="200">
<g fill="black">
<path d="M 13.0 175.0 L 52.0 175.0 L 52.0 55.0 L 64.0 61.0 L 140.0 61.0 L 140.0 23.0 L 56.0 23.0 L 56.0 19.0 L 140.0 19.0 L 146.0 14.0 L 157.0 23.0 L 152.0 27.0 L 152.0 71.0 L 140.0 77.0 L 140.0 65.0 L 64.0 65.0 L 64.0 105.0 L 141.0 105.0 L 147.0 100.0 L 158.0 109.0 L 154.0 111.4 L 154.0 175.0 L 161.0 175.0 L 171.0 165.0 L 183.0 175.0 L 183.0 179.0 L 13.0 179.0 Z M 64.0 109.0 L 64.0 175.0 L 141.87142858505248 175.0 L 141.04260358810424 116.98224849700928 L 141.0 117.0 L 141.0 114.0 L 140.9285714149475 109.0 Z M 107.2 144.7 L 105.0 141.8 L 102.7 138.9 L 100.4 136.2 L 98.0 133.6 L 95.5 131.1 L 90.3 126.3 L 87.5 124.2 L 88.2 122.6 L 91.7 123.7 L 95.3 124.8 L 98.8 126.3 L 102.2 128.1 L 105.5 130.2 L 108.8 132.5 L 112.0 135.0 L 115.1 137.8 L 118.1 140.8 L 121.0 144.0 L 122.0 148.4 L 119.7 152.4 L 115.3 153.4 L 111.3 151.1 L 109.3 147.8 Z " />
</g>
</svg>
