<svg xmlns="http://www.w3.org/2000/svg" xmlns:xlink="http://www.w3.org/1999/xlink" version="1.1" baseProfile="full" viewBox="0 0 200 200" width="200" height="200">
<g fill="black">
<path d="M 13.0 170.0 L 42.0 170.0 L 42.0 80.0 L 54.0 86.0 L 73.86666669845582 86.0 L 76.0 81.2 L 78.8 75.2 L 81.6 69.5 L 84.2 64.0 L 86.6 58.7 L 88.9 53.5 L 91.0 48.6 L 92.8 43.8 L 94.5 39.1 L 95.55681819915772 36.0 L 24.0 36.0 L 24.0 32.0 L 154.0 32.0 L 164.0 22.0 L 176.0 32.0 L 176.0 36.0 L 101.4810344696045 36.0 L 107.2 39.1 L 109.2 42.0 L 105.46157779693604 42.65586357116699 L 105.0 43.6 L 102.6 48.2 L 100.0 52.9 L 97.2 57.8 L 94.1 62.7 L 90.8 67.7 L 87.2 72.8 L 83.4 78.0 L 79.2 83.2 L 76.77692308425904 86.0 L 154.0 86.0 L 164.0 76.0 L 176.0 86.0 L 176.0 90.0 L 54.0 90.0 L 54.0 170.0 L 115.61282052993775 170.0 L 117.6 163.8 L 120.2 156.0 L 122.8 148.4 L 125.5 140.7 L 128.2 133.1 L 130.8 125.4 L 136.0 110.2 L 138.5 102.5 L 140.6956139564514 95.82533359527588 L 140.6 95.8 L 141.5 93.4 L 152.3 98.9 L 154.4 101.8 L 150.83660736083985 102.48767223358155 L 149.2 106.5 L 146.0 114.0 L 142.8 121.4 L 139.5 128.9 L 136.0 136.3 L 132.5 143.6 L 128.9 150.9 L 125.1 158.2 L 121.0 165.3 L 118.18000001907349 170.0 L 165.0 170.0 L 175.0 160.0 L 187.0 170.0 L 187.0 174.0 L 13.0 174.0 Z " />
</g>
</svg>
