<svg xmlns="http://www.w3.org/2000/svg" xmlns:xlink="http://www.w3.org/1999/xlink" version="1.1" baseProfile="full" viewBox="0 0 200 200" width="200" height="200">
<g fill="black">
<path d="M 75.8 154.5 L 73.5 148.4 L 70.8 142.4 L 67.8 136.4 L 64.5 130.4 L 60.8 124.5 L 56.8 118.5 L 52.5 112.4 L 48.0 106.3 L 49.035000038146975 105.26499996185302 L 53.2 99.4 L 57.9 92.6 L 62.5 85.9 L 66.9 79.1 L 71.1 72.3 L 75.0 65.5 L 78.6 58.6 L 82.0 51.6 L 85.2 44.6 L 87.63987426757812 38.413175868988034 L 87.6 38.4 L 87.940425491333 37.65106382369995 L 88.0 37.5 L 88.00762367248535 37.50322799682617 L 88.6 36.2 L 99.1 42.2 L 101.0 45.3 L 97.30259122848511 45.746238994598386 L 95.4 49.5 L 91.5 56.6 L 87.4 63.5 L 82.9 70.4 L 78.1 77.0 L 75.79230766296386 80.0 L 140.0 80.0 L 146.0 75.0 L 157.0 84.0 L 152.0 87.0 L 150.47664670944215 87.63473052978516 L 148.8 93.0 L 145.4 102.5 L 141.5 112.1 L 137.3 121.5 L 132.5 131.0 L 127.4 140.5 L 121.7 149.8 L 115.6 159.2 L 108.9 168.4 L 103.67802200317382 175.0 L 163.0 175.0 L 173.0 165.0 L 185.0 175.0 L 185.0 179.0 L 18.0 179.0 L 18.0 175.0 L 100.96237621307372 175.0 L 105.7 166.3 L 111.0 156.4 L 116.0 146.6 L 120.6 137.0 L 124.9 127.4 L 128.7 117.9 L 132.2 108.4 L 135.2 99.0 L 137.9 89.7 L 139.26304349899291 84.0 L 72.6859375 84.0 L 67.8 89.9 L 62.1 96.1 L 56.0 102.0 L 50.99211826324463 106.38189659118652 L 55.3 109.9 L 60.9 115.0 L 66.0 120.5 L 70.7 126.1 L 75.0 131.9 L 79.0 137.9 L 82.5 144.1 L 85.7 150.4 L 88.5 156.8 L 90.9 163.4 L 90.3 168.0 L 86.8 170.8 L 82.2 170.3 L 79.4 166.7 L 77.7 160.6 Z M 178.0 32.0 L 178.0 36.0 L 20.0 36.0 L 20.0 32.0 L 156.0 32.0 L 166.0 22.0 Z " />
</g>
</svg>
