<svg xmlns="http://www.w3.org/2000/svg" xmlns:xlink="http://www.w3.org/1999/xlink" version="1.1" baseProfile="full" viewBox="0 0 200 200" width="200" height="200">
<g fill="black">
<path d="M 144.0 175.0 L 144.0 179.0 L 26.0 179.0 L 26.0 175.0 L 122.0 175.0 L 132.0 165.0 Z M 145.1 158.4 L 133.4 148.6 L 123.6 137.0 L 115.6 123.7 L 109.3 108.7 L 104.6 92.2 L 104.38784532546997 91.0 L 50.0 91.0 L 50.0 145.03529415130615 L 51.0 144.8 L 59.7 142.6 L 68.7 140.3 L 78.0 137.8 L 87.6 135.2 L 97.4 132.7 L 107.6 130.1 L 108.3 131.8 L 98.7 136.2 L 89.3 140.3 L 80.1 144.0 L 71.0 147.5 L 62.2 150.7 L 53.6 153.7 L 45.2 156.5 L 37.0 159.0 L 29.0 161.4 L 25.212649154663087 162.48210020065306 L 23.9 166.0 L 21.3 163.6 L 16.6 152.3 L 18.6 151.9 L 26.3 150.4 L 34.2 148.7 L 38.0 147.83012046813965 L 38.0 36.0 L 49.70457515716553 41.85228757858276 L 65.3 38.5 L 75.9 36.2 L 86.3 33.9 L 96.6 31.4 L 106.8 28.7 L 116.8 25.9 L 126.7 23.0 L 136.5 19.8 L 145.21448879241944 16.835276985168456 L 145.2 16.8 L 145.23372840881348 16.828731536865234 L 146.2 16.5 L 146.69169960021972 18.070707035064697 L 156.0 26.0 L 156.3 29.1 L 152.1583282470703 27.239248943328857 L 149.8 28.0 L 139.7 30.8 L 129.6 33.3 L 119.3 35.7 L 111.10531396865845 37.33893718719482 L 111.5 53.6 L 113.3 72.5 L 115.85882349014283 87.0 L 161.0 87.0 L 171.0 77.0 L 183.0 87.0 L 183.0 91.0 L 116.72156858444214 91.0 L 120.6 104.8 L 126.3 118.2 L 133.4 130.0 L 141.9 140.1 L 152.1 148.6 L 164.0 155.7 L 170.82603368759155 158.42052068710328 L 176.0 136.0 L 178.0 136.0 L 176.11325044631957 160.52774477005005 L 177.8 161.2 L 181.2 164.3 L 181.7 168.8 L 178.6 172.2 L 174.1 172.7 L 158.7 166.4 Z M 98.3 39.7 L 87.7 41.3 L 77.0 42.7 L 66.1 43.8 L 55.1 44.5 L 50.0 44.63783779144287 L 50.0 87.0 L 103.68066301345826 87.0 L 101.4 74.1 L 99.5 54.3 L 99.1536509513855 39.54552984237671 Z " />
</g>
</svg>
