<svg xmlns="http://www.w3.org/2000/svg" xmlns:xlink="http://www.w3.org/1999/xlink" version="1.1" baseProfile="full" viewBox="0 0 200 200" width="200" height="200">
<g fill="black">
<path d="M 152.3 91.8 L 154.6 94.6 L 150.96031923294066 95.43010263442993 L 149.2 100.2 L 146.0 108.6 L 142.6 116.9 L 139.0 125.2 L 135.3 133.5 L 131.4 141.7 L 127.4 149.8 L 123.1 157.9 L 118.6 165.8 L 115.27692308425904 171.2 L 165.0 171.2 L 175.0 161.2 L 187.0 171.2 L 187.0 175.2 L 13.0 175.2 L 13.0 171.2 L 112.67674417495728 171.2 L 115.2 164.2 L 121.4 147.2 L 124.4 138.7 L 127.4 130.3 L 130.3 121.9 L 133.2 113.4 L 135.9 105.0 L 138.5 96.5 L 140.64011430740356 89.00959997177124 L 140.6 89.0 L 141.4 86.6 Z M 65.0 141.6 L 63.3 134.1 L 61.4 126.9 L 59.1 120.0 L 56.5 113.3 L 53.7 107.0 L 50.7 100.8 L 47.4 94.8 L 43.9 88.9 L 45.3 87.7 L 50.4 92.5 L 55.2 97.8 L 59.4 103.7 L 63.4 110.0 L 66.9 116.7 L 70.1 123.7 L 73.0 131.2 L 75.5 139.0 L 77.6 147.2 L 79.4 155.7 L 78.3 160.1 L 74.4 162.5 L 70.0 161.4 L 67.6 157.5 L 66.4 149.4 Z M 151.0 34.0 L 146.0 37.0 L 143.00779218673705 38.246753215789795 L 126.025 74.0 L 154.0 74.0 L 164.0 64.0 L 176.0 74.0 L 176.0 78.0 L 24.0 78.0 L 24.0 74.0 L 112.76666669845581 74.0 L 132.3222222328186 34.0 L 44.0 34.0 L 44.0 30.0 L 134.0 30.0 L 140.0 25.0 Z " />
</g>
</svg>
