<svg xmlns="http://www.w3.org/2000/svg" xmlns:xlink="http://www.w3.org/1999/xlink" version="1.1" baseProfile="full" viewBox="0 0 200 200" width="200" height="200">
<g fill="black">
<path d="M 154.0 27.0 L 149.0 31.0 L 149.0 77.0 L 137.0 83.0 L 137.0 71.0 L 51.0 71.0 L 51.0 110.0 L 148.0 110.0 L 154.0 105.0 L 165.0 114.0 L 160.0 117.0 L 156.4474575996399 118.48022594451905 L 123.36000003814698 171.0 L 164.0 171.0 L 174.0 161.0 L 186.0 171.0 L 186.0 175.0 L 19.0 175.0 L 19.0 171.0 L 109.07868852615357 171.0 L 145.52131147384642 114.0 L 51.0 114.0 L 51.0 126.0 L 39.0 132.0 L 39.0 61.0 L 51.0 67.0 L 137.0 67.0 L 137.0 27.0 L 38.0 27.0 L 38.0 23.0 L 137.0 23.0 L 143.0 18.0 Z " />
</g>
</svg>
