<svg xmlns="http://www.w3.org/2000/svg" xmlns:xlink="http://www.w3.org/1999/xlink" version="1.1" baseProfile="full" viewBox="0 0 200 200" width="200" height="200">
<g fill="black">
<path d="M 177.0 175.0 L 177.0 179.0 L 26.0 179.0 L 26.0 175.0 L 155.0 175.0 L 165.0 165.0 Z M 167.0 82.0 L 162.0 85.0 L 160.25077571868897 85.72884340286255 L 156.7 95.6 L 151.3 108.5 L 145.5 120.4 L 139.3 131.2 L 132.7 141.1 L 125.7 149.9 L 118.2 157.6 L 110.3 164.2 L 102.0 169.6 L 93.4 173.7 L 92.5 172.2 L 99.9 166.5 L 106.8 160.2 L 113.5 153.1 L 119.8 145.1 L 125.7 136.3 L 131.3 126.6 L 136.5 115.9 L 141.4 104.3 L 146.0 91.7 L 149.01777782440186 82.0 L 71.0 82.0 L 71.0 78.0 L 150.0 78.0 L 156.0 73.0 Z M 37.7 152.0 L 39.0 151.59375 L 39.0 35.0 L 50.9796178817749 40.98980894088745 L 56.4 40.0 L 67.6 37.9 L 78.5 35.7 L 89.1 33.5 L 99.4 31.1 L 109.3 28.6 L 119.0 25.9 L 128.3 23.0 L 137.3 19.9 L 146.0 16.6 L 146.60157012939453 18.299435710906984 L 155.5 26.0 L 155.7 29.1 L 151.62813806533813 27.33755226135254 L 150.0 27.9 L 140.8 30.7 L 131.3 33.3 L 121.5 35.6 L 111.4 37.6 L 101.0 39.4 L 90.4 41.0 L 79.5 42.2 L 68.3 43.2 L 56.8 43.7 L 51.0 43.74915256500244 L 51.0 147.7699999809265 L 53.9 146.9 L 60.4 144.8 L 67.5 142.6 L 75.1 140.3 L 83.3 137.8 L 92.2 135.3 L 101.6 132.7 L 111.6 130.1 L 112.3 131.8 L 102.9 136.2 L 94.0 140.3 L 85.6 144.0 L 77.7 147.4 L 70.4 150.6 L 63.6 153.5 L 57.4 156.3 L 51.7 158.8 L 46.6 161.1 L 45.857995700836184 161.44626865386962 L 45.0 165.2 L 42.1 163.2 L 35.8 152.7 Z " />
</g>
</svg>
