<svg xmlns="http://www.w3.org/2000/svg" xmlns:xlink="http://www.w3.org/1999/xlink" version="1.1" baseProfile="full" viewBox="0 0 200 200" width="200" height="200">
<g fill="black">
<path d="M 154.0 103.0 L 149.0 106.0 L 147.0756097793579 106.8018292427063 L 132.52666664123535 175.0 L 164.0 175.0 L 174.0 165.0 L 186.0 175.0 L 186.0 179.0 L 14.0 179.0 L 14.0 175.0 L 120.2473684310913 175.0 L 136.3526315689087 103.0 L 60.0 103.0 L 60.0 99.0 L 137.0 99.0 L 143.0 94.0 Z M 30.8 133.9 L 32.0 133.81111106872558 L 32.0 61.0 L 44.0 67.0 L 150.0 67.0 L 150.0 36.0 L 29.0 36.0 L 29.0 32.0 L 150.0 32.0 L 156.0 27.0 L 167.0 36.0 L 162.0 40.0 L 162.0 77.0 L 150.0 83.0 L 150.0 71.0 L 44.0 71.0 L 44.0 132.9828125 L 48.9 132.6 L 56.6 131.9 L 65.7 131.2 L 76.0 130.4 L 87.6 129.6 L 100.6 128.8 L 114.8 128.1 L 115.1 129.8 L 101.0 132.6 L 88.3 134.9 L 76.8 137.0 L 66.6 138.8 L 57.7 140.4 L 50.2 141.8 L 43.9 143.0 L 38.9 144.1 L 37.2 144.4777777671814 L 35.7 148.2 L 33.1 145.6 L 28.8 134.3 Z " />
</g>
</svg>
