<svg xmlns="http://www.w3.org/2000/svg" xmlns:xlink="http://www.w3.org/1999/xlink" version="1.1" baseProfile="full" viewBox="0 0 200 200" width="200" height="200">
<g fill="black">
<path d="M 126.13102426528931 106.55058345794677 L 128.6 113.4 L 132.2 121.5 L 136.2 129.2 L 140.9 136.5 L 146.2 143.4 L 152.2 149.9 L 158.9 156.0 L 166.3 161.7 L 174.4 167.2 L 183.2 172.2 L 187.9 174.9 L 176.7 183.7 L 167.4 177.6 L 159.0 171.0 L 151.4 164.1 L 144.6 156.8 L 138.8 149.0 L 133.8 140.9 L 129.8 132.4 L 126.7 123.6 L 124.85440979003906 115.60244235992431 L 122.1 127.0 L 118.0 138.0 L 112.8 148.2 L 106.3 157.5 L 98.7 165.8 L 90.0 173.1 L 80.1 179.4 L 69.2 184.6 L 57.3 188.8 L 56.6 187.1 L 67.5 181.3 L 77.3 174.9 L 85.8 168.0 L 93.2 160.5 L 99.5 152.4 L 104.6 143.7 L 108.7 134.3 L 111.8 124.1 L 113.8 113.3 L 114.3615385055542 106.0 L 66.0 106.0 L 66.0 102.0 L 114.6692307472229 102.0 L 114.7 101.6 L 114.7 54.0 L 81.0 54.0 L 81.0 50.0 L 114.7 50.0 L 114.7 12.0 L 126.7 14.0 L 129.7 16.0 L 126.7 17.8 L 126.7 50.0 L 153.0 50.0 L 159.0 45.0 L 170.0 54.0 L 165.0 58.0 L 165.0 102.0 L 169.3181818008423 102.0 L 177.5 93.0 L 187.5 102.0 L 187.5 106.0 L 126.20472440719604 106.0 Z M 40.0 186.9 L 35.9 184.8 L 34.5 180.5 L 35.1 173.5 L 35.1 167.1 L 34.6 161.3 L 33.5 156.2 L 31.9 151.5 L 29.7 147.4 L 27.0 143.6 L 23.6 140.2 L 19.5 137.0 L 14.5 134.1 L 15.1 132.4 L 21.0 133.6 L 26.5 135.7 L 31.4 138.8 L 33.56880941390991 140.7670597076416 L 33.6 140.7 L 36.3 135.4 L 39.6 129.0 L 43.6 121.4 L 48.2 112.7 L 53.6 102.8 L 59.7 91.8 L 66.5 79.7 L 74.2 66.5 L 75.9 67.4 L 69.9 81.4 L 64.5 94.2 L 59.5 105.7 L 55.1 116.0 L 51.3 125.0 L 48.1 132.8 L 45.5 139.5 L 43.6 144.8 L 42.3 148.9 L 41.7 151.6 L 41.419355392456055 151.51946725845337 L 42.2 153.0 L 44.4 159.2 L 45.8 166.0 L 46.4 173.5 L 46.4 181.4 L 44.3 185.5 Z M 153.0 54.0 L 126.7 54.0 L 126.7 102.0 L 153.0 102.0 Z M 34.9 83.6 L 33.4 81.6 L 31.5 79.5 L 29.3 77.4 L 26.7 75.3 L 23.8 73.3 L 20.5 71.1 L 16.9 69.0 L 12.8 67.1 L 13.4 65.4 L 17.8 66.3 L 22.1 67.1 L 26.1 68.1 L 29.9 69.4 L 33.4 70.8 L 36.7 72.5 L 39.7 74.3 L 42.4 76.4 L 45.0 78.7 L 47.2 81.3 L 47.8 85.8 L 45.2 89.5 L 40.6 90.2 L 36.9 87.5 L 36.1 85.6 Z M 49.9 37.7 L 48.3 35.6 L 46.5 33.5 L 44.3 31.4 L 41.8 29.3 L 39.1 27.2 L 36.0 25.1 L 32.7 23.0 L 29.0 21.1 L 29.5 19.4 L 33.7 20.3 L 37.7 21.1 L 41.5 22.2 L 45.1 23.5 L 48.5 24.9 L 51.7 26.6 L 54.6 28.4 L 57.4 30.4 L 59.9 32.7 L 62.2 35.1 L 63.1 39.6 L 60.6 43.4 L 56.1 44.3 L 52.2 41.8 L 51.2 39.7 Z " />
</g>
</svg>
