<svg xmlns="http://www.w3.org/2000/svg" xmlns:xlink="http://www.w3.org/1999/xlink" version="1.1" baseProfile="full" viewBox="0 0 200 200" width="200" height="200">
<g fill="black">
<path d="M 54.2 116.3 L 144.7 116.3 L 150.7 111.3 L 161.7 120.3 L 156.7 124.3 L 156.7 180.0 L 144.7 186.0 L 144.7 178.0 L 54.2 178.0 L 54.2 181.0 L 42.2 187.0 L 42.2 110.3 Z M 54.2 149.2 L 54.2 174.0 L 144.7 174.0 L 144.7 149.2 Z M 54.2 120.3 L 54.2 145.2 L 144.7 145.2 L 144.7 120.3 Z M 71.0 100.0 L 91.0 100.0 L 92.2 99.9 L 93.1 99.7 L 94.0 99.4 L 94.4 99.0 L 94.7 98.1 L 94.9 97.2 L 95.0 96.0 L 95.0 17.0 L 107.0 19.0 L 110.0 21.0 L 107.0 22.8 L 107.0 35.727777767181394 L 107.1 35.7 L 111.3 44.9 L 116.0 53.4 L 121.1 61.2 L 121.55163097381592 61.760645389556885 L 124.7 59.6 L 129.6 56.3 L 134.5 53.2 L 139.3 50.1 L 144.0 47.1 L 148.4 44.2 L 152.8 41.2 L 156.9 38.3 L 160.9 35.4 L 164.8 32.5 L 168.35202159881592 37.88185081481934 L 172.1 42.0 L 172.3 45.6 L 168.7125 44.0625 L 167.1 45.0 L 162.5 47.4 L 157.9 49.9 L 153.0 52.2 L 148.0 54.6 L 142.9 56.8 L 137.5 59.0 L 132.0 61.1 L 126.3 63.1 L 123.31243877410888 63.94647569656372 L 126.9 68.4 L 133.3 74.9 L 140.5 80.8 L 148.3 86.2 L 156.8 90.9 L 166.1 95.1 L 176.1 98.7 L 183.3 101.3 L 171.8 111.2 L 161.0 106.6 L 151.1 101.3 L 142.1 95.3 L 133.9 88.7 L 126.7 81.5 L 120.4 73.6 L 115.0 65.1 L 110.7 56.0 L 107.4 46.3 L 107.0 44.37619047164917 L 107.0 96.0 L 106.8 98.5 L 106.4 101.0 L 105.6 103.4 L 104.3 105.7 L 102.7 107.7 L 100.7 109.3 L 98.4 110.6 L 96.0 111.4 L 93.5 111.8 L 91.0 112.0 L 91.0 106.0 L 71.0 103.0 Z M 88.0 48.0 L 83.0 51.0 L 81.39587631225587 51.668384838104245 L 80.1 55.7 L 76.4 63.6 L 71.7 71.1 L 66.1 78.0 L 59.7 84.5 L 52.3 90.4 L 44.1 95.9 L 35.1 100.8 L 25.1 105.1 L 14.3 108.8 L 13.6 107.1 L 23.5 101.7 L 32.4 96.1 L 40.5 90.4 L 47.6 84.5 L 53.7 78.4 L 59.0 72.1 L 63.3 65.6 L 66.7 58.9 L 69.3 51.9 L 70.26164379119874 48.0 L 23.0 48.0 L 23.0 44.0 L 71.0 44.0 L 77.0 39.0 Z " />
</g>
</svg>
