<svg xmlns="http://www.w3.org/2000/svg" xmlns:xlink="http://www.w3.org/1999/xlink" version="1.1" baseProfile="full" viewBox="0 0 200 200" width="200" height="200">
<g fill="black">
<path d="M 38.1 186.9 L 34.1 184.9 L 32.6 180.5 L 33.1 173.5 L 33.2 167.0 L 32.8 161.2 L 31.9 155.9 L 30.6 151.3 L 29.529857540130614 148.65611848831176 L 28.9 148.5 L 29.183853244781496 147.80128440856933 L 28.9 147.1 L 26.7 143.4 L 23.9 140.1 L 20.6 137.0 L 16.7 134.1 L 17.3 132.4 L 22.5 133.7 L 27.2 135.9 L 31.5 139.0 L 32.37034769058228 139.91615543365478 L 34.2 135.7 L 37.1 129.2 L 40.5 121.6 L 44.5 112.9 L 49.2 103.0 L 54.4 92.0 L 60.3 79.8 L 67.0 66.6 L 68.7 67.3 L 63.8 81.3 L 59.3 94.0 L 55.2 105.5 L 51.6 115.7 L 48.4 124.8 L 43.6 139.2 L 42.1 144.6 L 41.0 148.7 L 40.6 151.4 L 39.894615745544435 151.22516117095947 L 40.8 153.3 L 42.7 159.4 L 43.9 166.1 L 44.5 173.5 L 44.5 181.4 L 42.5 185.4 Z M 182.0 144.0 L 184.0 144.0 L 182.0 169.0 L 185.6 171.4 L 188.0 175.0 L 185.6 178.6 L 182.0 181.0 L 97.0 181.0 L 94.4 180.8 L 92.0 180.4 L 89.5 179.6 L 87.3 178.3 L 85.3 176.7 L 83.6 174.7 L 82.4 172.4 L 81.6 170.0 L 81.1 167.5 L 81.0 165.0 L 81.0 70.9745454788208 L 78.7 73.4 L 72.8 78.7 L 66.5 83.6 L 65.3 82.3 L 70.1 76.1 L 74.6 69.9 L 78.9 63.6 L 83.0 57.1 L 86.7 50.5 L 90.2 43.6 L 93.4 36.6 L 96.2 29.3 L 98.8 21.9 L 100.71689853668212 15.103723430633545 L 100.7 15.1 L 100.85135135650634 14.627027034759521 L 101.0 14.1 L 101.01817893981934 14.10569076538086 L 101.5 12.6 L 112.5 17.7 L 114.8 20.5 L 111.11014490127563 21.40628023147583 L 109.5 25.7 L 106.1 33.5 L 102.4 40.9 L 100.1222222328186 45.0 L 167.5 45.0 L 173.5 40.0 L 184.5 49.0 L 179.5 52.0 L 179.41635847091675 52.03485059738159 L 179.3 58.9 L 178.9 70.0 L 178.4 80.3 L 177.8 89.9 L 177.1 98.6 L 176.2 106.6 L 175.3 113.8 L 174.2 120.3 L 173.0 126.1 L 171.6 131.1 L 170.8 133.5 L 169.7 135.8 L 168.3 137.9 L 166.7 139.8 L 164.8 141.4 L 162.7 142.7 L 160.4 143.7 L 158.0 144.4 L 155.5 144.8 L 153.0 145.0 L 153.0 139.0 L 133.0 136.0 L 133.0 133.0 L 153.0 133.0 L 154.3 132.9 L 155.4 132.7 L 156.3 132.5 L 157.0 132.1 L 158.2 131.3 L 158.7 130.7 L 159.2 129.9 L 159.7 128.9 L 160.2 127.6 L 161.3 123.3 L 162.4 118.1 L 163.4 112.1 L 164.3 105.2 L 165.1 97.5 L 165.8 89.0 L 166.4 79.7 L 166.9 69.5 L 167.3 58.6 L 167.4627119064331 49.0 L 97.81764707565307 49.0 L 94.0 54.9 L 89.3 61.4 L 84.2 67.6 L 82.27017545700073 69.63508768081665 L 93.0 75.0 L 128.5 75.0 L 134.5 70.0 L 145.5 79.0 L 140.5 83.0 L 140.5 121.0 L 128.5 127.0 L 128.5 115.0 L 93.0 115.0 L 93.0 165.0 L 93.1 166.2 L 93.2 167.1 L 93.4 167.7 L 93.6 168.0 L 93.8 168.2 L 93.9 168.4 L 94.3 168.5 L 94.9 168.7 L 95.8 168.9 L 97.0 169.0 L 176.0 169.0 Z M 93.0 79.0 L 93.0 111.0 L 128.5 111.0 L 128.5 79.0 Z M 33.0 83.2 L 31.8 81.2 L 30.4 79.2 L 28.6 77.2 L 26.5 75.1 L 24.2 73.1 L 21.5 71.0 L 18.6 68.9 L 15.2 67.1 L 15.8 65.4 L 19.6 66.4 L 23.3 67.3 L 26.8 68.3 L 30.1 69.6 L 33.1 71.1 L 36.0 72.7 L 38.6 74.6 L 41.1 76.7 L 43.3 79.0 L 45.2 81.5 L 45.5 86.1 L 42.6 89.6 L 38.0 89.9 L 34.5 87.0 L 33.9 85.1 Z M 45.7 37.3 L 44.5 35.2 L 43.0 33.2 L 41.3 31.1 L 39.3 29.1 L 37.1 27.1 L 34.7 25.0 L 32.0 22.9 L 28.9 21.2 L 29.5 19.5 L 33.0 20.5 L 36.5 21.3 L 39.8 22.4 L 43.0 23.7 L 45.9 25.1 L 48.7 26.8 L 51.3 28.6 L 53.7 30.7 L 55.9 32.9 L 57.9 35.4 L 58.4 39.9 L 55.7 43.6 L 51.1 44.1 L 47.5 41.3 L 46.7 39.3 Z " />
</g>
</svg>
