<svg xmlns="http://www.w3.org/2000/svg" xmlns:xlink="http://www.w3.org/1999/xlink" version="1.1" baseProfile="full" viewBox="0 0 200 200" width="200" height="200">
<g fill="black">
<path d="M 179.6 145.9 L 181.6 145.9 L 179.6 170.9 L 183.2 173.3 L 185.6 176.9 L 183.2 180.5 L 179.6 182.9 L 95.8 182.9 L 93.2 182.7 L 90.7 182.3 L 88.3 181.5 L 86.1 180.2 L 84.0 178.6 L 82.4 176.6 L 81.2 174.3 L 80.4 171.9 L 79.9 169.4 L 79.8 166.9 L 79.8 66.0 L 91.8 72.0 L 161.4 72.0 L 167.4 67.0 L 178.4 76.0 L 173.4 80.0 L 173.4 126.0 L 161.4 132.0 L 161.4 120.0 L 91.8 120.0 L 91.8 166.9 L 91.9 168.1 L 92.0 169.0 L 92.2 169.6 L 92.4 169.9 L 92.5 170.1 L 92.7 170.3 L 93.1 170.4 L 93.6 170.6 L 94.6 170.8 L 95.8 170.9 L 173.6 170.9 Z M 33.0 186.9 L 29.0 184.9 L 27.4 180.6 L 28.0 173.5 L 28.1 167.0 L 27.7 161.1 L 26.9 155.9 L 25.6 151.2 L 24.65319585800171 148.77381439208983 L 23.9 148.6 L 24.230588245391846 147.690882396698 L 24.0 147.1 L 21.8 143.4 L 19.2 140.1 L 16.1 137.0 L 12.3 134.1 L 12.9 132.5 L 18.0 133.7 L 22.6 135.9 L 26.8 139.1 L 27.378212261199952 139.74245805740355 L 29.1 135.7 L 31.8 129.3 L 35.2 121.7 L 39.1 112.9 L 43.5 103.0 L 48.6 92.0 L 54.4 79.8 L 60.9 66.6 L 62.6 67.3 L 57.9 81.3 L 53.6 94.0 L 49.6 105.5 L 46.1 115.7 L 43.1 124.7 L 40.6 132.5 L 38.5 139.1 L 37.0 144.5 L 36.0 148.6 L 35.6 151.3 L 34.85194396972656 151.12737169265748 L 35.8 153.3 L 37.6 159.4 L 38.8 166.1 L 39.4 173.5 L 39.4 181.4 L 37.3 185.4 Z M 91.8 76.0 L 91.8 116.0 L 161.4 116.0 L 161.4 76.0 Z M 27.8 83.1 L 26.7 81.1 L 25.4 79.1 L 23.7 77.1 L 21.7 75.1 L 19.5 73.1 L 17.0 71.0 L 14.2 68.9 L 10.9 67.1 L 11.5 65.5 L 15.2 66.5 L 18.8 67.3 L 22.2 68.4 L 25.3 69.6 L 28.3 71.1 L 31.1 72.8 L 33.7 74.7 L 36.0 76.8 L 38.2 79.1 L 40.0 81.6 L 40.3 86.2 L 37.3 89.6 L 32.8 89.9 L 29.3 86.9 L 28.7 85.0 Z M 97.7 16.9 L 100.3 19.4 L 96.65016613006591 20.819379806518555 L 96.2 22.5 L 94.4 28.2 L 92.1 33.9 L 89.4 39.7 L 89.23728809356689 40.0 L 163.9 40.0 L 173.9 30.0 L 185.9 40.0 L 185.9 44.0 L 87.0677966117859 44.0 L 86.2 45.6 L 82.7 51.5 L 78.7 57.5 L 74.3 63.5 L 69.3 69.5 L 63.8 75.5 L 62.3 74.4 L 66.2 67.3 L 69.8 60.6 L 73.1 54.1 L 76.0 47.9 L 78.6 41.8 L 80.8 36.0 L 82.7 30.4 L 84.1 25.1 L 85.2 19.9 L 85.8 15.0 L 85.82361783981324 15.003770923614502 L 86.1 13.0 Z M 40.1 37.2 L 39.0 35.1 L 37.6 33.1 L 36.0 31.1 L 34.1 29.1 L 32.0 27.0 L 29.6 25.0 L 27.1 22.9 L 24.1 21.2 L 24.8 19.5 L 28.1 20.5 L 31.5 21.4 L 34.8 22.4 L 37.8 23.7 L 40.7 25.2 L 43.4 26.8 L 45.9 28.7 L 48.2 30.8 L 50.4 33.0 L 52.3 35.4 L 52.8 40.0 L 50.0 43.6 L 45.4 44.0 L 41.8 41.2 L 41.1 39.2 Z " />
</g>
</svg>
