<svg xmlns="http://www.w3.org/2000/svg" xmlns:xlink="http://www.w3.org/1999/xlink" version="1.1" baseProfile="full" viewBox="0 0 200 200" width="200" height="200">
<g fill="black">
<path d="M 36.9 186.9 L 32.9 184.8 L 31.4 180.5 L 32.0 173.5 L 32.0 167.0 L 31.6 161.2 L 30.6 156.0 L 29.2 151.4 L 28.011475372314454 148.626775932312 L 27.5 148.5 L 27.718947410583496 147.9442105293274 L 27.4 147.2 L 25.0 143.5 L 22.1 140.1 L 18.5 137.0 L 14.2 134.1 L 14.8 132.4 L 20.2 133.6 L 25.3 135.8 L 29.7 138.9 L 31.001288414001465 140.23465480804444 L 33.1 135.6 L 36.1 129.1 L 39.7 121.6 L 43.9 112.8 L 48.7 102.9 L 54.2 91.9 L 60.5 79.8 L 67.5 66.6 L 69.1 67.3 L 63.9 81.3 L 59.2 94.1 L 54.8 105.6 L 50.9 115.8 L 47.5 124.8 L 44.7 132.7 L 42.4 139.3 L 40.8 144.7 L 39.7 148.7 L 39.2 151.4 L 38.57597255706787 151.24532651901245 L 39.5 153.2 L 41.4 159.3 L 42.7 166.1 L 43.3 173.5 L 43.4 181.4 L 41.3 185.5 Z M 182.9 144.0 L 184.9 144.0 L 182.9 169.0 L 186.5 171.4 L 188.9 175.0 L 186.5 178.6 L 182.9 181.0 L 97.5 181.0 L 94.9 180.8 L 92.4 180.4 L 90.0 179.6 L 87.7 178.3 L 85.7 176.7 L 84.1 174.7 L 82.9 172.4 L 82.0 170.0 L 81.6 167.5 L 81.5 165.0 L 81.5 104.0 L 93.5 110.0 L 129.2 110.0 L 129.2 77.0 L 86.4 77.0 L 86.4 73.0 L 129.2 73.0 L 135.2 68.0 L 146.2 77.0 L 141.2 81.0 L 141.2 120.0 L 129.2 126.0 L 129.2 114.0 L 93.5 114.0 L 93.5 166.2 L 93.7 167.1 L 93.9 167.7 L 94.1 168.0 L 94.2 168.2 L 94.4 168.4 L 95.3 168.7 L 96.2 168.9 L 97.5 169.0 L 176.9 169.0 Z M 170.5 135.8 L 169.1 137.9 L 167.5 139.8 L 165.6 141.4 L 163.5 142.7 L 161.2 143.7 L 158.8 144.4 L 156.3 144.8 L 153.8 145.0 L 153.8 139.0 L 133.8 136.0 L 133.8 133.0 L 153.8 133.0 L 155.1 132.9 L 156.2 132.7 L 157.1 132.5 L 158.5 131.7 L 159.0 131.3 L 159.5 130.6 L 160.1 129.9 L 160.5 128.9 L 161.0 127.6 L 162.2 123.3 L 163.3 118.1 L 164.3 112.1 L 165.2 105.2 L 166.0 97.5 L 166.7 89.0 L 167.3 79.7 L 167.7 69.5 L 168.1 58.6 L 168.34406776428222 49.0 L 98.60144929885864 49.0 L 94.8 55.1 L 90.1 61.7 L 85.2 68.0 L 79.8 74.0 L 74.1 79.5 L 68.0 84.6 L 66.7 83.3 L 71.3 77.0 L 75.7 70.6 L 79.8 64.1 L 83.8 57.5 L 87.4 50.8 L 90.8 43.9 L 93.9 36.7 L 96.8 29.4 L 99.3 21.9 L 101.30481281280518 15.10106954574585 L 101.3 15.1 L 101.3653060913086 14.895918369293213 L 101.6 14.1 L 101.61816444396973 14.10573616027832 L 102.1 12.6 L 113.0 17.7 L 115.3 20.5 L 111.60344829559327 21.4241379737854 L 110.0 25.7 L 106.7 33.5 L 103.0 41.0 L 100.83333330154419 45.0 L 168.4 45.0 L 174.4 40.0 L 185.4 49.0 L 180.4 52.0 L 180.27408990859985 52.05246248245239 L 180.1 58.9 L 179.7 70.0 L 179.2 80.3 L 178.6 89.9 L 177.9 98.6 L 177.1 106.6 L 176.1 113.8 L 175.0 120.3 L 173.8 126.1 L 172.5 131.2 L 171.6 133.6 Z M 31.8 83.3 L 30.5 81.3 L 28.9 79.3 L 27.0 77.3 L 24.8 75.2 L 22.3 73.1 L 19.4 71.1 L 16.3 68.9 L 12.7 67.1 L 13.3 65.4 L 17.3 66.4 L 21.2 67.2 L 24.8 68.3 L 28.2 69.5 L 31.4 71.0 L 34.4 72.6 L 37.2 74.5 L 39.7 76.6 L 42.0 78.9 L 44.0 81.5 L 44.5 86.0 L 41.6 89.6 L 37.1 90.0 L 33.5 87.2 L 32.8 85.3 Z M 45.2 37.4 L 43.9 35.3 L 42.3 33.3 L 40.5 31.2 L 38.3 29.2 L 36.0 27.1 L 33.3 25.0 L 30.4 22.9 L 27.1 21.1 L 27.8 19.5 L 31.5 20.4 L 35.1 21.3 L 38.6 22.3 L 41.9 23.6 L 44.9 25.1 L 47.8 26.7 L 50.6 28.6 L 53.1 30.6 L 55.4 32.8 L 57.5 35.3 L 58.1 39.8 L 55.4 43.5 L 50.9 44.1 L 47.2 41.5 L 46.3 39.4 Z " />
</g>
</svg>
