<svg xmlns="http://www.w3.org/2000/svg" xmlns:xlink="http://www.w3.org/1999/xlink" version="1.1" baseProfile="full" viewBox="0 0 200 200" width="200" height="200">
<g fill="black">
<path d="M 145.9 176.2 L 165.1 176.2 L 166.0 176.0 L 166.6 175.8 L 166.9 175.6 L 167.1 175.5 L 167.3 175.3 L 167.6 174.4 L 167.8 173.5 L 167.9 172.2 L 167.9 161.5933961868286 L 164.0 164.5 L 160.7 159.8 L 157.9 155.0 L 155.5 150.0 L 153.6 144.9 L 152.2 139.7 L 151.92175731658935 138.1974895477295 L 151.2 140.3 L 148.3 146.4 L 145.0 151.9 L 141.3 156.7 L 137.1 160.7 L 132.4 164.0 L 130.5 164.85686273574828 L 130.5 177.1 L 118.5 183.1 L 118.5 160.46355142593384 L 113.1 164.4 L 109.9 159.8 L 107.1 155.0 L 104.7 150.0 L 102.8 144.9 L 101.4 139.7 L 101.1324517250061 138.2552391052246 L 100.4 140.3 L 97.6 146.4 L 94.3 151.9 L 90.6 156.7 L 86.4 160.7 L 81.7 164.0 L 80.3 164.64399995803834 L 80.3 181.6 L 68.3 187.6 L 68.3 85.0 L 80.3 91.0 L 118.5 91.0 L 118.5 66.9 L 103.3 66.9 L 103.3 73.9 L 91.3 79.9 L 91.3 43.2 L 61.7 43.2 L 61.7 39.2 L 91.3 39.2 L 91.3 13.8 L 103.3 15.8 L 106.3 17.8 L 103.3 19.6 L 103.3 39.2 L 144.0 39.2 L 144.0 13.8 L 156.0 15.8 L 159.0 17.8 L 156.0 19.6 L 156.0 39.2 L 166.0 39.2 L 176.0 29.2 L 188.0 39.2 L 188.0 43.2 L 156.0 43.2 L 156.0 70.9 L 144.0 76.9 L 144.0 66.9 L 130.5 66.9 L 130.5 91.0 L 167.9 91.0 L 173.9 86.0 L 184.9 95.0 L 179.9 99.0 L 179.9 172.2 L 179.7 174.8 L 179.3 177.3 L 178.5 179.7 L 177.3 182.0 L 175.6 184.0 L 173.6 185.6 L 171.3 186.9 L 168.9 187.7 L 166.4 188.1 L 163.9 188.2 L 163.9 182.2 L 145.9 179.2 Z M 34.7 186.9 L 30.6 184.9 L 29.1 180.6 L 29.7 173.5 L 29.7 167.0 L 29.4 161.2 L 28.5 155.9 L 27.2 151.3 L 26.16969699859619 148.7545454978943 L 25.5 148.6 L 25.799458026885986 147.8398373603821 L 25.5 147.1 L 23.3 143.4 L 20.7 140.1 L 17.4 137.0 L 13.5 134.1 L 14.1 132.4 L 19.3 133.7 L 24.0 135.9 L 28.2 139.0 L 28.994966983795166 139.859423828125 L 30.8 135.7 L 33.6 129.2 L 37.0 121.6 L 40.9 112.9 L 45.5 103.0 L 50.7 92.0 L 56.6 79.8 L 63.2 66.6 L 64.8 67.3 L 60.1 81.3 L 55.6 94.0 L 51.6 105.5 L 48.0 115.7 L 44.9 124.8 L 42.3 132.6 L 40.2 139.2 L 38.6 144.5 L 37.6 148.6 L 37.2 151.3 L 36.451943969726564 151.12737169265748 L 37.4 153.3 L 39.2 159.4 L 40.4 166.1 L 41.1 173.5 L 41.1 181.4 L 39.0 185.4 Z M 130.5 95.0 L 130.5 160.375 L 133.2 157.0 L 136.0 152.7 L 138.5 148.1 L 140.6 142.9 L 142.4 137.3 L 143.8 131.1 L 144.9 124.4 L 145.6 117.2 L 145.8784810066223 111.7 L 132.5 111.7 L 132.5 107.7 L 146.0 107.7 L 152.0 102.7 L 163.0 111.7 L 158.0 114.7 L 157.34900312423707 114.97124872207641 L 156.9 118.4 L 156.3293049812317 121.62035064697265 L 156.6 122.9 L 157.8 127.8 L 159.3 132.4 L 161.0 136.8 L 163.1 141.0 L 165.4 145.0 L 167.9 148.8 L 167.9 95.0 Z M 80.3 95.0 L 80.3 159.75 L 82.5 157.0 L 85.3 152.8 L 87.8 148.1 L 89.9 142.9 L 91.6 137.3 L 93.1 131.1 L 94.1 124.4 L 94.9 117.2 L 95.10886077880859 111.7 L 81.9 111.7 L 81.9 107.7 L 95.2 107.7 L 101.2 102.7 L 112.2 111.7 L 107.2 114.7 L 106.61127347946167 114.94530267715454 L 106.2 118.4 L 105.56052150726319 121.767919921875 L 105.8 122.9 L 107.1 127.8 L 108.5 132.4 L 110.3 136.8 L 112.3 141.0 L 114.6 145.0 L 117.1 148.8 L 118.5 150.537931060791 L 118.5 95.0 Z M 29.5 83.1 L 28.4 81.2 L 27.0 79.2 L 25.2 77.2 L 23.2 75.1 L 20.9 73.1 L 18.3 71.0 L 15.4 68.9 L 12.1 67.1 L 12.7 65.4 L 16.4 66.5 L 20.1 67.3 L 23.5 68.3 L 26.8 69.6 L 29.8 71.1 L 32.6 72.7 L 35.2 74.6 L 37.6 76.7 L 39.8 79.0 L 41.7 81.6 L 42.0 86.1 L 39.1 89.6 L 34.5 89.9 L 31.0 87.0 L 30.4 85.1 Z M 103.3 43.2 L 103.3 62.9 L 144.0 62.9 L 144.0 43.2 Z M 42.1 37.2 L 40.9 35.2 L 39.4 33.2 L 37.8 31.1 L 33.7 27.0 L 31.3 25.0 L 28.6 22.9 L 25.6 21.2 L 26.2 19.5 L 29.7 20.5 L 33.1 21.3 L 36.4 22.4 L 39.5 23.7 L 42.4 25.1 L 45.2 26.8 L 47.7 28.7 L 50.1 30.7 L 52.3 33.0 L 54.3 35.4 L 54.8 40.0 L 52.0 43.6 L 47.4 44.0 L 43.8 41.3 L 43.1 39.2 Z " />
</g>
</svg>
