<svg xmlns="http://www.w3.org/2000/svg" xmlns:xlink="http://www.w3.org/1999/xlink" version="1.1" baseProfile="full" viewBox="0 0 200 200" width="200" height="200">
<g fill="black">
<path d="M 150.5 181.6 L 139.5 177.1 L 129.8 171.7 L 121.5 165.2 L 114.5 157.7 L 109.1 149.2 L 105.2 139.9 L 103.55706806182862 132.985994720459 L 102.3 137.7 L 97.3 148.5 L 90.5 158.1 L 82.0 166.4 L 71.9 173.3 L 60.2 179.0 L 47.0 183.3 L 32.3 186.4 L 16.1 188.1 L 15.8 186.3 L 31.5 182.7 L 45.4 178.2 L 57.5 173.0 L 67.8 166.9 L 76.4 160.0 L 83.2 152.3 L 88.5 143.8 L 92.1 134.3 L 94.3 123.9 L 94.9 112.5 L 94.92940454483032 112.50024499893189 L 95.0 110.1 L 106.9 112.6 L 109.9 114.7 L 106.4625 116.69375 L 105.63051986694336 124.47870712280273 L 106.9 128.9 L 110.6 137.7 L 115.3 145.5 L 118.93255443572998 149.84609184265136 L 122.9 146.6 L 127.2 143.2 L 131.5 139.9 L 135.5 136.8 L 139.4 133.7 L 143.2 130.7 L 146.7 127.8 L 150.1 124.9 L 153.4 122.1 L 155.63662309646605 119.93793106079102 L 155.6 119.9 L 155.98823528289796 119.59803924560546 L 156.4 119.2 L 156.43860664367676 119.24775037765502 L 156.5 119.2 L 164.0 128.6 L 164.3 132.1 L 160.58348989486694 130.8161147117615 L 160.3 131.0 L 156.5 133.5 L 152.6 136.0 L 148.4 138.4 L 144.1 140.8 L 139.6 143.2 L 134.9 145.5 L 130.0 147.7 L 124.8 149.8 L 120.23618116378785 151.40578813552855 L 120.9 152.2 L 127.5 158.0 L 135.1 162.9 L 143.9 167.0 L 153.9 170.3 L 165.2 172.7 L 177.7 174.2 L 188.1 175.4 L 176.2 187.3 L 162.8 185.0 Z M 35.2 156.5 L 35.0 152.0 L 38.0 148.5 L 41.4 147.1 L 44.5 145.4 L 47.4 143.5 L 50.1 141.3 L 52.5 138.8 L 54.8 136.0 L 56.9 132.8 L 58.8 129.2 L 60.6 125.3 L 61.9 121.0 L 63.7 121.2 L 63.6 125.9 L 63.3 130.6 L 62.4 135.0 L 61.0 139.2 L 59.2 143.3 L 56.9 147.1 L 54.1 150.6 L 50.9 153.8 L 47.3 156.7 L 43.3 159.3 L 38.7 159.5 Z M 61.0 61.0 L 61.0 108.79361705780029 L 65.3 105.5 L 69.3 101.7 L 72.9 97.6 L 75.8 93.3 L 78.2 88.7 L 80.2 83.6 L 81.6 78.2 L 82.5 72.3 L 83.0 65.9 L 83.0 61.0 Z M 137.0 64.0 L 139.0 64.0 L 137.0 89.0 L 140.6 91.4 L 143.0 95.0 L 140.6 98.6 L 137.0 101.0 L 124.0 101.0 L 121.4 100.8 L 118.9 100.4 L 116.5 99.6 L 114.2 98.3 L 112.2 96.7 L 110.6 94.7 L 109.3 92.4 L 108.5 90.0 L 108.1 87.5 L 108.0 85.0 L 108.0 61.0 L 94.81818180084228 61.0 L 94.3 66.7 L 93.1 74.0 L 91.3 80.8 L 88.8 87.1 L 85.7 92.7 L 81.9 97.8 L 77.6 102.2 L 72.7 105.8 L 67.3 108.7 L 61.3 110.8 L 61.0 110.07142858505249 L 61.0 114.0 L 49.0 120.0 L 49.0 60.66229505538941 L 44.3 64.9 L 38.0 70.1 L 31.4 74.7 L 24.5 78.7 L 23.4 77.2 L 29.0 71.7 L 34.5 66.1 L 39.7 60.3 L 44.7 54.3 L 49.6 48.0 L 54.1 41.4 L 58.5 34.6 L 62.6 27.4 L 66.5 20.0 L 70.1 12.2 L 70.14014873504638 12.219702625274659 L 70.7 11.1 L 80.9 17.5 L 82.7 20.6 L 78.99555253982544 20.919348907470702 L 76.5 25.4 L 74.89210529327393 28.0 L 113.0 28.0 L 113.37377052307129 27.688524627685545 L 113.4 27.6 L 113.45304660797119 27.622461128234864 L 119.0 23.0 L 130.0 32.0 L 125.0 35.0 L 122.01660079956055 36.243083000183105 L 120.8 38.1 L 118.7 40.9 L 116.4 43.7 L 113.9 46.5 L 111.2 49.2 L 108.3 51.9 L 105.3 54.5 L 101.9 57.0 L 149.0 57.0 L 155.0 52.0 L 166.0 61.0 L 161.0 65.0 L 161.0 111.0 L 149.0 117.0 L 149.0 61.0 L 120.0 61.0 L 120.0 86.2 L 120.2 87.1 L 120.5 88.0 L 120.9 88.4 L 121.8 88.7 L 122.7 88.9 L 124.0 89.0 L 131.0 89.0 Z M 72.41842107772827 32.0 L 71.8 33.0 L 66.8 40.2 L 61.6 47.0 L 56.1 53.4 L 55.35932207107544 54.17966098785401 L 61.0 57.0 L 98.28484849929809 57.0 L 99.8 55.0 L 101.9 51.5 L 103.9 48.2 L 105.8 45.0 L 107.5 41.9 L 109.1 38.9 L 110.4 35.9 L 111.6 33.1 L 111.99285717010498 32.0 Z " />
</g>
</svg>
