<svg xmlns="http://www.w3.org/2000/svg" xmlns:xlink="http://www.w3.org/1999/xlink" version="1.1" baseProfile="full" viewBox="0 0 200 200" width="200" height="200">
<g fill="black">
<path d="M 160.5 169.3 L 153.0 159.0 L 146.3 147.9 L 140.4 136.0 L 135.5 123.2 L 131.5 109.6 L 128.4 95.2 L 127.874014377594 91.2025089263916 L 127.4 94.5 L 124.1 109.5 L 119.9 123.5 L 114.8 136.4 L 108.7 148.2 L 101.6 158.9 L 93.6 168.5 L 84.7 176.9 L 74.9 184.0 L 64.1 189.7 L 63.3 188.2 L 72.6 180.9 L 81.1 172.9 L 88.7 164.2 L 95.4 154.6 L 101.2 144.2 L 106.2 132.8 L 110.4 120.4 L 113.7 107.1 L 116.1 92.8 L 117.7 77.4 L 117.7 72.0 L 75.0 72.0 L 75.0 68.0 L 117.7 68.0 L 117.7 13.0 L 129.7 15.0 L 132.7 17.0 L 129.7 18.8 L 129.7 68.0 L 163.0 68.0 L 173.0 58.0 L 185.0 68.0 L 185.0 72.0 L 129.7 72.0 L 129.7 75.61818180084228 L 130.5 79.4 L 134.2 93.9 L 138.5 107.6 L 143.3 120.2 L 148.9 131.9 L 155.1 142.7 L 161.9 152.6 L 169.5 161.5 L 177.6 169.6 L 186.5 176.7 L 189.3 178.9 L 178.4 187.2 L 169.0 178.7 Z M 13.7 134.5 L 22.1 129.1 L 26.3 126.1 L 30.6 123.1 L 35.0 119.9 L 39.4 116.5 L 43.9 113.1 L 48.5 109.5 L 52.8 106.20638294219971 L 52.8 14.0 L 64.8 16.0 L 67.8 18.0 L 64.8 19.8 L 64.8 182.0 L 52.8 188.0 L 52.8 112.62162160873413 L 52.2 113.4 L 48.4 117.9 L 44.5 122.1 L 40.6 126.2 L 36.6 130.2 L 32.6 133.9 L 28.7 137.5 L 24.7 141.0 L 23.890324687957765 141.65168981552125 L 24.0 145.6 L 20.6 144.3 L 12.1 135.6 Z M 34.2 73.9 L 33.1 69.9 L 31.8 66.0 L 30.2 62.2 L 28.5 58.5 L 26.5 54.9 L 24.4 51.3 L 22.0 47.8 L 19.4 44.3 L 20.6 42.9 L 24.4 45.4 L 28.0 48.1 L 31.4 51.1 L 34.5 54.5 L 37.3 58.1 L 39.9 61.9 L 42.2 66.1 L 44.3 70.4 L 46.1 75.0 L 47.6 79.7 L 46.8 84.2 L 43.1 86.9 L 38.6 86.0 L 35.9 82.3 L 35.2 78.0 Z M 160.4 43.9 L 159.1 40.9 L 157.6 38.0 L 155.7 35.0 L 153.6 32.1 L 151.1 29.1 L 148.3 26.1 L 145.2 23.1 L 141.6 20.2 L 142.5 18.7 L 146.8 20.5 L 151.0 22.4 L 154.8 24.6 L 158.4 27.0 L 161.7 29.7 L 164.6 32.6 L 167.3 35.7 L 169.7 39.0 L 171.8 42.6 L 173.5 46.3 L 173.1 50.8 L 169.6 53.8 L 165.0 53.3 L 162.1 49.9 L 161.4 46.9 Z " />
</g>
</svg>
