<svg xmlns="http://www.w3.org/2000/svg" xmlns:xlink="http://www.w3.org/1999/xlink" version="1.1" baseProfile="full" viewBox="0 0 200 200" width="200" height="200">
<g fill="black">
<path d="M 36.0 185.0 L 26.0 175.0 L 32.0 169.0 L 32.0 131.0 L 44.0 133.0 L 47.0 135.0 L 44.0 136.8 L 44.0 173.0 L 93.0 173.0 L 93.0 123.0 L 16.0 123.0 L 16.0 119.0 L 93.0 119.0 L 93.0 91.0 L 36.0 91.0 L 36.0 87.0 L 141.0 87.0 L 151.0 77.0 L 163.0 87.0 L 163.0 91.0 L 105.0 91.0 L 105.0 119.0 L 163.0 119.0 L 173.0 109.0 L 185.0 119.0 L 185.0 123.0 L 105.0 123.0 L 105.0 173.0 L 155.0 173.0 L 155.0 131.0 L 167.0 133.0 L 170.0 135.0 L 167.0 136.8 L 167.0 181.0 L 155.0 187.0 L 155.0 177.0 L 44.0 177.0 Z M 61.7 70.6 L 58.8 67.4 L 55.4 64.3 L 51.5 61.3 L 47.2 58.2 L 42.5 55.3 L 37.3 52.3 L 31.6 49.2 L 25.6 46.1 L 25.747451877593996 45.682219696044925 L 25.4 45.8 L 24.5 44.1 L 29.5 40.5 L 34.3 37.0 L 38.8 33.7 L 43.1 30.5 L 47.2 27.4 L 50.9 24.3 L 54.4 21.2 L 57.5 18.2 L 60.4 15.3 L 62.34114141464234 13.13488073348999 L 62.3 13.1 L 63.3 12.1 L 71.5 20.9 L 72.2 24.4 L 68.38716220855713 23.463513469696046 L 68.1 23.7 L 64.4 26.5 L 60.5 29.2 L 56.3 31.8 L 51.9 34.4 L 47.2 36.9 L 42.2 39.4 L 36.9 41.7 L 31.3 43.8 L 28.329196071624757 44.80705223083496 L 33.0 45.7 L 39.3 47.3 L 45.3 49.3 L 50.8 51.6 L 56.0 54.1 L 60.8 56.8 L 65.2 59.7 L 69.3 62.9 L 72.9 66.4 L 76.1 70.1 L 77.1 74.5 L 74.7 78.4 L 70.2 79.3 L 66.3 76.9 L 64.2 73.7 Z M 111.0 70.5 L 108.1 67.4 L 104.6 64.3 L 100.6 61.3 L 96.1 58.3 L 91.0 55.3 L 85.4 52.3 L 79.3 49.2 L 72.7 46.1 L 72.83851699829101 45.62904224395752 L 72.3 45.8 L 71.6 44.1 L 77.0 40.4 L 82.1 37.0 L 87.0 33.6 L 91.7 30.4 L 96.0 27.3 L 100.1 24.2 L 103.8 21.1 L 107.2 18.1 L 110.3 15.2 L 112.46424007415771 12.958465671539306 L 112.4 12.9 L 113.3 12.0 L 121.3 21.0 L 121.9 24.6 L 118.0761194229126 23.50746269226074 L 117.7 23.8 L 113.8 26.6 L 109.7 29.3 L 105.2 31.9 L 100.5 34.5 L 95.5 37.0 L 90.2 39.4 L 84.6 41.7 L 78.6 43.8 L 75.51254510879517 44.78014440536499 L 80.5 45.6 L 87.3 47.3 L 93.6 49.3 L 99.5 51.5 L 104.9 54.0 L 109.9 56.7 L 114.5 59.7 L 118.6 62.9 L 122.2 66.4 L 125.3 70.2 L 126.1 74.7 L 123.6 78.5 L 119.1 79.2 L 115.3 76.7 L 113.4 73.6 Z M 158.7 70.3 L 156.1 67.3 L 152.9 64.2 L 149.1 61.2 L 144.7 58.2 L 139.8 55.3 L 134.3 52.3 L 128.2 49.2 L 121.7 46.1 L 121.83415842056274 45.64386138916016 L 121.3 45.8 L 120.6 44.1 L 126.2 40.4 L 131.5 36.9 L 136.5 33.6 L 141.2 30.4 L 145.5 27.3 L 149.5 24.2 L 153.2 21.2 L 156.5 18.2 L 159.4 15.3 L 161.34114141464232 13.13488073348999 L 161.3 13.1 L 162.3 12.1 L 170.5 20.9 L 171.2 24.4 L 167.40177326202394 23.467102146148683 L 167.0 23.8 L 163.2 26.5 L 159.1 29.2 L 154.7 31.9 L 150.0 34.5 L 145.0 37.0 L 139.6 39.4 L 133.9 41.7 L 127.8 43.9 L 124.68947858810425 44.809229373931885 L 129.5 45.6 L 136.2 47.3 L 142.5 49.3 L 148.3 51.5 L 153.6 54.0 L 158.4 56.7 L 162.7 59.7 L 166.6 63.0 L 169.9 66.6 L 172.8 70.4 L 173.2 75.0 L 170.4 78.6 L 165.8 79.0 L 162.2 76.2 L 160.7 73.3 Z " />
</g>
</svg>
