<svg xmlns="http://www.w3.org/2000/svg" xmlns:xlink="http://www.w3.org/1999/xlink" version="1.1" baseProfile="full" viewBox="0 0 200 200" width="200" height="200">
<g fill="black">
<path d="M 160.25072889328004 117.62332363128662 L 161.2 118.4 L 156.2 122.4 L 156.2 180.3 L 144.2 186.3 L 144.2 176.3 L 55.7 176.3 L 55.7 183.3 L 43.7 189.3 L 43.7 116.52399997711181 L 35.0 120.7 L 24.5 125.0 L 13.3 128.8 L 12.6 127.1 L 22.9 121.5 L 32.6 115.9 L 41.7 110.2 L 43.7 108.851162815094 L 43.7 108.4 L 44.084158420562744 108.59207916259766 L 50.3 104.4 L 58.2 98.5 L 65.6 92.4 L 72.4 86.1 L 78.5 79.7 L 84.1 73.1 L 84.91612901687623 72.0 L 15.0 72.0 L 15.0 68.0 L 94.0 68.0 L 94.0 34.58307695388794 L 82.2 35.4 L 68.8 36.2 L 54.9 36.8 L 40.7 37.0 L 26.0 36.8 L 25.9 35.1 L 40.4 33.2 L 54.5 31.4 L 68.2 29.7 L 81.4 27.9 L 94.2 26.0 L 106.6 24.1 L 118.5 22.1 L 130.0 19.9 L 141.1 17.6 L 150.80415678024292 15.514059734344482 L 150.8 15.5 L 150.8143991470337 15.511858081817627 L 151.8 15.3 L 152.05263156890868 16.531578922271727 L 162.7 25.3 L 163.0 28.3 L 158.58537549972533 26.122924900054933 L 154.2 27.0 L 143.2 28.8 L 131.8 30.5 L 120.0 32.0 L 107.8 33.3 L 106.0 33.47142858505249 L 106.0 68.0 L 125.00500001907349 68.0 L 126.5 65.4 L 128.5 61.5 L 130.5 57.7 L 132.4 54.1 L 134.3 50.6 L 136.1 47.2 L 137.8 44.0 L 139.4 40.8 L 140.9 37.7 L 141.86509294509887 35.631943702697754 L 141.8 35.6 L 142.8 33.8 L 152.6 40.9 L 154.1 44.2 L 150.08928575515748 44.2 L 145.9 49.3 L 143.4 52.2 L 140.8 55.2 L 138.1 58.2 L 135.2 61.2 L 132.2 64.3 L 128.9 67.3 L 128.2 68.0 L 163.0 68.0 L 173.0 58.0 L 185.0 68.0 L 185.0 72.0 L 109.53928575515747 72.0 L 113.9 75.7 L 120.6 81.1 L 127.4 86.2 L 134.4 91.0 L 141.7 95.5 L 149.2 99.6 L 157.0 103.4 L 165.0 106.8 L 173.4 109.9 L 182.0 112.7 L 189.5 115.2 L 177.9 125.2 L 168.9 121.6 Z M 55.7 146.9 L 55.7 172.3 L 94.0 172.3 L 94.0 146.9 Z M 106.0 146.9 L 106.0 172.3 L 144.2 172.3 L 144.2 146.9 Z M 55.7 118.4 L 55.7 142.9 L 94.0 142.9 L 94.0 118.4 Z M 106.0 118.4 L 106.0 142.9 L 144.2 142.9 L 144.2 118.4 Z M 106.0 72.0 L 106.0 103.0 L 94.0 109.0 L 94.0 79.1 L 92.8 80.5 L 86.2 87.2 L 79.1 93.6 L 71.4 99.7 L 63.2 105.4 L 54.4 110.8 L 51.57040815353393 112.33520412445068 L 55.7 114.4 L 144.2 114.4 L 148.247562789917 111.02703104019164 L 144.0 108.5 L 136.5 103.3 L 129.5 97.7 L 122.8 91.8 L 116.6 85.4 L 110.9 78.6 L 106.37945203781128 72.0 Z M 60.0 58.3 L 59.0 55.6 L 57.9 53.1 L 56.5 50.6 L 55.0 48.2 L 53.2 45.8 L 51.3 43.5 L 49.1 41.1 L 46.4 39.2 L 47.2 37.6 L 50.5 38.8 L 53.7 40.0 L 56.8 41.6 L 59.7 43.5 L 62.4 45.6 L 64.9 48.0 L 67.2 50.7 L 69.3 53.7 L 71.1 56.9 L 72.8 60.3 L 72.3 64.8 L 68.9 67.8 L 64.3 67.4 L 61.3 63.9 L 60.7 61.0 Z " />
</g>
</svg>
