<svg xmlns="http://www.w3.org/2000/svg" xmlns:xlink="http://www.w3.org/1999/xlink" version="1.1" baseProfile="full" viewBox="0 0 200 200" width="200" height="200">
<g fill="black">
<path d="M 48.4 183.1 L 36.4 189.1 L 36.4 101.2 L 48.4 107.2 L 151.6 107.2 L 157.6 102.2 L 168.6 111.2 L 163.6 115.2 L 163.6 177.1 L 151.6 183.1 L 151.6 171.1 L 48.4 171.1 Z M 48.4 141.2 L 48.4 167.1 L 94.0 167.1 L 94.0 141.2 Z M 106.0 141.2 L 106.0 167.1 L 151.6 167.1 L 151.6 141.2 Z M 48.4 111.2 L 48.4 137.2 L 94.0 137.2 L 94.0 111.2 Z M 106.0 111.2 L 106.0 137.2 L 151.6 137.2 L 151.6 111.2 Z M 156.3 94.2 L 148.5 90.6 L 141.1 86.8 L 134.1 82.6 L 127.5 78.2 L 121.4 73.5 L 115.7 68.5 L 110.5 63.2 L 106.54310340881348 58.1 L 106.0 58.1 L 106.0 95.1 L 94.0 101.1 L 94.0 66.52615385055542 L 88.1 71.7 L 81.1 77.1 L 73.6 82.1 L 65.6 86.8 L 57.2 91.1 L 48.2 95.0 L 38.7 98.5 L 28.7 101.6 L 18.2 104.1 L 17.7 102.4 L 27.4 98.0 L 36.7 93.6 L 45.4 89.0 L 53.6 84.4 L 61.3 79.5 L 68.4 74.5 L 74.9 69.2 L 80.9 63.7 L 86.30350875854492 58.1 L 18.0 58.1 L 18.0 54.1 L 94.0 54.1 L 94.0 16.8 L 106.0 18.8 L 109.0 20.8 L 106.0 22.6 L 106.0 54.1 L 160.0 54.1 L 170.0 44.1 L 182.0 54.1 L 182.0 58.1 L 110.37692308425903 58.1 L 119.3 63.9 L 125.5 67.6 L 131.9 71.1 L 138.6 74.4 L 145.6 77.6 L 152.9 80.5 L 160.6 83.2 L 168.5 85.7 L 176.8 88.0 L 184.7 90.3 L 173.1 100.6 L 164.5 97.6 Z M 150.4 24.5 L 151.8 27.8 L 147.76592178344725 27.660893821716307 L 145.4 30.5 L 142.7 33.5 L 140.0 36.4 L 137.2 39.3 L 134.3 42.1 L 131.3 44.9 L 128.2 47.6 L 121.6 52.8 L 120.3 51.6 L 122.5 48.1 L 124.6 44.6 L 126.8 41.1 L 128.9 37.7 L 130.9 34.3 L 134.9 27.7 L 136.8 24.4 L 138.6 21.1 L 139.91469793319703 18.7627592086792 L 139.8 18.7 L 140.9 17.1 Z M 64.5 42.1 L 63.3 39.3 L 61.9 36.3 L 60.3 33.4 L 58.5 30.4 L 56.4 27.3 L 54.2 24.2 L 51.9 21.0 L 49.1 17.9 L 50.3 16.5 L 53.8 18.8 L 57.4 21.0 L 60.6 23.4 L 63.6 25.9 L 66.5 28.6 L 69.1 31.3 L 71.5 34.2 L 73.7 37.2 L 75.7 40.2 L 77.4 43.4 L 77.3 48.0 L 74.0 51.2 L 69.5 51.1 L 66.3 47.8 L 65.5 45.0 Z " />
</g>
</svg>
