<svg xmlns="http://www.w3.org/2000/svg" xmlns:xlink="http://www.w3.org/1999/xlink" version="1.1" baseProfile="full" viewBox="0 0 200 200" width="200" height="200">
<g fill="black">
<path d="M 84.9 165.3 L 85.2 168.9 L 81.52582893371581 167.49713468551636 L 80.6 168.1 L 76.1 170.8 L 71.2 173.4 L 66.0 175.9 L 60.4 178.4 L 54.5 180.8 L 48.3 183.0 L 41.7 185.2 L 34.7 187.1 L 27.3 188.8 L 26.6 187.1 L 33.3 183.6 L 39.6 180.2 L 45.6 177.0 L 51.3 173.9 L 56.6 170.8 L 61.5 167.8 L 66.1 164.8 L 70.2 161.8 L 74.0 158.8 L 76.83333330154419 156.38333330154418 L 77.5 155.8 Z M 149.8 179.9 L 146.1 177.0 L 142.2 174.2 L 138.2 171.5 L 134.0 169.1 L 129.7 166.7 L 125.2 164.5 L 120.6 162.3 L 115.7 160.0 L 116.1 158.3 L 121.6 158.6 L 126.9 159.4 L 132.1 160.6 L 137.1 162.1 L 142.1 164.0 L 146.9 166.1 L 151.5 168.5 L 156.1 171.3 L 160.5 174.2 L 164.8 177.5 L 166.7 181.6 L 165.2 186.0 L 161.0 187.9 L 156.7 186.4 L 153.3 183.1 Z M 17.0 146.6 L 58.0 146.6 L 58.0 117.6 L 28.0 117.6 L 28.0 113.6 L 58.0 113.6 L 58.0 92.9 L 70.0 94.9 L 73.0 96.9 L 70.0 98.7 L 70.0 113.6 L 94.0 113.6 L 94.0 87.0 L 53.0 87.0 L 53.0 99.0 L 41.0 105.0 L 41.0 23.1 L 53.0 29.1 L 147.0 29.1 L 153.0 24.1 L 164.0 33.1 L 159.0 37.1 L 159.0 93.0 L 147.0 99.0 L 147.0 87.0 L 106.0 87.0 L 106.0 113.6 L 130.0 113.6 L 130.0 92.9 L 142.0 94.9 L 145.0 96.9 L 142.0 98.7 L 142.0 113.6 L 150.0 113.6 L 160.0 103.6 L 172.0 113.6 L 172.0 117.6 L 142.0 117.6 L 142.0 146.6 L 161.0 146.6 L 171.0 136.6 L 183.0 146.6 L 183.0 150.6 L 17.0 150.6 Z M 70.0 117.6 L 70.0 146.6 L 94.0 146.6 L 94.0 117.6 Z M 106.0 117.6 L 106.0 146.6 L 130.0 146.6 L 130.0 117.6 Z M 53.0 59.7 L 53.0 83.0 L 94.0 83.0 L 94.0 59.7 Z M 106.0 59.7 L 106.0 83.0 L 147.0 83.0 L 147.0 59.7 Z M 53.0 33.1 L 53.0 55.7 L 94.0 55.7 L 94.0 33.1 Z M 106.0 33.1 L 106.0 55.7 L 147.0 55.7 L 147.0 33.1 Z " />
</g>
</svg>
