<svg xmlns="http://www.w3.org/2000/svg" xmlns:xlink="http://www.w3.org/1999/xlink" version="1.1" baseProfile="full" viewBox="0 0 200 200" width="200" height="200">
<g fill="black">
<path d="M 155.1 179.6 L 149.9 175.9 L 144.4 172.2 L 138.3 168.3 L 131.8 164.4 L 124.9 160.3 L 117.5 156.2 L 109.7 151.8 L 101.5 147.2 L 102.2 145.5 L 111.2 148.3 L 119.7 151.3 L 127.7 154.4 L 135.3 157.6 L 142.4 160.9 L 149.0 164.1 L 155.2 167.4 L 161.0 170.7 L 166.4 174.0 L 171.3 177.4 L 173.5 181.4 L 172.3 185.8 L 168.3 188.0 L 163.9 186.8 L 159.7 183.3 Z M 17.0 137.0 L 45.0 137.0 L 45.0 116.0 L 25.0 116.0 L 25.0 112.0 L 45.0 112.0 L 45.0 95.0 L 57.0 97.0 L 60.0 99.0 L 57.0 100.8 L 57.0 112.0 L 67.0 112.0 L 77.0 102.0 L 89.0 112.0 L 89.0 116.0 L 57.0 116.0 L 57.0 137.0 L 91.87241382598877 137.0 L 92.7 133.8 L 93.0 128.0 L 93.0 85.0 L 52.0 85.0 L 40.0 91.0 L 40.0 17.0 L 52.0 23.0 L 148.0 23.0 L 154.0 18.0 L 165.0 27.0 L 160.0 31.0 L 160.0 89.0 L 148.0 95.0 L 148.0 85.0 L 105.0 85.0 L 105.0 128.0 L 103.8 136.2 L 103.50909090042114 137.0 L 131.0 137.0 L 131.0 115.0 L 111.0 115.0 L 111.0 111.0 L 131.0 111.0 L 131.0 94.0 L 143.0 96.0 L 146.0 98.0 L 143.0 99.8 L 143.0 111.0 L 153.0 111.0 L 163.0 101.0 L 175.0 111.0 L 175.0 115.0 L 143.0 115.0 L 143.0 137.0 L 161.0 137.0 L 171.0 127.0 L 183.0 137.0 L 183.0 141.0 L 102.05454549789428 141.0 L 101.0 143.9 L 96.6 151.0 L 90.8 157.6 L 83.6 163.5 L 75.0 169.0 L 65.2 173.9 L 53.9 178.4 L 41.3 182.4 L 27.2 185.8 L 26.7 184.1 L 40.0 178.8 L 51.8 173.5 L 62.2 168.1 L 71.0 162.5 L 78.3 156.9 L 84.1 151.1 L 88.3 145.4 L 90.5 141.0 L 17.0 141.0 Z M 52.0 56.0 L 52.0 81.0 L 93.0 81.0 L 93.0 56.0 Z M 105.0 56.0 L 105.0 81.0 L 148.0 81.0 L 148.0 56.0 Z M 52.0 27.0 L 52.0 52.0 L 93.0 52.0 L 93.0 27.0 Z M 105.0 27.0 L 105.0 52.0 L 148.0 52.0 L 148.0 27.0 Z " />
</g>
</svg>
