<svg xmlns="http://www.w3.org/2000/svg" xmlns:xlink="http://www.w3.org/1999/xlink" version="1.1" baseProfile="full" viewBox="0 0 200 200" width="200" height="200">
<g fill="black">
<path d="M 42.3 181.8 L 30.3 187.8 L 30.3 116.8 L 42.3 122.8 L 157.6 122.8 L 163.6 117.8 L 174.6 126.8 L 169.6 130.8 L 169.6 180.8 L 157.6 186.8 L 157.6 178.8 L 42.3 178.8 Z M 42.3 152.4 L 42.3 174.8 L 94.0 174.8 L 94.0 152.4 Z M 106.0 152.4 L 106.0 174.8 L 157.6 174.8 L 157.6 152.4 Z M 42.3 126.8 L 42.3 148.4 L 94.0 148.4 L 94.0 126.8 Z M 106.0 126.8 L 106.0 148.4 L 157.6 148.4 L 157.6 126.8 Z M 70.0 105.7 L 91.2 105.7 L 92.1 105.5 L 92.7 105.3 L 93.0 105.1 L 93.2 105.0 L 93.4 104.8 L 93.7 103.9 L 93.9 103.0 L 94.0 101.7 L 94.0 77.0 L 24.0 77.0 L 24.0 73.0 L 154.0 73.0 L 164.0 63.0 L 176.0 73.0 L 176.0 77.0 L 106.0 77.0 L 106.0 101.7 L 105.8 104.3 L 105.4 106.8 L 104.6 109.2 L 103.3 111.4 L 101.7 113.5 L 99.7 115.1 L 97.4 116.3 L 95.0 117.1 L 92.5 117.6 L 90.0 117.7 L 90.0 111.7 L 70.0 108.7 Z M 67.4 89.5 L 68.1 93.1 L 64.18712873458863 92.07029705047607 L 63.9 92.3 L 60.1 95.0 L 55.9 97.6 L 51.5 100.1 L 46.7 102.6 L 41.5 105.0 L 36.0 107.3 L 30.2 109.4 L 23.9 111.4 L 17.3 113.2 L 16.6 111.5 L 22.4 107.9 L 27.9 104.6 L 33.1 101.4 L 37.9 98.3 L 42.4 95.3 L 46.5 92.3 L 50.2 89.4 L 53.5 86.5 L 56.5 83.7 L 58.38305082321167 81.67209911346436 L 58.3 81.6 L 59.3 80.7 Z M 159.8 105.7 L 156.7 103.1 L 153.3 100.6 L 149.5 98.1 L 145.3 95.6 L 140.7 93.1 L 135.7 90.5 L 130.4 87.8 L 124.7 85.0 L 125.2 83.3 L 131.5 84.3 L 137.5 85.5 L 143.1 87.0 L 148.4 88.7 L 153.3 90.6 L 157.9 92.6 L 162.2 94.7 L 166.2 97.1 L 169.8 99.5 L 173.1 102.2 L 174.8 106.5 L 173.1 110.7 L 168.8 112.4 L 164.6 110.6 L 162.4 108.2 Z M 159.2 56.5 L 150.5 53.1 L 142.1 49.3 L 133.9 45.3 L 126.1 40.8 L 118.5 36.1 L 111.3 30.9 L 104.5 25.3 L 103.18139533996582 24.023255825042725 L 102.21130437850952 23.746086978912352 L 97.9 27.3 L 90.1 32.9 L 81.8 38.2 L 73.1 43.1 L 63.9 47.6 L 54.3 51.7 L 44.2 55.4 L 33.7 58.6 L 22.7 61.4 L 11.2 63.6 L 10.7 61.9 L 21.6 57.8 L 31.9 53.6 L 41.8 49.3 L 51.2 44.7 L 60.1 40.0 L 68.5 35.0 L 76.4 29.7 L 83.8 24.2 L 90.7 18.5 L 97.1 12.4 L 97.13547592163086 12.438071727752686 L 97.4 12.2 L 105.02796449661255 20.890086078643797 L 106.9 21.9 L 114.5 25.9 L 122.1 29.8 L 129.9 33.4 L 137.9 36.8 L 146.0 39.9 L 154.3 42.7 L 162.8 45.2 L 171.5 47.5 L 180.5 49.4 L 189.2 51.5 L 177.4 62.2 L 168.2 59.5 Z M 142.0 54.1 L 142.0 58.1 L 58.0 58.1 L 58.0 54.1 L 120.0 54.1 L 130.0 44.1 Z " />
</g>
</svg>
