<svg xmlns="http://www.w3.org/2000/svg" xmlns:xlink="http://www.w3.org/1999/xlink" version="1.1" baseProfile="full" viewBox="0 0 200 200" width="200" height="200">
<g fill="black">
<path d="M 81.23333330154419 158.2 L 83.9 161.2 L 84.1 164.7 L 80.58234510421752 163.22898063659667 L 78.1 164.7 L 72.4 167.9 L 66.4 171.0 L 60.3 174.0 L 53.9 176.9 L 47.3 179.6 L 40.4 182.2 L 33.3 184.7 L 25.9 186.9 L 18.3 188.8 L 17.6 187.1 L 24.5 183.4 L 31.2 179.7 L 37.7 176.2 L 44.0 172.8 L 50.1 169.3 L 55.9 165.8 L 61.5 162.3 L 66.8 158.8 L 71.9 155.2 L 76.7 151.6 Z M 152.8 179.7 L 148.9 176.6 L 144.6 173.5 L 140.0 170.5 L 135.0 167.6 L 129.6 164.8 L 124.0 161.9 L 118.0 159.0 L 111.7 156.1 L 112.2 154.4 L 119.1 155.4 L 125.8 156.9 L 132.1 158.7 L 138.1 160.7 L 143.8 163.0 L 149.2 165.5 L 154.4 168.2 L 159.2 171.1 L 163.7 174.2 L 167.9 177.5 L 169.7 181.7 L 168.1 186.0 L 163.9 187.8 L 159.6 186.2 L 156.4 182.9 Z M 17.0 143.0 L 54.0 143.0 L 54.0 115.0 L 30.0 115.0 L 30.0 111.0 L 94.0 111.0 L 94.0 85.0 L 52.0 85.0 L 52.0 92.0 L 40.0 98.0 L 40.0 17.0 L 52.0 23.0 L 148.0 23.0 L 154.0 18.0 L 165.0 27.0 L 160.0 31.0 L 160.0 89.0 L 148.0 95.0 L 148.0 85.0 L 106.0 85.0 L 106.0 111.0 L 148.0 111.0 L 158.0 101.0 L 170.0 111.0 L 170.0 115.0 L 146.0 115.0 L 146.0 143.0 L 161.0 143.0 L 171.0 133.0 L 183.0 143.0 L 183.0 147.0 L 17.0 147.0 Z M 66.0 115.0 L 66.0 143.0 L 94.0 143.0 L 94.0 115.0 Z M 106.0 115.0 L 106.0 143.0 L 134.0 143.0 L 134.0 115.0 Z M 52.0 56.0 L 52.0 81.0 L 94.0 81.0 L 94.0 56.0 Z M 106.0 56.0 L 106.0 81.0 L 148.0 81.0 L 148.0 56.0 Z M 52.0 27.0 L 52.0 52.0 L 94.0 52.0 L 94.0 27.0 Z M 106.0 27.0 L 106.0 52.0 L 148.0 52.0 L 148.0 27.0 Z " />
</g>
</svg>
