<svg xmlns="http://www.w3.org/2000/svg" xmlns:xlink="http://www.w3.org/1999/xlink" version="1.1" baseProfile="full" viewBox="0 0 200 200" width="200" height="200">
<g fill="black">
<path d="M 76.0 104.0 L 149.0 104.0 L 155.0 99.0 L 166.0 108.0 L 161.0 112.0 L 161.0 176.0 L 149.0 182.0 L 149.0 170.0 L 76.0 170.0 L 76.0 182.0 L 64.0 188.0 L 64.0 98.0 Z M 25.0 88.0 L 25.0 84.0 L 164.0 84.0 L 164.0 22.0 L 176.0 24.0 L 179.0 26.0 L 176.0 27.8 L 176.0 94.0 L 164.0 100.0 L 164.0 88.0 L 51.0 88.0 L 51.0 129.0 L 50.4 136.7 L 49.3 144.1 L 47.6 151.0 L 45.4 157.5 L 42.6 163.5 L 39.2 168.9 L 35.3 173.8 L 30.9 178.2 L 25.9 181.8 L 20.5 184.7 L 19.4 183.2 L 23.5 178.9 L 27.0 174.5 L 30.1 169.9 L 32.7 165.1 L 34.8 159.9 L 36.5 154.5 L 37.8 148.7 L 38.6 142.5 L 39.0 135.9 L 39.0 88.0 Z M 76.0 149.0 L 76.0 166.0 L 149.0 166.0 L 149.0 149.0 Z M 76.0 128.0 L 76.0 145.0 L 149.0 145.0 L 149.0 128.0 Z M 76.0 108.0 L 76.0 124.0 L 149.0 124.0 L 149.0 108.0 Z M 99.13636360168456 46.31818180084228 L 98.8 48.0 L 97.46013517379761 50.679729747772214 L 99.7 51.3 L 105.8 53.2 L 111.6 55.2 L 117.0 57.1 L 122.1 59.1 L 127.0 61.0 L 131.5 62.9 L 135.7 64.7 L 139.7 66.5 L 143.4 68.3 L 146.1 71.9 L 145.5 76.5 L 141.9 79.2 L 137.3 78.6 L 134.2 76.5 L 130.7 74.2 L 126.9 71.8 L 122.8 69.3 L 118.4 66.7 L 113.8 64.0 L 108.8 61.1 L 103.6 58.1 L 98.2 54.8 L 96.05977010726929 53.448275852203366 L 92.1 58.2 L 87.0 62.3 L 80.8 65.9 L 73.5 69.1 L 65.2 71.9 L 55.7 74.3 L 45.0 76.3 L 33.1 77.8 L 32.8 76.1 L 44.1 72.6 L 54.2 69.1 L 63.0 65.7 L 70.4 62.1 L 76.6 58.5 L 81.4 54.9 L 84.8 51.3 L 86.9 48.0 L 87.9 44.9 L 88.0 42.0 L 88.0 39.6 L 100.0 42.0 L 103.0 44.0 Z M 100.13636360168456 19.318181800842286 L 99.8 21.0 L 98.35723686218262 23.885526275634767 L 99.9 24.3 L 106.2 26.2 L 112.1 28.1 L 117.6 30.1 L 122.9 32.1 L 127.8 34.0 L 132.4 35.9 L 136.7 37.7 L 140.7 39.5 L 144.4 41.3 L 147.1 44.9 L 146.5 49.5 L 142.9 52.2 L 138.3 51.6 L 135.2 49.5 L 131.7 47.2 L 127.8 44.9 L 123.7 42.4 L 119.2 39.8 L 114.4 37.0 L 109.4 34.1 L 104.0 31.1 L 98.4 27.8 L 96.76479396820068 26.80224723815918 L 93.1 31.2 L 88.0 35.3 L 81.8 38.9 L 74.5 42.1 L 66.2 44.9 L 56.7 47.3 L 46.0 49.3 L 34.1 50.8 L 33.8 49.1 L 45.1 45.6 L 55.2 42.1 L 64.0 38.7 L 71.4 35.1 L 77.6 31.5 L 82.4 27.9 L 85.8 24.3 L 87.9 21.0 L 88.9 17.9 L 89.0 15.0 L 89.0 12.6 L 101.0 15.0 L 104.0 17.0 Z " />
</g>
</svg>
