<svg xmlns="http://www.w3.org/2000/svg" xmlns:xlink="http://www.w3.org/1999/xlink" version="1.1" baseProfile="full" viewBox="0 0 200 200" width="200" height="200">
<g fill="black">
<path d="M 137.0 172.0 L 157.0 172.0 L 158.2 171.9 L 159.1 171.7 L 160.0 171.4 L 160.4 171.0 L 160.7 170.1 L 160.9 169.2 L 161.0 168.0 L 161.0 123.0 L 94.58148145675659 123.0 L 92.8 125.6 L 89.0 130.8 L 85.2 135.7 L 81.2 140.4 L 77.2 144.8 L 75.037109375 146.85989580154418 L 80.3 146.6 L 88.5 146.2 L 96.8 145.9 L 105.2 145.7 L 113.7 145.6 L 122.4 145.5 L 129.1704279899597 145.6556420326233 L 127.6 143.3 L 125.7 140.5 L 123.6 137.5 L 121.3 134.5 L 118.9 131.3 L 116.1 128.3 L 117.3 126.9 L 120.8 129.2 L 124.3 131.3 L 127.6 133.5 L 130.6 135.8 L 133.5 138.1 L 136.1 140.5 L 138.6 142.9 L 140.8 145.4 L 142.9 147.9 L 144.8 150.5 L 145.2 155.0 L 142.4 158.6 L 137.8 159.0 L 134.2 156.1 L 133.3 153.7 L 132.2 151.3 L 131.3 149.5 L 122.7 150.9 L 105.9 153.3 L 89.3 155.5 L 81.2 156.6 L 73.2 157.7 L 65.3 158.7 L 61.59423990249634 159.22260723114013 L 59.8 162.6 L 57.5 159.8 L 54.4 148.1 L 56.3 147.9 L 64.2 147.4 L 69.74411764144898 147.12279415130615 L 70.1 146.5 L 72.9 141.5 L 75.9 136.5 L 78.9 131.4 L 81.9 126.1 L 83.6222222328186 123.0 L 38.0 123.0 L 38.0 178.0 L 26.0 184.0 L 26.0 113.0 L 38.0 119.0 L 85.81071424484253 119.0 L 87.9 115.1 L 90.8 109.3 L 93.7 103.3 L 94.10909090042114 102.4 L 50.3 102.4 L 50.3 105.4 L 38.3 111.4 L 38.3 48.6 L 50.3 50.6 L 53.3 52.6 L 50.3 54.4 L 50.3 98.4 L 150.4 98.4 L 150.4 48.6 L 162.4 50.6 L 165.4 52.6 L 162.4 54.4 L 162.4 104.4 L 150.4 110.4 L 150.4 102.4 L 107.46666669845581 102.4 L 107.3 102.7 L 103.7 108.8 L 100.1 114.6 L 97.27142858505249 119.0 L 161.0 119.0 L 167.0 114.0 L 178.0 123.0 L 173.0 127.0 L 173.0 168.0 L 172.8 170.5 L 172.4 173.0 L 171.6 175.4 L 170.3 177.7 L 168.7 179.7 L 166.7 181.3 L 164.4 182.6 L 162.0 183.4 L 159.5 183.8 L 157.0 184.0 L 157.0 178.0 L 137.0 175.0 Z M 119.5 83.4 L 112.5 79.5 L 105.54325437545776 75.8228630065918 L 104.1 76.6 L 95.8 80.4 L 87.1 83.9 L 77.9 87.0 L 68.1 89.8 L 57.9 92.0 L 57.4 90.3 L 66.9 86.2 L 75.9 82.0 L 84.5 77.9 L 92.5 73.6 L 96.36010360717773 71.28393783569337 L 91.1 68.8 L 76.5 62.4 L 69.1 59.3 L 61.7 56.1 L 62.1 54.4 L 70.2 55.6 L 78.2 57.3 L 86.0 59.4 L 93.9 61.8 L 101.6 64.4 L 105.20127391815186 65.75632390975952 L 107.0 64.6 L 113.5 59.8 L 119.4 54.9 L 124.9 49.8 L 129.1229214668274 45.31853227615356 L 129.1 45.3 L 130.1 44.3 L 138.5 52.9 L 139.2 56.4 L 135.53888025283814 55.56500778198242 L 132.5 58.3 L 126.1 63.3 L 119.3 68.0 L 115.84355745315551 70.05518207550048 L 116.9 70.5 L 124.5 73.9 L 132.0 77.5 L 139.4 81.4 L 142.1 85.1 L 141.5 89.6 L 137.9 92.3 L 133.3 91.7 L 126.5 87.5 Z M 15.0 36.8 L 94.0 36.8 L 94.0 12.1 L 106.0 14.1 L 109.0 16.1 L 106.0 17.9 L 106.0 36.8 L 163.0 36.8 L 173.0 26.8 L 185.0 36.8 L 185.0 40.8 L 15.0 40.8 Z " />
</g>
</svg>
