<svg xmlns="http://www.w3.org/2000/svg" xmlns:xlink="http://www.w3.org/1999/xlink" version="1.1" baseProfile="full" viewBox="0 0 200 200" width="200" height="200">
<g fill="black">
<path d="M 87.0 146.0 L 105.0 146.0 L 105.0 106.0 L 117.0 112.0 L 136.0 112.0 L 136.0 87.0 L 148.0 89.0 L 151.0 91.0 L 148.0 92.8 L 148.0 112.0 L 155.0 112.0 L 165.0 102.0 L 177.0 112.0 L 177.0 116.0 L 148.0 116.0 L 148.0 146.0 L 161.0 146.0 L 171.0 136.0 L 183.0 146.0 L 183.0 150.0 L 148.0 150.0 L 148.0 182.0 L 136.0 188.0 L 136.0 150.0 L 87.0 150.0 Z M 60.2 139.1 L 59.3 137.2 L 58.3 135.3 L 57.1 133.3 L 55.6 131.3 L 53.9 129.3 L 52.0 127.2 L 49.9 125.0 L 48.03814668655396 123.65946559906006 L 46.5 125.4 L 42.5 129.4 L 38.1 133.0 L 33.4 136.1 L 28.5 138.7 L 27.4 137.2 L 31.0 133.2 L 34.4 129.1 L 37.6 125.0 L 40.6 120.7 L 43.4 116.2 L 46.0 111.6 L 48.3 106.8 L 50.4 101.8 L 52.3 96.5 L 53.60849924087525 92.00203399658203 L 53.6 92.0 L 53.7 91.6875 L 53.9 91.0 L 53.91807231903076 91.00602407455445 L 54.4 89.5 L 65.3 94.8 L 67.5 97.6 L 63.819567394256595 98.43939695358276 L 62.9 100.7 L 61.21999998092652 104.0 L 85.0 104.0 L 91.0 99.0 L 102.0 108.0 L 97.0 111.0 L 94.76958675384522 111.92933883666993 L 90.7 120.7 L 84.6 132.1 L 78.1 142.5 L 71.2 151.9 L 63.9 160.3 L 56.2 167.5 L 48.2 173.7 L 39.9 178.6 L 31.2 182.4 L 22.2 184.8 L 21.7 183.1 L 29.6 178.9 L 37.1 174.1 L 44.2 168.4 L 51.0 162.0 L 57.5 154.6 L 63.7 146.4 L 64.27488403320312 145.50357074737548 L 61.2 142.7 L 60.8 141.0 Z M 117.0 116.0 L 117.0 146.0 L 136.0 146.0 L 136.0 116.0 Z M 59.08113203048706 108.0 L 57.1 111.5 L 53.9 116.5 L 50.3 121.1 L 49.4160252571106 122.10028715133667 L 51.2 122.9 L 54.2 123.9 L 57.0 125.1 L 59.7 126.4 L 62.2 127.9 L 64.5 129.6 L 66.7 131.4 L 68.7 133.3 L 70.5 135.4 L 70.54931507110595 135.47089042663575 L 75.2 127.0 L 80.4 115.8 L 83.62314052581787 108.0 Z M 20.0 80.7 L 94.5 80.7 L 94.5 56.0 L 33.9 56.0 L 33.9 52.0 L 94.5 52.0 L 94.5 8.4 L 106.5 10.4 L 109.5 12.4 L 106.5 14.2 L 106.5 52.0 L 145.1 52.0 L 155.1 42.0 L 167.1 52.0 L 167.1 56.0 L 106.5 56.0 L 106.5 80.7 L 162.71818180084227 80.7 L 170.9 71.7 L 180.9 80.7 L 180.9 84.7 L 20.0 84.7 Z M 162.7 21.2 L 163.2 24.7 L 159.52948713302612 23.651282024383544 L 156.3 26.0 L 149.3 31.0 L 145.5 33.6 L 141.6 36.2 L 137.5 38.8 L 133.2 41.4 L 128.7 44.0 L 123.9 46.5 L 122.8 45.1 L 126.5 41.2 L 130.1 37.4 L 137.0 30.5 L 140.2 27.2 L 146.4 21.0 L 149.3 18.0 L 152.0 15.1 L 153.88083906173705 13.074481010437012 L 153.8 13.0 L 154.8 12.1 Z M 58.1 36.3 L 56.6 33.8 L 54.8 31.3 L 52.7 28.8 L 50.4 26.3 L 47.8 23.8 L 45.0 21.3 L 41.9 18.7 L 38.5 16.4 L 39.3 14.7 L 47.3 17.5 L 51.0 19.1 L 54.5 20.9 L 57.8 22.9 L 60.9 25.0 L 63.7 27.4 L 66.4 29.9 L 68.8 32.6 L 71.0 35.5 L 71.5 40.0 L 68.6 43.6 L 64.1 44.1 L 60.5 41.3 L 59.4 38.8 Z " />
</g>
</svg>
