<svg xmlns="http://www.w3.org/2000/svg" xmlns:xlink="http://www.w3.org/1999/xlink" version="1.1" baseProfile="full" viewBox="0 0 200 200" width="200" height="200">
<g fill="black">
<path d="M 152.9 178.4 L 164.5 178.4 L 165.1 178.3 L 165.6 178.2 L 165.8 178.1 L 165.9 178.0 L 166.1 177.9 L 166.3 177.5 L 166.5 176.9 L 166.7 176.0 L 166.9 174.9 L 167.0 173.4 L 167.0 62.3 L 105.0 62.3 L 105.0 180.9 L 95.0 185.9 L 95.0 62.3 L 34.0 62.3 L 34.0 182.8 L 22.0 188.8 L 22.0 52.3 L 34.0 58.3 L 167.0 58.3 L 172.0 53.3 L 182.0 62.3 L 177.0 65.3 L 177.0 173.4 L 176.9 175.7 L 176.6 177.9 L 176.0 180.0 L 175.2 182.0 L 174.1 183.9 L 172.6 185.5 L 170.8 186.8 L 168.7 187.7 L 166.6 188.2 L 164.5 188.4 L 164.5 183.4 L 152.9 180.9 Z M 79.27616577148437 127.29512948989868 L 75.5 128.9 L 71.5 130.5 L 71.1 130.63658533096313 L 71.1 178.3 L 59.1 184.3 L 59.1 146.48867921829225 L 56.7209192276001 147.56599884033204 L 55.7 151.0 L 54.3 154.7 L 52.8 158.2 L 51.1 161.7 L 49.2 165.1 L 47.0 168.5 L 44.7 171.7 L 42.0 174.7 L 39.4 177.8 L 37.9 176.8 L 39.5 173.2 L 40.7 169.5 L 41.8 165.9 L 42.9 162.4 L 43.7 158.9 L 44.5 155.5 L 45.0 152.1 L 45.4 148.8 L 45.7 145.5 L 45.76962661743164 143.20232086181642 L 45.7 143.2 L 46.0 140.1 L 57.7 143.6 L 59.1 144.7925926208496 L 59.1 134.34418601989745 L 58.9 134.4 L 54.6 135.5 L 50.3 136.5 L 45.9 137.5 L 45.56666669845581 137.5666666984558 L 43.8 141.1 L 41.4 138.4 L 38.1 126.7 L 40.1 126.4 L 44.4 126.3 L 48.8 126.0 L 51.192837429046634 125.88870525360107 L 51.8 124.8 L 54.6 119.8 L 57.6 114.8 L 60.6 109.9 L 63.5 105.1 L 69.3 95.3 L 72.1 90.5 L 74.9 85.6 L 77.08127489089966 81.64139003753662 L 77.0 81.6 L 78.1 79.9 L 87.8 87.1 L 89.3 90.4 L 85.52786884307861 90.33606557846069 L 84.5 91.8 L 81.1 96.4 L 77.6 100.9 L 74.1 105.5 L 70.4 110.0 L 66.7 114.4 L 62.9 118.7 L 58.9 123.0 L 56.257361030578615 125.57971897125245 L 57.4 125.5 L 61.7 125.1 L 65.9 124.8 L 70.2 124.5 L 74.4 124.1 L 78.43213119506837 123.91245899200439 L 78.2 123.1 L 77.5 120.9 L 76.7 118.8 L 75.7 116.6 L 74.6 114.5 L 73.5 112.3 L 71.8 110.5 L 73.0 109.1 L 75.1 110.6 L 77.4 111.8 L 79.6 113.4 L 81.7 115.1 L 83.7 116.9 L 85.5 119.0 L 87.2 121.2 L 88.7 123.5 L 90.2 126.0 L 91.4 128.7 L 90.9 133.2 L 87.3 136.1 L 82.8 135.5 L 79.9 132.0 L 79.3 127.4 Z M 151.9 165.9 L 151.7 163.4 L 151.31984729766845 160.92900762557983 L 150.2 161.8 L 146.5 164.5 L 142.6 167.0 L 138.6 169.4 L 130.2 173.8 L 126.0 175.8 L 121.6 177.8 L 117.1 179.7 L 116.52131147384644 179.9314754486084 L 115.4 183.8 L 112.6 181.5 L 107.1 170.7 L 109.0 170.1 L 113.5 169.0 L 118.0 167.8 L 122.5 166.5 L 126.9 165.3 L 130.6 164.12272729873658 L 130.6 134.7 L 121.0 134.7 L 121.0 146.7 L 112.0 151.2 L 112.0 88.4 L 121.0 92.9 L 130.6 92.9 L 130.6 65.6 L 140.6 67.6 L 143.1 69.6 L 140.6 71.26666669845581 L 140.6 92.9 L 150.2 92.9 L 154.7 87.9 L 164.2 96.9 L 159.2 99.4 L 159.2 134.7 L 150.2 139.2 L 150.2 134.7 L 140.6 134.7 L 140.6 161.07727270126344 L 144.3 159.9 L 148.6 158.7 L 150.6699595451355 158.08842105865477 L 150.0 155.6 L 149.0 152.8 L 147.9 150.0 L 146.6 147.1 L 144.8 144.4 L 146.2 143.2 L 148.6 145.5 L 151.2 147.6 L 153.6 149.9 L 155.7 152.4 L 157.6 155.0 L 159.3 157.8 L 160.8 160.6 L 162.0 163.6 L 163.0 166.7 L 163.8 169.9 L 162.3 174.2 L 158.3 176.4 L 153.9 174.9 L 151.8 170.8 L 151.9 168.4 Z M 78.9 158.0 L 78.5 155.6 L 78.0 153.3 L 77.4 151.0 L 75.8 146.4 L 73.8 141.8 L 72.3 139.9 L 73.5 138.6 L 75.6 140.2 L 77.9 141.6 L 80.0 143.4 L 82.0 145.3 L 83.8 147.4 L 85.6 149.7 L 87.2 152.1 L 88.6 154.7 L 89.9 157.4 L 91.1 160.3 L 90.3 164.8 L 86.6 167.5 L 82.1 166.7 L 79.4 163.0 L 79.2 160.5 Z M 121.0 96.9 L 121.0 130.7 L 130.6 130.7 L 130.6 96.9 Z M 140.6 96.9 L 140.6 130.7 L 150.2 130.7 L 150.2 96.9 Z M 49.8 103.6 L 49.1 101.7 L 48.2 99.8 L 47.2 97.9 L 46.0 96.0 L 44.6 94.0 L 43.0 92.0 L 41.3 90.0 L 39.1 88.4 L 40.0 86.8 L 42.5 88.0 L 45.2 88.9 L 47.8 90.0 L 50.2 91.3 L 50.71346378326416 91.63486766815186 L 51.0 91.1 L 52.1 88.1 L 53.4 85.2 L 58.2 74.0 L 60.4 68.4 L 61.11285266876221 66.65027074813842 L 61.0 66.6 L 62.0 64.7 L 72.0 71.5 L 73.7 74.7 L 69.53205318450928 74.84372234344482 L 68.3 76.4 L 66.3 78.9 L 64.3 81.3 L 62.2 83.7 L 60.1 86.0 L 57.9 88.3 L 55.6 90.5 L 53.1 92.7 L 52.78999996185303 93.02409086227416 L 54.7 94.5 L 56.7 96.3 L 58.5 98.3 L 60.2 100.4 L 61.8 102.7 L 61.7 107.3 L 58.5 110.6 L 53.9 110.5 L 50.7 107.3 L 50.3 105.5 Z M 134.0 14.8 L 137.0 16.8 L 134.0 18.6 L 134.0 31.6 L 165.0 31.6 L 175.0 21.6 L 187.0 31.6 L 187.0 35.6 L 134.0 35.6 L 134.0 49.6 L 122.0 55.6 L 122.0 35.6 L 78.0 35.6 L 78.0 49.6 L 66.0 55.6 L 66.0 35.6 L 13.0 35.6 L 13.0 31.6 L 66.0 31.6 L 66.0 12.8 L 78.0 14.8 L 81.0 16.8 L 78.0 18.6 L 78.0 31.6 L 122.0 31.6 L 122.0 12.8 Z " />
</g>
</svg>
