<svg xmlns="http://www.w3.org/2000/svg" xmlns:xlink="http://www.w3.org/1999/xlink" version="1.1" baseProfile="full" viewBox="0 0 200 200" width="200" height="200">
<g fill="black">
<path d="M 159.5 166.8 L 151.2 161.5 L 143.3 155.9 L 135.7 149.9 L 128.6 143.5 L 121.8 136.8 L 115.4 129.7 L 109.6 122.2 L 105.5 115.89230766296387 L 105.5 181.1 L 93.5 187.1 L 93.5 122.93548383712769 L 92.3 124.6 L 85.6 132.8 L 78.3 140.4 L 70.5 147.6 L 62.2 154.2 L 53.3 160.3 L 43.9 165.9 L 33.9 170.9 L 23.4 175.3 L 12.4 179.0 L 11.7 177.3 L 21.8 171.9 L 31.4 166.2 L 40.4 160.3 L 48.9 154.1 L 56.8 147.6 L 64.2 140.7 L 71.1 133.5 L 77.4 125.9 L 83.1 118.0 L 85.00769233703613 114.8 L 17.0 114.8 L 17.0 110.8 L 93.5 110.8 L 93.5 83.1 L 105.5 85.1 L 108.5 87.1 L 105.5 88.9 L 105.5 110.8 L 159.9 110.8 L 169.9 100.8 L 181.9 110.8 L 181.9 114.8 L 107.740625 114.8 L 112.7 119.4 L 119.6 125.6 L 126.7 131.5 L 133.9 137.1 L 141.4 142.5 L 149.1 147.4 L 157.0 152.1 L 165.2 156.5 L 173.7 160.5 L 182.5 164.2 L 188.6 166.9 L 177.2 176.3 L 168.2 171.7 Z M 88.9 49.6 L 89.9 53.0 L 86.1876461982727 52.35993900299072 L 83.2 55.4 L 77.2 61.1 L 70.9 66.6 L 64.4 71.9 L 57.7 77.0 L 50.7 81.9 L 43.4 86.5 L 35.8 91.0 L 27.9 95.0 L 19.6 98.8 L 18.7 97.2 L 25.9 91.8 L 32.8 86.5 L 39.6 81.2 L 46.1 75.8 L 52.4 70.4 L 58.4 64.8 L 64.1 59.2 L 69.6 53.5 L 74.9 47.6 L 79.2655475616455 42.448653888702395 L 79.2 42.4 L 80.3 41.2 Z M 160.1 82.3 L 155.8 76.9 L 151.2 71.7 L 146.3 66.7 L 141.1 61.9 L 135.5 57.3 L 129.6 52.9 L 123.3 48.4 L 116.8 44.1 L 117.6 42.4 L 125.1 45.1 L 132.3 48.3 L 139.1 51.9 L 145.6 55.9 L 151.8 60.3 L 157.7 65.0 L 163.2 70.0 L 168.4 75.4 L 173.2 81.1 L 177.8 87.1 L 178.5 91.6 L 176.0 95.4 L 171.5 96.2 L 167.7 93.6 L 164.1 87.8 Z M 17.2 65.6 L 15.9 61.2 L 18.0 57.1 L 20.0 55.5 L 22.0 53.3 L 24.0 50.4 L 25.8 46.8 L 27.5 42.5 L 28.9 37.6 L 30.2 32.0 L 31.3 25.8 L 32.3 18.9 L 33.3 11.4 L 35.1 11.3 L 36.1 18.9 L 36.58333330154419 24.7 L 169.6 24.7 L 170.0615385055542 24.315384578704833 L 170.1 24.2 L 170.1649582862854 24.22920141220093 L 175.6 19.7 L 186.6 28.7 L 181.6 31.7 L 178.68292684555053 32.91544713973999 L 177.6 34.6 L 175.7 37.5 L 173.5 40.6 L 171.2 43.8 L 168.8 47.2 L 166.1 50.7 L 163.2 54.3 L 160.0 58.0 L 156.8 61.9 L 155.3 61.0 L 157.4 56.4 L 159.2 51.9 L 161.0 47.7 L 162.7 43.7 L 164.3 39.9 L 165.7 36.4 L 167.0 33.0 L 168.2 29.9 L 168.6 28.7 L 36.739393901824954 28.7 L 36.8 32.7 L 36.4 38.9 L 35.7 44.6 L 34.6 49.8 L 33.1 54.6 L 31.2 59.0 L 28.7 62.9 L 25.7 66.3 L 21.3 67.6 Z " />
</g>
</svg>
