<svg xmlns="http://www.w3.org/2000/svg" xmlns:xlink="http://www.w3.org/1999/xlink" version="1.1" baseProfile="full" viewBox="0 0 200 200" width="200" height="200">
<g fill="black">
<path d="M 146.0 99.0 L 163.0 99.0 L 169.0 94.0 L 180.0 103.0 L 175.0 107.0 L 175.0 171.2 L 175.2 172.1 L 175.5 173.0 L 175.9 173.4 L 176.8 173.7 L 177.7 173.9 L 178.01812686920167 173.924471282959 L 184.0 149.0 L 186.0 149.0 L 184.0 174.0 L 187.6 176.4 L 190.0 180.0 L 187.6 183.6 L 184.0 186.0 L 179.0 186.0 L 176.4 185.8 L 173.9 185.4 L 171.5 184.6 L 169.2 183.3 L 167.2 181.7 L 165.6 179.7 L 164.3 177.4 L 163.5 175.0 L 163.1 172.5 L 163.0 170.0 L 163.0 103.0 L 146.0 103.0 L 146.0 137.0 L 145.4 143.8 L 144.5 150.2 L 143.1 156.4 L 141.2 162.1 L 138.9 167.5 L 136.1 172.5 L 132.9 177.1 L 129.3 181.2 L 125.1 184.7 L 120.5 187.6 L 119.4 186.3 L 122.4 182.1 L 125.0 177.8 L 127.4 173.5 L 129.4 169.1 L 131.0 164.4 L 132.3 159.5 L 133.2 154.3 L 133.8 148.8 L 134.1 143.0 L 134.0 137.0 L 134.0 93.0 Z M 58.0 145.0 L 58.0 124.0 L 36.0 124.0 L 36.0 140.0 L 35.615384578704834 145.0 Z M 36.0 101.0 L 36.0 120.0 L 58.0 120.0 L 58.0 101.0 Z M 83.2 110.2 L 81.8 106.4 L 80.9 104.5 L 80.0 102.5 L 79.0 100.4 L 77.9 98.3 L 76.7 96.1 L 75.1 94.3 L 76.3 93.0 L 78.3 94.5 L 80.6 95.7 L 82.7 97.0 L 84.7 98.4 L 86.7 99.9 L 88.5 101.5 L 90.3 103.2 L 91.9 104.9 L 93.5 106.7 L 95.0 108.6 L 95.2 113.1 L 92.3 116.6 L 87.7 116.9 L 84.2 114.0 L 83.8 112.1 Z M 56.0 64.5 L 151.0 64.5 L 157.0 59.5 L 168.0 68.5 L 163.0 72.5 L 163.0 85.4 L 151.0 91.4 L 151.0 85.4 L 56.0 85.4 L 44.0 91.4 L 44.0 58.5 Z M 56.0 68.5 L 56.0 81.4 L 151.0 81.4 L 151.0 68.5 Z M 185.0 29.7 L 185.0 33.7 L 55.0 33.7 L 55.0 47.6 L 149.8181818008423 47.6 L 158.0 38.6 L 168.0 47.6 L 168.0 51.6 L 55.0 51.6 L 47.0 59.6 L 37.0 49.6 L 43.0 43.6 L 43.0 33.7 L 20.0 33.7 L 20.0 29.7 L 163.0 29.7 L 173.0 19.7 Z M 96.3 24.3 L 95.5 23.0 L 94.5 21.6 L 93.4 20.2 L 92.2 18.7 L 90.8 17.2 L 87.6 14.0 L 85.5 12.8 L 86.2 11.2 L 88.5 12.0 L 90.9 12.4 L 93.2 12.9 L 95.4 13.5 L 97.5 14.2 L 99.5 15.0 L 101.4 15.9 L 103.2 16.9 L 105.0 18.0 L 106.7 19.2 L 107.9 23.6 L 105.9 27.6 L 101.5 28.9 L 97.4 26.8 L 96.9 25.6 Z M 94.0 157.0 L 94.0 142.0 L 76.0 142.0 L 76.0 138.0 L 94.0 138.0 L 94.0 121.0 L 74.0 121.0 L 74.0 117.0 L 101.9222222328186 117.0 L 102.5 115.8 L 103.4 113.0 L 104.5 110.3 L 105.5 107.6 L 106.6 104.9 L 107.8 102.2 L 108.9 99.6 L 110.0 96.9 L 111.2 94.3 L 111.93311614990235 92.56718006134034 L 111.8 92.5 L 112.8 90.8 L 122.5 97.9 L 124.0 101.2 L 119.83636360168457 101.2 L 115.0 106.8 L 113.0 108.9 L 111.0 111.1 L 106.8 115.3 L 104.93000001907349 117.0 L 111.77777776718139 117.0 L 118.0 110.0 L 126.0 117.0 L 126.0 121.0 L 106.0 121.0 L 106.0 138.0 L 109.77777776718139 138.0 L 116.0 131.0 L 124.0 138.0 L 124.0 142.0 L 106.0 142.0 L 106.0 157.0 L 111.81818180084228 157.0 L 120.0 148.0 L 130.0 157.0 L 130.0 161.0 L 106.0 161.0 L 106.0 181.0 L 94.0 187.0 L 94.0 161.0 L 70.0 161.0 L 70.0 173.0 L 69.8 175.5 L 69.4 178.0 L 68.6 180.4 L 67.3 182.7 L 65.7 184.7 L 63.7 186.3 L 61.4 187.6 L 59.0 188.4 L 56.5 188.8 L 54.0 189.0 L 54.0 183.0 L 38.0 180.0 L 38.0 177.0 L 54.0 177.0 L 55.2 176.9 L 56.1 176.7 L 57.0 176.4 L 57.4 176.0 L 57.7 175.1 L 57.9 174.2 L 58.0 173.0 L 58.0 149.0 L 35.14285717010498 149.0 L 34.6 152.8 L 33.4 158.7 L 31.7 164.3 L 29.7 169.6 L 27.3 174.5 L 24.5 179.0 L 21.3 183.1 L 17.6 186.6 L 13.6 189.6 L 12.3 188.3 L 14.7 184.2 L 16.9 180.0 L 18.7 175.8 L 20.4 171.4 L 21.7 166.8 L 22.7 162.0 L 23.5 156.9 L 23.9 151.5 L 24.1 145.9 L 24.0 140.0 L 24.0 91.0 L 36.0 97.0 L 58.0 97.0 L 64.0 92.0 L 75.0 101.0 L 70.0 105.0 L 70.0 157.0 Z " />
</g>
</svg>
