<svg xmlns="http://www.w3.org/2000/svg" xmlns:xlink="http://www.w3.org/1999/xlink" version="1.1" baseProfile="full" viewBox="0 0 200 200" width="200" height="200">
<g fill="black">
<path d="M 55.0 145.0 L 55.0 124.0 L 36.0 124.0 L 36.0 140.0 L 35.615384578704834 145.0 Z M 85.7 107.3 L 85.8 106.0 L 85.9 104.6 L 85.9 101.7 L 85.7 100.2 L 85.5 98.6 L 85.3 96.9 L 84.4 95.5 L 85.9 94.4 L 86.9 95.7 L 88.4 96.8 L 89.8 97.9 L 91.2 99.1 L 92.4 100.4 L 93.5 101.8 L 94.5 103.3 L 95.5 104.9 L 96.3 106.5 L 97.1 108.2 L 95.9 112.6 L 94.88260869979858 113.2 L 104.59047622680664 113.2 L 105.2 111.6 L 105.6 109.3 L 105.9 107.0 L 106.3 104.9 L 106.6 102.8 L 107.0 100.7 L 107.3 98.7 L 107.5 96.8 L 107.8 94.9 L 107.88673963546753 94.07597370147705 L 107.6 94.0 L 108.5 91.6 L 119.3 97.1 L 121.4 100.0 L 116.71469535827637 100.90418157577514 L 115.8 102.2 L 114.86586828231812 103.42155685424805 L 126.6 113.2 L 126.6 117.2 L 106.0 117.2 L 106.0 134.3 L 109.8777777671814 134.3 L 116.1 127.3 L 124.1 134.3 L 124.1 138.3 L 106.0 138.3 L 106.0 154.8 L 111.21818180084229 154.8 L 119.4 145.8 L 129.4 154.8 L 129.4 158.8 L 106.0 158.8 L 106.0 182.9 L 94.0 188.9 L 94.0 158.8 L 70.6 158.8 L 70.6 154.8 L 94.0 154.8 L 94.0 138.3 L 75.8 138.3 L 75.8 134.3 L 94.0 134.3 L 94.0 117.2 L 73.4 117.2 L 73.4 113.2 L 87.29230766296386 113.2 L 85.2 109.8 L 85.5 108.6 Z M 190.2 181.9 L 187.8 185.5 L 184.2 187.9 L 180.2 187.9 L 177.6 187.7 L 175.1 187.2 L 172.8 186.4 L 170.5 185.1 L 168.6 183.4 L 167.0 181.4 L 165.9 179.2 L 165.1 176.8 L 164.7 174.4 L 164.7 135.6 L 153.6 135.6 L 153.6 141.1 L 153.28137531280518 141.57793693542482 L 153.5 141.6 L 152.3 148.4 L 150.4 154.7 L 148.1 160.7 L 145.2 166.1 L 141.7 171.1 L 137.7 175.6 L 133.3 179.6 L 128.3 183.0 L 122.8 185.7 L 116.9 187.8 L 116.2 186.3 L 121.1 182.7 L 125.4 179.0 L 129.2 175.1 L 132.5 171.1 L 135.3 166.7 L 137.6 162.1 L 139.5 157.2 L 141.0 152.0 L 142.0 146.4 L 142.6 140.5 L 142.6 135.6 L 132.0 135.6 L 132.0 131.6 L 142.6 131.6 L 142.6 100.5 L 131.3 100.5 L 131.3 96.5 L 164.7 96.5 L 170.2 91.5 L 180.7 100.5 L 175.7 104.0 L 175.7 171.9 L 175.8 173.2 L 176.0 174.1 L 176.5 175.1 L 176.7 175.3 L 177.0 175.4 L 177.4 175.6 L 178.0 175.8 L 178.21818180084227 175.82424240112306 L 184.2 150.9 L 186.2 150.9 L 184.2 175.9 L 187.8 178.3 Z M 153.6 100.5 L 153.6 131.6 L 155.0 131.6 L 159.5 125.6 L 164.7 130.8 L 164.7 100.5 Z M 36.0 101.0 L 36.0 120.0 L 55.0 120.0 L 55.0 101.0 Z M 49.0 64.8 L 155.0 64.8 L 161.0 59.8 L 172.0 68.8 L 167.0 72.8 L 167.0 85.8 L 155.0 91.8 L 155.0 85.8 L 49.0 85.8 L 37.0 91.8 L 37.0 58.8 Z M 49.0 68.8 L 49.0 81.8 L 155.0 81.8 L 155.0 68.8 Z M 38.6 53.5 L 36.4 53.3 L 34.2 52.8 L 32.1 52.0 L 30.1 50.7 L 28.4 49.0 L 27.0 47.0 L 26.0 44.8 L 25.3 42.4 L 25.0 39.8 L 25.0 23.8 L 37.0 29.8 L 94.0 29.8 L 94.0 12.8 L 106.0 14.8 L 109.0 16.8 L 106.0 18.6 L 106.0 29.8 L 162.0 29.8 L 172.0 19.8 L 184.0 29.8 L 184.0 33.8 L 37.0 33.8 L 37.0 39.8 L 36.8 41.1 L 36.7 42.1 L 36.7 43.5 L 36.8 44.0 L 37.0 44.5 L 37.5 45.0 L 38.3 45.5 L 39.5 46.0 L 41.0 46.3 L 172.0 46.3 L 174.1 47.7 L 175.5 49.8 L 174.1 51.9 L 172.0 53.3 L 41.0 53.3 Z M 66.4 178.0 L 65.6 180.4 L 64.3 182.7 L 62.7 184.7 L 60.7 186.3 L 58.4 187.6 L 56.0 188.4 L 53.5 188.8 L 51.0 189.0 L 51.0 183.0 L 35.0 180.0 L 35.0 177.0 L 51.0 177.0 L 52.2 176.9 L 53.1 176.7 L 54.0 176.4 L 54.4 176.0 L 54.7 175.1 L 54.9 174.2 L 55.0 173.0 L 55.0 149.0 L 35.14285717010498 149.0 L 34.6 152.8 L 33.4 158.7 L 31.7 164.3 L 29.7 169.6 L 27.3 174.5 L 24.5 179.0 L 21.3 183.1 L 17.6 186.6 L 13.6 189.6 L 12.3 188.3 L 14.7 184.2 L 16.9 180.0 L 18.7 175.8 L 20.4 171.4 L 21.7 166.8 L 22.7 162.0 L 23.5 156.9 L 23.9 151.5 L 24.1 145.9 L 24.0 140.0 L 24.0 91.0 L 36.0 97.0 L 55.0 97.0 L 61.0 92.0 L 72.0 101.0 L 67.0 105.0 L 67.0 173.0 L 66.8 175.5 Z " />
</g>
</svg>
