<svg xmlns="http://www.w3.org/2000/svg" xmlns:xlink="http://www.w3.org/1999/xlink" version="1.1" baseProfile="full" viewBox="0 0 200 200" width="200" height="200">
<g fill="black">
<path d="M 157.8 181.3 L 148.5 174.9 L 140.3 166.7 L 138.78947372436522 164.54210529327392 L 135.0 167.7 L 125.9 173.8 L 116.0 178.9 L 105.4 183.1 L 94.1 186.3 L 82.1 188.5 L 81.8 186.7 L 93.0 182.7 L 103.4 178.2 L 113.0 173.1 L 121.7 167.4 L 129.7 161.1 L 133.67487602233888 157.23553714752197 L 133.3 156.7 L 127.4 145.1 L 122.7 131.9 L 119.0 117.3 L 117.93081760406494 110.5 L 73.0 110.5 L 73.0 110.86666669845582 L 73.6 111.0 L 78.9 112.3 L 83.8 113.9 L 88.5 115.7 L 93.0 117.7 L 97.3 119.8 L 101.3 122.0 L 105.1 124.5 L 108.7 127.0 L 112.1 129.7 L 113.8 134.0 L 112.1 138.2 L 107.8 139.9 L 103.6 138.2 L 101.2 135.5 L 98.5 132.8 L 95.5 130.1 L 92.3 127.5 L 88.8 124.8 L 85.1 122.2 L 81.1 119.6 L 76.8 117.0 L 73.0 114.71999998092652 L 73.0 131.3 L 61.0 137.3 L 61.0 119.6 L 59.7 120.9 L 55.1 125.0 L 50.0 128.9 L 44.7 132.5 L 39.0 135.8 L 33.29354839324951 138.7 L 83.81818180084228 138.7 L 92.0 129.7 L 102.0 138.7 L 102.0 142.7 L 53.63684206008911 142.7 L 49.92315788269043 153.9 L 84.0 153.9 L 90.0 148.9 L 101.0 157.9 L 96.0 160.9 L 94.60938625335693 161.47942237854005 L 94.2 163.0 L 93.4 165.5 L 92.7 167.8 L 92.0 169.8 L 91.3 171.7 L 90.6 173.4 L 89.9 175.0 L 89.2 176.4 L 88.5 177.7 L 87.0 179.7 L 85.4 181.5 L 83.6 183.2 L 81.7 184.7 L 79.7 185.9 L 77.5 187.0 L 75.2 187.8 L 72.9 188.3 L 70.4 188.6 L 68.0 188.8 L 68.0 182.8 L 50.0 179.8 L 50.0 176.8 L 68.0 176.8 L 69.4 176.7 L 70.7 176.5 L 71.9 176.2 L 73.0 175.9 L 74.0 175.4 L 74.9 174.8 L 75.8 174.1 L 76.7 173.3 L 77.6 172.3 L 78.4 171.1 L 78.7 170.7 L 79.1 169.9 L 79.5 168.8 L 80.1 167.5 L 80.7 165.9 L 81.3 164.0 L 82.0 161.9 L 82.7 159.6 L 83.17600002288819 157.9 L 48.59684209823608 157.9 L 48.0 159.7 L 34.8 161.6 L 40.949282264709474 142.7 L 29.0 142.7 L 29.0 140.58000001907348 L 26.4 141.7 L 19.5 144.1 L 12.3 146.1 L 11.6 144.5 L 18.0 140.7 L 24.0 136.9 L 29.6 133.2 L 34.9 129.4 L 39.7 125.6 L 44.2 121.7 L 48.2 117.7 L 51.9 113.6 L 54.33571424484253 110.5 L 14.0 110.5 L 14.0 106.5 L 61.0 106.5 L 61.0 95.32105264663696 L 55.8 95.8 L 47.9 96.4 L 39.6 96.9 L 31.0 97.1 L 22.0 97.1 L 21.9 95.4 L 30.6 93.4 L 38.9 91.6 L 47.0 89.9 L 54.7 88.3 L 62.1 86.7 L 69.1 85.2 L 75.7 83.7 L 82.0 82.1 L 88.0 80.5 L 92.62010011672973 79.2624732017517 L 92.6 79.2 L 92.66234750747681 79.25115690231323 L 93.6 79.0 L 93.89051094055176 80.25888080596924 L 104.3 88.8 L 104.6 91.8 L 100.27260274887085 89.75650682449341 L 96.3 90.7 L 90.4 91.7 L 84.1 92.6 L 77.5 93.5 L 73.0 94.08695650100708 L 73.0 106.5 L 117.30188674926758 106.5 L 116.5 101.4 L 115.0 84.1 L 115.03927488327027 84.09803628921509 L 114.9 81.8 L 127.0 83.5 L 130.1 85.3 L 127.3138385772705 87.17639446258545 L 128.4 99.9 L 129.45600004196166 106.5 L 164.0 106.5 L 174.0 96.5 L 186.0 106.5 L 186.0 110.5 L 130.0960000038147 110.5 L 130.8 114.9 L 134.2 128.4 L 138.5 140.3 L 142.17947902679444 147.7311046600342 L 143.2 146.5 L 148.9 138.2 L 153.8 129.1 L 157.60904874801636 120.3029112815857 L 157.6 120.3 L 157.81739130020142 119.82173910140992 L 158.0 119.4 L 158.00764989852905 119.40317020416259 L 158.6 118.1 L 169.1 124.0 L 171.1 127.0 L 167.33584909439088 127.5283019065857 L 163.9 134.4 L 157.9 144.0 L 151.0 152.8 L 147.61595287323 156.31762790679932 L 149.5 159.0 L 156.2 165.7 L 163.5 170.7 L 171.5 173.9 L 174.47651453018187 174.43510370254518 L 180.0 150.5 L 182.0 150.5 L 180.0813299179077 175.44271097183227 L 180.4 175.5 L 184.4 177.6 L 185.9 181.9 L 183.8 185.9 L 179.5 187.4 L 168.2 185.5 Z M 152.8 98.8 L 151.7 97.0 L 150.2 95.1 L 148.4 93.1 L 146.2 91.1 L 143.8 89.0 L 141.1 86.9 L 138.0 84.6 L 134.5 82.7 L 135.2 81.1 L 139.1 82.2 L 142.9 83.2 L 146.4 84.3 L 149.7 85.5 L 152.7 86.9 L 155.6 88.4 L 158.2 90.1 L 160.6 91.9 L 162.8 94.0 L 164.7 96.2 L 165.2 100.7 L 162.4 104.4 L 157.9 104.9 L 154.3 102.1 L 153.7 100.5 Z M 15.0 74.7 L 94.0 74.7 L 94.0 59.0 L 30.0 59.0 L 30.0 55.0 L 94.0 55.0 L 94.0 39.3 L 22.0 39.3 L 22.0 35.3 L 74.0 35.3 L 71.3 33.2 L 70.7 31.5 L 69.9 29.6 L 68.8 27.8 L 67.6 25.8 L 66.1 23.9 L 64.5 21.9 L 62.6 19.8 L 60.5 17.7 L 58.2 15.5 L 55.4 13.7 L 56.2 12.1 L 59.4 13.3 L 62.5 14.3 L 65.5 15.5 L 68.3 16.7 L 71.0 18.2 L 73.4 19.7 L 75.8 21.4 L 77.9 23.2 L 79.9 25.2 L 81.7 27.3 L 82.2 31.9 L 79.5555555343628 35.3 L 117.60714282989503 35.3 L 119.0 33.8 L 121.3 30.8 L 123.5 28.0 L 125.6 25.2 L 127.6 22.6 L 129.5 20.1 L 132.9 15.3 L 135.17687931060792 11.722046756744385 L 135.0 11.6 L 136.1 10.4 L 145.0 18.5 L 146.0 21.9 L 141.70186624526977 21.307153987884522 L 140.5 22.3 L 138.2 24.3 L 135.6 26.2 L 133.0 28.2 L 130.2 30.1 L 127.2 32.1 L 124.1 34.0 L 121.71666669845581 35.3 L 156.0 35.3 L 166.0 25.3 L 178.0 35.3 L 178.0 39.3 L 106.0 39.3 L 106.0 55.0 L 151.8181818008423 55.0 L 160.0 46.0 L 170.0 55.0 L 170.0 59.0 L 106.0 59.0 L 106.0 74.7 L 163.0 74.7 L 173.0 64.7 L 185.0 74.7 L 185.0 78.7 L 15.0 78.7 Z " />
</g>
</svg>
