<svg xmlns="http://www.w3.org/2000/svg" xmlns:xlink="http://www.w3.org/1999/xlink" version="1.1" baseProfile="full" viewBox="0 0 200 200" width="200" height="200">
<g fill="black">
<path d="M 160.4 144.7 L 160.7 148.3 L 157.14407949447633 146.94228487014772 L 149.8 152.0 L 138.8 158.6 L 127.3 164.7 L 115.4 170.1 L 103.1 174.8 L 90.4 178.9 L 77.2 182.4 L 63.6 185.2 L 49.7 187.2 L 35.3 188.4 L 35.0 186.6 L 49.0 183.4 L 62.5 179.9 L 75.5 176.1 L 88.0 171.7 L 100.0 166.9 L 111.6 161.6 L 122.6 155.8 L 133.3 149.4 L 143.4 142.6 L 152.30553770065308 135.80608463287354 L 152.3 135.8 L 153.2 135.1 Z M 135.2 129.2 L 135.5 132.8 L 131.9754285812378 131.42933330535888 L 127.1 134.8 L 118.6 140.0 L 109.9 144.8 L 100.9 149.1 L 91.6 153.0 L 82.0 156.5 L 72.1 159.5 L 61.9 162.0 L 51.5 163.9 L 40.7 165.2 L 40.4 163.4 L 50.6 160.2 L 60.5 156.8 L 70.0 153.2 L 79.2 149.4 L 88.2 145.3 L 96.7 140.8 L 105.0 136.0 L 112.9 130.9 L 120.6 125.5 L 127.11881198883057 120.32066993713379 L 127.1 120.3 L 127.9 119.7 Z M 112.0 112.8 L 112.4 116.3 L 108.83480739593506 115.06838798522949 L 106.0 117.1 L 99.8 121.2 L 93.3 124.9 L 86.6 128.5 L 79.6 131.7 L 72.4 134.6 L 64.9 137.2 L 57.1 139.5 L 49.1 141.4 L 40.8 142.8 L 40.3 141.0 L 47.9 137.8 L 55.3 134.5 L 62.4 131.1 L 69.3 127.7 L 75.8 124.1 L 82.1 120.3 L 88.1 116.4 L 93.8 112.3 L 99.2 108.0 L 104.3 103.5 L 104.33709564208985 103.54480381011963 L 104.5 103.4 Z M 159.3 124.6 L 150.8 120.7 L 142.6 116.5 L 134.7 112.0 L 127.0 107.0 L 119.7 101.8 L 112.7 96.1 L 106.2 89.9 L 102.41782426834106 85.80780992507934 L 98.3 89.7 L 90.5 96.1 L 82.3 102.1 L 73.7 107.7 L 64.7 112.8 L 55.2 117.4 L 45.3 121.6 L 35.1 125.3 L 24.3 128.4 L 13.2 130.8 L 12.7 129.1 L 23.1 124.8 L 33.1 120.3 L 42.7 115.6 L 51.8 110.7 L 60.4 105.5 L 68.6 99.9 L 76.3 94.1 L 83.6 87.9 L 90.5 81.4 L 96.22351675033569 75.31876344680786 L 96.2 75.3 L 97.2 74.2 L 105.6 82.8 L 106.09585008621215 84.9693440437317 L 108.8 86.7 L 116.2 91.3 L 123.7 95.7 L 131.3 99.9 L 139.1 103.8 L 147.1 107.3 L 155.2 110.6 L 163.5 113.6 L 172.1 116.2 L 180.8 118.6 L 188.8 120.9 L 177.1 131.3 L 168.1 128.1 Z M 77.9 60.6 L 78.9 64.1 L 75.11032447814941 63.44660768508911 L 73.0 65.6 L 67.9 70.3 L 62.4 74.7 L 56.7 78.8 L 50.7 82.6 L 44.4 86.2 L 37.8 89.4 L 30.9 92.3 L 23.8 94.8 L 16.3 96.8 L 15.6 95.1 L 22.2 91.3 L 28.6 87.5 L 34.6 83.7 L 40.4 79.7 L 45.9 75.6 L 51.1 71.4 L 55.9 67.0 L 60.5 62.5 L 64.8 57.7 L 68.7 52.8 L 68.73906583786011 52.83312101364136 L 69.1 52.4 Z M 104.0 24.0 L 165.0 24.0 L 171.0 19.0 L 182.0 28.0 L 177.0 32.0 L 177.0 89.0 L 165.0 95.0 L 165.0 63.88620691299438 L 161.27833061218263 63.37287321090698 L 160.4 64.3 L 156.5 67.9 L 152.3 71.4 L 147.9 74.6 L 143.3 77.6 L 138.4 80.4 L 133.3 82.9 L 127.9 85.2 L 122.2 87.2 L 116.3 88.8 L 115.6 87.1 L 120.6 83.8 L 125.4 80.5 L 130.0 77.3 L 134.3 74.0 L 138.3 70.7 L 142.1 67.3 L 145.6 63.9 L 148.9 60.3 L 151.9 56.7 L 154.01089124679567 53.80729713439941 L 154.0 53.8 L 154.11785717010497 53.66071424484253 L 154.6 53.0 L 154.64592084884643 53.036639022827146 L 155.1 52.5 L 164.0 60.5 L 165.0 63.59090909957886 L 165.0 28.0 L 144.74683542251586 28.0 L 152.2 34.4 L 153.4 37.8 L 149.52669868469238 37.399313640594485 L 148.1 39.0 L 143.8 43.3 L 139.3 47.5 L 134.5 51.3 L 129.4 55.0 L 124.1 58.4 L 118.6 61.5 L 112.8 64.3 L 106.7 66.7 L 100.3 68.8 L 99.6 67.1 L 104.9 63.4 L 110.1 59.7 L 115.0 56.0 L 119.7 52.2 L 124.2 48.3 L 128.4 44.3 L 132.3 40.2 L 136.0 36.0 L 139.4 31.6 L 142.01248474121093 28.007833576202394 L 142.0 28.0 L 104.0 28.0 Z M 18.0 24.0 L 79.0 24.0 L 85.0 19.0 L 96.0 28.0 L 91.0 32.0 L 91.0 77.0 L 79.0 83.0 L 79.0 28.0 L 58.74683542251587 28.0 L 66.2 34.4 L 67.3 37.8 L 63.46958379745483 37.396798324584964 L 62.1 38.9 L 57.9 43.3 L 53.5 47.4 L 48.8 51.3 L 44.0 54.9 L 38.9 58.3 L 33.6 61.4 L 28.1 64.3 L 22.4 66.7 L 16.4 68.8 L 15.5 67.1 L 20.5 63.4 L 25.3 59.7 L 30.0 56.0 L 34.4 52.2 L 38.6 48.4 L 42.6 44.4 L 46.4 40.3 L 50.0 36.0 L 53.4 31.7 L 55.99093217849732 28.056501579284667 L 55.9 28.0 L 18.0 28.0 Z " />
</g>
</svg>
