<svg xmlns="http://www.w3.org/2000/svg" xmlns:xlink="http://www.w3.org/1999/xlink" version="1.1" baseProfile="full" viewBox="0 0 200 200" width="200" height="200">
<g fill="black">
<path d="M 155.2 183.9 L 146.0 180.5 L 137.6 176.5 L 129.9 171.7 L 123.0 166.3 L 116.9 160.2 L 111.6 153.6 L 107.3 146.2 L 104.1 138.3 L 104.7 138.0 L 98.86363639831544 138.0 L 93.3 148.2 L 85.9 158.0 L 77.1 166.5 L 67.1 173.6 L 55.8 179.4 L 43.4 183.9 L 29.7 186.9 L 14.9 188.6 L 14.6 186.8 L 28.9 183.2 L 41.6 178.8 L 53.0 173.5 L 62.9 167.3 L 71.5 160.1 L 78.8 152.1 L 84.7 143.0 L 87.1 138.0 L 14.8 138.0 L 14.8 134.0 L 89.01999998092651 134.0 L 89.5 133.0 L 93.0 121.9 L 95.20323104858399 110.7002423286438 L 95.2 110.7 L 95.7 107.8 L 107.2 111.6 L 109.9 114.1 L 106.24764242172242 115.58799753189086 L 104.0 125.0 L 100.53278684616089 134.0 L 165.1 134.0 L 175.1 124.0 L 187.1 134.0 L 187.1 138.0 L 106.0984375 138.0 L 110.8 143.9 L 116.2 149.8 L 121.9 155.1 L 128.1 159.7 L 134.8 163.8 L 142.1 167.3 L 149.9 170.2 L 158.3 172.5 L 167.4 174.3 L 177.1 175.5 L 187.4 176.8 L 175.5 188.6 L 165.0 186.6 Z M 136.6 100.6 L 152.6 100.6 L 153.8 100.5 L 154.7 100.4 L 155.3 100.2 L 155.7 100.0 L 155.8 99.8 L 156.0 99.6 L 156.2 99.3 L 156.4 98.7 L 156.5 97.8 L 156.6 96.6 L 156.6 51.7 L 126.2 51.7 L 126.2 102.5 L 114.2 108.5 L 114.2 51.7 L 85.8 51.7 L 85.8 103.6 L 73.8 109.6 L 73.8 51.7 L 44.4 51.7 L 44.4 106.9 L 32.4 112.9 L 32.4 41.7 L 44.4 47.7 L 84.58928575515748 47.7 L 85.1 46.4 L 86.5 40.6 L 87.3 37.9 L 88.0 35.2 L 88.8 32.5 L 90.2 27.5 L 90.28333330154419 27.1 L 15.1 27.1 L 15.1 23.1 L 163.8 23.1 L 173.8 13.1 L 185.8 23.1 L 185.8 27.1 L 102.71999998092652 27.1 L 102.4 27.6 L 101.0 29.7 L 99.5 31.9 L 98.0 34.0 L 96.4 36.2 L 94.7 38.5 L 93.0 40.7 L 91.2 43.0 L 89.3 45.3 L 87.3 47.6 L 87.23199996948242 47.7 L 156.6 47.7 L 162.6 42.7 L 173.6 51.7 L 168.6 55.7 L 168.6 96.6 L 168.4 99.1 L 168.0 101.6 L 167.2 104.0 L 166.0 106.3 L 164.3 108.3 L 162.3 110.0 L 160.0 111.2 L 157.6 112.0 L 155.1 112.4 L 152.6 112.6 L 152.6 106.6 L 136.6 103.6 Z " />
</g>
</svg>
