<svg xmlns="http://www.w3.org/2000/svg" xmlns:xlink="http://www.w3.org/1999/xlink" version="1.1" baseProfile="full" viewBox="0 0 200 200" width="200" height="200">
<g fill="black">
<path d="M 13.4 149.9 L 17.5 148.9 L 21.7 147.7 L 22.6 147.43409090042115 L 22.6 30.0 L 13.7 30.0 L 13.7 26.0 L 59.2 26.0 L 69.2 16.0 L 81.2 26.0 L 81.2 30.0 L 67.7 30.0 L 67.7 183.0 L 55.7 189.0 L 55.7 141.23333330154418 L 52.5 143.3 L 47.8 146.2 L 43.1 148.8 L 38.6 151.3 L 34.1 153.6 L 29.7 155.7 L 25.5 157.7 L 21.3 159.6 L 21.157201480865478 159.66068935394287 L 20.1 163.5 L 17.3 161.3 L 11.5 150.6 Z M 127.1 45.0 L 130.1 47.0 L 127.1 48.8 L 127.1 112.0 L 126.3 123.6 L 124.5 134.5 L 121.6 144.6 L 117.8 153.9 L 112.9 162.2 L 107.0 169.6 L 100.2 176.0 L 92.4 181.4 L 83.7 185.6 L 74.2 188.8 L 73.5 187.1 L 82.0 182.3 L 89.3 176.9 L 95.7 171.1 L 101.2 164.7 L 105.7 157.7 L 109.3 150.0 L 112.1 141.7 L 113.57848711013794 134.22542629241943 L 108.8 136.7 L 103.7 139.2 L 99.1 141.5 L 94.9 143.5 L 91.2 145.3 L 87.9 146.8 L 84.8372880935669 148.33135595321656 L 83.6 152.6 L 80.8 150.4 L 75.3 139.5 L 77.2 138.9 L 79.2 138.6 L 81.6 138.2 L 84.6 137.5 L 85.7 137.24857139587402 L 85.7 32.0 L 95.50344829559326 36.90172414779663 L 97.0 36.1 L 102.0 33.2 L 106.6 30.6 L 110.8 28.2 L 114.5 26.0 L 117.7 23.9 L 120.3 22.1 L 122.5 20.4 L 124.0 19.0 L 124.26887969970703 18.67136926651001 L 124.2 18.6 L 125.0 17.8 L 132.5 27.2 L 132.9 30.8 L 128.49004526138305 29.196380043029784 L 127.8 29.5 L 124.9 30.7 L 121.6 31.9 L 117.9 33.3 L 113.7 34.7 L 109.0 36.1 L 103.8 37.6 L 98.2 39.1 L 97.7 39.23709678649902 L 97.7 134.41400003433228 L 101.6 133.4 L 107.1 132.1 L 113.2 130.7 L 114.13673114776611 130.4694200515747 L 115.0 122.7 L 115.1 112.0 L 115.1 43.0 Z M 156.8 144.0 L 166.8 144.0 L 168.1 143.9 L 169.0 143.8 L 169.6 143.6 L 169.9 143.4 L 170.1 143.3 L 170.4 142.7 L 170.6 142.2 L 170.8 141.2 L 170.8 38.8 L 152.6 38.8 L 152.6 182.7 L 140.6 188.7 L 140.6 28.8 L 152.6 34.8 L 170.8 34.8 L 176.8 29.8 L 187.8 38.8 L 182.8 42.8 L 182.8 140.0 L 182.7 142.6 L 182.3 145.1 L 181.4 147.5 L 180.2 149.7 L 178.6 151.8 L 176.6 153.4 L 174.3 154.6 L 171.9 155.4 L 169.4 155.9 L 166.8 156.0 L 166.8 150.0 L 156.8 147.0 Z M 34.6 106.0 L 34.6 143.72340421676637 L 35.3 143.5 L 40.1 141.9 L 45.1 140.2 L 50.2 138.5 L 55.6 136.8 L 55.7 136.77017545700073 L 55.7 106.0 Z M 34.6 68.0 L 34.6 102.0 L 55.7 102.0 L 55.7 68.0 Z M 34.6 30.0 L 34.6 64.0 L 55.7 64.0 L 55.7 30.0 Z " />
</g>
</svg>
