<svg xmlns="http://www.w3.org/2000/svg" xmlns:xlink="http://www.w3.org/1999/xlink" version="1.1" baseProfile="full" viewBox="0 0 200 200" width="200" height="200">
<g fill="black">
<path d="M 160.3 174.8 L 152.7 169.4 L 145.6 163.2 L 138.9 156.1 L 132.8 148.3 L 127.1 139.8 L 121.9 130.4 L 117.4 120.2 L 114.5735629081726 112.22799797058106 L 111.7 113.0 L 109.0 113.63529415130616 L 109.0 184.0 L 97.0 190.0 L 97.0 116.2625 L 90.7 117.4 L 83.4 118.5 L 75.8 119.4 L 68.1 119.8 L 67.91751298904418 118.76590671539307 L 64.43493709564208 118.3455958366394 L 63.3 119.6 L 59.1 123.8 L 54.7 127.8 L 50.0 131.8 L 45.0 135.6 L 39.8 139.4 L 34.2 143.0 L 28.3 146.5 L 22.0 149.7 L 15.4 152.7 L 14.5 151.2 L 20.0 146.5 L 25.2 142.1 L 30.3 137.7 L 35.1 133.4 L 39.6 129.2 L 43.8 124.9 L 47.7 120.7 L 51.3 116.5 L 54.6 112.3 L 57.01957368850708 108.91259689331055 L 57.0 108.9 L 58.0 107.5 L 67.1 115.4 L 67.95622053146363 118.04649982452392 L 75.1 115.6 L 82.2 113.3 L 89.2 111.1 L 95.9 108.8 L 102.5 106.5 L 108.9 104.1 L 115.1 101.7 L 121.2 99.1 L 127.0 96.5 L 131.71438055038453 94.22699508666992 L 131.7 94.2 L 131.72440366744996 94.2221625328064 L 132.6 93.8 L 133.46684827804566 95.80458669662475 L 141.5 103.1 L 141.7 106.3 L 137.88096504211427 104.6888445854187 L 137.4 104.9 L 131.2 107.1 L 124.9 109.2 L 118.4 111.2 L 117.04471683502197 111.5641058921814 L 121.1 118.3 L 127.0 127.4 L 133.1 135.7 L 135.8238805770874 138.951083278656 L 136.6 138.2 L 139.6 135.1 L 142.6 132.1 L 145.6 129.2 L 148.5 126.2 L 154.1 120.4 L 156.8 117.4 L 161.35380115509034 112.14561405181885 L 161.3 112.1 L 162.3 111.1 L 170.5 119.9 L 171.2 123.4 L 167.4449420928955 122.47770509719848 L 167.3 122.6 L 164.0 125.2 L 160.6 127.7 L 157.1 130.2 L 153.6 132.5 L 150.0 134.8 L 146.2 137.0 L 142.4 139.0 L 138.4 140.9 L 137.71501474380494 141.20824337005615 L 139.3 143.1 L 145.7 149.7 L 152.3 155.5 L 159.2 160.5 L 166.2 164.7 L 173.5 168.1 L 181.1 170.7 L 188.4 173.2 L 176.8 183.2 L 168.3 179.4 Z M 89.9 140.6 L 90.9 144.0 L 87.21142854690552 143.4276354789734 L 84.1 146.7 L 78.2 152.4 L 72.0 157.9 L 65.7 163.0 L 59.1 167.7 L 52.4 172.2 L 45.5 176.2 L 38.3 179.9 L 30.9 183.1 L 23.3 185.8 L 22.6 184.1 L 29.2 179.7 L 35.6 175.3 L 41.9 170.7 L 48.0 166.0 L 53.9 161.0 L 59.7 155.9 L 65.2 150.5 L 70.6 144.9 L 75.7 139.0 L 80.7 132.8 L 80.73906583786011 132.83312101364135 L 81.1 132.4 Z M 19.8 88.0 L 25.9 87.2 L 32.2 86.3 L 38.0 85.484375 L 38.0 27.2 L 18.0 27.2 L 18.0 23.2 L 95.81818180084228 23.2 L 104.0 14.2 L 114.0 23.2 L 114.0 27.2 L 94.0 27.2 L 94.0 100.8 L 82.0 106.8 L 82.0 83.54788732528687 L 81.0 83.9 L 74.0 86.2 L 67.0 88.2 L 60.2 90.1 L 53.5 91.9 L 40.5 95.3 L 34.2 96.8 L 28.1 98.4 L 26.102476596832275 98.85844802856445 L 24.6 102.4 L 22.0 99.8 L 17.9 88.4 Z M 163.1 84.4 L 157.8 79.5 L 152.2 74.9 L 147.97188711166382 71.86985244750977 L 145.2 74.3 L 137.5 80.0 L 129.2 85.0 L 120.4 89.4 L 111.1 93.1 L 101.3 95.9 L 100.6 94.2 L 109.5 89.6 L 117.9 84.7 L 125.7 79.5 L 132.9 73.9 L 139.7 67.9 L 140.65235109329222 66.90156736373902 L 139.9 66.4 L 133.1 62.5 L 126.0 58.8 L 118.5 55.1 L 110.7 51.6 L 111.2 49.9 L 119.8 51.6 L 128.0 53.8 L 135.9 56.5 L 143.4 59.7 L 146.17703819274902 61.069498252868655 L 151.6 54.6 L 156.7 47.3 L 161.4 39.5 L 163.19268293380736 36.0 L 107.0 36.0 L 107.0 32.0 L 165.0 32.0 L 165.42127656936646 31.648936176300047 L 165.6 31.3 L 165.749476146698 31.37543659210205 L 171.0 27.0 L 182.0 36.0 L 177.0 39.0 L 174.28973388671875 40.12927761077881 L 171.2 45.4 L 165.5 53.5 L 159.3 61.0 L 154.70917434692382 65.65833778381348 L 157.5 67.3 L 164.0 71.6 L 170.2 76.4 L 176.1 81.5 L 181.5 86.9 L 182.9 91.3 L 180.9 95.4 L 176.6 96.8 L 172.4 94.8 L 167.9 89.4 Z M 50.0 66.0 L 50.0 83.85522384643555 L 51.9 83.6 L 58.7 82.7 L 65.7 81.8 L 72.9 80.9 L 80.2 80.2 L 82.0 80.05789470672607 L 82.0 66.0 Z M 50.0 46.6 L 50.0 62.0 L 82.0 62.0 L 82.0 46.6 Z M 50.0 27.2 L 50.0 42.6 L 82.0 42.6 L 82.0 27.2 Z " />
</g>
</svg>
