<svg xmlns="http://www.w3.org/2000/svg" xmlns:xlink="http://www.w3.org/1999/xlink" version="1.1" baseProfile="full" viewBox="0 0 200 200" width="200" height="200">
<g fill="black">
<path d="M 151.1726861000061 103.77247133255005 L 162.3 113.0 L 162.7 116.0 L 158.19154663085936 113.65560426712037 L 152.9 114.5 L 145.2 115.4 L 136.5 116.2 L 126.7 117.0 L 115.8 117.8 L 106.0 118.37166662216187 L 106.0 182.3 L 94.0 188.3 L 94.0 119.10307693481445 L 90.8 119.3 L 76.8 119.9 L 61.6 120.5 L 45.3 120.9 L 28.0 121.0 L 27.9 119.2 L 45.1 117.1 L 61.2 115.1 L 76.2 113.4 L 90.2 111.7 L 103.1 110.1 L 114.8 108.5 L 125.5 107.0 L 135.1 105.6 L 143.6 104.1 L 150.02111654281617 102.8851942062378 L 150.0 102.8 L 150.08757286071778 102.87262134552002 L 151.0 102.7 Z M 151.67874393463134 125.99275360107421 L 151.3 130.7 L 150.6371446609497 134.93207664489745 L 150.7 135.4 L 152.1 141.4 L 154.0 146.9 L 156.4 151.8 L 159.4 156.3 L 162.9 160.4 L 167.1 164.1 L 171.9 167.5 L 177.4 170.6 L 183.7 173.4 L 189.6 176.1 L 178.2 185.4 L 171.2 181.5 L 165.0 177.1 L 159.6 172.3 L 155.1 167.0 L 151.5 161.3 L 148.8 155.2 L 147.1613154411316 149.1272276878357 L 145.5 153.6 L 142.2 159.9 L 138.3 165.6 L 133.7 170.5 L 128.5 174.6 L 122.7 177.9 L 116.3 180.2 L 115.6 178.6 L 120.6 174.7 L 125.0 170.5 L 128.8 166.1 L 132.0 161.2 L 134.7 156.0 L 136.8 150.3 L 138.4 144.0 L 139.5 137.3 L 140.0 129.9 L 140.0 119.6 L 152.0 122.0 L 155.0 124.0 Z M 54.590296459198 130.14582214355468 L 54.2 134.0 L 52.7 141.5 L 50.4 148.5 L 49.496342182159424 150.36379413604737 L 49.7 150.4 L 54.1 151.2 L 58.3 152.5 L 62.3 154.0 L 66.0 155.7 L 69.6 157.8 L 72.9 160.1 L 76.0 162.7 L 78.8 165.6 L 81.4 168.7 L 82.1 173.2 L 79.5 176.9 L 75.0 177.7 L 71.3 175.1 L 69.9 172.3 L 68.2 169.7 L 66.3 167.2 L 64.0 164.7 L 61.6 162.3 L 58.8 160.0 L 55.7 157.7 L 52.3 155.5 L 48.7 153.3 L 48.195121955871585 153.0475609779358 L 47.2 155.1 L 43.2 161.1 L 38.5 166.6 L 33.1 171.6 L 26.9 176.0 L 20.0 179.7 L 12.4 182.7 L 11.5 181.1 L 18.0 176.4 L 23.7 171.7 L 28.6 166.8 L 32.7 161.7 L 36.2 156.4 L 38.9 151.0 L 40.9 145.2 L 42.2 139.2 L 42.9 132.8 L 43.0 126.1 L 43.0 123.7 L 55.0 126.1 L 58.0 128.1 Z M 19.8 88.4 L 25.9 87.6 L 32.2 86.7 L 38.0 85.884375 L 38.0 26.6 L 18.0 26.6 L 18.0 22.6 L 95.81818180084228 22.6 L 104.0 13.6 L 114.0 22.6 L 114.0 26.6 L 94.0 26.6 L 94.0 101.4 L 82.0 107.4 L 82.0 83.74788732528687 L 81.0 84.1 L 74.0 86.4 L 67.0 88.5 L 60.2 90.4 L 53.5 92.2 L 47.0 94.0 L 40.5 95.6 L 28.1 98.8 L 26.098878955841066 99.2669282913208 L 24.6 102.8 L 22.1 100.2 L 17.8 88.8 Z M 162.8 75.7 L 157.5 69.4 L 154.29619426727294 66.02456188201904 L 152.5 67.9 L 145.3 74.3 L 137.5 80.1 L 129.2 85.2 L 120.4 89.7 L 111.1 93.4 L 101.3 96.4 L 100.6 94.7 L 109.5 90.0 L 117.8 85.0 L 125.6 79.7 L 132.9 74.0 L 139.6 68.0 L 145.8 61.4 L 147.47610473632812 59.37103109359741 L 145.9 57.9 L 139.6 52.7 L 132.9 47.8 L 125.8 43.2 L 118.4 38.8 L 112.27142858505249 35.5 L 107.0 35.5 L 107.0 31.5 L 165.0 31.5 L 165.4285714149475 31.142857170104982 L 165.6 30.8 L 165.75052757263182 30.874560356140137 L 171.0 26.5 L 182.0 35.5 L 177.0 38.5 L 174.24344568252565 39.64856433868408 L 171.2 44.9 L 165.5 53.2 L 160.79456567764282 58.967951679229735 L 164.7 62.4 L 170.9 68.7 L 176.8 75.5 L 182.3 82.8 L 183.1 87.3 L 180.6 91.1 L 176.1 91.9 L 172.3 89.4 L 167.7 82.4 Z M 50.0 66.0 L 50.0 84.17941179275513 L 51.9 83.9 L 58.7 83.0 L 65.7 82.1 L 72.9 81.2 L 80.2 80.4 L 82.0 80.28157892227173 L 82.0 66.0 Z M 50.0 46.3 L 50.0 62.0 L 82.0 62.0 L 82.0 46.3 Z M 120.17666664123536 35.5 L 128.2 38.4 L 136.2 42.2 L 143.9 46.4 L 151.1 51.3 L 152.82883062362671 52.608971786499026 L 156.7 47.1 L 161.4 39.2 L 163.25 35.5 Z M 50.0 26.6 L 50.0 42.3 L 82.0 42.3 L 82.0 26.6 Z " />
</g>
</svg>
