<svg xmlns="http://www.w3.org/2000/svg" xmlns:xlink="http://www.w3.org/1999/xlink" version="1.1" baseProfile="full" viewBox="0 0 200 200" width="200" height="200">
<g fill="black">
<path d="M 73.0 114.0 L 68.0 118.0 L 68.0 178.0 L 56.0 184.0 L 56.0 135.3 L 55.1 136.8 L 50.8 143.2 L 46.4 149.1 L 41.9 154.5 L 37.3 159.3 L 32.5 163.5 L 27.5 166.9 L 22.5 169.7 L 21.4 168.2 L 25.1 164.1 L 28.7 159.6 L 32.3 154.9 L 35.9 149.8 L 39.5 144.3 L 43.0 138.3 L 46.4 131.8 L 49.8 124.9 L 53.2 117.4 L 54.62025318145752 114.0 L 22.0 114.0 L 22.0 110.0 L 56.0 110.0 L 56.446601963043214 109.6278317451477 L 56.5 109.5 L 56.5649582862854 109.52920141220093 L 62.0 105.0 Z M 182.0 113.0 L 177.0 117.0 L 177.0 177.0 L 165.0 183.0 L 165.0 133.62093019485474 L 163.6 135.9 L 159.2 142.3 L 154.6 148.2 L 150.0 153.5 L 145.3 158.3 L 140.5 162.5 L 135.6 165.9 L 130.5 168.7 L 129.4 167.2 L 133.1 163.1 L 136.8 158.6 L 140.4 153.9 L 144.1 148.8 L 147.8 143.2 L 151.4 137.2 L 155.0 130.7 L 158.5 123.8 L 162.0 116.3 L 163.4620253562927 113.0 L 130.0 113.0 L 130.0 109.0 L 165.0 109.0 L 165.37123746871947 108.69063549041748 L 165.5 108.4 L 165.64089307785034 108.46592245101928 L 171.0 104.0 Z M 127.0 113.0 L 122.0 117.0 L 122.0 177.0 L 110.0 183.0 L 110.0 134.3 L 109.1 135.8 L 104.8 142.2 L 100.4 148.1 L 95.9 153.5 L 91.3 158.3 L 86.5 162.5 L 81.5 165.9 L 76.5 168.7 L 75.4 167.2 L 79.1 163.1 L 82.7 158.6 L 86.3 153.9 L 89.9 148.8 L 93.5 143.3 L 97.0 137.3 L 100.4 130.8 L 103.8 123.9 L 107.2 116.4 L 108.62025318145751 113.0 L 76.0 113.0 L 76.0 109.0 L 110.0 109.0 L 110.44660196304321 108.6278317451477 L 110.5 108.5 L 110.5649582862854 108.52920141220093 L 116.0 104.0 Z M 19.8 87.9 L 25.9 87.0 L 32.2 86.1 L 38.0 85.284375 L 38.0 27.0 L 18.0 27.0 L 18.0 23.0 L 95.81818180084228 23.0 L 104.0 14.0 L 114.0 23.0 L 114.0 27.0 L 94.0 27.0 L 94.0 101.0 L 82.0 107.0 L 82.0 83.86197185516357 L 81.0 84.2 L 73.9 86.3 L 67.0 88.3 L 60.2 90.1 L 53.5 91.8 L 46.9 93.5 L 40.5 95.1 L 34.2 96.7 L 28.1 98.2 L 26.08305082321167 98.70423727035522 L 24.6 102.2 L 22.1 99.7 L 17.8 88.2 Z M 163.1 84.2 L 157.9 79.4 L 152.3 74.9 L 148.10459604263306 71.89329385757446 L 145.2 74.4 L 137.4 80.1 L 129.2 85.1 L 120.4 89.4 L 111.0 93.0 L 101.3 95.8 L 100.6 94.1 L 109.5 89.5 L 117.9 84.7 L 125.7 79.5 L 132.9 74.0 L 139.7 68.0 L 140.67324495315552 66.99536008834839 L 139.9 66.5 L 133.2 62.7 L 126.0 59.1 L 118.5 55.5 L 110.7 52.1 L 111.2 50.4 L 119.7 51.9 L 128.0 54.1 L 135.9 56.7 L 143.4 59.8 L 146.24030027389526 61.18070154190063 L 151.5 54.7 L 156.7 47.4 L 161.4 39.6 L 163.22168674468995 36.0 L 107.0 36.0 L 107.0 32.0 L 165.0 32.0 L 165.425 31.64583330154419 L 165.6 31.3 L 165.75052757263182 31.374560356140137 L 171.0 27.0 L 182.0 36.0 L 177.0 39.0 L 174.24344568252565 40.14856433868408 L 171.2 45.4 L 165.5 53.6 L 159.3 61.1 L 154.83664798736572 65.6946270942688 L 157.5 67.2 L 164.0 71.5 L 170.2 76.2 L 176.0 81.3 L 181.5 86.8 L 182.9 91.1 L 180.9 95.2 L 176.6 96.6 L 172.5 94.6 L 168.0 89.3 Z M 50.0 66.0 L 50.0 83.75522384643554 L 51.9 83.5 L 58.8 82.6 L 65.8 81.8 L 72.9 81.1 L 80.3 80.5 L 82.0 80.40933332443237 L 82.0 66.0 Z M 50.0 47.0 L 50.0 62.0 L 82.0 62.0 L 82.0 47.0 Z M 50.0 27.0 L 50.0 43.0 L 82.0 43.0 L 82.0 27.0 Z " />
</g>
</svg>
