<svg xmlns="http://www.w3.org/2000/svg" xmlns:xlink="http://www.w3.org/1999/xlink" version="1.1" baseProfile="full" viewBox="0 0 200 200" width="200" height="200">
<g fill="black">
<path d="M 133.46684827804566 95.80458669662475 L 141.5 103.1 L 141.7 106.3 L 137.88096504211427 104.6888445854187 L 137.4 104.9 L 131.2 107.1 L 124.9 109.2 L 118.4 111.2 L 111.7 113.0 L 104.9 114.6 L 97.9 116.1 L 97.75600004196167 116.12600002288818 L 109.0 118.0 L 112.0 120.0 L 109.0 121.8 L 109.0 184.0 L 97.0 190.0 L 97.0 116.2625 L 90.7 117.4 L 83.4 118.5 L 75.8 119.4 L 68.1 119.8 L 67.91751298904418 118.76590671539307 L 64.43493709564208 118.3455958366394 L 63.3 119.6 L 59.1 123.8 L 54.7 127.8 L 50.0 131.8 L 45.0 135.6 L 39.8 139.4 L 34.2 143.0 L 28.3 146.5 L 22.0 149.7 L 15.4 152.7 L 14.5 151.2 L 20.0 146.5 L 25.2 142.1 L 30.3 137.7 L 35.1 133.4 L 39.6 129.2 L 43.8 124.9 L 47.7 120.7 L 51.3 116.5 L 54.6 112.3 L 57.01957368850708 108.91259689331055 L 57.0 108.9 L 58.0 107.5 L 67.1 115.4 L 67.95622053146363 118.04649982452392 L 75.1 115.6 L 82.2 113.3 L 89.2 111.1 L 95.9 108.8 L 102.5 106.5 L 108.9 104.1 L 115.1 101.7 L 121.2 99.1 L 127.0 96.5 L 131.71438055038453 94.22699508666992 L 131.7 94.2 L 131.72440366744996 94.2221625328064 L 132.6 93.8 Z M 89.9 140.6 L 90.9 144.0 L 87.21142854690552 143.4276354789734 L 84.1 146.7 L 78.2 152.4 L 72.0 157.9 L 65.7 163.0 L 59.1 167.7 L 52.4 172.2 L 45.5 176.2 L 38.3 179.9 L 30.9 183.1 L 23.3 185.8 L 22.6 184.1 L 29.2 179.7 L 35.6 175.3 L 41.9 170.7 L 48.0 166.0 L 53.9 161.0 L 59.7 155.9 L 65.2 150.5 L 70.6 144.9 L 75.7 139.0 L 80.7 132.8 L 80.73906583786011 132.83312101364135 L 81.1 132.4 Z M 168.2 164.7 L 165.4 161.4 L 162.5 158.0 L 159.4 154.6 L 156.2 151.3 L 152.9 147.9 L 146.36039600372314 141.36039600372314 L 143.1 147.0 L 139.0 153.1 L 134.4 159.0 L 129.3 164.5 L 123.7 169.8 L 117.6 174.6 L 116.3 173.3 L 120.9 167.2 L 125.2 161.1 L 129.1 155.1 L 132.6 149.0 L 135.7 142.9 L 138.4 136.7 L 140.6 130.4 L 142.4 124.0 L 143.9 117.6 L 144.76284284591674 111.90523691177368 L 144.7 111.9 L 145.2 109.0 L 156.7 112.9 L 159.3 115.4 L 155.74242420196532 116.78350172042846 L 154.9 120.2 L 152.7 127.2 L 150.0 134.0 L 148.0485698699951 138.0248246192932 L 152.5 140.3 L 156.8 142.9 L 161.0 145.6 L 164.9 148.4 L 168.8 151.3 L 172.4 154.3 L 176.0 157.4 L 179.4 160.5 L 182.6 163.8 L 183.9 168.2 L 181.9 172.2 L 177.5 173.6 L 173.4 171.5 L 170.9 168.1 Z M 19.8 87.9 L 25.9 87.0 L 32.2 86.1 L 38.0 85.284375 L 38.0 27.0 L 50.0 29.0 L 53.0 31.0 L 50.0 32.8 L 50.0 43.0 L 82.0 43.0 L 82.0 27.0 L 94.0 29.0 L 97.0 31.0 L 94.0 32.8 L 94.0 101.0 L 82.0 107.0 L 82.0 83.86197185516357 L 81.0 84.2 L 73.9 86.3 L 67.0 88.3 L 60.2 90.1 L 53.5 91.8 L 46.9 93.5 L 40.5 95.1 L 34.2 96.7 L 28.1 98.2 L 26.08305082321167 98.70423727035522 L 24.6 102.2 L 22.1 99.7 L 17.8 88.2 Z M 163.1 84.2 L 157.9 79.4 L 152.3 74.9 L 148.10459604263306 71.89329385757446 L 145.2 74.4 L 137.4 80.1 L 129.2 85.1 L 120.4 89.4 L 111.0 93.0 L 101.3 95.8 L 100.6 94.1 L 109.5 89.5 L 117.9 84.7 L 125.7 79.5 L 132.9 74.0 L 139.7 68.0 L 140.67324495315552 66.99536008834839 L 139.9 66.5 L 133.2 62.7 L 126.0 59.1 L 118.5 55.5 L 110.7 52.1 L 111.2 50.4 L 119.7 51.9 L 128.0 54.1 L 135.9 56.7 L 143.4 59.8 L 146.24030027389526 61.18070154190063 L 151.5 54.7 L 156.7 47.4 L 161.4 39.6 L 163.22168674468995 36.0 L 107.0 36.0 L 107.0 32.0 L 165.0 32.0 L 165.425 31.64583330154419 L 165.6 31.3 L 165.75052757263182 31.374560356140137 L 171.0 27.0 L 182.0 36.0 L 177.0 39.0 L 174.24344568252565 40.14856433868408 L 171.2 45.4 L 165.5 53.6 L 159.3 61.1 L 154.83664798736572 65.6946270942688 L 157.5 67.2 L 164.0 71.5 L 170.2 76.2 L 176.0 81.3 L 181.5 86.8 L 182.9 91.1 L 180.9 95.2 L 176.6 96.6 L 172.5 94.6 L 168.0 89.3 Z M 50.0 66.0 L 50.0 83.75522384643554 L 51.9 83.5 L 58.8 82.6 L 65.8 81.8 L 72.9 81.1 L 80.3 80.5 L 82.0 80.40933332443237 L 82.0 66.0 Z M 50.0 47.0 L 50.0 62.0 L 82.0 62.0 L 82.0 47.0 Z M 114.0 23.0 L 114.0 27.0 L 18.0 27.0 L 18.0 23.0 L 95.81818180084228 23.0 L 104.0 14.0 Z " />
</g>
</svg>
