<svg xmlns="http://www.w3.org/2000/svg" xmlns:xlink="http://www.w3.org/1999/xlink" version="1.1" baseProfile="full" viewBox="0 0 200 200" width="200" height="200">
<g fill="black">
<path d="M 76.7 104.7 L 77.6 108.2 L 73.80132036209106 107.46692152023316 L 72.3 108.9 L 67.5 113.1 L 62.4 117.1 L 57.0 121.0 L 53.4 123.4 L 57.0 124.0 L 60.0 126.0 L 57.0 127.8 L 57.0 184.0 L 45.0 190.0 L 45.0 128.6125 L 38.8 132.1 L 32.1 135.6 L 24.9 138.8 L 17.4 141.7 L 16.5 140.2 L 23.1 135.5 L 29.3 131.0 L 35.3 126.6 L 41.0 122.2 L 46.3 118.0 L 51.3 113.7 L 55.9 109.4 L 60.2 105.2 L 64.2 100.9 L 67.8 96.7 L 67.82001123428344 96.71798763275146 L 68.2 96.3 Z M 160.3 174.8 L 152.7 169.4 L 145.6 163.2 L 138.9 156.1 L 132.8 148.3 L 127.1 139.8 L 121.9 130.4 L 117.4 120.2 L 114.13459815979004 110.9898922920227 L 109.7 113.4 L 109.0 113.75777778625488 L 109.0 184.0 L 97.0 190.0 L 97.0 119.39772729873657 L 96.3 119.7 L 92.0 121.4 L 87.6 122.7 L 83.3 123.8 L 82.6 122.1 L 86.0 119.4 L 89.5 116.7 L 93.1 114.0 L 96.9 111.3 L 100.8 108.5 L 104.8 105.5 L 108.9 102.5 L 113.0 99.3 L 117.3 96.1 L 120.85868988037109 93.26922397613525 L 120.8 93.2 L 120.85996475219727 93.2682098388672 L 121.7 92.6 L 127.44189624786377 100.75515699386597 L 128.8 102.3 L 128.9 105.9 L 125.39118938446045 104.40550661087036 L 123.8 105.4 L 119.0 108.3 L 116.05905532836914 109.92690553665162 L 121.1 118.3 L 127.0 127.4 L 133.1 135.7 L 135.8238805770874 138.951083278656 L 136.6 138.2 L 139.6 135.1 L 142.6 132.1 L 145.6 129.2 L 148.5 126.2 L 154.1 120.4 L 156.8 117.4 L 161.35380115509034 112.14561405181885 L 161.3 112.1 L 162.3 111.1 L 170.5 119.9 L 171.2 123.4 L 167.4449420928955 122.47770509719848 L 167.3 122.6 L 164.0 125.2 L 160.6 127.7 L 157.1 130.2 L 153.6 132.5 L 150.0 134.8 L 146.2 137.0 L 142.4 139.0 L 138.4 140.9 L 137.71501474380494 141.20824337005615 L 139.3 143.1 L 145.7 149.7 L 152.3 155.5 L 159.2 160.5 L 166.2 164.7 L 173.5 168.1 L 181.1 170.7 L 188.4 173.2 L 176.8 183.2 L 168.3 179.4 Z M 19.8 87.9 L 25.9 87.0 L 32.2 86.1 L 38.0 85.284375 L 38.0 27.0 L 18.0 27.0 L 18.0 23.0 L 95.81818180084228 23.0 L 104.0 14.0 L 114.0 23.0 L 114.0 27.0 L 94.0 27.0 L 94.0 101.0 L 82.0 107.0 L 82.0 83.86197185516357 L 81.0 84.2 L 73.9 86.3 L 67.0 88.3 L 60.2 90.1 L 53.5 91.8 L 46.9 93.5 L 40.5 95.1 L 34.2 96.7 L 28.1 98.2 L 26.08305082321167 98.70423727035522 L 24.6 102.2 L 22.1 99.7 L 17.8 88.2 Z M 163.1 84.2 L 157.9 79.4 L 152.3 74.9 L 148.10459604263306 71.89329385757446 L 145.2 74.4 L 137.4 80.1 L 129.2 85.1 L 120.4 89.4 L 111.0 93.0 L 101.3 95.8 L 100.6 94.1 L 109.5 89.5 L 117.9 84.7 L 125.7 79.5 L 132.9 74.0 L 139.7 68.0 L 140.67324495315552 66.99536008834839 L 139.9 66.5 L 133.2 62.7 L 126.0 59.1 L 118.5 55.5 L 110.7 52.1 L 111.2 50.4 L 119.7 51.9 L 128.0 54.1 L 135.9 56.7 L 143.4 59.8 L 146.24030027389526 61.18070154190063 L 151.5 54.7 L 156.7 47.4 L 161.4 39.6 L 163.22168674468995 36.0 L 107.0 36.0 L 107.0 32.0 L 165.0 32.0 L 165.425 31.64583330154419 L 165.6 31.3 L 165.75052757263182 31.374560356140137 L 171.0 27.0 L 182.0 36.0 L 177.0 39.0 L 174.24344568252565 40.14856433868408 L 171.2 45.4 L 165.5 53.6 L 159.3 61.1 L 154.83664798736572 65.6946270942688 L 157.5 67.2 L 164.0 71.5 L 170.2 76.2 L 176.0 81.3 L 181.5 86.8 L 182.9 91.1 L 180.9 95.2 L 176.6 96.6 L 172.5 94.6 L 168.0 89.3 Z M 50.0 66.0 L 50.0 83.75522384643554 L 51.9 83.5 L 58.8 82.6 L 65.8 81.8 L 72.9 81.1 L 80.3 80.5 L 82.0 80.40933332443237 L 82.0 66.0 Z M 50.0 47.0 L 50.0 62.0 L 82.0 62.0 L 82.0 47.0 Z M 50.0 27.0 L 50.0 43.0 L 82.0 43.0 L 82.0 27.0 Z " />
</g>
</svg>
