<svg xmlns="http://www.w3.org/2000/svg" xmlns:xlink="http://www.w3.org/1999/xlink" version="1.1" baseProfile="full" viewBox="0 0 200 200" width="200" height="200">
<g fill="black">
<path d="M 114.0 176.0 L 130.0 176.0 L 131.2 175.9 L 132.1 175.7 L 133.0 175.4 L 133.4 175.0 L 133.7 174.1 L 133.9 173.2 L 134.0 172.0 L 134.0 148.0 L 65.0 148.0 L 65.0 183.0 L 53.0 189.0 L 53.0 90.00560750961304 L 43.1 97.5 L 31.7 104.9 L 19.4 111.7 L 18.5 110.2 L 29.5 101.8 L 39.8 93.2 L 49.4 84.5 L 58.3 75.5 L 66.4 66.1 L 73.8 56.5 L 80.5 46.5 L 86.4 36.3 L 91.5 25.6 L 95.62529010772705 15.607630634307862 L 95.6 15.6 L 96.5 13.3 L 107.2 19.1 L 109.2 22.1 L 105.51833906173707 22.681314849853514 L 101.94322423934936 30.294985485076904 L 104.7 33.9 L 111.2 42.1 L 117.9 49.9 L 124.9 57.2 L 132.1 64.1 L 139.7 70.6 L 147.5 76.6 L 155.7 82.2 L 164.2 87.4 L 173.1 92.2 L 178.0 94.8 L 166.8 103.7 L 157.7 98.1 L 150.08308153152467 92.73353471755982 L 146.0 96.0 L 146.0 172.0 L 145.8 174.5 L 145.4 177.0 L 144.6 179.4 L 143.3 181.7 L 141.7 183.7 L 139.7 185.3 L 137.4 186.6 L 135.0 187.4 L 132.5 187.8 L 130.0 188.0 L 130.0 182.0 L 114.0 179.0 Z M 65.0 119.0 L 65.0 144.0 L 134.0 144.0 L 134.0 119.0 Z M 65.0 92.0 L 65.0 115.0 L 134.0 115.0 L 134.0 92.0 Z M 95.7 41.6 L 88.8 52.1 L 81.2 62.2 L 72.8 71.7 L 63.7 80.8 L 58.914391136169435 84.95719556808471 L 65.0 88.0 L 134.0 88.0 L 139.0463234901428 83.79473037719727 L 132.9 78.2 L 125.5 70.7 L 118.7 62.8 L 112.3 54.4 L 106.4 45.5 L 101.2 36.1 L 100.09023609161378 33.683180809020996 Z M 178.0 58.0 L 178.0 62.0 L 132.0 62.0 L 132.0 58.0 L 159.8181818008423 58.0 L 168.0 49.0 Z M 68.0 57.0 L 68.0 61.0 L 22.0 61.0 L 22.0 57.0 L 49.81818180084228 57.0 L 58.0 48.0 Z M 177.0 32.0 L 177.0 36.0 L 125.0 36.0 L 125.0 32.0 L 155.0 32.0 L 165.0 22.0 Z M 75.0 32.0 L 75.0 36.0 L 22.0 36.0 L 22.0 32.0 L 53.0 32.0 L 63.0 22.0 Z " />
</g>
</svg>
