<svg xmlns="http://www.w3.org/2000/svg" xmlns:xlink="http://www.w3.org/1999/xlink" version="1.1" baseProfile="full" viewBox="0 0 200 200" width="200" height="200">
<g fill="black">
<path d="M 93.63333330154418 111.9 L 96.3 114.9 L 96.5 118.4 L 92.64544086456299 116.7880934715271 L 90.2 117.8 L 87.0 119.0 L 83.7 120.1 L 80.1 121.2 L 76.4 122.1 L 72.4 123.0 L 68.3 123.8 L 65.0 124.23999996185303 L 65.0 145.0 L 77.11818180084228 145.0 L 85.3 136.0 L 95.3 145.0 L 95.3 149.0 L 65.0 149.0 L 65.0 171.4 L 134.9 171.4 L 134.9 149.0 L 104.6 149.0 L 104.6 145.0 L 134.9 145.0 L 134.9 122.6 L 103.3 122.6 L 103.3 118.6 L 134.9 118.6 L 140.9 113.6 L 151.9 122.6 L 146.9 126.6 L 146.9 179.4 L 134.9 185.4 L 134.9 175.4 L 65.0 175.4 L 65.0 182.4 L 53.0 188.4 L 53.0 116.2 L 63.292307662963864 121.34615383148193 L 66.8 119.5 L 70.5 117.6 L 73.9 115.7 L 77.1 113.9 L 80.0 112.1 L 82.7 110.4 L 85.1 108.7 L 87.3 107.0 L 88.37174644470215 105.98779497146606 L 88.3 105.9 L 88.37516775131226 105.98456373214722 L 89.1 105.3 Z M 157.1 124.0 L 148.8 117.7 L 141.1 111.1 L 134.2 104.0 L 128.1 96.6 L 122.8 88.8 L 122.63902435302734 88.5 L 78.8765625 88.5 L 77.6 90.4 L 67.6 102.2 L 56.1 112.8 L 43.3 122.3 L 29.0 130.6 L 13.3 137.7 L 12.6 136.0 L 27.1 127.3 L 40.1 118.0 L 51.8 107.9 L 62.0 97.1 L 68.45 88.5 L 15.0 88.5 L 15.0 84.5 L 71.29677419662475 84.5 L 78.1 73.1 L 82.29548873901368 63.8 L 34.0 63.8 L 34.0 59.8 L 84.1 59.8 L 88.7 45.7 L 90.15200004577636 39.1 L 27.0 39.1 L 27.0 35.1 L 91.03199996948243 35.1 L 92.0 30.7 L 93.88256883621216 14.84678897857666 L 94.1 12.6 L 105.8 15.9 L 108.6 18.1 L 105.21086263656616 19.729393005371094 L 103.2 32.8 L 102.59245281219482 35.1 L 151.0 35.1 L 161.0 25.1 L 173.0 35.1 L 173.0 39.1 L 101.53584909439087 39.1 L 99.0 48.7 L 94.78199996948243 59.8 L 147.8181818008423 59.8 L 156.0 50.8 L 166.0 59.8 L 166.0 63.8 L 114.92564105987549 63.8 L 118.7 70.2 L 123.5 77.6 L 128.625714302063 84.5 L 163.0 84.5 L 173.0 74.5 L 185.0 84.5 L 185.0 88.5 L 132.12727270126342 88.5 L 134.5 91.2 L 140.9 97.5 L 147.8 103.3 L 155.3 108.9 L 163.5 114.0 L 172.3 118.8 L 187.5 126.0 L 176.1 135.2 L 166.3 129.8 Z M 93.24892082214356 63.8 L 86.2 77.6 L 81.5640625 84.5 L 120.49268293380737 84.5 L 118.4 80.6 L 114.9 72.0 L 112.6222222328186 63.8 Z " />
</g>
</svg>
