<svg xmlns="http://www.w3.org/2000/svg" xmlns:xlink="http://www.w3.org/1999/xlink" version="1.1" baseProfile="full" viewBox="0 0 200 200" width="200" height="200">
<g fill="black">
<path d="M 174.6507936477661 132.07566137313842 L 185.0 140.7 L 185.0 144.7 L 136.0 144.7 L 136.0 182.6 L 124.0 188.6 L 124.0 144.7 L 76.92891569137574 144.7 L 75.1 151.3 L 72.1 158.8 L 68.3 165.6 L 63.8 171.7 L 58.6 176.9 L 52.6 181.3 L 46.1 184.8 L 38.9 187.3 L 31.2 188.9 L 30.7 187.2 L 37.5 183.8 L 43.5 180.1 L 48.7 176.0 L 53.3 171.5 L 57.1 166.5 L 60.3 161.0 L 62.9 154.9 L 64.8 148.3 L 65.4904109954834 144.7 L 16.0 144.7 L 16.0 140.7 L 66.23037977218628 140.7 L 67.0 133.1 L 67.0 109.5 L 79.0 111.5 L 82.0 113.5 L 79.0 115.3 L 79.0 133.6 L 78.67904510498047 134.0814323425293 L 78.9 134.1 L 77.78764047622681 140.7 L 124.0 140.7 L 124.0 109.5 L 136.0 111.5 L 139.0 113.5 L 136.0 115.3 L 136.0 140.7 L 163.0 140.7 L 172.53361349105836 131.16638650894166 L 166.7 128.1 L 159.2 123.8 L 151.9 119.2 L 144.9 114.3 L 138.3 109.2 L 131.9 103.9 L 125.9 98.3 L 120.2 92.4 L 115.0 86.1 L 110.72727270126343 80.1 L 89.9069766998291 80.1 L 87.6 83.2 L 80.1 91.4 L 71.7 99.3 L 62.2 106.7 L 51.7 113.8 L 40.2 120.5 L 27.7 126.6 L 14.1 132.3 L 13.4 130.7 L 25.9 123.3 L 37.5 115.9 L 48.0 108.4 L 57.5 100.8 L 65.9 93.0 L 73.3 85.1 L 77.3 80.1 L 17.7 80.1 L 17.7 76.1 L 80.33414630889892 76.1 L 84.9 68.9 L 89.2 60.6 L 92.14573221206665 53.012507915496826 L 92.1 53.0 L 93.0 50.7 L 103.8 56.2 L 105.9 59.1 L 102.09922037124633 59.83348379135132 L 99.4 65.6 L 94.0 74.6 L 92.8837209701538 76.1 L 157.2 76.1 L 167.2 66.1 L 179.2 76.1 L 179.2 80.1 L 113.99399995803833 80.1 L 117.9 83.2 L 124.2 88.0 L 130.6 92.8 L 137.0 97.3 L 143.7 101.6 L 150.5 105.8 L 157.6 109.7 L 164.8 113.4 L 172.3 116.9 L 180.0 120.2 L 185.9 122.8 Z M 134.0 14.8 L 137.0 16.8 L 134.0 18.6 L 134.0 35.6 L 165.0 35.6 L 175.0 25.6 L 187.0 35.6 L 187.0 39.6 L 134.0 39.6 L 134.0 57.5 L 122.0 63.5 L 122.0 39.6 L 78.0 39.6 L 78.0 57.5 L 66.0 63.5 L 66.0 39.6 L 13.0 39.6 L 13.0 35.6 L 66.0 35.6 L 66.0 12.8 L 78.0 14.8 L 81.0 16.8 L 78.0 18.6 L 78.0 35.6 L 122.0 35.6 L 122.0 12.8 Z " />
</g>
</svg>
