<svg xmlns="http://www.w3.org/2000/svg" xmlns:xlink="http://www.w3.org/1999/xlink" version="1.1" baseProfile="full" viewBox="0 0 200 200" width="200" height="200">
<g fill="black">
<path d="M 70.0 123.8 L 73.0 125.8 L 70.0 127.6 L 70.0 144.2 L 131.0 144.2 L 131.0 122.6 L 143.0 124.6 L 146.0 126.6 L 143.0 128.4 L 143.0 144.2 L 160.0 144.2 L 170.0 134.2 L 182.0 144.2 L 182.0 148.2 L 143.0 148.2 L 143.0 181.6 L 131.0 187.6 L 131.0 148.2 L 69.67323942184449 148.2 L 69.2 152.4 L 67.4 159.0 L 64.7 165.0 L 61.0 170.4 L 56.4 175.1 L 51.1 179.1 L 45.0 182.4 L 38.1 185.0 L 30.5 186.8 L 22.1 188.0 L 21.8 186.2 L 29.4 183.2 L 36.0 180.0 L 41.8 176.6 L 46.6 172.9 L 50.5 169.1 L 53.5 164.9 L 55.7 160.6 L 57.1 155.9 L 57.9 150.8 L 57.94727268218994 148.2 L 19.0 148.2 L 19.0 144.2 L 58.0 144.2 L 58.0 121.8 Z M 105.0 87.9 L 108.0 89.9 L 105.0 91.7 L 105.0 109.9 L 124.0 109.9 L 134.0 99.9 L 146.0 109.9 L 146.0 113.9 L 105.0 113.9 L 105.0 132.3 L 93.0 138.3 L 93.0 113.9 L 55.0 113.9 L 55.0 109.9 L 93.0 109.9 L 93.0 85.9 Z M 161.7 110.8 L 154.8 106.9 L 148.3 102.7 L 141.9 98.3 L 135.8 93.5 L 130.0 88.5 L 124.5 83.1 L 119.4 77.4 L 115.15483875274658 71.8 L 89.94659090042114 71.8 L 88.3 73.9 L 80.6 82.1 L 72.0 89.8 L 62.6 97.0 L 52.3 103.6 L 41.1 109.6 L 29.0 115.0 L 16.0 119.8 L 15.3 118.1 L 27.3 111.6 L 38.5 105.0 L 48.7 98.1 L 58.0 90.9 L 66.4 83.5 L 73.9 75.7 L 77.0777777671814 71.8 L 21.6 71.8 L 21.6 67.8 L 80.33703699111939 67.8 L 80.5 67.6 L 86.2 59.2 L 91.0 50.5 L 95.0 41.4 L 95.00774869918823 41.40328102111816 L 95.5 40.2 L 106.1 46.1 L 108.1 49.1 L 104.30211963653565 49.62384557723999 L 101.1 55.9 L 95.2 65.1 L 93.08295450210571 67.8 L 156.4 67.8 L 166.4 57.8 L 178.4 67.8 L 178.4 71.8 L 118.67727270126343 71.8 L 122.2 74.3 L 128.3 78.6 L 134.5 82.8 L 140.7 86.7 L 147.0 90.5 L 153.5 93.9 L 160.1 97.2 L 166.8 100.2 L 173.7 102.9 L 180.7 105.4 L 187.5 108.0 L 176.0 117.7 L 168.7 114.4 Z M 134.0 14.2 L 137.0 16.2 L 134.0 18.0 L 134.0 31.6 L 165.0 31.6 L 175.0 21.6 L 187.0 31.6 L 187.0 35.6 L 134.0 35.6 L 134.0 50.2 L 122.0 56.2 L 122.0 35.6 L 78.0 35.6 L 78.0 50.2 L 66.0 56.2 L 66.0 35.6 L 13.0 35.6 L 13.0 31.6 L 66.0 31.6 L 66.0 12.2 L 78.0 14.2 L 81.0 16.2 L 78.0 18.0 L 78.0 31.6 L 122.0 31.6 L 122.0 12.2 Z " />
</g>
</svg>
