<svg xmlns="http://www.w3.org/2000/svg" xmlns:xlink="http://www.w3.org/1999/xlink" version="1.1" baseProfile="full" viewBox="0 0 200 200" width="200" height="200">
<g fill="black">
<path d="M 178.2 156.1 L 180.2 156.1 L 178.2 177.1 L 181.5 179.3 L 183.7 182.6 L 181.5 185.9 L 178.2 188.1 L 109.0 188.1 L 106.4 188.0 L 104.0 187.7 L 101.6 186.9 L 99.4 185.8 L 97.4 184.2 L 95.7 182.2 L 94.5 180.0 L 93.6 177.7 L 93.1 175.2 L 93.0 172.6 L 93.0 157.4 L 63.4 157.4 L 63.4 169.4 L 51.4 175.4 L 51.4 111.82568807601929 L 41.3 117.2 L 29.6 122.2 L 17.1 126.5 L 16.4 124.9 L 28.0 118.8 L 38.8 112.5 L 48.6 105.9 L 57.7 98.9 L 65.8 91.6 L 73.1 83.9 L 79.03125 76.6 L 21.7 76.6 L 21.7 72.6 L 81.77411766052246 72.6 L 85.2 67.4 L 90.0 58.5 L 93.60765390396118 50.20239601135254 L 93.6 50.2 L 94.5 48.0 L 105.1 53.8 L 107.1 56.8 L 103.30560750961304 57.38878507614136 L 100.1 63.8 L 94.57659578323364 72.6 L 155.2 72.6 L 165.2 62.6 L 177.2 72.6 L 177.2 76.6 L 110.79499998092652 76.6 L 120.8 83.5 L 126.8 87.5 L 133.1 91.3 L 139.7 95.1 L 146.6 98.8 L 153.9 102.3 L 161.5 105.7 L 169.4 109.0 L 177.7 112.2 L 184.2 114.8 L 172.7 124.4 L 164.3 120.5 L 156.3 116.4 L 148.7 112.1 L 143.99411764144898 109.15882349014282 L 151.5 115.3 L 146.5 119.3 L 146.5 161.4 L 134.5 167.4 L 134.5 157.4 L 105.0 157.4 L 105.0 173.9 L 105.1 174.8 L 105.2 175.4 L 105.4 175.8 L 105.5 176.1 L 105.7 176.3 L 106.7 176.8 L 107.7 177.0 L 109.0 177.1 L 172.7 177.1 Z M 63.4 136.8 L 63.4 153.4 L 93.0 153.4 L 93.0 136.8 Z M 105.0 136.8 L 105.0 153.4 L 134.5 153.4 L 134.5 136.8 Z M 63.4 115.3 L 63.4 132.8 L 93.0 132.8 L 93.0 115.3 Z M 105.0 115.3 L 105.0 132.8 L 134.5 132.8 L 134.5 115.3 Z M 91.64044942855836 76.6 L 87.5 82.1 L 79.9 90.3 L 71.5 97.9 L 62.3 105.0 L 57.22794761657715 108.21397380828857 L 63.4 111.3 L 93.0 111.3 L 93.0 91.7 L 105.0 93.7 L 108.0 95.7 L 105.0 97.5 L 105.0 111.3 L 134.5 111.3 L 140.0870129585266 106.64415588378907 L 134.7 103.0 L 128.4 98.2 L 122.5 93.2 L 117.0 88.0 L 112.1 82.5 L 107.9 76.7 L 108.00833330154418 76.6 Z M 134.0 14.2 L 137.0 16.2 L 134.0 18.0 L 134.0 33.7 L 165.0 33.7 L 175.0 23.7 L 187.0 33.7 L 187.0 37.7 L 134.0 37.7 L 134.0 54.3 L 122.0 60.3 L 122.0 37.7 L 78.0 37.7 L 78.0 54.3 L 66.0 60.3 L 66.0 37.7 L 13.0 37.7 L 13.0 33.7 L 66.0 33.7 L 66.0 12.2 L 78.0 14.2 L 81.0 16.2 L 78.0 18.0 L 78.0 33.7 L 122.0 33.7 L 122.0 12.2 Z " />
</g>
</svg>
