<svg xmlns="http://www.w3.org/2000/svg" xmlns:xlink="http://www.w3.org/1999/xlink" version="1.1" baseProfile="full" viewBox="0 0 200 200" width="200" height="200">
<g fill="black">
<path d="M 147.7 177.4 L 157.7 177.4 L 158.9 177.3 L 159.8 177.1 L 160.4 176.9 L 160.8 176.8 L 161.0 176.6 L 161.1 176.4 L 161.3 176.1 L 161.5 175.5 L 161.6 174.6 L 161.7 173.4 L 161.7 147.6 L 130.7 147.6 L 130.7 181.9 L 118.7 187.9 L 118.7 147.6 L 87.7 147.6 L 87.7 183.4 L 75.7 189.4 L 75.7 93.8 L 87.7 99.8 L 118.7 99.8 L 118.7 82.7 L 66.7 82.7 L 66.7 78.7 L 118.7 78.7 L 118.7 55.5 L 122.0 56.05 L 122.0 36.0 L 78.0 36.0 L 78.0 50.2 L 66.0 56.2 L 66.0 36.0 L 13.0 36.0 L 13.0 32.0 L 66.0 32.0 L 66.0 13.0 L 78.0 15.0 L 81.0 17.0 L 78.0 18.8 L 78.0 32.0 L 122.0 32.0 L 122.0 13.0 L 134.0 15.0 L 137.0 17.0 L 134.0 18.8 L 134.0 32.0 L 165.0 32.0 L 175.0 22.0 L 187.0 32.0 L 187.0 36.0 L 134.0 36.0 L 134.0 50.2 L 122.225 56.0875 L 130.7 57.5 L 133.7 59.5 L 130.7 61.3 L 130.7 78.7 L 165.1 78.7 L 175.1 68.7 L 187.1 78.7 L 187.1 82.7 L 130.7 82.7 L 130.7 99.8 L 161.7 99.8 L 167.7 94.8 L 178.7 103.8 L 173.7 107.8 L 173.7 173.4 L 173.6 175.9 L 173.1 178.4 L 172.3 180.8 L 171.1 183.1 L 169.4 185.1 L 167.4 186.8 L 165.2 188.0 L 162.8 188.8 L 160.3 189.2 L 157.7 189.4 L 157.7 183.4 L 147.7 180.4 Z M 36.5 187.9 L 32.5 185.7 L 31.1 181.3 L 31.7 176.4 L 31.8 171.9 L 31.4 167.9 L 30.6 164.3 L 29.3 160.9 L 27.5 157.9 L 25.0 155.0 L 21.9 152.3 L 18.1 149.7 L 13.6 147.5 L 14.0 145.7 L 19.3 146.6 L 24.2 148.0 L 28.7 150.1 L 30.587417221069337 151.42119207382203 L 30.6 151.4 L 33.0 147.4 L 36.1 142.6 L 39.7 136.9 L 44.0 130.4 L 48.9 123.0 L 54.5 114.8 L 60.8 105.8 L 67.8 96.1 L 69.4 97.0 L 59.1 117.6 L 54.6 126.4 L 50.6 134.2 L 47.1 141.1 L 44.2 147.1 L 41.9 152.1 L 40.2 156.2 L 39.1 159.3 L 38.757018852233884 160.53473224639893 L 38.8 160.6 L 40.9 165.4 L 42.3 170.6 L 43.0 176.3 L 43.1 182.5 L 40.9 186.5 Z M 87.7 125.7 L 87.7 143.6 L 118.7 143.6 L 118.7 125.7 Z M 130.7 125.7 L 130.7 143.6 L 161.7 143.6 L 161.7 125.7 Z M 87.7 103.8 L 87.7 121.7 L 118.7 121.7 L 118.7 103.8 Z M 130.7 103.8 L 130.7 121.7 L 161.7 121.7 L 161.7 103.8 Z M 31.8 110.0 L 30.6 108.5 L 28.9 106.9 L 27.0 105.2 L 24.6 103.5 L 22.0 101.8 L 19.0 100.1 L 15.7 98.3 L 12.0 96.9 L 12.4 95.2 L 16.4 95.8 L 20.3 96.2 L 23.9 96.8 L 27.3 97.6 L 30.4 98.5 L 33.3 99.5 L 36.0 100.7 L 38.6 102.2 L 40.9 103.8 L 43.0 105.7 L 44.0 110.1 L 41.7 114.1 L 37.2 115.1 L 33.3 112.8 L 32.7 111.4 Z M 45.5 75.3 L 44.2 73.8 L 42.6 72.1 L 40.6 70.5 L 38.4 68.8 L 35.9 67.1 L 33.2 65.4 L 30.1 63.6 L 26.7 62.2 L 27.2 60.4 L 30.9 61.1 L 34.5 61.5 L 37.9 62.1 L 41.1 62.9 L 44.2 63.8 L 47.0 64.9 L 49.7 66.1 L 52.2 67.5 L 54.5 69.0 L 56.7 70.8 L 57.9 75.2 L 55.8 79.2 L 51.4 80.5 L 47.3 78.3 L 46.6 76.9 Z M 155.6 70.5 L 154.1 68.8 L 152.5 67.3 L 150.7 65.8 L 148.8 64.3 L 146.7 62.9 L 144.5 61.5 L 142.1 60.0 L 139.5 59.1 L 139.8 57.3 L 142.7 57.7 L 145.6 57.7 L 148.5 58.0 L 151.3 58.5 L 154.0 59.1 L 156.7 60.0 L 159.3 61.0 L 161.8 62.3 L 164.2 63.7 L 166.5 65.2 L 168.3 69.5 L 166.6 73.7 L 162.4 75.5 L 158.1 73.8 L 156.9 72.1 Z " />
</g>
</svg>
