<svg xmlns="http://www.w3.org/2000/svg" xmlns:xlink="http://www.w3.org/1999/xlink" version="1.1" baseProfile="full" viewBox="0 0 200 200" width="200" height="200">
<g fill="black">
<path d="M 83.0 176.4 L 103.0 176.4 L 104.2 176.3 L 105.1 176.2 L 105.7 176.0 L 106.0 175.8 L 106.2 175.7 L 106.4 175.5 L 106.5 175.1 L 106.7 174.5 L 106.9 173.6 L 107.0 172.4 L 107.0 153.5 L 42.4 153.5 L 42.4 149.5 L 107.0 149.5 L 107.0 117.79491529464721 L 96.8 118.4 L 84.6 119.0 L 72.1 119.4 L 59.1 119.7 L 45.8 119.6 L 45.7 117.9 L 58.8 115.9 L 71.6 114.1 L 84.0 112.4 L 96.1 110.8 L 107.7 109.2 L 119.0 107.6 L 129.8 106.0 L 140.3 104.4 L 150.4 102.8 L 159.1165560722351 101.27235612869262 L 159.1 101.2 L 159.1748161315918 101.26214561462402 L 160.1 101.1 L 160.2508496284485 102.1559476852417 L 171.5 111.5 L 172.0 114.5 L 167.3918342590332 112.13528337478638 L 161.8 113.0 L 151.9 114.0 L 141.6 115.0 L 131.0 116.0 L 120.0 116.9 L 117.18518514633179 117.09753084182739 L 119.0 117.4 L 122.0 119.4 L 119.0 121.2 L 119.0 149.5 L 161.5 149.5 L 171.5 139.5 L 183.5 149.5 L 183.5 153.5 L 119.0 153.5 L 119.0 172.4 L 118.8 175.0 L 118.4 177.5 L 117.6 179.9 L 116.3 182.1 L 114.7 184.1 L 112.7 185.8 L 110.4 187.0 L 108.0 187.8 L 105.5 188.3 L 103.0 188.4 L 103.0 182.4 L 83.0 179.4 Z M 76.8 140.3 L 76.1 138.6 L 75.2 136.8 L 73.9 134.8 L 72.3 132.7 L 70.4 130.6 L 68.2 128.3 L 65.7 125.9 L 62.8 123.8 L 63.6 122.2 L 67.0 123.8 L 70.4 125.0 L 73.5 126.3 L 76.3 127.8 L 78.9 129.3 L 81.3 131.0 L 83.5 132.7 L 85.4 134.7 L 87.1 136.8 L 88.6 139.1 L 88.3 143.7 L 84.9 146.8 L 80.3 146.4 L 77.2 143.1 L 77.1 141.8 Z M 162.0 125.5 L 163.3 128.8 L 159.0222134590149 128.4312252998352 L 157.9 129.5 L 155.6 131.6 L 153.2 133.7 L 150.7 135.8 L 148.0 137.9 L 145.2 140.0 L 142.3 142.1 L 139.1 144.2 L 136.0 146.5 L 134.7 145.2 L 137.2 142.2 L 139.2 139.1 L 141.3 136.2 L 143.2 133.3 L 145.0 130.6 L 146.7 128.0 L 148.3 125.5 L 149.8 123.0 L 151.1 120.7 L 151.8384320259094 119.28467197418213 L 151.7 119.2 L 152.2435294151306 118.50823526382446 L 152.3 118.4 L 152.31813936233522 118.41327724456787 L 152.8 117.8 Z M 168.92631578445435 64.47368421554566 L 166.9 66.5 L 164.5 68.7 L 162.0 70.9 L 159.7 73.5 L 158.2 72.4 L 159.9 69.4 L 161.2 66.3 L 162.5 63.3 L 163.8 60.5 L 166.4 55.1 L 168.36800003051758 51.0 L 90.0 51.0 L 96.0 52.0 L 99.0 54.0 L 96.0 55.8 L 96.0 70.25925922393799 L 130.89008264541627 67.02869606018066 L 139.9 56.1 L 152.8 65.0 L 153.1 68.9 L 96.0 74.18703699111938 L 96.0 82.2 L 96.2 83.1 L 96.5 84.0 L 96.9 84.4 L 97.8 84.7 L 98.7 84.9 L 100.0 85.0 L 164.0 85.0 Z M 39.4 135.6 L 37.8 144.1 L 35.8 152.0 L 33.2 159.3 L 30.1 166.0 L 26.5 172.1 L 22.4 177.4 L 17.7 181.9 L 12.5 185.6 L 11.4 184.3 L 14.9 179.4 L 18.1 174.3 L 20.8 168.8 L 23.2 162.9 L 25.2 156.6 L 26.8 149.7 L 27.9 142.4 L 28.7 134.5 L 29.0 126.0 L 29.0 41.0 L 41.0 47.0 L 90.0 47.0 L 90.0 12.0 L 102.0 14.0 L 105.0 16.0 L 102.0 17.8 L 102.0 27.0 L 143.0 27.0 L 153.0 17.0 L 165.0 27.0 L 165.0 31.0 L 102.0 31.0 L 102.0 47.0 L 170.0 47.0 L 170.46987953186036 46.60843372344971 L 171.0 45.5 L 171.4356435775757 45.803630352020264 L 176.0 42.0 L 187.0 51.0 L 182.0 54.0 L 177.5217391014099 55.86594200134277 L 177.3 56.1 L 175.3 58.0 L 173.4 60.1 L 171.87587633132935 61.55154638290405 L 170.0 85.0 L 173.6 87.4 L 176.0 91.0 L 173.6 94.6 L 170.0 97.0 L 100.0 97.0 L 97.4 96.8 L 94.9 96.4 L 92.5 95.6 L 90.2 94.3 L 88.2 92.7 L 86.6 90.7 L 85.3 88.4 L 84.5 86.0 L 84.1 83.5 L 84.0 81.0 L 84.0 75.2981481552124 L 45.1 78.9 L 44.8 75.0 L 84.0 71.370370388031 L 84.0 51.0 L 41.0 51.0 L 41.0 117.0 L 40.4 126.6 Z " />
</g>
</svg>
