<svg xmlns="http://www.w3.org/2000/svg" xmlns:xlink="http://www.w3.org/1999/xlink" version="1.1" baseProfile="full" viewBox="0 0 200 200" width="200" height="200">
<g fill="black">
<path d="M 36.5 47.0 L 101.0 47.0 L 101.0 28.0 L 36.0 28.0 L 36.0 24.0 L 152.0 24.0 L 162.0 14.0 L 174.0 24.0 L 174.0 28.0 L 113.0 28.0 L 113.0 47.0 L 168.0 47.0 L 174.0 42.0 L 185.0 51.0 L 180.0 54.0 L 177.68976373672484 54.962598419189455 L 175.7 58.8 L 174.2 61.4 L 172.7 63.9 L 171.0 66.4 L 169.3 68.7 L 167.4 71.0 L 165.4 73.1 L 163.7 75.4 L 162.2 74.5 L 163.2 71.9 L 163.8 69.1 L 164.5 66.4 L 166.3 58.3 L 166.8 55.5 L 167.63333330154418 51.0 L 36.5 51.0 L 36.5 116.0 L 36.0 125.2 L 35.1 133.9 L 33.9 142.3 L 32.3 150.2 L 30.2 157.7 L 27.8 164.7 L 24.9 171.2 L 21.6 177.2 L 17.9 182.6 L 13.6 187.4 L 12.3 186.5 L 14.9 180.8 L 17.2 175.0 L 19.3 168.9 L 21.2 162.5 L 22.7 155.7 L 23.9 148.6 L 24.8 141.0 L 25.3 133.1 L 25.6 124.7 L 25.5 116.0 L 25.5 41.5 Z M 38.0 177.0 L 87.0 177.0 L 87.0 149.0 L 59.5 149.0 L 59.5 161.0 L 48.5 166.5 L 48.5 110.0 L 59.5 112.0 L 62.2 114.0 L 59.5 115.72340421676635 L 59.5 145.0 L 87.0 145.0 L 87.0 108.0 L 99.0 110.0 L 102.0 112.0 L 99.0 113.8 L 99.0 177.0 L 119.0 177.0 L 119.0 108.0 L 131.0 110.0 L 134.0 112.0 L 131.0 113.8 L 131.0 145.0 L 159.0 145.0 L 159.0 109.0 L 171.0 111.0 L 174.0 113.0 L 171.0 114.8 L 171.0 155.0 L 159.0 161.0 L 159.0 149.0 L 131.0 149.0 L 131.0 177.0 L 158.0 177.0 L 168.0 167.0 L 180.0 177.0 L 180.0 181.0 L 38.0 181.0 Z M 44.0 94.0 L 101.0 94.0 L 101.0 74.0 L 52.0 74.0 L 52.0 70.0 L 101.0 70.0 L 101.0 55.0 L 113.0 57.0 L 116.0 59.0 L 113.0 60.8 L 113.0 70.0 L 140.8181818008423 70.0 L 149.0 61.0 L 159.0 70.0 L 159.0 74.0 L 113.0 74.0 L 113.0 94.0 L 148.0 94.0 L 158.0 84.0 L 170.0 94.0 L 170.0 98.0 L 44.0 98.0 Z " />
</g>
</svg>
