<svg xmlns="http://www.w3.org/2000/svg" xmlns:xlink="http://www.w3.org/1999/xlink" version="1.1" baseProfile="full" viewBox="0 0 200 200" width="200" height="200">
<g fill="black">
<path d="M 86.8 177.8 L 86.2 175.5 L 85.5 173.1 L 85.17240352630616 172.22640953063964 L 82.5 173.0 L 75.0 175.0 L 67.5 176.7 L 60.1 178.3 L 52.8 179.9 L 45.6 181.3 L 38.5 182.8 L 31.5 184.1 L 24.6 185.5 L 21.82658100128174 185.9894268989563 L 20.2 189.4 L 17.8 186.7 L 14.1 175.2 L 16.1 174.9 L 23.0 174.2 L 30.0 173.5 L 37.1 172.8 L 44.3 172.1 L 51.6 171.5 L 52.0 171.46216220855712 L 52.0 150.0 L 34.0 150.0 L 34.0 157.0 L 22.0 163.0 L 22.0 114.0 L 34.0 120.0 L 52.0 120.0 L 52.0 103.0 L 64.0 105.0 L 67.0 107.0 L 64.0 108.8 L 64.0 120.0 L 81.0 120.0 L 87.0 115.0 L 98.0 124.0 L 93.0 128.0 L 93.0 150.0 L 81.0 156.0 L 81.0 150.0 L 64.0 150.0 L 64.0 170.4 L 66.5 170.2 L 74.1 169.7 L 81.9 169.3 L 83.93472366333008 169.24848804473876 L 83.5 168.3 L 82.2 165.8 L 80.8 163.2 L 79.2 160.6 L 77.1 158.3 L 78.3 156.9 L 80.9 158.8 L 83.7 160.4 L 86.3 162.3 L 88.6 164.4 L 90.8 166.6 L 92.9 168.9 L 94.7 171.4 L 96.3 174.0 L 97.8 176.7 L 99.0 179.6 L 98.3 184.1 L 94.7 186.9 L 90.2 186.1 L 87.4 182.5 L 87.2 180.2 Z M 174.7 177.8 L 174.1 175.5 L 173.3 173.0 L 173.14752473831177 172.61881189346315 L 171.9 173.0 L 164.6 174.9 L 157.3 176.6 L 150.0 178.2 L 142.8 179.6 L 135.5 181.0 L 128.3 182.3 L 121.0 183.5 L 113.8 184.7 L 110.66388692855836 185.17912836074828 L 108.9 188.6 L 106.6 185.8 L 103.3 174.1 L 105.3 173.9 L 112.5 173.4 L 119.8 172.9 L 127.0 172.3 L 134.3 171.8 L 137.0 171.5780821800232 L 137.0 150.0 L 120.0 150.0 L 120.0 157.0 L 108.0 163.0 L 108.0 114.0 L 120.0 120.0 L 137.0 120.0 L 137.0 103.0 L 149.0 105.0 L 152.0 107.0 L 149.0 108.8 L 149.0 120.0 L 166.0 120.0 L 172.0 115.0 L 183.0 124.0 L 178.0 128.0 L 178.0 150.0 L 166.0 156.0 L 166.0 150.0 L 149.0 150.0 L 149.0 170.7 L 156.4 170.1 L 163.8 169.6 L 171.3 169.3 L 171.74072952270507 169.2882472038269 L 171.1 167.9 L 169.7 165.3 L 168.1 162.6 L 166.4 159.8 L 164.1 157.3 L 165.3 155.9 L 168.1 157.9 L 171.1 159.8 L 173.8 161.8 L 176.3 164.0 L 178.6 166.3 L 180.7 168.7 L 182.6 171.2 L 184.3 173.9 L 185.8 176.7 L 187.0 179.6 L 186.3 184.1 L 182.7 186.9 L 178.2 186.1 L 175.4 182.5 L 175.2 180.2 Z M 120.0 124.0 L 120.0 146.0 L 137.0 146.0 L 137.0 124.0 Z M 149.0 124.0 L 149.0 146.0 L 166.0 146.0 L 166.0 124.0 Z M 34.0 124.0 L 34.0 146.0 L 52.0 146.0 L 52.0 124.0 Z M 64.0 124.0 L 64.0 146.0 L 81.0 146.0 L 81.0 124.0 Z M 154.7 92.5 L 145.6 86.0 L 137.4 78.8 L 129.9 71.2 L 123.3 63.0 L 117.6 54.3 L 112.8 45.2 L 109.1 35.5 L 106.6233283996582 26.143684959411623 L 102.9 28.7 L 98.0 32.0 L 92.4 35.2 L 86.4358473777771 38.13474178314209 L 92.0 42.1 L 99.5 48.5 L 105.7 55.0 L 110.8 61.5 L 114.7 68.2 L 117.4 74.9 L 118.9 81.8 L 118.9 88.8 L 117.5 95.7 L 114.7 102.4 L 114.1199143409729 102.22012844085694 L 112.8 104.2 L 111.3 106.1 L 109.6 107.8 L 107.7 109.4 L 105.7 110.7 L 103.5 111.8 L 101.2 112.6 L 98.9 113.2 L 96.4 113.5 L 94.0 113.6 L 94.0 107.6 L 82.0 104.6 L 82.0 101.6 L 95.4 101.6 L 96.6 101.4 L 97.8 101.1 L 99.8 100.3 L 100.6 99.7 L 101.5 99.0 L 101.98291692733764 98.45671844482422 L 101.8 98.4 L 103.4 95.7 L 105.8 91.4 L 107.2 87.0 L 107.8 82.4 L 107.5 77.3 L 106.68520059585572 74.09900226593018 L 105.0 75.2 L 97.0 79.7 L 88.6 83.9 L 79.7 87.8 L 70.3 91.4 L 60.4 94.7 L 50.1 97.7 L 39.3 100.2 L 28.0 102.4 L 16.1 104.1 L 15.8 102.3 L 27.0 98.7 L 37.8 95.1 L 48.1 91.4 L 57.9 87.6 L 67.1 83.5 L 75.8 79.4 L 84.0 75.0 L 91.7 70.4 L 98.8 65.6 L 102.09405212402343 63.154415893554685 L 99.9 59.3 L 97.18740158081054 55.40063972473145 L 92.8 57.8 L 85.9 61.1 L 78.7 64.3 L 71.0 67.2 L 63.0 70.0 L 54.5 72.6 L 45.5 75.0 L 36.2 77.1 L 26.4 78.9 L 16.2 80.4 L 15.7 78.7 L 25.5 75.3 L 34.7 72.0 L 43.6 68.7 L 52.0 65.4 L 59.9 62.1 L 67.4 58.7 L 74.5 55.2 L 81.0 51.6 L 87.1 47.9 L 89.88757133483887 46.05821180343628 L 89.1 45.1 L 83.83831777572632 39.23698263168335 L 79.1 41.2 L 71.3 44.1 L 62.7 46.9 L 53.3 49.6 L 43.1 52.2 L 32.0 54.6 L 20.2 56.8 L 19.7 55.0 L 31.0 50.9 L 41.5 47.1 L 51.2 43.4 L 60.1 39.8 L 68.1 36.2 L 75.3 32.7 L 81.6 29.3 L 87.0 26.0 L 87.13157892227173 25.9 L 18.0 25.9 L 18.0 21.9 L 160.0 21.9 L 170.0 11.9 L 182.0 21.9 L 182.0 25.9 L 108.68666667938233 25.9 L 112.9 33.8 L 118.0 42.3 L 123.6 50.3 L 129.8 57.8 L 130.242946434021 58.24946031570435 L 132.0 57.0 L 136.3 53.9 L 140.5 50.9 L 144.4 48.1 L 148.2 45.4 L 151.7 42.8 L 155.0 40.3 L 158.1 37.8 L 160.9 35.5 L 162.84092302322387 33.846621131896974 L 162.8 33.8 L 163.6 33.2 L 170.7 42.8 L 170.9 46.4 L 167.2739420890808 44.92271718978882 L 164.0 46.7 L 160.3 48.7 L 156.4 50.6 L 152.3 52.6 L 148.0 54.5 L 143.5 56.5 L 138.7 58.3 L 133.6 60.1 L 132.45669164657593 60.49576063156128 L 136.6 64.7 L 144.1 71.1 L 152.2 77.1 L 160.9 82.5 L 170.4 87.5 L 180.6 92.0 L 186.7 94.6 L 175.3 104.1 L 164.6 98.6 Z " />
</g>
</svg>
