<svg xmlns="http://www.w3.org/2000/svg" xmlns:xlink="http://www.w3.org/1999/xlink" version="1.1" baseProfile="full" viewBox="0 0 200 200" width="200" height="200">
<g fill="black">
<path d="M 86.8 178.7 L 86.3 176.5 L 85.6 174.3 L 85.24841480255127 173.4405695915222 L 82.5 174.2 L 74.9 176.0 L 67.5 177.7 L 60.1 179.2 L 52.8 180.7 L 45.6 182.1 L 38.5 183.4 L 24.5 186.0 L 21.78404359817505 186.4792863845825 L 20.1 189.9 L 17.7 187.2 L 14.2 175.6 L 16.2 175.3 L 23.0 174.7 L 30.0 174.1 L 37.1 173.5 L 44.3 172.9 L 51.6 172.3 L 52.0 172.2675675392151 L 52.0 152.9 L 34.0 152.9 L 34.0 159.9 L 22.0 165.9 L 22.0 118.8 L 34.0 124.8 L 52.0 124.8 L 52.0 109.2 L 64.0 111.2 L 67.0 113.2 L 64.0 115.0 L 64.0 124.8 L 81.0 124.8 L 87.0 119.8 L 98.0 128.8 L 93.0 132.8 L 93.0 152.9 L 81.0 158.9 L 81.0 152.9 L 64.0 152.9 L 64.0 171.36666669845582 L 66.5 171.2 L 74.2 170.7 L 81.9 170.4 L 83.875 170.375 L 83.6 169.8 L 82.3 167.5 L 80.9 165.1 L 79.3 162.7 L 77.2 160.5 L 78.3 159.1 L 80.9 160.8 L 83.6 162.3 L 86.2 164.0 L 88.5 165.8 L 90.7 167.8 L 92.7 169.9 L 94.6 172.1 L 96.2 174.5 L 97.7 177.0 L 99.0 179.7 L 98.3 184.2 L 94.7 187.0 L 90.2 186.4 L 87.4 182.8 L 87.2 180.8 Z M 174.8 178.7 L 174.2 176.5 L 173.4 174.2 L 173.22212810516356 173.79089469909667 L 171.8 174.2 L 164.6 176.0 L 157.3 177.6 L 150.0 179.1 L 142.7 180.5 L 135.5 181.8 L 128.2 183.0 L 121.0 184.2 L 113.8 185.3 L 110.58476457595825 185.7404432296753 L 108.8 189.1 L 106.5 186.3 L 103.4 174.6 L 105.3 174.4 L 112.6 173.9 L 119.8 173.5 L 134.4 172.5 L 137.0 172.35753421783448 L 137.0 152.9 L 120.0 152.9 L 120.0 159.9 L 108.0 165.9 L 108.0 118.8 L 120.0 124.8 L 137.0 124.8 L 137.0 109.2 L 149.0 111.2 L 152.0 113.2 L 149.0 115.0 L 149.0 124.8 L 166.0 124.8 L 172.0 119.8 L 183.0 128.8 L 178.0 132.8 L 178.0 152.9 L 166.21875 158.790625 L 168.1 160.0 L 171.0 161.7 L 173.7 163.5 L 176.2 165.4 L 178.5 167.5 L 180.6 169.7 L 182.5 172.0 L 184.2 174.4 L 185.7 177.0 L 187.0 179.7 L 186.3 184.2 L 182.7 187.0 L 178.2 186.4 L 175.4 182.8 L 175.2 180.8 Z M 149.0 152.9 L 149.0 171.6 L 156.4 171.1 L 163.8 170.7 L 171.3 170.4 L 171.64768209457398 170.39536428451538 L 171.2 169.5 L 169.8 167.1 L 168.2 164.6 L 166.5 161.9 L 164.2 159.6 L 165.3 158.2 L 166.0 158.65 L 166.0 152.9 Z M 120.0 128.8 L 120.0 148.9 L 137.0 148.9 L 137.0 128.8 Z M 149.0 128.8 L 149.0 148.9 L 166.0 148.9 L 166.0 128.8 Z M 34.0 128.8 L 34.0 148.9 L 52.0 148.9 L 52.0 128.8 Z M 64.0 128.8 L 64.0 148.9 L 81.0 148.9 L 81.0 128.8 Z M 175.9 109.2 L 166.3 105.4 L 157.3 101.0 L 149.0 96.3 L 141.3 91.0 L 134.2 85.3 L 127.8 79.2 L 122.0 72.6 L 117.0 65.6 L 112.8 58.2 L 109.88354434967042 51.0 L 105.36078433990478 51.0 L 99.1 54.1 L 94.14792690277099 56.52931880950928 L 96.89516906738281 58.80289859771729 L 96.9 58.8 L 96.90801048278809 58.81352596282959 L 98.1 59.8 L 103.3 64.5 L 107.6 69.2 L 111.3 73.9 L 114.3 78.5 L 116.7 83.1 L 118.3 87.7 L 119.1 92.4 L 119.1 97.1 L 118.1 101.8 L 117.1 104.1 L 115.9 106.3 L 114.4 108.2 L 112.7 110.0 L 110.7 111.6 L 108.6 112.8 L 106.3 113.8 L 103.9 114.4 L 101.5 114.8 L 99.0 115.0 L 99.0 109.0 L 79.0 106.0 L 79.0 103.0 L 99.0 103.0 L 100.3 102.9 L 101.4 102.7 L 102.4 102.4 L 103.2 102.1 L 104.0 101.7 L 104.6 101.2 L 105.2 100.5 L 105.8 99.7 L 106.4 98.7 L 106.9 97.5 L 107.9 95.2 L 108.4 92.6 L 108.4 89.6 L 107.9 86.1 L 107.44268293380738 84.5756097793579 L 103.2 87.0 L 95.8 90.7 L 87.9 94.3 L 79.7 97.6 L 71.0 100.7 L 61.9 103.5 L 52.3 106.1 L 42.4 108.4 L 32.0 110.3 L 21.1 111.8 L 20.8 110.1 L 31.1 106.6 L 41.0 103.2 L 50.4 99.8 L 59.4 96.3 L 67.9 92.7 L 76.0 89.0 L 83.6 85.2 L 90.8 81.2 L 97.4 77.2 L 102.70723485946655 73.57760162353516 L 102.4 73.0 L 100.70588235855102 70.2470588684082 L 96.2 72.5 L 89.2 75.7 L 81.8 78.7 L 74.2 81.5 L 66.2 84.2 L 57.8 86.6 L 49.2 88.9 L 40.2 90.9 L 30.8 92.5 L 21.2 93.8 L 20.7 92.1 L 29.9 88.8 L 38.8 85.7 L 47.3 82.6 L 55.4 79.4 L 63.2 76.2 L 70.7 72.9 L 77.8 69.5 L 84.5 66.0 L 90.9 62.4 L 94.0759259223938 60.49444446563721 L 91.92164764404296 57.55679225921631 L 88.1 59.3 L 81.9 61.7 L 75.2 64.0 L 68.1 66.2 L 60.5 68.3 L 52.4 70.2 L 43.8 72.0 L 34.8 73.6 L 25.2 74.8 L 24.7 73.1 L 33.8 69.9 L 42.5 66.8 L 50.6 63.9 L 58.2 61.1 L 65.3 58.2 L 71.9 55.3 L 77.9 52.5 L 80.7448275566101 51.0 L 17.0 51.0 L 17.0 47.0 L 123.3 47.0 L 125.3 39.0 L 64.58870296478271 39.0 L 64.1 40.6 L 50.9 42.9 L 60.5 11.2 L 71.4 16.7 L 73.7 19.4 L 70.30659713745118 20.27977113723755 L 69.47573223114014 23.0 L 129.0 23.0 L 135.0 18.0 L 146.0 27.0 L 141.0 30.0 L 139.05418329238893 30.810756969451905 L 135.53478260040282 47.0 L 165.8181818008423 47.0 L 174.0 38.0 L 184.0 47.0 L 184.0 51.0 L 112.48000001907349 51.0 L 116.4 55.9 L 121.7 62.0 L 127.4 67.8 L 131.2081877708435 71.16389923095703 L 131.7 70.9 L 135.6 68.7 L 139.3 66.6 L 142.8 64.6 L 146.2 62.6 L 149.4 60.8 L 152.4 59.0 L 155.3 57.3 L 157.9 55.6 L 159.53302497863768 54.55486402511597 L 159.5 54.5 L 159.5476035118103 54.54553375244141 L 160.4 54.0 L 161.65864944458008 56.564795112609865 L 168.7 63.3 L 168.9 66.5 L 165.1851685523987 64.97752809524536 L 162.8 65.8 L 159.7 66.8 L 156.4 67.9 L 152.9 68.9 L 149.2 70.0 L 145.4 71.0 L 141.4 72.0 L 137.2 73.0 L 134.03934421539307 73.57466468811035 L 140.0 78.0 L 146.9 82.5 L 154.4 86.6 L 162.4 90.4 L 171.0 93.7 L 187.5 99.2 Z M 68.25397491455078 27.0 L 65.81046028137207 35.0 L 126.3 35.0 L 128.3 27.0 Z " />
</g>
</svg>
