<svg xmlns="http://www.w3.org/2000/svg" xmlns:xlink="http://www.w3.org/1999/xlink" version="1.1" baseProfile="full" viewBox="0 0 200 200" width="200" height="200">
<g fill="black">
<path d="M 12.0 167.0 L 36.0 167.0 L 36.0 60.0 L 48.0 66.0 L 152.0 66.0 L 158.0 61.0 L 169.0 70.0 L 164.0 74.0 L 164.0 167.0 L 169.8181818008423 167.0 L 178.0 158.0 L 188.0 167.0 L 188.0 171.0 L 12.0 171.0 Z M 48.0 70.0 L 48.0 167.0 L 75.0 167.0 L 75.0 70.0 Z M 87.0 70.0 L 87.0 167.0 L 113.0 167.0 L 113.0 70.0 Z M 125.0 70.0 L 125.0 167.0 L 152.0 167.0 L 152.0 70.0 Z M 164.0 31.0 L 164.0 35.0 L 41.0 35.0 L 41.0 31.0 L 142.0 31.0 L 152.0 21.0 Z " />
</g>
</svg>
