<svg xmlns="http://www.w3.org/2000/svg" xmlns:xlink="http://www.w3.org/1999/xlink" version="1.1" baseProfile="full" viewBox="0 0 200 200" width="200" height="200">
<g fill="black">
<path d="M 152.5 168.1 L 142.0 157.5 L 132.7 145.7 L 124.5 132.9 L 117.4 118.9 L 111.5 103.8 L 106.8 87.7 L 103.3 70.4 L 102.23556184768677 61.124182033538816 L 97.1 68.6 L 88.9 79.3 L 80.4 89.3 L 71.6 98.4 L 67.0 102.69333333969116 L 67.0 162.84536085128784 L 70.9 161.8 L 80.9 159.2 L 91.0 156.6 L 101.3 154.0 L 111.9 151.5 L 122.7 149.1 L 123.2 150.8 L 113.0 155.1 L 102.9 159.1 L 92.9 162.9 L 83.1 166.5 L 73.4 169.9 L 63.9 173.3 L 54.6 176.5 L 45.4 179.6 L 36.4 182.5 L 31.472064781188966 184.12397861480713 L 30.3 187.8 L 27.6 185.4 L 22.3 174.5 L 24.2 173.9 L 33.2 171.6 L 42.4 169.3 L 51.7 166.8 L 55.0 165.96631574630737 L 55.0 113.01075267791748 L 53.3 114.4 L 43.7 121.1 L 33.8 127.0 L 23.7 131.9 L 13.3 135.8 L 12.6 134.1 L 21.9 128.5 L 31.0 122.4 L 39.9 115.8 L 48.5 108.5 L 55.0 102.31325302124023 L 55.0 102.0 L 55.32911396026611 102.0 L 56.8 100.6 L 64.9 92.0 L 72.8 82.8 L 80.4 72.8 L 87.7 62.1 L 93.30707960128784 53.3 L 55.65230770111084 53.3 L 53.6 55.6 L 47.3 61.8 L 40.6 67.6 L 33.4 73.1 L 25.7 78.2 L 17.5 82.9 L 16.4 81.4 L 23.4 75.2 L 29.9 69.0 L 36.1 62.8 L 41.8 56.5 L 47.1 50.0 L 52.0 43.4 L 56.4 36.7 L 60.4 29.8 L 63.9 22.6 L 66.7 16.3 L 67.6 14.1 L 78.0 20.2 L 80.0 23.2 L 76.19091796875 23.725390625 L 74.1 27.8 L 69.6 35.2 L 64.7 42.3 L 59.4 49.1 L 59.22153844833374 49.3 L 159.0 49.3 L 169.0 39.3 L 181.0 49.3 L 181.0 53.3 L 103.37288131713868 53.3 L 104.19226741790771 56.59616680145264 L 105.0 57.1 L 104.49886045455932 57.82950687408447 L 107.4 69.5 L 112.5 86.0 L 118.3 101.2 L 124.17064790725708 113.46702547073365 L 127.1 110.6 L 131.8 106.3 L 136.3 102.2 L 140.7 98.2 L 144.9 94.3 L 148.9 90.5 L 152.7 86.8 L 156.4 83.2 L 159.8 79.7 L 162.410995388031 77.0098834991455 L 162.4 77.0 L 163.3 76.0 L 171.3 85.0 L 171.9 88.6 L 168.18737201690675 87.53924913406372 L 167.5 88.1 L 163.5 91.3 L 159.2 94.5 L 154.8 97.7 L 150.2 100.9 L 145.3 104.2 L 140.3 107.4 L 135.0 110.6 L 129.4 113.7 L 125.3328402519226 115.76804733276367 L 132.5 128.0 L 140.9 139.6 L 150.1 150.0 L 160.2 159.2 L 171.2 167.2 L 183.1 174.2 L 188.0 176.8 L 176.8 185.7 L 164.1 177.5 Z M 98.90793647766114 53.3 L 101.5250349998474 54.93244752883911 L 101.33770494461059 53.3 Z " />
</g>
</svg>
