<svg xmlns="http://www.w3.org/2000/svg" xmlns:xlink="http://www.w3.org/1999/xlink" version="1.1" baseProfile="full" viewBox="0 0 200 200" width="200" height="200">
<g fill="black">
<path d="M 58.4 91.2 L 141.5 91.2 L 147.5 86.2 L 158.5 95.2 L 153.5 99.2 L 153.5 136.7 L 141.5 142.7 L 141.5 134.7 L 106.0 134.7 L 106.0 153.0 L 162.0 153.0 L 172.0 143.0 L 184.0 153.0 L 184.0 157.0 L 106.0 157.0 L 106.0 182.0 L 94.0 188.0 L 94.0 157.0 L 16.0 157.0 L 16.0 153.0 L 94.0 153.0 L 94.0 134.7 L 58.4 134.7 L 58.4 137.7 L 46.4 143.7 L 46.4 85.2 Z M 58.4 114.4 L 58.4 130.7 L 141.5 130.7 L 141.5 114.4 Z M 58.4 95.2 L 58.4 110.4 L 141.5 110.4 L 141.5 95.2 Z M 42.6 84.0 L 30.6 90.0 L 30.6 38.5 L 42.6 44.5 L 72.8 44.5 L 72.8 27.5 L 18.4 27.5 L 18.4 23.5 L 159.6 23.5 L 169.6 13.5 L 181.6 23.5 L 181.6 27.5 L 127.1 27.5 L 127.1 44.5 L 157.3 44.5 L 163.3 39.5 L 174.3 48.5 L 169.3 52.5 L 169.3 81.0 L 157.3 87.0 L 157.3 77.0 L 42.6 77.0 Z M 42.6 48.5 L 42.6 73.0 L 72.8 73.0 L 72.8 48.5 Z M 84.8 48.5 L 84.8 73.0 L 115.1 73.0 L 115.1 48.5 Z M 127.1 48.5 L 127.1 73.0 L 157.3 73.0 L 157.3 48.5 Z M 84.8 27.5 L 84.8 44.5 L 115.1 44.5 L 115.1 27.5 Z " />
</g>
</svg>
