<svg xmlns="http://www.w3.org/2000/svg" xmlns:xlink="http://www.w3.org/1999/xlink" version="1.1" baseProfile="full" viewBox="0 0 200 200" width="200" height="200">
<g fill="black">
<path d="M 52.0 94.2 L 148.0 94.2 L 154.0 89.2 L 165.0 98.2 L 160.0 102.2 L 160.0 138.8 L 148.0 144.8 L 148.0 136.8 L 106.0 136.8 L 106.0 152.1 L 164.0 152.1 L 174.0 142.1 L 186.0 152.1 L 186.0 156.1 L 106.0 156.1 L 106.0 182.4 L 94.0 188.4 L 94.0 156.1 L 14.0 156.1 L 14.0 152.1 L 94.0 152.1 L 94.0 136.8 L 52.0 136.8 L 52.0 139.8 L 40.0 145.8 L 40.0 88.2 Z M 52.0 117.5 L 52.0 132.8 L 148.0 132.8 L 148.0 117.5 Z M 52.0 98.2 L 52.0 113.5 L 148.0 113.5 L 148.0 98.2 Z M 183.0 19.8 L 183.0 23.8 L 118.0 23.8 L 118.0 36.9 L 155.0 36.9 L 161.0 31.9 L 172.0 40.9 L 167.0 44.9 L 167.0 79.0 L 155.0 85.0 L 155.0 77.0 L 45.0 77.0 L 45.0 80.0 L 33.0 86.0 L 33.0 30.9 L 45.0 36.9 L 72.0 36.9 L 72.0 23.8 L 17.0 23.8 L 17.0 19.8 L 161.0 19.8 L 171.0 9.8 Z M 45.0 40.9 L 45.0 66.91724138259887 L 49.5 64.9 L 54.6 62.1 L 59.0 59.3 L 62.7 56.5 L 65.7 53.6 L 68.1 50.6 L 69.9 47.7 L 71.1 44.6 L 71.8 41.6 L 71.84242420196533 40.9 Z M 148.0 44.0 L 150.0 44.0 L 148.0 53.0 L 150.4 54.6 L 152.0 57.0 L 150.4 59.4 L 148.0 61.0 L 119.6 61.0 L 117.3 60.8 L 115.0 60.3 L 112.9 59.3 L 110.9 58.0 L 109.2 56.2 L 107.9 54.2 L 106.9 51.9 L 106.3 49.5 L 106.0 47.0 L 106.0 40.9 L 83.55714282989501 40.9 L 82.7 44.4 L 80.8 48.9 L 78.2 53.0 L 75.0 56.6 L 71.2 59.8 L 66.8 62.6 L 61.9 64.9 L 56.5 66.8 L 50.6 68.2 L 45.0 69.075 L 45.0 73.0 L 155.0 73.0 L 155.0 40.9 L 118.0 40.9 L 118.0 47.0 L 117.8 48.2 L 117.8 49.9 L 117.9 50.5 L 118.0 50.9 L 118.2 51.4 L 118.7 51.8 L 119.4 52.3 L 120.5 52.7 L 122.0 53.0 L 144.0 53.0 Z M 84.0 23.8 L 84.0 36.9 L 106.0 36.9 L 106.0 23.8 Z " />
</g>
</svg>
