<svg xmlns="http://www.w3.org/2000/svg" xmlns:xlink="http://www.w3.org/1999/xlink" version="1.1" baseProfile="full" viewBox="0 0 200 200" width="200" height="200">
<g fill="black">
<path d="M 19.0 60.0 L 19.0 56.0 L 47.0 56.0 L 47.0 15.0 L 59.0 17.0 L 62.0 19.0 L 59.0 20.8 L 59.0 56.0 L 69.0 56.0 L 79.0 46.0 L 91.0 56.0 L 91.0 60.0 L 59.0 60.0 L 59.0 90.0 L 58.5646258354187 98.0 L 72.0 98.0 L 82.0 88.0 L 94.0 98.0 L 94.0 102.0 L 58.34693880081177 102.0 L 58.2 104.7 L 56.7 118.5 L 56.16470584869385 121.31029415130615 L 57.1 121.7 L 61.8 124.1 L 66.1 126.8 L 70.3 129.8 L 74.1 133.0 L 77.8 136.5 L 81.2 140.2 L 84.4 144.1 L 87.3 148.2 L 90.0 152.6 L 79.2 157.9 L 77.4 153.9 L 75.4 150.0 L 73.2 146.2 L 70.7 142.4 L 68.0 138.8 L 65.1 135.2 L 62.0 131.7 L 55.435999965667726 125.13599996566772 L 54.3 131.1 L 51.0 142.6 L 46.9 153.1 L 41.9 162.4 L 36.0 170.5 L 29.2 177.3 L 21.7 182.7 L 13.4 186.7 L 12.5 185.2 L 19.4 179.7 L 25.5 173.5 L 30.7 166.5 L 35.2 158.6 L 39.0 149.8 L 42.1 140.0 L 44.4 129.1 L 46.0 117.1 L 46.9 104.1 L 46.91489362716675 102.0 L 14.0 102.0 L 14.0 98.0 L 46.94326238632202 98.0 L 47.0 90.0 L 47.0 60.0 Z M 181.4 145.0 L 183.4 145.0 L 181.4 170.0 L 185.0 172.4 L 187.4 176.0 L 185.0 179.6 L 181.4 182.0 L 153.3 182.0 L 150.8 181.8 L 148.3 181.4 L 145.9 180.6 L 143.6 179.3 L 141.6 177.7 L 139.9 175.7 L 138.7 173.4 L 137.9 171.0 L 137.5 168.5 L 137.3 166.0 L 137.3 122.4 L 129.34774770736695 122.4 L 127.4 131.8 L 124.1 142.1 L 119.8 151.4 L 114.4 159.8 L 108.1 167.3 L 100.9 173.7 L 92.7 179.1 L 83.7 183.5 L 73.9 186.7 L 63.2 188.8 L 62.8 187.1 L 72.6 183.1 L 81.4 178.7 L 89.2 173.6 L 96.0 167.9 L 101.8 161.6 L 106.7 154.6 L 110.8 146.9 L 114.0 138.5 L 116.3 129.2 L 117.31999998092651 122.4 L 110.7 122.4 L 110.7 134.4 L 98.7 140.4 L 98.7 19.2 L 110.7 25.2 L 160.5 25.2 L 166.5 20.2 L 177.5 29.2 L 172.5 33.2 L 172.5 128.4 L 160.5 134.4 L 160.5 122.4 L 149.3 122.4 L 149.3 166.0 L 149.4 167.2 L 149.6 168.1 L 149.7 168.7 L 149.9 169.0 L 150.3 169.4 L 151.2 169.7 L 152.1 169.9 L 153.3 170.0 L 175.4 170.0 Z M 90.2 157.1 L 87.3 160.6 L 82.7 160.9 L 79.2 158.0 L 90.0 152.6 Z M 110.7 90.0 L 110.7 118.4 L 160.5 118.4 L 160.5 90.0 Z M 110.7 59.6 L 110.7 86.0 L 160.5 86.0 L 160.5 59.6 Z M 110.7 29.2 L 110.7 55.6 L 160.5 55.6 L 160.5 29.2 Z " />
</g>
</svg>
