<svg xmlns="http://www.w3.org/2000/svg" xmlns:xlink="http://www.w3.org/1999/xlink" version="1.1" baseProfile="full" viewBox="0 0 200 200" width="200" height="200">
<g fill="black">
<path d="M 171.4 19.3 L 173.4 22.3 L 169.46626796722413 22.774760723114014 L 168.0 25.3 L 166.0 28.7 L 163.8 32.4 L 161.4 36.3 L 158.8 40.5 L 155.9 44.9 L 152.8 49.5 L 149.4 54.3 L 147.44117650985717 57.0 L 162.0 57.0 L 172.0 47.0 L 184.0 57.0 L 184.0 61.0 L 146.3 61.0 L 146.3 96.0 L 158.3 96.0 L 168.3 86.0 L 180.3 96.0 L 180.3 100.0 L 146.3 100.0 L 146.3 135.0 L 164.8 135.0 L 174.8 125.0 L 186.8 135.0 L 186.8 139.0 L 146.3 139.0 L 146.3 184.0 L 134.3 190.0 L 134.3 139.0 L 96.6 139.0 L 96.6 135.0 L 134.3 135.0 L 134.3 100.0 L 103.1 100.0 L 103.1 96.0 L 134.3 96.0 L 134.3 61.0 L 99.4 61.0 L 99.4 57.0 L 144.6431034088135 57.0 L 146.2 52.7 L 148.3 47.1 L 150.2 41.9 L 152.1 37.1 L 153.9 32.6 L 155.5 28.3 L 157.0 24.4 L 158.3 20.8 L 160.08976373672485 15.430708694458009 L 160.0 15.4 L 160.375 14.575 L 160.4 14.5 L 160.4075861930847 14.503310298919677 L 161.0 13.2 Z M 36.30540542602539 136.0 L 53.7 136.0 L 53.7 104.0 L 37.4 104.0 L 37.4 124.0 L 36.9 131.6 Z M 65.7 104.0 L 65.7 136.0 L 81.9 136.0 L 81.9 104.0 Z M 37.4 69.0 L 37.4 100.0 L 53.7 100.0 L 53.7 69.0 Z M 65.7 69.0 L 65.7 100.0 L 81.9 100.0 L 81.9 69.0 Z M 46.33684206008911 39.0 L 45.8 40.2 L 42.1 47.7 L 38.0 55.1 L 33.5 62.6 L 33.2773196220398 62.93865976333618 L 37.4 65.0 L 58.65675678253174 65.0 L 59.9 62.7 L 61.6 59.0 L 63.4 55.4 L 65.2 52.0 L 66.9 48.7 L 68.5 45.5 L 70.1 42.4 L 71.6 39.4 L 71.80689659118653 39.0 Z M 119.1 43.3 L 118.4 40.6 L 117.4 37.7 L 116.1 34.8 L 114.6 31.7 L 112.8 28.5 L 110.8 25.2 L 108.6 21.7 L 106.0 18.3 L 107.2 17.0 L 110.7 19.7 L 114.1 22.2 L 117.3 24.9 L 120.1 27.7 L 122.7 30.5 L 125.0 33.4 L 127.0 36.4 L 128.8 39.4 L 130.3 42.5 L 131.6 45.7 L 130.7 50.2 L 127.0 52.9 L 122.5 52.0 L 119.8 48.3 L 119.6 45.8 Z M 93.3 175.0 L 92.5 177.4 L 91.3 179.7 L 89.6 181.7 L 87.6 183.3 L 85.3 184.6 L 82.9 185.4 L 80.4 185.8 L 77.9 186.0 L 77.9 180.0 L 57.9 177.0 L 57.9 174.0 L 77.9 174.0 L 79.1 173.9 L 80.0 173.7 L 80.9 173.4 L 81.3 173.0 L 81.5 172.7 L 81.6 172.1 L 81.8 171.2 L 81.9 170.0 L 81.9 140.0 L 35.70281686782837 140.0 L 34.5 146.1 L 32.6 152.9 L 30.2 159.5 L 27.4 165.8 L 24.1 171.8 L 20.4 177.5 L 16.1 182.7 L 11.2 187.5 L 9.8 186.4 L 12.9 180.6 L 15.8 174.7 L 18.3 168.9 L 20.4 162.9 L 22.2 156.9 L 23.6 150.6 L 24.6 144.2 L 25.3 137.7 L 25.5 130.9 L 25.4 124.0 L 25.4 74.4222222328186 L 23.3 77.3 L 17.6 84.4 L 11.3 91.5 L 9.8 90.4 L 14.4 82.3 L 18.9 74.3 L 23.0 66.5 L 25.4 61.82307691574097 L 25.4 59.0 L 26.55287961959839 59.57643976211548 L 26.9 58.9 L 30.5 51.3 L 33.7 43.7 L 36.6 36.3 L 39.1 28.9 L 41.3 21.6 L 43.1 14.3 L 43.16444444656372 14.317777824401855 L 43.6 12.7 L 54.7 17.5 L 57.1 20.2 L 53.41625003814697 21.252499961853026 L 52.1 25.1 L 49.2 32.6 L 48.12631578445435 35.0 L 73.5 35.0 L 74.1 34.5 L 74.5 33.7 L 74.8159776687622 33.90335197448731 L 79.5 30.0 L 90.5 39.0 L 85.5 42.0 L 81.78923072814942 43.54615383148193 L 80.4 45.2 L 78.1 47.8 L 75.8 50.5 L 73.3 53.2 L 70.8 56.0 L 68.1 58.8 L 65.3 61.6 L 62.3 64.5 L 61.8 65.0 L 81.9 65.0 L 87.9 60.0 L 98.9 69.0 L 93.9 73.0 L 93.9 170.0 L 93.7 172.5 Z " />
</g>
</svg>
