<svg xmlns="http://www.w3.org/2000/svg" xmlns:xlink="http://www.w3.org/1999/xlink" version="1.1" baseProfile="full" viewBox="0 0 200 200" width="200" height="200">
<g fill="black">
<path d="M 145.5 78.0 L 148.5 80.0 L 145.5 81.8 L 145.5 107.0 L 158.9 107.0 L 168.9 97.0 L 180.9 107.0 L 180.9 111.0 L 145.5 111.0 L 145.5 140.0 L 164.0 140.0 L 174.0 130.0 L 186.0 140.0 L 186.0 144.0 L 145.5 144.0 L 145.5 182.0 L 133.5 188.0 L 133.5 144.0 L 97.2 144.0 L 97.2 140.0 L 133.5 140.0 L 133.5 111.0 L 112.13888893127441 111.0 L 112.0 111.3 L 109.4 116.8 L 106.5 122.5 L 103.3 128.4 L 99.8 134.3 L 98.1 133.6 L 99.8 126.9 L 101.5 120.6 L 103.3 114.5 L 104.9 108.6 L 106.5 103.0 L 107.9 97.6 L 109.2 92.5 L 110.4 87.6 L 111.4 82.9 L 112.3 78.4 L 112.3210144996643 78.40543479919434 L 112.7 76.7 L 123.9 81.4 L 126.3 84.1 L 122.6591555595398 85.20525636672974 L 122.4 86.0 L 120.7 90.7 L 118.8 95.6 L 116.7 100.6 L 114.5 105.9 L 113.99074077606201 107.0 L 133.5 107.0 L 133.5 76.0 Z M 38.35753421783447 136.0 L 54.1 136.0 L 54.1 104.0 L 39.5 104.0 L 39.5 124.0 L 38.9 131.6 Z M 66.1 104.0 L 66.1 136.0 L 80.6 136.0 L 80.6 104.0 Z M 39.5 69.0 L 39.5 100.0 L 54.1 100.0 L 54.1 69.0 Z M 66.1 69.0 L 66.1 100.0 L 80.6 100.0 L 80.6 69.0 Z M 166.5 69.1 L 164.6 70.7 L 162.7 72.1 L 160.6 73.3 L 158.4 74.3 L 156.2 75.0 L 153.8 75.5 L 151.4 75.8 L 148.9 76.0 L 148.9 70.0 L 134.9 67.0 L 134.9 64.0 L 148.9 64.0 L 150.4 63.9 L 151.7 63.7 L 153.0 63.4 L 154.1 63.1 L 155.2 62.6 L 156.2 62.0 L 157.2 61.3 L 158.2 60.5 L 159.1 59.5 L 160.0 58.3 L 160.5 57.5 L 161.1 56.1 L 161.8 54.3 L 162.4 51.9 L 162.9 49.1 L 163.5 45.9 L 163.9 42.2 L 164.3 38.1 L 164.6 33.6 L 164.7083333015442 31.0 L 139.15172414779664 31.0 L 137.6 36.0 L 135.2 41.6 L 132.3 47.0 L 128.9 52.2 L 124.9 57.2 L 120.5 62.0 L 115.6 66.6 L 110.2 70.9 L 104.3 75.0 L 97.8 78.7 L 96.7 77.2 L 101.9 72.0 L 106.6 67.0 L 110.9 62.0 L 114.8 57.1 L 118.1 52.2 L 121.0 47.3 L 123.4 42.4 L 125.3 37.5 L 126.7 32.6 L 127.01111106872558 31.0 L 98.9 31.0 L 98.9 27.0 L 164.8 27.0 L 170.8 22.0 L 181.8 31.0 L 176.8 34.0 L 176.51034479141236 34.120689678192136 L 176.5 34.3 L 176.2 39.0 L 175.8 43.5 L 175.3 47.5 L 174.8 51.2 L 174.1 54.6 L 173.2 57.7 L 172.3 60.5 L 171.1 63.1 L 169.7 65.4 L 168.1 67.4 Z M 47.76315793991089 39.0 L 47.3 40.1 L 43.8 47.6 L 39.9 55.0 L 35.7 62.5 L 35.41076927185058 62.95538463592529 L 39.5 65.0 L 59.038888931274414 65.0 L 60.2 62.8 L 61.8 59.1 L 63.4 55.5 L 65.0 52.1 L 66.6 48.8 L 68.1 45.6 L 69.6 42.5 L 71.0 39.5 L 71.24137935638427 39.0 Z M 92.1 175.0 L 91.3 177.4 L 90.0 179.7 L 88.4 181.7 L 86.4 183.3 L 84.1 184.6 L 81.7 185.4 L 79.2 185.8 L 76.6 186.0 L 76.6 180.0 L 56.6 177.0 L 56.6 174.0 L 76.6 174.0 L 77.9 173.9 L 78.8 173.7 L 79.7 173.4 L 80.1 173.0 L 80.4 172.1 L 80.6 171.2 L 80.6 140.0 L 37.78309860229492 140.0 L 36.6 146.0 L 34.8 152.9 L 32.6 159.5 L 29.9 165.8 L 26.8 171.8 L 23.2 177.4 L 19.1 182.7 L 14.5 187.5 L 13.0 186.4 L 15.9 180.6 L 18.5 174.8 L 20.8 169.0 L 22.8 163.0 L 24.5 156.9 L 25.8 150.7 L 26.7 144.3 L 27.3 137.7 L 27.6 130.9 L 27.5 124.0 L 27.5 75.01000003814697 L 26.0 77.2 L 20.5 84.4 L 14.5 91.5 L 13.0 90.4 L 17.3 82.3 L 21.4 74.4 L 25.3 66.6 L 27.5 62.02162160873413 L 27.5 59.0 L 28.670680618286134 59.585340309143064 L 29.0 58.9 L 32.3 51.3 L 35.3 43.8 L 38.0 36.4 L 40.4 29.0 L 42.4 21.7 L 44.1 14.4 L 44.155565452575686 14.414247512817383 L 44.6 12.7 L 55.8 17.4 L 58.2 20.1 L 54.54706344604492 21.208927154541016 L 53.3 25.0 L 50.5 32.5 L 49.447368431091306 35.0 L 72.8 35.0 L 73.2444444656372 34.629629611968994 L 73.6 33.8 L 73.96909294128417 34.025755882263184 L 78.8 30.0 L 89.8 39.0 L 84.8 42.0 L 81.09811325073242 43.542452812194824 L 79.9 45.1 L 77.7 47.7 L 75.5 50.4 L 73.2 53.1 L 68.2 58.7 L 65.5 61.6 L 62.6 64.4 L 62.05806455612183 65.0 L 80.6 65.0 L 86.6 60.0 L 97.6 69.0 L 92.6 73.0 L 92.6 170.0 L 92.5 172.5 Z " />
</g>
</svg>
