<svg xmlns="http://www.w3.org/2000/svg" xmlns:xlink="http://www.w3.org/1999/xlink" version="1.1" baseProfile="full" viewBox="0 0 200 200" width="200" height="200">
<g fill="black">
<path d="M 79.5 153.6 L 148.5 153.6 L 154.5 148.6 L 165.5 157.6 L 160.5 161.6 L 160.5 180.7 L 148.5 186.7 L 148.5 178.7 L 79.5 178.7 L 79.5 181.7 L 67.5 187.7 L 67.5 147.6 Z M 79.5 157.6 L 79.5 174.7 L 148.5 174.7 L 148.5 157.6 Z M 162.0 139.4 L 162.0 143.4 L 66.0 143.4 L 66.0 139.4 L 147.7777777671814 139.4 L 154.0 132.4 Z M 162.0 125.1 L 162.0 129.1 L 66.0 129.1 L 66.0 125.1 L 147.7777777671814 125.1 L 154.0 118.1 Z M 175.5 109.7 L 175.5 113.7 L 52.5 113.7 L 52.5 109.7 L 161.2777777671814 109.7 L 167.5 102.7 Z M 154.5 95.5 L 154.5 99.5 L 73.5 99.5 L 73.5 95.5 L 136.3181818008423 95.5 L 144.5 86.5 Z M 171.0 66.0 L 173.0 66.0 L 171.0 75.0 L 173.4 76.6 L 175.0 79.0 L 173.4 81.4 L 171.0 83.0 L 130.6 83.0 L 128.3 82.8 L 126.0 82.3 L 123.9 81.3 L 121.9 80.0 L 120.2 78.2 L 118.9 76.2 L 117.9 73.9 L 117.3 71.5 L 117.0 69.0 L 117.0 58.0 L 101.65652170181275 58.0 L 101.5 58.3 L 98.7 63.4 L 95.3 68.2 L 91.4 72.6 L 87.0 76.6 L 82.1 80.3 L 76.7 83.6 L 70.8 86.5 L 64.4 89.1 L 57.6 91.2 L 50.2 92.8 L 49.7 91.1 L 56.2 87.7 L 62.2 84.2 L 67.6 80.8 L 72.5 77.3 L 76.8 73.6 L 80.6 69.8 L 83.8 66.0 L 86.5 62.0 L 88.64634141921997 58.0 L 46.0 58.0 L 46.0 108.0 L 45.89668245315552 108.15497627258301 L 45.2 119.7 L 43.8 130.7 L 41.9 140.8 L 39.5 150.2 L 36.5 158.9 L 32.8 166.7 L 28.6 173.6 L 23.8 179.7 L 18.4 184.7 L 12.5 188.7 L 11.4 187.2 L 15.7 182.0 L 19.6 176.4 L 23.0 170.3 L 25.9 163.5 L 28.4 156.0 L 30.5 147.9 L 32.1 139.0 L 33.2 129.4 L 33.8 119.0 L 34.0 107.8 L 34.0 58.24754095077515 L 33.0 59.1 L 26.6 64.0 L 19.7 68.6 L 12.5 72.7 L 11.4 71.2 L 17.4 65.6 L 23.1 59.9 L 28.5 54.3 L 33.6 48.6 L 34.0 48.125 L 34.0 48.0 L 34.0740740776062 48.037036991119386 L 38.4 42.9 L 42.8 37.0 L 46.9 31.0 L 50.7 24.8 L 54.1 18.6 L 57.1 12.2 L 57.14014873504639 12.219702625274659 L 57.7 11.1 L 67.9 17.5 L 69.7 20.7 L 65.88683166503907 20.958519840240477 L 64.0 24.2 L 60.775 29.0 L 123.0 29.0 L 123.42531642913818 28.645569610595704 L 124.1 27.4 L 124.53655319213867 27.719538974761964 L 129.0 24.0 L 140.0 33.0 L 135.0 36.0 L 130.37142858505248 37.92857141494751 L 129.5 38.8 L 127.2 40.9 L 124.7 43.1 L 122.1 45.3 L 119.3 47.6 L 116.3 49.8 L 113.2 52.0 L 110.2 54.0 L 163.8181818008423 54.0 L 172.0 45.0 L 182.0 54.0 L 182.0 58.0 L 129.0 58.0 L 129.0 69.0 L 128.8 70.2 L 128.8 71.9 L 128.9 72.5 L 129.0 72.9 L 129.2 73.4 L 129.7 73.8 L 130.4 74.3 L 131.5 74.7 L 133.0 75.0 L 167.0 75.0 Z M 57.91935482025146 33.0 L 55.1 36.8 L 50.1 42.8 L 44.8 48.5 L 41.41454544067383 51.70727272033692 L 46.0 54.0 L 106.39032258987427 54.0 L 107.9 52.2 L 110.1 48.9 L 112.3 45.8 L 114.4 42.9 L 118.2 37.3 L 119.9 34.7 L 120.91999998092652 33.0 Z " />
</g>
</svg>
