<svg xmlns="http://www.w3.org/2000/svg" xmlns:xlink="http://www.w3.org/1999/xlink" version="1.1" baseProfile="full" viewBox="0 0 200 200" width="200" height="200">
<g fill="black">
<path d="M 91.07342596054077 162.67031888961793 L 91.7 163.4 L 91.6 163.4 L 91.5329113960266 163.4417721748352 L 91.7 163.4 L 91.9 166.9 L 88.32075986862182 165.44179105758667 L 86.3 166.7 L 80.6 169.9 L 74.7 172.9 L 68.5 175.7 L 62.0 178.4 L 55.3 181.0 L 48.2 183.3 L 40.9 185.5 L 33.2 187.3 L 25.2 188.8 L 24.7 187.1 L 32.0 183.7 L 39.0 180.4 L 45.8 177.2 L 52.3 174.0 L 58.5 170.7 L 64.3 167.5 L 69.9 164.1 L 75.1 160.7 L 80.0 157.2 L 83.85601835250854 154.2660729408264 L 83.8 154.2 L 83.85645275115967 154.26574249267577 L 84.6 153.7 Z M 155.5 179.7 L 151.7 176.7 L 147.5 173.8 L 142.9 171.1 L 137.8 168.4 L 132.2 165.8 L 126.1 163.2 L 119.7 160.6 L 112.7 158.0 L 113.1 156.3 L 120.6 157.0 L 127.6 158.1 L 134.3 159.5 L 140.6 161.3 L 146.5 163.4 L 152.0 165.7 L 157.1 168.3 L 161.9 171.1 L 166.3 174.2 L 170.2 177.6 L 171.8 181.9 L 170.0 186.1 L 165.7 187.7 L 161.5 185.9 L 158.7 182.8 Z M 88.5 18.9 L 90.1 22.2 L 86.22253522872924 22.2 L 83.6 26.0 L 81.30588235855103 29.0 L 119.0 29.0 L 119.4222222328186 28.648148155212404 L 119.7 28.0 L 119.99863481521606 28.167804336547853 L 125.0 24.0 L 136.0 33.0 L 131.0 36.0 L 127.46515836715699 37.472850704193114 L 125.8 39.5 L 123.4 42.3 L 120.8 45.1 L 118.1 47.9 L 115.1 50.7 L 112.0 53.5 L 108.7 56.2 L 105.2 58.8 L 104.94285717010499 59.0 L 143.0 59.0 L 149.0 54.0 L 160.0 63.0 L 155.0 67.0 L 155.0 146.0 L 143.0 152.0 L 143.0 144.0 L 65.0 144.0 L 65.0 156.0 L 53.0 162.0 L 53.0 58.66666669845581 L 46.0 64.5 L 38.3 70.2 L 30.1 75.6 L 21.5 80.7 L 20.4 79.2 L 27.8 72.6 L 34.9 66.0 L 41.6 59.5 L 48.0 53.0 L 54.0 46.5 L 59.7 39.8 L 64.9 33.2 L 69.8 26.4 L 74.2 19.6 L 77.81895380020141 13.509565448760986 L 77.8 13.5 L 78.8 11.8 Z M 65.0 117.0 L 65.0 140.0 L 143.0 140.0 L 143.0 117.0 Z M 65.0 89.0 L 65.0 113.0 L 143.0 113.0 L 143.0 89.0 Z M 65.0 63.0 L 65.0 85.0 L 143.0 85.0 L 143.0 63.0 Z M 78.22985076904297 33.0 L 72.7 39.5 L 66.6 46.0 L 60.1 52.4 L 57.10157070159912 55.05078535079956 L 65.0 59.0 L 101.275 59.0 L 103.0 56.7 L 105.3 53.1 L 107.6 49.6 L 109.8 46.2 L 111.8 43.0 L 113.7 39.8 L 115.5 36.7 L 117.1 33.7 L 117.43793106079102 33.0 Z " />
</g>
</svg>
