<svg xmlns="http://www.w3.org/2000/svg" xmlns:xlink="http://www.w3.org/1999/xlink" version="1.1" baseProfile="full" viewBox="0 0 200 200" width="200" height="200">
<g fill="black">
<path d="M 159.3 180.9 L 155.5 178.2 L 151.1 175.6 L 146.4 173.2 L 141.1 170.9 L 135.4 168.6 L 129.3 166.4 L 122.8 164.2 L 115.8 162.0 L 116.1 160.2 L 123.5 160.5 L 130.5 161.2 L 137.2 162.3 L 143.5 163.6 L 149.4 165.3 L 155.0 167.2 L 160.2 169.4 L 165.1 171.8 L 169.6 174.5 L 173.7 177.5 L 175.6 181.6 L 174.2 186.0 L 170.0 187.9 L 165.7 186.4 L 162.7 183.6 Z M 90.72843599319458 163.46492891311647 L 94.0 167.1 L 94.2 170.7 L 90.63535490036011 169.14451847076415 L 88.1 170.6 L 82.4 173.5 L 76.5 176.1 L 70.3 178.6 L 63.8 180.8 L 57.0 182.8 L 50.0 184.5 L 42.7 186.0 L 35.0 187.1 L 27.1 187.8 L 26.8 186.1 L 34.2 183.4 L 41.3 180.8 L 48.1 178.2 L 54.5 175.6 L 60.7 172.9 L 66.6 170.0 L 72.1 167.1 L 77.3 164.0 L 82.2 160.9 L 85.94398927688599 158.15440788269044 L 85.9 158.1 L 85.94698791503906 158.15220880508423 L 86.7 157.6 Z M 142.6 59.4 L 140.6 60.5 L 138.5 61.4 L 136.3 62.2 L 134.1 62.8 L 131.9 63.3 L 129.6 63.7 L 127.3 63.9 L 125.0 64.0 L 125.0 58.0 L 105.0 55.0 L 105.0 52.0 L 125.0 52.0 L 126.6 51.9 L 128.1 51.8 L 129.7 51.5 L 131.1 51.2 L 132.6 50.8 L 135.4 49.6 L 136.8 48.9 L 138.1 48.1 L 139.4 47.2 L 141.0 45.9 L 142.4 44.4 L 143.6 42.7 L 144.8 40.6 L 145.9 38.3 L 146.8 35.6 L 147.6 32.6 L 148.2 29.3 L 148.7 25.6 L 148.82307691574096 24.0 L 91.6 24.0 L 91.5 24.2 L 87.8 31.5 L 83.3 38.5 L 78.1 45.2 L 72.1 51.7 L 65.3 57.8 L 58.654922294616696 63.02746114730835 L 64.8 66.1 L 144.1 66.1 L 150.1 61.1 L 161.1 70.1 L 156.1 74.1 L 156.1 148.7 L 144.1 154.7 L 144.1 148.7 L 64.8 148.7 L 64.8 160.7 L 52.8 166.7 L 52.8 67.05365858078002 L 49.6 69.2 L 40.7 74.5 L 30.9 79.3 L 20.4 83.8 L 19.5 82.1 L 29.0 76.0 L 37.8 69.9 L 45.8 63.9 L 53.1 57.8 L 59.6 51.6 L 65.3 45.3 L 70.2 39.0 L 74.3 32.7 L 77.7 26.2 L 78.59047622680664 24.0 L 39.0 24.0 L 39.0 20.0 L 149.0 20.0 L 155.0 15.0 L 166.0 24.0 L 161.0 27.0 L 160.55519351959228 27.18533601760864 L 160.1 31.1 L 159.3 35.2 L 158.3 39.1 L 157.0 42.7 L 155.5 46.1 L 153.7 49.2 L 151.6 52.1 L 149.2 54.6 L 146.6 56.8 L 144.6 58.2 Z M 64.8 121.4 L 64.8 144.7 L 144.1 144.7 L 144.1 121.4 Z M 64.8 95.7 L 64.8 117.4 L 144.1 117.4 L 144.1 95.7 Z M 64.8 70.1 L 64.8 91.7 L 144.1 91.7 L 144.1 70.1 Z " />
</g>
</svg>
