<svg xmlns="http://www.w3.org/2000/svg" xmlns:xlink="http://www.w3.org/1999/xlink" version="1.1" baseProfile="full" viewBox="0 0 200 200" width="200" height="200">
<g fill="black">
<path d="M 92.42798833847046 166.09854230880737 L 99.8 173.0 L 100.0 176.3 L 96.2573896408081 174.73051824569703 L 92.4 176.2 L 88.0 177.7 L 83.2 179.3 L 78.2 180.8 L 72.8 182.2 L 67.1 183.7 L 61.1 185.0 L 54.8 186.3 L 48.1 187.4 L 41.0 188.3 L 40.6 186.6 L 47.0 183.8 L 53.3 181.2 L 59.2 178.8 L 64.8 176.4 L 70.0 174.2 L 75.0 172.0 L 79.6 169.9 L 83.9 167.8 L 87.8 165.8 L 90.45081968307495 164.28524589538574 L 90.4 164.2 L 90.47580642700196 164.2709677696228 L 91.3 163.8 Z M 158.8 182.9 L 155.8 181.1 L 152.2 179.2 L 148.2 177.3 L 143.7 175.3 L 138.7 173.3 L 133.3 171.3 L 127.4 169.1 L 121.1 166.7 L 121.5 165.0 L 128.3 165.5 L 134.6 166.2 L 140.4 167.1 L 145.9 168.2 L 150.9 169.3 L 155.6 170.6 L 159.8 171.9 L 163.7 173.4 L 167.2 175.0 L 170.4 176.7 L 172.8 180.6 L 171.7 185.1 L 167.8 187.4 L 163.4 186.4 L 161.4 184.7 Z M 52.4 56.5 L 147.0 56.5 L 153.0 51.5 L 158.46691732406617 55.9729323387146 L 159.7 54.0 L 161.7 51.1 L 163.5 48.4 L 165.1 45.8 L 166.6 43.3 L 168.0 41.0 L 168.28571424484252 40.5 L 33.04651165008545 40.5 L 33.1 42.8 L 32.7 46.9 L 32.0 50.8 L 30.8 54.5 L 29.2 57.9 L 27.1 61.0 L 24.5 63.8 L 21.4 66.2 L 16.8 66.5 L 13.3 63.6 L 12.9 59.1 L 15.8 55.5 L 17.8 54.7 L 19.7 53.7 L 21.5 52.2 L 23.2 50.3 L 24.8 48.0 L 26.2 45.2 L 27.5 41.9 L 28.6 38.1 L 29.6 33.8 L 30.1 29.1 L 31.9 29.0 L 32.5 33.9 L 32.78260869979859 36.5 L 94.0 36.5 L 94.0 12.8 L 106.0 14.8 L 109.0 16.8 L 106.0 18.6 L 106.0 36.5 L 170.0 36.5 L 170.64347829818726 35.96376810073853 L 171.1 35.0 L 171.47513809204102 35.2707181930542 L 176.0 31.5 L 187.0 40.5 L 182.0 43.5 L 176.97241382598878 45.594827556610106 L 175.3 47.1 L 173.1 48.9 L 170.8 50.8 L 168.3 52.8 L 165.6 54.8 L 162.7 56.9 L 161.00411767959594 58.048823547363284 L 164.0 60.5 L 159.0 64.5 L 159.0 83.3 L 147.0 89.3 L 147.0 81.3 L 52.4 81.3 L 52.4 110.5 L 51.8 120.4 L 50.5 129.9 L 48.5 138.8 L 45.7 147.3 L 42.3 155.2 L 38.2 162.6 L 33.4 169.5 L 27.9 175.7 L 21.7 181.2 L 14.8 186.0 L 13.8 184.7 L 19.3 178.7 L 24.1 172.5 L 28.4 166.0 L 32.1 159.2 L 35.2 152.1 L 37.6 144.6 L 39.5 136.7 L 40.7 128.4 L 41.4 119.7 L 41.4 51.0 Z M 74.9 96.7 L 144.9 96.7 L 150.9 91.7 L 161.9 100.7 L 156.9 104.7 L 156.9 160.9 L 144.9 166.9 L 144.9 160.9 L 74.9 160.9 L 63.9 166.4 L 63.9 91.2 Z M 74.9 140.0 L 74.9 156.9 L 144.9 156.9 L 144.9 140.0 Z M 74.9 120.3 L 74.9 136.0 L 144.9 136.0 L 144.9 120.3 Z M 74.9 100.7 L 74.9 116.3 L 144.9 116.3 L 144.9 100.7 Z M 52.4 60.5 L 52.4 77.3 L 96.0 77.3 L 96.0 60.5 Z M 108.0 60.5 L 108.0 77.3 L 147.0 77.3 L 147.0 60.5 Z " />
</g>
</svg>
