<svg xmlns="http://www.w3.org/2000/svg" xmlns:xlink="http://www.w3.org/1999/xlink" version="1.1" baseProfile="full" viewBox="0 0 200 200" width="200" height="200">
<g fill="black">
<path d="M 156.8 183.8 L 152.3 181.7 L 147.4 179.6 L 142.0 177.5 L 136.3 175.3 L 130.2 173.2 L 123.8 171.0 L 116.9 168.6 L 109.7 166.0 L 110.1 164.3 L 117.8 164.9 L 125.0 165.7 L 131.9 166.8 L 138.4 168.0 L 144.5 169.4 L 150.3 170.8 L 155.7 172.3 L 160.8 173.8 L 165.5 175.5 L 170.0 177.2 L 172.9 180.7 L 172.6 185.3 L 169.1 188.2 L 164.6 188.0 L 160.9 185.9 Z M 82.47753829956055 163.6762336730957 L 90.8 171.0 L 90.9 174.2 L 87.05894689559936 172.57955570220946 L 86.3 172.9 L 80.3 174.9 L 74.1 176.9 L 67.6 178.7 L 60.9 180.5 L 53.9 182.1 L 46.6 183.6 L 39.2 185.0 L 31.4 186.2 L 23.4 187.2 L 15.1 187.8 L 14.8 186.1 L 22.6 183.5 L 30.2 181.0 L 37.6 178.6 L 44.7 176.3 L 51.6 174.0 L 58.1 171.6 L 64.4 169.2 L 70.5 166.8 L 76.2 164.3 L 80.80378789901734 162.2073691368103 L 80.8 162.2 L 80.80681200027466 162.20599451065064 L 81.7 161.8 Z M 148.0 53.0 L 148.0 57.0 L 108.0 57.0 L 108.0 74.20818185806274 L 111.9 72.4 L 122.4 67.3 L 131.43432149887084 62.55469980239868 L 131.4 62.5 L 131.44908123016359 62.54694728851318 L 132.3 62.1 L 133.59885997772216 64.60325736999512 L 140.6 71.3 L 140.8 74.6 L 137.03117570877075 73.05539989471436 L 127.2 77.6 L 116.2 82.3 L 104.7 86.8 L 92.6 91.1 L 80.2 95.3 L 74.675 97.0 L 142.0 97.0 L 148.0 92.0 L 159.0 101.0 L 154.0 105.0 L 154.0 155.0 L 142.0 161.0 L 142.0 155.0 L 62.0 155.0 L 62.0 158.0 L 50.0 164.0 L 50.0 104.05142860412597 L 39.7 106.7 L 25.2 109.9 L 10.2 112.8 L 9.7 111.1 L 24.2 106.3 L 38.2 101.5 L 50.0 97.39185180664063 L 50.0 91.0 L 57.46400003433227 94.73199996948242 L 64.8 92.1 L 77.3 87.3 L 89.3 82.5 L 96.0 79.61206893920898 L 96.0 57.0 L 52.0 57.0 L 52.0 53.0 L 126.0 53.0 L 136.0 43.0 Z M 62.0 137.0 L 62.0 151.0 L 142.0 151.0 L 142.0 137.0 Z M 62.0 119.0 L 62.0 133.0 L 142.0 133.0 L 142.0 119.0 Z M 62.0 101.0 L 62.0 115.0 L 142.0 115.0 L 142.0 101.0 Z M 164.2 89.8 L 161.9 87.1 L 159.5 84.5 L 156.9 81.9 L 154.1 79.5 L 151.2 77.1 L 148.2 74.7 L 145.0 72.3 L 141.5 70.2 L 142.2 68.5 L 146.3 69.5 L 150.3 70.6 L 154.2 72.0 L 157.9 73.6 L 161.5 75.5 L 165.0 77.6 L 168.4 79.8 L 171.6 82.3 L 174.7 85.0 L 177.7 87.8 L 179.0 92.2 L 176.9 96.3 L 172.5 97.5 L 168.4 95.4 L 166.4 92.6 Z M 67.72843599319458 68.46492891311645 L 71.0 72.1 L 71.1 75.7 L 67.52907247543335 74.20670299530029 L 65.8 75.2 L 60.9 77.7 L 55.8 80.1 L 50.5 82.4 L 45.0 84.5 L 39.2 86.4 L 33.3 88.1 L 27.2 89.7 L 20.8 90.9 L 14.2 91.8 L 13.7 90.1 L 19.7 87.3 L 25.5 84.6 L 31.0 82.0 L 36.4 79.4 L 41.5 76.7 L 46.4 74.0 L 51.1 71.2 L 55.6 68.4 L 59.8 65.5 L 62.94790458679199 63.15925045013428 L 62.9 63.1 L 62.95115203857422 63.15683565139771 L 63.7 62.6 Z M 13.3 61.7 L 13.0 57.1 L 15.9 53.6 L 17.9 52.9 L 19.8 51.9 L 21.5 50.5 L 23.2 48.7 L 24.8 46.5 L 26.2 43.8 L 27.5 40.6 L 28.7 37.0 L 29.6 32.8 L 30.1 28.3 L 31.9 28.2 L 32.4 32.9 L 32.74090909957886 35.4 L 94.0 35.4 L 94.0 12.5 L 106.0 14.5 L 109.0 16.5 L 106.0 18.3 L 106.0 35.4 L 170.0 35.4 L 170.61764707565308 34.885294151306155 L 171.1 33.8 L 171.53655319213868 34.119538974761966 L 176.0 30.4 L 187.0 39.4 L 182.0 42.4 L 176.50769233703613 44.688461494445804 L 175.2 45.8 L 173.1 47.6 L 170.7 49.4 L 168.2 51.3 L 165.6 53.2 L 162.7 55.2 L 159.6 57.3 L 156.6 59.6 L 155.3 58.3 L 157.8 55.4 L 159.8 52.3 L 161.7 49.5 L 163.5 46.8 L 165.2 44.3 L 166.7 41.9 L 168.0 39.6 L 168.11428575515748 39.4 L 33.0 39.4 L 33.0 41.6 L 32.7 45.6 L 32.0 49.4 L 30.8 52.9 L 29.1 56.3 L 27.0 59.3 L 24.4 62.0 L 21.3 64.3 L 16.8 64.6 Z " />
</g>
</svg>
