<svg xmlns="http://www.w3.org/2000/svg" xmlns:xlink="http://www.w3.org/1999/xlink" version="1.1" baseProfile="full" viewBox="0 0 200 200" width="200" height="200">
<g fill="black">
<path d="M 67.5 123.2 L 66.6 121.1 L 65.4 118.9 L 64.0 116.6 L 62.4 114.4 L 60.5 112.0 L 58.5 109.7 L 56.2 107.2 L 53.4 105.0 L 54.3 103.5 L 57.6 105.0 L 60.9 106.3 L 63.9 107.8 L 66.8 109.5 L 69.4 111.3 L 71.9 113.3 L 74.2 115.4 L 76.3 117.7 L 78.2 120.1 L 79.8 122.6 L 79.8 127.2 L 77.08484849929809 130.0 L 117.72424240112305 130.0 L 119.3 128.0 L 121.6 124.5 L 123.8 121.3 L 126.0 118.2 L 128.0 115.3 L 129.9 112.4 L 131.8 109.7 L 133.4 107.0 L 135.0 104.5 L 135.89694061279297 102.9623875617981 L 135.8 102.9 L 135.87142858505248 102.8 L 26.5 102.8 L 26.5 98.8 L 94.0 98.8 L 94.0 82.4 L 106.0 84.4 L 109.0 86.4 L 106.0 88.2 L 106.0 98.8 L 151.4 98.8 L 161.4 88.8 L 173.4 98.8 L 173.4 102.8 L 138.29746837615966 102.8 L 145.9 109.4 L 147.1 112.8 L 142.96290884017944 112.30069589614868 L 141.5 113.7 L 139.1 115.9 L 136.5 118.2 L 133.8 120.5 L 130.9 122.9 L 127.9 125.3 L 124.7 127.7 L 121.3 130.0 L 164.7 130.0 L 174.7 120.0 L 186.7 130.0 L 186.7 134.0 L 106.0 134.0 L 106.0 152.8 L 154.5 152.8 L 164.5 142.8 L 176.5 152.8 L 176.5 156.8 L 106.0 156.8 L 106.0 183.6 L 94.0 189.6 L 94.0 156.8 L 23.5 156.8 L 23.5 152.8 L 94.0 152.8 L 94.0 134.0 L 13.3 134.0 L 13.3 130.0 L 71.584375 130.0 L 68.8 127.3 L 68.3 125.3 Z M 106.0 14.6 L 109.0 16.6 L 106.0 18.4 L 106.0 29.9 L 164.0 29.9 L 174.0 19.9 L 186.0 29.9 L 186.0 33.9 L 106.0 33.9 L 106.0 50.2 L 146.0 50.2 L 152.0 45.2 L 163.0 54.2 L 158.0 58.2 L 158.0 81.1 L 146.0 87.1 L 146.0 79.1 L 54.0 79.1 L 54.0 82.1 L 42.0 88.1 L 42.0 44.2 L 54.0 50.2 L 94.0 50.2 L 94.0 33.9 L 14.0 33.9 L 14.0 29.9 L 94.0 29.9 L 94.0 12.6 Z M 54.0 75.1 L 146.0 75.1 L 146.0 54.2 L 54.0 54.2 Z " />
</g>
</svg>
