<svg xmlns="http://www.w3.org/2000/svg" xmlns:xlink="http://www.w3.org/1999/xlink" version="1.1" baseProfile="full" viewBox="0 0 200 200" width="200" height="200">
<g fill="black">
<path d="M 42.0 24.0 L 161.0 24.0 L 171.0 14.0 L 183.0 24.0 L 183.0 28.0 L 42.0 28.0 L 42.0 58.0 L 145.0 58.0 L 155.0 48.0 L 167.0 58.0 L 167.0 62.0 L 42.0 62.0 L 42.0 88.0 L 156.0 88.0 L 166.0 78.0 L 178.0 88.0 L 178.0 92.0 L 102.77200002670288 92.0 L 108.1 103.1 L 114.3 114.7 L 121.0 125.4 L 127.49063158035278 134.358899974823 L 128.5 133.4 L 132.4 129.8 L 136.4 126.4 L 140.3 123.1 L 144.1 119.9 L 147.8 116.8 L 151.4 113.7 L 158.2 107.7 L 160.7520998954773 105.4572455406189 L 160.7 105.4 L 161.5 104.8 L 168.8 114.3 L 169.1 117.9 L 165.52792663574218 116.51086034774781 L 165.1 116.8 L 161.3 119.3 L 157.3 121.8 L 153.2 124.3 L 144.6 129.3 L 140.1 131.8 L 135.4 134.2 L 130.5 136.5 L 129.57131395339965 136.90060968399047 L 135.8 144.1 L 144.0 152.2 L 152.8 159.4 L 162.1 165.7 L 172.0 171.2 L 182.5 175.9 L 188.8 178.6 L 177.4 188.0 L 166.1 182.2 L 155.6 175.6 L 145.9 168.0 L 136.9 159.5 L 128.7 150.2 L 121.4 140.1 L 114.8 129.1 L 109.0 117.3 L 104.2 104.7 L 100.62518520355225 92.0 L 76.0 92.0 L 76.0 165.8 L 80.0 164.6 L 94.4 160.4 L 101.6 158.2 L 109.1 156.1 L 116.6 154.1 L 117.3 155.8 L 110.5 159.7 L 103.6 163.2 L 96.7 166.5 L 89.8 169.7 L 76.0 175.5 L 62.2 180.7 L 55.4 183.1 L 52.484089851379395 184.08626375198364 L 51.3 187.8 L 48.6 185.4 L 43.3 174.5 L 45.3 173.9 L 52.1 172.2 L 59.0 170.5 L 64.0 169.14285717010497 L 64.0 92.0 L 42.0 92.0 L 42.0 94.0 L 41.4 105.3 L 40.4 116.3 L 38.9 126.7 L 36.8 136.6 L 34.3 146.0 L 31.3 154.9 L 27.7 163.2 L 23.6 171.0 L 19.0 178.1 L 13.7 184.5 L 12.2 183.4 L 15.7 176.2 L 18.8 168.6 L 21.6 160.8 L 24.1 152.5 L 26.1 143.9 L 27.7 134.8 L 28.9 125.3 L 29.7 115.3 L 30.0 104.9 L 30.0 18.0 Z " />
</g>
</svg>
