<svg xmlns="http://www.w3.org/2000/svg" xmlns:xlink="http://www.w3.org/1999/xlink" version="1.1" baseProfile="full" viewBox="0 0 200 200" width="200" height="200">
<g fill="black">
<path d="M 130.7 183.7 L 112.3 182.6 L 97.2 180.8 L 85.0 178.1 L 75.1 174.6 L 67.2 170.3 L 61.1 165.3 L 56.4 159.6 L 54.27821521759033 155.8868766784668 L 52.0 158.1 L 48.4 161.5 L 44.9 164.6 L 41.3 167.7 L 37.7 170.6 L 26.9 178.7 L 23.323113918304443 181.18394861221313 L 23.1 185.2 L 19.8 183.6 L 12.1 174.3 L 13.8 173.3 L 17.6 171.4 L 21.4 169.6 L 29.2 165.6 L 33.2 163.6 L 37.2 161.5 L 44.0 158.1 L 44.0 109.0 L 14.0 109.0 L 14.0 105.0 L 44.0 105.0 L 50.0 100.0 L 61.0 109.0 L 56.0 113.0 L 56.0 153.70384616851806 L 59.5 156.8 L 64.9 160.7 L 70.8 164.1 L 78.0 166.8 L 87.1 169.0 L 98.6 170.6 L 113.0 171.6 L 130.9 171.9 L 152.6 171.5 L 178.7 170.4 L 190.0 169.9 L 179.2 183.5 L 152.9 184.0 Z M 173.0 105.0 L 173.0 109.0 L 127.0 109.0 L 127.0 130.0 L 156.0 130.0 L 166.0 120.0 L 178.0 130.0 L 178.0 134.0 L 127.0 134.0 L 127.0 164.0 L 115.0 170.0 L 115.0 134.0 L 69.0 134.0 L 69.0 130.0 L 115.0 130.0 L 115.0 109.0 L 75.0 109.0 L 75.0 105.0 L 151.0 105.0 L 161.0 95.0 Z M 65.0 69.0 L 115.0 69.0 L 115.0 45.0 L 71.0 45.0 L 71.0 41.0 L 115.0 41.0 L 115.0 15.0 L 127.0 17.0 L 130.0 19.0 L 127.0 20.8 L 127.0 41.0 L 153.0 41.0 L 163.0 31.0 L 175.0 41.0 L 175.0 45.0 L 127.0 45.0 L 127.0 69.0 L 164.0 69.0 L 174.0 59.0 L 186.0 69.0 L 186.0 73.0 L 147.94347829818724 73.0 L 157.7 79.8 L 159.3 83.0 L 155.1367262840271 83.07056398391724 L 153.6 84.9 L 151.4 87.5 L 149.1 90.0 L 146.7 92.5 L 144.1 95.0 L 141.4 97.4 L 138.6 99.8 L 135.5 102.1 L 132.6 104.6 L 131.3 103.3 L 133.4 100.2 L 135.3 97.0 L 137.1 93.8 L 140.5 87.8 L 142.0 84.9 L 143.5 82.1 L 144.9 79.3 L 146.1 76.5 L 146.81214952468872 74.75199661254882 L 146.7 74.7 L 147.1 74.04545450210571 L 147.2 73.8 L 147.23705883026122 73.82117643356324 L 147.7388889312744 73.0 L 65.0 73.0 Z M 97.8 94.0 L 97.3 91.9 L 96.6 89.7 L 95.8 87.6 L 94.7 85.5 L 93.5 83.3 L 92.1 81.2 L 90.4 79.0 L 88.3 77.2 L 89.3 75.7 L 91.8 77.0 L 94.6 78.2 L 97.1 79.6 L 99.5 81.2 L 101.7 83.1 L 103.7 85.2 L 105.6 87.5 L 107.3 90.0 L 108.8 92.7 L 110.0 95.6 L 109.3 100.1 L 105.7 102.9 L 101.2 102.1 L 98.4 98.5 L 98.2 96.2 Z M 38.3 77.2 L 36.1 74.7 L 33.7 72.2 L 31.2 69.7 L 28.5 67.3 L 25.7 65.0 L 22.8 62.6 L 19.8 60.3 L 16.5 58.2 L 17.2 56.5 L 21.1 57.6 L 24.9 58.6 L 28.6 60.0 L 32.2 61.5 L 35.7 63.3 L 39.1 65.2 L 42.4 67.3 L 45.5 69.6 L 48.6 72.1 L 51.5 74.7 L 52.9 79.1 L 50.9 83.2 L 46.6 84.6 L 42.5 82.6 L 40.5 79.9 Z M 47.9 41.9 L 46.0 39.3 L 43.9 36.8 L 41.6 34.3 L 39.1 31.8 L 36.5 29.4 L 33.7 26.9 L 30.7 24.4 L 27.5 22.2 L 28.2 20.6 L 32.1 21.8 L 35.9 23.1 L 39.5 24.6 L 43.0 26.2 L 46.4 28.1 L 49.6 30.2 L 52.7 32.4 L 55.6 34.7 L 58.3 37.3 L 61.0 40.0 L 62.0 44.4 L 59.8 48.4 L 55.3 49.4 L 51.4 47.2 L 49.7 44.5 Z " />
</g>
</svg>
