<svg xmlns="http://www.w3.org/2000/svg" xmlns:xlink="http://www.w3.org/1999/xlink" version="1.1" baseProfile="full" viewBox="0 0 200 200" width="200" height="200">
<g fill="black">
<path d="M 108.2 182.0 L 86.2 178.0 L 70.8 172.9 L 60.7 167.4 L 54.4 162.8 L 51.1 160.3 L 48.6 159.7 L 43.0 162.1 L 36.031067943573 166.98543691635132 L 35.8 167.2 L 33.0 170.0 L 30.2 172.9 L 27.4 175.9 L 24.7 179.0 L 24.6636474609375 179.04443082809448 L 25.6 182.9 L 22.0 182.3 L 11.9 175.6 L 13.3 174.1 L 16.7 171.1 L 20.2 168.2 L 23.8 165.5 L 27.3 163.1 L 31.0 160.8 L 34.6 158.8 L 38.3 157.0 L 42.0 155.4 L 44.0 154.76842107772828 L 44.0 91.0 L 14.0 91.0 L 14.0 87.0 L 44.0 87.0 L 50.0 82.0 L 61.0 91.0 L 56.0 95.0 L 56.0 154.5586206436157 L 59.0 155.8 L 65.4 159.3 L 74.7 163.4 L 88.7 167.3 L 109.4 170.2 L 138.5 171.2 L 177.5 169.4 L 188.4 168.6 L 178.4 182.5 L 138.4 183.7 Z M 160.2 77.3 L 161.5 80.7 L 157.2650794029236 80.33492059707642 L 156.3 81.3 L 154.1 83.6 L 151.8 86.1 L 149.2 88.8 L 146.5 91.6 L 143.6 94.6 L 140.5 97.7 L 137.1 101.0 L 136.12857141494752 102.0 L 152.0 102.0 L 162.0 92.0 L 174.0 102.0 L 174.0 106.0 L 132.0 106.0 L 132.0 130.0 L 166.0 130.0 L 176.0 120.0 L 188.0 130.0 L 188.0 134.0 L 132.0 134.0 L 132.0 163.0 L 120.0 169.0 L 120.0 134.0 L 64.0 134.0 L 64.0 130.0 L 120.0 130.0 L 120.0 106.0 L 77.0 106.0 L 77.0 102.0 L 133.01395349502565 102.0 L 134.7 99.1 L 136.8 95.0 L 138.9 91.1 L 141.0 87.5 L 142.9 84.0 L 144.7 80.9 L 146.3 77.9 L 147.9 75.1 L 149.3 72.6 L 150.05315980911254 71.09368028640748 L 149.9 71.0 L 150.45 70.3 L 150.5 70.2 L 150.5181393623352 70.21327724456788 L 151.0 69.6 Z M 102.8 90.5 L 102.1 88.5 L 101.1 86.4 L 99.9 84.1 L 98.3 81.8 L 96.5 79.3 L 94.4 76.6 L 92.1 73.8 L 89.2 71.3 L 90.3 69.8 L 93.7 71.8 L 97.0 73.5 L 100.1 75.3 L 102.9 77.2 L 105.5 79.1 L 107.8 81.1 L 110.0 83.3 L 111.8 85.5 L 113.4 87.8 L 114.8 90.3 L 114.3 94.9 L 110.8 97.8 L 106.3 97.3 L 103.3 93.8 L 103.2 92.3 Z M 70.0 63.0 L 120.0 63.0 L 120.0 41.0 L 77.0 41.0 L 77.0 37.0 L 120.0 37.0 L 120.0 15.0 L 132.0 17.0 L 135.0 19.0 L 132.0 20.8 L 132.0 37.0 L 152.0 37.0 L 162.0 27.0 L 174.0 37.0 L 174.0 41.0 L 132.0 41.0 L 132.0 63.0 L 163.0 63.0 L 173.0 53.0 L 185.0 63.0 L 185.0 67.0 L 70.0 67.0 Z M 46.0 50.2 L 44.0 47.2 L 41.8 44.2 L 39.3 41.2 L 36.6 38.2 L 33.7 35.2 L 30.5 32.2 L 27.1 29.2 L 23.4 26.2 L 24.3 24.6 L 28.8 26.4 L 33.1 28.2 L 37.2 30.3 L 41.1 32.7 L 44.8 35.2 L 48.2 37.9 L 51.4 40.7 L 54.4 43.8 L 57.1 47.0 L 59.6 50.3 L 60.2 54.9 L 57.5 58.5 L 52.9 59.1 L 49.3 56.4 L 47.7 53.3 Z " />
</g>
</svg>
