<svg xmlns="http://www.w3.org/2000/svg" xmlns:xlink="http://www.w3.org/1999/xlink" version="1.1" baseProfile="full" viewBox="0 0 200 200" width="200" height="200">
<g fill="black">
<path d="M 130.2 183.7 L 112.0 182.5 L 97.0 180.6 L 84.7 177.7 L 74.9 173.9 L 67.0 169.2 L 61.0 163.7 L 56.3 157.3 L 54.15256481170654 153.12443151474 L 52.0 155.4 L 48.6 158.9 L 45.0 162.3 L 37.8 168.7 L 34.3 171.8 L 30.7 174.8 L 27.2 177.7 L 23.444505500793458 180.70439558029176 L 23.5 184.7 L 20.2 183.3 L 11.7 174.6 L 13.4 173.4 L 17.2 171.2 L 28.9 164.3 L 41.2 157.1 L 44.0 155.60232553482055 L 44.0 95.0 L 14.0 95.0 L 14.0 91.0 L 44.0 91.0 L 50.0 86.0 L 61.0 95.0 L 56.0 99.0 L 56.0 151.03207550048828 L 59.6 154.7 L 65.0 159.3 L 70.9 163.1 L 78.1 166.2 L 87.1 168.7 L 98.4 170.4 L 112.7 171.5 L 130.4 171.9 L 151.9 171.5 L 177.7 170.4 L 189.0 169.9 L 178.2 183.5 L 152.1 184.0 Z M 94.0 62.2 L 96.8 64.1 L 99.4 66.1 L 101.8 68.3 L 104.1 70.7 L 106.1 73.2 L 108.0 75.9 L 109.7 78.7 L 111.2 81.6 L 112.5 84.7 L 111.8 89.2 L 109.87142858505248 90.7 L 138.0 90.7 L 138.7 89.2 L 140.9 83.0 L 142.2 79.9 L 143.4 76.9 L 146.0 70.9 L 147.3 67.8 L 148.6 64.8 L 149.5024740219116 62.64794654846192 L 149.4 62.6 L 150.4 60.8 L 160.3 67.7 L 161.9 70.9 L 157.87826652526854 70.96934022903443 L 156.3 73.1 L 147.9 83.5 L 145.7 85.9 L 143.4 88.4 L 141.0 90.7 L 156.2 90.7 L 166.2 80.7 L 178.2 90.7 L 178.2 94.7 L 131.0 94.7 L 131.0 115.0 L 153.51818180084229 115.0 L 161.7 106.0 L 171.7 115.0 L 171.7 119.0 L 131.0 119.0 L 131.0 139.3 L 163.5 139.3 L 173.5 129.3 L 185.5 139.3 L 185.5 143.3 L 131.0 143.3 L 131.0 165.3 L 119.0 171.3 L 119.0 143.3 L 67.3 143.3 L 67.3 139.3 L 119.0 139.3 L 119.0 119.0 L 78.2 119.0 L 78.2 115.0 L 119.0 115.0 L 119.0 94.7 L 73.9 94.7 L 73.9 90.7 L 103.24594593048096 90.7 L 100.9 87.6 L 100.5 85.1 L 100.1 82.5 L 99.4 79.9 L 98.6 77.4 L 97.7 74.8 L 96.5 72.2 L 95.2 69.5 L 93.7 66.9 L 92.1 64.1 L 90.1 61.6 L 91.04285717010498 60.5 L 65.8 60.5 L 65.8 56.5 L 119.0 56.5 L 119.0 36.2 L 74.6 36.2 L 74.6 32.2 L 119.0 32.2 L 119.0 12.5 L 131.0 14.5 L 134.0 16.5 L 131.0 18.3 L 131.0 32.2 L 154.1 32.2 L 164.1 22.2 L 176.1 32.2 L 176.1 36.2 L 131.0 36.2 L 131.0 56.5 L 163.5 56.5 L 173.5 46.5 L 185.5 56.5 L 185.5 60.5 L 91.70500001907348 60.5 Z M 46.0 50.2 L 44.0 47.2 L 41.8 44.2 L 39.3 41.2 L 36.6 38.2 L 33.7 35.2 L 30.5 32.2 L 27.1 29.2 L 23.4 26.2 L 24.3 24.6 L 28.8 26.4 L 33.1 28.2 L 37.2 30.3 L 41.1 32.7 L 44.8 35.2 L 48.2 37.9 L 51.4 40.7 L 54.4 43.8 L 57.1 47.0 L 59.6 50.3 L 60.2 54.9 L 57.5 58.5 L 52.9 59.1 L 49.3 56.4 L 47.7 53.3 Z " />
</g>
</svg>
