<svg xmlns="http://www.w3.org/2000/svg" xmlns:xlink="http://www.w3.org/1999/xlink" version="1.1" baseProfile="full" viewBox="0 0 200 200" width="200" height="200">
<g fill="black">
<path d="M 136.3 153.8 L 134.7 155.7 L 132.9 157.3 L 130.9 158.8 L 128.8 159.9 L 126.5 160.8 L 124.1 161.5 L 121.7 161.8 L 119.2 162.0 L 119.2 156.0 L 107.2 153.0 L 107.2 150.0 L 119.2 150.0 L 120.5 149.9 L 121.7 149.7 L 122.8 149.4 L 123.7 149.1 L 125.3 148.1 L 126.0 147.4 L 126.7 146.6 L 127.4 145.6 L 128.1 144.3 L 129.7 140.5 L 131.0 135.6 L 131.7 130.0 L 131.5 123.7 L 130.3 117.2 L 127.8 110.5 L 123.8 103.8 L 118.0 97.2 L 110.1 90.8 L 100.3928641319275 84.29621896743774 L 100.2 84.5 L 98.7 83.4 L 102.4 76.7 L 106.0 70.3 L 109.5 64.1 L 112.8 58.1 L 115.9 52.2 L 118.8 46.6 L 121.5 41.1 L 123.9 35.7 L 126.1 30.6 L 126.33529415130616 30.0 L 82.4 30.0 L 82.4 183.0 L 70.4 189.0 L 70.4 20.0 L 82.4 26.0 L 127.6 26.0 L 128.0514563560486 25.623786449432373 L 128.1 25.5 L 128.1649582862854 25.529201412200926 L 133.6 21.0 L 144.6 30.0 L 139.6 33.0 L 137.15518674850463 34.018672180175784 L 136.4 35.5 L 133.4 40.6 L 130.3 45.9 L 126.8 51.2 L 123.1 56.7 L 119.2 62.2 L 115.0 67.7 L 110.4 73.3 L 105.5 78.9 L 101.78023347854614 82.83031930923462 L 112.8 86.2 L 122.4 92.0 L 129.9 98.8 L 135.4 106.4 L 139.2 114.3 L 141.4 122.3 L 142.3 130.0 L 142.0 137.3 L 140.8 143.8 L 138.9 149.5 L 137.7 151.7 Z " />
</g>
</svg>
