<svg xmlns="http://www.w3.org/2000/svg" xmlns:xlink="http://www.w3.org/1999/xlink" version="1.1" baseProfile="full" viewBox="0 0 200 200" width="200" height="200">
<g fill="black">
<path d="M 71.4 131.3 L 70.1 133.5 L 68.6 135.5 L 66.7 137.2 L 64.7 138.6 L 62.4 139.7 L 60.0 140.4 L 57.5 140.8 L 55.0 141.0 L 54.94987468719482 134.98496236801148 L 45.0 132.0 L 45.0 129.0 L 54.9 129.0 L 56.2 128.9 L 57.3 128.7 L 58.1 128.5 L 58.8 128.2 L 59.3 127.8 L 59.7 127.4 L 60.2 126.8 L 60.6 126.1 L 61.0 125.1 L 61.3 123.9 L 62.4 119.6 L 62.9 115.2 L 62.9 110.8 L 62.3 106.4 L 61.2 101.7 L 59.6 97.0 L 57.3 92.1 L 54.4 87.1 L 51.0 81.8 L 47.0 76.3 L 47.2 76.1 L 46.2 75.5 L 48.8 69.6 L 51.4 64.0 L 53.9 58.6 L 56.3 53.5 L 58.4 48.5 L 60.4 43.7 L 62.2 39.0 L 63.8 34.5 L 65.1 30.2 L 65.15853662490845 30.0 L 35.0 30.0 L 35.0 183.0 L 23.0 189.0 L 23.0 20.0 L 35.0 26.0 L 66.0 26.0 L 72.0 21.0 L 83.0 30.0 L 78.0 33.0 L 75.93972606658936 33.85844745635986 L 75.8 34.2 L 73.7 38.6 L 71.3 43.2 L 68.8 47.7 L 66.0 52.4 L 62.9 57.1 L 59.6 61.9 L 56.0 66.8 L 52.0 71.6 L 48.68843908309937 75.29662618637084 L 53.8 79.2 L 58.7 83.8 L 62.8 88.5 L 66.3 93.5 L 69.1 98.6 L 71.3 104.0 L 72.8 109.4 L 73.6 115.0 L 73.7 120.8 L 73.0 126.5 L 72.3 129.0 Z M 164.3 175.9 L 162.6 172.5 L 160.7 169.1 L 159.99940071105956 167.96569633483887 L 155.2 169.4 L 146.6 171.6 L 138.0 173.5 L 129.5 175.3 L 121.1 176.9 L 112.7 178.3 L 104.5 179.7 L 96.3 180.8 L 88.2 181.9 L 84.33963689804077 182.38865356445314 L 82.5 185.7 L 80.3 182.9 L 77.4 171.0 L 79.4 170.9 L 87.3 170.6 L 95.3 170.2 L 98.69993944168091 169.99012718200683 L 100.6 166.0 L 102.5 161.9 L 106.3 154.1 L 108.1 150.2 L 109.9 146.4 L 112.66756753921509 140.0 L 69.9 140.0 L 69.9 136.0 L 163.0 136.0 L 173.0 126.0 L 185.0 136.0 L 185.0 140.0 L 125.64615383148194 140.0 L 125.3 140.6 L 123.1 144.2 L 120.8 147.7 L 118.4 151.3 L 115.9 154.8 L 113.3 158.3 L 110.6 161.8 L 107.7 165.3 L 104.6 168.8 L 103.75226726531983 169.67422437667847 L 111.6 169.1 L 120.0 168.5 L 128.4 167.8 L 137.0 167.0 L 145.7 166.3 L 154.6 165.6 L 158.39285717010497 165.38928575515746 L 156.4 162.4 L 154.1 159.2 L 151.6 155.9 L 149.0 152.5 L 146.2 149.3 L 147.3 147.9 L 151.1 150.1 L 154.8 152.4 L 158.4 154.9 L 161.7 157.7 L 164.9 160.6 L 167.8 163.7 L 170.7 167.0 L 173.3 170.4 L 175.8 173.9 L 178.1 177.6 L 178.3 182.2 L 175.3 185.6 L 170.8 185.9 L 167.3 182.9 L 165.9 179.4 Z M 164.5 88.0 L 159.5 91.0 L 156.71158428192138 92.16183986663819 L 146.58666667938232 115.0 L 150.7 115.0 L 160.7 105.0 L 172.7 115.0 L 172.7 119.0 L 82.2 119.0 L 82.2 115.0 L 133.4290322303772 115.0 L 145.9709677696228 88.0 L 87.0 88.0 L 87.0 84.0 L 147.5 84.0 L 153.5 79.0 Z M 178.3 74.0 L 171.5 70.5 L 164.9 66.6 L 158.6 62.2 L 152.6 57.4 L 146.8 52.2 L 141.3 46.5 L 136.2 40.4 L 131.4 33.9 L 127.0 26.8 L 126.05148611068725 24.975934791564942 L 121.5 32.1 L 116.4 39.1 L 110.9 45.8 L 105.0 52.2 L 98.7 58.4 L 92.0 64.2 L 84.8 69.8 L 77.2 75.0 L 69.1 79.7 L 68.0 78.2 L 74.9 71.9 L 81.3 65.7 L 87.5 59.4 L 93.3 53.1 L 98.6 46.6 L 103.6 40.0 L 108.2 33.3 L 112.4 26.4 L 116.2 19.4 L 119.16335134506225 13.124667739868164 L 119.1 13.1 L 120.1 11.1 L 130.4 17.5 L 132.2 20.6 L 128.40873193740845 20.92683343887329 L 127.91140995025634 21.782689762115478 L 130.4 24.4 L 135.9 30.1 L 141.5 35.5 L 147.2 40.5 L 152.9 45.1 L 158.7 49.3 L 164.7 53.1 L 170.8 56.4 L 177.0 59.3 L 189.8 64.5 Z M 152.8 63.0 L 152.8 67.0 L 99.4 67.0 L 99.4 63.0 L 130.8 63.0 L 140.8 53.0 Z " />
</g>
</svg>
