<svg xmlns="http://www.w3.org/2000/svg" xmlns:xlink="http://www.w3.org/1999/xlink" version="1.1" baseProfile="full" viewBox="0 0 200 200" width="200" height="200">
<g fill="black">
<path d="M 96.0 127.0 L 96.0 57.264179134368895 L 92.1 60.0 L 84.9 64.3 L 77.4 68.3 L 69.4 71.7 L 68.5 70.2 L 75.4 65.0 L 81.9 59.9 L 88.1 54.7 L 94.0 49.4 L 99.4 44.0 L 104.5 38.5 L 109.3 32.8 L 113.7 26.9 L 117.7 20.9 L 121.3 14.7 L 121.8 13.8 L 131.6 20.9 L 133.1 24.2 L 129.228125 24.2 L 128.67706727981567 24.966689014434813 L 129.4 25.5 L 135.3 29.7 L 141.0 33.8 L 146.8 37.5 L 152.5 41.0 L 158.2 44.2 L 163.9 47.0 L 169.7 49.6 L 175.4 51.8 L 181.2 53.8 L 188.2 56.3 L 176.7 66.1 L 170.5 63.3 L 164.5 60.2 L 158.6 56.7 L 152.9 52.9 L 147.2 48.7 L 141.8 44.2 L 136.5 39.4 L 131.4 34.1 L 126.5 28.5 L 126.28534660339355 28.204255294799804 L 122.1 33.5 L 116.9 39.4 L 111.2 45.0 L 105.2 50.3 L 98.8 55.3 L 97.05217390060425 56.52608699798584 L 108.0 62.0 L 140.0 62.0 L 150.0 52.0 L 162.0 62.0 L 162.0 66.0 L 108.0 66.0 L 108.0 85.0 L 138.8181818008423 85.0 L 147.0 76.0 L 157.0 85.0 L 157.0 89.0 L 108.0 89.0 L 108.0 108.0 L 138.8181818008423 108.0 L 147.0 99.0 L 157.0 108.0 L 157.0 112.0 L 108.0 112.0 L 108.0 127.0 L 167.0 127.0 L 177.0 117.0 L 189.0 127.0 L 189.0 131.0 L 116.48793106079101 131.0 L 122.1 134.1 L 124.1 137.1 L 120.34535808563233 137.69283819198608 L 120.0 138.4 L 117.6 142.7 L 115.1 147.0 L 112.4 151.3 L 109.5 155.6 L 106.4 159.8 L 103.2 164.1 L 99.6 168.3 L 98.69376096725463 169.3016326904297 L 105.0 168.8 L 113.7 168.1 L 122.4 167.5 L 131.0 166.8 L 139.6 166.2 L 148.0 165.6 L 156.4 165.3 L 156.53125 165.296875 L 155.8 164.2 L 153.3 160.7 L 150.6 157.1 L 147.6 153.2 L 144.1 149.3 L 145.3 147.9 L 149.7 150.9 L 153.8 153.7 L 157.6 156.6 L 161.1 159.5 L 164.2 162.4 L 167.1 165.3 L 169.6 168.2 L 171.9 171.1 L 173.8 174.0 L 175.5 177.0 L 175.3 181.6 L 172.0 184.8 L 167.4 184.5 L 164.3 181.2 L 163.7 178.9 L 162.7 176.3 L 161.5 173.5 L 159.9 170.6 L 158.6454421043396 168.5530898094177 L 157.0 169.0 L 148.8 171.0 L 140.4 172.7 L 132.0 174.3 L 123.5 175.9 L 114.9 177.4 L 106.2 178.8 L 97.4 180.2 L 83.64868049621582 182.2086196899414 L 81.9 185.6 L 79.6 182.8 L 76.3 171.1 L 78.3 170.9 L 87.3 170.2 L 92.97309942245484 169.75380115509034 L 97.6 160.5 L 100.0 155.9 L 102.2 151.3 L 104.3 146.8 L 106.2 142.4 L 109.6 133.8 L 110.53333330154419 131.0 L 71.51739130020141 131.0 L 71.4 131.3 L 70.1 133.5 L 68.6 135.5 L 66.7 137.2 L 64.7 138.6 L 62.4 139.7 L 60.0 140.4 L 57.5 140.8 L 55.0 141.0 L 54.94987468719482 134.98496236801148 L 45.0 132.0 L 45.0 129.0 L 54.9 129.0 L 56.2 128.9 L 57.3 128.7 L 58.1 128.5 L 58.8 128.2 L 59.3 127.8 L 59.7 127.4 L 60.2 126.8 L 60.6 126.1 L 61.0 125.1 L 61.3 123.9 L 62.4 119.6 L 62.9 115.2 L 62.9 110.8 L 62.3 106.4 L 61.2 101.7 L 59.6 97.0 L 57.3 92.1 L 54.4 87.1 L 51.0 81.8 L 47.0 76.3 L 47.2 76.1 L 46.2 75.5 L 48.8 69.6 L 51.4 64.0 L 53.9 58.6 L 56.3 53.5 L 58.4 48.5 L 60.4 43.7 L 62.2 39.0 L 63.8 34.5 L 65.1 30.2 L 65.15853662490845 30.0 L 35.0 30.0 L 35.0 183.0 L 23.0 189.0 L 23.0 20.0 L 35.0 26.0 L 66.0 26.0 L 72.0 21.0 L 83.0 30.0 L 78.0 33.0 L 75.93972606658936 33.85844745635986 L 75.8 34.2 L 73.7 38.6 L 71.3 43.2 L 68.8 47.7 L 66.0 52.4 L 62.9 57.1 L 59.6 61.9 L 56.0 66.8 L 52.0 71.6 L 48.68843908309937 75.29662618637084 L 53.8 79.2 L 58.7 83.8 L 62.8 88.5 L 66.3 93.5 L 69.1 98.6 L 71.3 104.0 L 72.8 109.4 L 73.6 115.0 L 73.7 120.8 L 73.0 126.5 L 72.86000003814698 127.0 Z " />
</g>
</svg>
