<svg xmlns="http://www.w3.org/2000/svg" xmlns:xlink="http://www.w3.org/1999/xlink" version="1.1" baseProfile="full" viewBox="0 0 200 200" width="200" height="200">
<g fill="black">
<path d="M 29.6 177.0 L 43.6 177.0 L 44.8 176.9 L 45.7 176.7 L 46.6 176.4 L 47.0 176.0 L 47.2 175.7 L 47.4 175.1 L 47.5 174.2 L 47.6 173.0 L 47.6 124.0 L 12.6 124.0 L 12.6 120.0 L 72.5 120.0 L 82.5 110.0 L 94.5 120.0 L 94.5 124.0 L 59.6 124.0 L 59.6 173.0 L 59.4 175.5 L 59.0 178.0 L 58.2 180.4 L 57.0 182.7 L 55.3 184.7 L 53.3 186.3 L 51.0 187.6 L 48.6 188.4 L 46.1 188.8 L 43.6 189.0 L 43.6 183.0 L 29.6 180.0 Z M 109.7 176.0 L 125.7 176.0 L 126.9 175.9 L 127.8 175.7 L 128.7 175.4 L 129.1 175.0 L 129.3 174.7 L 129.4 174.1 L 129.6 173.2 L 129.7 172.0 L 129.7 143.28823528289794 L 127.7 145.7 L 124.2 149.5 L 120.7 153.2 L 117.1 156.6 L 113.5 159.9 L 109.9 163.1 L 106.3 166.1 L 102.7 169.0 L 99.2 171.8 L 99.01276597976684 171.940425491333 L 98.9 176.0 L 95.6 174.5 L 87.5 165.4 L 89.2 164.3 L 92.9 162.3 L 96.7 160.2 L 100.6 158.0 L 104.5 155.6 L 108.5 153.2 L 112.6 150.7 L 116.7 148.1 L 121.0 145.5 L 125.4 142.9 L 129.7 140.41555557250976 L 129.7 100.0 L 101.1 100.0 L 101.1 96.0 L 129.7 96.0 L 129.7 71.0 L 95.9 71.0 L 95.9 67.0 L 129.7 67.0 L 129.7 42.0 L 101.1 42.0 L 101.1 38.0 L 129.7 38.0 L 129.7 14.0 L 141.7 16.0 L 144.7 18.0 L 141.7 19.8 L 141.7 38.0 L 159.9 38.0 L 165.9 33.0 L 176.9 42.0 L 171.9 46.0 L 171.9 67.0 L 177.1 67.0 L 181.6 61.0 L 187.6 67.0 L 187.6 71.0 L 171.9 71.0 L 171.9 100.0 L 159.9 106.0 L 159.9 100.0 L 141.7 100.0 L 141.7 121.15789470672607 L 145.1 127.6 L 148.9 134.2 L 153.0 140.3 L 153.07674417495727 140.39767446517945 L 154.5 138.5 L 156.5 135.4 L 158.5 132.5 L 160.4 129.5 L 162.4 126.6 L 166.2 120.6 L 168.1 117.5 L 171.2010643005371 112.15927810668946 L 171.1 112.1 L 172.2 110.6 L 181.5 118.2 L 182.8 121.6 L 178.7923610687256 121.32361106872558 L 176.4 123.9 L 173.8 126.6 L 171.1 129.2 L 168.3 131.7 L 165.5 134.1 L 162.6 136.4 L 159.7 138.6 L 156.6 140.6 L 154.3921875 142.071875 L 157.4 145.9 L 162.1 151.0 L 167.1 155.5 L 172.3 159.5 L 177.9 163.1 L 183.7 166.1 L 188.8 168.8 L 177.6 177.8 L 171.0 173.5 L 165.0 168.8 L 159.5 163.5 L 154.4 157.7 L 149.9 151.5 L 146.0 144.7 L 142.5 137.5 L 141.7 135.40344829559325 L 141.7 172.0 L 141.5 174.5 L 141.1 177.0 L 140.3 179.4 L 139.1 181.7 L 137.4 183.7 L 135.4 185.3 L 133.1 186.6 L 130.7 187.4 L 128.2 187.8 L 125.7 188.0 L 125.7 182.0 L 109.7 179.0 Z M 38.7 138.2 L 41.2 140.8 L 37.46183843612671 142.09136486053467 L 37.3 142.6 L 35.6 147.0 L 33.6 151.3 L 31.4 155.5 L 28.9 159.6 L 26.2 163.6 L 23.2 167.6 L 19.9 171.4 L 16.3 175.0 L 12.3 178.5 L 11.0 177.4 L 13.4 172.9 L 15.7 168.4 L 17.9 164.1 L 19.8 159.9 L 21.6 155.8 L 23.1 151.7 L 24.4 147.6 L 25.5 143.6 L 26.4 139.6 L 26.849011516571046 136.60658979415894 L 26.8 136.6 L 26.96666669845581 135.8222222328186 L 27.0 135.6 L 27.01363639831543 135.60303030014038 L 27.4 133.8 Z M 76.2 152.0 L 75.2 149.8 L 74.2 147.5 L 71.6 142.7 L 70.1 140.2 L 68.5 137.6 L 66.4 135.3 L 67.6 133.9 L 70.2 135.8 L 72.9 137.4 L 75.4 139.1 L 77.8 141.0 L 80.1 142.9 L 82.2 144.9 L 84.1 147.0 L 86.0 149.2 L 87.6 151.5 L 89.2 153.9 L 89.1 158.4 L 85.9 161.7 L 81.4 161.7 L 78.1 158.5 L 77.6 156.4 Z M 110.4 128.7 L 109.4 126.4 L 108.2 124.1 L 106.7 121.8 L 105.0 119.5 L 103.1 117.1 L 100.8 114.7 L 98.4 112.3 L 95.5 110.2 L 96.3 108.6 L 99.7 110.0 L 103.2 111.3 L 106.4 112.8 L 109.4 114.5 L 112.2 116.4 L 114.8 118.6 L 117.1 120.9 L 119.3 123.4 L 121.2 126.1 L 122.9 129.0 L 122.7 133.6 L 119.4 136.8 L 114.9 136.6 L 111.7 133.3 L 111.2 131.0 Z M 83.8 96.0 L 83.8 100.0 L 23.4 100.0 L 23.4 96.0 L 61.8 96.0 L 71.8 86.0 Z M 141.7 71.0 L 141.7 96.0 L 159.9 96.0 L 159.9 71.0 Z M 74.7 68.0 L 73.2 66.0 L 71.5 63.9 L 69.6 61.8 L 67.5 59.7 L 65.2 57.5 L 62.7 55.4 L 60.1 53.1 L 59.6 52.79354839324951 L 59.6 82.0 L 47.6 88.0 L 47.6 51.3222222328186 L 47.2 52.0 L 43.5 57.6 L 39.5 62.8 L 35.4 67.6 L 31.1 71.9 L 26.7 75.7 L 22.0 79.0 L 17.1 81.7 L 12.1 83.7 L 11.2 82.2 L 15.0 78.6 L 18.6 74.9 L 22.1 71.0 L 25.5 66.8 L 28.8 62.3 L 32.0 57.5 L 35.0 52.3 L 37.9 46.7 L 40.6 40.8 L 41.310526275634764 39.0 L 12.6 39.0 L 12.6 35.0 L 47.6 35.0 L 47.6 13.0 L 59.6 15.0 L 62.6 17.0 L 59.6 18.8 L 59.6 35.0 L 72.5 35.0 L 82.5 25.0 L 94.5 35.0 L 94.5 39.0 L 59.6 39.0 L 59.6 50.135294151306155 L 61.2 50.7 L 64.7 51.7 L 68.0 52.9 L 71.2 54.2 L 74.1 55.6 L 77.0 57.2 L 79.7 59.0 L 82.2 60.8 L 84.6 62.8 L 86.8 64.9 L 87.9 69.4 L 85.6 73.3 L 81.2 74.4 L 77.2 72.2 L 76.1 70.1 Z M 141.7 42.0 L 141.7 67.0 L 159.9 67.0 L 159.9 42.0 Z " />
</g>
</svg>
