<svg xmlns="http://www.w3.org/2000/svg" xmlns:xlink="http://www.w3.org/1999/xlink" version="1.1" baseProfile="full" viewBox="0 0 200 200" width="200" height="200">
<g fill="black">
<path d="M 53.0 183.0 L 41.0 189.0 L 41.0 121.43999996185303 L 37.7 125.4 L 32.5 131.2 L 27.2 136.9 L 21.5 142.3 L 15.6 147.6 L 14.3 146.3 L 18.6 139.9 L 27.4 127.1 L 31.7 120.8 L 35.9 114.4 L 40.0 108.0 L 44.0 101.5 L 47.9 95.0 L 54.840400505065915 82.61982612609863 L 54.8 82.6 L 55.8 80.9 L 65.6 87.9 L 67.2 91.1 L 63.48307695388794 91.1 L 61.3 94.4 L 56.9 100.8 L 53.10317459106445 106.0 L 104.30454549789428 106.0 L 105.0 105.1 L 106.4 102.6 L 107.9 100.1 L 109.3 97.7 L 110.8 95.4 L 112.2 93.1 L 113.6 90.7 L 115.0 88.5 L 116.3 86.2 L 117.15067653656006 84.80246000289917 L 117.0 84.7 L 118.1 83.4 L 127.0 91.5 L 128.0 95.0 L 123.74996128082276 94.34051122665406 L 122.8 95.2 L 120.7 96.9 L 118.5 98.7 L 116.3 100.4 L 114.0 102.1 L 111.7 103.7 L 109.3 105.3 L 108.13333330154418 106.0 L 155.8181818008423 106.0 L 164.0 97.0 L 174.0 106.0 L 174.0 110.0 L 111.0 110.0 L 111.0 128.0 L 149.8181818008423 128.0 L 158.0 119.0 L 168.0 128.0 L 168.0 132.0 L 111.0 132.0 L 111.0 150.0 L 149.8181818008423 150.0 L 158.0 141.0 L 168.0 150.0 L 168.0 154.0 L 111.0 154.0 L 111.0 172.0 L 162.0 172.0 L 172.0 162.0 L 184.0 172.0 L 184.0 176.0 L 53.0 176.0 Z M 53.0 154.0 L 53.0 172.0 L 99.0 172.0 L 99.0 154.0 Z M 53.0 132.0 L 53.0 150.0 L 99.0 150.0 L 99.0 132.0 Z M 53.0 110.0 L 53.0 128.0 L 99.0 128.0 L 99.0 110.0 Z M 44.8 54.1 L 79.6 54.1 L 85.6 49.1 L 96.6 58.1 L 91.6 62.1 L 91.6 82.3 L 79.6 88.3 L 79.6 80.3 L 44.8 80.3 L 44.8 83.3 L 32.8 89.3 L 32.8 48.1 Z M 120.4 54.1 L 155.2 54.1 L 161.2 49.1 L 172.2 58.1 L 167.2 62.1 L 167.2 82.3 L 155.2 88.3 L 155.2 80.3 L 120.4 80.3 L 108.4 86.3 L 108.4 48.1 Z M 120.4 58.1 L 120.4 76.3 L 155.2 76.3 L 155.2 58.1 Z M 44.8 58.1 L 44.8 76.3 L 79.6 76.3 L 79.6 58.1 Z M 134.0 14.1 L 137.0 16.1 L 134.0 17.9 L 134.0 29.3 L 165.0 29.3 L 175.0 19.3 L 187.0 29.3 L 187.0 33.3 L 134.0 33.3 L 134.0 45.8 L 122.0 51.8 L 122.0 33.3 L 78.0 33.3 L 78.0 45.8 L 66.0 51.8 L 66.0 33.3 L 13.0 33.3 L 13.0 29.3 L 66.0 29.3 L 66.0 12.1 L 78.0 14.1 L 81.0 16.1 L 78.0 17.9 L 78.0 29.3 L 122.0 29.3 L 122.0 12.1 Z " />
</g>
</svg>
