<svg xmlns="http://www.w3.org/2000/svg" xmlns:xlink="http://www.w3.org/1999/xlink" version="1.1" baseProfile="full" viewBox="0 0 200 200" width="200" height="200">
<g fill="black">
<path d="M 119.3 185.4 L 117.1 186.0 L 115.0 186.5 L 112.8 186.9 L 110.6 187.2 L 106.2 187.6 L 104.0 187.6 L 104.0 181.6 L 84.0 178.6 L 84.0 175.6 L 105.7 175.6 L 107.4 175.5 L 110.8 175.1 L 112.5 174.7 L 114.2 174.4 L 115.8 173.9 L 117.5 173.4 L 119.1 172.8 L 120.7 172.1 L 123.8 170.6 L 126.5 168.8 L 129.0 166.7 L 131.3 164.4 L 133.3 161.8 L 135.1 158.8 L 136.7 155.5 L 138.0 151.9 L 139.2 147.8 L 139.4545454978943 146.4 L 65.8713080406189 146.4 L 63.7 149.5 L 50.5 147.5 L 64.20829496383666 127.8 L 14.0 127.8 L 14.0 123.8 L 165.8181818008423 123.8 L 174.0 114.8 L 184.0 123.8 L 184.0 127.8 L 78.89915609359741 127.8 L 68.67299575805664 142.4 L 140.0 142.4 L 146.0 137.4 L 157.0 146.4 L 152.0 149.4 L 150.9590361595154 149.83373489379883 L 150.8 150.6 L 149.5 155.5 L 147.7 160.2 L 145.6 164.6 L 143.2 168.6 L 140.3 172.3 L 137.1 175.6 L 133.6 178.5 L 129.7 181.0 L 125.5 183.1 L 123.5 184.0 Z M 159.0 104.2 L 159.0 108.2 L 37.0 108.2 L 37.0 104.2 L 140.8181818008423 104.2 L 149.0 95.2 Z M 13.5 73.9 L 12.6 69.4 L 15.0 65.6 L 16.9 64.5 L 18.8 63.0 L 20.5 61.1 L 22.2 58.7 L 23.8 55.9 L 25.2 52.5 L 26.4 48.7 L 27.5 44.3 L 28.5 39.5 L 29.1 34.3 L 30.9 34.2 L 31.6 39.6 L 31.903921604156494 42.7 L 94.0 42.7 L 94.0 26.7 L 34.0 26.7 L 34.0 22.7 L 148.0 22.7 L 158.0 12.7 L 170.0 22.7 L 170.0 26.7 L 106.0 26.7 L 106.0 42.7 L 173.0 42.7 L 173.45306119918823 42.32244901657104 L 173.6 41.9 L 173.8226589202881 42.01445083618164 L 179.0 37.7 L 190.0 46.7 L 185.0 49.7 L 181.25628738403321 51.259880256652835 L 179.2 53.8 L 175.6 57.8 L 173.7 59.7 L 171.7 61.6 L 169.7 63.4 L 167.5 65.1 L 165.7 67.0 L 164.2 66.0 L 165.6 63.7 L 166.5 61.1 L 167.4 58.7 L 168.4 56.2 L 171.9625 46.7 L 106.0 46.7 L 106.0 91.1 L 94.0 97.1 L 94.0 46.7 L 32.14166669845581 46.7 L 32.2 49.5 L 32.0 54.0 L 31.4 58.3 L 30.3 62.3 L 28.9 66.0 L 27.0 69.5 L 24.7 72.6 L 21.8 75.4 L 17.4 76.3 Z M 84.0 82.6 L 84.0 86.6 L 32.0 86.6 L 32.0 82.6 L 65.81818180084228 82.6 L 74.0 73.6 Z M 168.0 82.6 L 168.0 86.6 L 116.0 86.6 L 116.0 82.6 L 149.8181818008423 82.6 L 158.0 73.6 Z M 161.0 63.6 L 161.0 67.6 L 116.0 67.6 L 116.0 63.6 L 142.8181818008423 63.6 L 151.0 54.6 Z M 84.0 63.6 L 84.0 67.6 L 37.0 67.6 L 37.0 63.6 L 65.81818180084228 63.6 L 74.0 54.6 Z " />
</g>
</svg>
