<svg xmlns="http://www.w3.org/2000/svg" xmlns:xlink="http://www.w3.org/1999/xlink" version="1.1" baseProfile="full" viewBox="0 0 200 200" width="200" height="200">
<g fill="black">
<path d="M 136.3 161.9 L 136.9 165.5 L 133.1529411315918 164.49632349014283 L 132.3 165.2 L 128.0 168.3 L 123.5 171.3 L 118.6 174.2 L 113.4 177.0 L 107.9 179.7 L 102.1 182.3 L 96.0 184.7 L 89.4 186.9 L 82.5 188.8 L 81.8 187.1 L 87.9 183.4 L 93.6 179.8 L 99.1 176.4 L 104.2 173.1 L 109.0 169.7 L 113.5 166.4 L 117.6 163.1 L 121.4 159.9 L 124.8 156.6 L 127.22336759567261 154.02028617858886 L 127.2 154.0 L 127.47450981140136 153.7529411315918 L 127.9 153.3 L 127.93638610839844 153.3372525215149 L 128.2 153.1 Z M 83.0 99.6 L 79.5 94.7 L 75.2 89.6 L 70.2 84.3 L 64.92833757400513 79.30579347610474 L 62.4 82.7 L 54.9 91.7 L 47.2 99.8 L 39.1 107.0 L 35.366985607147214 109.83349285125732 L 43.7 114.0 L 75.9 114.0 L 81.9 109.0 L 92.9 118.0 L 87.9 122.0 L 87.9 170.0 L 75.9 176.0 L 75.9 170.0 L 43.7 170.0 L 43.7 182.0 L 31.7 188.0 L 31.7 112.61686744689942 L 30.8 113.3 L 22.3 118.5 L 13.4 122.7 L 12.6 121.2 L 20.2 115.4 L 27.5 109.0 L 34.7 102.1 L 41.7 94.5 L 48.4 86.2 L 54.9 77.2 L 57.639343929290774 73.00537958145142 L 50.9 67.5 L 43.1 61.5 L 37.5843243598938 57.36324319839478 L 35.9 60.2 L 31.7 66.3 L 27.2 71.9 L 22.3 77.0 L 17.1 81.6 L 15.7 80.3 L 19.4 74.6 L 22.8 68.7 L 26.1 62.8 L 29.2 56.5 L 32.1 50.1 L 34.7 43.4 L 37.0 36.4 L 39.2 29.1 L 41.0 21.5 L 42.6 13.6 L 42.61363639831543 13.60303030014038 L 43.0 11.8 L 54.3 16.2 L 56.8 18.8 L 53.22425727844238 20.035256576538085 L 52.0 24.4 L 49.4 32.3 L 48.74266662597656 34.0 L 78.4 34.0 L 78.92244901657105 33.5646258354187 L 79.0 33.4 L 79.07659578323364 33.436170196533205 L 84.4 29.0 L 95.4 38.0 L 90.4 41.0 L 87.97301034927368 42.01124563217163 L 83.4 50.8 L 76.7 62.3 L 69.7 72.9 L 69.47348279953003 73.2040916442871 L 75.9 78.0 L 81.8 83.0 L 87.0 88.1 L 91.6 93.2 L 95.5 98.4 L 98.7 103.7 L 98.9 108.2 L 95.9 111.7 L 91.3 111.8 L 87.9 108.8 L 85.8 104.3 Z M 171.7 176.3 L 169.3 173.4 L 166.8 170.7 L 164.0 168.0 L 161.0 165.3 L 157.9 162.7 L 154.5 160.2 L 151.0 157.6 L 147.2 155.2 L 147.9 153.5 L 156.7 155.9 L 160.9 157.5 L 164.9 159.4 L 168.8 161.4 L 172.4 163.7 L 175.9 166.2 L 179.3 168.9 L 182.4 171.8 L 185.4 174.9 L 186.5 179.3 L 184.3 183.3 L 179.9 184.5 L 175.9 182.2 L 173.9 179.2 Z M 43.7 118.0 L 43.7 166.0 L 75.9 166.0 L 75.9 118.0 Z M 188.9 26.0 L 188.9 30.0 L 150.49230766296387 30.0 L 150.1 30.6 L 148.2 33.5 L 146.2 36.4 L 144.1 39.2 L 142.0 41.9 L 139.7 44.6 L 137.4 47.1 L 134.9 49.6 L 132.3 52.0 L 129.84545450210572 54.0 L 164.5 54.0 L 170.5 49.0 L 181.5 58.0 L 176.5 62.0 L 176.5 144.0 L 164.5 150.0 L 164.5 144.0 L 119.5 144.0 L 119.5 151.0 L 107.5 157.0 L 107.5 48.0 L 119.5 54.0 L 126.49333333969116 54.0 L 127.4 52.4 L 128.9 49.3 L 130.4 46.3 L 134.6 37.3 L 135.9 34.3 L 137.6199999809265 30.0 L 96.9 30.0 L 96.9 26.0 L 166.9 26.0 L 176.9 16.0 Z M 119.5 115.0 L 119.5 140.0 L 164.5 140.0 L 164.5 115.0 Z M 119.5 87.0 L 119.5 111.0 L 164.5 111.0 L 164.5 87.0 Z M 119.5 58.0 L 119.5 83.0 L 164.5 83.0 L 164.5 58.0 Z M 47.196000003814696 38.0 L 46.5 39.8 L 43.2 47.0 L 39.7 53.8 L 38.830582523345946 55.264282035827634 L 45.1 58.3 L 53.9 63.1 L 61.1915452003479 67.56607141494752 L 61.3 67.4 L 67.4 56.8 L 73.3 45.5 L 76.83305788040161 38.0 Z " />
</g>
</svg>
