<svg xmlns="http://www.w3.org/2000/svg" xmlns:xlink="http://www.w3.org/1999/xlink" version="1.1" baseProfile="full" viewBox="0 0 200 200" width="200" height="200">
<g fill="black">
<path d="M 182.0 146.0 L 184.0 146.0 L 182.0 171.0 L 185.6 173.4 L 188.0 177.0 L 185.6 180.6 L 182.0 183.0 L 116.0 183.0 L 113.4 182.8 L 110.9 182.4 L 108.5 181.6 L 106.2 180.3 L 104.2 178.7 L 102.6 176.7 L 101.3 174.4 L 100.5 172.0 L 100.1 169.5 L 100.0 167.0 L 100.0 112.3 L 80.03333330154419 112.3 L 87.5 115.5 L 89.9 118.2 L 86.18536205291748 119.26132507324219 L 83.9 125.8 L 79.3 135.5 L 73.9 144.6 L 67.6 153.0 L 60.5 160.6 L 52.5 167.6 L 43.6 173.8 L 34.0 179.3 L 23.5 184.0 L 12.3 187.8 L 11.6 186.1 L 21.9 180.5 L 31.3 174.7 L 39.8 168.5 L 47.5 161.8 L 54.3 154.8 L 60.3 147.2 L 65.4 139.3 L 69.7 130.8 L 73.2 121.8 L 75.63939723968505 113.30728349685668 L 75.6 113.3 L 75.8692307472229 112.3 L 49.0 112.3 L 49.0 124.3 L 37.0 130.3 L 37.0 36.6 L 49.0 42.6 L 84.56000003814697 42.6 L 85.4 40.5 L 86.3 37.3 L 87.3 34.3 L 88.4 31.2 L 89.5 28.3 L 90.6 25.3 L 91.8 22.4 L 92.9 19.5 L 94.1 16.7 L 94.83489732742309 14.762543296813964 L 94.7 14.7 L 95.11818180084228 14.015702438354491 L 95.2 13.8 L 95.23705883026123 13.821176433563233 L 95.8 12.9 L 105.7 19.8 L 107.3 23.0 L 103.13839282989503 23.070535755157472 L 101.9 24.7 L 100.0 27.1 L 98.1 29.6 L 96.1 32.1 L 94.1 34.5 L 92.1 37.0 L 90.0 39.4 L 87.7 41.8 L 87.08461542129517 42.6 L 150.9 42.6 L 156.9 37.6 L 167.9 46.6 L 162.9 50.6 L 162.9 116.3 L 150.9 122.3 L 150.9 112.3 L 101.8 112.3 L 112.0 114.0 L 115.0 116.0 L 112.0 117.8 L 112.0 168.2 L 112.2 169.1 L 112.5 170.0 L 112.9 170.4 L 113.8 170.7 L 114.7 170.9 L 116.0 171.0 L 176.0 171.0 Z M 161.3 156.7 L 160.6 154.8 L 159.7 152.8 L 159.35667037963867 152.17056226730347 L 155.2 153.4 L 148.9 155.3 L 143.1 157.0 L 137.9 158.4 L 133.3 159.7 L 129.3 160.9 L 125.9 161.9 L 123.92422323226928 162.48541536331177 L 122.1 166.7 L 119.6 164.1 L 115.4 152.7 L 117.4 152.3 L 121.3 152.3 L 124.2 152.1 L 126.83718662261963 151.94930362701416 L 127.1 151.3 L 128.7 147.2 L 130.2 143.2 L 131.7 139.4 L 133.1 135.7 L 134.5 132.2 L 135.7 128.8 L 136.9 125.5 L 138.0 122.3 L 138.61789979934693 120.24033412933349 L 138.5 120.2 L 138.85135135650634 119.46216220855713 L 138.9 119.3 L 138.92365589141846 119.31032257080078 L 139.5 118.1 L 149.9 124.1 L 151.8 127.2 L 147.78409090042115 127.69318180084228 L 146.4 130.0 L 142.4 136.2 L 140.2 139.4 L 137.8 142.7 L 135.3 146.1 L 132.7 149.5 L 130.849502658844 151.66954860687255 L 131.8 151.6 L 136.6 151.3 L 142.0 150.8 L 148.0 150.4 L 154.7 150.0 L 158.04170408248902 149.8143497467041 L 157.1 148.2 L 155.4 145.6 L 153.4 142.9 L 151.3 140.0 L 148.7 137.3 L 149.8 135.9 L 153.0 138.1 L 156.2 139.9 L 159.1 141.8 L 161.8 143.7 L 164.2 145.6 L 166.4 147.5 L 168.4 149.5 L 170.2 151.4 L 171.8 153.5 L 173.1 155.6 L 172.8 160.2 L 169.5 163.3 L 164.9 163.0 L 161.8 159.7 L 161.7 158.3 Z M 49.0 79.0 L 49.0 108.3 L 94.0 108.3 L 94.0 79.0 Z M 106.0 79.0 L 106.0 108.3 L 150.9 108.3 L 150.9 79.0 Z M 49.0 46.6 L 49.0 75.0 L 94.0 75.0 L 94.0 46.6 Z M 106.0 46.6 L 106.0 75.0 L 150.9 75.0 L 150.9 46.6 Z " />
</g>
</svg>
