<svg xmlns="http://www.w3.org/2000/svg" xmlns:xlink="http://www.w3.org/1999/xlink" version="1.1" baseProfile="full" viewBox="0 0 200 200" width="200" height="200">
<g fill="black">
<path d="M 36.0 182.2 L 50.0 182.2 L 50.0 186.2 L 24.0 186.2 L 24.0 171.7 L 36.0 171.7 Z M 150.0 186.2 L 150.0 182.2 L 164.0 182.2 L 164.0 171.7 L 176.0 171.7 L 176.0 186.2 Z M 80.0 186.2 L 60.0 186.2 L 60.0 182.2 L 80.0 182.2 Z M 110.0 186.2 L 90.0 186.2 L 90.0 182.2 L 110.0 182.2 Z M 140.0 186.2 L 120.0 186.2 L 120.0 182.2 L 140.0 182.2 Z M 176.0 170.5 L 164.0 170.5 L 164.0 156.0 L 176.0 156.0 Z M 36.0 170.5 L 24.0 170.5 L 24.0 156.0 L 36.0 156.0 Z M 176.0 154.7 L 164.0 154.7 L 164.0 140.2 L 176.0 140.2 Z M 36.0 154.7 L 24.0 154.7 L 24.0 140.2 L 36.0 140.2 Z M 176.0 139.0 L 164.0 139.0 L 164.0 124.5 L 176.0 124.5 Z M 36.0 139.0 L 24.0 139.0 L 24.0 124.5 L 36.0 124.5 Z M 50.0 112.7 L 36.0 112.7 L 36.0 123.2 L 24.0 123.2 L 24.0 108.7 L 50.0 108.7 Z M 164.0 123.2 L 164.0 112.7 L 150.0 112.7 L 150.0 108.7 L 176.0 108.7 L 176.0 123.2 Z M 80.0 112.7 L 60.0 112.7 L 60.0 108.7 L 80.0 108.7 Z M 110.0 112.7 L 90.0 112.7 L 90.0 108.7 L 110.0 108.7 Z M 140.0 112.7 L 120.0 112.7 L 120.0 108.7 L 140.0 108.7 Z M 87.7 92.6 L 87.7 96.6 L 31.0 96.6 L 31.0 92.6 L 73.4777777671814 92.6 L 79.7 85.6 Z M 15.4 95.0 L 13.0 91.1 L 14.0 86.6 L 15.4 85.3 L 16.8 83.8 L 18.1 82.1 L 19.4 80.3 L 20.6 78.4 L 21.7 76.3 L 22.8 74.1 L 24.8 69.1 L 25.3 66.3 L 27.1 66.4 L 27.2 69.3 L 27.54482755661011 71.8 L 90.8 71.8 L 96.8 66.8 L 107.8 75.8 L 102.8 78.8 L 100.30561800003052 79.83932580947877 L 99.8 80.8 L 97.6 84.6 L 96.4 86.6 L 93.8 90.4 L 92.3 92.3 L 91.2 94.4 L 89.6 93.7 L 90.2 91.5 L 90.3 89.1 L 90.4 86.8 L 90.6 84.6 L 90.8 80.4 L 90.8 75.8 L 27.8 75.8 L 27.8 77.8 L 27.6 80.6 L 27.2 83.3 L 26.6 86.0 L 25.9 88.6 L 24.9 91.2 L 23.7 93.7 L 19.8 96.0 Z M 118.6723403930664 60.9 L 121.2 64.2 L 125.0 68.4 L 129.3 72.1 L 134.2 75.5 L 139.61447696685792 78.30392560958862 L 141.6 77.0 L 147.4 72.3 L 152.4 67.2 L 156.5 61.7 L 156.97719297409057 60.9 Z M 26.2 53.5 L 52.8 53.5 L 52.8 35.7 L 19.8 35.7 L 19.8 31.7 L 52.8 31.7 L 52.8 12.9 L 64.8 14.9 L 67.8 16.9 L 64.8 18.7 L 64.8 31.7 L 80.2 31.7 L 90.2 21.7 L 102.2 31.7 L 102.2 35.7 L 64.8 35.7 L 64.8 53.5 L 74.91818180084229 53.5 L 83.1 44.5 L 93.1 53.5 L 93.1 57.5 L 26.2 57.5 Z M 127.2 19.5 L 150.5 19.5 L 156.5 14.5 L 167.5 23.5 L 162.5 27.5 L 162.5 38.2 L 162.3 39.5 L 162.3 41.2 L 162.5 42.2 L 162.7 42.6 L 163.2 43.1 L 164.0 43.5 L 165.0 43.9 L 166.5 44.2 L 177.6 44.2 L 181.6 35.2 L 183.6 35.2 L 181.6 44.2 L 184.0 45.8 L 185.6 48.2 L 184.0 50.6 L 181.6 52.2 L 166.5 52.2 L 165.51674013137819 52.24096918106079 L 176.1 60.9 L 171.1 63.9 L 168.02934970855713 65.1794376373291 L 165.7 68.5 L 160.2 74.6 L 153.8 80.0 L 150.30563383102418 82.36238842010498 L 153.2 83.3 L 161.1 85.2 L 169.8 86.6 L 179.3 87.7 L 189.5 89.0 L 177.7 100.8 L 167.6 99.0 L 158.2 96.6 L 149.8 93.8 L 142.1 90.4 L 139.11927461624146 88.7343005180359 L 138.8 88.9 L 130.2 92.5 L 120.9 95.4 L 110.8 97.6 L 99.9 99.2 L 88.3 100.0 L 88.1 98.2 L 99.2 95.5 L 109.5 92.4 L 118.8 89.1 L 127.3 85.5 L 131.04500341415405 83.47966918945312 L 129.3 82.2 L 124.3 77.4 L 120.4 72.0 L 117.5 66.3 L 116.19354839324951 60.9 L 106.2 60.9 L 106.2 56.9 L 159.1 56.9 L 159.62325582504272 56.463953495025635 L 159.9 56.0 L 160.06838483810424 56.09301261901855 L 164.6473684310913 52.277192974090575 L 164.1 52.3 L 161.8 52.1 L 159.6 51.5 L 157.4 50.6 L 155.4 49.2 L 153.8 47.5 L 152.4 45.4 L 151.5 43.2 L 150.8 40.7 L 150.5 38.2 L 150.5 23.5 L 127.2 23.5 L 127.2 31.7 L 126.5 34.9 L 125.5 37.9 L 124.1 40.8 L 122.4 43.4 L 120.3 45.8 L 117.9 47.9 L 115.3 49.8 L 112.4 51.6 L 109.2 53.1 L 105.9 54.8 L 105.0 53.3 L 107.7 51.0 L 109.8 48.5 L 111.6 46.0 L 113.1 43.7 L 114.2 41.4 L 114.9 39.3 L 115.4 37.3 L 115.5 35.3 L 115.5 33.5 L 115.2 31.7 L 115.2 13.5 Z " />
</g>
</svg>
