<svg xmlns="http://www.w3.org/2000/svg" xmlns:xlink="http://www.w3.org/1999/xlink" version="1.1" baseProfile="full" viewBox="0 0 200 200" width="200" height="200">
<g fill="black">
<path d="M 9.0 160.0 L 21.0 160.0 L 21.0 188.0 L 9.0 188.0 Z M 53.0 184.0 L 53.5 184.0 L 53.5 160.0 L 64.5 160.0 L 64.5 188.0 L 53.0 188.0 Z M 50.0 188.0 L 43.0 188.0 L 43.0 184.0 L 50.0 184.0 Z M 40.0 188.0 L 34.0 188.0 L 34.0 184.0 L 40.0 184.0 Z M 31.0 188.0 L 24.0 188.0 L 24.0 184.0 L 31.0 184.0 Z M 167.0 182.0 L 174.0 182.0 L 174.0 167.0 L 186.0 167.0 L 186.0 186.0 L 167.0 186.0 Z M 160.0 186.0 L 144.0 186.0 L 144.0 182.0 L 160.0 182.0 Z M 137.0 186.0 L 124.0 186.0 L 124.0 182.0 L 137.0 182.0 Z M 117.0 186.0 L 101.0 186.0 L 101.0 182.0 L 117.0 182.0 Z M 75.5 167.0 L 86.5 167.0 L 86.5 182.0 L 94.0 182.0 L 94.0 186.0 L 75.5 186.0 Z M 86.5 163.0 L 75.5 163.0 L 75.5 143.0 L 86.5 143.0 Z M 21.0 151.0 L 9.0 151.0 L 9.0 123.0 L 21.0 123.0 Z M 64.0 151.0 L 54.0 151.0 L 54.0 123.0 L 64.0 123.0 Z M 86.5 140.0 L 75.5 140.0 L 75.5 121.0 L 86.5 121.0 Z M 186.0 140.0 L 174.0 140.0 L 174.0 121.0 L 186.0 121.0 Z M 186.0 117.0 L 174.0 117.0 L 174.0 98.0 L 186.0 98.0 Z M 86.5 117.0 L 75.5 117.0 L 75.5 98.0 L 86.5 98.0 Z M 21.0 114.0 L 9.0 114.0 L 9.0 86.0 L 21.0 86.0 Z M 64.0 114.0 L 54.0 114.0 L 54.0 86.0 L 64.0 86.0 Z M 186.0 94.0 L 174.0 94.0 L 174.0 78.0 L 167.0 78.0 L 167.0 74.0 L 186.0 74.0 Z M 94.0 78.0 L 86.5 78.0 L 86.5 94.0 L 75.5 94.0 L 75.5 74.0 L 94.0 74.0 Z M 160.0 78.0 L 144.0 78.0 L 144.0 74.0 L 160.0 74.0 Z M 137.0 78.0 L 124.0 78.0 L 124.0 74.0 L 137.0 74.0 Z M 117.0 78.0 L 101.0 78.0 L 101.0 74.0 L 117.0 74.0 Z M 21.0 77.0 L 9.0 77.0 L 9.0 49.0 L 21.0 49.0 Z M 65.0 77.0 L 53.0 77.0 L 53.0 49.0 L 65.0 49.0 Z M 102.8 56.0 L 102.2 53.7 L 101.4 51.4 L 100.4 49.1 L 99.3 46.7 L 97.9 44.4 L 96.3 41.9 L 94.5 39.4 L 92.96666669845581 38.0 L 91.57796611785889 38.0 L 90.3 40.9 L 87.5 46.7 L 84.4 52.2 L 81.0 57.5 L 77.3 62.5 L 73.2 67.2 L 68.7 71.5 L 67.2 70.4 L 70.1 65.0 L 72.8 59.6 L 75.3 54.2 L 77.7 48.8 L 79.8 43.2 L 81.7 37.6 L 83.3 31.8 L 84.7 26.0 L 85.9 20.0 L 86.75161294937134 14.805161285400391 L 86.7 14.8 L 87.2 11.9 L 98.7 16.0 L 101.3 18.5 L 97.68517713546753 19.880205059051512 L 97.0 22.5 L 95.1 28.9 L 93.26065578460694 34.0 L 113.81818180084228 34.0 L 122.0 25.0 L 132.0 34.0 L 132.0 38.0 L 97.13571424484253 38.0 L 99.0 38.9 L 101.7 40.7 L 104.2 42.6 L 106.5 44.7 L 108.6 46.9 L 110.5 49.3 L 112.3 51.9 L 113.8 54.7 L 115.0 57.6 L 114.3 62.1 L 110.7 64.9 L 106.2 64.1 L 103.4 60.5 L 103.2 58.2 Z M 156.4 56.1 L 155.7 53.8 L 154.9 51.4 L 153.9 49.1 L 152.7 46.7 L 151.4 44.3 L 149.9 41.9 L 148.3 39.4 L 146.9 38.0 L 144.56428575515747 38.0 L 143.6 40.0 L 140.7 45.3 L 137.5 50.4 L 134.0 55.2 L 130.2 59.7 L 126.1 63.8 L 121.6 67.6 L 120.3 66.3 L 123.2 61.5 L 125.9 56.6 L 128.5 51.7 L 130.9 46.7 L 133.1 41.6 L 135.1 36.3 L 136.9 30.9 L 138.4 25.3 L 139.8 19.6 L 140.71626567840576 14.602186965942384 L 140.7 14.6 L 140.81538457870482 14.0615385055542 L 140.9 13.6 L 140.91363639831542 13.60303030014038 L 141.3 11.8 L 152.6 16.2 L 155.1 18.8 L 151.5020173072815 20.042939472198487 L 150.8 22.5 L 148.6 28.6 L 146.45862064361572 34.0 L 167.8181818008423 34.0 L 176.0 25.0 L 186.0 34.0 L 186.0 38.0 L 150.8333333015442 38.0 L 152.7 39.0 L 155.3 40.7 L 157.7 42.6 L 160.0 44.7 L 162.1 46.9 L 164.0 49.3 L 165.8 51.8 L 167.4 54.5 L 168.8 57.3 L 168.3 61.8 L 164.8 64.8 L 160.3 64.3 L 157.3 60.9 L 156.9 58.5 Z M 9.0 41.0 L 9.0 12.0 L 21.0 12.0 L 21.0 41.0 Z M 65.0 41.0 L 53.0 41.0 L 53.0 12.0 L 65.0 12.0 Z M 50.0 16.0 L 43.0 16.0 L 43.0 12.0 L 50.0 12.0 Z M 40.0 16.0 L 34.0 16.0 L 34.0 12.0 L 40.0 12.0 Z M 31.0 16.0 L 24.0 16.0 L 24.0 12.0 L 31.0 12.0 Z " />
</g>
</svg>
