<svg xmlns="http://www.w3.org/2000/svg" xmlns:xlink="http://www.w3.org/1999/xlink" version="1.1" baseProfile="full" viewBox="0 0 200 200" width="200" height="200">
<g fill="black">
<path d="M 51.7 72.2 L 50.1 69.7 L 48.5 67.4 L 46.6 65.1 L 44.6 62.9 L 42.4 60.8 L 40.0 58.8 L 37.587846183776854 56.77379083633423 L 35.5 60.2 L 31.3 66.3 L 26.8 71.9 L 21.9 77.0 L 16.6 81.6 L 15.3 80.3 L 18.9 74.6 L 22.4 68.7 L 25.8 62.7 L 28.9 56.5 L 31.8 50.1 L 34.5 43.3 L 37.0 36.3 L 39.2 29.0 L 41.2 21.4 L 42.68215818405152 14.512323760986328 L 42.6 14.5 L 43.3 11.8 L 54.6 16.3 L 57.0 19.0 L 53.44149322509766 20.099902057647704 L 52.1 24.5 L 49.4 32.4 L 48.76000003814697 34.0 L 78.0 34.0 L 78.36585369110108 33.695121955871585 L 78.5 33.4 L 78.64089307785034 33.46592245101929 L 84.0 29.0 L 95.0 38.0 L 90.0 41.0 L 87.60930233001709 41.99612407684326 L 83.1 50.8 L 76.5 62.2 L 69.6 72.9 L 62.4 82.7 L 55.0 91.7 L 47.2 99.8 L 39.2 107.0 L 35.54641151428223 109.77320575714111 L 44.0 114.0 L 76.0 114.0 L 82.0 109.0 L 93.0 118.0 L 88.0 122.0 L 88.0 170.0 L 76.0 176.0 L 76.0 170.0 L 44.0 170.0 L 44.0 182.0 L 32.0 188.0 L 32.0 112.46506023406982 L 30.9 113.3 L 22.3 118.5 L 13.4 122.7 L 12.5 121.2 L 20.2 115.4 L 27.6 109.0 L 34.8 102.1 L 41.7 94.5 L 48.4 86.2 L 54.595495510101316 77.62162160873413 L 54.3 77.4 L 53.0 74.7 Z M 147.0 75.0 L 150.0 77.0 L 147.0 78.8 L 147.0 114.0 L 146.1 124.6 L 144.0 134.7 L 140.8 144.0 L 136.4 152.5 L 130.8 160.3 L 124.2 167.2 L 116.5 173.2 L 107.8 178.3 L 98.0 182.5 L 87.2 185.8 L 86.7 184.1 L 96.4 179.1 L 105.0 173.7 L 112.5 168.0 L 118.8 161.8 L 124.1 155.1 L 128.2 148.0 L 131.4 140.4 L 133.6 132.2 L 134.8 123.4 L 135.0 114.0 L 135.0 73.0 Z M 168.9 175.3 L 166.7 172.5 L 164.1 169.7 L 161.1 166.7 L 157.7 163.8 L 153.9 160.8 L 149.8 157.7 L 145.3 154.5 L 140.5 151.2 L 141.2 149.6 L 146.9 151.3 L 152.2 153.3 L 157.1 155.4 L 161.7 157.7 L 166.0 160.1 L 169.9 162.6 L 173.5 165.3 L 176.8 168.1 L 179.7 171.1 L 182.4 174.2 L 183.1 178.7 L 180.6 182.5 L 176.1 183.2 L 172.3 180.7 L 170.8 178.0 Z M 44.0 118.0 L 44.0 166.0 L 76.0 166.0 L 76.0 118.0 Z M 188.0 25.0 L 188.0 29.0 L 146.5 29.0 L 145.5 31.5 L 144.2 34.5 L 141.4 40.5 L 138.2 46.5 L 136.5 49.4 L 134.6 52.4 L 132.6 55.3 L 131.58000001907348 57.0 L 164.0 57.0 L 170.0 52.0 L 181.0 61.0 L 176.0 65.0 L 176.0 139.0 L 164.0 145.0 L 164.0 61.0 L 117.0 61.0 L 117.0 143.0 L 105.0 149.0 L 105.0 51.0 L 117.0 57.0 L 129.25882349014282 57.0 L 130.0 54.2 L 130.6 50.8 L 131.3 47.4 L 131.9 44.1 L 132.6 40.9 L 133.2 37.7 L 134.60322580337524 29.0 L 94.0 29.0 L 94.0 25.0 L 166.0 25.0 L 176.0 15.0 Z M 47.160000038146975 38.0 L 46.4 39.9 L 43.0 47.0 L 39.4 53.8 L 39.04009799957275 54.390608406066896 L 42.0 55.0 L 45.3 56.1 L 48.4 57.5 L 51.5 59.2 L 54.4 61.1 L 57.2 63.3 L 59.8 65.7 L 61.266431140899655 67.28374557495117 L 67.2 56.9 L 73.0 45.5 L 76.40909090042115 38.0 Z " />
</g>
</svg>
