<svg xmlns="http://www.w3.org/2000/svg" xmlns:xlink="http://www.w3.org/1999/xlink" version="1.1" baseProfile="full" viewBox="0 0 200 200" width="200" height="200">
<g fill="black">
<path d="M 168.2 182.6 L 174.9 182.6 L 174.9 171.0 L 186.9 171.0 L 186.9 186.6 L 168.2 186.6 Z M 161.9 186.6 L 149.2 186.6 L 149.2 182.6 L 161.9 182.6 Z M 142.8 186.6 L 130.1 186.6 L 130.1 182.6 L 142.8 182.6 Z M 123.8 186.6 L 111.1 186.6 L 111.1 182.6 L 123.8 182.6 Z M 86.0 171.0 L 98.0 171.0 L 98.0 182.6 L 104.7 182.6 L 104.7 186.6 L 86.0 186.6 Z M 56.2 182.3 L 56.5 182.3 L 56.5 158.5 L 68.5 158.5 L 68.5 186.3 L 56.2 186.3 Z M 53.1 186.3 L 46.8 186.3 L 46.8 182.3 L 53.1 182.3 Z M 43.6 186.3 L 37.3 186.3 L 37.3 182.3 L 43.6 182.3 Z M 34.2 186.3 L 27.9 186.3 L 27.9 182.3 L 34.2 182.3 Z M 12.4 158.5 L 24.4 158.5 L 24.4 182.3 L 24.7 182.3 L 24.7 186.3 L 12.4 186.3 Z M 186.9 169.2 L 174.9 169.2 L 174.9 153.6 L 186.9 153.6 Z M 98.0 169.2 L 86.0 169.2 L 86.0 153.6 L 98.0 153.6 Z M 186.9 151.8 L 174.9 151.8 L 174.9 136.2 L 186.9 136.2 Z M 98.0 151.8 L 86.0 151.8 L 86.0 136.2 L 98.0 136.2 Z M 68.5 150.6 L 56.5 150.6 L 56.5 122.8 L 68.5 122.8 Z M 24.4 150.6 L 12.4 150.6 L 12.4 122.8 L 24.4 122.8 Z M 186.9 134.4 L 174.9 134.4 L 174.9 118.8 L 186.9 118.8 Z M 98.0 134.4 L 86.0 134.4 L 86.0 118.8 L 98.0 118.8 Z M 186.9 117.0 L 174.9 117.0 L 174.9 105.4 L 168.2 105.4 L 168.2 101.4 L 186.9 101.4 Z M 104.7 105.4 L 98.0 105.4 L 98.0 117.0 L 86.0 117.0 L 86.0 101.4 L 104.7 101.4 Z M 24.4 114.9 L 12.4 114.9 L 12.4 87.1 L 24.4 87.1 Z M 68.5 114.9 L 56.5 114.9 L 56.5 87.1 L 68.5 87.1 Z M 161.9 105.4 L 149.2 105.4 L 149.2 101.4 L 161.9 101.4 Z M 142.8 105.4 L 130.1 105.4 L 130.1 101.4 L 142.8 101.4 Z M 123.8 105.4 L 111.1 105.4 L 111.1 101.4 L 123.8 101.4 Z M 70.0 77.1 L 68.5 73.6 L 68.5 79.2 L 56.5 79.2 L 56.5 51.4 L 68.5 51.4 L 68.5 72.09375 L 69.8 68.6 L 71.1 67.6 L 72.4 66.0 L 73.8 63.9 L 75.1 61.3 L 76.3 58.1 L 77.5 54.4 L 78.5 50.3 L 79.4 45.6 L 80.3 40.5 L 80.9 35.0 L 82.7 34.9 L 83.4 40.6 L 83.79230766296386 44.0 L 124.5 44.0 L 124.5 27.0 L 84.6 27.0 L 84.6 23.0 L 157.1 23.0 L 167.1 13.0 L 179.1 23.0 L 179.1 27.0 L 136.5 27.0 L 136.5 44.0 L 179.4 44.0 L 185.4 39.0 L 196.4 48.0 L 191.4 51.0 L 188.58483409881592 52.17298574447632 L 187.1 54.8 L 185.7 57.0 L 184.2 59.1 L 182.7 61.3 L 181.2 63.3 L 179.6 65.3 L 177.8 67.3 L 176.4 69.4 L 174.8 68.5 L 175.6 66.2 L 176.0 63.7 L 177.0 58.7 L 177.4 56.3 L 177.9 53.8 L 178.4 51.4 L 178.8 48.9 L 178.9800000190735 48.0 L 136.5 48.0 L 136.5 95.0 L 124.5 101.0 L 124.5 48.0 L 84.13199996948242 48.0 L 84.3 50.8 L 84.4 55.4 L 84.1 59.7 L 83.6 63.7 L 82.9 67.4 L 81.8 70.8 L 80.4 74.0 L 78.5 76.9 L 74.3 78.7 Z M 119.3 86.0 L 119.3 90.0 L 83.2 90.0 L 83.2 86.0 L 101.11818180084228 86.0 L 109.3 77.0 Z M 177.7 86.0 L 177.7 90.0 L 141.6 90.0 L 141.6 86.0 L 159.51818180084229 86.0 L 167.7 77.0 Z M 24.4 79.2 L 12.4 79.2 L 12.4 51.4 L 24.4 51.4 Z M 172.8 66.0 L 172.8 70.0 L 141.6 70.0 L 141.6 66.0 L 158.5777777671814 66.0 L 164.8 59.0 Z M 119.3 66.0 L 119.3 70.0 L 86.7 70.0 L 86.7 66.0 L 105.0777777671814 66.0 L 111.3 59.0 Z M 68.5 43.5 L 56.5 43.5 L 56.5 19.7 L 56.2 19.7 L 56.2 15.7 L 68.5 15.7 Z M 24.7 19.7 L 24.4 19.7 L 24.4 43.5 L 12.4 43.5 L 12.4 15.7 L 24.7 15.7 Z M 53.1 19.7 L 46.8 19.7 L 46.8 15.7 L 53.1 15.7 Z M 43.6 19.7 L 37.3 19.7 L 37.3 15.7 L 43.6 15.7 Z M 34.2 19.7 L 27.9 19.7 L 27.9 15.7 L 34.2 15.7 Z " />
</g>
</svg>
