<svg xmlns="http://www.w3.org/2000/svg" xmlns:xlink="http://www.w3.org/1999/xlink" version="1.1" baseProfile="full" viewBox="0 0 200 200" width="200" height="200">
<g fill="black">
<path d="M 91.0 100.0 L 91.0 104.0 L 30.0 104.0 L 30.0 100.0 L 69.0 100.0 L 79.0 90.0 Z M 170.0 100.0 L 170.0 104.0 L 109.0 104.0 L 109.0 100.0 L 148.0 100.0 L 158.0 90.0 Z M 179.0 65.0 L 179.0 69.0 L 21.0 69.0 L 21.0 65.0 L 157.0 65.0 L 167.0 55.0 Z M 91.0 29.0 L 91.0 33.0 L 30.0 33.0 L 30.0 29.0 L 69.0 29.0 L 79.0 19.0 Z M 170.0 29.0 L 170.0 33.0 L 109.0 33.0 L 109.0 29.0 L 148.0 29.0 L 158.0 19.0 Z " />
</g>
</svg>
