<svg xmlns="http://www.w3.org/2000/svg" xmlns:xlink="http://www.w3.org/1999/xlink" version="1.1" baseProfile="full" viewBox="0 0 200 200" width="200" height="200">
<g fill="black">
<path d="M 170.0 183.6 L 175.2 183.6 L 175.2 170.7 L 187.2 170.7 L 187.2 187.6 L 170.0 187.6 Z M 164.4 187.6 L 153.2 187.6 L 153.2 183.6 L 164.4 183.6 Z M 147.6 187.6 L 136.4 187.6 L 136.4 183.6 L 147.6 183.6 Z M 130.8 187.6 L 119.6 187.6 L 119.6 183.6 L 130.8 183.6 Z M 96.8 170.7 L 108.8 170.7 L 108.8 183.6 L 114.0 183.6 L 114.0 187.6 L 96.8 187.6 Z M 12.5 170.7 L 24.5 170.7 L 24.5 183.6 L 26.2 183.6 L 26.2 187.6 L 12.5 187.6 Z M 64.7 183.6 L 66.4 183.6 L 66.4 170.7 L 78.4 170.7 L 78.4 187.6 L 64.7 187.6 Z M 60.9 187.6 L 53.2 187.6 L 53.2 183.6 L 60.9 183.6 Z M 49.3 187.6 L 41.6 187.6 L 41.6 183.6 L 49.3 183.6 Z M 37.8 187.6 L 30.1 187.6 L 30.1 183.6 L 37.8 183.6 Z M 24.5 168.3 L 12.5 168.3 L 12.5 151.4 L 24.5 151.4 Z M 187.2 168.3 L 175.2 168.3 L 175.2 151.4 L 187.2 151.4 Z M 78.4 168.3 L 66.4 168.3 L 66.4 151.4 L 78.4 151.4 Z M 108.8 168.3 L 96.8 168.3 L 96.8 151.4 L 108.8 151.4 Z M 187.2 148.9 L 175.2 148.9 L 175.2 132.0 L 187.2 132.0 Z M 108.8 148.9 L 96.8 148.9 L 96.8 132.0 L 108.8 132.0 Z M 78.4 148.9 L 66.4 148.9 L 66.4 132.0 L 78.4 132.0 Z M 24.5 148.9 L 12.5 148.9 L 12.5 132.0 L 24.5 132.0 Z M 187.2 129.6 L 175.2 129.6 L 175.2 112.7 L 187.2 112.7 Z M 24.5 129.6 L 12.5 129.6 L 12.5 112.7 L 24.5 112.7 Z M 108.8 129.6 L 96.8 129.6 L 96.8 112.7 L 108.8 112.7 Z M 78.4 129.6 L 66.4 129.6 L 66.4 112.7 L 78.4 112.7 Z M 114.0 97.3 L 108.8 97.3 L 108.8 110.2 L 96.8 110.2 L 96.8 93.3 L 114.0 93.3 Z M 187.2 110.2 L 175.2 110.2 L 175.2 97.3 L 170.0 97.3 L 170.0 93.3 L 187.2 93.3 Z M 26.2 97.3 L 24.5 97.3 L 24.5 110.2 L 12.5 110.2 L 12.5 93.3 L 26.2 93.3 Z M 78.4 110.2 L 66.4 110.2 L 66.4 97.3 L 64.7 97.3 L 64.7 93.3 L 78.4 93.3 Z M 164.4 97.3 L 153.2 97.3 L 153.2 93.3 L 164.4 93.3 Z M 147.6 97.3 L 136.4 97.3 L 136.4 93.3 L 147.6 93.3 Z M 130.8 97.3 L 119.6 97.3 L 119.6 93.3 L 130.8 93.3 Z M 49.3 97.3 L 41.6 97.3 L 41.6 93.3 L 49.3 93.3 Z M 37.8 97.3 L 30.1 97.3 L 30.1 93.3 L 37.8 93.3 Z M 60.9 97.3 L 53.2 97.3 L 53.2 93.3 L 60.9 93.3 Z M 13.5 70.6 L 12.6 66.1 L 15.1 62.3 L 17.1 61.3 L 18.9 59.9 L 20.7 58.2 L 22.3 56.1 L 23.9 53.5 L 25.3 50.5 L 26.5 47.0 L 27.6 43.1 L 28.6 38.8 L 29.1 34.0 L 30.9 33.9 L 31.5 38.8 L 31.7340425491333 41.0 L 94.0 41.0 L 94.0 27.0 L 34.0 27.0 L 34.0 23.0 L 148.0 23.0 L 158.0 13.0 L 170.0 23.0 L 170.0 27.0 L 106.0 27.0 L 106.0 41.0 L 173.0 41.0 L 173.54489793777466 40.54591836929321 L 173.7 40.1 L 173.9301037788391 40.2249135017395 L 179.0 36.0 L 190.0 45.0 L 185.0 48.0 L 181.15225811004638 49.603225803375246 L 180.9 49.9 L 179.1 51.9 L 177.3 53.8 L 175.5 55.6 L 173.6 57.3 L 169.6 60.5 L 167.4 61.9 L 165.6 63.5 L 164.3 62.4 L 165.6 60.4 L 166.6 58.1 L 167.5 55.8 L 168.5 53.6 L 169.4 51.3 L 171.2 46.9 L 171.94347829818724 45.0 L 106.0 45.0 L 106.0 86.0 L 94.0 92.0 L 94.0 45.0 L 32.06818180084228 45.0 L 32.2 47.9 L 31.9 52.1 L 31.3 56.1 L 30.2 59.8 L 28.8 63.4 L 26.9 66.6 L 24.6 69.6 L 21.8 72.3 L 17.3 73.1 Z M 84.0 78.0 L 84.0 82.0 L 32.0 82.0 L 32.0 78.0 L 73.5 78.0 L 78.0 72.0 Z M 168.0 78.0 L 168.0 82.0 L 116.0 82.0 L 116.0 78.0 L 157.5 78.0 L 162.0 72.0 Z M 84.0 61.0 L 84.0 65.0 L 37.0 65.0 L 37.0 61.0 L 65.81818180084228 61.0 L 74.0 52.0 Z M 161.0 61.0 L 161.0 65.0 L 116.0 65.0 L 116.0 61.0 L 142.8181818008423 61.0 L 151.0 52.0 Z " />
</g>
</svg>
