<svg xmlns="http://www.w3.org/2000/svg" xmlns:xlink="http://www.w3.org/1999/xlink" version="1.1" baseProfile="full" viewBox="0 0 200 200" width="200" height="200">
<g fill="black">
<path d="M 77.7 187.0 L 66.6 187.0 L 66.6 183.0 L 77.7 183.0 Z M 61.0 187.0 L 49.9 187.0 L 49.9 183.0 L 61.0 183.0 Z M 44.4 187.0 L 33.3 187.0 L 33.3 183.0 L 44.4 183.0 Z M 10.6 173.0 L 22.6 173.0 L 22.6 183.0 L 27.7 183.0 L 27.7 187.0 L 10.6 187.0 Z M 157.2 176.2 L 148.4 170.6 L 140.7 164.0 L 139.35726318359374 162.49693641662597 L 131.1 169.9 L 121.5 176.5 L 111.1 181.9 L 100.3 185.88918914794922 L 100.3 187.0 L 95.78571424484252 187.0 L 88.2 188.8 L 87.7 187.1 L 87.93913040161132 187.0 L 83.2 187.0 L 83.2 183.0 L 88.3 183.0 L 88.3 173.0 L 100.3 173.0 L 100.3 181.63599996566774 L 108.7 177.1 L 117.8 171.0 L 126.1 164.1 L 133.6 156.3 L 133.73809251785278 156.12068576812743 L 128.2 148.1 L 123.6 138.8 L 120.0 128.7 L 117.5 117.8 L 116.3 107.0 L 106.0 107.0 L 106.0 103.0 L 159.0 103.0 L 165.0 98.0 L 176.0 107.0 L 171.0 110.0 L 169.30901165008544 110.70457849502563 L 166.3 119.8 L 161.0 132.0 L 154.8 143.1 L 147.7 153.2 L 146.04869356155396 155.06033258438111 L 147.5 156.4 L 154.7 161.4 L 162.5 165.6 L 171.1 169.0 L 180.6 171.5 L 189.1 173.7 L 177.3 184.4 L 166.8 180.8 Z M 100.3 172.0 L 88.3 172.0 L 88.3 158.0 L 100.3 158.0 Z M 22.6 172.0 L 10.6 172.0 L 10.6 158.0 L 22.6 158.0 Z M 22.6 157.0 L 10.6 157.0 L 10.6 143.0 L 22.6 143.0 Z M 100.3 157.0 L 88.3 157.0 L 88.3 143.0 L 100.3 143.0 Z M 118.38181819915772 107.0 L 121.5 116.8 L 125.5 126.7 L 130.0 135.6 L 135.2 143.5 L 139.50935983657837 148.62665214538575 L 140.3 147.6 L 146.1 138.0 L 151.2 127.5 L 155.6 115.9 L 158.16319999694824 107.0 Z M 22.6 142.0 L 10.6 142.0 L 10.6 128.0 L 22.6 128.0 Z M 100.3 142.0 L 88.3 142.0 L 88.3 128.0 L 100.3 128.0 Z M 100.3 127.0 L 88.3 127.0 L 88.3 117.0 L 83.2 117.0 L 83.2 113.0 L 100.3 113.0 Z M 27.7 117.0 L 22.6 117.0 L 22.6 127.0 L 10.6 127.0 L 10.6 113.0 L 27.7 113.0 Z M 77.7 117.0 L 66.6 117.0 L 66.6 113.0 L 77.7 113.0 Z M 61.0 117.0 L 49.9 117.0 L 49.9 113.0 L 61.0 113.0 Z M 44.4 117.0 L 33.3 117.0 L 33.3 113.0 L 44.4 113.0 Z M 95.0 98.0 L 95.0 102.0 L 17.0 102.0 L 17.0 98.0 L 84.5 98.0 L 89.0 92.0 Z M 126.0 26.0 L 151.0 26.0 L 157.0 21.0 L 168.0 30.0 L 163.0 34.0 L 163.0 73.0 L 162.9 74.2 L 163.0 75.1 L 163.1 75.8 L 163.3 76.6 L 163.5 76.9 L 163.9 77.2 L 164.6 77.5 L 165.6 77.8 L 167.0 78.0 L 177.0 78.0 L 182.0 61.0 L 184.0 61.0 L 182.0 78.0 L 185.0 80.0 L 187.0 83.0 L 185.0 86.0 L 182.0 88.0 L 167.0 88.0 L 164.5 87.9 L 162.1 87.6 L 159.8 86.9 L 157.6 85.8 L 155.6 84.3 L 153.9 82.5 L 152.6 80.3 L 151.7 78.0 L 151.2 75.5 L 151.0 73.0 L 151.0 30.0 L 126.0 30.0 L 126.0 52.0 L 125.4 58.0 L 124.3 63.8 L 122.6 69.4 L 120.4 74.7 L 117.7 79.8 L 114.5 84.7 L 110.8 89.2 L 106.6 93.4 L 101.8 97.2 L 96.5 100.6 L 95.4 99.3 L 99.2 94.5 L 102.6 89.8 L 105.6 85.3 L 108.1 80.7 L 110.2 76.1 L 111.8 71.4 L 113.0 66.7 L 113.7 61.9 L 114.0 57.0 L 114.0 20.0 Z M 14.6 89.8 L 13.4 85.4 L 15.5 81.4 L 16.7 80.9 L 17.8 80.4 L 18.8 79.7 L 19.7 78.7 L 20.6 77.5 L 21.4 76.0 L 22.0 74.2 L 22.5 72.1 L 22.8 69.7 L 22.4 67.2 L 24.1 66.7 L 24.9 69.2 L 26.1 71.6 L 26.23333330154419 72.0 L 84.0 72.0 L 84.7384614944458 71.38461542129517 L 85.0 70.6 L 85.37525081634521 70.85395765304565 L 90.0 67.0 L 101.0 76.0 L 96.0 79.0 L 89.61081085205078 81.66216220855713 L 88.4 82.7 L 86.9 83.9 L 85.4 85.2 L 82.0 87.8 L 80.7 89.4 L 79.2 88.5 L 80.3 86.6 L 80.8 84.5 L 81.4 82.5 L 81.9 80.6 L 82.5 78.7 L 83.0 77.0 L 83.35294113159179 76.0 L 27.3 76.0 L 27.4 76.5 L 27.6 78.9 L 27.5 81.4 L 27.0 83.9 L 26.0 86.3 L 24.7 88.6 L 23.0 90.8 L 18.6 92.0 Z M 25.0 56.0 L 52.0 56.0 L 52.0 38.0 L 15.0 38.0 L 15.0 34.0 L 52.0 34.0 L 52.0 14.0 L 64.0 16.0 L 67.0 18.0 L 64.0 19.8 L 64.0 34.0 L 81.0 34.0 L 91.0 24.0 L 103.0 34.0 L 103.0 38.0 L 64.0 38.0 L 64.0 56.0 L 78.81818180084228 56.0 L 87.0 47.0 L 97.0 56.0 L 97.0 60.0 L 25.0 60.0 Z " />
</g>
</svg>
