<svg xmlns="http://www.w3.org/2000/svg" xmlns:xlink="http://www.w3.org/1999/xlink" version="1.1" baseProfile="full" viewBox="0 0 200 200" width="200" height="200">
<g fill="black">
<path d="M 169.0 180.0 L 175.0 180.0 L 175.0 166.0 L 187.0 166.0 L 187.0 184.0 L 169.0 184.0 Z M 164.0 184.0 L 152.0 184.0 L 152.0 180.0 L 164.0 180.0 Z M 147.0 184.0 L 134.0 184.0 L 134.0 180.0 L 147.0 180.0 Z M 130.0 184.0 L 117.0 184.0 L 117.0 180.0 L 130.0 180.0 Z M 94.5 166.0 L 105.5 166.0 L 105.5 180.0 L 113.0 180.0 L 113.0 184.0 L 94.5 184.0 Z M 20.0 166.0 L 32.0 166.0 L 32.0 180.0 L 34.0 180.0 L 34.0 184.0 L 20.0 184.0 Z M 45.0 184.0 L 37.0 184.0 L 37.0 180.0 L 45.0 180.0 Z M 56.0 184.0 L 48.0 184.0 L 48.0 180.0 L 56.0 180.0 Z M 67.0 184.0 L 59.0 184.0 L 59.0 180.0 L 67.0 180.0 Z M 70.0 180.0 L 72.5 180.0 L 72.5 166.0 L 83.5 166.0 L 83.5 184.0 L 70.0 184.0 Z M 83.5 163.0 L 72.5 163.0 L 72.5 144.0 L 83.5 144.0 Z M 32.0 163.0 L 20.0 163.0 L 20.0 144.0 L 32.0 144.0 Z M 105.5 163.0 L 94.5 163.0 L 94.5 144.0 L 105.5 144.0 Z M 83.5 140.0 L 72.5 140.0 L 72.5 121.0 L 83.5 121.0 Z M 105.5 140.0 L 94.5 140.0 L 94.5 121.0 L 105.5 121.0 Z M 32.0 140.0 L 20.0 140.0 L 20.0 121.0 L 32.0 121.0 Z M 83.5 118.0 L 72.5 118.0 L 72.5 100.0 L 83.5 100.0 Z M 187.0 118.0 L 175.0 118.0 L 175.0 100.0 L 187.0 100.0 Z M 105.5 118.0 L 94.5 118.0 L 94.5 100.0 L 105.5 100.0 Z M 32.0 118.0 L 20.0 118.0 L 20.0 100.0 L 32.0 100.0 Z M 83.5 96.0 L 72.5 96.0 L 72.5 81.0 L 70.0 81.0 L 70.0 77.0 L 83.5 77.0 Z M 187.0 96.0 L 175.0 96.0 L 175.0 81.0 L 169.0 81.0 L 169.0 77.0 L 187.0 77.0 Z M 34.0 81.0 L 32.0 81.0 L 32.0 96.0 L 20.0 96.0 L 20.0 77.0 L 34.0 77.0 Z M 113.0 81.0 L 105.5 81.0 L 105.5 96.0 L 94.5 96.0 L 94.5 77.0 L 113.0 77.0 Z M 147.0 81.0 L 134.0 81.0 L 134.0 77.0 L 147.0 77.0 Z M 164.0 81.0 L 152.0 81.0 L 152.0 77.0 L 164.0 77.0 Z M 130.0 81.0 L 117.0 81.0 L 117.0 77.0 L 130.0 77.0 Z M 45.0 81.0 L 37.0 81.0 L 37.0 77.0 L 45.0 77.0 Z M 56.0 81.0 L 48.0 81.0 L 48.0 77.0 L 56.0 77.0 Z M 67.0 81.0 L 59.0 81.0 L 59.0 77.0 L 67.0 77.0 Z M 66.5 60.4 L 65.3 57.9 L 63.7 55.3 L 61.9 52.7 L 59.8 50.0 L 57.4 47.3 L 54.7 44.6 L 51.8 41.8 L 49.446153831481936 40.0 L 44.92857141494751 40.0 L 42.7 43.9 L 38.7 49.9 L 34.4 55.7 L 29.6 61.2 L 24.4 66.4 L 18.7 71.2 L 12.5 75.6 L 11.4 74.3 L 16.0 68.5 L 20.4 62.8 L 24.5 57.1 L 28.2 51.3 L 31.5 45.4 L 34.5 39.5 L 37.2 33.4 L 39.4 27.2 L 41.3 20.9 L 42.65170698165893 15.408690261840821 L 42.6 15.4 L 43.3 12.7 L 54.5 17.4 L 56.9 20.1 L 53.248653984069826 21.20844430923462 L 52.2 24.4 L 49.4 31.1 L 47.06307687759399 36.0 L 84.0 36.0 L 94.0 26.0 L 106.0 36.0 L 106.0 40.0 L 54.905882358551025 40.0 L 57.2 41.0 L 60.8 42.8 L 64.2 44.9 L 67.4 47.1 L 70.3 49.5 L 72.9 52.1 L 75.4 54.8 L 77.5 57.8 L 79.4 60.9 L 79.3 65.5 L 76.1 68.7 L 71.5 68.7 L 68.3 65.5 L 67.5 63.0 Z M 145.5 60.4 L 144.3 57.9 L 142.7 55.3 L 140.9 52.7 L 138.8 50.0 L 136.4 47.3 L 133.7 44.6 L 130.8 41.8 L 128.44615383148192 40.0 L 123.45 40.0 L 121.7 43.0 L 117.7 48.8 L 113.3 54.2 L 108.5 59.4 L 103.3 64.2 L 97.6 68.6 L 91.5 72.6 L 90.4 71.3 L 95.1 65.9 L 99.4 60.5 L 103.5 55.1 L 107.2 49.7 L 110.6 44.1 L 113.6 38.4 L 116.2 32.6 L 118.5 26.7 L 120.4 20.6 L 121.67873640060425 15.314556312561034 L 121.6 15.3 L 122.3 12.7 L 133.5 17.5 L 135.9 20.2 L 132.21134748458863 21.253900718688964 L 131.2 24.2 L 128.4 30.7 L 125.70793647766114 36.0 L 164.0 36.0 L 174.0 26.0 L 186.0 36.0 L 186.0 40.0 L 133.90588235855103 40.0 L 136.2 41.0 L 139.8 42.8 L 143.2 44.9 L 146.4 47.1 L 149.3 49.5 L 151.9 52.1 L 154.4 54.8 L 156.5 57.8 L 158.4 60.9 L 158.3 65.5 L 155.1 68.7 L 150.5 68.7 L 147.3 65.5 L 146.5 63.0 Z " />
</g>
</svg>
