<svg xmlns="http://www.w3.org/2000/svg" xmlns:xlink="http://www.w3.org/1999/xlink" version="1.1" baseProfile="full" viewBox="0 0 200 200" width="200" height="200">
<g fill="black">
<path d="M 146.0 175.0 L 162.0 175.0 L 163.2 174.9 L 164.1 174.7 L 165.0 174.4 L 165.4 174.0 L 165.7 173.1 L 165.9 172.2 L 166.0 171.0 L 166.0 147.0 L 136.0 147.0 L 136.0 174.0 L 124.0 180.0 L 124.0 147.0 L 94.0 147.0 L 94.0 180.0 L 82.0 186.0 L 82.0 88.0 L 94.0 94.0 L 124.0 94.0 L 124.0 70.0 L 73.0 70.0 L 73.0 66.0 L 113.5 66.0 L 113.5 14.0 L 124.5 16.0 L 127.2 18.0 L 124.5 19.723404216766358 L 124.5 66.0 L 135.5 66.0 L 135.5 14.0 L 146.5 16.0 L 149.2 18.0 L 146.5 19.723404216766358 L 146.5 66.0 L 152.5392156600952 66.0 L 153.5 62.5 L 154.8 57.5 L 156.2 52.7 L 157.6 48.1 L 159.0 43.6 L 160.3 39.2 L 161.6 35.0 L 162.8 30.8 L 163.9 26.8 L 164.70999383926392 23.928203582763672 L 164.6 23.9 L 165.5 21.5 L 176.3 26.9 L 178.5 29.8 L 174.67838373184205 30.524789333343506 L 174.6 30.7 L 172.8 34.6 L 170.9 38.6 L 168.8 42.6 L 166.7 46.8 L 164.5 51.0 L 162.1 55.3 L 159.5 59.6 L 156.7 63.9 L 155.31590909957885 66.0 L 164.0 66.0 L 174.0 56.0 L 186.0 66.0 L 186.0 70.0 L 136.0 70.0 L 136.0 94.0 L 166.0 94.0 L 172.0 89.0 L 183.0 98.0 L 178.0 102.0 L 178.0 171.0 L 177.8 173.5 L 177.4 176.0 L 176.6 178.4 L 175.3 180.7 L 173.7 182.7 L 171.7 184.3 L 169.4 185.6 L 167.0 186.4 L 164.5 186.8 L 162.0 187.0 L 162.0 181.0 L 146.0 178.0 Z M 37.7 186.9 L 33.7 184.8 L 32.2 180.5 L 32.7 173.5 L 32.8 167.1 L 32.3 161.2 L 31.4 156.0 L 29.9 151.4 L 28.776025676727294 148.91542520523072 L 27.1 148.5 L 27.758680248260497 146.82796545028685 L 25.6 143.5 L 22.6 140.1 L 19.0 137.0 L 14.6 134.1 L 15.2 132.4 L 20.7 133.6 L 25.7 135.8 L 30.3 138.9 L 30.918434047698973 139.53429136276245 L 32.7 135.6 L 35.7 129.1 L 39.3 121.6 L 43.5 112.8 L 48.3 102.9 L 53.9 91.9 L 60.1 79.8 L 67.1 66.6 L 68.8 67.3 L 63.6 81.3 L 58.8 94.1 L 54.4 105.6 L 50.5 115.8 L 47.1 124.8 L 44.3 132.7 L 42.0 139.3 L 40.3 144.7 L 39.2 148.7 L 38.93101949691773 150.51561822891236 L 40.2 153.2 L 42.2 159.3 L 43.5 166.1 L 44.1 173.4 L 44.1 181.4 L 42.1 185.4 Z M 94.0 122.0 L 94.0 143.0 L 124.0 143.0 L 124.0 122.0 Z M 136.0 122.0 L 136.0 143.0 L 166.0 143.0 L 166.0 122.0 Z M 94.0 98.0 L 94.0 118.0 L 124.0 118.0 L 124.0 98.0 Z M 136.0 98.0 L 136.0 118.0 L 166.0 118.0 L 166.0 98.0 Z M 32.4 83.4 L 31.1 81.4 L 29.4 79.4 L 27.4 77.3 L 25.1 75.2 L 22.5 73.2 L 19.5 71.1 L 16.3 68.9 L 12.6 67.1 L 13.2 65.4 L 17.3 66.4 L 21.2 67.2 L 25.0 68.2 L 28.5 69.5 L 31.7 71.0 L 34.8 72.6 L 37.6 74.5 L 40.2 76.5 L 42.6 78.8 L 44.7 81.4 L 45.2 85.9 L 42.4 89.6 L 37.9 90.1 L 34.3 87.3 L 33.5 85.4 Z M 93.5 49.5 L 93.1 46.1 L 92.6 42.7 L 91.9 39.3 L 91.0 35.9 L 90.0 32.5 L 88.8 29.1 L 87.5 25.7 L 85.8 22.3 L 87.3 21.2 L 92.7 26.8 L 95.1 29.9 L 97.3 33.1 L 99.2 36.5 L 100.9 40.0 L 102.4 43.7 L 103.7 47.5 L 104.8 51.4 L 105.7 55.4 L 104.2 59.8 L 100.2 61.9 L 95.9 60.5 L 93.7 56.5 L 93.7 53.0 Z M 45.1 37.5 L 43.7 35.4 L 42.1 33.3 L 40.3 31.2 L 38.2 29.2 L 35.9 27.1 L 33.4 25.0 L 30.7 22.9 L 27.6 21.2 L 28.2 19.5 L 31.7 20.5 L 35.3 21.3 L 38.6 22.4 L 41.8 23.6 L 44.8 25.1 L 47.6 26.7 L 50.3 28.6 L 52.9 30.6 L 55.2 32.8 L 57.4 35.2 L 58.1 39.7 L 55.6 43.5 L 51.1 44.2 L 47.3 41.7 L 46.3 39.6 Z " />
</g>
</svg>
