<svg xmlns="http://www.w3.org/2000/svg" xmlns:xlink="http://www.w3.org/1999/xlink" version="1.1" baseProfile="full" viewBox="0 0 200 200" width="200" height="200">
<g fill="black">
<path d="M 160.4 118.3 L 153.1 112.8 L 146.1 106.8 L 139.6 100.3 L 133.5 93.3 L 127.7 85.8 L 122.5 77.8 L 117.7 69.3 L 114.01111106872558 61.0 L 84.915625 61.0 L 88.9 63.5 L 90.7 66.6 L 86.95622205734253 66.92273950576782 L 84.3 71.6 L 79.0 79.4 L 73.2 87.0 L 66.8 94.2 L 59.9 101.1 L 52.4 107.8 L 44.3 114.1 L 35.6 120.1 L 26.3 125.6 L 16.4 130.7 L 15.5 129.2 L 24.2 122.5 L 32.4 115.7 L 40.1 109.0 L 47.2 102.2 L 53.8 95.2 L 59.8 88.1 L 65.2 80.9 L 70.1 73.5 L 74.4 65.9 L 76.75454549789428 61.0 L 20.0 61.0 L 20.0 57.0 L 111.85076923370362 57.0 L 114.5 52.9 L 118.6 46.9 L 122.5 41.3 L 126.2 36.2 L 129.5 31.5 L 132.6 27.1 L 135.3 23.1 L 137.7 19.4 L 139.8 16.2 L 140.9971007347107 14.157886981964111 L 140.9 14.1 L 142.0 12.6 L 151.3 20.3 L 152.5 23.6 L 148.60194807052613 23.331168842315673 L 146.2 26.0 L 143.2 29.3 L 139.8 32.9 L 136.1 36.8 L 132.0 41.1 L 127.6 45.6 L 122.7 50.4 L 117.4 55.4 L 115.58039216995239 57.0 L 158.0 57.0 L 168.0 47.0 L 180.0 57.0 L 180.0 61.0 L 116.46753244400024 61.0 L 121.3 67.1 L 127.3 74.4 L 133.3 81.2 L 139.6 87.6 L 146.1 93.6 L 152.7 99.0 L 159.6 103.9 L 166.8 108.4 L 174.2 112.4 L 187.5 118.7 L 176.1 127.9 L 168.1 123.4 Z M 70.6 41.5 L 68.9 38.5 L 66.8 35.6 L 64.4 32.6 L 61.7 29.7 L 58.6 26.8 L 55.3 23.9 L 51.6 21.0 L 47.5 18.2 L 48.2 16.5 L 53.1 18.1 L 57.7 19.8 L 62.0 21.8 L 66.1 24.1 L 69.8 26.6 L 73.3 29.4 L 76.5 32.4 L 79.4 35.6 L 81.9 39.1 L 84.2 42.8 L 84.3 47.3 L 81.2 50.7 L 76.6 50.8 L 73.2 47.7 L 72.1 44.6 Z " />
</g>
</svg>
