<svg xmlns="http://www.w3.org/2000/svg" xmlns:xlink="http://www.w3.org/1999/xlink" version="1.1" baseProfile="full" viewBox="0 0 200 200" width="200" height="200">
<g fill="black">
<path d="M 73.9 128.6 L 72.9 124.6 L 71.6 120.8 L 70.2 117.0 L 68.6 113.3 L 66.7 109.7 L 64.7 106.2 L 63.970718193054196 105.00662984848023 L 63.7 105.9 L 60.3 115.3 L 56.6 124.2 L 52.4 132.5 L 47.9 140.2 L 42.8 147.3 L 37.3 153.7 L 36.0 152.74666662216185 L 36.0 170.0 L 164.0 170.0 L 164.0 69.0 L 176.0 71.0 L 179.0 73.0 L 176.0 74.8 L 176.0 178.0 L 164.0 184.0 L 164.0 174.0 L 36.0 174.0 L 28.0 182.0 L 18.0 172.0 L 24.0 166.0 L 24.0 68.0 L 36.0 70.0 L 39.0 72.0 L 36.0 73.8 L 36.0 152.21578950881957 L 39.6 145.3 L 43.1 137.6 L 46.5 129.7 L 49.5 121.3 L 52.3 112.6 L 54.8 103.3 L 56.9 93.7 L 58.7 83.5 L 60.2 72.9 L 61.4 61.8 L 61.42859811782837 61.80336446762085 L 61.7 59.7 L 73.3 63.2 L 76.1 65.5 L 72.6932620048523 67.04267377853394 L 71.5 74.6 L 69.3 85.6 L 66.7 96.0 L 65.30280704498291 100.61073684692383 L 68.4 103.0 L 71.7 106.1 L 74.6 109.5 L 77.3 113.1 L 79.8 116.9 L 82.0 121.0 L 83.9 125.2 L 85.6 129.7 L 87.1 134.4 L 86.2 138.8 L 82.5 141.5 L 78.0 140.6 L 75.4 136.8 L 74.7 132.6 Z M 147.9 130.7 L 146.4 126.2 L 144.6 121.9 L 142.8 117.8 L 140.8 113.9 L 138.8 110.2 L 136.6 106.7 L 134.3042977333069 103.20654001235962 L 133.7 105.3 L 130.4 114.4 L 126.7 122.8 L 122.6 130.7 L 118.0 137.8 L 113.0 144.2 L 107.4 149.9 L 106.96045846939087 149.49426937103271 L 106.8 151.5 L 106.4 154.0 L 105.6 156.4 L 104.3 158.7 L 102.7 160.7 L 100.7 162.3 L 98.4 163.6 L 96.0 164.4 L 93.5 164.8 L 91.0 165.0 L 91.0 159.0 L 77.0 156.0 L 77.0 153.0 L 91.0 153.0 L 92.2 152.9 L 93.1 152.7 L 94.0 152.4 L 94.4 152.0 L 94.7 151.1 L 94.9 150.2 L 95.0 149.0 L 95.0 61.0 L 106.61666669845582 62.93611106872559 L 108.1 61.7 L 114.4 56.5 L 120.4 51.7 L 126.0 47.2 L 131.2 43.0 L 136.0 39.0 L 140.4 35.3 L 144.0666666984558 32.0 L 36.0 32.0 L 36.0 28.0 L 148.4 28.0 L 151.0 25.4 L 151.47013816833496 25.94155149459839 L 155.0 23.0 L 166.0 32.0 L 161.0 35.0 L 154.4720000267029 37.71999998092652 L 151.0 40.2 L 146.5 43.2 L 141.5 46.5 L 136.2 49.9 L 130.4 53.5 L 124.1 57.2 L 117.4 61.0 L 110.2 64.8 L 109.91428575515747 64.94285717010499 L 110.0 65.0 L 107.0 66.8 L 107.0 147.0945945739746 L 109.8 142.1 L 113.4 135.1 L 116.7 127.7 L 119.7 119.9 L 122.4 111.6 L 124.7 102.7 L 126.8 93.3 L 128.5 83.4 L 129.8 72.9 L 130.8 62.9 L 131.1 59.8 L 142.8 63.1 L 145.6 65.4 L 142.21920957565308 66.99471244812011 L 141.1 74.5 L 139.0 85.4 L 136.5 95.6 L 135.3063226699829 99.7352394104004 L 136.8 100.6 L 140.4 103.2 L 143.7 106.3 L 146.9 109.7 L 149.9 113.5 L 152.7 117.6 L 155.4 122.0 L 157.8 126.7 L 160.1 131.7 L 162.2 137.0 L 161.7 141.5 L 158.2 144.5 L 153.7 144.0 L 150.7 140.5 L 149.4 135.5 Z " />
</g>
</svg>
