<svg xmlns="http://www.w3.org/2000/svg" xmlns:xlink="http://www.w3.org/1999/xlink" version="1.1" baseProfile="full" viewBox="0 0 200 200" width="200" height="200">
<g fill="black">
<path d="M 77.6 135.4 L 76.44137935638427 141.7 L 125.5 141.7 L 125.5 111.1 L 137.5 113.1 L 140.5 115.1 L 137.5 116.9 L 137.5 141.7 L 167.2 141.7 L 177.2 131.7 L 189.2 141.7 L 189.2 145.7 L 137.5 145.7 L 137.5 182.8 L 125.5 188.8 L 125.5 145.7 L 75.5259259223938 145.7 L 73.6 152.2 L 70.4 159.7 L 66.5 166.4 L 61.7 172.3 L 56.3 177.4 L 50.1 181.7 L 43.3 185.1 L 35.8 187.6 L 27.7 189.1 L 27.3 187.4 L 34.5 184.0 L 40.8 180.3 L 46.4 176.3 L 51.1 171.8 L 55.2 166.9 L 58.6 161.5 L 61.3 155.6 L 63.4 149.1 L 64.06111106872558 145.7 L 11.8 145.7 L 11.8 141.7 L 64.82077922821045 141.7 L 65.6 134.2 L 65.6 111.1 L 77.6 113.1 L 80.6 115.1 L 77.6 116.9 L 77.6 134.8 L 77.225 135.3625 Z M 61.9 14.5 L 64.9 16.5 L 61.9 18.3 L 61.9 32.0 L 70.8 32.0 L 80.8 22.0 L 92.8 32.0 L 92.8 36.0 L 61.9 36.0 L 61.9 57.1 L 68.8 57.1 L 78.8 47.1 L 90.8 57.1 L 90.8 61.1 L 61.9 61.1 L 61.9 83.3 L 75.8 83.3 L 85.8 73.3 L 97.8 83.3 L 97.8 87.3 L 61.9 87.3 L 61.9 108.0 L 49.9 114.0 L 49.9 87.3 L 14.9 87.3 L 14.9 83.3 L 49.9 83.3 L 49.9 61.1 L 21.4 61.1 L 21.4 57.1 L 49.9 57.1 L 49.9 36.0 L 19.4 36.0 L 19.4 32.0 L 49.9 32.0 L 49.9 12.5 Z M 166.5 107.2 L 164.7 108.8 L 162.7 110.2 L 160.7 111.3 L 158.5 112.3 L 156.2 113.0 L 153.9 113.5 L 151.4 113.9 L 149.0 114.0 L 149.0 108.0 L 129.0 105.0 L 129.0 102.0 L 149.0 102.0 L 150.4 101.9 L 151.8 101.7 L 154.2 101.1 L 155.3 100.6 L 156.3 100.0 L 157.3 99.3 L 158.3 98.5 L 159.3 97.5 L 160.2 96.4 L 161.1 94.7 L 162.3 91.6 L 163.4 87.3 L 164.4 81.7 L 165.3 74.9 L 166.0 67.1 L 166.6 58.1 L 167.0 48.0 L 167.2 36.9 L 167.28373985290528 26.6 L 141.96046514511107 26.6 L 141.1 37.7 L 139.2 49.8 L 136.3 61.1 L 132.6 71.5 L 127.9 81.0 L 122.3 89.5 L 115.9 97.1 L 108.5 103.7 L 100.2 109.1 L 91.2 113.4 L 90.3 111.8 L 98.1 106.0 L 104.9 99.7 L 110.9 92.8 L 116.1 85.3 L 120.4 77.1 L 123.9 68.2 L 126.6 58.5 L 128.6 48.0 L 129.7 36.7 L 129.9504132270813 26.6 L 94.2 26.6 L 94.2 22.6 L 167.3 22.6 L 173.3 17.6 L 184.3 26.6 L 179.3 29.6 L 179.25954151153564 29.616857719421386 L 179.2 37.0 L 179.0 48.4 L 178.6 58.7 L 178.0 68.0 L 177.2 76.2 L 176.2 83.5 L 175.1 89.8 L 173.7 95.2 L 172.0 99.7 L 169.8 103.6 L 168.2 105.5 Z M 93.7 72.3 L 92.3 68.0 L 94.3 63.9 L 95.9 62.8 L 97.6 61.4 L 99.2 59.7 L 100.8 57.7 L 102.4 55.4 L 103.8 52.8 L 105.2 49.8 L 106.5 46.5 L 107.9 42.9 L 108.7 38.9 L 110.5 39.0 L 110.5 43.2 L 110.7 47.2 L 110.6 51.0 L 110.2 54.7 L 109.5 58.2 L 108.6 61.5 L 107.4 64.6 L 105.9 67.6 L 104.2 70.4 L 102.1 72.9 L 97.8 74.3 Z " />
</g>
</svg>
