<svg xmlns="http://www.w3.org/2000/svg" xmlns:xlink="http://www.w3.org/1999/xlink" version="1.1" baseProfile="full" viewBox="0 0 200 200" width="200" height="200">
<g fill="black">
<path d="M 178.0 32.0 L 178.0 36.0 L 84.6896861076355 36.0 L 68.34958610534667 115.64682607650757 L 71.8 115.5 L 77.2 115.3 L 83.5 115.0 L 90.6 114.7 L 98.4 114.4 L 107.1 114.2 L 116.6 114.0 L 124.44235706329346 114.07613935470582 L 126.1 108.7 L 129.5 96.3 L 132.3 83.6 L 134.8 70.5 L 136.74393186569213 58.00329484939575 L 136.7 58.0 L 137.2 55.0 L 148.7 58.9 L 151.4 61.3 L 147.95 62.705555534362794 L 146.0 72.6 L 142.8 86.0 L 139.1 99.0 L 135.0 111.5 L 130.4 123.7 L 125.3 135.4 L 119.7 146.6 L 113.6 157.4 L 107.0 167.7 L 101.50618553161621 175.0 L 163.0 175.0 L 173.0 165.0 L 185.0 175.0 L 185.0 179.0 L 18.0 179.0 L 18.0 175.0 L 98.9710280418396 175.0 L 103.7 165.8 L 108.9 154.9 L 113.8 143.8 L 118.3 132.4 L 122.4 120.7 L 123.70995607376099 116.45149383544921 L 116.9 117.8 L 107.6 119.5 L 99.1 121.0 L 91.3 122.2 L 84.4 123.4 L 78.3 124.5 L 72.9 125.5 L 68.4 126.4 L 64.7 127.2 L 63.5 127.5 L 59.0 132.0 L 49.0 122.0 L 56.03552370071411 116.13706350326538 L 72.39179267883301 36.0 L 20.0 36.0 L 20.0 32.0 L 156.0 32.0 L 166.0 22.0 Z " />
</g>
</svg>
